<svg width="77" height="80" viewBox="0 0 77 80" fill="none" xmlns="http://www.w3.org/2000/svg">
<path d="M74.5167 70.599C74.5178 72.2469 73.934 73.8418 72.8694 75.0997C71.8048 76.3576 70.3283 77.197 68.7029 77.4684C48.6951 80.844 28.2633 80.844 8.25553 77.4684C6.63692 77.1898 5.16921 76.3471 4.11257 75.0897C3.05593 73.8323 2.47862 72.2414 2.48293 70.599V3.80176H74.5497L74.5167 70.599Z" fill="#EB5757"/>
<path opacity="0.3" d="M2.44189 5.00586V14.3822C6.77959 15.9903 21.0214 17.1696 38.4794 17.1696C55.9374 17.1696 70.204 15.9903 74.5169 14.3822V5.00586H2.44189Z" fill="#631313"/>
<path d="M75.8694 12.1552C75.8694 14.2746 59.5082 15.9899 38.4795 15.9899C17.4507 15.9899 1.08951 14.2746 1.08951 12.1552L0.405029 3.82617H76.5951L75.8694 12.1552Z" fill="#EB5757"/>
<path d="M38.4795 7.65282C59.5074 7.65282 76.5539 5.93966 76.5539 3.8264C76.5539 1.71313 59.5074 0 38.4795 0C17.4515 0 0.405029 1.71313 0.405029 3.8264C0.405029 5.93966 17.4515 7.65282 38.4795 7.65282Z" fill="#EB5757"/>
<path opacity="0.3" d="M38.4795 7.65282C59.5074 7.65282 76.5539 5.93966 76.5539 3.8264C76.5539 1.71313 59.5074 0 38.4795 0C17.4515 0 0.405029 1.71313 0.405029 3.8264C0.405029 5.93966 17.4515 7.65282 38.4795 7.65282Z" fill="#631313"/>
<path opacity="0.2" d="M12.1069 65.898C11.3661 65.8958 10.6563 65.6006 10.1325 65.0768C9.60868 64.553 9.31345 63.8432 9.31128 63.1024V24.8053C9.31345 24.0646 9.60868 23.3548 10.1325 22.831C10.6563 22.3072 11.3661 22.0119 12.1069 22.0098C12.847 22.0141 13.5555 22.31 14.0789 22.8333C14.6022 23.3567 14.8981 24.0652 14.9025 24.8053V63.1024C14.8981 63.8425 14.6022 64.5511 14.0789 65.0744C13.5555 65.5978 12.847 65.8937 12.1069 65.898Z" fill="#631313"/>
<path opacity="0.2" d="M64.8603 65.898C64.1195 65.8958 63.4097 65.6006 62.8859 65.0768C62.3621 64.553 62.0669 63.8432 62.0647 63.1024V24.8053C62.0669 24.0646 62.3621 23.3548 62.8859 22.831C63.4097 22.3072 64.1195 22.0119 64.8603 22.0098C65.6004 22.0141 66.3089 22.31 66.8323 22.8333C67.3556 23.3567 67.6515 24.0652 67.6559 24.8053V63.1024C67.6515 63.8425 67.3556 64.5511 66.8323 65.0744C66.3089 65.5978 65.6004 65.8937 64.8603 65.898Z" fill="#631313"/>
<path opacity="0.2" d="M47.2705 65.898C46.5304 65.8937 45.8218 65.5978 45.2985 65.0744C44.7751 64.5511 44.4792 63.8425 44.4749 63.1024V24.8053C44.4792 24.0652 44.7751 23.3567 45.2985 22.8333C45.8218 22.31 46.5304 22.0141 47.2705 22.0098C48.0112 22.0119 48.721 22.3072 49.2448 22.831C49.7686 23.3548 50.0639 24.0646 50.066 24.8053V63.1024C50.0639 63.8432 49.7686 64.553 49.2448 65.0768C48.721 65.6006 48.0112 65.8958 47.2705 65.898Z" fill="#631313"/>
<path opacity="0.2" d="M29.6884 65.898C28.9483 65.8937 28.2397 65.5978 27.7164 65.0744C27.1931 64.5511 26.8972 63.8425 26.8928 63.1024V24.8053C26.8972 24.0652 27.1931 23.3567 27.7164 22.8333C28.2397 22.31 28.9483 22.0141 29.6884 22.0098C30.4292 22.0119 31.139 22.3072 31.6628 22.831C32.1866 23.3548 32.4818 24.0646 32.484 24.8053V63.1024C32.4818 63.8432 32.1866 64.553 31.6628 65.0768C31.139 65.6006 30.4292 65.8958 29.6884 65.898Z" fill="#631313"/>
</svg>
