<svg width="80" height="27" viewBox="0 0 80 27" fill="none" xmlns="http://www.w3.org/2000/svg">
<rect y="0.5" width="80" height="26" rx="8" fill="#195685"/>
<g clip-path="url(#clip0_1721_39825)">
<path d="M44.3103 11.101C44.8006 9.13108 43.6049 7.50098 40.6759 7.50098H34.3277L31.9492 17.1354L33.3298 19.5053H37.8459C40.805 19.5053 43.0974 18.1246 43.6866 15.7246C43.9834 14.4945 43.6393 13.6343 42.8651 13.2042V13.1741C43.5993 12.6985 44.118 11.9543 44.3103 11.101ZM40.4394 15.6472C40.3189 16.1504 39.9792 16.6666 38.5727 16.6666H35.6911L36.1943 14.6021H39.0631C40.4523 14.5978 40.5555 15.1268 40.4222 15.6472H40.4394ZM41.0157 11.1655C40.9125 11.5526 40.6157 12.0257 39.4028 12.0257H36.8222L37.2523 10.3483H39.8329C41.0587 10.3397 41.1189 10.7354 41.0157 11.1655Z" fill="#14A0FF"/>
<path d="M48.3071 14.8558H54.0877L54.7457 12.0171H49.0039L49.4512 10.3397H55.1371L55.7952 7.50098H46.462L43.5029 19.501H54.0748L54.7672 16.6623H47.8813L48.3071 14.8558Z" fill="#14A0FF"/>
<path d="M56.6038 7.50098L55.9414 10.3397H59.3951L57.1285 19.501H60.7542L63.0251 10.3397H66.724L67.4337 7.50098H56.6038Z" fill="#14A0FF"/>
<path d="M16.3638 19.501H12.7079L14.2907 13.0924L14.6563 12.1246L13.6886 13.0924L12.6133 14.1805L12.5703 10.9805L16.3638 7.50098H19.3186L16.3638 19.501Z" fill="white"/>
<path d="M29.5643 14.5289L28.3987 12.5547L34.0545 7.50098H28.7858L26.6353 9.56549L19.3408 16.2537L15.8398 19.501H20.8247L24.5709 16.159L25.831 18.3096C26.2611 18.8515 26.8676 19.5096 29.4396 19.5096H32.4503L29.5686 14.5246L29.5643 14.5289Z" fill="white"/>
<path d="M26.2287 8.90152V8.87571C25.906 8.42551 25.4754 8.06356 24.9764 7.82308C24.4775 7.5826 23.9261 7.47129 23.3729 7.49937H19.4805L22.3836 12.437L26.2287 8.90152Z" fill="white"/>
</g>
<defs>
<clipPath id="clip0_1721_39825">
<rect width="54.8634" height="12" fill="white" transform="translate(12.5684 7.5)"/>
</clipPath>
</defs>
</svg>
