<svg width="24" height="24" viewBox="0 0 24 24" fill="none" xmlns="http://www.w3.org/2000/svg">
<path d="M10.4136 21.5964L10.4115 21.5943L8.70147 19.9044L8.69938 19.9023C8.17685 19.3919 7.49179 19.11 6.75999 19.11H6C4.20265 19.11 2.75 17.6604 2.75 15.89V4.97998C2.75 3.20961 4.20265 1.76001 6 1.76001H18C19.7974 1.76001 21.25 3.20961 21.25 4.97998V15.89C21.25 17.6604 19.7974 19.11 18 19.11H17.24C16.5121 19.11 15.8141 19.3894 15.2975 19.9054C15.2972 19.9057 15.2968 19.9061 15.2964 19.9065L13.5885 21.5943L13.5864 21.5964C13.1547 22.0281 12.5739 22.25 12 22.25C11.4261 22.25 10.8453 22.0281 10.4136 21.5964ZM10.7685 21.2356L10.7701 21.2372C11.4545 21.9076 12.5555 21.9076 13.2399 21.2372L13.2415 21.2356L14.951 19.546C14.9511 19.5459 14.9512 19.5458 14.9513 19.5457C15.5687 18.9372 16.3828 18.6 17.25 18.6H18C19.5103 18.6 20.75 17.382 20.75 15.88V4.96997C20.75 3.45656 19.5088 2.25 18 2.25H6C4.4897 2.25 3.25 3.46802 3.25 4.96997V15.88C3.25 17.3934 4.49118 18.6 6 18.6H6.75999C7.62728 18.6 8.44157 18.9373 9.05897 19.546L10.7685 21.2356Z" fill="#141414" stroke="#141414"/>
<path d="M9.21024 11.86L8.92929 11.4464C8.91246 11.4578 8.89549 11.4693 8.8784 11.4809C8.3896 11.8125 7.80212 12.211 7.49314 12.7672L7.08046 13.51H7.93022H10.3702C10.5041 13.51 10.6202 13.6262 10.6202 13.76C10.6202 13.9026 10.5054 14.01 10.3802 14.01H7.70023C7.42192 14.01 7.16224 13.878 6.99556 13.6472L6.99558 13.6472L6.99305 13.6437C6.8434 13.4402 6.80175 13.1873 6.87748 12.9293C7.16815 12.0484 7.87315 11.5559 8.65123 11.0236C9.04151 10.7601 9.40185 10.5103 9.65872 10.2383C9.93636 9.94437 10.1202 9.5971 10.1202 9.15002C10.1202 8.35392 9.47641 7.70996 8.68022 7.70996C7.88403 7.70996 7.24023 8.35394 7.24023 9.15002C7.24023 9.28388 7.12409 9.40002 6.99023 9.40002C6.85638 9.40002 6.74023 9.28388 6.74023 9.15002C6.74023 8.08481 7.60772 7.20996 8.68022 7.20996C9.75406 7.20996 10.6202 8.07615 10.6202 9.15002C10.6202 10.2614 9.81288 10.8435 8.92842 11.447L9.21024 11.86ZM9.21024 11.86C8.8943 12.0746 8.58902 12.2821 8.341 12.51H7.93022V13.01L8.3673 13.2528C8.41364 13.1694 8.47332 13.0894 8.54597 13.01H10.3702C10.7802 13.01 11.1202 13.35 11.1202 13.76C11.1202 14.17 10.7902 14.51 10.3802 14.51H7.70023C7.26023 14.51 6.85023 14.2999 6.59023 13.9399C6.34023 13.5999 6.28022 13.18 6.40022 12.78L9.21024 11.86Z" fill="#141414" stroke="#141414"/>
<path d="M15.7899 13.07V12.57H15.2899H13.3299H13.3299H13.3299H13.3299H13.3299H13.3299H13.3299H13.3299H13.3298H13.3298H13.3298H13.3298H13.3298H13.3298H13.3298H13.3298H13.3298H13.3298H13.3298H13.3298H13.3298H13.3298H13.3298H13.3298H13.3298H13.3298H13.3298H13.3298H13.3298H13.3297H13.3297H13.3297H13.3297H13.3297H13.3297H13.3297H13.3297H13.3297H13.3297H13.3297H13.3297H13.3297H13.3297H13.3297H13.3297H13.3297H13.3297H13.3297H13.3297H13.3297H13.3297H13.3296H13.3296H13.3296H13.3296H13.3296H13.3296H13.3296H13.3296H13.3296H13.3296H13.3296H13.3296H13.3296H13.3296H13.3296H13.3296H13.3296H13.3296H13.3296H13.3295H13.3295H13.3295H13.3295H13.3295H13.3295H13.3295H13.3295H13.3295H13.3295H13.3295H13.3295H13.3295H13.3295H13.3295H13.3294H13.3294H13.3294H13.3294H13.3294H13.3294H13.3294H13.3294H13.3294H13.3294H13.3294H13.3294H13.3294H13.3293H13.3293H13.3293H13.3293H13.3293H13.3293H13.3293H13.3293H13.3293H13.3293H13.3293H13.3292H13.3292H13.3292H13.3292H13.3292H13.3292H13.3292H13.3292H13.3292H13.3292H13.3292H13.3291H13.3291H13.3291H13.3291H13.3291H13.3291H13.3291H13.3291H13.3291H13.329H13.329H13.329H13.329H13.329H13.329H13.329H13.329H13.329H13.3289H13.3289H13.3289H13.3289H13.3289H13.3289H13.3289H13.3289H13.3288H13.3288H13.3288H13.3288H13.3288H13.3288H13.3288H13.3287H13.3287H13.3287H13.3287H13.3287H13.3287H13.3287H13.3286H13.3286H13.3286H13.3286H13.3286H13.3286H13.3286H13.3285H13.3285H13.3285H13.3285H13.3285H13.3285H13.3284H13.3284H13.3284H13.3284H13.3284H13.3284H13.3284H13.3283H13.3283H13.3283H13.3283H13.3283H13.3282H13.3282H13.3282H13.3282H13.3282H13.3282H13.3281H13.3281H13.3281H13.3281H13.3281H13.328H13.328H13.328H13.328H13.328H13.328H13.3279H13.3279H13.3279H13.3279H13.3279H13.3278H13.3278H13.3278H13.3278H13.3277H13.3277H13.3277H13.3277H13.3277H13.3276H13.3276H13.3276H13.3276H13.3276H13.3275H13.3275H13.3275H13.3275H13.3274H13.3274H13.3274H13.3274H13.3273H13.3273H13.3273H13.3273H13.3273H13.3272H13.3272H13.3272H13.3272H13.3271H13.3271H13.3271H13.3271H13.327H13.327H13.327H13.327H13.3269H13.3269H13.3269H13.3269H13.3268H13.3268H13.3268H13.3267H13.3267H13.3267H13.3267H13.3266H13.3266H13.3266H13.3266H13.3265H13.3265H13.3265H13.3264H13.3264H13.3264H13.3263H13.3263H13.3263H13.3263H13.3262H13.3262H13.3262H13.3261H13.3261H13.3261H13.326H13.326H13.326H13.326H13.3259H13.3259H13.3259H13.3258H13.3258H13.3258H13.3257H13.3257H13.3257H13.3256H13.3256H13.3256H13.3255H13.3255H13.3255H13.3254H13.3254H13.3254H13.3253H13.3253H13.3253H13.3252H13.3252H13.3252H13.3251H13.3251H13.325H13.325H13.325H13.3249H13.3249H13.3249H13.3248H13.3248H13.3247H13.3247H13.3247H13.3246H13.3246H13.3246H13.3245H13.3245H13.3244H13.3244H13.3244H13.3243H13.3243H13.3242H13.3242H13.3242H13.3241H13.3241H13.324H13.324H13.324H13.3239H13.3239H13.3238H13.3238H13.3238H13.3237H13.3237H13.3236H13.3236H13.3235H13.3235H13.3235H13.3234H13.3234H13.3233H13.3233H13.3232H13.3232H13.3231H13.3231H13.3231H13.323H13.323H13.3229H13.3229H13.3228H13.3228H13.3227H13.3227H13.3226H13.3226H13.3225H13.3225H13.3224H13.3224H13.3223H13.3223H13.3222H13.3222H13.3221H13.3221H13.3221H13.322H13.322H13.3219H13.3218H13.3218H13.3217H13.3217H13.3216H13.3216H13.3215H13.3215H13.3214H13.3214H13.3213H13.3213H13.3212H13.3212H13.3211H13.3211H13.321H13.321H13.3209H13.3208H13.3208H13.3207H13.3207H13.3206H13.3206H13.3205H13.3205H13.3204H13.3203H13.3203H13.3202H13.3202H13.3201H13.3201H13.32H13.3199H13.3199C13.0096 12.57 12.7223 12.4061 12.5608 12.1365C12.4014 11.8605 12.4048 11.5257 12.5595 11.2658L12.5596 11.2658L12.5622 11.2613C13.2405 10.0942 14.0276 8.76912 14.744 7.61486C14.9242 7.3284 15.2485 7.18331 15.571 7.22776L14.8639 8.37827C14.2712 9.34272 13.6591 10.3762 13.1083 11.3175L12.668 12.07H13.5399H15.2899H15.7899V11.57V8.64007V7.29148C16.0914 7.42873 16.2854 7.72522 16.2799 8.05178L16.2799 8.05178V8.06012V11.58V12.08H16.7799H16.9999C17.1337 12.08 17.2499 12.1962 17.2499 12.33C17.2499 12.4639 17.1337 12.58 16.9999 12.58H16.7899H16.2899V13.08V13.7701C16.2899 13.8996 16.1881 14.0101 16.0399 14.0101C15.906 14.0101 15.7899 13.8939 15.7899 13.7601V13.07Z" fill="#141414" stroke="#141414"/>
</svg>
