<svg width="74" height="74" viewBox="0 0 74 74" fill="none" xmlns="http://www.w3.org/2000/svg">
<g filter="url(#filter0_di_874_49344)">
<rect x="8" y="4" width="58" height="58" rx="29" fill="white"/>
<path d="M26.0007 22.9944C25.9987 23.4754 26.0277 23.956 26.0876 24.4332C26.3588 26.5551 27.2452 28.5512 28.6375 30.1753C30.0297 31.7994 31.8669 32.9805 33.9224 33.5728C34.8953 33.8518 35.9019 33.9956 36.9139 34.0002C37.6833 34.0038 38.451 33.9269 39.2045 33.7709C40.6406 33.4685 42.0016 32.8817 43.2072 32.0449C44.4129 31.2082 45.4388 30.1385 46.2245 28.899C46.3256 28.7395 46.4225 28.5757 46.5165 28.4118C46.9514 27.6397 47.2906 26.8174 47.5265 25.9631C47.6063 25.6782 47.669 25.3791 47.7316 25.0799C47.7943 24.7808 47.8328 24.4773 47.8641 24.1682C47.9011 23.8121 47.9201 23.4517 47.9211 23.087C47.9236 22.6477 47.8993 22.2086 47.8484 21.7722C47.8143 21.4702 47.7668 21.1725 47.706 20.879C47.2791 18.7621 46.2368 16.8182 44.7098 15.2912C43.1827 13.7641 41.2389 12.7218 39.1219 12.2949C38.8284 12.2351 38.5293 12.1881 38.2273 12.1525C37.8216 12.1051 37.4135 12.0809 37.0051 12.0798C36.6135 12.0772 36.2221 12.0963 35.8327 12.1368C35.525 12.1667 35.2201 12.2123 34.921 12.2693C34.6219 12.3263 34.327 12.3932 34.0364 12.473C33.1819 12.7088 32.3595 13.0484 31.5876 13.4844C31.4224 13.577 31.2586 13.6738 31.099 13.7693C29.3419 14.885 27.9363 16.4753 27.0449 18.3562C26.6772 19.1325 26.4032 19.9497 26.2286 20.7907C26.079 21.5158 26.0026 22.2541 26.0007 22.9944Z" fill="#FCCE17"/>
<path opacity="0.1" d="M26.0007 22.9944C25.9987 23.4754 26.0277 23.956 26.0876 24.4332C26.3588 26.5551 27.2452 28.5512 28.6375 30.1753C30.0297 31.7994 31.8669 32.9805 33.9224 33.5728C34.8953 33.8518 35.9019 33.9956 36.9139 34.0002C37.6833 34.0038 38.451 33.9269 39.2045 33.7709C40.6406 33.4685 42.0016 32.8817 43.2072 32.0449C44.4129 31.2082 45.4388 30.1385 46.2245 28.899C46.3256 28.7395 46.4225 28.5757 46.5165 28.4118C46.9514 27.6397 47.2906 26.8174 47.5265 25.9631C47.6063 25.6782 47.669 25.3791 47.7316 25.0799C47.7943 24.7808 47.8328 24.4773 47.8641 24.1682C47.9011 23.8121 47.9201 23.4517 47.9211 23.087C47.9236 22.6477 47.8993 22.2086 47.8484 21.7722C47.8143 21.4702 47.7668 21.1725 47.706 20.879C47.2791 18.7621 46.2368 16.8182 44.7098 15.2912C43.1827 13.7641 41.2389 12.7218 39.1219 12.2949C38.8284 12.2351 38.5293 12.1881 38.2273 12.1525C37.8216 12.1051 37.4135 12.0809 37.0051 12.0798C36.6135 12.0772 36.2221 12.0963 35.8327 12.1368C35.525 12.1667 35.2201 12.2123 34.921 12.2693C34.6219 12.3263 34.327 12.3932 34.0364 12.473C33.1819 12.7088 32.3595 13.0484 31.5876 13.4844C31.4224 13.577 31.2586 13.6738 31.099 13.7693C29.3419 14.885 27.9363 16.4753 27.0449 18.3562C26.6772 19.1325 26.4032 19.9497 26.2286 20.7907C26.079 21.5158 26.0026 22.2541 26.0007 22.9944Z" fill="#FFF2BE"/>
<path opacity="0.05" d="M47.4923 20.0024C47.5749 20.2873 47.6476 20.5836 47.7074 20.8828C47.7672 21.1819 47.8142 21.474 47.8498 21.776C47.9007 22.2124 47.925 22.6514 47.9225 23.0908C47.9225 23.4555 47.9035 23.8159 47.8655 24.172C47.8342 24.4816 47.79 24.7855 47.733 25.0837C47.6761 25.3828 47.6077 25.6763 47.5279 25.9669C47.2909 26.8182 46.9513 27.6377 46.5165 28.4071C46.4225 28.5709 46.3256 28.7347 46.2245 28.8942C45.2336 30.4653 43.8588 31.7581 42.2298 32.6506C40.6008 33.5431 38.7713 34.0059 36.9139 33.9954C36.514 33.9929 36.1145 33.9686 35.7173 33.9228L47.4923 20.0024Z" fill="#594700"/>
<path opacity="0.05" d="M47.3227 26.6177C47.1088 27.2373 46.8389 27.8362 46.5164 28.4069C46.4224 28.5707 46.3255 28.7345 46.2244 28.894C45.2287 30.4646 43.851 31.7571 42.2201 32.6505L47.3227 26.6177Z" fill="#594700"/>
<path opacity="0.15" d="M45.9938 16.8301C46.3466 17.3419 46.6545 17.8834 46.914 18.4483L34.0934 33.6179L33.9196 33.5709C33.3828 33.4137 32.8589 33.2151 32.3527 32.9769L45.9938 16.8301Z" fill="#FFF2BE"/>
<path opacity="0.15" d="M41.8015 13.2036C42.3763 13.488 42.9253 13.8216 43.4425 14.2008L29.327 30.8989C28.8671 30.4516 28.4471 29.9649 28.072 29.4445L41.8015 13.2036Z" fill="#FFF2BE"/>
<path opacity="0.15" d="M40.2003 12.5664C40.5393 12.6718 40.8717 12.7924 41.1974 12.9282L27.7002 28.8942C27.5122 28.5964 27.3341 28.2916 27.1746 27.9753L40.2003 12.5664Z" fill="#FFF2BE"/>
<path opacity="0.15" d="M26.032 22.2474C26.0462 22.0451 26.0676 21.8443 26.0918 21.6463C26.1004 21.5793 26.1075 21.5124 26.1175 21.4469C26.1274 21.3813 26.1374 21.3044 26.1488 21.2431C26.1744 21.1007 26.2001 20.944 26.23 20.7958C26.663 18.7222 27.6889 16.8189 29.183 15.3172C29.7625 14.7329 30.4056 14.2154 31.1004 13.7744C31.2599 13.6733 31.4238 13.5764 31.589 13.4895C32.3608 13.0536 33.1832 12.7139 34.0377 12.4781C34.146 12.4482 34.2543 12.4226 34.3639 12.3955L26.032 22.2474Z" fill="#FFF2BE"/>
<path d="M28.7942 23.0402C28.7939 25.1115 29.5808 27.1056 30.9956 28.6185C32.4103 30.1313 34.3472 31.05 36.4139 31.1884C36.5934 31.1998 36.7786 31.2069 36.9623 31.2069C39.1098 31.1786 41.1597 30.3056 42.6682 28.777C44.1768 27.2484 45.0226 25.1871 45.0226 23.0395C45.0226 20.8919 44.1768 18.8306 42.6682 17.302C41.1597 15.7734 39.1098 14.9004 36.9623 14.8721C36.7786 14.8721 36.5934 14.8721 36.4139 14.8906C34.3472 15.0297 32.4105 15.9487 30.9959 17.4618C29.5812 18.9748 28.7942 20.9688 28.7942 23.0402Z" fill="#FCCE17"/>
<path opacity="0.4" d="M28.7942 23.0402C28.7939 25.1115 29.5808 27.1056 30.9956 28.6185C32.4103 30.1313 34.3472 31.05 36.4139 31.1884C36.5934 31.1998 36.7786 31.2069 36.9623 31.2069C39.1098 31.1786 41.1597 30.3056 42.6682 28.777C44.1768 27.2484 45.0226 25.1871 45.0226 23.0395C45.0226 20.8919 44.1768 18.8306 42.6682 17.302C41.1597 15.7734 39.1098 14.9004 36.9623 14.8721C36.7786 14.8721 36.5934 14.8721 36.4139 14.8906C34.3472 15.0297 32.4105 15.9487 30.9959 17.4618C29.5812 18.9748 28.7942 20.9688 28.7942 23.0402Z" fill="#594700"/>
<path d="M29.1575 23.0398C29.1575 23.1823 29.1575 23.3247 29.1689 23.4558C29.2704 25.3596 30.0654 27.1603 31.4039 28.518C32.7424 29.8757 34.5317 30.6962 36.4339 30.8248L36.5407 30.8319C36.6832 30.8319 36.8171 30.8433 36.9567 30.8433C38.9127 30.847 40.7986 30.1153 42.2402 28.7932C43.6818 27.4712 44.5736 25.6555 44.7388 23.7065C44.7587 23.4857 44.7673 23.2634 44.7673 23.037C44.7673 22.8105 44.7601 22.6253 44.7445 22.423C44.7126 22.0036 44.6459 21.5877 44.545 21.1794C44.2036 19.794 43.4895 18.5284 42.48 17.5199C41.4705 16.5115 40.2043 15.7986 38.8185 15.4586C38.4102 15.3577 37.9943 15.2909 37.5749 15.2591C37.3726 15.2435 37.1675 15.2363 36.9609 15.2363C36.7857 15.2363 36.6105 15.2363 36.4381 15.2534C36.3897 15.2534 36.3413 15.2534 36.2957 15.2648C35.1588 15.3599 34.0569 15.7053 33.0692 16.2762C31.8802 16.96 30.8928 17.9454 30.2068 19.133C29.5207 20.3206 29.1602 21.6683 29.1617 23.0398H29.1575Z" fill="#FCCE17"/>
<path opacity="0.5" d="M29.1575 23.0398C29.1575 23.1823 29.1575 23.3247 29.1689 23.4558C29.2704 25.3596 30.0654 27.1603 31.4039 28.518C32.7424 29.8757 34.5317 30.6962 36.4339 30.8248L36.5407 30.8319C36.6832 30.8319 36.8171 30.8433 36.9567 30.8433C38.9127 30.847 40.7986 30.1153 42.2402 28.7932C43.6818 27.4712 44.5736 25.6555 44.7388 23.7065C44.7587 23.4857 44.7673 23.2634 44.7673 23.037C44.7673 22.8105 44.7601 22.6253 44.7445 22.423C44.7126 22.0036 44.6459 21.5877 44.545 21.1794C44.2036 19.794 43.4895 18.5284 42.48 17.5199C41.4705 16.5115 40.2043 15.7986 38.8185 15.4586C38.4102 15.3577 37.9943 15.2909 37.5749 15.2591C37.3726 15.2435 37.1675 15.2363 36.9609 15.2363C36.7857 15.2363 36.6105 15.2363 36.4381 15.2534C36.3897 15.2534 36.3413 15.2534 36.2957 15.2648C35.1588 15.3599 34.0569 15.7053 33.0692 16.2762C31.8802 16.96 30.8928 17.9454 30.2068 19.133C29.5207 20.3206 29.1602 21.6683 29.1617 23.0398H29.1575Z" fill="#594700"/>
<path d="M42.4596 28.5769C43.7762 27.2774 44.5846 25.5499 44.7388 23.7065C44.7587 23.4857 44.7687 23.2634 44.7687 23.037C44.7687 22.8105 44.7602 22.6253 44.7445 22.423C44.7127 22.0036 44.646 21.5877 44.5451 21.1794C44.2036 19.794 43.4895 18.5284 42.48 17.5199C41.4706 16.5115 40.2043 15.7986 38.8185 15.4586C38.4102 15.3577 37.9943 15.2909 37.5749 15.2591C37.3726 15.2435 37.1675 15.2363 36.961 15.2363C36.7857 15.2363 36.6105 15.2363 36.4382 15.2534C36.3897 15.2534 36.3413 15.2534 36.2957 15.2648C35.1588 15.3599 34.0569 15.7053 33.0692 16.2762C32.7268 16.4767 32.4001 16.7029 32.092 16.9529C31.3626 17.6758 30.7841 18.5364 30.3899 19.4847C29.9957 20.433 29.7937 21.4502 29.7957 22.4771C29.7957 22.6196 29.7957 22.7549 29.8085 22.8931C29.9094 24.7971 30.7042 26.5982 32.0428 27.956C33.3815 29.3138 35.1711 30.1341 37.0735 30.2621H37.1789C37.3214 30.2692 37.4567 30.2735 37.5963 30.2735C39.3645 30.2752 41.0801 29.672 42.4581 28.5641L42.4596 28.5769Z" fill="#FCCE17"/>
<path opacity="0.25" d="M42.4596 28.5769C43.7762 27.2774 44.5846 25.5499 44.7388 23.7065C44.7587 23.4857 44.7687 23.2634 44.7687 23.037C44.7687 22.8105 44.7602 22.6253 44.7445 22.423C44.7127 22.0036 44.646 21.5877 44.5451 21.1794C44.2036 19.794 43.4895 18.5284 42.48 17.5199C41.4706 16.5115 40.2043 15.7986 38.8185 15.4586C38.4102 15.3577 37.9943 15.2909 37.5749 15.2591C37.3726 15.2435 37.1675 15.2363 36.961 15.2363C36.7857 15.2363 36.6105 15.2363 36.4382 15.2534C36.3897 15.2534 36.3413 15.2534 36.2957 15.2648C35.1588 15.3599 34.0569 15.7053 33.0692 16.2762C32.7268 16.4767 32.4001 16.7029 32.092 16.9529C31.3626 17.6758 30.7841 18.5364 30.3899 19.4847C29.9957 20.433 29.7937 21.4502 29.7957 22.4771C29.7957 22.6196 29.7957 22.7549 29.8085 22.8931C29.9094 24.7971 30.7042 26.5982 32.0428 27.956C33.3815 29.3138 35.1711 30.1341 37.0735 30.2621H37.1789C37.3214 30.2692 37.4567 30.2735 37.5963 30.2735C39.3645 30.2752 41.0801 29.672 42.4581 28.5641L42.4596 28.5769Z" fill="#594700"/>
<path d="M31.589 13.4841C36.3055 11.041 40.1361 12.3117 42.7002 13.8359C46.4039 16.3217 48.7401 20.4856 47.4623 25.9884V25.977C46.9745 27.8073 46.0147 29.4775 44.6788 30.8204C46.0581 29.4734 47.061 27.7889 47.5877 25.9343V25.9443C48.7657 21.3858 47.2843 17.7662 44.8127 15.212C42.1646 12.7704 37.6774 10.3587 31.589 13.4841Z" fill="#FFF2BE"/>
<g filter="url(#filter1_f_874_49344)">
<path d="M37.3511 19.9115C37.076 19.3612 36.8925 19.2236 36.8352 19.2236C36.9569 19.3018 37.0072 19.7396 37.1792 20.0835C37.5637 20.8526 38.1766 22.0441 40.1028 22.3192C42.0289 22.5944 42.059 24.3829 41.9945 25.0708C42.8544 22.8351 40.9485 21.9753 40.1028 21.9753C38.383 21.9753 37.6951 20.5994 37.3511 19.9115Z" fill="#AA8800"/>
<path d="M37.8671 24.382C37.8671 23.1141 36.8926 22.5476 36.4913 22.4902C37.3168 23.0406 37.3512 23.866 37.3512 24.382C38.0391 25.8954 39.3576 25.5858 39.9309 25.2419C38.2111 25.2419 37.8671 24.7259 37.8671 24.382Z" fill="#AA8800"/>
<path d="M34.2554 21.6313C33.1547 21.2185 33.6248 20.3701 33.9114 20.0835C33.7394 20.1408 33.2235 20.5306 33.2235 20.9434C33.2235 21.3561 33.9114 21.574 34.2554 21.6313Z" fill="#AA8800"/>
</g>
<path d="M37.3511 19.9115C37.076 19.3612 36.8925 19.2236 36.8352 19.2236C36.9569 19.3018 37.0072 19.7396 37.1792 20.0835C37.5637 20.8526 38.1766 22.0441 40.1028 22.3192C42.0289 22.5944 42.059 24.3829 41.9945 25.0708C42.8544 22.8351 40.9485 21.9753 40.1028 21.9753C38.383 21.9753 37.6951 20.5994 37.3511 19.9115Z" fill="#FFF2BE"/>
<path d="M37.8671 24.382C37.8671 23.1141 36.8926 22.5476 36.4913 22.4902C37.3168 23.0406 37.3512 23.866 37.3512 24.382C38.0391 25.8954 39.3576 25.5858 39.9309 25.2419C38.2111 25.2419 37.8671 24.7259 37.8671 24.382Z" fill="#FFF2BE"/>
<path d="M34.2554 21.6313C33.1547 21.2185 33.6248 20.3701 33.9114 20.0835C33.7394 20.1408 33.2235 20.5306 33.2235 20.9434C33.2235 21.3561 33.9114 21.574 34.2554 21.6313Z" fill="#FFF2BE"/>
<path d="M37.3402 19.0303C37.4235 18.9835 37.5106 18.9399 37.6018 18.8995C38.0518 18.7 38.5633 18.6003 39.1361 18.6003C39.7191 18.6003 40.228 18.7 40.6627 18.8995C41.1 19.099 41.4401 19.3764 41.683 19.7319C41.9259 20.0873 42.0512 20.499 42.0589 20.967H40.4671C40.4364 20.6576 40.3047 20.4172 40.072 20.2458C39.8393 20.0745 39.5235 19.9889 39.1246 19.9889C38.8535 19.9889 38.6246 20.0272 38.438 20.1039C38.2781 20.1674 38.1501 20.2525 38.054 20.3592C37.7988 19.9873 37.6129 19.5982 37.4575 19.273C37.4165 19.1871 37.3777 19.1057 37.3402 19.0303Z" fill="#FFE16B"/>
<path d="M35.664 25.0105C35.5821 25.0683 35.488 25.118 35.3818 25.1594C35.1747 25.2413 34.9305 25.2822 34.6492 25.2822C34.3628 25.2822 34.1058 25.2387 33.8782 25.1518C33.6532 25.0623 33.4729 24.9306 33.3374 24.7567C33.2044 24.5802 33.129 24.3603 33.1111 24.0969H31.5039C31.5167 24.6621 31.6535 25.1364 31.9143 25.52C32.1777 25.901 32.5434 26.1887 33.0113 26.383C33.4819 26.5774 34.0342 26.6745 34.6684 26.6745C35.3077 26.6745 35.8536 26.5786 36.3062 26.3869C36.3086 26.3859 36.311 26.3848 36.3133 26.3838C35.9716 26.0748 35.6761 25.6849 35.6761 25.257C35.6761 25.1727 35.6722 25.0905 35.664 25.0105Z" fill="#FFE16B"/>
<path fill-rule="evenodd" clip-rule="evenodd" d="M37.2608 19.9282C37.6319 20.7354 38.1879 21.9448 39.8663 22.0846C41.9569 22.2589 42.2763 23.8268 42.1311 24.6979C41.9279 25.9174 40.0405 27.8338 36.9046 26.0916C36.6498 25.95 36.0336 25.3948 36.0336 24.6979C36.0336 24.001 35.6851 23.4784 34.814 23.3042C33.943 23.1299 31.5039 22.6073 31.6781 20.6909C31.8524 18.7745 35.3367 17.7292 36.9046 19.2972C37.027 19.4195 37.1329 19.65 37.2608 19.9282ZM33.4203 20.6909C33.6526 19.9941 34.814 19.4714 35.6851 20.3425C35.8333 20.4907 36.0335 20.6909 36.2077 21.2136C36.2198 21.2496 36.2315 21.2861 36.2433 21.3232C36.4561 21.9882 36.7219 22.8183 39.6921 23.4784C40.1128 23.5719 40.8071 23.8616 40.3889 24.6979C39.9708 25.5341 38.6468 25.3948 38.1241 25.0463C38.008 24.9882 37.6015 24.7499 37.6015 24.1752C37.6015 23.4784 37.4273 22.7815 35.6851 22.0846C35.4776 22.0016 35.2246 21.9265 34.9634 21.849C34.1279 21.601 33.2079 21.3279 33.4203 20.6909Z" fill="#FFE16B"/>
<mask id="mask0_874_49344" style="mask-type:alpha" maskUnits="userSpaceOnUse" x="31" y="18" width="12" height="9">
<path d="M37.3402 19.0303C37.4235 18.9835 37.5106 18.9399 37.6018 18.8995C38.0518 18.7 38.5633 18.6003 39.1361 18.6003C39.7191 18.6003 40.228 18.7 40.6627 18.8995C41.1 19.099 41.4401 19.3764 41.683 19.7319C41.9259 20.0873 42.0512 20.499 42.0589 20.967H40.4671C40.4364 20.6576 40.3047 20.4172 40.072 20.2458C39.8393 20.0745 39.5235 19.9889 39.1246 19.9889C38.8535 19.9889 38.6246 20.0272 38.438 20.1039C38.2781 20.1674 38.1501 20.2525 38.054 20.3592C37.7988 19.9873 37.6129 19.5982 37.4575 19.273C37.4165 19.1871 37.3777 19.1057 37.3402 19.0303Z" fill="#2B892B"/>
<path d="M35.664 25.0105C35.5821 25.0683 35.488 25.118 35.3818 25.1594C35.1747 25.2413 34.9305 25.2822 34.6492 25.2822C34.3628 25.2822 34.1058 25.2387 33.8782 25.1518C33.6532 25.0623 33.4729 24.9306 33.3374 24.7567C33.2044 24.5802 33.129 24.3603 33.1111 24.0969H31.5039C31.5167 24.6621 31.6535 25.1364 31.9143 25.52C32.1777 25.901 32.5434 26.1887 33.0113 26.383C33.4819 26.5774 34.0342 26.6745 34.6684 26.6745C35.3077 26.6745 35.8536 26.5786 36.3062 26.3869C36.3086 26.3859 36.311 26.3848 36.3133 26.3838C35.9716 26.0748 35.6761 25.6849 35.6761 25.257C35.6761 25.1727 35.6722 25.0905 35.664 25.0105Z" fill="#2B892B"/>
<path fill-rule="evenodd" clip-rule="evenodd" d="M37.2608 19.9282C37.6319 20.7354 38.1879 21.9448 39.8663 22.0846C41.9569 22.2589 42.2763 23.8268 42.1311 24.6979C41.9279 25.9174 40.0405 27.8338 36.9046 26.0916C36.6498 25.95 36.0336 25.3948 36.0336 24.6979C36.0336 24.001 35.6851 23.4784 34.814 23.3042C33.943 23.1299 31.5039 22.6073 31.6781 20.6909C31.8524 18.7745 35.3367 17.7292 36.9046 19.2972C37.027 19.4195 37.1329 19.65 37.2608 19.9282ZM33.4203 20.6909C33.6526 19.9941 34.814 19.4714 35.6851 20.3425C35.8333 20.4907 36.0335 20.6909 36.2077 21.2136C36.2198 21.2496 36.2315 21.2861 36.2433 21.3232C36.4561 21.9882 36.7219 22.8183 39.6921 23.4784C40.1128 23.5719 40.8071 23.8616 40.3889 24.6979C39.9708 25.5341 38.6468 25.3948 38.1241 25.0463C38.008 24.9882 37.6015 24.7499 37.6015 24.1752C37.6015 23.4784 37.4273 22.7815 35.6851 22.0846C35.4776 22.0016 35.2246 21.9265 34.9634 21.849C34.1279 21.601 33.2079 21.3279 33.4203 20.6909Z" fill="#2B892B"/>
</mask>
<g mask="url(#mask0_874_49344)">
<path opacity="0.15" d="M41.8015 13.2036C42.3763 13.488 42.9253 13.8216 43.4425 14.2008L29.327 30.8989C28.8671 30.4516 28.4471 29.9649 28.072 29.4445L41.8015 13.2036Z" fill="#FFF2BE"/>
<path opacity="0.15" d="M40.2003 12.5664C40.5393 12.6718 40.8717 12.7924 41.1974 12.9282L27.7002 28.8942C27.5122 28.5964 27.3341 28.2916 27.1746 27.9753L40.2003 12.5664Z" fill="#FFF2BE"/>
<path opacity="0.15" d="M45.9938 16.8301C46.3466 17.3419 46.6545 17.8834 46.914 18.4483L34.0934 33.6179L33.9196 33.5709C33.3828 33.4137 32.8589 33.2151 32.3527 32.9769L45.9938 16.8301Z" fill="#FFF2BE"/>
</g>
<mask id="path-28-inside-1_874_49344" fill="white">
<path fill-rule="evenodd" clip-rule="evenodd" d="M26.6054 29H25C20.0294 29 16 33.0294 16 38C16 42.9706 20.0294 47 25 47H49C53.9706 47 58 42.9706 58 38C58 33.0294 53.9706 29 49 29H47.3946C45.3198 32.5868 41.4417 35 37 35C32.5583 35 28.6802 32.5868 26.6054 29Z"/>
</mask>
<g filter="url(#filter2_i_874_49344)">
<path fill-rule="evenodd" clip-rule="evenodd" d="M26.6054 29H25C20.0294 29 16 33.0294 16 38C16 42.9706 20.0294 47 25 47H49C53.9706 47 58 42.9706 58 38C58 33.0294 53.9706 29 49 29H47.3946C45.3198 32.5868 41.4417 35 37 35C32.5583 35 28.6802 32.5868 26.6054 29Z" fill="#FCCE17"/>
</g>
<path d="M26.6054 29L27.471 28.4993L27.1822 28H26.6054V29ZM47.3946 29V28H46.8178L46.529 28.4993L47.3946 29ZM25 30H26.6054V28H25V30ZM17 38C17 33.5817 20.5817 30 25 30V28C19.4772 28 15 32.4772 15 38H17ZM25 46C20.5817 46 17 42.4183 17 38H15C15 43.5228 19.4772 48 25 48V46ZM49 46H25V48H49V46ZM57 38C57 42.4183 53.4183 46 49 46V48C54.5228 48 59 43.5228 59 38H57ZM49 30C53.4183 30 57 33.5817 57 38H59C59 32.4772 54.5228 28 49 28V30ZM47.3946 30H49V28H47.3946V30ZM46.529 28.4993C44.6255 31.7898 41.0703 34 37 34V36C41.8131 36 46.014 33.3838 48.2602 29.5007L46.529 28.4993ZM37 34C32.9297 34 29.3745 31.7898 27.471 28.4993L25.7398 29.5007C27.986 33.3838 32.1869 36 37 36V34Z" fill="#AA8800" mask="url(#path-28-inside-1_874_49344)"/>
<path d="M28.5398 43.0795C28.161 43.0795 27.822 43.0085 27.5227 42.8665C27.2235 42.7225 26.9858 42.5256 26.8097 42.2756C26.6354 42.0256 26.5426 41.7396 26.5312 41.4176H27.554C27.5729 41.6562 27.6761 41.8513 27.8636 42.0028C28.0511 42.1525 28.2765 42.2273 28.5398 42.2273C28.7462 42.2273 28.9299 42.1799 29.0909 42.0852C29.2519 41.9905 29.3788 41.8589 29.4716 41.6903C29.5644 41.5218 29.6098 41.3295 29.608 41.1136C29.6098 40.8939 29.5634 40.6989 29.4688 40.5284C29.3741 40.358 29.2443 40.2244 29.0795 40.1278C28.9148 40.0294 28.7254 39.9801 28.5114 39.9801C28.3371 39.9782 28.1657 40.0104 27.9972 40.0767C27.8286 40.143 27.6951 40.2301 27.5966 40.3381L26.6449 40.1818L26.9489 37.1818H30.3239V38.0625H27.821L27.6534 39.6051H27.6875C27.7955 39.4782 27.9479 39.3731 28.1449 39.2898C28.3419 39.2045 28.5578 39.1619 28.7926 39.1619C29.1449 39.1619 29.4593 39.2453 29.7358 39.4119C30.0123 39.5767 30.2301 39.804 30.3892 40.0938C30.5483 40.3835 30.6278 40.715 30.6278 41.0881C30.6278 41.4725 30.5388 41.8153 30.3608 42.1165C30.1847 42.4157 29.9394 42.6515 29.625 42.8239C29.3125 42.9943 28.9508 43.0795 28.5398 43.0795ZM33.7301 43.1108C33.2623 43.1108 32.8608 42.9924 32.5256 42.7557C32.1922 42.517 31.9356 42.1733 31.7557 41.7244C31.5777 41.2737 31.4886 40.7311 31.4886 40.0966C31.4905 39.4621 31.5805 38.9223 31.7585 38.4773C31.9384 38.0303 32.1951 37.6894 32.5284 37.4545C32.8636 37.2197 33.2642 37.1023 33.7301 37.1023C34.196 37.1023 34.5966 37.2197 34.9318 37.4545C35.267 37.6894 35.5237 38.0303 35.7017 38.4773C35.8816 38.9242 35.9716 39.464 35.9716 40.0966C35.9716 40.733 35.8816 41.2765 35.7017 41.7273C35.5237 42.1761 35.267 42.5189 34.9318 42.7557C34.5985 42.9924 34.1979 43.1108 33.7301 43.1108ZM33.7301 42.2216C34.0938 42.2216 34.3807 42.0426 34.5909 41.6847C34.803 41.3248 34.9091 40.7955 34.9091 40.0966C34.9091 39.6345 34.8608 39.2462 34.7642 38.9318C34.6676 38.6174 34.5313 38.3807 34.3551 38.2216C34.179 38.0606 33.9706 37.9801 33.7301 37.9801C33.3684 37.9801 33.0824 38.16 32.8722 38.5199C32.6619 38.8778 32.5559 39.4034 32.554 40.0966C32.5521 40.5606 32.5985 40.9508 32.6932 41.267C32.7898 41.5833 32.9261 41.822 33.1023 41.983C33.2784 42.142 33.4877 42.2216 33.7301 42.2216ZM39.0661 43.1108C38.5982 43.1108 38.1967 42.9924 37.8615 42.7557C37.5282 42.517 37.2715 42.1733 37.0916 41.7244C36.9136 41.2737 36.8246 40.7311 36.8246 40.0966C36.8265 39.4621 36.9164 38.9223 37.0945 38.4773C37.2744 38.0303 37.531 37.6894 37.8643 37.4545C38.1996 37.2197 38.6001 37.1023 39.0661 37.1023C39.532 37.1023 39.9325 37.2197 40.2678 37.4545C40.603 37.6894 40.8596 38.0303 41.0376 38.4773C41.2176 38.9242 41.3075 39.464 41.3075 40.0966C41.3075 40.733 41.2176 41.2765 41.0376 41.7273C40.8596 42.1761 40.603 42.5189 40.2678 42.7557C39.9344 42.9924 39.5339 43.1108 39.0661 43.1108ZM39.0661 42.2216C39.4297 42.2216 39.7166 42.0426 39.9268 41.6847C40.139 41.3248 40.245 40.7955 40.245 40.0966C40.245 39.6345 40.1967 39.2462 40.1001 38.9318C40.0036 38.6174 39.8672 38.3807 39.6911 38.2216C39.5149 38.0606 39.3066 37.9801 39.0661 37.9801C38.7043 37.9801 38.4183 38.16 38.2081 38.5199C37.9979 38.8778 37.8918 39.4034 37.8899 40.0966C37.888 40.5606 37.9344 40.9508 38.0291 41.267C38.1257 41.5833 38.2621 41.822 38.4382 41.983C38.6143 42.142 38.8236 42.2216 39.0661 42.2216ZM44.402 43.1108C43.9342 43.1108 43.5327 42.9924 43.1974 42.7557C42.8641 42.517 42.6075 42.1733 42.4276 41.7244C42.2495 41.2737 42.1605 40.7311 42.1605 40.0966C42.1624 39.4621 42.2524 38.9223 42.4304 38.4773C42.6103 38.0303 42.867 37.6894 43.2003 37.4545C43.5355 37.2197 43.9361 37.1023 44.402 37.1023C44.8679 37.1023 45.2685 37.2197 45.6037 37.4545C45.9389 37.6894 46.1955 38.0303 46.3736 38.4773C46.5535 38.9242 46.6435 39.464 46.6435 40.0966C46.6435 40.733 46.5535 41.2765 46.3736 41.7273C46.1955 42.1761 45.9389 42.5189 45.6037 42.7557C45.2704 42.9924 44.8698 43.1108 44.402 43.1108ZM44.402 42.2216C44.7656 42.2216 45.0526 42.0426 45.2628 41.6847C45.4749 41.3248 45.581 40.7955 45.581 40.0966C45.581 39.6345 45.5327 39.2462 45.4361 38.9318C45.3395 38.6174 45.2031 38.3807 45.027 38.2216C44.8509 38.0606 44.6425 37.9801 44.402 37.9801C44.0402 37.9801 43.7543 38.16 43.544 38.5199C43.3338 38.8778 43.2277 39.4034 43.2259 40.0966C43.224 40.5606 43.2704 40.9508 43.3651 41.267C43.4616 41.5833 43.598 41.822 43.7741 41.983C43.9503 42.142 44.1596 42.2216 44.402 42.2216Z" fill="#594700"/>
</g>
<defs>
<filter id="filter0_di_874_49344" x="0" y="0" width="74" height="74" filterUnits="userSpaceOnUse" color-interpolation-filters="sRGB">
<feFlood flood-opacity="0" result="BackgroundImageFix"/>
<feColorMatrix in="SourceAlpha" type="matrix" values="0 0 0 0 0 0 0 0 0 0 0 0 0 0 0 0 0 0 127 0" result="hardAlpha"/>
<feOffset dy="4"/>
<feGaussianBlur stdDeviation="4"/>
<feColorMatrix type="matrix" values="0 0 0 0 0.08 0 0 0 0 0.08 0 0 0 0 0.08 0 0 0 0.12 0"/>
<feBlend mode="normal" in2="BackgroundImageFix" result="effect1_dropShadow_874_49344"/>
<feBlend mode="normal" in="SourceGraphic" in2="effect1_dropShadow_874_49344" result="shape"/>
<feColorMatrix in="SourceAlpha" type="matrix" values="0 0 0 0 0 0 0 0 0 0 0 0 0 0 0 0 0 0 127 0" result="hardAlpha"/>
<feOffset dy="2"/>
<feGaussianBlur stdDeviation="2"/>
<feComposite in2="hardAlpha" operator="arithmetic" k2="-1" k3="1"/>
<feColorMatrix type="matrix" values="0 0 0 0 0 0 0 0 0 0 0 0 0 0 0 0 0 0 0.16 0"/>
<feBlend mode="normal" in2="shape" result="effect2_innerShadow_874_49344"/>
</filter>
<filter id="filter1_f_874_49344" x="17.2235" y="3.22363" width="40.9889" height="38.3008" filterUnits="userSpaceOnUse" color-interpolation-filters="sRGB">
<feFlood flood-opacity="0" result="BackgroundImageFix"/>
<feBlend mode="normal" in="SourceGraphic" in2="BackgroundImageFix" result="shape"/>
<feGaussianBlur stdDeviation="8" result="effect1_foregroundBlur_874_49344"/>
</filter>
<filter id="filter2_i_874_49344" x="16" y="29" width="42" height="22" filterUnits="userSpaceOnUse" color-interpolation-filters="sRGB">
<feFlood flood-opacity="0" result="BackgroundImageFix"/>
<feBlend mode="normal" in="SourceGraphic" in2="BackgroundImageFix" result="shape"/>
<feColorMatrix in="SourceAlpha" type="matrix" values="0 0 0 0 0 0 0 0 0 0 0 0 0 0 0 0 0 0 127 0" result="hardAlpha"/>
<feOffset dy="4"/>
<feGaussianBlur stdDeviation="4"/>
<feComposite in2="hardAlpha" operator="arithmetic" k2="-1" k3="1"/>
<feColorMatrix type="matrix" values="0 0 0 0 0 0 0 0 0 0 0 0 0 0 0 0 0 0 0.24 0"/>
<feBlend mode="normal" in2="shape" result="effect1_innerShadow_874_49344"/>
</filter>
</defs>
</svg>
