<svg width="66" height="66" viewBox="0 0 66 66" fill="none" xmlns="http://www.w3.org/2000/svg">
<g filter="url(#filter0_di_874_43819)">
<rect x="4" y="2" width="58" height="58" rx="29" fill="#D8FFD8"/>
<path d="M22.0007 20.9939C21.9987 21.4749 22.0277 21.9555 22.0876 22.4327C22.3588 24.5546 23.2452 26.5507 24.6375 28.1748C26.0297 29.799 27.8669 30.98 29.9224 31.5724C30.8953 31.8513 31.9019 31.9951 32.9139 31.9997C33.6833 32.0033 34.451 31.9264 35.2045 31.7704C36.6406 31.468 38.0016 30.8812 39.2072 30.0444C40.4129 29.2077 41.4388 28.1381 42.2245 26.8985C42.3256 26.739 42.4225 26.5752 42.5165 26.4114C42.9514 25.6392 43.2906 24.8169 43.5265 23.9626C43.6063 23.6777 43.669 23.3786 43.7316 23.0794C43.7943 22.7803 43.8328 22.4769 43.8641 22.1677C43.9011 21.8116 43.9201 21.4512 43.9211 21.0865C43.9236 20.6472 43.8993 20.2081 43.8484 19.7717C43.8143 19.4697 43.7668 19.172 43.706 18.8785C43.2791 16.7616 42.2368 14.8177 40.7098 13.2907C39.1827 11.7636 37.2389 10.7213 35.1219 10.2944C34.8284 10.2346 34.5293 10.1876 34.2273 10.152C33.8216 10.1047 33.4135 10.0804 33.0051 10.0793C32.6135 10.0768 32.2221 10.0958 31.8327 10.1363C31.525 10.1662 31.2201 10.2118 30.921 10.2688C30.6219 10.3258 30.327 10.3927 30.0364 10.4725C29.1819 10.7083 28.3595 11.0479 27.5876 11.4839C27.4224 11.5765 27.2586 11.6734 27.099 11.7688C25.3419 12.8846 23.9363 14.4748 23.0449 16.3557C22.6772 17.132 22.4032 17.9492 22.2286 18.7902C22.079 19.5153 22.0026 20.2536 22.0007 20.9939Z" fill="#196719"/>
<path opacity="0.1" d="M22.0007 20.9939C21.9987 21.4749 22.0277 21.9555 22.0876 22.4327C22.3588 24.5546 23.2452 26.5507 24.6375 28.1748C26.0297 29.799 27.8669 30.98 29.9224 31.5724C30.8953 31.8513 31.9019 31.9951 32.9139 31.9997C33.6833 32.0033 34.451 31.9264 35.2045 31.7704C36.6406 31.468 38.0016 30.8812 39.2072 30.0444C40.4129 29.2077 41.4388 28.1381 42.2245 26.8985C42.3256 26.739 42.4225 26.5752 42.5165 26.4114C42.9514 25.6392 43.2906 24.8169 43.5265 23.9626C43.6063 23.6777 43.669 23.3786 43.7316 23.0794C43.7943 22.7803 43.8328 22.4769 43.8641 22.1677C43.9011 21.8116 43.9201 21.4512 43.9211 21.0865C43.9236 20.6472 43.8993 20.2081 43.8484 19.7717C43.8143 19.4697 43.7668 19.172 43.706 18.8785C43.2791 16.7616 42.2368 14.8177 40.7098 13.2907C39.1827 11.7636 37.2389 10.7213 35.1219 10.2944C34.8284 10.2346 34.5293 10.1876 34.2273 10.152C33.8216 10.1047 33.4135 10.0804 33.0051 10.0793C32.6135 10.0768 32.2221 10.0958 31.8327 10.1363C31.525 10.1662 31.2201 10.2118 30.921 10.2688C30.6219 10.3258 30.327 10.3927 30.0364 10.4725C29.1819 10.7083 28.3595 11.0479 27.5876 11.4839C27.4224 11.5765 27.2586 11.6734 27.099 11.7688C25.3419 12.8846 23.9363 14.4748 23.0449 16.3557C22.6772 17.132 22.4032 17.9492 22.2286 18.7902C22.079 19.5153 22.0026 20.2536 22.0007 20.9939Z" fill="#CCFF33"/>
<path opacity="0.05" d="M43.4923 18.0024C43.5749 18.2873 43.6476 18.5836 43.7074 18.8828C43.7672 19.1819 43.8142 19.474 43.8498 19.776C43.9007 20.2124 43.925 20.6514 43.9225 21.0908C43.9225 21.4555 43.9035 21.8159 43.8655 22.172C43.8342 22.4816 43.79 22.7855 43.733 23.0837C43.6761 23.3828 43.6077 23.6763 43.5279 23.9669C43.2909 24.8182 42.9513 25.6377 42.5165 26.4071C42.4225 26.5709 42.3256 26.7347 42.2245 26.8942C41.2336 28.4653 39.8588 29.7581 38.2298 30.6506C36.6008 31.5431 34.7713 32.0059 32.9139 31.9954C32.514 31.9929 32.1145 31.9686 31.7173 31.9228L43.4923 18.0024Z" fill="black"/>
<path opacity="0.05" d="M43.3227 24.6182C43.1088 25.2378 42.8389 25.8366 42.5164 26.4073C42.4224 26.5712 42.3255 26.735 42.2244 26.8945C41.2287 28.4651 39.851 29.7576 38.2201 30.651L43.3227 24.6182Z" fill="black"/>
<path opacity="0.15" d="M41.9937 14.8301C42.3465 15.3419 42.6544 15.8834 42.9139 16.4483L30.0933 31.6179L29.9195 31.5709C29.3826 31.4137 28.8588 31.2151 28.3525 30.9769L41.9937 14.8301Z" fill="#CCFF33"/>
<path opacity="0.15" d="M37.8013 11.2036C38.3761 11.488 38.9252 11.8216 39.4424 12.2008L25.3269 28.8989C24.867 28.4516 24.447 27.9649 24.0719 27.4445L37.8013 11.2036Z" fill="#CCFF33"/>
<path opacity="0.15" d="M36.2002 10.5664C36.5392 10.6718 36.8716 10.7924 37.1973 10.9282L23.7001 26.8942C23.512 26.5964 23.334 26.2916 23.1744 25.9753L36.2002 10.5664Z" fill="#CCFF33"/>
<path opacity="0.15" d="M22.0321 20.2474C22.0463 20.0451 22.0677 19.8443 22.0919 19.6463C22.1005 19.5793 22.1076 19.5124 22.1176 19.4469C22.1275 19.3813 22.1375 19.3044 22.1489 19.2431C22.1746 19.1007 22.2002 18.944 22.2301 18.7959C22.6631 16.7222 23.689 14.8189 25.1831 13.3172C25.7626 12.7329 26.4057 12.2154 27.1005 11.7744C27.2601 11.6733 27.4239 11.5764 27.5891 11.4895C28.361 11.0536 29.1833 10.7139 30.0379 10.4781C30.1461 10.4482 30.2544 10.4226 30.3641 10.3955L22.0321 20.2474Z" fill="#CCFF33"/>
<path d="M24.7942 21.0397C24.7939 23.1111 25.5808 25.1051 26.9956 26.618C28.4103 28.1309 30.3472 29.0495 32.4139 29.1879C32.5934 29.1993 32.7786 29.2065 32.9623 29.2065C35.1098 29.1781 37.1597 28.3051 38.6682 26.7765C40.1768 25.2479 41.0226 23.1867 41.0226 21.039C41.0226 18.8914 40.1768 16.8301 38.6682 15.3015C37.1597 13.7729 35.1098 12.8999 32.9623 12.8716C32.7786 12.8716 32.5934 12.8716 32.4139 12.8901C30.3472 13.0292 28.4105 13.9483 26.9959 15.4613C25.5812 16.9743 24.7942 18.9684 24.7942 21.0397Z" fill="#196719"/>
<path opacity="0.4" d="M24.7942 21.0397C24.7939 23.1111 25.5808 25.1051 26.9956 26.618C28.4103 28.1309 30.3472 29.0495 32.4139 29.1879C32.5934 29.1993 32.7786 29.2065 32.9623 29.2065C35.1098 29.1781 37.1597 28.3051 38.6682 26.7765C40.1768 25.2479 41.0226 23.1867 41.0226 21.039C41.0226 18.8914 40.1768 16.8301 38.6682 15.3015C37.1597 13.7729 35.1098 12.8999 32.9623 12.8716C32.7786 12.8716 32.5934 12.8716 32.4139 12.8901C30.3472 13.0292 28.4105 13.9483 26.9959 15.4613C25.5812 16.9743 24.7942 18.9684 24.7942 21.0397Z" fill="black"/>
<path d="M25.1573 21.0398C25.1573 21.1823 25.1573 21.3247 25.1687 21.4558C25.2702 23.3596 26.0653 25.1603 27.4038 26.518C28.7423 27.8757 30.5316 28.6962 32.4338 28.8248L32.5406 28.8319C32.683 28.8319 32.8169 28.8433 32.9565 28.8433C34.9126 28.847 36.7985 28.1153 38.2401 26.7932C39.6817 25.4712 40.5735 23.6555 40.7387 21.7065C40.7586 21.4857 40.7671 21.2634 40.7671 21.037C40.7671 20.8105 40.76 20.6253 40.7444 20.423C40.7125 20.0036 40.6458 19.5877 40.5449 19.1794C40.2035 17.794 39.4893 16.5284 38.4799 15.5199C37.4704 14.5115 36.2042 13.7986 34.8184 13.4586C34.4101 13.3577 33.9941 13.2909 33.5748 13.2591C33.3725 13.2435 33.1674 13.2363 32.9608 13.2363C32.7856 13.2363 32.6104 13.2363 32.438 13.2534C32.3896 13.2534 32.3412 13.2534 32.2956 13.2648C31.1586 13.3599 30.0568 13.7053 29.0691 14.2762C27.8801 14.96 26.8927 15.9454 26.2066 17.133C25.5205 18.3206 25.1601 19.6683 25.1616 21.0398H25.1573Z" fill="#196719"/>
<path opacity="0.5" d="M25.1573 21.0398C25.1573 21.1823 25.1573 21.3247 25.1687 21.4558C25.2702 23.3596 26.0653 25.1603 27.4038 26.518C28.7423 27.8757 30.5316 28.6962 32.4338 28.8248L32.5406 28.8319C32.683 28.8319 32.8169 28.8433 32.9565 28.8433C34.9126 28.847 36.7985 28.1153 38.2401 26.7932C39.6817 25.4712 40.5735 23.6555 40.7387 21.7065C40.7586 21.4857 40.7671 21.2634 40.7671 21.037C40.7671 20.8105 40.76 20.6253 40.7444 20.423C40.7125 20.0036 40.6458 19.5877 40.5449 19.1794C40.2035 17.794 39.4893 16.5284 38.4799 15.5199C37.4704 14.5115 36.2042 13.7986 34.8184 13.4586C34.4101 13.3577 33.9941 13.2909 33.5748 13.2591C33.3725 13.2435 33.1674 13.2363 32.9608 13.2363C32.7856 13.2363 32.6104 13.2363 32.438 13.2534C32.3896 13.2534 32.3412 13.2534 32.2956 13.2648C31.1586 13.3599 30.0568 13.7053 29.0691 14.2762C27.8801 14.96 26.8927 15.9454 26.2066 17.133C25.5205 18.3206 25.1601 19.6683 25.1616 21.0398H25.1573Z" fill="black"/>
<path d="M38.4595 26.5769C39.7761 25.2774 40.5845 23.5499 40.7387 21.7065C40.7586 21.4857 40.7686 21.2634 40.7686 21.037C40.7686 20.8105 40.76 20.6253 40.7444 20.423C40.7125 20.0036 40.6458 19.5877 40.5449 19.1794C40.2035 17.794 39.4894 16.5284 38.4799 15.5199C37.4704 14.5115 36.2042 13.7986 34.8184 13.4586C34.4101 13.3577 33.9942 13.2909 33.5748 13.2591C33.3725 13.2435 33.1674 13.2363 32.9608 13.2363C32.7856 13.2363 32.6104 13.2363 32.438 13.2534C32.3896 13.2534 32.3412 13.2534 32.2956 13.2648C31.1587 13.3599 30.0568 13.7053 29.0691 14.2762C28.7267 14.4767 28.4 14.7029 28.0919 14.9529C27.3625 15.6758 26.784 16.5364 26.3898 17.4847C25.9956 18.433 25.7936 19.4502 25.7955 20.4771C25.7955 20.6196 25.7955 20.7549 25.8084 20.8931C25.9092 22.7971 26.7041 24.5982 28.0427 25.956C29.3813 27.3138 31.171 28.1341 33.0734 28.2621H33.1788C33.3212 28.2692 33.4566 28.2735 33.5962 28.2735C35.3644 28.2752 37.08 27.672 38.458 26.5641L38.4595 26.5769Z" fill="#196719"/>
<path opacity="0.25" d="M38.4595 26.5769C39.7761 25.2774 40.5845 23.5499 40.7387 21.7065C40.7586 21.4857 40.7686 21.2634 40.7686 21.037C40.7686 20.8105 40.76 20.6253 40.7444 20.423C40.7125 20.0036 40.6458 19.5877 40.5449 19.1794C40.2035 17.794 39.4894 16.5284 38.4799 15.5199C37.4704 14.5115 36.2042 13.7986 34.8184 13.4586C34.4101 13.3577 33.9942 13.2909 33.5748 13.2591C33.3725 13.2435 33.1674 13.2363 32.9608 13.2363C32.7856 13.2363 32.6104 13.2363 32.438 13.2534C32.3896 13.2534 32.3412 13.2534 32.2956 13.2648C31.1587 13.3599 30.0568 13.7053 29.0691 14.2762C28.7267 14.4767 28.4 14.7029 28.0919 14.9529C27.3625 15.6758 26.784 16.5364 26.3898 17.4847C25.9956 18.433 25.7936 19.4502 25.7955 20.4771C25.7955 20.6196 25.7955 20.7549 25.8084 20.8931C25.9092 22.7971 26.7041 24.5982 28.0427 25.956C29.3813 27.3138 31.171 28.1341 33.0734 28.2621H33.1788C33.3212 28.2692 33.4566 28.2735 33.5962 28.2735C35.3644 28.2752 37.08 27.672 38.458 26.5641L38.4595 26.5769Z" fill="black"/>
<path d="M27.5891 11.4841C32.3057 9.04105 36.1362 10.3117 38.7003 11.8359C42.404 14.3217 44.7402 18.4856 43.4624 23.9884V23.977C42.9746 25.8073 42.0148 27.4775 40.6789 28.8204C42.0583 27.4734 43.0611 25.7889 43.5878 23.9343V23.9443C44.7659 19.3858 43.2844 15.7662 40.8128 13.212C38.1647 10.7704 33.6775 8.35871 27.5891 11.4841Z" fill="#CCFF33"/>
<g filter="url(#filter1_f_874_43819)">
<path d="M33.351 17.9111C33.0759 17.3607 32.8924 17.2231 32.8351 17.2231C32.9567 17.3013 33.0071 17.7391 33.179 18.083C33.5636 18.8521 34.1765 20.0436 36.1026 20.3187C38.0288 20.5939 38.0588 22.3825 37.9944 23.0704C38.8543 20.8347 36.9484 19.9748 36.1026 19.9748C34.3829 19.9748 33.695 18.599 33.351 17.9111Z" fill="#041004"/>
<path d="M33.867 22.3825C33.867 21.1145 32.8925 20.548 32.4912 20.4907C33.3167 21.041 33.3511 21.8665 33.3511 22.3825C34.039 23.8959 35.3575 23.5863 35.9307 23.2424C34.211 23.2424 33.867 22.7264 33.867 22.3825Z" fill="#041004"/>
<path d="M30.2555 19.6308C29.1548 19.2181 29.6249 18.3696 29.9115 18.083C29.7396 18.1403 29.2236 18.5301 29.2236 18.9429C29.2236 19.3556 29.9115 19.5735 30.2555 19.6308Z" fill="#041004"/>
</g>
<path d="M33.351 17.9111C33.0759 17.3607 32.8924 17.2231 32.8351 17.2231C32.9567 17.3013 33.0071 17.7391 33.179 18.083C33.5636 18.8521 34.1765 20.0436 36.1026 20.3187C38.0288 20.5939 38.0588 22.3825 37.9944 23.0704C38.8543 20.8347 36.9484 19.9748 36.1026 19.9748C34.3829 19.9748 33.695 18.599 33.351 17.9111Z" fill="#CCFF33"/>
<path d="M33.867 22.3825C33.867 21.1145 32.8925 20.548 32.4912 20.4907C33.3167 21.041 33.3511 21.8665 33.3511 22.3825C34.039 23.8959 35.3575 23.5863 35.9307 23.2424C34.211 23.2424 33.867 22.7264 33.867 22.3825Z" fill="#CCFF33"/>
<path d="M30.2555 19.6308C29.1548 19.2181 29.6249 18.3696 29.9115 18.083C29.7396 18.1403 29.2236 18.5301 29.2236 18.9429C29.2236 19.3556 29.9115 19.5735 30.2555 19.6308Z" fill="#CCFF33"/>
<path d="M33.3402 17.0298C33.4235 16.983 33.5106 16.9394 33.6018 16.899C34.0518 16.6996 34.5633 16.5998 35.1361 16.5998C35.7191 16.5998 36.228 16.6996 36.6627 16.899C37.1 17.0985 37.4401 17.3759 37.683 17.7314C37.9259 18.0868 38.0512 18.4985 38.0589 18.9665H36.4671C36.4364 18.6571 36.3047 18.4167 36.072 18.2454C35.8393 18.074 35.5235 17.9884 35.1246 17.9884C34.8535 17.9884 34.6246 18.0267 34.438 18.1034C34.2781 18.167 34.1501 18.252 34.054 18.3587C33.7988 17.9868 33.6129 17.5977 33.4575 17.2725C33.4165 17.1866 33.3777 17.1052 33.3402 17.0298Z" fill="#2B892B"/>
<path d="M31.664 23.01C31.5821 23.0679 31.488 23.1175 31.3818 23.1589C31.1747 23.2408 30.9305 23.2817 30.6492 23.2817C30.3628 23.2817 30.1058 23.2382 29.8782 23.1513C29.6532 23.0618 29.4729 22.9301 29.3374 22.7562C29.2044 22.5797 29.129 22.3598 29.1111 22.0964H27.5039C27.5167 22.6616 27.6535 23.1359 27.9143 23.5195C28.1777 23.9005 28.5434 24.1882 29.0113 24.3825C29.4819 24.5769 30.0342 24.674 30.6684 24.674C31.3077 24.674 31.8536 24.5782 32.3062 24.3864C32.3086 24.3854 32.311 24.3844 32.3133 24.3833C31.9716 24.0743 31.6761 23.6844 31.6761 23.2565C31.6761 23.1723 31.6722 23.09 31.664 23.01Z" fill="#2B892B"/>
<path fill-rule="evenodd" clip-rule="evenodd" d="M33.2608 17.9277C33.6319 18.7349 34.1879 19.9443 35.8663 20.0842C37.9569 20.2584 38.2763 21.8263 38.1311 22.6974C37.9279 23.9169 36.0405 25.8333 32.9046 24.0911C32.6498 23.9495 32.0336 23.3943 32.0336 22.6974C32.0336 22.0005 31.6851 21.4779 30.814 21.3037C29.943 21.1294 27.5039 20.6068 27.6781 18.6904C27.8524 16.774 31.3367 15.7287 32.9046 17.2967C33.027 17.419 33.1329 17.6495 33.2608 17.9277ZM29.4203 18.6904C29.6526 17.9936 30.814 17.4709 31.6851 18.342C31.8333 18.4902 32.0335 18.6904 32.2077 19.2131C32.2198 19.2491 32.2315 19.2857 32.2433 19.3227C32.4561 19.9877 32.7219 20.8178 35.6921 21.4779C36.1128 21.5714 36.8071 21.8612 36.3889 22.6974C35.9708 23.5336 34.6468 23.3943 34.1241 23.0458C34.008 22.9878 33.6015 22.7494 33.6015 22.1747C33.6015 21.4779 33.4273 20.781 31.6851 20.0842C31.4776 20.0012 31.2246 19.9261 30.9634 19.8485C30.1279 19.6005 29.2079 19.3274 29.4203 18.6904Z" fill="#2B892B"/>
<mask id="mask0_874_43819" style="mask-type:alpha" maskUnits="userSpaceOnUse" x="27" y="16" width="12" height="9">
<path d="M33.3402 17.0298C33.4235 16.983 33.5106 16.9394 33.6018 16.899C34.0518 16.6996 34.5633 16.5998 35.1361 16.5998C35.7191 16.5998 36.228 16.6996 36.6627 16.899C37.1 17.0985 37.4401 17.3759 37.683 17.7314C37.9259 18.0868 38.0512 18.4985 38.0589 18.9665H36.4671C36.4364 18.6571 36.3047 18.4167 36.072 18.2454C35.8393 18.074 35.5235 17.9884 35.1246 17.9884C34.8535 17.9884 34.6246 18.0267 34.438 18.1034C34.2781 18.167 34.1501 18.252 34.054 18.3587C33.7988 17.9868 33.6129 17.5977 33.4575 17.2725C33.4165 17.1866 33.3777 17.1052 33.3402 17.0298Z" fill="#2B892B"/>
<path d="M31.664 23.01C31.5821 23.0679 31.488 23.1175 31.3818 23.1589C31.1747 23.2408 30.9305 23.2817 30.6492 23.2817C30.3628 23.2817 30.1058 23.2382 29.8782 23.1513C29.6532 23.0618 29.4729 22.9301 29.3374 22.7562C29.2044 22.5797 29.129 22.3598 29.1111 22.0964H27.5039C27.5167 22.6616 27.6535 23.1359 27.9143 23.5195C28.1777 23.9005 28.5434 24.1882 29.0113 24.3825C29.4819 24.5769 30.0342 24.674 30.6684 24.674C31.3077 24.674 31.8536 24.5782 32.3062 24.3864C32.3086 24.3854 32.311 24.3844 32.3133 24.3833C31.9716 24.0743 31.6761 23.6844 31.6761 23.2565C31.6761 23.1723 31.6722 23.09 31.664 23.01Z" fill="#2B892B"/>
<path fill-rule="evenodd" clip-rule="evenodd" d="M33.2608 17.9277C33.6319 18.7349 34.1879 19.9443 35.8663 20.0842C37.9569 20.2584 38.2763 21.8263 38.1311 22.6974C37.9279 23.9169 36.0405 25.8333 32.9046 24.0911C32.6498 23.9495 32.0336 23.3943 32.0336 22.6974C32.0336 22.0005 31.6851 21.4779 30.814 21.3037C29.943 21.1294 27.5039 20.6068 27.6781 18.6904C27.8524 16.774 31.3367 15.7287 32.9046 17.2967C33.027 17.419 33.1329 17.6495 33.2608 17.9277ZM29.4203 18.6904C29.6526 17.9936 30.814 17.4709 31.6851 18.342C31.8333 18.4902 32.0335 18.6904 32.2077 19.2131C32.2198 19.2491 32.2315 19.2857 32.2433 19.3227C32.4561 19.9877 32.7219 20.8178 35.6921 21.4779C36.1128 21.5714 36.8071 21.8612 36.3889 22.6974C35.9708 23.5336 34.6468 23.3943 34.1241 23.0458C34.008 22.9878 33.6015 22.7494 33.6015 22.1747C33.6015 21.4779 33.4273 20.781 31.6851 20.0842C31.4776 20.0012 31.2246 19.9261 30.9634 19.8485C30.1279 19.6005 29.2079 19.3274 29.4203 18.6904Z" fill="#2B892B"/>
</mask>
<g mask="url(#mask0_874_43819)">
<path opacity="0.15" d="M37.8013 11.2036C38.3761 11.488 38.9252 11.8216 39.4424 12.2008L25.3269 28.8989C24.867 28.4516 24.447 27.9649 24.0719 27.4445L37.8013 11.2036Z" fill="#CCFF33"/>
<path opacity="0.15" d="M36.2002 10.5664C36.5392 10.6718 36.8716 10.7924 37.1973 10.9282L23.7001 26.8942C23.512 26.5964 23.334 26.2916 23.1744 25.9753L36.2002 10.5664Z" fill="#CCFF33"/>
<path opacity="0.15" d="M41.9937 14.8301C42.3465 15.3419 42.6544 15.8834 42.9139 16.4483L30.0933 31.6179L29.9195 31.5709C29.3826 31.4137 28.8588 31.2151 28.3525 30.9769L41.9937 14.8301Z" fill="#CCFF33"/>
</g>
<mask id="path-28-inside-1_874_43819" fill="white">
<path fill-rule="evenodd" clip-rule="evenodd" d="M22.6054 27H21C16.0294 27 12 31.0294 12 36C12 40.9706 16.0294 45 21 45H45C49.9706 45 54 40.9706 54 36C54 31.0294 49.9706 27 45 27H43.3946C41.3198 30.5868 37.4417 33 33 33C28.5583 33 24.6802 30.5868 22.6054 27Z"/>
</mask>
<g filter="url(#filter2_i_874_43819)">
<path fill-rule="evenodd" clip-rule="evenodd" d="M22.6054 27H21C16.0294 27 12 31.0294 12 36C12 40.9706 16.0294 45 21 45H45C49.9706 45 54 40.9706 54 36C54 31.0294 49.9706 27 45 27H43.3946C41.3198 30.5868 37.4417 33 33 33C28.5583 33 24.6802 30.5868 22.6054 27Z" fill="#104210"/>
</g>
<path d="M22.6054 27L23.471 26.4993L23.1822 26H22.6054V27ZM43.3946 27V26H42.8178L42.529 26.4993L43.3946 27ZM21 28H22.6054V26H21V28ZM13 36C13 31.5817 16.5817 28 21 28V26C15.4772 26 11 30.4772 11 36H13ZM21 44C16.5817 44 13 40.4183 13 36H11C11 41.5228 15.4772 46 21 46V44ZM45 44H21V46H45V44ZM53 36C53 40.4183 49.4183 44 45 44V46C50.5228 46 55 41.5228 55 36H53ZM45 28C49.4183 28 53 31.5817 53 36H55C55 30.4772 50.5228 26 45 26V28ZM43.3946 28H45V26H43.3946V28ZM42.529 26.4993C40.6255 29.7898 37.0703 32 33 32V34C37.8131 34 42.014 31.3838 44.2602 27.5007L42.529 26.4993ZM33 32C28.9297 32 25.3745 29.7898 23.471 26.4993L21.7398 27.5007C23.986 31.3838 28.1869 34 33 34V32Z" fill="#196719" mask="url(#path-28-inside-1_874_43819)"/>
<path d="M27.5398 41.0795C27.161 41.0795 26.822 41.0085 26.5227 40.8665C26.2235 40.7225 25.9858 40.5256 25.8097 40.2756C25.6354 40.0256 25.5426 39.7396 25.5312 39.4176H26.554C26.5729 39.6562 26.6761 39.8513 26.8636 40.0028C27.0511 40.1525 27.2765 40.2273 27.5398 40.2273C27.7462 40.2273 27.9299 40.1799 28.0909 40.0852C28.2519 39.9905 28.3788 39.8589 28.4716 39.6903C28.5644 39.5218 28.6098 39.3295 28.608 39.1136C28.6098 38.8939 28.5634 38.6989 28.4688 38.5284C28.3741 38.358 28.2443 38.2244 28.0795 38.1278C27.9148 38.0294 27.7254 37.9801 27.5114 37.9801C27.3371 37.9782 27.1657 38.0104 26.9972 38.0767C26.8286 38.143 26.6951 38.2301 26.5966 38.3381L25.6449 38.1818L25.9489 35.1818H29.3239V36.0625H26.821L26.6534 37.6051H26.6875C26.7955 37.4782 26.9479 37.3731 27.1449 37.2898C27.3419 37.2045 27.5578 37.1619 27.7926 37.1619C28.1449 37.1619 28.4593 37.2453 28.7358 37.4119C29.0123 37.5767 29.2301 37.804 29.3892 38.0938C29.5483 38.3835 29.6278 38.715 29.6278 39.0881C29.6278 39.4725 29.5388 39.8153 29.3608 40.1165C29.1847 40.4157 28.9394 40.6515 28.625 40.8239C28.3125 40.9943 27.9508 41.0795 27.5398 41.0795ZM32.7301 41.1108C32.2623 41.1108 31.8608 40.9924 31.5256 40.7557C31.1922 40.517 30.9356 40.1733 30.7557 39.7244C30.5777 39.2737 30.4886 38.7311 30.4886 38.0966C30.4905 37.4621 30.5805 36.9223 30.7585 36.4773C30.9384 36.0303 31.1951 35.6894 31.5284 35.4545C31.8636 35.2197 32.2642 35.1023 32.7301 35.1023C33.196 35.1023 33.5966 35.2197 33.9318 35.4545C34.267 35.6894 34.5237 36.0303 34.7017 36.4773C34.8816 36.9242 34.9716 37.464 34.9716 38.0966C34.9716 38.733 34.8816 39.2765 34.7017 39.7273C34.5237 40.1761 34.267 40.5189 33.9318 40.7557C33.5985 40.9924 33.1979 41.1108 32.7301 41.1108ZM32.7301 40.2216C33.0938 40.2216 33.3807 40.0426 33.5909 39.6847C33.803 39.3248 33.9091 38.7955 33.9091 38.0966C33.9091 37.6345 33.8608 37.2462 33.7642 36.9318C33.6676 36.6174 33.5313 36.3807 33.3551 36.2216C33.179 36.0606 32.9706 35.9801 32.7301 35.9801C32.3684 35.9801 32.0824 36.16 31.8722 36.5199C31.6619 36.8778 31.5559 37.4034 31.554 38.0966C31.5521 38.5606 31.5985 38.9508 31.6932 39.267C31.7898 39.5833 31.9261 39.822 32.1023 39.983C32.2784 40.142 32.4877 40.2216 32.7301 40.2216ZM38.0661 41.1108C37.5982 41.1108 37.1967 40.9924 36.8615 40.7557C36.5282 40.517 36.2715 40.1733 36.0916 39.7244C35.9136 39.2737 35.8246 38.7311 35.8246 38.0966C35.8265 37.4621 35.9164 36.9223 36.0945 36.4773C36.2744 36.0303 36.531 35.6894 36.8643 35.4545C37.1996 35.2197 37.6001 35.1023 38.0661 35.1023C38.532 35.1023 38.9325 35.2197 39.2678 35.4545C39.603 35.6894 39.8596 36.0303 40.0376 36.4773C40.2176 36.9242 40.3075 37.464 40.3075 38.0966C40.3075 38.733 40.2176 39.2765 40.0376 39.7273C39.8596 40.1761 39.603 40.5189 39.2678 40.7557C38.9344 40.9924 38.5339 41.1108 38.0661 41.1108ZM38.0661 40.2216C38.4297 40.2216 38.7166 40.0426 38.9268 39.6847C39.139 39.3248 39.245 38.7955 39.245 38.0966C39.245 37.6345 39.1967 37.2462 39.1001 36.9318C39.0036 36.6174 38.8672 36.3807 38.6911 36.2216C38.5149 36.0606 38.3066 35.9801 38.0661 35.9801C37.7043 35.9801 37.4183 36.16 37.2081 36.5199C36.9979 36.8778 36.8918 37.4034 36.8899 38.0966C36.888 38.5606 36.9344 38.9508 37.0291 39.267C37.1257 39.5833 37.2621 39.822 37.4382 39.983C37.6143 40.142 37.8236 40.2216 38.0661 40.2216Z" fill="white"/>
</g>
<defs>
<filter id="filter0_di_874_43819" x="0" y="0" width="66" height="66" filterUnits="userSpaceOnUse" color-interpolation-filters="sRGB">
<feFlood flood-opacity="0" result="BackgroundImageFix"/>
<feColorMatrix in="SourceAlpha" type="matrix" values="0 0 0 0 0 0 0 0 0 0 0 0 0 0 0 0 0 0 127 0" result="hardAlpha"/>
<feOffset dy="2"/>
<feGaussianBlur stdDeviation="2"/>
<feColorMatrix type="matrix" values="0 0 0 0 0.08 0 0 0 0 0.08 0 0 0 0 0.08 0 0 0 0.08 0"/>
<feBlend mode="normal" in2="BackgroundImageFix" result="effect1_dropShadow_874_43819"/>
<feBlend mode="normal" in="SourceGraphic" in2="effect1_dropShadow_874_43819" result="shape"/>
<feColorMatrix in="SourceAlpha" type="matrix" values="0 0 0 0 0 0 0 0 0 0 0 0 0 0 0 0 0 0 127 0" result="hardAlpha"/>
<feOffset dy="2"/>
<feGaussianBlur stdDeviation="2"/>
<feComposite in2="hardAlpha" operator="arithmetic" k2="-1" k3="1"/>
<feColorMatrix type="matrix" values="0 0 0 0 0.0627451 0 0 0 0 0.258824 0 0 0 0 0.0627451 0 0 0 0.5 0"/>
<feBlend mode="normal" in2="shape" result="effect2_innerShadow_874_43819"/>
</filter>
<filter id="filter1_f_874_43819" x="13.2236" y="1.22314" width="40.9886" height="38.3018" filterUnits="userSpaceOnUse" color-interpolation-filters="sRGB">
<feFlood flood-opacity="0" result="BackgroundImageFix"/>
<feBlend mode="normal" in="SourceGraphic" in2="BackgroundImageFix" result="shape"/>
<feGaussianBlur stdDeviation="8" result="effect1_foregroundBlur_874_43819"/>
</filter>
<filter id="filter2_i_874_43819" x="12" y="27" width="42" height="22" filterUnits="userSpaceOnUse" color-interpolation-filters="sRGB">
<feFlood flood-opacity="0" result="BackgroundImageFix"/>
<feBlend mode="normal" in="SourceGraphic" in2="BackgroundImageFix" result="shape"/>
<feColorMatrix in="SourceAlpha" type="matrix" values="0 0 0 0 0 0 0 0 0 0 0 0 0 0 0 0 0 0 127 0" result="hardAlpha"/>
<feOffset dy="4"/>
<feGaussianBlur stdDeviation="4"/>
<feComposite in2="hardAlpha" operator="arithmetic" k2="-1" k3="1"/>
<feColorMatrix type="matrix" values="0 0 0 0 0 0 0 0 0 0 0 0 0 0 0 0 0 0 0.24 0"/>
<feBlend mode="normal" in2="shape" result="effect1_innerShadow_874_43819"/>
</filter>
</defs>
</svg>
