<svg width="25" height="24" viewBox="0 0 25 24" fill="none" xmlns="http://www.w3.org/2000/svg">
<g clip-path="url(#clip0_2782_52051)">
<path d="M12.7 2C18.22 2 22.7 6.48 22.7 12C22.7 17.52 18.22 22 12.7 22C7.17995 22 2.69995 17.52 2.69995 12C2.69995 6.48 7.17995 2 12.7 2ZM6.72295 15.416C8.19095 17.606 10.395 19 12.86 19C15.324 19 17.529 17.607 18.996 15.416C17.3317 13.8606 15.1379 12.9968 12.86 13C10.5817 12.9966 8.38746 13.8604 6.72295 15.416ZM12.7 11C13.4956 11 14.2587 10.6839 14.8213 10.1213C15.3839 9.55871 15.7 8.79565 15.7 8C15.7 7.20435 15.3839 6.44129 14.8213 5.87868C14.2587 5.31607 13.4956 5 12.7 5C11.9043 5 11.1412 5.31607 10.5786 5.87868C10.016 6.44129 9.69995 7.20435 9.69995 8C9.69995 8.79565 10.016 9.55871 10.5786 10.1213C11.1412 10.6839 11.9043 11 12.7 11Z" fill="#474747"/>
</g>
<defs>
<clipPath id="clip0_2782_52051">
<rect width="24" height="24" fill="white" transform="translate(0.699951)"/>
</clipPath>
</defs>
</svg>
