<svg width="56" height="56" viewBox="0 0 56 56" fill="none" xmlns="http://www.w3.org/2000/svg">
<path d="M9.9286 31.4134C0.187291 37.0387 0.187291 46.1579 9.9286 51.782C19.6699 57.4061 35.4651 57.4061 45.2077 51.782C54.9503 46.1579 54.949 37.0387 45.2077 31.4134C35.4664 25.788 19.6712 25.7893 9.9286 31.4134Z" fill="#BDFFBD"/>
<path d="M12.6155 46.824L27.5687 38.1924L42.5206 46.824L27.5687 55.4568L12.6155 46.824Z" fill="#2B892B"/>
<path d="M27.4871 24.3C27.2897 23.8576 27.2747 23.4203 27.2747 22.9716L27.2596 21.6419C27.2445 20.7622 27.2495 19.8711 27.2495 18.9851C27.2583 17.213 27.286 15.441 27.3111 13.6702C27.3362 11.8994 27.3651 10.1261 27.4054 8.35525L27.4682 5.69715C27.4946 4.81741 27.516 3.92509 27.5486 3.03906H27.5889C27.6215 3.91881 27.6429 4.81112 27.6693 5.69715L27.7321 8.35525C27.7723 10.1261 27.7937 11.8981 27.8264 13.6702C27.8591 15.4422 27.8792 17.213 27.888 18.9851C27.888 19.8711 27.888 20.7572 27.8779 21.6419L27.8628 22.9716C27.8628 23.414 27.8477 23.8576 27.6504 24.3H27.4871Z" fill="#196719"/>
<path d="M27.4883 24.3138C27.2169 23.9116 27.1251 23.478 27.0485 23.0419L26.7971 21.7361C26.6287 20.8664 26.4804 19.9929 26.3271 19.1207C26.028 17.3751 25.7477 15.6256 25.4649 13.8762C25.1821 12.1267 24.9019 10.3773 24.6342 8.62535L24.2383 5.99742C24.1126 5.11768 23.9794 4.24421 23.8613 3.36572H23.9002C24.0862 4.23164 24.2609 5.10134 24.4419 5.96852L24.9647 8.57508C25.3116 10.312 25.6409 12.0539 25.9802 13.7932C26.3195 15.5326 26.6476 17.2733 26.9643 19.0164C27.1176 19.8886 27.2772 20.7596 27.4154 21.6356L27.6316 22.9464C27.7083 23.3825 27.7699 23.8261 27.653 24.2924L27.4883 24.3138Z" fill="#196719"/>
<path d="M27.4921 24.3274C27.1553 23.9793 26.9894 23.5734 26.8373 23.1511L26.3685 21.9081C26.0518 21.0812 25.754 20.2467 25.4511 19.4147C24.8528 17.7469 24.2735 16.0716 23.6916 14.3989C23.1097 12.7261 22.5303 11.0508 21.9622 9.37174L21.1114 6.85818C20.8337 6.01237 20.5509 5.17158 20.2794 4.32828L20.3171 4.31445C20.6514 5.13639 20.9744 5.96084 21.3024 6.78403L22.2702 9.25989C22.9187 10.9138 23.5383 12.569 24.1754 14.2229C24.8126 15.8768 25.4322 17.5345 26.0518 19.196C26.3547 20.028 26.6639 20.8587 26.9517 21.697L27.3915 22.9538C27.5436 23.371 27.6806 23.7921 27.6429 24.2759L27.4921 24.3274Z" fill="#196719"/>
<path d="M27.4984 24.34C27.1062 24.056 26.87 23.6802 26.65 23.2957L25.9714 22.1532C25.5152 21.3929 25.0778 20.6237 24.6354 19.8558C23.7557 18.3175 22.8948 16.7692 22.0314 15.2221C21.168 13.675 20.3058 12.1266 19.455 10.572L18.1793 8.23942C17.7608 7.45896 17.336 6.68101 16.9225 5.89804L16.9565 5.87793C17.4278 6.632 17.889 7.38607 18.3565 8.14014L19.739 10.4099C20.659 11.918 21.5638 13.4475 22.4775 14.967C23.3912 16.4864 24.2948 18.0084 25.1884 19.5391C25.632 20.3058 26.0795 21.0699 26.5093 21.8453L27.1603 23.0028C27.3815 23.3799 27.5901 23.7783 27.6404 24.2596L27.4984 24.34Z" fill="#196719"/>
<path d="M27.5072 24.3516C27.0711 24.1404 26.7745 23.8099 26.4892 23.4718L25.6233 22.4664C25.0426 21.7978 24.4771 21.1154 23.9078 20.4367C22.7754 19.0706 21.6619 17.7007 20.5383 16.3182C19.4148 14.9358 18.3025 13.5696 17.194 12.1859L15.5338 10.111C14.9846 9.41472 14.4316 8.72852 13.8875 8.02221L13.9176 7.99707C14.5121 8.65437 15.0977 9.3192 15.6884 9.98027L17.4479 11.976C18.618 13.3082 19.773 14.6505 20.9367 15.9877C22.1005 17.3249 23.2555 18.6684 24.4004 20.0194C24.9697 20.6981 25.5441 21.373 26.1021 22.0617L26.9442 23.0898C27.2282 23.4291 27.5009 23.7772 27.6341 24.2435L27.5072 24.3516Z" fill="#196719"/>
<path d="M27.516 24.3615C27.0497 24.2283 26.7016 23.9555 26.3622 23.6715L25.3342 22.8282C24.6455 22.2715 23.9706 21.6971 23.2919 21.1278C21.9409 19.9816 20.6011 18.8216 19.2602 17.6641C17.9192 16.5066 16.5807 15.3453 15.2523 14.1816L13.2565 12.4221C12.5954 11.8314 11.9306 11.2457 11.2733 10.6513L11.2985 10.6211C11.9985 11.1653 12.691 11.7183 13.3872 12.2675L15.4584 13.9302C16.8409 15.0387 18.2133 16.161 19.5907 17.2745C20.9681 18.388 22.3393 19.5116 23.7016 20.6439C24.3803 21.2132 25.0627 21.775 25.7326 22.3594L26.738 23.2254C27.0773 23.5106 27.4066 23.8072 27.6178 24.2421L27.516 24.3615Z" fill="#196719"/>
<path d="M27.5285 24.3702C27.0459 24.3199 26.6488 24.1113 26.2718 23.8901L25.1143 23.2391C24.3388 22.8093 23.5747 22.3593 22.8081 21.9182C21.2773 21.0246 19.7566 20.1147 18.2359 19.2073C16.7152 18.2999 15.1932 17.3888 13.6788 16.4688L11.4091 15.0863C10.655 14.6188 9.90092 14.1576 9.14685 13.6863L9.16696 13.6523C9.94993 14.0671 10.7279 14.4919 11.5083 14.9091L13.8409 16.1923C15.3956 17.0431 16.9414 17.9103 18.491 18.7687C20.0406 19.6271 21.5865 20.4943 23.1248 21.3728C23.8927 21.8151 24.6631 22.2525 25.4222 22.7087L26.5646 23.3874C26.9492 23.6086 27.3249 23.8436 27.609 24.2357L27.5285 24.3702Z" fill="#196719"/>
<path d="M27.5411 24.3765C27.0572 24.4105 26.6362 24.2735 26.219 24.1252L24.9622 23.6853C24.1239 23.3975 23.2932 23.0883 22.4612 22.7854C20.7997 22.1709 19.1446 21.5387 17.4881 20.9091C15.8317 20.2794 14.1765 19.6523 12.5251 19.0038L10.0492 18.0361C9.22981 17.7005 8.40536 17.3813 7.58594 17.047L7.59976 17.0093C8.44306 17.282 9.28259 17.5648 10.1246 17.8425L12.6382 18.6934C14.3173 19.2614 15.9888 19.8471 17.6653 20.4227C19.3419 20.9983 21.0134 21.584 22.6811 22.1822C23.5131 22.4851 24.3476 22.7829 25.1746 23.0996L26.4188 23.5684C26.8348 23.7205 27.2458 23.8864 27.5939 24.2232L27.5411 24.3765Z" fill="#196719"/>
<path d="M27.5549 24.3801C27.0836 24.497 26.645 24.4354 26.2089 24.3587L24.8981 24.1426C24.0183 24.0043 23.1511 23.8447 22.2789 23.6914C20.5358 23.3747 18.7951 23.0391 17.0557 22.7073C15.3164 22.3755 13.5745 22.0387 11.8376 21.6918L9.23103 21.169C8.36385 20.988 7.49416 20.8133 6.62823 20.6273L6.63452 20.5884C7.51427 20.7141 8.39401 20.8397 9.26622 20.9654L11.8941 21.3663C13.6461 21.634 15.3943 21.9206 17.145 22.1971C18.8957 22.4736 20.6439 22.7601 22.3895 23.0592C23.2617 23.2125 24.1352 23.3608 25.0049 23.5292L26.3107 23.7806C26.748 23.8573 27.1804 23.949 27.5826 24.2205L27.5549 24.3801Z" fill="#196719"/>
<path d="M27.5688 24.3819C27.1264 24.5792 26.6827 24.5943 26.2404 24.5943L24.9107 24.6093C24.0309 24.6244 23.1399 24.6194 22.2538 24.6194C20.4818 24.6106 18.7097 24.583 16.9389 24.5566C15.1681 24.5302 13.3948 24.5038 11.624 24.4636L8.96589 24.4007C8.08615 24.3743 7.19383 24.353 6.3078 24.3203V24.2801C7.18755 24.2474 8.07986 24.226 8.96589 24.1984L11.624 24.1368C13.3948 24.0966 15.1669 24.0752 16.9389 24.0425C18.711 24.0099 20.4818 23.9898 22.2538 23.981C23.1336 23.981 24.0259 23.981 24.9107 23.991L26.2404 24.0061C26.6827 24.0061 27.1201 24.0212 27.5688 24.2185V24.3819Z" fill="#196719"/>
<path d="M27.5826 24.3804C27.1804 24.6518 26.748 24.7436 26.3107 24.8202L25.0049 25.0716C24.1352 25.24 23.2617 25.3883 22.3895 25.5416C20.6439 25.8407 18.8944 26.121 17.145 26.4038C15.3955 26.6866 13.6461 26.9668 11.8941 27.2345L9.26622 27.6291C8.38647 27.7548 7.50673 27.888 6.63452 28.0062L6.62823 27.9672C7.49416 27.7812 8.36385 27.6065 9.23103 27.4255L11.8376 26.9027C13.5745 26.5558 15.3164 26.2266 17.0557 25.8872C18.7951 25.5479 20.5358 25.2199 22.2789 24.9032C23.1511 24.7499 24.0233 24.5902 24.8981 24.452L26.2089 24.2358C26.645 24.1592 27.0886 24.0976 27.5549 24.2145L27.5826 24.3804Z" fill="#196719"/>
<path d="M27.5964 24.3766C27.2483 24.7134 26.8423 24.8793 26.4213 25.0314L25.1771 25.5001C24.3501 25.8169 23.5156 26.1147 22.6836 26.4176C21.0159 27.0158 19.3406 27.5952 17.6678 28.1771C15.9951 28.759 14.3198 29.3384 12.6407 29.9064L10.1271 30.7573C9.2851 31.035 8.44556 31.3178 7.60226 31.5893L7.58844 31.5528C8.41037 31.2185 9.23482 30.8955 10.058 30.5675L12.5339 29.5998C14.1853 28.9563 15.843 28.3304 17.4969 27.6945C19.1508 27.0586 20.8085 26.4377 22.47 25.8181C23.302 25.5152 24.1327 25.2061 24.971 24.9183L26.2278 24.4784C26.645 24.3263 27.066 24.1893 27.5499 24.227L27.5964 24.3766Z" fill="#196719"/>
<path d="M27.609 24.3705C27.3249 24.7626 26.9492 24.9989 26.5646 25.2189L25.4222 25.8975C24.6681 26.3537 23.8927 26.7911 23.1248 27.2335C21.5865 28.1132 20.0381 28.9741 18.491 29.8375C16.9439 30.7009 15.3956 31.5631 13.8409 32.4139L11.5083 33.6896C10.7279 34.1081 9.94993 34.5329 9.16696 34.9463L9.14685 34.9124C9.90092 34.4411 10.655 33.9799 11.4091 33.5124L13.6788 32.1299C15.1932 31.2099 16.7177 30.3051 18.2359 29.3914C19.7541 28.4777 21.2773 27.5741 22.8081 26.6805C23.5747 26.2369 24.3388 25.7894 25.1143 25.3596L26.2718 24.7086C26.6563 24.4874 27.0472 24.2788 27.5285 24.2285L27.609 24.3705Z" fill="#196719"/>
<path d="M27.6203 24.3616C27.4092 24.7977 27.0799 25.0943 26.7406 25.3796L25.7351 26.2455C25.0653 26.8261 24.3828 27.3917 23.7042 27.961C22.3418 29.0921 20.9669 30.2107 19.5932 31.3304C18.2196 32.4502 16.8447 33.5663 15.4609 34.6747L13.386 36.3349C12.6897 36.8842 12.0035 37.4371 11.2972 37.9813L11.2721 37.9512C11.9294 37.3567 12.5942 36.7711 13.2553 36.1804L15.2511 34.4209C16.5833 33.2508 17.9268 32.0958 19.2627 30.932C20.5987 29.7683 21.9434 28.6133 23.2945 27.4684C23.9731 26.899 24.648 26.3247 25.3367 25.7667L26.3648 24.9246C26.7041 24.6406 27.0522 24.3679 27.5185 24.2334L27.6203 24.3616Z" fill="#196719"/>
<path d="M27.6303 24.3515C27.4971 24.8178 27.2244 25.1672 26.9404 25.5065L26.0983 26.5345C25.5403 27.2233 24.9672 27.8982 24.3966 28.5768C23.2517 29.9279 22.0904 31.2676 20.933 32.6086C19.7755 33.9496 18.6142 35.288 17.4441 36.6202L15.6846 38.616C15.0939 39.2771 14.5083 39.9419 13.9138 40.5992L13.8837 40.574C14.4279 39.874 14.9808 39.1815 15.5301 38.4853L17.1903 36.4103C18.2987 35.0279 19.421 33.6555 20.5346 32.278C21.6481 30.9006 22.7716 29.5295 23.904 28.1671C24.4733 27.4884 25.0351 26.806 25.6195 26.1361L26.4854 25.1307C26.7707 24.7914 27.0673 24.4621 27.5034 24.251L27.6303 24.3515Z" fill="#196719"/>
<path d="M27.6391 24.3403C27.5888 24.8229 27.3802 25.2137 27.159 25.5971L26.508 26.7545C26.0782 27.53 25.6282 28.2941 25.1871 29.0607C24.2935 30.5915 23.3836 32.1122 22.4762 33.6329C21.5688 35.1536 20.6564 36.6781 19.7377 38.1862L18.3553 40.4572C17.8877 41.2113 17.4265 41.9654 16.9552 42.7194L16.9213 42.6993C17.336 41.9164 17.7608 41.1384 18.178 40.3579L19.4537 38.0254C20.3045 36.4707 21.1717 34.9249 22.0301 33.3753C22.8885 31.8257 23.7556 30.2798 24.6341 28.7415C25.0765 27.9736 25.5139 27.2032 25.9701 26.4441L26.6488 25.3017C26.8699 24.9171 27.105 24.5414 27.4971 24.2573L27.6391 24.3403Z" fill="#196719"/>
<path d="M27.6455 24.3276C27.6794 24.8115 27.5424 25.2325 27.3941 25.6497L26.9542 26.9065C26.6664 27.7448 26.3572 28.5743 26.0544 29.4075C25.4323 31.0652 24.8039 32.7204 24.1755 34.3768C23.5471 36.0333 22.9187 37.6834 22.2689 39.3399L21.3012 41.8157C20.9732 42.6389 20.6502 43.4634 20.3159 44.2853L20.2782 44.2715C20.5509 43.4282 20.8337 42.5886 21.1114 41.7466L21.9623 39.233C22.5303 37.554 23.116 35.8825 23.6916 34.2059C24.2672 32.5294 24.8529 30.8579 25.4511 29.1901C25.754 28.3581 26.0519 27.5236 26.3686 26.6966L26.8373 25.4524C26.9894 25.0364 27.1553 24.6255 27.4921 24.2773L27.6455 24.3276Z" fill="#196719"/>
<path d="M27.6492 24.3138C27.7661 24.7851 27.7045 25.2237 27.6278 25.6598L27.4117 26.9706C27.2734 27.8504 27.1138 28.7175 26.9605 29.5898C26.6438 31.3329 26.3082 33.0723 25.9764 34.8129C25.6446 36.5536 25.3078 38.293 24.9609 40.0311L24.4381 42.6377C24.2571 43.5048 24.0824 44.3745 23.8964 45.2404L23.8575 45.2342C23.9832 44.3544 24.1088 43.4747 24.2345 42.6025L24.6354 39.9745C24.9031 38.2226 25.1897 36.4744 25.4662 34.7237C25.7427 32.973 26.0292 31.2248 26.3283 29.4792C26.4816 28.6069 26.6299 27.7335 26.7984 26.8638L27.0497 25.558C27.1264 25.1206 27.2181 24.6883 27.4896 24.2861L27.6492 24.3138Z" fill="#196719"/>
<path d="M27.6504 24.2998C27.8477 24.7422 27.8628 25.1858 27.8628 25.6282L27.8779 26.9579C27.893 27.8376 27.888 28.7287 27.888 29.6147C27.8792 31.3868 27.8515 33.1589 27.8264 34.9297C27.8012 36.7005 27.7723 38.4738 27.7321 40.2446L27.6693 42.9027C27.6429 43.7887 27.6215 44.6747 27.5888 45.5608H27.5486C27.5159 44.6747 27.4946 43.7887 27.4682 42.9027L27.4054 40.2446C27.3651 38.4738 27.3438 36.7017 27.3111 34.9297C27.2784 33.1576 27.2583 31.3868 27.2495 29.6147C27.2495 28.7287 27.2495 27.8427 27.2596 26.9579L27.2746 25.6282C27.2746 25.1858 27.2897 24.7422 27.487 24.2998H27.6504Z" fill="#196719"/>
<path d="M27.6492 24.2861C27.9206 24.6883 28.0124 25.1206 28.089 25.558L28.3404 26.8638C28.5088 27.7335 28.6571 28.6069 28.8104 29.4792C29.1095 31.2248 29.3898 32.9743 29.6726 34.7237C29.9554 36.4731 30.2356 38.2226 30.5033 39.9745L30.9042 42.6025C31.0299 43.4822 31.1631 44.3557 31.2813 45.2342L31.2423 45.2404C31.0563 44.3745 30.8816 43.5048 30.7006 42.6377L30.1778 40.0311C29.8309 38.293 29.5017 36.5523 29.1623 34.8129C28.823 33.0735 28.495 31.3329 28.1783 29.5898C28.0249 28.7175 27.8653 27.8453 27.7271 26.9706L27.5109 25.6598C27.4343 25.2237 27.3727 24.78 27.4896 24.3138L27.6492 24.2861Z" fill="#196719"/>
<path d="M27.6454 24.2725C27.9822 24.6206 28.1481 25.0265 28.3002 25.4476L28.7689 26.6918C29.0856 27.5187 29.3835 28.3532 29.6864 29.1852C30.2846 30.853 30.864 32.5283 31.4459 34.201C32.0278 35.8738 32.6072 37.5491 33.1752 39.2282L34.0261 41.7417C34.3038 42.5838 34.5866 43.4233 34.8593 44.2666L34.8216 44.2804C34.4873 43.4585 34.1643 42.634 33.8363 41.8108L32.8686 39.335C32.2251 37.6836 31.5992 36.0259 30.9633 34.372C30.3274 32.718 29.7065 31.0603 29.0869 29.3989C28.784 28.5656 28.4749 27.7362 28.1871 26.8979L27.7472 25.6411C27.5951 25.2238 27.4581 24.8028 27.4958 24.319L27.6454 24.2725Z" fill="#196719"/>
<path d="M27.6391 24.2598C28.0312 24.5438 28.2675 24.9196 28.4874 25.3042L29.1661 26.4466C29.6223 27.2006 30.0597 27.9761 30.5021 28.744C31.3818 30.2823 32.2427 31.8306 33.1061 33.3777C33.9695 34.9248 34.8317 36.4732 35.6825 38.0278L36.9581 40.3604C37.3767 41.1409 37.8014 41.9188 38.2149 42.7018L38.181 42.7219C37.7097 41.9678 37.2485 41.2137 36.7809 40.4597L35.3985 38.1887C34.4785 36.6805 33.5736 35.151 32.66 33.6328C31.7463 32.1146 30.8439 30.5927 29.9566 29.0619C29.513 28.2953 29.0656 27.5312 28.6357 26.7557L27.9847 25.5982C27.7635 25.2137 27.5549 24.8228 27.5046 24.3415L27.6391 24.2598Z" fill="#196719"/>
<path d="M27.6303 24.2471C28.0664 24.4595 28.363 24.7887 28.6483 25.1268L29.5142 26.1322C30.0948 26.8021 30.6604 27.4845 31.2297 28.1632C32.3608 29.5256 33.4794 30.9005 34.5991 32.2741C35.7189 33.6478 36.835 35.0227 37.9434 36.4064L39.6037 38.4814C40.1529 39.1776 40.7058 39.8701 41.25 40.5701L41.2199 40.5953C40.6254 39.938 40.0398 39.2731 39.4491 38.6121L37.6896 36.6163C36.5195 35.2841 35.3645 33.9406 34.2007 32.6047C33.037 31.2687 31.882 29.924 30.7371 28.5729C30.1677 27.8943 29.5934 27.2194 29.0354 26.5306L28.1933 25.5026C27.9093 25.1633 27.6366 24.8139 27.5034 24.3476L27.6303 24.2471Z" fill="#196719"/>
<path d="M27.6203 24.2358C28.0878 24.3703 28.4359 24.643 28.7752 24.9271L29.8033 25.7691C30.492 26.3271 31.1669 26.9002 31.8456 27.4708C33.1966 28.6157 34.5363 29.7757 35.8773 30.9345C37.2183 32.0932 38.5568 33.2532 39.889 34.4233L41.8847 36.1828C42.5458 36.7735 43.2106 37.3591 43.8679 37.9536L43.8428 37.9838C43.1428 37.4396 42.4503 36.8866 41.754 36.3374L39.6791 34.6772C38.2966 33.5687 36.9242 32.4464 35.5468 31.3329C34.1693 30.2194 32.7982 29.0958 31.4358 27.9635C30.7572 27.3941 30.0747 26.8323 29.4049 26.2479L28.3995 25.382C28.0601 25.0967 27.7309 24.8001 27.5197 24.364L27.6203 24.2358Z" fill="#196719"/>
<path d="M27.6089 24.2358C28.0915 24.2861 28.4824 24.4947 28.8657 24.7159L30.0232 25.3669C30.7986 25.7968 31.5628 26.2467 32.3294 26.6878C33.8602 27.5814 35.3809 28.4913 36.9016 29.3987C38.4223 30.3061 39.9442 31.2173 41.4587 32.1372L43.7284 33.5197C44.4825 33.9872 45.2365 34.4484 45.9906 34.9197L45.9705 34.9537C45.1875 34.5389 44.4096 34.1141 43.6291 33.6969L41.2965 32.4213C39.7419 31.5704 38.1961 30.7032 36.6465 29.8449C35.0968 28.9865 33.551 28.1193 32.0127 27.2408C31.2448 26.7984 30.4744 26.3611 29.7153 25.9048L28.5729 25.2262C28.1883 25.005 27.8125 24.77 27.5285 24.3779L27.6089 24.2358Z" fill="#196719"/>
<path d="M27.5964 24.223C28.0802 24.1891 28.5012 24.3261 28.9185 24.4744L30.1753 24.9142C31.0136 25.202 31.8443 25.5112 32.6763 25.8141C34.3377 26.4286 35.9929 27.0595 37.6494 27.6905C39.3058 28.3214 40.961 28.9472 42.6124 29.5957L45.0882 30.5635C45.9114 30.8915 46.7359 31.2145 47.5578 31.5488L47.544 31.5852C46.7007 31.3138 45.8612 31.031 45.0191 30.7532L42.5056 29.9024C40.8265 29.3343 39.155 28.7487 37.4784 28.1731C35.8019 27.5975 34.1304 27.0118 32.4626 26.4136C31.6306 26.1107 30.7961 25.8128 29.9692 25.4961L28.725 25.0273C28.309 24.8753 27.898 24.7094 27.5499 24.3726L27.5964 24.223Z" fill="#196719"/>
<path d="M27.5825 24.2193C28.0538 24.1025 28.4924 24.164 28.9285 24.2407L30.2394 24.4569C31.1191 24.5951 31.9863 24.7547 32.8585 24.9081C34.6016 25.2248 36.3423 25.5603 38.0817 25.8921C39.8211 26.2239 41.5617 26.5607 43.2998 26.9076L45.9064 27.4304C46.7736 27.6114 47.6433 27.7861 48.5092 27.9721L48.5029 28.0111C47.6232 27.8854 46.7434 27.7597 45.8712 27.634L43.2433 27.2331C41.4913 26.9654 39.7431 26.6789 37.9924 26.4024C36.2417 26.1259 34.4936 25.8393 32.7479 25.5402C31.8757 25.3869 31.0022 25.2386 30.1325 25.0702L28.8267 24.8188C28.3894 24.7422 27.957 24.6504 27.5549 24.379L27.5825 24.2193Z" fill="#196719"/>
<path d="M27.5687 24.2183C28.0111 24.021 28.4548 24.0059 28.8971 24.0059L30.2268 23.9908C31.1066 23.9758 31.9976 23.9808 32.8837 23.9808C34.6557 23.9896 36.4278 24.0172 38.1986 24.0424C39.9694 24.0675 41.7427 24.0964 43.5135 24.1366L46.1716 24.1982C47.0576 24.2259 47.9437 24.2472 48.8297 24.2799V24.3201C47.9437 24.3528 47.0576 24.3742 46.1716 24.4005L43.5135 24.4634C41.7427 24.5036 39.9706 24.525 38.1986 24.5564C36.4265 24.5878 34.6557 24.6104 32.8837 24.6192C31.9976 24.6192 31.1116 24.6192 30.2268 24.6092L28.8971 24.5941C28.4548 24.5941 28.0174 24.579 27.5687 24.3817V24.2183Z" fill="#196719"/>
<path d="M27.5549 24.2196C27.957 23.9482 28.3894 23.8564 28.8267 23.7798L30.1325 23.5284C31.0022 23.36 31.8757 23.2117 32.7479 23.0584C34.4936 22.7593 36.243 22.479 37.9924 22.1962C39.7419 21.9134 41.4913 21.6332 43.2433 21.3655L45.8712 20.9683C46.7509 20.8427 47.6244 20.7094 48.5029 20.5913L48.5092 20.6303C47.6433 20.8163 46.7736 20.991 45.9064 21.1719L43.2998 21.6948C41.5617 22.0416 39.8211 22.3709 38.0817 22.7102C36.3423 23.0496 34.6016 23.3776 32.8585 23.6943C31.9863 23.8476 31.1141 24.0072 30.2394 24.1455L28.9285 24.3617C28.4924 24.4383 28.0488 24.4999 27.5825 24.383L27.5549 24.2196Z" fill="#196719"/>
<path d="M27.5411 24.2231C27.8893 23.8862 28.2952 23.7203 28.7162 23.5683L29.9567 23.1045C30.7836 22.7878 31.6181 22.49 32.4501 22.1871C34.1179 21.5888 35.7932 21.0095 37.4659 20.4276C39.1387 19.8457 40.814 19.2663 42.4931 18.6982L45.0066 17.8474C45.8487 17.5697 46.6882 17.2869 47.5315 17.0142L47.5453 17.0519C46.7234 17.3862 45.8989 17.7079 45.0757 18.0372L42.5999 19.0049C40.9485 19.6484 39.2908 20.2743 37.6369 20.9102C35.9829 21.5461 34.3252 22.167 32.6638 22.7866C31.8318 23.0894 31.0011 23.3986 30.1628 23.6864L28.906 24.1263C28.4888 24.2784 28.0677 24.4153 27.5839 24.3776L27.5411 24.2231Z" fill="#196719"/>
<path d="M27.5285 24.236C27.8125 23.8439 28.1883 23.6076 28.5729 23.3876L29.7153 22.709C30.4694 22.2528 31.2448 21.8154 32.0127 21.373C33.551 20.4933 35.0994 19.6324 36.6465 18.769C38.1936 17.9056 39.7419 17.0434 41.2965 16.1926L43.6291 14.9169C44.4096 14.4984 45.1875 14.0736 45.9705 13.6602L45.9906 13.6941C45.2365 14.1654 44.4825 14.6266 43.7284 15.0941L41.4587 16.4766C39.9505 17.3966 38.4198 18.3014 36.9016 19.2151C35.3834 20.1288 33.8602 21.0324 32.3294 21.926C31.5628 22.3696 30.7986 22.8171 30.0232 23.2469L28.8657 23.8979C28.4811 24.1191 28.0903 24.3277 27.6089 24.378L27.5285 24.236Z" fill="#196719"/>
<path d="M27.5159 24.2357C27.7283 23.8008 28.0576 23.5042 28.3957 23.2189L29.4011 22.353C30.071 21.7724 30.7534 21.2068 31.4321 20.6375C32.7944 19.5064 34.1693 18.3879 35.543 17.2681C36.9167 16.1483 38.2916 15.0323 39.6753 13.9238L41.7502 12.2636C42.4465 11.7144 43.139 11.1614 43.839 10.6172L43.8641 10.6473C43.2068 11.2418 42.542 11.8275 41.8809 12.4182L39.8852 14.1814C38.553 15.3515 37.2095 16.5065 35.8735 17.6702C34.5376 18.834 33.1966 19.9815 31.8418 21.1276C31.1631 21.697 30.4882 22.2713 29.7995 22.8281L28.7715 23.6714C28.4321 23.9554 28.084 24.2281 27.6165 24.3613L27.5159 24.2357Z" fill="#196719"/>
<path d="M27.5071 24.2474C27.6404 23.7811 27.9131 23.433 28.1971 23.0937L29.0392 22.0656C29.5972 21.3769 30.1703 20.702 30.7408 20.0233C31.8858 18.6723 33.0458 17.3326 34.2045 15.9916C35.3633 14.6506 36.5233 13.3121 37.6934 11.9799L39.4528 9.98418C40.0435 9.32311 40.6292 8.65827 41.2237 8.00098L41.2538 8.02611C40.7096 8.72614 40.1566 9.41863 39.6074 10.1149L37.9472 12.1898C36.8387 13.5723 35.7164 14.9447 34.6029 16.3221C33.4894 17.6996 32.3659 19.0707 31.2335 20.4331C30.6642 21.1117 30.1024 21.7942 29.518 22.4628L28.6521 23.4682C28.3668 23.8075 28.0702 24.138 27.6341 24.3479L27.5071 24.2474Z" fill="#196719"/>
<path d="M27.4984 24.2598C27.5486 23.7772 27.7572 23.3801 27.9784 23.003L28.6295 21.8455C29.0593 21.0701 29.5092 20.306 29.9503 19.5393C30.8439 18.0086 31.7538 16.4879 32.6612 14.9672C33.5686 13.4465 34.481 11.9195 35.3997 10.4113L36.7822 8.1416C37.2497 7.38753 37.711 6.63346 38.1823 5.87939L38.2162 5.8995C37.8014 6.68248 37.3767 7.46043 36.9594 8.24089L35.6838 10.5735C34.8329 12.1281 33.9657 13.674 33.1074 15.2236C32.249 16.7732 31.3818 18.319 30.5033 19.8573C30.0609 20.6252 29.6236 21.3944 29.1674 22.1547L28.4887 23.2971C28.2675 23.6817 28.0325 24.0512 27.6404 24.3415L27.4984 24.2598Z" fill="#196719"/>
<path d="M27.4921 24.2721C27.4582 23.7883 27.5952 23.3673 27.7435 22.95L28.1833 21.6932C28.4711 20.8549 28.7803 20.0242 29.0832 19.1922C29.7053 17.5345 30.3337 15.8794 30.9621 14.2229C31.5905 12.5665 32.2189 10.9113 32.8674 9.25989L33.8351 6.78403C34.1631 5.96084 34.4861 5.13639 34.8204 4.31445L34.8581 4.32828C34.5854 5.17158 34.3026 6.01111 34.0248 6.85315L33.174 9.36671C32.6059 11.0458 32.0203 12.7173 31.4447 14.3938C30.8691 16.0704 30.2834 17.7419 29.6852 19.4097C29.3823 20.2416 29.0844 21.0761 28.7677 21.9031L28.299 23.1461C28.1469 23.5633 27.981 23.9743 27.6442 24.3224L27.4921 24.2721Z" fill="#196719"/>
<path d="M27.4883 24.286C27.3714 23.8147 27.433 23.3761 27.5096 22.94L27.7258 21.6292C27.864 20.7495 28.0237 19.8823 28.177 19.0101C28.4937 17.2669 28.8293 15.5263 29.161 13.7869C29.4928 12.0475 29.8297 10.3056 30.1765 8.56873L30.6993 5.96217C30.8803 5.09499 31.055 4.2253 31.241 3.35938H31.28C31.1543 4.23912 31.0286 5.11887 30.9029 5.99107L30.502 8.619C30.2343 10.371 29.9478 12.1191 29.6713 13.8698C29.3948 15.6205 29.1083 17.3687 28.8091 19.1144C28.6558 19.9866 28.5075 20.8601 28.3391 21.7297L28.0878 23.0355C28.0111 23.4716 27.9193 23.9052 27.6479 24.3074L27.4883 24.286Z" fill="#196719"/>
<g opacity="0.9">
<path d="M27.4871 24.3C27.2897 23.8576 27.2747 23.4203 27.2747 22.9716L27.2596 21.6419C27.2445 20.7622 27.2495 19.8711 27.2495 18.9851C27.2583 17.213 27.286 15.441 27.3111 13.6702C27.3362 11.8994 27.3651 10.1261 27.4054 8.35525L27.4682 5.69715C27.4946 4.81741 27.516 3.92509 27.5486 3.03906H27.5889C27.6215 3.91881 27.6429 4.81112 27.6693 5.69715L27.7321 8.35525C27.7723 10.1261 27.7937 11.8981 27.8264 13.6702C27.8591 15.4422 27.8792 17.213 27.888 18.9851C27.888 19.8711 27.888 20.7572 27.8779 21.6419L27.8628 22.9716C27.8628 23.414 27.8477 23.8576 27.6504 24.3H27.4871Z" fill="white"/>
<path d="M27.4883 24.3138C27.2169 23.9116 27.1251 23.478 27.0485 23.0419L26.7971 21.7361C26.6287 20.8664 26.4804 19.9929 26.3271 19.1207C26.028 17.3751 25.7477 15.6256 25.4649 13.8762C25.1821 12.1267 24.9019 10.3773 24.6342 8.62535L24.2383 5.99742C24.1126 5.11768 23.9794 4.24421 23.8613 3.36572H23.9002C24.0862 4.23164 24.2609 5.10134 24.4419 5.96852L24.9647 8.57508C25.3116 10.312 25.6409 12.0539 25.9802 13.7932C26.3195 15.5326 26.6476 17.2733 26.9643 19.0164C27.1176 19.8886 27.2772 20.7596 27.4154 21.6356L27.6316 22.9464C27.7083 23.3825 27.7699 23.8261 27.653 24.2924L27.4883 24.3138Z" fill="white"/>
<path d="M27.4921 24.3274C27.1553 23.9793 26.9894 23.5734 26.8373 23.1511L26.3685 21.9081C26.0518 21.0812 25.754 20.2467 25.4511 19.4147C24.8528 17.7469 24.2735 16.0716 23.6916 14.3989C23.1097 12.7261 22.5303 11.0508 21.9622 9.37174L21.1114 6.85818C20.8337 6.01237 20.5509 5.17158 20.2794 4.32828L20.3171 4.31445C20.6514 5.13639 20.9744 5.96084 21.3024 6.78403L22.2702 9.25989C22.9187 10.9138 23.5383 12.569 24.1754 14.2229C24.8126 15.8768 25.4322 17.5345 26.0518 19.196C26.3547 20.028 26.6639 20.8587 26.9517 21.697L27.3915 22.9538C27.5436 23.371 27.6806 23.7921 27.6429 24.2759L27.4921 24.3274Z" fill="white"/>
<path d="M27.4984 24.34C27.1062 24.056 26.87 23.6802 26.65 23.2957L25.9714 22.1532C25.5152 21.3929 25.0778 20.6237 24.6354 19.8558C23.7557 18.3175 22.8948 16.7692 22.0314 15.2221C21.168 13.675 20.3058 12.1266 19.455 10.572L18.1793 8.23942C17.7608 7.45896 17.336 6.68101 16.9225 5.89804L16.9565 5.87793C17.4278 6.632 17.889 7.38607 18.3565 8.14014L19.739 10.4099C20.659 11.918 21.5638 13.4475 22.4775 14.967C23.3912 16.4864 24.2948 18.0084 25.1884 19.5391C25.632 20.3058 26.0795 21.0699 26.5093 21.8453L27.1603 23.0028C27.3815 23.3799 27.5901 23.7783 27.6404 24.2596L27.4984 24.34Z" fill="white"/>
<path d="M27.5072 24.3516C27.0711 24.1404 26.7745 23.8099 26.4892 23.4718L25.6233 22.4664C25.0426 21.7978 24.4771 21.1154 23.9078 20.4367C22.7754 19.0706 21.6619 17.7007 20.5383 16.3182C19.4148 14.9358 18.3025 13.5696 17.194 12.1859L15.5338 10.111C14.9846 9.41472 14.4316 8.72852 13.8875 8.02221L13.9176 7.99707C14.5121 8.65437 15.0977 9.3192 15.6884 9.98027L17.4479 11.976C18.618 13.3082 19.773 14.6505 20.9367 15.9877C22.1005 17.3249 23.2555 18.6684 24.4004 20.0194C24.9697 20.6981 25.5441 21.373 26.1021 22.0617L26.9442 23.0898C27.2282 23.4291 27.5009 23.7772 27.6341 24.2435L27.5072 24.3516Z" fill="white"/>
<path d="M27.516 24.3615C27.0497 24.2283 26.7016 23.9555 26.3622 23.6715L25.3342 22.8282C24.6455 22.2715 23.9706 21.6971 23.2919 21.1278C21.9409 19.9816 20.6011 18.8216 19.2602 17.6641C17.9192 16.5066 16.5807 15.3453 15.2523 14.1816L13.2565 12.4221C12.5954 11.8314 11.9306 11.2457 11.2733 10.6513L11.2985 10.6211C11.9985 11.1653 12.691 11.7183 13.3872 12.2675L15.4584 13.9302C16.8409 15.0387 18.2133 16.161 19.5907 17.2745C20.9681 18.388 22.3393 19.5116 23.7016 20.6439C24.3803 21.2132 25.0627 21.775 25.7326 22.3594L26.738 23.2254C27.0773 23.5106 27.4066 23.8072 27.6178 24.2421L27.516 24.3615Z" fill="white"/>
<path d="M27.5285 24.3702C27.0459 24.3199 26.6488 24.1113 26.2718 23.8901L25.1143 23.2391C24.3388 22.8093 23.5747 22.3593 22.8081 21.9182C21.2773 21.0246 19.7566 20.1147 18.2359 19.2073C16.7152 18.2999 15.1932 17.3888 13.6788 16.4688L11.4091 15.0863C10.655 14.6188 9.90092 14.1576 9.14685 13.6863L9.16696 13.6523C9.94993 14.0671 10.7279 14.4919 11.5083 14.9091L13.8409 16.1923C15.3956 17.0431 16.9414 17.9103 18.491 18.7687C20.0406 19.6271 21.5865 20.4943 23.1248 21.3728C23.8927 21.8151 24.6631 22.2525 25.4222 22.7087L26.5646 23.3874C26.9492 23.6086 27.3249 23.8436 27.609 24.2357L27.5285 24.3702Z" fill="white"/>
<path d="M27.5411 24.3765C27.0572 24.4105 26.6362 24.2735 26.219 24.1252L24.9622 23.6853C24.1239 23.3975 23.2932 23.0883 22.4612 22.7854C20.7997 22.1709 19.1446 21.5387 17.4881 20.9091C15.8317 20.2794 14.1765 19.6523 12.5251 19.0038L10.0492 18.0361C9.22981 17.7005 8.40536 17.3813 7.58594 17.047L7.59976 17.0093C8.44306 17.282 9.28259 17.5648 10.1246 17.8425L12.6382 18.6934C14.3173 19.2614 15.9888 19.8471 17.6653 20.4227C19.3419 20.9983 21.0134 21.584 22.6811 22.1822C23.5131 22.4851 24.3476 22.7829 25.1746 23.0996L26.4188 23.5684C26.8348 23.7205 27.2458 23.8864 27.5939 24.2232L27.5411 24.3765Z" fill="white"/>
<path d="M27.5549 24.3801C27.0836 24.497 26.645 24.4354 26.2089 24.3587L24.8981 24.1426C24.0183 24.0043 23.1511 23.8447 22.2789 23.6914C20.5358 23.3747 18.7951 23.0391 17.0557 22.7073C15.3164 22.3755 13.5745 22.0387 11.8376 21.6918L9.23103 21.169C8.36385 20.988 7.49416 20.8133 6.62823 20.6273L6.63452 20.5884C7.51427 20.7141 8.39401 20.8397 9.26622 20.9654L11.8941 21.3663C13.6461 21.634 15.3943 21.9206 17.145 22.1971C18.8957 22.4736 20.6439 22.7601 22.3895 23.0592C23.2617 23.2125 24.1352 23.3608 25.0049 23.5292L26.3107 23.7806C26.748 23.8573 27.1804 23.949 27.5826 24.2205L27.5549 24.3801Z" fill="white"/>
<path d="M27.5688 24.3819C27.1264 24.5792 26.6827 24.5943 26.2404 24.5943L24.9107 24.6093C24.0309 24.6244 23.1399 24.6194 22.2538 24.6194C20.4818 24.6106 18.7097 24.583 16.9389 24.5566C15.1681 24.5302 13.3948 24.5038 11.624 24.4636L8.96589 24.4007C8.08615 24.3743 7.19383 24.353 6.3078 24.3203V24.2801C7.18755 24.2474 8.07986 24.226 8.96589 24.1984L11.624 24.1368C13.3948 24.0966 15.1669 24.0752 16.9389 24.0425C18.711 24.0099 20.4818 23.9898 22.2538 23.981C23.1336 23.981 24.0259 23.981 24.9107 23.991L26.2404 24.0061C26.6827 24.0061 27.1201 24.0212 27.5688 24.2185V24.3819Z" fill="white"/>
<path d="M27.5826 24.3804C27.1804 24.6518 26.748 24.7436 26.3107 24.8202L25.0049 25.0716C24.1352 25.24 23.2617 25.3883 22.3895 25.5416C20.6439 25.8407 18.8944 26.121 17.145 26.4038C15.3955 26.6866 13.6461 26.9668 11.8941 27.2345L9.26622 27.6291C8.38647 27.7548 7.50673 27.888 6.63452 28.0062L6.62823 27.9672C7.49416 27.7812 8.36385 27.6065 9.23103 27.4255L11.8376 26.9027C13.5745 26.5558 15.3164 26.2266 17.0557 25.8872C18.7951 25.5479 20.5358 25.2199 22.2789 24.9032C23.1511 24.7499 24.0233 24.5902 24.8981 24.452L26.2089 24.2358C26.645 24.1592 27.0886 24.0976 27.5549 24.2145L27.5826 24.3804Z" fill="white"/>
<path d="M27.5964 24.3766C27.2483 24.7134 26.8423 24.8793 26.4213 25.0314L25.1771 25.5001C24.3501 25.8169 23.5156 26.1147 22.6836 26.4176C21.0159 27.0158 19.3406 27.5952 17.6678 28.1771C15.9951 28.759 14.3198 29.3384 12.6407 29.9064L10.1271 30.7573C9.2851 31.035 8.44556 31.3178 7.60226 31.5893L7.58844 31.5528C8.41037 31.2185 9.23482 30.8955 10.058 30.5675L12.5339 29.5998C14.1853 28.9563 15.843 28.3304 17.4969 27.6945C19.1508 27.0586 20.8085 26.4377 22.47 25.8181C23.302 25.5152 24.1327 25.2061 24.971 24.9183L26.2278 24.4784C26.645 24.3263 27.066 24.1893 27.5499 24.227L27.5964 24.3766Z" fill="white"/>
<path d="M27.609 24.3705C27.3249 24.7626 26.9492 24.9989 26.5646 25.2189L25.4222 25.8975C24.6681 26.3537 23.8927 26.7911 23.1248 27.2335C21.5865 28.1132 20.0381 28.9741 18.491 29.8375C16.9439 30.7009 15.3956 31.5631 13.8409 32.4139L11.5083 33.6896C10.7279 34.1081 9.94993 34.5329 9.16696 34.9463L9.14685 34.9124C9.90092 34.4411 10.655 33.9799 11.4091 33.5124L13.6788 32.1299C15.1932 31.2099 16.7177 30.3051 18.2359 29.3914C19.7541 28.4777 21.2773 27.5741 22.8081 26.6805C23.5747 26.2369 24.3388 25.7894 25.1143 25.3596L26.2718 24.7086C26.6563 24.4874 27.0472 24.2788 27.5285 24.2285L27.609 24.3705Z" fill="white"/>
<path d="M27.6203 24.3616C27.4092 24.7977 27.0799 25.0943 26.7406 25.3796L25.7351 26.2455C25.0653 26.8261 24.3828 27.3917 23.7042 27.961C22.3418 29.0921 20.9669 30.2107 19.5932 31.3304C18.2196 32.4502 16.8447 33.5663 15.4609 34.6747L13.386 36.3349C12.6897 36.8842 12.0035 37.4371 11.2972 37.9813L11.2721 37.9512C11.9294 37.3567 12.5942 36.7711 13.2553 36.1804L15.2511 34.4209C16.5833 33.2508 17.9268 32.0958 19.2627 30.932C20.5987 29.7683 21.9434 28.6133 23.2945 27.4684C23.9731 26.899 24.648 26.3247 25.3367 25.7667L26.3648 24.9246C26.7041 24.6406 27.0522 24.3679 27.5185 24.2334L27.6203 24.3616Z" fill="white"/>
<path d="M27.6303 24.3515C27.4971 24.8178 27.2244 25.1672 26.9404 25.5065L26.0983 26.5345C25.5403 27.2233 24.9672 27.8982 24.3966 28.5768C23.2517 29.9279 22.0904 31.2676 20.933 32.6086C19.7755 33.9496 18.6142 35.288 17.4441 36.6202L15.6846 38.616C15.0939 39.2771 14.5083 39.9419 13.9138 40.5992L13.8837 40.574C14.4279 39.874 14.9808 39.1815 15.5301 38.4853L17.1903 36.4103C18.2987 35.0279 19.421 33.6555 20.5346 32.278C21.6481 30.9006 22.7716 29.5295 23.904 28.1671C24.4733 27.4884 25.0351 26.806 25.6195 26.1361L26.4854 25.1307C26.7707 24.7914 27.0673 24.4621 27.5034 24.251L27.6303 24.3515Z" fill="white"/>
<path d="M27.6391 24.3403C27.5888 24.8229 27.3802 25.2137 27.159 25.5971L26.508 26.7545C26.0782 27.53 25.6282 28.2941 25.1871 29.0607C24.2935 30.5915 23.3836 32.1122 22.4762 33.6329C21.5688 35.1536 20.6564 36.6781 19.7377 38.1862L18.3553 40.4572C17.8877 41.2113 17.4265 41.9654 16.9552 42.7194L16.9213 42.6993C17.336 41.9164 17.7608 41.1384 18.178 40.3579L19.4537 38.0254C20.3045 36.4707 21.1717 34.9249 22.0301 33.3753C22.8885 31.8257 23.7556 30.2798 24.6341 28.7415C25.0765 27.9736 25.5139 27.2032 25.9701 26.4441L26.6488 25.3017C26.8699 24.9171 27.105 24.5414 27.4971 24.2573L27.6391 24.3403Z" fill="white"/>
<path d="M27.6455 24.3276C27.6794 24.8115 27.5424 25.2325 27.3941 25.6497L26.9542 26.9065C26.6664 27.7448 26.3572 28.5743 26.0544 29.4075C25.4323 31.0652 24.8039 32.7204 24.1755 34.3768C23.5471 36.0333 22.9187 37.6834 22.2689 39.3399L21.3012 41.8157C20.9732 42.6389 20.6502 43.4634 20.3159 44.2853L20.2782 44.2715C20.5509 43.4282 20.8337 42.5886 21.1114 41.7466L21.9623 39.233C22.5303 37.554 23.116 35.8825 23.6916 34.2059C24.2672 32.5294 24.8529 30.8579 25.4511 29.1901C25.754 28.3581 26.0519 27.5236 26.3686 26.6966L26.8373 25.4524C26.9894 25.0364 27.1553 24.6255 27.4921 24.2773L27.6455 24.3276Z" fill="white"/>
<path d="M27.6492 24.3138C27.7661 24.7851 27.7045 25.2237 27.6278 25.6598L27.4117 26.9706C27.2734 27.8504 27.1138 28.7175 26.9605 29.5898C26.6438 31.3329 26.3082 33.0723 25.9764 34.8129C25.6446 36.5536 25.3078 38.293 24.9609 40.0311L24.4381 42.6377C24.2571 43.5048 24.0824 44.3745 23.8964 45.2404L23.8575 45.2342C23.9832 44.3544 24.1088 43.4747 24.2345 42.6025L24.6354 39.9745C24.9031 38.2226 25.1897 36.4744 25.4662 34.7237C25.7427 32.973 26.0292 31.2248 26.3283 29.4792C26.4816 28.6069 26.6299 27.7335 26.7984 26.8638L27.0497 25.558C27.1264 25.1206 27.2181 24.6883 27.4896 24.2861L27.6492 24.3138Z" fill="white"/>
<path d="M27.6504 24.2998C27.8477 24.7422 27.8628 25.1858 27.8628 25.6282L27.8779 26.9579C27.893 27.8376 27.888 28.7287 27.888 29.6147C27.8792 31.3868 27.8515 33.1589 27.8264 34.9297C27.8012 36.7005 27.7723 38.4738 27.7321 40.2446L27.6693 42.9027C27.6429 43.7887 27.6215 44.6747 27.5888 45.5608H27.5486C27.5159 44.6747 27.4946 43.7887 27.4682 42.9027L27.4054 40.2446C27.3651 38.4738 27.3438 36.7017 27.3111 34.9297C27.2784 33.1576 27.2583 31.3868 27.2495 29.6147C27.2495 28.7287 27.2495 27.8427 27.2596 26.9579L27.2746 25.6282C27.2746 25.1858 27.2897 24.7422 27.487 24.2998H27.6504Z" fill="white"/>
<path d="M27.6492 24.2861C27.9206 24.6883 28.0124 25.1206 28.089 25.558L28.3404 26.8638C28.5088 27.7335 28.6571 28.6069 28.8104 29.4792C29.1095 31.2248 29.3898 32.9743 29.6726 34.7237C29.9554 36.4731 30.2356 38.2226 30.5033 39.9745L30.9042 42.6025C31.0299 43.4822 31.1631 44.3557 31.2813 45.2342L31.2423 45.2404C31.0563 44.3745 30.8816 43.5048 30.7006 42.6377L30.1778 40.0311C29.8309 38.293 29.5017 36.5523 29.1623 34.8129C28.823 33.0735 28.495 31.3329 28.1783 29.5898C28.0249 28.7175 27.8653 27.8453 27.7271 26.9706L27.5109 25.6598C27.4343 25.2237 27.3727 24.78 27.4896 24.3138L27.6492 24.2861Z" fill="white"/>
<path d="M27.6454 24.2725C27.9822 24.6206 28.1481 25.0265 28.3002 25.4476L28.7689 26.6918C29.0856 27.5187 29.3835 28.3532 29.6864 29.1852C30.2846 30.853 30.864 32.5283 31.4459 34.201C32.0278 35.8738 32.6072 37.5491 33.1752 39.2282L34.0261 41.7417C34.3038 42.5838 34.5866 43.4233 34.8593 44.2666L34.8216 44.2804C34.4873 43.4585 34.1643 42.634 33.8363 41.8108L32.8686 39.335C32.2251 37.6836 31.5992 36.0259 30.9633 34.372C30.3274 32.718 29.7065 31.0603 29.0869 29.3989C28.784 28.5656 28.4749 27.7362 28.1871 26.8979L27.7472 25.6411C27.5951 25.2238 27.4581 24.8028 27.4958 24.319L27.6454 24.2725Z" fill="white"/>
<path d="M27.6391 24.2598C28.0312 24.5438 28.2675 24.9196 28.4874 25.3042L29.1661 26.4466C29.6223 27.2006 30.0597 27.9761 30.5021 28.744C31.3818 30.2823 32.2427 31.8306 33.1061 33.3777C33.9695 34.9248 34.8317 36.4732 35.6825 38.0278L36.9581 40.3604C37.3767 41.1409 37.8014 41.9188 38.2149 42.7018L38.181 42.7219C37.7097 41.9678 37.2485 41.2137 36.7809 40.4597L35.3985 38.1887C34.4785 36.6805 33.5736 35.151 32.66 33.6328C31.7463 32.1146 30.8439 30.5927 29.9566 29.0619C29.513 28.2953 29.0656 27.5312 28.6357 26.7557L27.9847 25.5982C27.7635 25.2137 27.5549 24.8228 27.5046 24.3415L27.6391 24.2598Z" fill="white"/>
<path d="M27.6303 24.2471C28.0664 24.4595 28.363 24.7887 28.6483 25.1268L29.5142 26.1322C30.0948 26.8021 30.6604 27.4845 31.2297 28.1632C32.3608 29.5256 33.4794 30.9005 34.5991 32.2741C35.7189 33.6478 36.835 35.0227 37.9434 36.4064L39.6037 38.4814C40.1529 39.1776 40.7058 39.8701 41.25 40.5701L41.2199 40.5953C40.6254 39.938 40.0398 39.2731 39.4491 38.6121L37.6896 36.6163C36.5195 35.2841 35.3645 33.9406 34.2007 32.6047C33.037 31.2687 31.882 29.924 30.7371 28.5729C30.1677 27.8943 29.5934 27.2194 29.0354 26.5306L28.1933 25.5026C27.9093 25.1633 27.6366 24.8139 27.5034 24.3476L27.6303 24.2471Z" fill="white"/>
<path d="M27.6203 24.2358C28.0878 24.3703 28.4359 24.643 28.7752 24.9271L29.8033 25.7691C30.492 26.3271 31.1669 26.9002 31.8456 27.4708C33.1966 28.6157 34.5363 29.7757 35.8773 30.9345C37.2183 32.0932 38.5568 33.2532 39.889 34.4233L41.8847 36.1828C42.5458 36.7735 43.2106 37.3591 43.8679 37.9536L43.8428 37.9838C43.1428 37.4396 42.4503 36.8866 41.754 36.3374L39.6791 34.6772C38.2966 33.5687 36.9242 32.4464 35.5468 31.3329C34.1693 30.2194 32.7982 29.0958 31.4358 27.9635C30.7572 27.3941 30.0747 26.8323 29.4049 26.2479L28.3995 25.382C28.0601 25.0967 27.7309 24.8001 27.5197 24.364L27.6203 24.2358Z" fill="white"/>
<path d="M27.6089 24.2358C28.0915 24.2861 28.4824 24.4947 28.8657 24.7159L30.0232 25.3669C30.7986 25.7968 31.5628 26.2467 32.3294 26.6878C33.8602 27.5814 35.3809 28.4913 36.9016 29.3987C38.4223 30.3061 39.9442 31.2173 41.4587 32.1372L43.7284 33.5197C44.4825 33.9872 45.2365 34.4484 45.9906 34.9197L45.9705 34.9537C45.1875 34.5389 44.4096 34.1141 43.6291 33.6969L41.2965 32.4213C39.7419 31.5704 38.1961 30.7032 36.6465 29.8449C35.0968 28.9865 33.551 28.1193 32.0127 27.2408C31.2448 26.7984 30.4744 26.3611 29.7153 25.9048L28.5729 25.2262C28.1883 25.005 27.8125 24.77 27.5285 24.3779L27.6089 24.2358Z" fill="white"/>
<path d="M27.5964 24.223C28.0802 24.1891 28.5012 24.3261 28.9185 24.4744L30.1753 24.9142C31.0136 25.202 31.8443 25.5112 32.6763 25.8141C34.3377 26.4286 35.9929 27.0595 37.6494 27.6905C39.3058 28.3214 40.961 28.9472 42.6124 29.5957L45.0882 30.5635C45.9114 30.8915 46.7359 31.2145 47.5578 31.5488L47.544 31.5852C46.7007 31.3138 45.8612 31.031 45.0191 30.7532L42.5056 29.9024C40.8265 29.3343 39.155 28.7487 37.4784 28.1731C35.8019 27.5975 34.1304 27.0118 32.4626 26.4136C31.6306 26.1107 30.7961 25.8128 29.9692 25.4961L28.725 25.0273C28.309 24.8753 27.898 24.7094 27.5499 24.3726L27.5964 24.223Z" fill="white"/>
<path d="M27.5825 24.2193C28.0538 24.1025 28.4924 24.164 28.9285 24.2407L30.2394 24.4569C31.1191 24.5951 31.9863 24.7547 32.8585 24.9081C34.6016 25.2248 36.3423 25.5603 38.0817 25.8921C39.8211 26.2239 41.5617 26.5607 43.2998 26.9076L45.9064 27.4304C46.7736 27.6114 47.6433 27.7861 48.5092 27.9721L48.5029 28.0111C47.6232 27.8854 46.7434 27.7597 45.8712 27.634L43.2433 27.2331C41.4913 26.9654 39.7431 26.6789 37.9924 26.4024C36.2417 26.1259 34.4936 25.8393 32.7479 25.5402C31.8757 25.3869 31.0022 25.2386 30.1325 25.0702L28.8267 24.8188C28.3894 24.7422 27.957 24.6504 27.5549 24.379L27.5825 24.2193Z" fill="white"/>
<path d="M27.5687 24.2183C28.0111 24.021 28.4548 24.0059 28.8971 24.0059L30.2268 23.9908C31.1066 23.9758 31.9976 23.9808 32.8837 23.9808C34.6557 23.9896 36.4278 24.0172 38.1986 24.0424C39.9694 24.0675 41.7427 24.0964 43.5135 24.1366L46.1716 24.1982C47.0576 24.2259 47.9437 24.2472 48.8297 24.2799V24.3201C47.9437 24.3528 47.0576 24.3742 46.1716 24.4005L43.5135 24.4634C41.7427 24.5036 39.9706 24.525 38.1986 24.5564C36.4265 24.5878 34.6557 24.6104 32.8837 24.6192C31.9976 24.6192 31.1116 24.6192 30.2268 24.6092L28.8971 24.5941C28.4548 24.5941 28.0174 24.579 27.5687 24.3817V24.2183Z" fill="white"/>
<path d="M27.5549 24.2196C27.957 23.9482 28.3894 23.8564 28.8267 23.7798L30.1325 23.5284C31.0022 23.36 31.8757 23.2117 32.7479 23.0584C34.4936 22.7593 36.243 22.479 37.9924 22.1962C39.7419 21.9134 41.4913 21.6332 43.2433 21.3655L45.8712 20.9683C46.7509 20.8427 47.6244 20.7094 48.5029 20.5913L48.5092 20.6303C47.6433 20.8163 46.7736 20.991 45.9064 21.1719L43.2998 21.6948C41.5617 22.0416 39.8211 22.3709 38.0817 22.7102C36.3423 23.0496 34.6016 23.3776 32.8585 23.6943C31.9863 23.8476 31.1141 24.0072 30.2394 24.1455L28.9285 24.3617C28.4924 24.4383 28.0488 24.4999 27.5825 24.383L27.5549 24.2196Z" fill="white"/>
<path d="M27.5411 24.2231C27.8893 23.8862 28.2952 23.7203 28.7162 23.5683L29.9567 23.1045C30.7836 22.7878 31.6181 22.49 32.4501 22.1871C34.1179 21.5888 35.7932 21.0095 37.4659 20.4276C39.1387 19.8457 40.814 19.2663 42.4931 18.6982L45.0066 17.8474C45.8487 17.5697 46.6882 17.2869 47.5315 17.0142L47.5453 17.0519C46.7234 17.3862 45.8989 17.7079 45.0757 18.0372L42.5999 19.0049C40.9485 19.6484 39.2908 20.2743 37.6369 20.9102C35.9829 21.5461 34.3252 22.167 32.6638 22.7866C31.8318 23.0894 31.0011 23.3986 30.1628 23.6864L28.906 24.1263C28.4888 24.2784 28.0677 24.4153 27.5839 24.3776L27.5411 24.2231Z" fill="white"/>
<path d="M27.5285 24.236C27.8125 23.8439 28.1883 23.6076 28.5729 23.3876L29.7153 22.709C30.4694 22.2528 31.2448 21.8154 32.0127 21.373C33.551 20.4933 35.0994 19.6324 36.6465 18.769C38.1936 17.9056 39.7419 17.0434 41.2965 16.1926L43.6291 14.9169C44.4096 14.4984 45.1875 14.0736 45.9705 13.6602L45.9906 13.6941C45.2365 14.1654 44.4825 14.6266 43.7284 15.0941L41.4587 16.4766C39.9505 17.3966 38.4198 18.3014 36.9016 19.2151C35.3834 20.1288 33.8602 21.0324 32.3294 21.926C31.5628 22.3696 30.7986 22.8171 30.0232 23.2469L28.8657 23.8979C28.4811 24.1191 28.0903 24.3277 27.6089 24.378L27.5285 24.236Z" fill="white"/>
<path d="M27.5159 24.2357C27.7283 23.8008 28.0576 23.5042 28.3957 23.2189L29.4011 22.353C30.071 21.7724 30.7534 21.2068 31.4321 20.6375C32.7944 19.5064 34.1693 18.3879 35.543 17.2681C36.9167 16.1483 38.2916 15.0323 39.6753 13.9238L41.7502 12.2636C42.4465 11.7144 43.139 11.1614 43.839 10.6172L43.8641 10.6473C43.2068 11.2418 42.542 11.8275 41.8809 12.4182L39.8852 14.1814C38.553 15.3515 37.2095 16.5065 35.8735 17.6702C34.5376 18.834 33.1966 19.9815 31.8418 21.1276C31.1631 21.697 30.4882 22.2713 29.7995 22.8281L28.7715 23.6714C28.4321 23.9554 28.084 24.2281 27.6165 24.3613L27.5159 24.2357Z" fill="white"/>
<path d="M27.5071 24.2474C27.6404 23.7811 27.9131 23.433 28.1971 23.0937L29.0392 22.0656C29.5972 21.3769 30.1703 20.702 30.7408 20.0233C31.8858 18.6723 33.0458 17.3326 34.2045 15.9916C35.3633 14.6506 36.5233 13.3121 37.6934 11.9799L39.4528 9.98418C40.0435 9.32311 40.6292 8.65827 41.2237 8.00098L41.2538 8.02611C40.7096 8.72614 40.1566 9.41863 39.6074 10.1149L37.9472 12.1898C36.8387 13.5723 35.7164 14.9447 34.6029 16.3221C33.4894 17.6996 32.3659 19.0707 31.2335 20.4331C30.6642 21.1117 30.1024 21.7942 29.518 22.4628L28.6521 23.4682C28.3668 23.8075 28.0702 24.138 27.6341 24.3479L27.5071 24.2474Z" fill="white"/>
<path d="M27.4984 24.2598C27.5486 23.7772 27.7572 23.3801 27.9784 23.003L28.6295 21.8455C29.0593 21.0701 29.5092 20.306 29.9503 19.5393C30.8439 18.0086 31.7538 16.4879 32.6612 14.9672C33.5686 13.4465 34.481 11.9195 35.3997 10.4113L36.7822 8.1416C37.2497 7.38753 37.711 6.63346 38.1823 5.87939L38.2162 5.8995C37.8014 6.68248 37.3767 7.46043 36.9594 8.24089L35.6838 10.5735C34.8329 12.1281 33.9657 13.674 33.1074 15.2236C32.249 16.7732 31.3818 18.319 30.5033 19.8573C30.0609 20.6252 29.6236 21.3944 29.1674 22.1547L28.4887 23.2971C28.2675 23.6817 28.0325 24.0512 27.6404 24.3415L27.4984 24.2598Z" fill="white"/>
<path d="M27.4921 24.2721C27.4582 23.7883 27.5952 23.3673 27.7435 22.95L28.1833 21.6932C28.4711 20.8549 28.7803 20.0242 29.0832 19.1922C29.7053 17.5345 30.3337 15.8794 30.9621 14.2229C31.5905 12.5665 32.2189 10.9113 32.8674 9.25989L33.8351 6.78403C34.1631 5.96084 34.4861 5.13639 34.8204 4.31445L34.8581 4.32828C34.5854 5.17158 34.3026 6.01111 34.0248 6.85315L33.174 9.36671C32.6059 11.0458 32.0203 12.7173 31.4447 14.3938C30.8691 16.0704 30.2834 17.7419 29.6852 19.4097C29.3823 20.2416 29.0844 21.0761 28.7677 21.9031L28.299 23.1461C28.1469 23.5633 27.981 23.9743 27.6442 24.3224L27.4921 24.2721Z" fill="white"/>
<path d="M27.4883 24.286C27.3714 23.8147 27.433 23.3761 27.5096 22.94L27.7258 21.6292C27.864 20.7495 28.0237 19.8823 28.177 19.0101C28.4937 17.2669 28.8293 15.5263 29.161 13.7869C29.4928 12.0475 29.8297 10.3056 30.1765 8.56873L30.6993 5.96217C30.8803 5.09499 31.055 4.2253 31.241 3.35938H31.28C31.1543 4.23912 31.0286 5.11887 30.9029 5.99107L30.502 8.619C30.2343 10.371 29.9478 12.1191 29.6713 13.8698C29.3948 15.6205 29.1083 17.3687 28.8091 19.1144C28.6558 19.9866 28.5075 20.8601 28.3391 21.7297L28.0878 23.0355C28.0111 23.4716 27.9193 23.9052 27.6479 24.3074L27.4883 24.286Z" fill="white"/>
</g>
<path d="M8.45311 23.4062C8.45311 23.6853 8.44557 23.953 8.0434 24.0158C8.46819 24.0158 8.43677 24.2785 8.45688 24.614C8.46819 24.2785 8.49835 24.0372 8.83391 24.0221C8.48704 23.9643 8.49584 23.8059 8.45311 23.4062Z" fill="#196719"/>
<path d="M1.83612 2.44531C1.78459 3.50352 1.74438 4.01755 0.705017 4.12437C1.73055 4.23371 1.77705 4.83697 1.83612 5.75819C1.86754 4.83822 1.98191 4.2312 2.86291 4.12437C1.96431 4.04017 1.89268 3.50604 1.83612 2.44531Z" fill="#196719"/>
<path d="M4.54328 6.06006C4.54328 6.53135 4.53197 6.98379 3.85205 7.08936C4.56967 7.08057 4.51563 7.53301 4.55082 8.09479C4.56967 7.52798 4.61994 7.12078 5.17921 7.08936C4.60109 7.0039 4.61617 6.73495 4.54328 6.06006Z" fill="#104210"/>
<path d="M6.74764 21.1704C6.74764 21.7372 6.73256 22.2814 5.91565 22.4083C6.77906 22.397 6.71371 22.9412 6.75644 23.6236C6.77906 22.9412 6.83938 22.4523 7.51051 22.4197C6.81551 22.3053 6.83184 21.9823 6.74764 21.1704Z" fill="#104210"/>
<path d="M10.6939 16.6509C10.7015 17.3195 10.6776 17.963 9.71112 18.1138C10.7316 18.0999 10.655 18.7422 10.7052 19.549C10.7316 18.7434 10.8033 18.1666 11.5988 18.1263C10.7756 17.9906 10.797 17.6098 10.6939 16.6509Z" fill="#70E000"/>
<path d="M53.0487 5.55762C53.0563 6.22622 53.0324 6.8697 52.0659 7.02051C53.0864 7.00669 53.0098 7.6489 53.0588 8.4545C53.0864 7.6489 53.1568 7.07204 53.9523 7.03308C53.1304 6.89232 53.1518 6.51528 53.0487 5.55762Z" fill="#70E000"/>
<path d="M10.7907 29.3597C10.7907 28.8683 10.7781 28.3945 10.0681 28.2852C10.8221 28.2952 10.7618 27.8214 10.7982 27.2295C10.8184 27.8214 10.8711 28.2462 11.4555 28.2751C10.8535 28.3744 10.8661 28.6547 10.7907 29.3597Z" fill="#2B892B"/>
<path d="M44.3569 27.6646C44.3569 27.9423 44.3632 28.2113 44.7666 28.2728C44.3406 28.2728 44.3733 28.5355 44.3519 28.8711C44.3406 28.5355 44.3117 28.2955 43.9749 28.2791C44.323 28.2226 44.3142 28.063 44.3569 27.6646Z" fill="#104210"/>
<path d="M37.2045 13.6099C37.2045 14.1704 37.2183 14.7083 38.0277 14.834C37.1731 14.8227 37.2384 15.3618 37.1957 16.0355C37.1731 15.3618 37.114 14.878 36.4417 14.8453C37.1367 14.7322 37.1203 14.4129 37.2045 13.6099Z" fill="#70E000"/>
<path d="M45.3573 17.4717C45.3573 17.8198 45.3661 18.1554 45.87 18.2333C45.3384 18.227 45.3786 18.5626 45.3523 18.9874C45.3384 18.5676 45.3007 18.266 44.886 18.2459C45.3145 18.1692 45.3032 17.9706 45.3573 17.4717Z" fill="#196719"/>
<path d="M16.4437 15.6094C16.4437 15.9575 16.4525 16.2931 16.9552 16.371C16.4236 16.3634 16.4638 16.699 16.4374 17.1251C16.4236 16.7053 16.3871 16.4049 15.9724 16.3848C16.401 16.3069 16.3897 16.1083 16.4437 15.6094Z" fill="#196719"/>
<path d="M39.1387 12.5479C39.1387 12.896 39.1475 13.2315 39.6515 13.3107C39.1199 13.3032 39.1601 13.6387 39.1337 14.0585C39.1199 13.6387 39.0822 13.3371 38.6687 13.317C39.0973 13.2491 39.086 13.0506 39.1387 12.5479Z" fill="#196719"/>
<path d="M50.6395 7.80322C50.6395 8.15135 50.6483 8.48691 51.1523 8.56483C50.6207 8.55729 50.6609 8.89285 50.6345 9.3189C50.6207 8.89914 50.583 8.59751 50.1682 8.57866C50.5968 8.50074 50.5855 8.30216 50.6395 7.80322Z" fill="#196719"/>
<path d="M46.5826 25.6045C46.5763 26.17 46.5964 26.7142 47.4133 26.8424C46.5499 26.8299 46.6153 27.3753 46.5726 28.0565C46.5499 27.3753 46.4896 26.8852 45.8185 26.8537C46.5135 26.7381 46.4946 26.4151 46.5826 25.6045Z" fill="#196719"/>
<path d="M47.4837 19.46C47.4837 19.8646 47.4938 20.253 48.0782 20.3397C47.4611 20.3309 47.5076 20.7167 47.4774 21.2069C47.4611 20.7205 47.4184 20.3699 46.937 20.3472C47.4347 20.2693 47.4259 20.0381 47.4837 19.46Z" fill="#70E000"/>
<path d="M19.044 12.6509C19.044 13.0556 19.0541 13.4452 19.6385 13.5306C19.0214 13.5231 19.0679 13.9077 19.0377 14.3991C19.0214 13.9114 18.9787 13.562 18.4973 13.5394C18.995 13.4615 18.9812 13.2315 19.044 12.6509Z" fill="#70E000"/>
<path d="M7.19756 0.124512C7.24657 0.788092 7.2981 1.26441 8.03583 1.37124C7.3069 1.40014 7.24029 1.89909 7.19756 2.58403C7.17368 1.89909 7.10958 1.40391 6.43469 1.37124C7.13221 1.25561 7.16237 0.780551 7.19756 0.124512Z" fill="#70E000"/>
<path d="M48.7618 3.48757C48.753 2.68197 48.7078 1.74316 49.9457 1.72807C48.7166 1.74441 48.8146 0.974005 48.7493 0C48.7166 0.968978 48.6311 1.66523 47.6735 1.71174C48.6638 1.87386 48.6387 2.33259 48.7618 3.48757Z" fill="#104210"/>
<path d="M54.8624 22.0113C54.8561 21.4307 54.8762 20.8727 55.7145 20.7432C54.8347 20.7545 54.8963 20.1978 54.8536 19.499C54.8297 20.1978 54.7681 20.698 54.0781 20.7319C54.792 20.8488 54.7731 21.1806 54.8624 22.0113Z" fill="#70E000"/>
<path d="M0.782975 22.0599C0.782975 21.4805 0.798056 20.9225 1.63507 20.793C0.755326 20.8044 0.816908 20.2463 0.774177 19.5488C0.750298 20.2463 0.688716 20.7478 0 20.7805C0.712595 20.8986 0.693743 21.2291 0.782975 22.0599Z" fill="#70E000"/>
<path d="M10.9365 34.7187L15.5037 45.013C15.5939 45.2156 15.617 45.4417 15.5696 45.6583C15.5221 45.875 15.4066 46.0707 15.24 46.217C15.0733 46.3633 14.8642 46.4525 14.6432 46.4715C14.4223 46.4905 14.2011 46.4383 14.0119 46.3226C13.8716 46.238 13.7539 46.1207 13.6688 45.9807C13.6425 45.9409 13.6198 45.8988 13.6009 45.855L9.03126 35.5607C8.99904 35.4837 8.96167 35.409 8.9194 35.337C8.83079 35.1837 8.72587 35.0405 8.60646 34.9097C8.30832 34.5861 7.92708 34.3505 7.50427 34.2286C7.36346 34.1839 7.21797 34.1556 7.07068 34.1443C6.92087 34.1255 6.7693 34.1255 6.61949 34.1443C6.46349 34.1551 6.3092 34.1833 6.15951 34.2286C6.05415 34.2586 5.95088 34.2956 5.85034 34.3392C5.74991 34.3848 5.65251 34.4368 5.55877 34.495C5.30101 34.6593 5.07424 34.8677 4.8889 35.1108C4.66241 35.4202 4.51205 35.7787 4.45004 36.1571C4.38803 36.5356 4.4161 36.9233 4.53198 37.2888C4.55754 37.3684 4.58775 37.4465 4.62247 37.5226L4.89016 38.1258C4.93063 38.2175 4.95813 38.3144 4.97185 38.4136C5.00277 38.6613 4.94377 38.9118 4.80558 39.1196C4.66739 39.3274 4.45919 39.4787 4.21886 39.546C3.97853 39.6133 3.72203 39.5921 3.49603 39.4862C3.27003 39.3803 3.08954 39.1968 2.98739 38.9691L2.7197 38.3671C2.68325 38.2829 2.64932 38.2 2.61916 38.1158C2.53681 37.8939 2.47456 37.6651 2.43315 37.4321C2.39745 37.2663 2.37268 37.0984 2.359 36.9294C2.3444 36.7677 2.33853 36.6053 2.34141 36.443C2.34769 36.2897 2.359 36.1326 2.38037 35.9805C2.45273 35.39 2.64154 34.8197 2.93587 34.3027C3.00858 34.1725 3.08873 34.0466 3.17591 33.9257C3.26189 33.8034 3.3555 33.6867 3.45617 33.5763C3.55292 33.4619 3.65704 33.3541 3.76786 33.2533C4.4991 32.5684 5.4401 32.1504 6.43852 32.0669C6.58887 32.0525 6.73998 32.0475 6.89096 32.0518C7.04049 32.0518 7.18989 32.0606 7.33837 32.0782C7.48667 32.097 7.62994 32.1209 7.77573 32.1536C8.35722 32.2778 8.90828 32.5162 9.39698 32.8549C9.52266 32.9454 9.64833 33.0421 9.76522 33.1414C9.88755 33.2466 10.0034 33.3591 10.1121 33.4783C10.2299 33.6006 10.3383 33.7316 10.4363 33.8704C10.6353 34.1328 10.8032 34.4175 10.9365 34.7187Z" fill="#196719"/>
<path d="M14.1966 42.0654L14.7081 43.2166L13.6562 45.9476C13.6304 45.9077 13.6081 45.8657 13.5896 45.822L13.1396 44.809L14.1966 42.0654Z" fill="#FAFAFA"/>
<path d="M12.745 38.7944L13.2565 39.9456L12.1983 42.6917L11.688 41.5405L12.745 38.7944Z" fill="#FAFAFA"/>
<path d="M11.2344 35.3896L11.7459 36.5421L10.6877 39.2869L10.1761 38.1357L11.2344 35.3896Z" fill="#FAFAFA"/>
<path d="M9.18079 35.8935L9.03124 35.5555C8.99774 35.4795 8.96041 35.4052 8.91938 35.333C8.82992 35.1803 8.72506 35.0371 8.60645 34.9057L9.39822 32.8496C9.5239 32.9401 9.64957 33.0344 9.7652 33.1362C9.88794 33.2413 10.0042 33.3538 10.1133 33.473L9.18079 35.8935Z" fill="#FAFAFA"/>
<path d="M4.51812 37.2508C4.54465 37.3311 4.57527 37.4099 4.60987 37.4871L4.87756 38.0903C4.91843 38.181 4.94595 38.2771 4.95925 38.3756L2.41301 37.3953C2.37688 37.2296 2.3521 37.0617 2.33886 36.8926C2.32489 36.7309 2.31902 36.5686 2.32127 36.4062L4.51812 37.2508Z" fill="#FAFAFA"/>
<path d="M7.34208 32.0806L7.07187 34.1454C6.92192 34.1291 6.77064 34.1291 6.62069 34.1454C6.4652 34.1601 6.31129 34.1883 6.16071 34.2296L6.44348 32.0755C6.59338 32.0605 6.74403 32.0542 6.89467 32.0567C7.04422 32.0542 7.19504 32.0642 7.34208 32.0806Z" fill="#FAFAFA"/>
<path d="M5.198 34.7751C5.08718 34.8769 4.98658 34.9893 4.89763 35.1107C4.80852 35.2308 4.73188 35.3596 4.66889 35.4953L2.93579 34.3051C3.00783 34.1748 3.08756 34.0489 3.17458 33.9281C3.26157 33.8058 3.35512 33.6883 3.45484 33.5762L5.198 34.7751Z" fill="#FAFAFA"/>
<path opacity="0.15" d="M14.8752 43.5905L15.5036 45.0169C15.5938 45.2195 15.6169 45.4456 15.5695 45.6623C15.522 45.8789 15.4065 46.0747 15.2399 46.221C15.0732 46.3673 14.8641 46.4564 14.6432 46.4754C14.4222 46.4944 14.201 46.4422 14.0118 46.3265C13.8715 46.2419 13.7538 46.1246 13.6687 45.9847C13.6425 45.9448 13.6198 45.9028 13.6008 45.859L9.03118 35.5647C8.99896 35.4877 8.96159 35.4129 8.91932 35.341C8.83071 35.1877 8.72579 35.0444 8.60639 34.9137C8.30825 34.59 7.927 34.3544 7.50419 34.2325C7.36338 34.1878 7.21789 34.1596 7.0706 34.1483C6.92079 34.1294 6.76922 34.1294 6.61941 34.1483C6.46341 34.159 6.30912 34.1873 6.15943 34.2325C6.05408 34.2626 5.9508 34.2995 5.85026 34.3431C5.74983 34.3887 5.65244 34.4408 5.55869 34.4989C5.30093 34.6632 5.07416 34.8717 4.88883 35.1148C4.66233 35.4242 4.51198 35.7827 4.44996 36.1611C4.38795 36.5395 4.41602 36.9272 4.5319 37.2928C4.55746 37.3724 4.58768 37.4504 4.62239 37.5265L4.89008 38.1298C4.93055 38.2214 4.95805 38.3183 4.97177 38.4176C5.00269 38.6652 4.94369 38.9157 4.8055 39.1236C4.66731 39.3314 4.45911 39.4827 4.21878 39.55C3.97845 39.6172 3.72195 39.596 3.49595 39.4901C3.26995 39.3843 3.08946 39.2008 2.98732 38.9731L2.71962 38.3711C2.68318 38.2869 2.64924 38.2039 2.61908 38.1197C2.98103 38.8172 3.47872 39.0384 3.87586 38.86C4.30442 38.6702 4.39365 38.1725 3.99023 37.2651C3.5868 36.3577 3.81176 34.3745 5.5235 33.6204C7.23524 32.8664 8.85146 33.6204 9.39564 34.842L13.543 44.1824C13.9728 45.1527 14.4115 45.7811 14.9582 45.5385C15.5049 45.2959 15.3842 44.7392 14.8752 43.5905Z" fill="#104210"/>
<path d="M44.2009 34.7187L39.6338 45.013C39.5435 45.2156 39.5204 45.4417 39.5679 45.6583C39.6153 45.875 39.7308 46.0707 39.8975 46.2171C40.0642 46.3634 40.2733 46.4525 40.4942 46.4715C40.7152 46.4905 40.9364 46.4383 41.1256 46.3226C41.2659 46.238 41.3836 46.1207 41.4687 45.9807C41.4949 45.9409 41.5176 45.8988 41.5365 45.855L46.1049 35.5607C46.1381 35.484 46.1759 35.4093 46.2181 35.337C46.3067 35.1837 46.4116 35.0405 46.531 34.9097C46.8291 34.5861 47.2104 34.3505 47.6332 34.2286C47.774 34.1839 47.9195 34.1556 48.0668 34.1444C48.2166 34.1255 48.3682 34.1255 48.518 34.1444C48.674 34.1551 48.8283 34.1833 48.9779 34.2286C49.0833 34.2587 49.1866 34.2956 49.2871 34.3392C49.3875 34.3848 49.4849 34.4368 49.5787 34.495C49.8365 34.6593 50.0632 34.8678 50.2485 35.1108C50.475 35.4203 50.6254 35.7787 50.6874 36.1571C50.7494 36.5356 50.7214 36.9233 50.6055 37.2888C50.5799 37.3684 50.5497 37.4465 50.515 37.5226L50.2473 38.1258C50.207 38.2177 50.1791 38.3145 50.1643 38.4136C50.1334 38.6613 50.1924 38.9118 50.3306 39.1196C50.4688 39.3274 50.677 39.4788 50.9173 39.546C51.1577 39.6133 51.4142 39.5921 51.6402 39.4862C51.8662 39.3803 52.0467 39.1969 52.1488 38.9691L52.4165 38.3671C52.4542 38.2829 52.4881 38.2 52.5183 38.1158C52.6006 37.8939 52.6629 37.6651 52.7043 37.4321C52.74 37.2663 52.7648 37.0984 52.7785 36.9294C52.7931 36.7677 52.7989 36.6053 52.796 36.443C52.7885 36.2897 52.7785 36.1326 52.7571 35.9805C52.6847 35.39 52.4959 34.8197 52.2016 34.3027C52.1289 34.1725 52.0487 34.0466 51.9615 33.9257C51.8756 33.8034 51.782 33.6867 51.6813 33.5763C51.5845 33.462 51.4804 33.3541 51.3696 33.2533C50.6381 32.5681 49.6966 32.15 48.6977 32.0669C48.5477 32.0525 48.3971 32.0474 48.2465 32.0518C48.097 32.0518 47.9476 32.0606 47.7991 32.0782C47.6508 32.0971 47.5075 32.1209 47.3617 32.1536C46.7802 32.2778 46.2292 32.5162 45.7405 32.8549C45.6148 32.9454 45.4891 33.0422 45.3722 33.1414C45.2499 33.2466 45.1341 33.3591 45.0254 33.4783C44.9075 33.6006 44.7991 33.7317 44.7011 33.8704C44.5021 34.1328 44.3343 34.4175 44.2009 34.7187Z" fill="#196719"/>
<path d="M40.9408 42.0654L40.4293 43.2129L41.4813 45.9439C41.507 45.904 41.5293 45.8619 41.5479 45.8182L41.9978 44.8052L40.9408 42.0654Z" fill="#FAFAFA"/>
<path d="M42.3924 38.7944L41.8809 39.9456L42.9391 42.6917L43.4506 41.5405L42.3924 38.7944Z" fill="#FAFAFA"/>
<path d="M43.9031 35.3896L43.3916 36.5421L44.4498 39.2869L44.9613 38.1357L43.9031 35.3896Z" fill="#FAFAFA"/>
<path d="M45.9567 35.8935L46.1063 35.5555C46.1398 35.4795 46.1771 35.4052 46.2181 35.333C46.3076 35.1803 46.4124 35.0371 46.531 34.9057L45.7393 32.8496C45.6136 32.9401 45.4879 33.0344 45.3723 33.1362C45.2496 33.2413 45.1333 33.3538 45.0242 33.473L45.9567 35.8935Z" fill="#FAFAFA"/>
<path d="M50.6194 37.2508C50.593 37.3312 50.5615 37.4079 50.5276 37.4871L50.2599 38.0903C50.219 38.181 50.1915 38.2771 50.1782 38.3756L52.7245 37.3953C52.76 37.2295 52.7848 37.0616 52.7986 36.8926C52.8126 36.7309 52.8185 36.5686 52.8162 36.4062L50.6194 37.2508Z" fill="#FAFAFA"/>
<path d="M47.7953 32.0806L48.0655 34.1454C48.2154 34.1291 48.3667 34.1291 48.5167 34.1454C48.6722 34.1601 48.8261 34.1883 48.9767 34.2296L48.6939 32.0755C48.544 32.0605 48.3933 32.0542 48.2427 32.0567C48.0931 32.0542 47.9411 32.0642 47.7953 32.0806Z" fill="#FAFAFA"/>
<path d="M49.9457 34.7751C50.0562 34.8773 50.1567 34.9896 50.2461 35.1107C50.3352 35.2308 50.4118 35.3596 50.4748 35.4953L52.1966 34.3051C52.1241 34.1751 52.0444 34.0492 51.9578 33.9281C51.8708 33.8058 51.7772 33.6883 51.6775 33.5762L49.9457 34.7751Z" fill="#FAFAFA"/>
<path opacity="0.15" d="M40.2622 43.5905L39.6338 45.0169C39.5435 45.2195 39.5204 45.4456 39.5679 45.6623C39.6153 45.8789 39.7308 46.0747 39.8975 46.221C40.0642 46.3673 40.2733 46.4564 40.4942 46.4754C40.7152 46.4944 40.9364 46.4422 41.1256 46.3265C41.2659 46.2419 41.3836 46.1246 41.4687 45.9847C41.4949 45.9448 41.5176 45.9028 41.5365 45.859L46.1049 35.5647C46.1381 35.4879 46.1759 35.4132 46.2181 35.341C46.3067 35.1877 46.4116 35.0444 46.531 34.9137C46.8291 34.59 47.2104 34.3544 47.6332 34.2325C47.774 34.1878 47.9195 34.1596 48.0668 34.1483C48.2166 34.1294 48.3682 34.1294 48.518 34.1483C48.674 34.159 48.8283 34.1873 48.9779 34.2325C49.0833 34.2626 49.1866 34.2995 49.2871 34.3431C49.3875 34.3887 49.4849 34.4408 49.5787 34.4989C49.8365 34.6632 50.0632 34.8717 50.2485 35.1148C50.475 35.4242 50.6254 35.7827 50.6874 36.1611C50.7494 36.5395 50.7214 36.9272 50.6055 37.2928C50.5799 37.3724 50.5497 37.4504 50.515 37.5265L50.2473 38.1298C50.207 38.2216 50.1791 38.3184 50.1643 38.4176C50.1334 38.6652 50.1924 38.9157 50.3306 39.1236C50.4688 39.3314 50.677 39.4827 50.9173 39.55C51.1577 39.6172 51.4142 39.596 51.6402 39.4901C51.8662 39.3843 52.0467 39.2008 52.1488 38.9731L52.4165 38.3711C52.4542 38.2869 52.4881 38.2039 52.5183 38.1197C52.1563 38.8172 51.6587 39.0384 51.2615 38.86C50.8317 38.6702 50.7437 38.1725 51.1471 37.2651C51.5506 36.3577 51.3256 34.3745 49.6139 33.6204C47.9021 32.8664 46.2859 33.6204 45.7417 34.842L41.5944 44.1824C41.1633 45.1527 40.7259 45.7811 40.1792 45.5385C39.6325 45.2959 39.7595 44.7392 40.2622 43.5905Z" fill="#104210"/>
<path d="M27.5687 39.6314V24.4746L41.5152 32.5268L28.3894 40.1052L27.5687 39.6314Z" fill="#196719"/>
<path d="M27.5688 39.6314V24.4746L13.6223 32.5268L26.7481 40.1052L27.5688 39.6314Z" fill="#196719"/>
<path opacity="0.1" d="M27.5688 39.6314V24.4746L13.6223 32.5268L26.7481 40.1052L27.5688 39.6314Z" fill="#104210"/>
<path d="M27.5688 40.579L26.7481 40.1052L27.5688 39.6313L28.3895 40.1052L27.5688 40.579Z" fill="#196719"/>
<path opacity="0.45" d="M27.5688 40.579L26.7481 40.1052L27.5688 39.6313L28.3895 40.1052L27.5688 40.579Z" fill="#104210"/>
<path d="M17.6062 32.5934C17.7359 32.5897 17.8657 32.5952 17.9946 32.6097C18.5123 32.6656 18.9939 32.9013 19.3557 33.2758C19.4068 33.098 19.4995 32.935 19.6263 32.8004C19.7531 32.6657 19.9102 32.5633 20.0846 32.5016C20.2413 32.4341 20.4109 32.4015 20.5814 32.4061C20.752 32.4106 20.9196 32.4522 21.0725 32.528C21.0142 32.2407 21.0231 31.9438 21.0983 31.6604C21.1735 31.3771 21.313 31.1149 21.506 30.8942C21.6808 30.6872 21.9013 30.5236 22.15 30.4163C22.3988 30.309 22.6691 30.261 22.9396 30.276C23.2101 30.2909 23.4734 30.3685 23.7088 30.5027C23.9442 30.6368 24.1453 30.8237 24.2961 31.0488C24.2232 30.6994 24.4218 30.3324 24.7096 30.1238C25.0119 29.9285 25.3639 29.8238 25.7238 29.8222C26.5181 29.7832 27.4406 30.1125 27.6643 30.8741C27.839 30.4567 28.125 30.0953 28.4911 29.8293C28.8572 29.5633 29.2893 29.403 29.7402 29.3658C30.1912 29.3286 30.6437 29.4159 31.0485 29.6183C31.4532 29.8207 31.7946 30.1303 32.0354 30.5134C32.2774 30.444 32.5337 30.4415 32.777 30.5063C33.0203 30.5711 33.2414 30.7007 33.4168 30.8813C33.5923 31.0619 33.7154 31.2867 33.7731 31.5318C33.8308 31.7768 33.821 32.033 33.7446 32.2729C34.5439 31.8204 35.7177 32.4199 35.8183 33.3324C36.1004 33.1037 36.4307 32.942 36.7844 32.8595C37.138 32.7769 37.5058 32.7756 37.86 32.8557C38.2142 32.9358 38.5457 33.0952 38.8294 33.3218C39.1131 33.5485 39.3418 33.8366 39.4981 34.1643C40.0612 35.3457 39.5848 36.7445 39.0281 37.9347C38.7446 38.5672 38.4047 39.1729 38.0126 39.7444C36.5246 41.8219 34.0022 42.9404 31.4861 43.3828C27.4944 44.0701 23.3888 43.2936 19.9238 41.196C18.3591 40.2409 15.9184 38.7855 15.3378 37.0487C14.8313 35.5091 15.4798 32.6751 17.6062 32.5934Z" fill="#F3FFF3"/>
<path d="M27.5687 53.8419V40.5791L41.5152 32.5269L39.8751 46.7373L27.5687 53.8419Z" fill="#196719"/>
<path opacity="0.45" d="M27.5687 53.8419V40.5791L41.5152 32.5269L39.8751 46.7373L27.5687 53.8419Z" fill="white"/>
<path d="M36.0696 35.6714L33.6402 37.0626L33.4165 50.4662L35.494 49.266L36.0696 35.6714Z" fill="#70E000"/>
<path d="M27.5688 53.8419V40.5791L13.6223 32.5269L15.2624 46.7373L27.5688 53.8419Z" fill="#196719"/>
<path opacity="0.3" d="M27.5688 53.8419V40.5791L13.6223 32.5269L15.2624 46.7373L27.5688 53.8419Z" fill="white"/>
<path d="M19.0679 35.6714L21.4973 37.0626L21.721 50.4662L19.6435 49.266L19.0679 35.6714Z" fill="#70E000"/>
<path opacity="0.1" d="M19.0679 35.6714L21.4973 37.0626L21.721 50.4662L19.6435 49.266L19.0679 35.6714Z" fill="#104210"/>
<path d="M42.5219 21.771V25.1693L36.0696 28.8919L33.6415 30.292L33.1727 30.5634L27.5687 33.8009V30.4013L33.6415 26.8961L35.5631 25.7877L36.0696 25.4961V25.4923L42.5219 21.771Z" fill="#196719"/>
<g opacity="0.45">
<path d="M42.5219 21.771V25.1693L36.0696 28.8919L33.6415 30.292L33.1727 30.5634L27.5687 33.8009V30.4013L33.6415 26.8961L35.5631 25.7877L36.0696 25.4961V25.4923L42.5219 21.771Z" fill="white"/>
</g>
<path d="M21.496 26.8961L19.4563 25.7198L19.0679 25.4923L12.6131 21.771V25.1643L13.0002 25.388L19.0642 28.8869L21.4923 30.2895L27.5688 33.8009V30.4013L21.496 26.8961Z" fill="#196719"/>
<path opacity="0.3" d="M21.496 26.8961L19.4563 25.7198L19.0679 25.4923L12.6131 21.771V25.1643L13.0002 25.388L19.0642 28.8869L21.4923 30.2895L27.5688 33.8009V30.4013L21.496 26.8961Z" fill="white"/>
<path d="M12.6156 21.77L27.5688 13.1372L42.5207 21.77L27.5688 30.4029L12.6156 21.77Z" fill="#196719"/>
<g opacity="0.6">
<path d="M12.6156 21.77L27.5688 13.1372L42.5207 21.77L27.5688 30.4029L12.6156 21.77Z" fill="white"/>
</g>
<path d="M21.496 26.8965V30.2948L19.0679 28.8923V25.4927L21.496 26.8965Z" fill="#70E000"/>
<path d="M21.496 26.8965V30.2948L19.0679 28.8923V25.4927L21.496 26.8965Z" fill="#196719"/>
<path d="M21.496 26.8965V30.2948L19.0679 28.8923V25.4927L21.496 26.8965Z" fill="#2B892B"/>
<path opacity="0.1" d="M21.496 26.8965V30.2948L19.0679 28.8923V25.4927L21.496 26.8965Z" fill="#104210"/>
<path d="M36.0696 25.4927V28.8923L33.6415 30.2923V26.8965L35.0679 26.0721L36.0696 25.4927Z" fill="#196719"/>
<path d="M36.0696 25.4927V28.8923L33.6415 30.2923V26.8965L35.0679 26.0721L36.0696 25.4927Z" fill="#70E000"/>
<path d="M19.0667 25.4951L34.0186 16.8623L36.4479 18.2649L21.496 26.8964L19.0667 25.4951Z" fill="#FAFAFA"/>
<path opacity="0.1" d="M27.369 23.5055L24.9409 22.103L27.369 20.7017L29.7983 22.103L27.369 23.5055Z" fill="#104210"/>
<path d="M33.6403 26.8964L18.6884 18.2649L21.1177 16.8623L36.0696 25.4951L33.6403 26.8964Z" fill="#FAFAFA"/>
<path d="M33.962 17.4931C33.7823 18.4885 32.4903 21.4193 27.9483 21.956L27.4644 21.5726C27.4644 21.5726 32.6914 19.9853 31.3102 15.4019L33.962 17.4931Z" fill="#2B892B"/>
<path d="M27.4582 22.5215C27.4582 22.5215 27.3187 19.7189 28.3002 18.0109C29.2818 16.303 31.3102 15.4019 31.3102 15.4019C32.3613 15.856 33.2754 16.5769 33.962 17.4931C32.6887 17.5908 31.4532 17.9707 30.345 18.6054C28.6056 19.6397 27.9458 21.956 27.9458 21.956L27.4582 22.5215Z" fill="#70E000"/>
<path d="M30.3877 18.5804L28.4937 17.7007C28.7776 17.2953 29.1106 16.9268 29.4853 16.6035L31.9913 17.8766C31.4322 18.0507 30.8943 18.2868 30.3877 18.5804Z" fill="#FAFAFA"/>
<path d="M34.4308 22.6357C34.4308 22.6357 31.407 23.6047 27.4582 22.5213L27.7246 21.9671C27.7246 21.9671 29.7682 22.2185 31.182 21.7962C32.5959 21.3739 33.7144 19.2437 33.7144 19.2437L34.4308 22.6357Z" fill="#2B892B"/>
<path d="M27.4582 22.5214C27.4582 22.5214 27.4582 21.751 28.4636 20.6916C29.792 19.3091 32.5142 19.1683 33.7107 19.2437C34.2169 19.5979 34.5714 20.1295 34.7035 20.733C34.8845 21.477 34.427 22.6358 34.427 22.6358C34.0137 22.178 33.5099 21.811 32.9474 21.5579C32.385 21.3048 31.7762 21.1711 31.1594 21.1654C29.1624 21.1478 28.0878 22.2889 28.0878 22.2889L27.4582 22.5214Z" fill="#70E000"/>
<path d="M31.4371 19.3732C31.8857 19.2988 32.3387 19.2538 32.7932 19.2388C33.1451 19.572 33.4009 19.9938 33.5336 20.46C33.6662 20.9262 33.671 21.4194 33.5473 21.8881C33.1016 21.6029 32.6095 21.3979 32.0932 21.2823C32.0891 20.5913 31.8587 19.9207 31.4371 19.3732Z" fill="#FAFAFA"/>
<path d="M31.9473 27.0006C31.9473 27.0006 30.0622 26.7756 28.8733 25.4258C28.1247 24.5886 27.6052 23.5721 27.3651 22.4749L27.9445 21.8779C27.9445 21.8779 28.549 23.4615 30.2067 24.1841C31.5477 24.771 34.0449 24.7648 34.0449 24.7648L31.9473 27.0006Z" fill="#2B892B"/>
<path d="M27.3702 22.476L27.9496 21.879C27.9496 21.879 30.1904 21.4316 31.3994 21.879C32.6084 22.3264 34.0186 24.1928 34.0387 24.7696C33.727 25.8115 33.0018 26.5367 31.9423 27.0054C31.9423 27.0054 32.058 24.9682 30.5046 23.7743C29.5976 23.064 28.5137 22.6151 27.3702 22.476Z" fill="#70E000"/>
<path d="M29.7053 23.2527L31.6734 22.0186C32.115 22.2663 32.5157 22.5809 32.8611 22.9511L30.9257 24.1589C30.7985 24.018 30.6588 23.8888 30.5084 23.773C30.2542 23.5796 29.9858 23.4056 29.7053 23.2527Z" fill="#FAFAFA"/>
<path d="M22.1495 17.805C22.0653 18.3466 22.5341 19.8158 23.8927 20.7245C25.2513 21.6331 27.4796 21.8907 27.4796 21.8907L27.785 21.6859C27.785 21.6859 25.5227 20.4178 24.7498 19.1924C23.9769 17.9671 24.3967 15.9248 24.3967 15.9248L22.1495 17.805Z" fill="#2B892B"/>
<path d="M27.4795 21.8904C27.4795 21.8904 26.8298 19.9851 25.1306 18.903C23.4315 17.8209 22.1495 17.8046 22.1495 17.8046C22.3806 17.3572 22.6982 16.9602 23.084 16.6366C23.4697 16.313 23.9159 16.0692 24.3967 15.9194C24.3967 15.9194 26.3246 16.9249 27.1214 18.5788C27.5888 19.5456 27.8164 20.6108 27.7849 21.6843L27.4795 21.8904Z" fill="#70E000"/>
<path d="M24.271 18.4281C23.9009 18.2466 23.5157 18.0977 23.1198 17.9832C23.6723 17.3139 24.3641 16.7731 25.1469 16.3984C25.5677 16.6968 25.9568 17.0375 26.3082 17.4152C25.5529 17.5709 24.851 17.9199 24.271 18.4281Z" fill="#FAFAFA"/>
<path d="M20.4403 21.4018C21.1265 22.2388 23.4214 23.5735 27.2546 22.2011L27.472 21.7335C27.472 21.7335 25.2663 22.0163 23.3963 21.1755C21.5262 20.3348 21.3301 19.0918 21.3301 19.0918L20.4403 21.4018Z" fill="#2B892B"/>
<path d="M27.472 21.7333C27.472 21.7333 26.5483 20.0543 24.6555 19.3731C22.7628 18.6919 21.3301 19.0916 21.3301 19.0916C21.3301 19.0916 20.2241 20.0518 20.4403 21.4016C21.42 20.8705 22.536 20.6443 23.6451 20.7518C25.5127 20.929 27.0007 21.6944 27.2546 22.2009L27.472 21.7333Z" fill="#70E000"/>
<path d="M22.3229 20.7858C21.8729 20.8489 21.432 20.9654 21.0096 21.1327C21.1738 20.3113 21.5872 19.5604 22.1935 18.9824C22.4724 18.9733 22.7515 18.9825 23.0292 19.01C22.6283 19.4662 22.4247 20.2027 22.3229 20.7858Z" fill="#FAFAFA"/>
<path d="M23.3121 26.9035C24.2898 26.8784 27.2709 25.4017 27.4594 22.4684L27.0962 21.7847C27.0962 21.7847 26.4578 23.4361 25.1206 24.2417C23.7834 25.0473 21.775 25.134 21.775 25.134L23.3121 26.9035Z" fill="#2B892B"/>
<path d="M27.472 21.7334C27.472 21.7334 25.7326 21.7786 24.5587 22.304C22.4876 23.2302 21.8215 24.2356 21.7725 25.1342C22.062 25.8865 22.607 26.513 23.312 26.9038C23.312 26.9038 24.0724 24.6906 25.0916 23.7267C26.4527 22.4385 27.4569 22.4699 27.4569 22.4699L27.472 21.7334Z" fill="#70E000"/>
<path d="M23.5471 26.3007C22.8954 25.8424 22.3313 25.2707 21.8818 24.6128C22.0201 24.1981 22.3041 23.7708 22.8144 23.3447C23.3547 23.7823 23.9951 24.0789 24.6782 24.2081C24.1755 24.8642 23.7808 25.7288 23.5471 26.3007Z" fill="#FAFAFA"/>
<path d="M28.4309 21.0108C28.1042 20.6036 28.4435 19.514 29.1649 18.9887C30.1364 18.2811 31.3856 18.3339 31.3856 18.3339C31.33 19.1156 31.0576 19.8664 30.5989 20.5018C29.8524 21.4821 28.7187 21.3678 28.4309 21.0108Z" fill="#196719"/>
<path d="M28.4309 21.0108C28.1042 20.6036 28.4435 19.514 29.1649 18.9887C30.1364 18.2811 31.3856 18.3339 31.3856 18.3339C31.3856 18.3339 30.1251 20.4654 28.4309 21.0108Z" fill="#104210"/>
<path d="M26.6161 21.3642C26.2919 21.7714 25.1532 21.6822 24.4796 21.0953C23.5747 20.3035 23.3485 19.0731 23.3485 19.0731C24.123 18.9549 24.9151 19.055 25.6359 19.3622C26.7619 19.8737 26.9002 21.0048 26.6161 21.3642Z" fill="#196719"/>
<path d="M26.6161 21.3639C26.2919 21.7711 25.1532 21.6818 24.4796 21.0949C23.5747 20.3031 23.3485 19.0728 23.3485 19.0728C23.3485 19.0728 25.7113 19.8369 26.6161 21.3639Z" fill="#104210"/>
<path d="M27.2696 22.7566C27.3272 22.7234 27.379 22.681 27.4229 22.631C27.4573 22.5917 27.4884 22.5496 27.5159 22.5053C27.5925 22.3681 27.6168 22.2078 27.5845 22.0541C27.5521 21.9003 27.4652 21.7635 27.3399 21.6687C27.2145 21.574 27.0592 21.5278 26.9024 21.5387C26.7457 21.5495 26.5982 21.6167 26.4871 21.7278C26.376 21.8389 26.3088 21.9864 26.2979 22.1432C26.2871 22.2999 26.3333 22.4553 26.428 22.5806C26.5227 22.706 26.6596 22.7928 26.8133 22.8252C26.9671 22.8575 27.1274 22.8332 27.2646 22.7566H27.2696Z" fill="#196719"/>
<path opacity="0.15" d="M26.508 21.9735C26.4464 22.0991 26.5771 22.1884 26.7732 22.1155C26.9692 22.0426 27.1188 21.8767 26.9541 21.7586C27.2608 21.7183 27.6177 22.0966 27.5486 22.4385C27.5883 22.3394 27.603 22.2321 27.5914 22.1259C27.5798 22.0198 27.5422 21.9182 27.482 21.8301C27.4218 21.7419 27.3408 21.67 27.2461 21.6206C27.1515 21.5712 27.0462 21.5459 26.9394 21.5469C26.8327 21.5479 26.7278 21.5752 26.6341 21.6264C26.5404 21.6775 26.4608 21.751 26.4022 21.8402C26.3437 21.9295 26.308 22.0318 26.2984 22.1381C26.2888 22.2444 26.3055 22.3515 26.3471 22.4498C26.3243 22.3634 26.3274 22.2721 26.356 22.1875C26.3846 22.1028 26.4375 22.0284 26.508 21.9735Z" fill="#104210"/>
<path opacity="0.2" d="M26.5093 22.5217C26.5028 22.4978 26.5035 22.4725 26.5113 22.4491C26.5192 22.4256 26.5337 22.4049 26.5532 22.3897C26.6136 22.3482 26.694 22.3897 26.7631 22.4136C26.9448 22.4734 27.1417 22.4681 27.3199 22.3985C27.3419 22.3894 27.3652 22.3839 27.389 22.3822C27.4009 22.3815 27.4128 22.3843 27.4231 22.3904C27.4334 22.3964 27.4416 22.4054 27.4468 22.4161C27.455 22.4393 27.455 22.4646 27.4468 22.4878C27.4235 22.5362 27.39 22.579 27.3488 22.6134C27.2422 22.7016 27.11 22.7532 26.9718 22.7605C26.8353 22.7719 26.6998 22.729 26.5947 22.6411C26.555 22.6107 26.5252 22.5691 26.5093 22.5217Z" fill="white"/>
<path opacity="0.2" d="M26.7254 22.4686C26.7037 22.4511 26.6776 22.4399 26.65 22.4359C26.634 22.4315 26.617 22.4315 26.601 22.4359C26.4401 22.5013 26.748 22.774 26.7945 22.6232C26.8022 22.5968 26.7995 22.5685 26.787 22.544C26.7737 22.5137 26.7524 22.4876 26.7254 22.4686Z" fill="white"/>
<path d="M28.6999 22.5569C28.7574 22.523 28.8095 22.4806 28.8544 22.4313C28.8889 22.392 28.92 22.35 28.9474 22.3056C29.024 22.1684 29.0483 22.0081 29.016 21.8544C28.9836 21.7006 28.8968 21.5638 28.7714 21.469C28.6461 21.3743 28.4907 21.3281 28.3339 21.339C28.1772 21.3498 28.0297 21.417 27.9186 21.5281C27.8075 21.6392 27.7403 21.7867 27.7295 21.9434C27.7186 22.1002 27.7648 22.2556 27.8595 22.3809C27.9543 22.5063 28.0911 22.5931 28.2449 22.6255C28.3986 22.6578 28.5589 22.6335 28.6961 22.5569H28.6999Z" fill="#196719"/>
<path opacity="0.15" d="M27.9458 21.766C27.8829 21.8917 28.0124 21.981 28.2097 21.9093C28.407 21.8377 28.5566 21.6718 28.3919 21.5536C28.6998 21.5134 29.0543 21.8942 28.9826 22.2361C29.0202 22.1453 29.0365 22.0471 29.0302 21.9491C29.0238 21.851 28.9951 21.7557 28.9462 21.6705C28.8634 21.5287 28.7301 21.4234 28.5729 21.3759C28.4157 21.3284 28.2463 21.3422 28.0989 21.4145C27.9514 21.4868 27.8368 21.6122 27.7781 21.7656C27.7194 21.9189 27.7209 22.0888 27.7824 22.2411C27.7598 22.1546 27.7633 22.0634 27.7923 21.9789C27.8214 21.8944 27.8748 21.8203 27.9458 21.766Z" fill="#104210"/>
<path opacity="0.2" d="M27.9458 22.3167C27.9405 22.2938 27.9417 22.2699 27.9493 22.2477C27.9568 22.2255 27.9704 22.2059 27.9886 22.191C28.0501 22.1495 28.1306 22.191 28.1997 22.2149C28.381 22.2759 28.5778 22.2719 28.7565 22.2036C28.7785 22.1944 28.8018 22.1889 28.8256 22.1872C28.8373 22.1874 28.8488 22.1906 28.859 22.1966C28.8691 22.2025 28.8775 22.211 28.8834 22.2212C28.8915 22.2443 28.8915 22.2696 28.8834 22.2928C28.8595 22.3408 28.8261 22.3836 28.7854 22.4185C28.6783 22.5055 28.5462 22.5562 28.4083 22.563C28.271 22.5725 28.1355 22.5273 28.0313 22.4373C27.9908 22.4072 27.9608 22.3649 27.9458 22.3167Z" fill="white"/>
<path opacity="0.2" d="M28.1557 22.265C28.1343 22.2478 28.1087 22.2366 28.0816 22.2323C28.0651 22.2279 28.0478 22.2279 28.0313 22.2323C27.8704 22.2964 28.1771 22.5704 28.2248 22.4195C28.2324 22.3931 28.2297 22.3649 28.2173 22.3404C28.204 22.3101 28.1827 22.284 28.1557 22.265Z" fill="white"/>
<path d="M27.8667 21.3839C27.924 21.3502 27.9757 21.3078 28.02 21.2582C28.0547 21.2191 28.0858 21.1771 28.113 21.1325C28.1893 20.9955 28.2135 20.8356 28.1812 20.6822C28.1488 20.5288 28.0621 20.3923 27.937 20.2978C27.8119 20.2033 27.6568 20.1572 27.5004 20.1681C27.344 20.1789 27.1968 20.246 27.0859 20.3568C26.9751 20.4677 26.908 20.6149 26.8972 20.7713C26.8863 20.9277 26.9324 21.0827 27.0269 21.2079C27.1214 21.333 27.2579 21.4197 27.4113 21.452C27.5647 21.4844 27.7247 21.4602 27.8616 21.3839H27.8667Z" fill="#196719"/>
<path opacity="0.15" d="M27.105 20.5975C27.0435 20.7232 27.1742 20.8124 27.3702 20.7395C27.5663 20.6666 27.7158 20.4995 27.5512 20.3826C27.8578 20.3411 28.2148 20.7194 28.1456 21.0625C28.1854 20.9634 28.2001 20.8561 28.1885 20.75C28.1769 20.6438 28.1393 20.5422 28.0791 20.4541C28.0188 20.3659 27.9378 20.294 27.8432 20.2446C27.7486 20.1952 27.6432 20.1699 27.5365 20.1709C27.4297 20.1719 27.3249 20.1992 27.2312 20.2504C27.1375 20.3015 27.0578 20.375 26.9993 20.4643C26.9407 20.5535 26.9051 20.6558 26.8955 20.7621C26.8858 20.8684 26.9026 20.9755 26.9442 21.0738C26.9214 20.9874 26.9245 20.8962 26.9531 20.8115C26.9817 20.7268 27.0345 20.6524 27.105 20.5975Z" fill="#104210"/>
<path opacity="0.2" d="M27.1076 21.1492C27.101 21.1254 27.1015 21.1002 27.1091 21.0768C27.1167 21.0533 27.131 21.0326 27.1503 21.0172C27.2106 20.9757 27.2911 21.0172 27.3602 21.0398C27.5417 21.1008 27.739 21.0955 27.9169 21.0247C27.939 21.016 27.9624 21.0109 27.9861 21.0097C27.9978 21.009 28.0095 21.0117 28.0197 21.0175C28.03 21.0233 28.0384 21.0319 28.0439 21.0423C28.0527 21.0654 28.0527 21.0909 28.0439 21.114C28.0203 21.1622 27.9869 21.205 27.9458 21.2397C27.8389 21.3274 27.7069 21.3789 27.5688 21.3867C27.4316 21.3951 27.2965 21.3501 27.1918 21.261C27.1534 21.2328 27.1241 21.1939 27.1076 21.1492Z" fill="white"/>
<path opacity="0.2" d="M27.3174 21.0938C27.2954 21.077 27.2694 21.0662 27.242 21.0624C27.2259 21.058 27.209 21.058 27.193 21.0624C27.0321 21.1265 27.34 21.4004 27.3878 21.2484C27.3943 21.2222 27.3912 21.1945 27.379 21.1705C27.3657 21.1398 27.3445 21.1133 27.3174 21.0938Z" fill="white"/>
<path d="M14.4454 49.2042C14.4454 49.2042 14.6113 48.6688 14.4065 48.2113C14.2922 47.9458 14.094 47.725 13.8422 47.5829L13.9201 47.4108L14.0043 47.2248C14.9883 47.6093 15.8128 46.624 15.8128 46.624C15.8128 46.624 16.2087 47.1607 16.6925 47.3404C17.0112 47.4687 17.359 47.507 17.698 47.451C17.5807 47.7418 17.5604 48.0627 17.6402 48.3659C17.7859 48.9491 18.4055 49.4241 18.4055 49.4241C18.3641 49.4241 17.6816 49.3412 17.1915 49.5196C16.8424 49.6692 16.533 49.8981 16.2879 50.1883C16.1302 49.849 15.8652 49.5712 15.5338 49.3977C15.1919 49.2465 14.8185 49.1801 14.4454 49.2042Z" fill="#196719"/>
<path d="M13.9201 47.4074L14.0043 47.2214C14.9884 47.6059 15.8128 46.6206 15.8128 46.6206C15.8128 46.6206 16.2087 47.1573 16.6926 47.337C17.0112 47.4653 17.359 47.5036 17.698 47.4476C17.5799 47.7395 17.5596 48.0618 17.6402 48.3663C17.786 48.9494 18.4056 49.4245 18.4056 49.4245L13.9201 47.4074Z" fill="#104210"/>
<path d="M15.9661 46.6781C15.9661 46.6781 15.4069 46.6316 15.0047 46.9294C14.7682 47.0978 14.5937 47.3394 14.5083 47.6169L14.3235 47.5779L14.1237 47.5352C14.2871 46.4921 13.1484 45.9014 13.1484 45.9014C13.1484 45.9014 13.5871 45.3987 13.6587 44.8884C13.7158 44.5497 13.6784 44.2018 13.5506 43.883C13.8621 43.9343 14.1818 43.8832 14.4618 43.7372C14.9997 43.4708 15.3302 42.7632 15.3302 42.7632C15.3302 42.8059 15.4056 43.4896 15.6846 43.9295C15.9058 44.2379 16.1958 44.4905 16.5317 44.6672C16.2349 44.8929 16.02 45.2093 15.9196 45.5683C15.8458 45.9366 15.8617 46.3173 15.9661 46.6781Z" fill="#196719"/>
<path d="M14.3235 47.5779L14.1237 47.5352C14.2871 46.4921 13.1484 45.9014 13.1484 45.9014C13.1484 45.9014 13.5871 45.3987 13.6587 44.8884C13.7158 44.5497 13.6784 44.2018 13.5506 43.883C13.8621 43.9343 14.1818 43.8832 14.4618 43.7372C14.9997 43.4708 15.3302 42.7632 15.3302 42.7632L14.3235 47.5779Z" fill="#104210"/>
<path d="M13.0102 45.7546C13.0102 45.7546 13.0906 46.3088 13.4727 46.6343C13.6897 46.8266 13.964 46.9419 14.2532 46.9623V47.1508V47.3557C13.1987 47.4324 12.8783 48.6753 12.8783 48.6753C12.8783 48.6753 12.2901 48.3624 11.7761 48.4076C11.4338 48.429 11.1039 48.5438 10.8222 48.7394C10.8021 48.4243 10.6799 48.1243 10.474 47.8848C10.097 47.4223 9.3291 47.2564 9.3291 47.2564C9.36932 47.2426 10.0191 47.0201 10.3848 46.6481C10.6355 46.3627 10.8163 46.0228 10.9126 45.6553C11.1991 45.8936 11.5558 46.0313 11.9281 46.0474C12.3074 46.0399 12.679 45.9393 13.0102 45.7546Z" fill="#196719"/>
<path d="M14.2569 47.1504V47.3552C13.2025 47.4319 12.882 48.6749 12.882 48.6749C12.882 48.6749 12.2938 48.3619 11.7798 48.4072C11.4375 48.4286 11.1076 48.5433 10.8259 48.739C10.8058 48.4238 10.6836 48.1238 10.4778 47.8844C10.1007 47.4219 9.33282 47.256 9.33282 47.256L14.2569 47.1504Z" fill="#104210"/>
<path d="M15.4848 47.0765C15.4259 47.032 15.3607 46.9969 15.2912 46.9721C15.2347 46.9539 15.1767 46.9409 15.1178 46.9332C14.9429 46.916 14.7676 46.9627 14.6244 47.0646C14.4813 47.1666 14.3798 47.3169 14.3389 47.4878C14.2979 47.6588 14.3202 47.8387 14.4017 47.9945C14.4831 48.1503 14.6182 48.2713 14.7819 48.3352C14.9456 48.3991 15.127 48.4016 15.2924 48.3422C15.4578 48.2829 15.5962 48.1656 15.6819 48.0121C15.7676 47.8587 15.7948 47.6794 15.7586 47.5074C15.7224 47.3354 15.6251 47.1823 15.4848 47.0765Z" fill="#196719"/>
<path opacity="0.15" d="M15.0085 48.2063C15.1694 48.2138 15.1995 48.0417 15.0387 47.872C14.8778 47.7023 14.6403 47.6206 14.5912 47.8418C14.414 47.544 14.6465 47.0098 15.0299 46.9307C14.9104 46.9334 14.7935 46.9656 14.6894 47.0243C14.5853 47.083 14.4973 47.1664 14.433 47.2672C14.3688 47.3679 14.3305 47.483 14.3213 47.6021C14.3121 47.7213 14.3323 47.8408 14.3803 47.9503C14.4283 48.0597 14.5025 48.1557 14.5963 48.2296C14.6901 48.3036 14.8008 48.3533 14.9184 48.3744C15.036 48.3955 15.157 48.3873 15.2707 48.3505C15.3844 48.3137 15.4873 48.2495 15.5703 48.1636C15.4911 48.2249 15.3957 48.2617 15.2958 48.2693C15.1959 48.2768 15.096 48.255 15.0085 48.2063Z" fill="#104210"/>
<path opacity="0.2" d="M15.5765 47.9625C15.5552 47.9802 15.529 47.991 15.5014 47.9935C15.4738 47.9959 15.4461 47.99 15.4219 47.9764C15.3515 47.9324 15.3566 47.8318 15.3528 47.7501C15.3353 47.5362 15.2432 47.3351 15.0926 47.1821C15.0733 47.1638 15.0575 47.142 15.0461 47.118C15.0404 47.1061 15.0381 47.0928 15.0397 47.0796C15.0412 47.0665 15.0465 47.0541 15.0549 47.0438C15.0754 47.0255 15.1016 47.0148 15.1291 47.0137C15.1893 47.0164 15.2483 47.0313 15.3025 47.0577C15.4405 47.1301 15.5519 47.2445 15.6205 47.3844C15.6913 47.5204 15.7066 47.6785 15.6632 47.8256C15.6487 47.8789 15.6184 47.9266 15.5765 47.9625Z" fill="white"/>
<path opacity="0.2" d="M15.427 47.7638C15.4194 47.794 15.4194 47.8255 15.427 47.8556C15.4314 47.8739 15.4405 47.8908 15.4534 47.9046C15.5904 48.0428 15.7374 47.6055 15.5602 47.6231C15.5299 47.6274 15.5022 47.6425 15.4823 47.6658C15.4553 47.6928 15.4362 47.7267 15.427 47.7638Z" fill="white"/>
<path d="M14.6767 45.7657C14.6216 45.7245 14.5606 45.6918 14.4957 45.6689C14.442 45.6517 14.3869 45.639 14.3311 45.6312C14.1661 45.6151 14.0008 45.6592 13.8659 45.7555C13.7309 45.8517 13.6353 45.9936 13.5969 46.1549C13.5584 46.3161 13.5796 46.4858 13.6565 46.6327C13.7335 46.7795 13.861 46.8935 14.0155 46.9536C14.17 47.0138 14.341 47.0159 14.497 46.9597C14.653 46.9035 14.7833 46.7927 14.8639 46.6479C14.9445 46.503 14.97 46.3339 14.9356 46.1717C14.9012 46.0095 14.8092 45.8653 14.6767 45.7657Z" fill="#196719"/>
<path opacity="0.15" d="M14.2293 46.8314C14.3801 46.8314 14.409 46.6755 14.2569 46.5147C14.1049 46.3538 13.8799 46.2796 13.8359 46.487C13.6688 46.2067 13.8887 45.7028 14.2494 45.6299C14.1366 45.6314 14.026 45.6608 13.9273 45.7154C13.8286 45.77 13.7449 45.8481 13.6836 45.9428C13.6223 46.0375 13.5854 46.1459 13.5761 46.2583C13.5668 46.3707 13.5854 46.4836 13.6303 46.5871C13.6751 46.6906 13.7448 46.7814 13.8332 46.8515C13.9216 46.9216 14.0259 46.9687 14.1369 46.9888C14.2479 47.0089 14.3621 47.0012 14.4694 46.9665C14.5768 46.9318 14.6739 46.8711 14.7521 46.7899C14.6782 46.8465 14.5896 46.8805 14.4968 46.8878C14.4041 46.8952 14.3111 46.8756 14.2293 46.8314Z" fill="#104210"/>
<path opacity="0.2" d="M14.7634 46.6063C14.7431 46.6225 14.7184 46.6324 14.6924 46.6346C14.6665 46.6368 14.6405 46.6313 14.6176 46.6188C14.5523 46.5761 14.556 46.4831 14.5535 46.4052C14.5347 46.2032 14.4458 46.0143 14.3022 45.871C14.2846 45.8532 14.2698 45.8329 14.2582 45.8107C14.253 45.7993 14.2511 45.7867 14.2527 45.7743C14.2542 45.7619 14.2592 45.7501 14.267 45.7403C14.2864 45.7229 14.3113 45.7126 14.3374 45.7114C14.3938 45.7143 14.449 45.7289 14.4995 45.7542C14.6304 45.8215 14.7358 45.9296 14.7999 46.0621C14.8668 46.1898 14.8813 46.3386 14.8401 46.4768C14.8274 46.5264 14.8008 46.5713 14.7634 46.6063Z" fill="white"/>
<path opacity="0.2" d="M14.6239 46.4145C14.6176 46.443 14.6176 46.4726 14.6239 46.5012C14.6284 46.5185 14.6371 46.5344 14.649 46.5477C14.7747 46.6734 14.9155 46.2649 14.7496 46.2812C14.7212 46.2854 14.6953 46.2997 14.6767 46.3215C14.6511 46.3472 14.6328 46.3793 14.6239 46.4145Z" fill="white"/>
<path d="M13.9805 47.0588C13.9283 47.0189 13.8702 46.9875 13.8083 46.9658C13.758 46.9491 13.7062 46.9373 13.6537 46.9306C13.4974 46.9158 13.341 46.9581 13.2134 47.0497C13.0859 47.1413 12.9958 47.276 12.9599 47.4289C12.924 47.5817 12.9447 47.7424 13.0181 47.8812C13.0915 48.02 13.2126 48.1276 13.3592 48.1839C13.5058 48.2403 13.6678 48.2417 13.8153 48.1879C13.9628 48.134 14.0858 48.0286 14.1615 47.891C14.2373 47.7535 14.2607 47.5932 14.2274 47.4397C14.1941 47.2863 14.1064 47.1501 13.9805 47.0563V47.0588Z" fill="#196719"/>
<path opacity="0.15" d="M13.5556 48.0686C13.6989 48.0686 13.7266 47.9203 13.582 47.7682C13.4375 47.6162 13.2264 47.5445 13.1836 47.7431C13.0253 47.4767 13.2326 46.9991 13.5745 46.9287C13.4678 46.9312 13.3634 46.9599 13.2705 47.0123C13.1776 47.0648 13.099 47.1392 13.0417 47.2292C12.9843 47.3192 12.9501 47.4219 12.9419 47.5283C12.9337 47.6347 12.9518 47.7414 12.9946 47.8392C13.0374 47.9369 13.1037 48.0225 13.1875 48.0886C13.2713 48.1546 13.37 48.199 13.475 48.2178C13.58 48.2367 13.6881 48.2294 13.7896 48.1965C13.8911 48.1637 13.983 48.1064 14.0571 48.0297C13.9864 48.0843 13.9013 48.1171 13.8122 48.124C13.7231 48.1309 13.6339 48.1117 13.5556 48.0686Z" fill="#104210"/>
<path opacity="0.2" d="M14.0621 47.8497C14.0429 47.8651 14.0195 47.8745 13.9949 47.8768C13.9703 47.879 13.9456 47.8739 13.9239 47.8622C13.8623 47.822 13.8661 47.7365 13.8635 47.6599C13.8464 47.4705 13.7643 47.2928 13.631 47.1572C13.6137 47.1407 13.5996 47.1211 13.5896 47.0994C13.5842 47.0889 13.5821 47.0772 13.5834 47.0655C13.5847 47.0539 13.5895 47.0429 13.5971 47.034C13.6147 47.017 13.638 47.0072 13.6625 47.0063C13.7164 47.0091 13.7694 47.0224 13.8183 47.0453C13.9413 47.1108 14.0406 47.2132 14.1023 47.3381C14.1653 47.459 14.1788 47.5996 14.14 47.7303C14.1268 47.777 14.0996 47.8187 14.0621 47.8497Z" fill="white"/>
<path opacity="0.2" d="M13.9289 47.6721C13.922 47.6989 13.922 47.727 13.9289 47.7538C13.9323 47.7702 13.9401 47.7854 13.9515 47.7978C14.0772 47.9234 14.2029 47.5301 14.047 47.5464C14.0204 47.5507 13.996 47.564 13.9779 47.5841C13.9538 47.6084 13.9368 47.6388 13.9289 47.6721Z" fill="white"/>
<path d="M40.6455 46.2672C40.9088 45.7207 40.9966 45.1061 40.8969 44.5077C41.8055 44.7377 41.9186 43.4684 41.9186 43.4684C42.5722 44.0264 43.0724 43.124 43.0724 43.124C43.4356 43.9045 44.5516 43.6029 44.5918 43.5915C44.3814 43.8107 44.2351 44.0833 44.1686 44.3797C44.1022 44.6761 44.1181 44.9851 44.2148 45.2731C43.0422 45.2731 43.0837 46.2019 43.0837 46.2019C42.87 46.0347 42.1398 45.9191 41.9186 46.5224C41.4109 46.2521 40.6455 46.2672 40.6455 46.2672Z" fill="#196719"/>
<path d="M40.6393 46.2608C40.9006 45.7159 40.9883 45.1039 40.8906 44.5076C41.798 44.7426 41.9162 43.4733 41.9162 43.4733C42.5672 44.035 43.0699 43.1289 43.0699 43.1289C43.4293 43.9106 44.5504 43.6065 44.5906 43.5952L40.6393 46.2608Z" fill="#104210"/>
<path d="M40.682 47.9312C41.3204 47.8221 41.9095 47.5183 42.3686 47.0615C42.7318 47.9978 43.9107 47.3129 43.9107 47.3129C43.8277 48.2303 44.9274 48.1059 44.9274 48.1059C44.4699 48.9077 45.4301 49.6945 45.4603 49.7234C45.1384 49.6752 44.8095 49.7162 44.5093 49.8418C44.2091 49.9674 43.949 50.1729 43.7574 50.436C43.0272 49.4142 42.2417 50.02 42.2417 50.02C42.2555 49.7309 41.9036 49.0208 41.2362 49.2018C41.1696 48.591 40.682 47.9312 40.682 47.9312Z" fill="#196719"/>
<path d="M40.687 47.9073C41.3259 47.8007 41.9165 47.5001 42.3786 47.0464C42.7368 47.9839 43.9195 47.2977 43.9195 47.2977C43.8327 48.2152 44.9249 48.0971 44.9249 48.0971C44.4649 48.8964 45.4175 49.6881 45.4515 49.7158L40.687 47.9073Z" fill="#104210"/>
<path d="M40.1252 46.2769L40.0624 46.253L39.997 46.2266C40.2006 46.0293 39.7758 45.6271 39.5747 44.8441C39.3736 44.0612 40.1202 43.4818 40.4658 43.1839C40.8114 42.8861 41.0514 42.641 41.2601 42.6159C41.2833 42.6149 41.3064 42.6188 41.328 42.6272C41.3497 42.6357 41.3693 42.6485 41.3857 42.6649C41.5868 42.8345 41.8269 43.4277 41.8231 44.315C41.8231 45.3933 41.2689 45.6522 40.9559 45.7654C40.643 45.8785 40.1893 46.0921 40.1252 46.2769Z" fill="#196719"/>
<path opacity="0.05" d="M40.1252 46.2769L40.0624 46.253L39.997 46.2266C40.2006 46.0293 39.7758 45.6271 39.5747 44.8441C39.3736 44.0612 40.1202 43.4818 40.4658 43.1839C40.8114 42.8861 41.0514 42.641 41.2601 42.6159C41.2833 42.6149 41.3064 42.6188 41.328 42.6272C41.3497 42.6357 41.3693 42.6485 41.3857 42.6649C41.5868 42.8345 41.8269 43.4277 41.8231 44.315C41.8231 45.3933 41.2689 45.6522 40.9559 45.7654C40.643 45.8785 40.1893 46.0921 40.1252 46.2769Z" fill="white"/>
<path opacity="0.15" d="M40.0624 46.253L39.997 46.2266C40.2006 46.0293 39.7758 45.6271 39.5747 44.8441C39.3736 44.0612 40.1202 43.4818 40.4658 43.1839C40.8114 42.8861 41.0514 42.641 41.2601 42.6159C41.2833 42.6149 41.3064 42.6188 41.328 42.6272C41.3497 42.6357 41.3693 42.6485 41.3857 42.6649L40.0624 46.253Z" fill="white"/>
<path d="M38.0931 46.4416C37.2925 46.4014 36.962 45.5103 36.7797 45.0905C36.5975 44.6708 36.4392 44.3704 36.4781 44.1618C36.4823 44.1406 36.4923 44.121 36.507 44.1052C36.6541 43.9318 37.3352 43.84 38.2665 44.1392C39.2933 44.4697 39.3737 45.0717 39.3876 45.4035C39.4014 45.7353 39.2619 46.0872 39.556 46.2908L39.5233 46.336L39.4655 46.4127C39.1915 46.2292 38.8949 46.4805 38.0931 46.4416Z" fill="#196719"/>
<path opacity="0.05" d="M38.0931 46.4416C37.2925 46.4014 36.962 45.5103 36.7797 45.0905C36.5975 44.6708 36.4392 44.3704 36.4781 44.1618C36.4823 44.1406 36.4923 44.121 36.507 44.1052C36.6541 43.9318 37.3352 43.84 38.2665 44.1392C39.2933 44.4697 39.3737 45.0717 39.3876 45.4035C39.4014 45.7353 39.2619 46.0872 39.556 46.2908L39.5233 46.336L39.4655 46.4127C39.1915 46.2292 38.8949 46.4805 38.0931 46.4416Z" fill="white"/>
<path opacity="0.15" d="M38.0931 46.4418C37.2925 46.4016 36.962 45.5105 36.7797 45.0908C36.5975 44.671 36.4392 44.3706 36.4781 44.162C36.4823 44.1408 36.4923 44.1213 36.507 44.1055L39.5233 46.3363L39.4655 46.4129C39.1915 46.2294 38.8949 46.4808 38.0931 46.4418Z" fill="white"/>
<path d="M36.6641 49.3265C36.6441 49.3177 36.6268 49.3038 36.6138 49.2863C36.4794 49.1015 36.5435 48.4179 37.0437 47.5783C37.5966 46.6521 38.1999 46.7086 38.5279 46.7702C38.8559 46.8318 39.3737 46.9462 39.522 46.8192L39.5673 46.9009L39.6087 46.9763C39.3323 47.0429 39.468 47.4941 39.248 48.2645C39.0281 49.0349 38.0855 49.1606 37.6356 49.2423C37.1857 49.324 36.8564 49.4107 36.6641 49.3265Z" fill="#196719"/>
<path opacity="0.05" d="M36.6641 49.3265C36.6441 49.3177 36.6268 49.3038 36.6138 49.2863C36.4794 49.1015 36.5435 48.4179 37.0437 47.5783C37.5966 46.6521 38.1999 46.7086 38.5279 46.7702C38.8559 46.8318 39.3737 46.9462 39.522 46.8192L39.5673 46.9009L39.6087 46.9763C39.3323 47.0429 39.468 47.4941 39.248 48.2645C39.0281 49.0349 38.0855 49.1606 37.6356 49.2423C37.1857 49.324 36.8564 49.4107 36.6641 49.3265Z" fill="white"/>
<path opacity="0.15" d="M36.664 49.3261C36.6441 49.3172 36.6268 49.3034 36.6138 49.2858L39.5672 46.8979L39.6087 46.9734C39.3322 47.04 39.4679 47.4912 39.248 48.2616C39.028 49.032 38.0855 49.1576 37.6355 49.2393C37.1856 49.321 36.8563 49.4103 36.664 49.3261Z" fill="white"/>
<path d="M39.6892 49.5975C39.0482 48.729 39.3348 48.1937 39.5183 47.9159C39.7018 47.6382 40.1328 47.3189 39.9644 46.918L40.0197 46.8954L40.1127 46.8564C40.065 47.3076 40.4408 47.461 41.0666 47.9624C41.6925 48.4639 41.46 49.4944 41.362 49.9393C41.2639 50.3842 41.2451 50.5891 41.0918 50.7349C41.0737 50.7529 41.0494 50.7632 41.0239 50.7638C40.8015 50.7814 40.2623 50.3679 39.6892 49.5975Z" fill="#196719"/>
<path opacity="0.05" d="M39.6892 49.5975C39.0482 48.729 39.3348 48.1937 39.5183 47.9159C39.7018 47.6382 40.1328 47.3189 39.9644 46.918L40.0197 46.8954L40.1127 46.8564C40.065 47.3076 40.4408 47.461 41.0666 47.9624C41.6925 48.4639 41.46 49.4944 41.362 49.9393C41.2639 50.3842 41.2451 50.5891 41.0918 50.7349C41.0737 50.7529 41.0494 50.7632 41.0239 50.7638C40.8015 50.7814 40.2623 50.3679 39.6892 49.5975Z" fill="white"/>
<path opacity="0.15" d="M41.0239 50.7638L40.0184 46.8954L40.1114 46.8564C40.0637 47.3076 40.4395 47.461 41.0653 47.9624C41.6912 48.4639 41.4587 49.4944 41.3607 49.9393C41.2626 50.3842 41.2438 50.5891 41.0905 50.7349C41.0727 50.7526 41.0489 50.7629 41.0239 50.7638Z" fill="white"/>
<path d="M41.0013 47.5515C40.8052 47.2826 40.765 46.7974 40.2635 46.7861L40.2811 46.7547L40.3251 46.6768C40.8128 46.8352 40.814 46.3789 41.504 45.9705C42.194 45.562 42.9631 46.1188 43.3464 46.3676C43.7298 46.6165 44.0289 46.7799 44.1118 46.9734C44.1183 46.9919 44.1208 47.0116 44.1194 47.0312C44.0992 47.2562 43.584 47.7149 42.6338 47.9838C41.597 48.2767 41.1961 47.8205 41.0013 47.5515Z" fill="#196719"/>
<path opacity="0.05" d="M41.0013 47.5515C40.8052 47.2826 40.765 46.7974 40.2635 46.7861L40.2811 46.7547L40.3251 46.6768C40.8128 46.8352 40.814 46.3789 41.504 45.9705C42.194 45.562 42.9631 46.1188 43.3464 46.3676C43.7298 46.6165 44.0289 46.7799 44.1118 46.9734C44.1183 46.9919 44.1208 47.0116 44.1194 47.0312C44.0992 47.2562 43.584 47.7149 42.6338 47.9838C41.597 48.2767 41.1961 47.8205 41.0013 47.5515Z" fill="white"/>
<path opacity="0.15" d="M44.1193 47.0312L40.2811 46.7547L40.3251 46.6768C40.8127 46.8352 40.814 46.3789 41.504 45.9705C42.194 45.562 42.9631 46.1188 43.3464 46.3676C43.7297 46.6165 44.0289 46.7799 44.1118 46.9734C44.1182 46.9919 44.1208 47.0116 44.1193 47.0312Z" fill="white"/>
<path d="M39.1438 48.6612C38.8811 48.5719 39.0118 47.4572 39.3574 47.2435C39.6779 47.0424 39.6565 46.9771 39.6251 46.8589C39.5937 46.7408 39.3122 46.7571 39.086 46.923C38.719 47.1932 37.7965 46.7672 37.7965 46.5146C37.7959 46.5096 37.7959 46.5045 37.7965 46.4995C37.8304 46.2582 38.7114 46.0169 39.0369 46.2481C39.3059 46.4392 39.4341 46.4756 39.5396 46.3663C39.6452 46.2569 39.4014 46.1413 39.2657 45.8937C39.1676 45.7153 39.0646 44.5578 39.3411 44.4736C39.3477 44.4724 39.3545 44.4724 39.3612 44.4736C39.6641 44.4421 40.1316 45.43 40.0398 45.763C39.9481 46.0961 39.9783 46.2255 40.1303 46.2557C40.2824 46.2858 40.3264 46.1011 40.4998 45.8686C40.6733 45.6361 41.7566 45.3985 41.8333 45.6524C41.9099 45.9063 41.1571 46.6968 40.8203 46.6692C40.4835 46.6415 40.3063 46.6692 40.3239 46.7948C40.3415 46.9205 40.672 46.913 40.858 46.9796C41.2175 47.1053 41.602 48.0579 41.4638 48.2037V48.21C41.2979 48.3356 40.3729 47.9762 40.2912 47.4019C40.2334 47.006 40.1655 46.9519 40.0474 46.9695C39.9293 46.9871 39.972 47.2209 40.0147 47.4798C40.0637 47.8166 39.4152 48.7428 39.1438 48.6612Z" fill="#196719"/>
<path opacity="0.1" d="M39.1438 48.6612C38.8811 48.5719 39.0118 47.4572 39.3574 47.2435C39.6779 47.0424 39.6565 46.9771 39.6251 46.8589C39.5937 46.7408 39.3122 46.7571 39.086 46.923C38.719 47.1932 37.7965 46.7672 37.7965 46.5146C37.7959 46.5096 37.7959 46.5045 37.7965 46.4995C37.8304 46.2582 38.7114 46.0169 39.0369 46.2481C39.3059 46.4392 39.4341 46.4756 39.5396 46.3663C39.6452 46.2569 39.4014 46.1413 39.2657 45.8937C39.1676 45.7153 39.0646 44.5578 39.3411 44.4736C39.3477 44.4724 39.3545 44.4724 39.3612 44.4736C39.6641 44.4421 40.1316 45.43 40.0398 45.763C39.9481 46.0961 39.9783 46.2255 40.1303 46.2557C40.2824 46.2858 40.3264 46.1011 40.4998 45.8686C40.6733 45.6361 41.7566 45.3985 41.8333 45.6524C41.9099 45.9063 41.1571 46.6968 40.8203 46.6692C40.4835 46.6415 40.3063 46.6692 40.3239 46.7948C40.3415 46.9205 40.672 46.913 40.858 46.9796C41.2175 47.1053 41.602 48.0579 41.4638 48.2037V48.21C41.2979 48.3356 40.3729 47.9762 40.2912 47.4019C40.2334 47.006 40.1655 46.9519 40.0474 46.9695C39.9293 46.9871 39.972 47.2209 40.0147 47.4798C40.0637 47.8166 39.4152 48.7428 39.1438 48.6612Z" fill="#104210"/>
<path d="M40.2798 47.3974C40.222 47.0015 40.1541 46.9474 40.036 46.965L39.9354 46.5591L41.4586 48.1992V48.2055C41.2865 48.3324 40.3615 47.9717 40.2798 47.3974Z" fill="#196719"/>
<path opacity="0.25" d="M40.2798 47.3974C40.222 47.0015 40.1541 46.9474 40.036 46.965L39.9354 46.5591L41.4586 48.1992V48.2055C41.2865 48.3324 40.3615 47.9717 40.2798 47.3974Z" fill="#104210"/>
<path d="M39.1387 48.6588C38.876 48.5696 39.0067 47.4548 39.3523 47.2411C39.6728 47.0401 39.6514 46.9747 39.62 46.8566C39.5886 46.7384 39.3071 46.7548 39.0808 46.9207C38.7139 47.1909 37.7914 46.7648 37.7914 46.5122L39.9518 46.609L39.1387 48.6588Z" fill="#196719"/>
<path opacity="0.25" d="M39.1387 48.6588C38.876 48.5696 39.0067 47.4548 39.3523 47.2411C39.6728 47.0401 39.6514 46.9747 39.62 46.8566C39.5886 46.7384 39.3071 46.7548 39.0808 46.9207C38.7139 47.1909 37.7914 46.7648 37.7914 46.5122L39.9518 46.609L39.1387 48.6588Z" fill="#104210"/>
<path d="M39.9555 46.5438C39.8939 46.4759 39.4528 44.9099 39.3359 44.4726C39.3426 44.4714 39.3494 44.4714 39.356 44.4726C39.6589 44.4412 40.1265 45.429 40.0347 45.762C39.943 46.0951 39.9731 46.2245 40.1252 46.2547C40.2773 46.2849 40.3213 46.1001 40.4947 45.8676C40.6681 45.6351 41.7515 45.3976 41.8281 45.6514L40.4067 46.4244C40.4067 46.4244 40.0259 46.6217 39.9555 46.5438Z" fill="#196719"/>
<path opacity="0.25" d="M39.9555 46.5438C39.8939 46.4759 39.4528 44.9099 39.3359 44.4726C39.3426 44.4714 39.3494 44.4714 39.356 44.4726C39.6589 44.4412 40.1265 45.429 40.0347 45.762C39.943 46.0951 39.9731 46.2245 40.1252 46.2547C40.2773 46.2849 40.3213 46.1001 40.4947 45.8676C40.6681 45.6351 41.7515 45.3976 41.8281 45.6514L40.4067 46.4244C40.4067 46.4244 40.0259 46.6217 39.9555 46.5438Z" fill="#104210"/>
<path d="M40.3968 46.5716C40.3682 46.5694 40.3408 46.5594 40.3176 46.5427C40.291 46.5234 40.2713 46.4961 40.2617 46.4647C40.252 46.4333 40.2529 46.3996 40.2641 46.3688C40.2753 46.3379 40.2963 46.3115 40.3239 46.2937C40.3515 46.2759 40.3841 46.2675 40.4169 46.2699C40.4431 46.2708 40.4687 46.2787 40.4908 46.2929C40.5129 46.307 40.5308 46.3269 40.5426 46.3504C40.557 46.3741 40.5632 46.4019 40.5602 46.4295C40.559 46.4497 40.5539 46.4694 40.545 46.4876C40.5362 46.5057 40.5237 46.5219 40.5085 46.5351C40.4933 46.5484 40.4755 46.5584 40.4563 46.5647C40.4371 46.5709 40.4169 46.5733 40.3968 46.5716Z" fill="#FAFAFA"/>
<path d="M39.9455 46.6945C39.9257 46.6932 39.9064 46.688 39.8886 46.6792C39.8708 46.6704 39.8549 46.6582 39.8418 46.6433C39.8288 46.6283 39.8188 46.611 39.8124 46.5922C39.8061 46.5734 39.8035 46.5535 39.8048 46.5337C39.8061 46.5139 39.8113 46.4945 39.8201 46.4767C39.8289 46.4589 39.8411 46.443 39.8561 46.43C39.871 46.4169 39.8884 46.4069 39.9072 46.4005C39.926 46.3942 39.9458 46.3916 39.9656 46.3929C39.9871 46.3941 40.008 46.4 40.0269 46.4102C40.0458 46.4204 40.0622 46.4347 40.075 46.452C40.0971 46.4806 40.1078 46.5164 40.1052 46.5525C40.104 46.5723 40.099 46.5917 40.0904 46.6096C40.0817 46.6275 40.0697 46.6435 40.0548 46.6567C40.04 46.6699 40.0227 46.68 40.004 46.6865C39.9852 46.693 39.9654 46.6957 39.9455 46.6945Z" fill="#FAFAFA"/>
<path d="M39.9417 46.0871C39.9176 46.0861 39.8942 46.0787 39.8739 46.0657C39.8496 46.0517 39.8297 46.0313 39.8164 46.0067C39.803 45.982 39.7968 45.9542 39.7985 45.9262C39.8017 45.8862 39.8205 45.849 39.8508 45.8227C39.8811 45.7964 39.9205 45.783 39.9606 45.7854C39.9867 45.7864 40.012 45.7943 40.0341 45.8082C40.0561 45.8221 40.0741 45.8415 40.0863 45.8646C40.1012 45.8891 40.1082 45.9177 40.1064 45.9463C40.105 45.9664 40.0995 45.986 40.0905 46.004C40.0814 46.022 40.0688 46.038 40.0535 46.0511C40.0382 46.0642 40.0204 46.0741 40.0012 46.0803C39.982 46.0865 39.9618 46.0888 39.9417 46.0871Z" fill="#FAFAFA"/>
<path d="M39.5245 46.5159C39.5024 46.5148 39.4808 46.5083 39.4617 46.497C39.4362 46.4835 39.4152 46.4629 39.4011 46.4377C39.3871 46.4125 39.3806 46.3838 39.3825 46.355C39.3838 46.3352 39.389 46.3158 39.3978 46.298C39.4066 46.2802 39.4188 46.2643 39.4337 46.2512C39.4487 46.2381 39.4661 46.2281 39.4849 46.2218C39.5037 46.2154 39.5236 46.2129 39.5434 46.2142C39.5648 46.2154 39.5858 46.2213 39.6047 46.2315C39.6236 46.2417 39.64 46.256 39.6527 46.2733C39.6758 46.3015 39.6871 46.3375 39.6842 46.3738C39.683 46.3937 39.678 46.4131 39.6694 46.4309C39.6607 46.4488 39.6487 46.4648 39.6338 46.478C39.619 46.4912 39.6017 46.5013 39.583 46.5078C39.5642 46.5143 39.5444 46.517 39.5245 46.5159Z" fill="#FAFAFA"/>
<path d="M40.3037 47.02C40.2821 47.0188 40.2611 47.0128 40.2421 47.0024C40.2163 46.9889 40.1951 46.9682 40.181 46.9427C40.1669 46.9172 40.1606 46.8881 40.1629 46.8591C40.1648 46.8264 40.1772 46.7952 40.1984 46.7702C40.2195 46.7452 40.2482 46.7278 40.2802 46.7205C40.3121 46.7133 40.3456 46.7166 40.3754 46.7301C40.4053 46.7435 40.43 46.7663 40.4457 46.795C40.4597 46.8203 40.4662 46.8491 40.4646 46.878C40.4635 46.8979 40.4584 46.9174 40.4497 46.9354C40.441 46.9533 40.4288 46.9694 40.4138 46.9826C40.3988 46.9958 40.3814 47.0059 40.3625 47.0123C40.3436 47.0188 40.3236 47.0214 40.3037 47.02Z" fill="#FAFAFA"/>
<path d="M39.5773 47.0451C39.5657 47.0449 39.5542 47.0428 39.5433 47.0388C39.5105 47.0294 39.4819 47.0091 39.4623 46.9812C39.4426 46.9533 39.4331 46.9195 39.4352 46.8855C39.4378 46.8453 39.4562 46.8078 39.4864 46.7812C39.5165 46.7546 39.556 46.741 39.5961 46.7434C39.6327 46.7456 39.6672 46.7613 39.6929 46.7874C39.7147 46.809 39.7294 46.8368 39.735 46.8669C39.7406 46.8971 39.7369 46.9283 39.7243 46.9563C39.7117 46.9843 39.6909 47.0078 39.6647 47.0237C39.6384 47.0395 39.6079 47.047 39.5773 47.0451Z" fill="#FAFAFA"/>
</svg>
