<svg width="74" height="74" viewBox="0 0 74 74" fill="none" xmlns="http://www.w3.org/2000/svg">
<g filter="url(#filter0_di_1917_41415)">
<rect x="8" y="4" width="58" height="58" rx="29" fill="white"/>
<path d="M26.0007 22.9949C25.9987 23.4759 26.0277 23.9565 26.0876 24.4337C26.3588 26.5556 27.2452 28.5517 28.6375 30.1758C30.0297 31.7999 31.8669 32.981 33.9224 33.5733C34.8953 33.8523 35.9019 33.9961 36.9139 34.0007C37.6833 34.0043 38.451 33.9274 39.2045 33.7713C40.6406 33.469 42.0016 32.8821 43.2072 32.0454C44.4129 31.2087 45.4388 30.139 46.2245 28.8995C46.3256 28.74 46.4225 28.5761 46.5165 28.4123C46.9514 27.6402 47.2906 26.8178 47.5265 25.9636C47.6063 25.6787 47.669 25.3795 47.7316 25.0804C47.7943 24.7813 47.8328 24.4778 47.8641 24.1687C47.9011 23.8126 47.9201 23.4522 47.9211 23.0875C47.9236 22.6482 47.8993 22.2091 47.8484 21.7727C47.8143 21.4707 47.7668 21.173 47.706 20.8795C47.2791 18.7625 46.2368 16.8187 44.7098 15.2916C43.1827 13.7646 41.2389 12.7223 39.1219 12.2954C38.8284 12.2356 38.5293 12.1886 38.2273 12.153C37.8216 12.1056 37.4135 12.0814 37.0051 12.0803C36.6135 12.0777 36.2221 12.0967 35.8327 12.1373C35.525 12.1672 35.2201 12.2128 34.921 12.2698C34.6219 12.3267 34.327 12.3937 34.0364 12.4735C33.1819 12.7092 32.3595 13.0489 31.5876 13.4849C31.4224 13.5775 31.2586 13.6743 31.099 13.7698C29.3419 14.8855 27.9363 16.4758 27.0449 18.3567C26.6772 19.133 26.4032 19.9502 26.2286 20.7912C26.079 21.5163 26.0026 22.2546 26.0007 22.9949Z" fill="#FCCE17"/>
<path opacity="0.1" d="M26.0007 22.9949C25.9987 23.4759 26.0277 23.9565 26.0876 24.4337C26.3588 26.5556 27.2452 28.5517 28.6375 30.1758C30.0297 31.7999 31.8669 32.981 33.9224 33.5733C34.8953 33.8523 35.9019 33.9961 36.9139 34.0007C37.6833 34.0043 38.451 33.9274 39.2045 33.7713C40.6406 33.469 42.0016 32.8821 43.2072 32.0454C44.4129 31.2087 45.4388 30.139 46.2245 28.8995C46.3256 28.74 46.4225 28.5761 46.5165 28.4123C46.9514 27.6402 47.2906 26.8178 47.5265 25.9636C47.6063 25.6787 47.669 25.3795 47.7316 25.0804C47.7943 24.7813 47.8328 24.4778 47.8641 24.1687C47.9011 23.8126 47.9201 23.4522 47.9211 23.0875C47.9236 22.6482 47.8993 22.2091 47.8484 21.7727C47.8143 21.4707 47.7668 21.173 47.706 20.8795C47.2791 18.7625 46.2368 16.8187 44.7098 15.2916C43.1827 13.7646 41.2389 12.7223 39.1219 12.2954C38.8284 12.2356 38.5293 12.1886 38.2273 12.153C37.8216 12.1056 37.4135 12.0814 37.0051 12.0803C36.6135 12.0777 36.2221 12.0967 35.8327 12.1373C35.525 12.1672 35.2201 12.2128 34.921 12.2698C34.6219 12.3267 34.327 12.3937 34.0364 12.4735C33.1819 12.7092 32.3595 13.0489 31.5876 13.4849C31.4224 13.5775 31.2586 13.6743 31.099 13.7698C29.3419 14.8855 27.9363 16.4758 27.0449 18.3567C26.6772 19.133 26.4032 19.9502 26.2286 20.7912C26.079 21.5163 26.0026 22.2546 26.0007 22.9949Z" fill="#FFF2BE"/>
<path opacity="0.05" d="M47.4923 20.002C47.5749 20.2869 47.6476 20.5832 47.7074 20.8823C47.7672 21.1814 47.8142 21.4735 47.8498 21.7755C47.9007 22.2119 47.925 22.6509 47.9225 23.0903C47.9225 23.455 47.9035 23.8154 47.8655 24.1715C47.8342 24.4811 47.79 24.785 47.733 25.0832C47.6761 25.3823 47.6077 25.6758 47.5279 25.9664C47.2909 26.8178 46.9513 27.6372 46.5165 28.4066C46.4225 28.5704 46.3256 28.7342 46.2245 28.8938C45.2336 30.4648 43.8588 31.7576 42.2298 32.6501C40.6008 33.5426 38.7713 34.0054 36.9139 33.9949C36.514 33.9924 36.1145 33.9681 35.7173 33.9223L47.4923 20.002Z" fill="#594700"/>
<path opacity="0.05" d="M47.3227 26.6172C47.1088 27.2368 46.8389 27.8357 46.5164 28.4064C46.4224 28.5702 46.3255 28.734 46.2244 28.8936C45.2287 30.4642 43.851 31.7566 42.2201 32.65L47.3227 26.6172Z" fill="#594700"/>
<path opacity="0.15" d="M45.9938 16.8301C46.3466 17.3419 46.6545 17.8834 46.914 18.4483L34.0934 33.6179L33.9196 33.5709C33.3828 33.4137 32.8589 33.2151 32.3527 32.9769L45.9938 16.8301Z" fill="#FFF2BE"/>
<path opacity="0.15" d="M41.8015 13.2031C42.3763 13.4875 42.9253 13.8211 43.4425 14.2003L29.327 30.8984C28.8671 30.4511 28.4471 29.9645 28.072 29.444L41.8015 13.2031Z" fill="#FFF2BE"/>
<path opacity="0.15" d="M40.2003 12.5664C40.5393 12.6718 40.8717 12.7924 41.1974 12.9282L27.7002 28.8942C27.5122 28.5964 27.3341 28.2916 27.1746 27.9753L40.2003 12.5664Z" fill="#FFF2BE"/>
<path opacity="0.15" d="M26.032 22.2484C26.0462 22.0461 26.0676 21.8453 26.0918 21.6473C26.1004 21.5803 26.1075 21.5134 26.1175 21.4478C26.1274 21.3823 26.1374 21.3054 26.1488 21.2441C26.1744 21.1017 26.2001 20.945 26.23 20.7968C26.663 18.7232 27.6889 16.8199 29.183 15.3182C29.7625 14.7339 30.4056 14.2164 31.1004 13.7754C31.2599 13.6743 31.4238 13.5774 31.589 13.4905C32.3608 13.0545 33.1832 12.7149 34.0377 12.4791C34.146 12.4492 34.2543 12.4236 34.3639 12.3965L26.032 22.2484Z" fill="#FFF2BE"/>
<path d="M28.7942 23.0392C28.7939 25.1106 29.5808 27.1046 30.9956 28.6175C32.4103 30.1304 34.3472 31.049 36.4139 31.1874C36.5934 31.1988 36.7786 31.206 36.9623 31.206C39.1098 31.1776 41.1597 30.3046 42.6682 28.776C44.1768 27.2474 45.0226 25.1862 45.0226 23.0385C45.0226 20.8909 44.1768 18.8296 42.6682 17.301C41.1597 15.7724 39.1098 14.8995 36.9623 14.8711C36.7786 14.8711 36.5934 14.8711 36.4139 14.8896C34.3472 15.0287 32.4105 15.9478 30.9959 17.4608C29.5812 18.9739 28.7942 20.9679 28.7942 23.0392Z" fill="#FCCE17"/>
<path opacity="0.4" d="M28.7942 23.0392C28.7939 25.1106 29.5808 27.1046 30.9956 28.6175C32.4103 30.1304 34.3472 31.049 36.4139 31.1874C36.5934 31.1988 36.7786 31.206 36.9623 31.206C39.1098 31.1776 41.1597 30.3046 42.6682 28.776C44.1768 27.2474 45.0226 25.1862 45.0226 23.0385C45.0226 20.8909 44.1768 18.8296 42.6682 17.301C41.1597 15.7724 39.1098 14.8995 36.9623 14.8711C36.7786 14.8711 36.5934 14.8711 36.4139 14.8896C34.3472 15.0287 32.4105 15.9478 30.9959 17.4608C29.5812 18.9739 28.7942 20.9679 28.7942 23.0392Z" fill="#594700"/>
<path d="M29.1575 23.0398C29.1575 23.1823 29.1575 23.3247 29.1689 23.4558C29.2704 25.3596 30.0654 27.1603 31.4039 28.518C32.7424 29.8757 34.5317 30.6962 36.4339 30.8248L36.5407 30.8319C36.6832 30.8319 36.8171 30.8433 36.9567 30.8433C38.9127 30.847 40.7986 30.1153 42.2402 28.7932C43.6818 27.4712 44.5736 25.6555 44.7388 23.7065C44.7587 23.4857 44.7673 23.2634 44.7673 23.037C44.7673 22.8105 44.7601 22.6253 44.7445 22.423C44.7126 22.0036 44.6459 21.5877 44.545 21.1794C44.2036 19.794 43.4895 18.5284 42.48 17.5199C41.4705 16.5115 40.2043 15.7986 38.8185 15.4586C38.4102 15.3577 37.9943 15.2909 37.5749 15.2591C37.3726 15.2435 37.1675 15.2363 36.9609 15.2363C36.7857 15.2363 36.6105 15.2363 36.4381 15.2534C36.3897 15.2534 36.3413 15.2534 36.2957 15.2648C35.1588 15.3599 34.0569 15.7053 33.0692 16.2762C31.8802 16.96 30.8928 17.9454 30.2068 19.133C29.5207 20.3206 29.1602 21.6683 29.1617 23.0398H29.1575Z" fill="#FCCE17"/>
<path opacity="0.5" d="M29.1575 23.0398C29.1575 23.1823 29.1575 23.3247 29.1689 23.4558C29.2704 25.3596 30.0654 27.1603 31.4039 28.518C32.7424 29.8757 34.5317 30.6962 36.4339 30.8248L36.5407 30.8319C36.6832 30.8319 36.8171 30.8433 36.9567 30.8433C38.9127 30.847 40.7986 30.1153 42.2402 28.7932C43.6818 27.4712 44.5736 25.6555 44.7388 23.7065C44.7587 23.4857 44.7673 23.2634 44.7673 23.037C44.7673 22.8105 44.7601 22.6253 44.7445 22.423C44.7126 22.0036 44.6459 21.5877 44.545 21.1794C44.2036 19.794 43.4895 18.5284 42.48 17.5199C41.4705 16.5115 40.2043 15.7986 38.8185 15.4586C38.4102 15.3577 37.9943 15.2909 37.5749 15.2591C37.3726 15.2435 37.1675 15.2363 36.9609 15.2363C36.7857 15.2363 36.6105 15.2363 36.4381 15.2534C36.3897 15.2534 36.3413 15.2534 36.2957 15.2648C35.1588 15.3599 34.0569 15.7053 33.0692 16.2762C31.8802 16.96 30.8928 17.9454 30.2068 19.133C29.5207 20.3206 29.1602 21.6683 29.1617 23.0398H29.1575Z" fill="#594700"/>
<path d="M42.4596 28.5769C43.7762 27.2774 44.5846 25.5499 44.7388 23.7065C44.7587 23.4857 44.7687 23.2634 44.7687 23.037C44.7687 22.8105 44.7602 22.6253 44.7445 22.423C44.7127 22.0036 44.646 21.5877 44.5451 21.1794C44.2036 19.794 43.4895 18.5284 42.48 17.5199C41.4706 16.5115 40.2043 15.7986 38.8185 15.4586C38.4102 15.3577 37.9943 15.2909 37.5749 15.2591C37.3726 15.2435 37.1675 15.2363 36.961 15.2363C36.7857 15.2363 36.6105 15.2363 36.4382 15.2534C36.3897 15.2534 36.3413 15.2534 36.2957 15.2648C35.1588 15.3599 34.0569 15.7053 33.0692 16.2762C32.7268 16.4767 32.4001 16.7029 32.092 16.9529C31.3626 17.6758 30.7841 18.5364 30.3899 19.4847C29.9957 20.433 29.7937 21.4502 29.7957 22.4771C29.7957 22.6196 29.7957 22.7549 29.8085 22.8931C29.9094 24.7971 30.7042 26.5982 32.0428 27.956C33.3815 29.3138 35.1711 30.1341 37.0735 30.2621H37.1789C37.3214 30.2692 37.4567 30.2735 37.5963 30.2735C39.3645 30.2752 41.0801 29.672 42.4581 28.5641L42.4596 28.5769Z" fill="#FCCE17"/>
<path opacity="0.25" d="M42.4596 28.5769C43.7762 27.2774 44.5846 25.5499 44.7388 23.7065C44.7587 23.4857 44.7687 23.2634 44.7687 23.037C44.7687 22.8105 44.7602 22.6253 44.7445 22.423C44.7127 22.0036 44.646 21.5877 44.5451 21.1794C44.2036 19.794 43.4895 18.5284 42.48 17.5199C41.4706 16.5115 40.2043 15.7986 38.8185 15.4586C38.4102 15.3577 37.9943 15.2909 37.5749 15.2591C37.3726 15.2435 37.1675 15.2363 36.961 15.2363C36.7857 15.2363 36.6105 15.2363 36.4382 15.2534C36.3897 15.2534 36.3413 15.2534 36.2957 15.2648C35.1588 15.3599 34.0569 15.7053 33.0692 16.2762C32.7268 16.4767 32.4001 16.7029 32.092 16.9529C31.3626 17.6758 30.7841 18.5364 30.3899 19.4847C29.9957 20.433 29.7937 21.4502 29.7957 22.4771C29.7957 22.6196 29.7957 22.7549 29.8085 22.8931C29.9094 24.7971 30.7042 26.5982 32.0428 27.956C33.3815 29.3138 35.1711 30.1341 37.0735 30.2621H37.1789C37.3214 30.2692 37.4567 30.2735 37.5963 30.2735C39.3645 30.2752 41.0801 29.672 42.4581 28.5641L42.4596 28.5769Z" fill="#594700"/>
<path d="M31.589 13.4841C36.3055 11.041 40.1361 12.3117 42.7002 13.8359C46.4039 16.3217 48.7401 20.4856 47.4623 25.9884V25.977C46.9745 27.8073 46.0147 29.4775 44.6788 30.8204C46.0581 29.4734 47.061 27.7889 47.5877 25.9343V25.9443C48.7657 21.3858 47.2843 17.7662 44.8127 15.212C42.1646 12.7704 37.6774 10.3587 31.589 13.4841Z" fill="#FFF2BE"/>
<g filter="url(#filter1_f_1917_41415)">
<path d="M37.3511 19.9106C37.076 19.3602 36.8925 19.2227 36.8352 19.2227C36.9569 19.3009 37.0072 19.7386 37.1792 20.0825C37.5637 20.8516 38.1766 22.0431 40.1028 22.3182C42.0289 22.5934 42.059 24.382 41.9945 25.0699C42.8544 22.8342 40.9485 21.9743 40.1028 21.9743C38.383 21.9743 37.6951 20.5985 37.3511 19.9106Z" fill="#AA8800"/>
<path d="M37.8671 24.382C37.8671 23.1141 36.8926 22.5476 36.4913 22.4902C37.3168 23.0406 37.3512 23.866 37.3512 24.382C38.0391 25.8954 39.3576 25.5858 39.9309 25.2419C38.2111 25.2419 37.8671 24.7259 37.8671 24.382Z" fill="#AA8800"/>
<path d="M34.2554 21.6298C33.1547 21.2171 33.6248 20.3687 33.9114 20.082C33.7394 20.1394 33.2235 20.5292 33.2235 20.9419C33.2235 21.3547 33.9114 21.5725 34.2554 21.6298Z" fill="#AA8800"/>
</g>
<path d="M37.3511 19.9106C37.076 19.3602 36.8925 19.2227 36.8352 19.2227C36.9569 19.3009 37.0072 19.7386 37.1792 20.0825C37.5637 20.8516 38.1766 22.0431 40.1028 22.3182C42.0289 22.5934 42.059 24.382 41.9945 25.0699C42.8544 22.8342 40.9485 21.9743 40.1028 21.9743C38.383 21.9743 37.6951 20.5985 37.3511 19.9106Z" fill="#FFF2BE"/>
<path d="M37.8671 24.382C37.8671 23.1141 36.8926 22.5476 36.4913 22.4902C37.3168 23.0406 37.3512 23.866 37.3512 24.382C38.0391 25.8954 39.3576 25.5858 39.9309 25.2419C38.2111 25.2419 37.8671 24.7259 37.8671 24.382Z" fill="#FFF2BE"/>
<path d="M34.2554 21.6298C33.1547 21.2171 33.6248 20.3687 33.9114 20.082C33.7394 20.1394 33.2235 20.5292 33.2235 20.9419C33.2235 21.3547 33.9114 21.5725 34.2554 21.6298Z" fill="#FFF2BE"/>
<path d="M37.3402 19.0298C37.4235 18.983 37.5106 18.9394 37.6018 18.899C38.0518 18.6996 38.5633 18.5998 39.1361 18.5998C39.7191 18.5998 40.228 18.6996 40.6627 18.899C41.1 19.0985 41.4401 19.3759 41.683 19.7314C41.9259 20.0868 42.0512 20.4985 42.0589 20.9665H40.4671C40.4364 20.6571 40.3047 20.4167 40.072 20.2454C39.8393 20.074 39.5235 19.9884 39.1246 19.9884C38.8535 19.9884 38.6246 20.0267 38.438 20.1034C38.2781 20.167 38.1501 20.252 38.054 20.3587C37.7988 19.9868 37.6129 19.5977 37.4575 19.2725C37.4165 19.1866 37.3777 19.1052 37.3402 19.0298Z" fill="#FFE16B"/>
<path d="M35.664 25.01C35.5821 25.0679 35.488 25.1175 35.3818 25.1589C35.1747 25.2408 34.9305 25.2817 34.6492 25.2817C34.3628 25.2817 34.1058 25.2382 33.8782 25.1513C33.6532 25.0618 33.4729 24.9301 33.3374 24.7562C33.2044 24.5797 33.129 24.3598 33.1111 24.0964H31.5039C31.5167 24.6616 31.6535 25.1359 31.9143 25.5195C32.1777 25.9005 32.5434 26.1882 33.0113 26.3825C33.4819 26.5769 34.0342 26.674 34.6684 26.674C35.3077 26.674 35.8536 26.5782 36.3062 26.3864C36.3086 26.3854 36.311 26.3844 36.3133 26.3833C35.9716 26.0743 35.6761 25.6844 35.6761 25.2565C35.6761 25.1723 35.6722 25.09 35.664 25.01Z" fill="#FFE16B"/>
<path fill-rule="evenodd" clip-rule="evenodd" d="M37.2608 19.9277C37.6319 20.7349 38.1879 21.9443 39.8663 22.0842C41.9569 22.2584 42.2763 23.8263 42.1311 24.6974C41.9279 25.9169 40.0405 27.8333 36.9046 26.0911C36.6498 25.9495 36.0336 25.3943 36.0336 24.6974C36.0336 24.0005 35.6851 23.4779 34.814 23.3037C33.943 23.1294 31.5039 22.6068 31.6781 20.6904C31.8524 18.774 35.3367 17.7287 36.9046 19.2967C37.027 19.419 37.1329 19.6495 37.2608 19.9277ZM33.4203 20.6904C33.6526 19.9936 34.814 19.4709 35.6851 20.342C35.8333 20.4902 36.0335 20.6904 36.2077 21.2131C36.2198 21.2491 36.2315 21.2857 36.2433 21.3227C36.4561 21.9877 36.7219 22.8178 39.6921 23.4779C40.1128 23.5714 40.8071 23.8612 40.3889 24.6974C39.9708 25.5336 38.6468 25.3943 38.1241 25.0458C38.008 24.9878 37.6015 24.7494 37.6015 24.1747C37.6015 23.4779 37.4273 22.781 35.6851 22.0842C35.4776 22.0012 35.2246 21.9261 34.9634 21.8485C34.1279 21.6005 33.2079 21.3274 33.4203 20.6904Z" fill="#FFE16B"/>
<mask id="mask0_1917_41415" style="mask-type:alpha" maskUnits="userSpaceOnUse" x="31" y="18" width="12" height="9">
<path d="M37.3402 19.0298C37.4235 18.983 37.5106 18.9394 37.6018 18.899C38.0518 18.6996 38.5633 18.5998 39.1361 18.5998C39.7191 18.5998 40.228 18.6996 40.6627 18.899C41.1 19.0985 41.4401 19.3759 41.683 19.7314C41.9259 20.0868 42.0512 20.4985 42.0589 20.9665H40.4671C40.4364 20.6571 40.3047 20.4167 40.072 20.2454C39.8393 20.074 39.5235 19.9884 39.1246 19.9884C38.8535 19.9884 38.6246 20.0267 38.438 20.1034C38.2781 20.167 38.1501 20.252 38.054 20.3587C37.7988 19.9868 37.6129 19.5977 37.4575 19.2725C37.4165 19.1866 37.3777 19.1052 37.3402 19.0298Z" fill="#2B892B"/>
<path d="M35.664 25.01C35.5821 25.0679 35.488 25.1175 35.3818 25.1589C35.1747 25.2408 34.9305 25.2817 34.6492 25.2817C34.3628 25.2817 34.1058 25.2382 33.8782 25.1513C33.6532 25.0618 33.4729 24.9301 33.3374 24.7562C33.2044 24.5797 33.129 24.3598 33.1111 24.0964H31.5039C31.5167 24.6616 31.6535 25.1359 31.9143 25.5195C32.1777 25.9005 32.5434 26.1882 33.0113 26.3825C33.4819 26.5769 34.0342 26.674 34.6684 26.674C35.3077 26.674 35.8536 26.5782 36.3062 26.3864C36.3086 26.3854 36.311 26.3844 36.3133 26.3833C35.9716 26.0743 35.6761 25.6844 35.6761 25.2565C35.6761 25.1723 35.6722 25.09 35.664 25.01Z" fill="#2B892B"/>
<path fill-rule="evenodd" clip-rule="evenodd" d="M37.2608 19.9277C37.6319 20.7349 38.1879 21.9443 39.8663 22.0842C41.9569 22.2584 42.2763 23.8263 42.1311 24.6974C41.9279 25.9169 40.0405 27.8333 36.9046 26.0911C36.6498 25.9495 36.0336 25.3943 36.0336 24.6974C36.0336 24.0005 35.6851 23.4779 34.814 23.3037C33.943 23.1294 31.5039 22.6068 31.6781 20.6904C31.8524 18.774 35.3367 17.7287 36.9046 19.2967C37.027 19.419 37.1329 19.6495 37.2608 19.9277ZM33.4203 20.6904C33.6526 19.9936 34.814 19.4709 35.6851 20.342C35.8333 20.4902 36.0335 20.6904 36.2077 21.2131C36.2198 21.2491 36.2315 21.2857 36.2433 21.3227C36.4561 21.9877 36.7219 22.8178 39.6921 23.4779C40.1128 23.5714 40.8071 23.8612 40.3889 24.6974C39.9708 25.5336 38.6468 25.3943 38.1241 25.0458C38.008 24.9878 37.6015 24.7494 37.6015 24.1747C37.6015 23.4779 37.4273 22.781 35.6851 22.0842C35.4776 22.0012 35.2246 21.9261 34.9634 21.8485C34.1279 21.6005 33.2079 21.3274 33.4203 20.6904Z" fill="#2B892B"/>
</mask>
<g mask="url(#mask0_1917_41415)">
<path opacity="0.15" d="M41.8015 13.2031C42.3763 13.4875 42.9253 13.8211 43.4425 14.2003L29.327 30.8984C28.8671 30.4511 28.4471 29.9645 28.072 29.444L41.8015 13.2031Z" fill="#FFF2BE"/>
<path opacity="0.15" d="M40.2003 12.5664C40.5393 12.6718 40.8717 12.7924 41.1974 12.9282L27.7002 28.8942C27.5122 28.5964 27.3341 28.2916 27.1746 27.9753L40.2003 12.5664Z" fill="#FFF2BE"/>
<path opacity="0.15" d="M45.9938 16.8301C46.3466 17.3419 46.6545 17.8834 46.914 18.4483L34.0934 33.6179L33.9196 33.5709C33.3828 33.4137 32.8589 33.2151 32.3527 32.9769L45.9938 16.8301Z" fill="#FFF2BE"/>
</g>
<mask id="path-28-inside-1_1917_41415" fill="white">
<path fill-rule="evenodd" clip-rule="evenodd" d="M26.6054 29H25C20.0294 29 16 33.0294 16 38C16 42.9706 20.0294 47 25 47H49C53.9706 47 58 42.9706 58 38C58 33.0294 53.9706 29 49 29H47.3946C45.3198 32.5868 41.4417 35 37 35C32.5583 35 28.6802 32.5868 26.6054 29Z"/>
</mask>
<g filter="url(#filter2_i_1917_41415)">
<path fill-rule="evenodd" clip-rule="evenodd" d="M26.6054 29H25C20.0294 29 16 33.0294 16 38C16 42.9706 20.0294 47 25 47H49C53.9706 47 58 42.9706 58 38C58 33.0294 53.9706 29 49 29H47.3946C45.3198 32.5868 41.4417 35 37 35C32.5583 35 28.6802 32.5868 26.6054 29Z" fill="#FCCE17"/>
</g>
<path d="M26.6054 29L27.471 28.4993L27.1822 28H26.6054V29ZM47.3946 29V28H46.8178L46.529 28.4993L47.3946 29ZM25 30H26.6054V28H25V30ZM17 38C17 33.5817 20.5817 30 25 30V28C19.4772 28 15 32.4772 15 38H17ZM25 46C20.5817 46 17 42.4183 17 38H15C15 43.5228 19.4772 48 25 48V46ZM49 46H25V48H49V46ZM57 38C57 42.4183 53.4183 46 49 46V48C54.5228 48 59 43.5228 59 38H57ZM49 30C53.4183 30 57 33.5817 57 38H59C59 32.4772 54.5228 28 49 28V30ZM47.3946 30H49V28H47.3946V30ZM46.529 28.4993C44.6255 31.7898 41.0703 34 37 34V36C41.8131 36 46.014 33.3838 48.2602 29.5007L46.529 28.4993ZM37 34C32.9297 34 29.3745 31.7898 27.471 28.4993L25.7398 29.5007C27.986 33.3838 32.1869 36 37 36V34Z" fill="#AA8800" mask="url(#path-28-inside-1_1917_41415)"/>
</g>
<defs>
<filter id="filter0_di_1917_41415" x="0" y="0" width="74" height="74" filterUnits="userSpaceOnUse" color-interpolation-filters="sRGB">
<feFlood flood-opacity="0" result="BackgroundImageFix"/>
<feColorMatrix in="SourceAlpha" type="matrix" values="0 0 0 0 0 0 0 0 0 0 0 0 0 0 0 0 0 0 127 0" result="hardAlpha"/>
<feOffset dy="4"/>
<feGaussianBlur stdDeviation="4"/>
<feColorMatrix type="matrix" values="0 0 0 0 0.08 0 0 0 0 0.08 0 0 0 0 0.08 0 0 0 0.12 0"/>
<feBlend mode="normal" in2="BackgroundImageFix" result="effect1_dropShadow_1917_41415"/>
<feBlend mode="normal" in="SourceGraphic" in2="effect1_dropShadow_1917_41415" result="shape"/>
<feColorMatrix in="SourceAlpha" type="matrix" values="0 0 0 0 0 0 0 0 0 0 0 0 0 0 0 0 0 0 127 0" result="hardAlpha"/>
<feOffset dy="2"/>
<feGaussianBlur stdDeviation="2"/>
<feComposite in2="hardAlpha" operator="arithmetic" k2="-1" k3="1"/>
<feColorMatrix type="matrix" values="0 0 0 0 0 0 0 0 0 0 0 0 0 0 0 0 0 0 0.16 0"/>
<feBlend mode="normal" in2="shape" result="effect2_innerShadow_1917_41415"/>
</filter>
<filter id="filter1_f_1917_41415" x="17.2235" y="3.22266" width="40.9889" height="38.3027" filterUnits="userSpaceOnUse" color-interpolation-filters="sRGB">
<feFlood flood-opacity="0" result="BackgroundImageFix"/>
<feBlend mode="normal" in="SourceGraphic" in2="BackgroundImageFix" result="shape"/>
<feGaussianBlur stdDeviation="8" result="effect1_foregroundBlur_1917_41415"/>
</filter>
<filter id="filter2_i_1917_41415" x="16" y="29" width="42" height="22" filterUnits="userSpaceOnUse" color-interpolation-filters="sRGB">
<feFlood flood-opacity="0" result="BackgroundImageFix"/>
<feBlend mode="normal" in="SourceGraphic" in2="BackgroundImageFix" result="shape"/>
<feColorMatrix in="SourceAlpha" type="matrix" values="0 0 0 0 0 0 0 0 0 0 0 0 0 0 0 0 0 0 127 0" result="hardAlpha"/>
<feOffset dy="4"/>
<feGaussianBlur stdDeviation="4"/>
<feComposite in2="hardAlpha" operator="arithmetic" k2="-1" k3="1"/>
<feColorMatrix type="matrix" values="0 0 0 0 0 0 0 0 0 0 0 0 0 0 0 0 0 0 0.24 0"/>
<feBlend mode="normal" in2="shape" result="effect1_innerShadow_1917_41415"/>
</filter>
</defs>
</svg>
