<svg width="33" height="32" viewBox="0 0 33 32" fill="none" xmlns="http://www.w3.org/2000/svg">
<path d="M30.1667 16C30.1667 23.728 23.9017 30 16.1667 30C8.43175 30 2.16675 23.728 2.16675 16C2.16675 8.26499 8.43175 1.99999 16.1667 1.99999C23.9017 1.99999 30.1667 8.26499 30.1667 16Z" fill="black"/>
<path d="M22.7289 12.4574C22.6525 12.502 20.8338 13.4425 20.8338 15.5279C20.9195 17.9061 23.1289 18.7401 23.1667 18.7401C23.1289 18.7847 22.8332 19.8763 21.9574 21.0205C21.2624 22.0062 20.491 23 19.3195 23C18.2052 23 17.8052 22.3431 16.5195 22.3431C15.1388 22.3431 14.7481 23 13.6909 23C12.5195 23 11.6909 21.953 10.958 20.9766C10.0058 19.6986 9.19653 17.6931 9.16795 15.7675C9.1487 14.7471 9.35864 13.744 9.89156 12.8921C10.6437 11.7026 11.9866 10.8952 13.4531 10.8686C14.5767 10.8333 15.5767 11.5875 16.2624 11.5875C16.9195 11.5875 18.1481 10.8686 19.5382 10.8686C20.1382 10.8692 21.7382 11.0376 22.7289 12.4574ZM16.1674 10.6649C15.9674 9.73303 16.5195 8.80119 17.0338 8.20677C17.691 7.48792 18.7288 7 19.6239 7C19.681 7.93185 19.3189 8.84575 18.6717 9.51136C18.091 10.2302 17.091 10.7714 16.1674 10.6649Z" fill="white"/>
</svg>
