<svg width="13" height="13" viewBox="0 0 13 13" fill="none" xmlns="http://www.w3.org/2000/svg">
<path d="M6.49994 11.5104C6.39702 11.5104 6.29411 11.4725 6.21286 11.3913L2.92494 8.10336C2.76786 7.94627 2.76786 7.68627 2.92494 7.52919C3.08202 7.37211 3.34202 7.37211 3.49911 7.52919L6.49994 10.53L9.50078 7.52919C9.65786 7.37211 9.91786 7.37211 10.0749 7.52919C10.232 7.68627 10.232 7.94627 10.0749 8.10336L6.78702 11.3913C6.70577 11.4725 6.60286 11.5104 6.49994 11.5104Z" fill="#EB5757"/>
<path d="M6.5 11.4184C6.27792 11.4184 6.09375 11.2342 6.09375 11.0121V1.89587C6.09375 1.67379 6.27792 1.48962 6.5 1.48962C6.72208 1.48962 6.90625 1.67379 6.90625 1.89587V11.0121C6.90625 11.2342 6.72208 11.4184 6.5 11.4184Z" fill="#EB5757"/>
</svg>
