<svg width="24" height="24" viewBox="0 0 24 24" fill="none" xmlns="http://www.w3.org/2000/svg">
<path d="M4.20639 11.6466L3.85283 12.0001L4.20639 12.3537L9.74639 17.8937C9.84113 17.9884 9.84113 18.1518 9.74639 18.2466L9.74029 18.2527L9.73441 18.259C9.70417 18.2914 9.6453 18.3201 9.56994 18.3201C9.50539 18.3201 9.44478 18.2979 9.39349 18.2466L3.32349 12.1766C3.22876 12.0818 3.22876 11.9184 3.32349 11.8237L9.39349 5.75367C9.48823 5.65893 9.65165 5.65893 9.74639 5.75367C9.84113 5.84841 9.84113 6.01183 9.74639 6.10656L4.20639 11.6466Z" fill="#141414" stroke="#141414"/>
<path d="M20.5 12.25H3.67004C3.53619 12.25 3.42004 12.1339 3.42004 12C3.42004 11.8661 3.53619 11.75 3.67004 11.75H20.5C20.6339 11.75 20.75 11.8661 20.75 12C20.75 12.1339 20.6339 12.25 20.5 12.25Z" fill="#141414" stroke="#141414"/>
</svg>
