<svg width="14" height="13" viewBox="0 0 14 13" fill="none" xmlns="http://www.w3.org/2000/svg">
<path d="M10.2879 5.59003C10.1849 5.59003 10.082 5.55211 10.0008 5.47086L6.99994 2.47003L3.99911 5.47086C3.84202 5.62795 3.58202 5.62795 3.42494 5.47086C3.26786 5.31378 3.26786 5.05378 3.42494 4.8967L6.71286 1.60878C6.86994 1.4517 7.12994 1.4517 7.28702 1.60878L10.5749 4.8967C10.732 5.05378 10.732 5.31378 10.5749 5.47086C10.4991 5.55211 10.3908 5.59003 10.2879 5.59003Z" fill="#27AE60"/>
<path d="M7 11.5104C6.77792 11.5104 6.59375 11.3262 6.59375 11.1042V1.98792C6.59375 1.76583 6.77792 1.58167 7 1.58167C7.22208 1.58167 7.40625 1.76583 7.40625 1.98792V11.1042C7.40625 11.3262 7.22208 11.5104 7 11.5104Z" fill="#27AE60"/>
</svg>
