<svg width="215" height="138" viewBox="0 0 215 138" fill="none" xmlns="http://www.w3.org/2000/svg">
<g id="Group 1780">
<g id="Group 1778" filter="url(#filter0_d_655_32792)">
<circle id="Ellipse 9" cx="183.538" cy="59.8302" r="46.8302" fill="#2B892B"/>
<path id="Vector 3338" d="M175.393 21.6057L165.053 33.516L175.393 47.5378H196.615L206.793 33.516L196.615 21.6057C188.083 18.7472 178.912 20.4146 175.393 21.6057Z" stroke="url(#paint0_linear_655_32792)" stroke-width="3.67835"/>
<path id="Vector 3339" d="M196.778 51.5977H175.339L168.68 71.4122L186.004 83.9181L203.112 71.4122L196.778 51.5977Z" fill="url(#paint1_linear_655_32792)"/>
<path id="Vector 3340" d="M165.919 70.4382L149.082 75.7979C146.873 73.156 142.496 65.4575 140.583 61.9386C139.673 56.7413 144.21 46.5272 146.592 42.0699L162.021 36.0605L172.253 50.353L165.919 70.4382Z" stroke="url(#paint2_linear_655_32792)" stroke-width="3.67835"/>
<path id="Vector 3341" d="M183.785 86.3549L166.948 74.1738L150.111 79.4252C149.858 80.9591 149.634 84.4925 150.76 86.3549" stroke="url(#paint3_linear_655_32792)" stroke-width="3.67835"/>
<path id="Vector 3342" d="M188.441 86.3545L205.494 74.2275L222.006 79.8038L221.627 86.1921" stroke="url(#paint4_linear_655_32792)" stroke-width="3.67835"/>
<path id="Vector 3343" d="M222.169 75.527L206.577 70.6545L199.756 49.9738L210.15 35.8438L222.115 40.9327" stroke="url(#paint5_linear_655_32792)" stroke-width="3.67835"/>
<path id="Vector 3344" d="M211.503 32.4334C207.735 30.1812 204.303 25.3233 203.058 23.1758C213.582 26.5973 219.498 33.6966 221.14 36.8186C219.498 36.2952 215.271 34.6855 211.503 32.4334Z" fill="url(#paint6_linear_655_32792)"/>
<path id="Vector 3345" d="M156.986 29.8887C160.213 26.9125 166.322 24.0325 168.734 23.4463C163.158 33.3536 154.274 35.6942 150.815 36.3853C151.782 34.9585 153.76 32.8649 156.986 29.8887Z" fill="url(#paint7_linear_655_32792)"/>
<path id="Vector 3346" d="M142.586 82.2397C141.081 78.1159 139.779 71.2943 139.865 68.8135C147.9 76.8564 147.185 86.3017 146.917 89.8191C145.804 88.503 145.034 88.9495 142.586 82.2397Z" fill="url(#paint8_linear_655_32792)"/>
</g>
<g id="Group 1779" filter="url(#filter1_d_655_32792)">
<circle id="Ellipse 9_2" cx="93.4406" cy="115.314" r="46.8302" fill="#2B892B"/>
<path id="Vector 3338_2" d="M61.5998 90.7247L61.3788 104.922L76.628 108.589L91.2476 96.2902L90.1331 80.7325L76.2193 78.426C68.6851 81.4014 63.3337 87.8649 61.5998 90.7247Z" stroke="url(#paint9_linear_655_32792)" stroke-width="3.67835"/>
<path id="Vector 3339_2" d="M93.7127 98.9941L78.944 111.418L85.8397 128.927L105.021 127.503L109.559 108.973L93.7127 98.9941Z" fill="url(#paint10_linear_655_32792)"/>
<path id="Vector 3340_2" d="M83.3728 129.856L74.8801 143.306C71.8274 142.766 64.3501 139.999 60.993 138.684C57.3545 135.631 54.5606 125.965 53.6184 121.514L60.7649 108.433L76.0964 112.349L83.3728 129.856Z" stroke="url(#paint11_linear_655_32792)" stroke-width="3.67835"/>
<path id="Vector 3341_2" d="M104.904 130.467L86.2462 131.833L77.6908 145.208C78.4057 146.411 80.2992 148.975 82.1542 149.605" stroke="url(#paint12_linear_655_32792)" stroke-width="3.67835"/>
<path id="Vector 3342_2" d="M108.112 127.768L112.832 109.531L127.438 103.803L130.879 108.424" stroke="url(#paint13_linear_655_32792)" stroke-width="3.67835"/>
<path id="Vector 3343_2" d="M125.071 100.763L111.507 106.442L94.8227 96.149L93.7946 80.3912L104.986 76.9632" stroke="url(#paint14_linear_655_32792)" stroke-width="3.67835"/>
<path id="Vector 3344_2" d="M92.7504 77.2575C88.8495 77.8896 83.6697 76.5322 81.5674 75.7744C90.8004 72.0323 98.9896 73.4947 101.93 74.6937C100.496 75.2849 96.6513 76.6253 92.7504 77.2575Z" fill="url(#paint15_linear_655_32792)"/>
<path id="Vector 3345_2" d="M53.7199 107.099C54.218 103.179 56.7574 97.6543 58.0793 95.8525C59.9795 105.909 55.2156 112.67 53.2332 115.151C53.0724 113.608 53.2218 111.019 53.7199 107.099Z" fill="url(#paint16_linear_655_32792)"/>
</g>
<g id="Group 1777" filter="url(#filter2_d_655_32792)">
<circle id="Ellipse 9_3" cx="158.087" cy="119.386" r="58.0288" fill="#2B892B"/>
<path id="Vector 3338_3" d="M146.918 68.8051L134.606 82.9868L146.918 99.6825H172.188L184.307 82.9868L172.188 68.8051C162.028 65.4015 151.109 67.3869 146.918 68.8051Z" stroke="url(#paint17_linear_655_32792)" stroke-width="3.67835"/>
<path id="Vector 3339_3" d="M172.381 104.517H146.854L138.925 128.11L159.553 143.001L179.923 128.11L172.381 104.517Z" fill="url(#paint18_linear_655_32792)"/>
<path id="Vector 3340_3" d="M135.637 126.949L115.59 133.331C112.96 130.185 107.747 121.019 105.469 116.829C104.386 110.64 109.788 98.4783 112.624 93.1709L130.996 86.0156L143.179 103.034L135.637 126.949Z" stroke="url(#paint19_linear_655_32792)" stroke-width="3.67835"/>
<path id="Vector 3341_3" d="M156.91 145.901L136.862 131.397L116.814 137.65C116.514 139.477 116.247 143.684 117.588 145.901" stroke="url(#paint20_linear_655_32792)" stroke-width="3.67835"/>
<path id="Vector 3342_3" d="M162.454 145.901L182.759 131.462L202.42 138.102L201.969 145.708" stroke="url(#paint21_linear_655_32792)" stroke-width="3.67835"/>
<path id="Vector 3343_3" d="M202.614 133.009L184.049 127.207L175.927 102.582L188.303 85.7578L202.549 91.8173" stroke="url(#paint22_linear_655_32792)" stroke-width="3.67835"/>
<path id="Vector 3344_3" d="M189.915 81.6969C185.428 79.0152 181.341 73.2308 179.859 70.6738C192.39 74.7478 199.434 83.201 201.389 86.9183C199.434 86.2952 194.401 84.3785 189.915 81.6969Z" fill="url(#paint23_linear_655_32792)"/>
<path id="Vector 3345_3" d="M125.001 78.6671C128.843 75.1233 136.117 71.6941 138.99 70.9961C132.35 82.7927 121.771 85.5797 117.652 86.4026C118.804 84.7036 121.159 82.2109 125.001 78.6671Z" fill="url(#paint24_linear_655_32792)"/>
<path id="Vector 3346_2" d="M107.854 141.002C106.062 136.092 104.512 127.97 104.615 125.016C114.182 134.592 113.33 145.839 113.011 150.027C111.686 148.46 110.77 148.992 107.854 141.002Z" fill="url(#paint25_linear_655_32792)"/>
</g>
</g>
<defs>
<filter id="filter0_d_655_32792" x="124.447" y="0.738829" width="113.278" height="113.278" filterUnits="userSpaceOnUse" color-interpolation-filters="sRGB">
<feFlood flood-opacity="0" result="BackgroundImageFix"/>
<feColorMatrix in="SourceAlpha" type="matrix" values="0 0 0 0 0 0 0 0 0 0 0 0 0 0 0 0 0 0 127 0" result="hardAlpha"/>
<feOffset dx="-2.45223" dy="-2.45223"/>
<feGaussianBlur stdDeviation="4.90447"/>
<feComposite in2="hardAlpha" operator="out"/>
<feColorMatrix type="matrix" values="0 0 0 0 0 0 0 0 0 0.564706 0 0 0 0 0.145098 0 0 0 0.12 0"/>
<feBlend mode="normal" in2="BackgroundImageFix" result="effect1_dropShadow_655_32792"/>
<feBlend mode="normal" in="SourceGraphic" in2="effect1_dropShadow_655_32792" result="shape"/>
</filter>
<filter id="filter1_d_655_32792" x="34.3492" y="56.2222" width="113.278" height="113.278" filterUnits="userSpaceOnUse" color-interpolation-filters="sRGB">
<feFlood flood-opacity="0" result="BackgroundImageFix"/>
<feColorMatrix in="SourceAlpha" type="matrix" values="0 0 0 0 0 0 0 0 0 0 0 0 0 0 0 0 0 0 127 0" result="hardAlpha"/>
<feOffset dx="-2.45223" dy="-2.45223"/>
<feGaussianBlur stdDeviation="4.90447"/>
<feComposite in2="hardAlpha" operator="out"/>
<feColorMatrix type="matrix" values="0 0 0 0 0 0 0 0 0 0.564706 0 0 0 0 0.145098 0 0 0 0.12 0"/>
<feBlend mode="normal" in2="BackgroundImageFix" result="effect1_dropShadow_655_32792"/>
<feBlend mode="normal" in="SourceGraphic" in2="effect1_dropShadow_655_32792" result="shape"/>
</filter>
<filter id="filter2_d_655_32792" x="80.44" y="41.7395" width="145.484" height="145.484" filterUnits="userSpaceOnUse" color-interpolation-filters="sRGB">
<feFlood flood-opacity="0" result="BackgroundImageFix"/>
<feColorMatrix in="SourceAlpha" type="matrix" values="0 0 0 0 0 0 0 0 0 0 0 0 0 0 0 0 0 0 127 0" result="hardAlpha"/>
<feOffset dx="-4.90447" dy="-4.90447"/>
<feGaussianBlur stdDeviation="7.3567"/>
<feColorMatrix type="matrix" values="0 0 0 0 0 0 0 0 0 0.564706 0 0 0 0 0.145098 0 0 0 0.16 0"/>
<feBlend mode="normal" in2="BackgroundImageFix" result="effect1_dropShadow_655_32792"/>
<feBlend mode="normal" in="SourceGraphic" in2="effect1_dropShadow_655_32792" result="shape"/>
</filter>
<linearGradient id="paint0_linear_655_32792" x1="164.987" y1="35.142" x2="206.728" y2="35.142" gradientUnits="userSpaceOnUse">
<stop stop-color="#104210"/>
<stop offset="1" stop-color="#104210" stop-opacity="0"/>
</linearGradient>
<linearGradient id="paint1_linear_655_32792" x1="168.626" y1="69.3549" x2="203.058" y2="69.3549" gradientUnits="userSpaceOnUse">
<stop stop-color="#104210"/>
<stop offset="1" stop-color="#104210" stop-opacity="0"/>
</linearGradient>
<linearGradient id="paint2_linear_655_32792" x1="140.414" y1="57.8928" x2="172.203" y2="57.8928" gradientUnits="userSpaceOnUse">
<stop stop-color="#104210"/>
<stop offset="1" stop-color="#104210" stop-opacity="0"/>
</linearGradient>
<linearGradient id="paint3_linear_655_32792" x1="149.852" y1="80.8663" x2="183.731" y2="80.8663" gradientUnits="userSpaceOnUse">
<stop stop-color="#104210"/>
<stop offset="1" stop-color="#104210" stop-opacity="0"/>
</linearGradient>
<linearGradient id="paint4_linear_655_32792" x1="188.388" y1="80.8902" x2="221.954" y2="80.8902" gradientUnits="userSpaceOnUse">
<stop stop-color="#104210"/>
<stop offset="1" stop-color="#104210" stop-opacity="0"/>
</linearGradient>
<linearGradient id="paint5_linear_655_32792" x1="199.72" y1="57.6463" x2="222.134" y2="57.6463" gradientUnits="userSpaceOnUse">
<stop stop-color="#104210"/>
<stop offset="1" stop-color="#104210" stop-opacity="0"/>
</linearGradient>
<linearGradient id="paint6_linear_655_32792" x1="203.029" y1="30.6713" x2="221.112" y2="30.6713" gradientUnits="userSpaceOnUse">
<stop stop-color="#104210"/>
<stop offset="1" stop-color="#104210" stop-opacity="0"/>
</linearGradient>
<linearGradient id="paint7_linear_655_32792" x1="161.616" y1="21.3164" x2="156.667" y2="38.0841" gradientUnits="userSpaceOnUse">
<stop stop-color="#104210"/>
<stop offset="1" stop-color="#104210" stop-opacity="0"/>
</linearGradient>
<linearGradient id="paint8_linear_655_32792" x1="135.741" y1="75.3364" x2="150.258" y2="84.4434" gradientUnits="userSpaceOnUse">
<stop stop-color="#104210"/>
<stop offset="1" stop-color="#104210" stop-opacity="0"/>
</linearGradient>
<linearGradient id="paint9_linear_655_32792" x1="62.2758" y1="106.08" x2="91.0302" y2="81.8906" gradientUnits="userSpaceOnUse">
<stop stop-color="#104210"/>
<stop offset="1" stop-color="#104210" stop-opacity="0"/>
</linearGradient>
<linearGradient id="paint10_linear_655_32792" x1="84.6101" y1="127.541" x2="108.33" y2="107.587" gradientUnits="userSpaceOnUse">
<stop stop-color="#104210"/>
<stop offset="1" stop-color="#104210" stop-opacity="0"/>
</linearGradient>
<linearGradient id="paint11_linear_655_32792" x1="58.5322" y1="135.995" x2="80.4315" y2="117.572" gradientUnits="userSpaceOnUse">
<stop stop-color="#104210"/>
<stop offset="1" stop-color="#104210" stop-opacity="0"/>
</linearGradient>
<linearGradient id="paint12_linear_655_32792" x1="78.3478" y1="146.35" x2="101.687" y2="126.716" gradientUnits="userSpaceOnUse">
<stop stop-color="#104210"/>
<stop offset="1" stop-color="#104210" stop-opacity="0"/>
</linearGradient>
<linearGradient id="paint13_linear_655_32792" x1="104.909" y1="124.034" x2="128.031" y2="104.582" gradientUnits="userSpaceOnUse">
<stop stop-color="#104210"/>
<stop offset="1" stop-color="#104210" stop-opacity="0"/>
</linearGradient>
<linearGradient id="paint14_linear_655_32792" x1="99.2448" y1="101.455" x2="114.685" y2="88.4659" gradientUnits="userSpaceOnUse">
<stop stop-color="#104210"/>
<stop offset="1" stop-color="#104210" stop-opacity="0"/>
</linearGradient>
<linearGradient id="paint15_linear_655_32792" x1="85.8916" y1="80.9544" x2="98.3481" y2="70.4755" gradientUnits="userSpaceOnUse">
<stop stop-color="#104210"/>
<stop offset="1" stop-color="#104210" stop-opacity="0"/>
</linearGradient>
<linearGradient id="paint16_linear_655_32792" x1="51.9415" y1="98.5104" x2="58.2489" y2="112.93" gradientUnits="userSpaceOnUse">
<stop stop-color="#104210"/>
<stop offset="1" stop-color="#104210" stop-opacity="0"/>
</linearGradient>
<linearGradient id="paint17_linear_655_32792" x1="134.528" y1="84.9228" x2="184.228" y2="84.9228" gradientUnits="userSpaceOnUse">
<stop stop-color="#104210"/>
<stop offset="1" stop-color="#104210" stop-opacity="0"/>
</linearGradient>
<linearGradient id="paint18_linear_655_32792" x1="138.861" y1="125.66" x2="179.859" y2="125.66" gradientUnits="userSpaceOnUse">
<stop stop-color="#104210"/>
<stop offset="1" stop-color="#104210" stop-opacity="0"/>
</linearGradient>
<linearGradient id="paint19_linear_655_32792" x1="105.268" y1="112.011" x2="143.12" y2="112.011" gradientUnits="userSpaceOnUse">
<stop stop-color="#104210"/>
<stop offset="1" stop-color="#104210" stop-opacity="0"/>
</linearGradient>
<linearGradient id="paint20_linear_655_32792" x1="116.507" y1="139.366" x2="156.847" y2="139.366" gradientUnits="userSpaceOnUse">
<stop stop-color="#104210"/>
<stop offset="1" stop-color="#104210" stop-opacity="0"/>
</linearGradient>
<linearGradient id="paint21_linear_655_32792" x1="162.391" y1="139.395" x2="202.358" y2="139.395" gradientUnits="userSpaceOnUse">
<stop stop-color="#104210"/>
<stop offset="1" stop-color="#104210" stop-opacity="0"/>
</linearGradient>
<linearGradient id="paint22_linear_655_32792" x1="175.885" y1="111.718" x2="202.572" y2="111.718" gradientUnits="userSpaceOnUse">
<stop stop-color="#104210"/>
<stop offset="1" stop-color="#104210" stop-opacity="0"/>
</linearGradient>
<linearGradient id="paint23_linear_655_32792" x1="179.825" y1="79.5988" x2="201.355" y2="79.5988" gradientUnits="userSpaceOnUse">
<stop stop-color="#104210"/>
<stop offset="1" stop-color="#104210" stop-opacity="0"/>
</linearGradient>
<linearGradient id="paint24_linear_655_32792" x1="130.514" y1="68.46" x2="124.62" y2="88.4253" gradientUnits="userSpaceOnUse">
<stop stop-color="#104210"/>
<stop offset="1" stop-color="#104210" stop-opacity="0"/>
</linearGradient>
<linearGradient id="paint25_linear_655_32792" x1="99.7042" y1="132.783" x2="116.989" y2="143.626" gradientUnits="userSpaceOnUse">
<stop stop-color="#104210"/>
<stop offset="1" stop-color="#104210" stop-opacity="0"/>
</linearGradient>
</defs>
</svg>
