<svg width="16" height="16" viewBox="0 0 16 16" fill="none" xmlns="http://www.w3.org/2000/svg">
<g clip-path="url(#clip0_914_38202)">
<path d="M9.88536 5.17191L6.1147 8.94324C6.05102 9.00474 6.00023 9.0783 5.96529 9.15964C5.93036 9.24098 5.91196 9.32846 5.9112 9.41698C5.91043 9.5055 5.92729 9.59328 5.96081 9.67521C5.99433 9.75714 6.04384 9.83158 6.10643 9.89417C6.16903 9.95677 6.24346 10.0063 6.32539 10.0398C6.40732 10.0733 6.49511 10.0902 6.58363 10.0894C6.67215 10.0886 6.75963 10.0702 6.84096 10.0353C6.9223 10.0004 6.99586 9.94958 7.05736 9.88591L10.8287 6.11524C11.2038 5.74014 11.4145 5.23139 11.4145 4.70091C11.4145 4.17043 11.2038 3.66168 10.8287 3.28658C10.4536 2.91147 9.94484 2.70074 9.41436 2.70074C8.88388 2.70074 8.37513 2.91147 8.00003 3.28658L4.2287 7.05791C3.91275 7.36599 3.66111 7.73375 3.4884 8.13984C3.31569 8.54593 3.22533 8.98228 3.22256 9.42356C3.2198 9.86485 3.30468 10.3023 3.47229 10.7105C3.63991 11.1187 3.88691 11.4896 4.19897 11.8016C4.51104 12.1137 4.88195 12.3606 5.2902 12.5282C5.69845 12.6957 6.1359 12.7805 6.57719 12.7777C7.01847 12.7749 7.4548 12.6845 7.86087 12.5117C8.26694 12.3389 8.63465 12.0872 8.9427 11.7712L12.714 8.00058L13.6567 8.94324L9.88536 12.7146C9.452 13.1479 8.93752 13.4917 8.37131 13.7262C7.80509 13.9608 7.19823 14.0815 6.58536 14.0815C5.9725 14.0815 5.36563 13.9608 4.79941 13.7262C4.2332 13.4917 3.71872 13.1479 3.28536 12.7146C2.852 12.2812 2.50824 11.7667 2.2737 11.2005C2.03917 10.6343 1.91846 10.0274 1.91846 9.41458C1.91846 8.80171 2.03917 8.19484 2.2737 7.62863C2.50824 7.06241 2.852 6.54794 3.28536 6.11458L7.05736 2.34391C7.68604 1.73672 8.52804 1.40073 9.40203 1.40833C10.276 1.41592 11.1121 1.76649 11.7301 2.38451C12.3481 3.00254 12.6987 3.83858 12.7063 4.71257C12.7139 5.58656 12.3779 6.42857 11.7707 7.05724L8.00003 10.8299C7.81425 11.0156 7.59371 11.163 7.351 11.2635C7.10829 11.364 6.84816 11.4157 6.58546 11.4156C6.32276 11.4156 6.06264 11.3638 5.81996 11.2633C5.57727 11.1627 5.35676 11.0154 5.17103 10.8296C4.9853 10.6438 4.83797 10.4233 4.73747 10.1805C4.63697 9.93783 4.58526 9.6777 4.58529 9.41501C4.58532 9.15231 4.63709 8.89219 4.73765 8.6495C4.83821 8.40681 4.98559 8.18631 5.17136 8.00058L8.9427 4.22924L9.88536 5.17191Z" fill="#A3A3A3"/>
</g>
<defs>
<clipPath id="clip0_914_38202">
<rect width="16" height="16" fill="white"/>
</clipPath>
</defs>
</svg>
