<svg width="24" height="24" viewBox="0 0 24 24" fill="none" xmlns="http://www.w3.org/2000/svg">
<path d="M12 21C16.9706 21 21 16.9706 21 12C21 7.02944 16.9706 3 12 3C7.02944 3 3 7.02944 3 12C3 16.9706 7.02944 21 12 21Z" stroke="#141414" stroke-miterlimit="10" stroke-linecap="round"/>
<path d="M11.9998 8.20972L8.43311 11.2017L9.37482 14.9996H11.9998H14.6248L15.5665 11.2017L11.9998 8.20972Z" stroke="#141414" stroke-linecap="round" stroke-linejoin="round"/>
<path d="M15.5669 11.2018L18.0452 10.1518L19.2536 6.71777" stroke="#141414" stroke-linecap="round" stroke-linejoin="round"/>
<path d="M20.953 12.6547L18.0449 10.1521" stroke="#141414" stroke-linecap="round" stroke-linejoin="round"/>
<path d="M8.43331 11.2018L5.95502 10.1518L4.74658 6.71777" stroke="#141414" stroke-linecap="round" stroke-linejoin="round"/>
<path d="M3.04688 12.6547L5.955 10.1521" stroke="#141414" stroke-linecap="round" stroke-linejoin="round"/>
<path d="M12 8.20979V5.5112L15 3.51245" stroke="#141414" stroke-linecap="round" stroke-linejoin="round"/>
<path d="M9 3.5127L12 5.51191" stroke="#141414" stroke-linecap="round" stroke-linejoin="round"/>
<path d="M14.625 15L15.9375 17.25L14.625 20.5781" stroke="#141414" stroke-linecap="round" stroke-linejoin="round"/>
<path d="M19.2534 17.25H16.0312" stroke="#141414" stroke-linecap="round" stroke-linejoin="round"/>
<path d="M9.375 15L8.0625 17.25L9.39234 20.6016" stroke="#141414" stroke-linecap="round" stroke-linejoin="round"/>
<path d="M4.76416 17.25H8.06276" stroke="#141414" stroke-linecap="round" stroke-linejoin="round"/>
</svg>
