<svg width="20" height="20" viewBox="0 0 20 20" fill="none" xmlns="http://www.w3.org/2000/svg">
<path d="M10.366 11.366L12.141 12.391C11.0813 14.738 10.9699 17.4038 11.83 19.831C11.2266 19.9439 10.6139 20.0005 10 20C8.58301 20.0023 7.18184 19.7022 5.89 19.12L10.366 11.366ZM13.883 13.398L18.117 15.842C17.0141 17.3728 15.5019 18.5617 13.754 19.272C13.0883 17.4745 13.0911 15.4976 13.762 13.702L13.883 13.398ZM6.86 9.34201L8.635 10.366L4.159 18.116C2.5033 16.9235 1.25087 15.2542 0.569 13.331C2.98532 12.8848 5.15204 11.5627 6.654 9.61801L6.86 9.34201ZM19.906 8.61601C19.969 9.06901 20.001 9.53101 20.001 10C20.0032 11.417 19.7032 12.8182 19.121 14.11L14.885 11.665C16.0776 10.0909 17.8112 9.01463 19.751 8.64401L19.906 8.61601ZM0.881 5.89101L5.116 8.33601C3.89038 9.9534 2.09526 11.0438 0.0950001 11.386C0.0316848 10.9267 -5.63528e-05 10.4636 7.51027e-08 10C7.51027e-08 8.53501 0.315 7.14401 0.88 5.89001L0.881 5.89101ZM15.842 1.88301C17.4977 3.07553 18.7501 4.74486 19.432 6.66801C17.0153 7.11512 14.8483 8.43786 13.346 10.383L13.141 10.659L11.366 9.63401L15.842 1.88401V1.88301ZM10 7.06441e-06C11.465 7.06441e-06 12.856 0.315007 14.11 0.880007L9.634 8.63401L7.859 7.61001C8.91918 5.26243 9.03062 2.59585 8.17 0.168007C8.77349 0.0555157 9.38612 -0.000725488 10 7.06441e-06ZM6.247 0.730007C6.91171 2.5278 6.90816 4.50461 6.237 6.30001L6.117 6.60301L1.883 4.15801C2.94324 2.68698 4.38221 1.53069 6.047 0.812007L6.247 0.729007V0.730007Z" fill="white"/>
</svg>
