<svg width="21" height="20" viewBox="0 0 21 20" fill="none" xmlns="http://www.w3.org/2000/svg">
<path d="M17.2687 11.7168L16.327 10.1502C16.1187 9.8085 15.9354 9.15016 15.9354 8.75016V7.19183C15.9354 4.16683 13.477 1.7085 10.4604 1.7085C7.43536 1.71683 4.97702 4.16683 4.97702 7.19183V8.74183C4.97702 9.14183 4.79369 9.80016 4.59369 10.1418L3.65202 11.7085C3.29369 12.3168 3.21036 13.0085 3.43536 13.6085C3.66036 14.2168 4.16869 14.7002 4.83536 14.9168C5.73536 15.2168 6.64369 15.4335 7.56869 15.5918C7.66036 15.6085 7.75202 15.6168 7.84369 15.6335C7.96036 15.6502 8.08536 15.6668 8.21036 15.6835C8.42702 15.7168 8.64369 15.7418 8.86869 15.7585C9.39369 15.8085 9.92703 15.8335 10.4604 15.8335C10.9854 15.8335 11.5104 15.8085 12.027 15.7585C12.2187 15.7418 12.4104 15.7252 12.5937 15.7002C12.7437 15.6835 12.8937 15.6668 13.0437 15.6418C13.1354 15.6335 13.227 15.6168 13.3187 15.6002C14.252 15.4502 15.177 15.2168 16.077 14.9168C16.7187 14.7002 17.2104 14.2168 17.4437 13.6002C17.677 12.9752 17.6104 12.2918 17.2687 11.7168ZM11.0687 8.3335C11.0687 8.6835 10.7854 8.96683 10.4354 8.96683C10.0854 8.96683 9.80202 8.6835 9.80202 8.3335V5.75016C9.80202 5.40016 10.0854 5.11683 10.4354 5.11683C10.7854 5.11683 11.0687 5.40016 11.0687 5.75016V8.3335Z" fill="#196719"/>
<path d="M12.8001 16.6748C12.4501 17.6415 11.5251 18.3332 10.4418 18.3332C9.78346 18.3332 9.13346 18.0665 8.67513 17.5915C8.40846 17.3415 8.20846 17.0082 8.0918 16.6665C8.20013 16.6832 8.30846 16.6915 8.42513 16.7082C8.6168 16.7332 8.8168 16.7582 9.0168 16.7748C9.4918 16.8165 9.97513 16.8415 10.4585 16.8415C10.9335 16.8415 11.4085 16.8165 11.8751 16.7748C12.0501 16.7582 12.2251 16.7498 12.3918 16.7248C12.5251 16.7082 12.6585 16.6915 12.8001 16.6748Z" fill="#196719"/>
</svg>
