<svg width="25" height="24" viewBox="0 0 25 24" fill="none" xmlns="http://www.w3.org/2000/svg">
<path fill-rule="evenodd" clip-rule="evenodd" d="M22.0664 12.8273C22.0887 12.5545 22.1001 12.2786 22.1001 12C22.1001 6.47715 17.6229 2 12.1001 2C7.52236 2 3.66304 5.07594 2.47623 9.27374L7.55435 5.59681L9.14083 4.44808V6.40678V7.57405H12.9761V9.57405H8.14083H7.14083V8.57405V8.36547L4.48318 10.2898L7.14083 12.2141V11.9153V10.9153H8.14083H16.0201V10.2898V8.28879L17.6204 9.49004L22.0664 12.8273ZM21.656 14.956C20.3954 19.0358 16.5939 22 12.1001 22C6.57725 22 2.1001 17.5228 2.1001 12C2.1001 11.6846 2.1147 11.3727 2.14326 11.0648L2.19161 11.0998L7.55435 14.9828L9.14083 16.1315V14.1728V12.9153H17.0201H18.0201V12.2908L19.9658 13.7513L18.0201 15.327V14.4371H17.0201H12.2728V16.4371H16.0201V17.4237V19.5204L17.6495 18.2008L21.656 14.956Z" fill="#474747"/>
</svg>
