<svg width="80" height="27" viewBox="0 0 80 27" fill="none" xmlns="http://www.w3.org/2000/svg">
<g clip-path="url(#clip0_5504_50865)">
<rect y="0.5" width="80" height="26" rx="8" fill="#027B5B"/>
<path d="M80 17.8333C80 22.6198 76.1198 26.5 71.3333 26.5H8.66669C3.88021 26.5 0 22.6198 0 17.8333V9.16668C0 4.38021 3.88021 0.5 8.66668 0.5H71.3333C76.1198 0.5 80 4.38021 80 9.16668V17.8333Z" fill="#027B5B"/>
<path d="M14.704 7.44237C15.8853 7.44154 17.0666 7.4407 18.2488 7.44237C18.238 8.99757 18.2505 10.5519 18.2413 12.1071C18.5777 11.6284 19.0164 11.1938 19.5892 11.0165C20.6165 10.6935 21.8586 10.9183 22.5946 11.7417C23.3347 12.5667 23.5861 13.704 23.6169 14.7838C23.6344 15.8669 23.5303 17.0017 22.9925 17.9641C22.6262 18.641 21.986 19.1763 21.2276 19.3445C20.4708 19.5135 19.6067 19.4894 18.9481 19.0365C18.4961 18.7326 18.2463 18.2289 18.0157 17.7527C18.0307 18.2555 18.0024 18.7567 17.9924 19.2587H14.7031C14.7031 15.32 14.7031 11.3812 14.704 7.44237ZM34.1624 9.16574C35.3463 8.78444 36.5143 8.35484 37.6981 7.97437C37.6881 9.0059 37.6948 10.0383 37.694 11.0698C38.2318 11.0698 38.7704 11.069 39.3099 11.069C39.3032 11.8499 39.309 12.63 39.3049 13.4101C38.7662 13.4192 38.2259 13.3959 37.6881 13.4226C37.7048 14.2326 37.679 15.0427 37.7006 15.8528C37.7098 16.2133 37.8655 16.6212 38.2234 16.7644C38.5848 16.8427 38.9611 16.7703 39.3107 16.6654C39.3032 17.4479 39.3066 18.2314 39.3074 19.014C38.3192 19.3212 37.2694 19.5385 36.2337 19.3886C35.6077 19.297 35.0083 18.9615 34.6644 18.422C34.2798 17.8384 34.1757 17.1224 34.1499 16.4389C34.1474 15.429 34.1499 14.42 34.1491 13.4109C33.7362 13.4117 33.3241 13.4059 32.912 13.4192C32.897 12.6358 32.907 11.8524 32.907 11.0681C33.3207 11.0706 33.7345 11.069 34.1491 11.069C34.1574 10.4346 34.1316 9.79848 34.1624 9.16574Z" fill="#FAFCFC"/>
<path d="M40.1495 8.53573C41.3001 8.11113 42.5497 8.09198 43.7618 8.10614C44.8608 8.15276 45.998 8.47162 46.8338 9.21426C47.9394 10.1825 47.9852 12.1698 46.8222 13.1081C46.525 13.3587 46.172 13.5327 45.804 13.6526C46.3377 13.8399 46.8696 14.0955 47.2376 14.5409C47.8279 15.2228 47.9219 16.2085 47.7088 17.0569C47.5165 17.8345 46.9321 18.4655 46.2286 18.8235C44.9515 19.5162 43.4413 19.5021 42.0344 19.3655C41.3742 19.3031 40.724 19.1707 40.0846 18.9984C40.058 18.1483 40.0846 17.2966 40.0713 16.4474C41.1685 16.8113 42.3715 17.0527 43.5162 16.778C44.2838 16.5848 44.323 15.3918 43.6378 15.0662C42.9135 14.7058 42.0652 14.8448 41.2951 14.9472C41.2993 14.1446 41.2959 13.3412 41.2968 12.537C41.8945 12.5653 42.4981 12.5994 43.0908 12.5003C43.4488 12.4371 43.8543 12.2572 43.9525 11.8726C44.0074 11.5645 43.9741 11.214 43.761 10.9709C43.5187 10.6879 43.1358 10.5763 42.7753 10.5547C41.8895 10.5089 40.9979 10.6629 40.1687 10.9709C40.1396 10.1609 40.1729 9.34747 40.1495 8.53573ZM49.577 9.81203C50.402 8.79299 51.6783 8.2077 52.9753 8.12029C54.1808 8.07117 55.4088 8.08865 56.5818 8.40835C56.5651 9.24673 56.5818 10.0859 56.5726 10.9243C55.6177 10.6571 54.6221 10.4681 53.6272 10.5796C53.0228 10.6612 52.4217 10.9726 52.1145 11.5163C51.8997 11.8809 51.8514 12.3088 51.8198 12.7226C52.5374 12.1615 53.4923 12.0291 54.3781 12.0832C55.4995 12.1557 56.5635 12.8358 57.0796 13.8366C57.4659 14.5825 57.5334 15.4584 57.4143 16.2809C57.2878 17.1526 56.8199 17.9768 56.1098 18.5038C55.0649 19.3189 53.6671 19.5587 52.3759 19.3913C51.2487 19.254 50.1931 18.6554 49.4937 17.7629C48.6745 16.773 48.3082 15.475 48.2841 14.2037C48.2508 12.6618 48.558 11.0209 49.577 9.81203ZM58.2344 8.29179C60.5496 8.29096 62.8648 8.29096 65.1792 8.29179C65.1767 9.13433 65.1792 9.97687 65.1776 10.8194C63.9388 10.8294 62.6983 10.8019 61.4604 10.8336C61.472 11.3914 61.4745 11.9517 61.4595 12.5103C62.1622 12.497 62.8906 12.3913 63.5683 12.6344C64.5373 12.9591 65.2899 13.8257 65.5156 14.819C65.7304 15.7756 65.6737 16.8379 65.1742 17.6996C64.7047 18.5072 63.8397 19.0009 62.9556 19.2298C61.3596 19.6278 59.6846 19.4122 58.1203 18.9809C58.097 18.1442 58.1161 17.3075 58.1095 16.4708C59.1135 16.7239 60.1958 16.9711 61.2123 16.6439C62.0581 16.3817 62.1838 15.1162 61.517 14.6017C61.1165 14.3003 60.5979 14.227 60.11 14.2062C59.5639 14.1979 59.0169 14.2703 58.4858 14.396C58.3725 14.4177 58.2743 14.4826 58.1844 14.5501C58.2102 14.4593 58.2277 14.3669 58.2352 14.2737C58.2327 12.2797 58.2335 10.2849 58.2344 8.29179Z" fill="#F9DC1C"/>
<path d="M25.2811 12.0466C26.1827 11.1417 27.5231 10.8761 28.7577 10.8819C29.6918 10.8553 30.6792 11.09 31.381 11.7378C32.1086 12.4096 32.4458 13.397 32.5781 14.3561C32.6681 14.9356 32.6572 15.5234 32.6556 16.1078H27.7329C27.7595 16.3967 27.8186 16.7031 28.0393 16.9104C28.4305 17.2809 29.0008 17.3308 29.5128 17.365C30.4094 17.3799 31.3394 17.2834 32.1394 16.8471C32.1327 17.5531 32.1394 18.26 32.1336 18.9668C31.1312 19.319 30.0631 19.4205 29.0075 19.4397C27.8103 19.4613 26.5241 19.2499 25.5883 18.4473C24.7167 17.7105 24.3304 16.5541 24.2796 15.4426C24.2022 14.2496 24.4095 12.9308 25.2811 12.0466Z" fill="#FAFCFC"/>
<path d="M28.0512 13.081C28.3342 12.6714 29.0327 12.6456 29.3141 13.071C29.5672 13.4565 29.583 13.9393 29.5913 14.3847C28.9744 14.3856 28.3584 14.3856 27.7415 14.3856C27.7581 13.9393 27.7831 13.459 28.0512 13.081ZM18.8368 13.3374C19.169 13.23 19.5628 13.3948 19.7135 13.7129C19.9308 14.1425 19.9233 14.6412 19.9299 15.1116C19.9133 15.5828 19.89 16.0923 19.6211 16.4986C19.3605 16.9007 18.6762 16.9015 18.4248 16.4886C18.1858 16.1048 18.1617 15.6319 18.1592 15.1923C18.1592 14.7677 18.1583 14.3331 18.2841 13.9235C18.3648 13.6579 18.5555 13.404 18.8368 13.3374ZM52.578 14.2174C53.0783 14.0342 53.7161 14.1866 53.9949 14.662C54.3354 15.2431 54.3121 16.0265 53.9508 16.5918C53.5945 17.1879 52.6321 17.2579 52.1909 16.725C51.8104 16.2913 51.7746 15.661 51.892 15.1191C51.9636 14.7378 52.1967 14.3539 52.578 14.2174Z" fill="#027B5B"/>
</g>
<defs>
<clipPath id="clip0_5504_50865">
<rect y="0.5" width="80" height="26" rx="8" fill="white"/>
</clipPath>
</defs>
</svg>
