<svg width="41" height="40" viewBox="0 0 41 40" fill="none" xmlns="http://www.w3.org/2000/svg">
<rect x="0.5" width="40" height="40" rx="20" fill="#196719" fill-opacity="0.2"/>
<path d="M20.1427 5.11914C11.9433 5.11914 5.26172 11.8007 5.26172 20.0001C5.26172 28.1995 11.9433 34.881 20.1427 34.881C28.3421 34.881 35.0236 28.1995 35.0236 20.0001C35.0236 11.8007 28.3421 5.11914 20.1427 5.11914ZM19.0266 14.0477C19.0266 13.4376 19.5326 12.9316 20.1427 12.9316C20.7528 12.9316 21.2587 13.4376 21.2587 14.0477V21.4882C21.2587 22.0983 20.7528 22.6043 20.1427 22.6043C19.5326 22.6043 19.0266 22.0983 19.0266 21.4882V14.0477ZM21.5117 26.518C21.4373 26.7114 21.3331 26.8602 21.1992 27.009C21.0504 27.143 20.8867 27.2471 20.7081 27.3215C20.5296 27.3959 20.3361 27.4406 20.1427 27.4406C19.9492 27.4406 19.7558 27.3959 19.5772 27.3215C19.3986 27.2471 19.2349 27.143 19.0861 27.009C18.9522 26.8602 18.848 26.7114 18.7736 26.518C18.6992 26.3394 18.6546 26.1459 18.6546 25.9525C18.6546 25.759 18.6992 25.5656 18.7736 25.387C18.848 25.2084 18.9522 25.0447 19.0861 24.8959C19.2349 24.762 19.3986 24.6578 19.5772 24.5834C19.9343 24.4346 20.351 24.4346 20.7081 24.5834C20.8867 24.6578 21.0504 24.762 21.1992 24.8959C21.3331 25.0447 21.4373 25.2084 21.5117 25.387C21.5861 25.5656 21.6308 25.759 21.6308 25.9525C21.6308 26.1459 21.5861 26.3394 21.5117 26.518Z" fill="#196719"/>
</svg>
