<svg width="80" height="25" viewBox="0 0 80 25" fill="none" xmlns="http://www.w3.org/2000/svg">
<rect y="0.5" width="80" height="24" rx="8" fill="black"/>
<path fill-rule="evenodd" clip-rule="evenodd" d="M14.8173 7.83271V6.16635V4.5H13.1996H11.582V10.3889V16.2858L12.2938 16.5042C13.4827 16.8682 14.2026 16.9734 15.4643 16.9734C16.4025 16.9815 16.7584 16.941 17.2599 16.8116C19.015 16.3343 20.0907 15.2828 20.5194 13.6002C20.6892 12.9531 20.6892 11.4081 20.5194 10.769C20.1473 9.35345 19.2414 8.27761 18.0525 7.85697C17.2841 7.58194 15.9496 7.54959 15.0356 7.77608L14.8173 7.83271ZM34.4713 7.81653V6.68405V5.55158H32.8537H31.2361V6.68405V7.81653H30.589H29.942V8.949V10.0815H30.5809H31.2199L31.2522 12.6134L31.2765 15.1372L31.5434 15.6791C31.8427 16.2939 32.2552 16.6498 32.886 16.8359C33.4037 16.9896 34.7625 16.9896 35.4257 16.8359C35.9433 16.7145 36.8411 16.302 36.9382 16.1483C36.9786 16.0836 36.3477 14.4253 36.2021 14.2231C36.1941 14.2069 36.008 14.2878 35.7977 14.401C35.5551 14.5305 35.272 14.6114 35.0617 14.6114C34.4794 14.6114 34.4713 14.5709 34.4713 12.1685V10.0815H35.5227C36.1051 10.0815 36.5742 10.0572 36.5742 10.0168C36.5742 9.9844 36.4043 9.47479 36.2021 8.88429L35.822 7.81653H35.1507H34.4713ZM41.0793 12.5486L39.9388 9.07034L38.7903 5.59203L37.2374 5.56776C36.3801 5.55967 35.6845 5.57585 35.6926 5.60821C35.6926 5.64865 36.5742 8.16436 37.658 11.2139L39.6234 16.755H40.8609H42.1064L42.7939 14.4658C43.166 13.2119 43.4814 12.1927 43.4976 12.2089C43.5138 12.2251 43.7241 12.9046 43.9748 13.7297L44.0216 13.8823C44.2635 14.6705 44.5489 15.6003 44.6704 16.0027L44.913 16.7954H46.1505H47.388L48.957 12.3788L49.4574 10.9712L49.4597 10.9648L49.4599 10.9641C50.0847 9.20686 50.5439 7.91514 50.5504 7.88933C50.5666 7.84888 49.8306 7.81653 48.9247 7.81653C47.4122 7.81653 47.2585 7.83271 47.2181 7.95404C47.2091 7.98399 47.1713 8.12145 47.1133 8.33238L47.1129 8.33382C47.0142 8.69278 46.8573 9.26361 46.6843 9.87925C46.5292 10.448 46.3686 11.025 46.2486 11.4562L46.2482 11.4577L46.248 11.4585C46.1618 11.7682 46.0966 12.0023 46.0696 12.1037L45.9402 12.5486L45.3417 10.4859C45.0101 9.35346 44.7027 8.2857 44.6542 8.11582L44.5733 7.80844L43.5057 7.83271L42.4461 7.85697L41.8962 9.75791C41.7316 10.3166 41.5671 10.8799 41.4385 11.32L41.4383 11.3207L41.4382 11.321C41.3268 11.7024 41.2425 11.9911 41.2087 12.1037L41.0793 12.5486ZM29.9905 12.1685C29.8287 9.79835 28.7773 8.29378 26.9494 7.79226C26.0435 7.5415 24.8465 7.56577 23.9972 7.85697C22.2745 8.44748 21.1988 9.96014 21.0774 11.9662C20.9319 14.4334 22.2259 16.3263 24.4097 16.844C25.0891 17.0057 26.9413 16.9572 27.5236 16.7712C28.1869 16.5527 28.8743 16.1564 29.3435 15.7196L29.8045 15.2908L28.8016 14.5062L27.7986 13.7216L27.5155 14.0047C26.7957 14.7084 25.6148 14.8217 24.8141 14.2635C24.5715 14.0937 24.1994 13.398 24.1994 13.0906V12.9127H27.1192H30.0471L29.9905 12.1685ZM58.2502 10.2433C58.0076 8.949 57.1745 8.10773 55.84 7.78417C54.926 7.55768 53.6481 7.57386 52.7504 7.81653C52.2893 7.93787 51.2541 8.47174 50.8901 8.77913L50.6151 9.00562L51.3269 9.79026C51.7232 10.219 52.0548 10.5668 52.071 10.5668C52.0871 10.5668 52.2732 10.4536 52.4834 10.3241C53.2437 9.8388 53.9959 9.72555 54.5944 10.0006C54.9503 10.1624 55.1768 10.5102 55.1768 10.9146C55.1768 11.1007 55.1444 11.1088 54.1658 11.2059C51.3673 11.4728 50.1136 12.3383 50.0166 14.0532C49.9438 15.2666 50.4857 16.1887 51.5533 16.6822C52.0224 16.8925 52.1357 16.9168 52.9526 16.9087C53.9069 16.9087 54.4327 16.7712 55.0555 16.3505C55.2172 16.2373 55.3547 16.1483 55.3709 16.1483C55.3709 16.1483 55.4356 16.2939 55.4922 16.4719L55.5893 16.7954H56.9562H58.3311V13.7297C58.3311 12.0148 58.2988 10.4778 58.2502 10.2433ZM63.4266 12.9288C63.4266 13.2119 63.2001 12.6376 62.4075 10.3403L61.534 7.81653H59.7708H58.0157L58.4201 8.72251C58.6466 9.22403 59.5039 11.1573 60.3289 13.0178L61.8252 16.3991L61.7039 16.6983C61.3399 17.6124 61.1296 17.9522 60.8708 18.0573C60.5068 18.211 60.2157 18.2029 59.6657 18.0088C59.4068 17.9198 59.1642 17.8713 59.1318 17.9036C59.1076 17.9441 59.0024 18.1706 58.9135 18.4132C58.8245 18.6559 58.6547 19.1089 58.5414 19.4082L58.3311 19.9583L58.6789 20.1119C59.2774 20.3708 60.3208 20.5407 61.0406 20.4921C62.2134 20.4112 63.0546 19.9663 63.5965 19.1413C63.8068 18.8177 67.8589 9.38581 68.4089 7.95404C68.4574 7.82462 68.3442 7.81653 66.7993 7.81653H65.1494L64.2839 10.3241C63.8148 11.7074 63.4266 12.8722 63.4266 12.9288ZM15.0409 10.118C15.1622 10.0937 15.2997 10.0614 15.3402 10.0452C15.6233 9.94813 16.1247 10.029 16.521 10.2232C16.8446 10.393 17.0144 10.5467 17.2004 10.846C17.4188 11.2019 17.4431 11.3233 17.4673 12.0675C17.5078 13.1352 17.3703 13.661 16.9254 14.1059C16.7475 14.2839 16.4644 14.4699 16.2865 14.5185C15.9468 14.6236 15.2916 14.6479 15.0005 14.567L14.8145 14.5185V12.3425V10.1665L15.0409 10.118ZM25.0398 9.83934C24.7486 10.0173 24.4008 10.446 24.328 10.713C24.3121 10.7818 24.2858 10.8715 24.2628 10.9501L24.2628 10.9502C24.2506 10.9917 24.2393 11.0301 24.231 11.0608C24.1905 11.2145 24.2229 11.2226 25.6059 11.2226H27.0294L26.9728 10.9556C26.9 10.5512 26.6088 10.0739 26.3096 9.8717C25.9618 9.63711 25.3956 9.62094 25.0398 9.83934ZM53.2909 13.2299C53.4526 13.0681 53.6791 12.9711 54.0431 12.8902C54.3342 12.8255 54.7063 12.7688 54.8761 12.7688L55.1835 12.7607L55.1592 13.5777C55.135 14.3705 55.1269 14.4109 54.9166 14.5646C54.6416 14.7749 53.8247 14.8477 53.4769 14.7021C52.9431 14.4837 52.8379 13.6829 53.2909 13.2299Z" fill="white"/>
</svg>
