<svg width="211" height="129" viewBox="0 0 211 129" fill="none" xmlns="http://www.w3.org/2000/svg">
<g filter="url(#filter0_d_128_3791)">
<circle cx="171.115" cy="64.1147" r="101.654" stroke="#186318" stroke-width="4"/>
</g>
<g filter="url(#filter1_d_128_3791)">
<circle cx="170.853" cy="63.8523" r="117.731" stroke="#186318" stroke-width="2"/>
</g>
<g filter="url(#filter2_d_128_3791)">
<circle cx="170.59" cy="63.5904" r="133.308" stroke="#186318"/>
</g>
<g filter="url(#filter3_d_128_3791)">
<circle cx="171" cy="64" r="146.75" stroke="#186318" stroke-width="0.5"/>
</g>
<mask id="path-5-inside-1_128_3791" fill="white">
<path d="M174.082 -20.7913C127.017 -20.7913 88.7256 17.254 88.7256 64.0164C88.7256 110.779 127.017 148.824 174.082 148.824C221.147 148.824 259.439 110.779 259.439 64.0164C259.439 17.254 221.147 -20.7913 174.082 -20.7913ZM232.765 103.158H214.208C213.633 103.157 213.068 103.006 212.571 102.72C212.073 102.433 211.66 102.022 211.372 101.528L204.749 90.2416C204.313 89.5037 204.186 88.6251 204.396 87.7952L210.494 63.3641C210.617 62.8718 210.853 62.4146 211.184 62.0289C211.515 61.6432 211.932 61.3395 212.402 61.1419L223.934 56.29C224.497 56.0525 225.116 55.9764 225.721 56.07C226.326 56.1637 226.892 56.4235 227.356 56.82L244.44 71.4249C244.861 71.7851 245.183 72.2457 245.376 72.7634C245.569 73.2811 245.627 73.8391 245.544 74.385C244.129 84.0291 240.738 93.2823 235.58 101.572C235.289 102.056 234.876 102.456 234.383 102.734C233.889 103.012 233.332 103.158 232.765 103.158ZM124.231 56.3226L135.762 61.1746C136.232 61.3721 136.649 61.6758 136.98 62.0615C137.312 62.4473 137.548 62.9044 137.67 63.3967L143.768 87.8278C143.978 88.6577 143.851 89.5363 143.415 90.2742L136.792 101.528C136.505 102.022 136.091 102.433 135.594 102.72C135.096 103.006 134.531 103.157 133.956 103.158H115.4C114.838 103.159 114.286 103.016 113.796 102.744C113.306 102.472 112.895 102.08 112.601 101.605C107.443 93.315 104.052 84.0618 102.637 74.4176C102.554 73.8717 102.612 73.3137 102.805 72.796C102.998 72.2783 103.32 71.8177 103.741 71.4575L120.825 56.8526C121.287 56.4592 121.85 56.2012 122.452 56.1076C123.053 56.014 123.669 56.0884 124.231 56.3226V56.3226ZM229.671 20.7523L222.255 41.7014C222.106 42.1295 221.869 42.5221 221.559 42.8542C221.249 43.1862 220.872 43.4504 220.454 43.63L208.315 48.7388C207.758 48.973 207.147 49.0497 206.549 48.9604C205.95 48.8712 205.389 48.6196 204.925 48.2332L181.838 28.9925C181.469 28.6892 181.172 28.3095 180.966 27.8798C180.76 27.4502 180.652 26.981 180.648 26.5053V12.8138C180.648 12.2773 180.782 11.7492 181.037 11.2763C181.292 10.8033 181.66 10.4001 182.109 10.1024L199.685 -1.53421C200.144 -1.8384 200.672 -2.02289 201.222 -2.07063C201.771 -2.11838 202.324 -2.02784 202.828 -1.80739C212.942 2.57516 221.917 9.19024 229.072 17.5353C229.448 17.9716 229.701 18.4989 229.806 19.0638C229.912 19.6286 229.865 20.2111 229.671 20.7523V20.7523ZM148.475 -1.53421L166.055 10.1024C166.505 10.4001 166.873 10.8033 167.128 11.2763C167.382 11.7492 167.516 12.2773 167.516 12.8138V26.5053C167.516 26.9818 167.411 27.4525 167.208 27.8843C167.006 28.3161 166.71 28.6986 166.343 29.0047L143.255 48.2455C142.792 48.6318 142.23 48.8835 141.632 48.9727C141.034 49.0619 140.423 48.9852 139.866 48.751L127.711 43.63C127.289 43.4527 126.91 43.19 126.597 42.8586C126.284 42.5272 126.044 42.1344 125.893 41.7055L118.477 20.7564C118.285 20.2133 118.24 19.6292 118.348 19.0634C118.456 18.4976 118.713 17.9704 119.093 17.5353C126.252 9.18183 135.234 2.56089 145.356 -1.8237C145.859 -2.03744 146.408 -2.12291 146.953 -2.07235C147.497 -2.0218 148.021 -1.83681 148.475 -1.53421V-1.53421ZM155.579 131.981L147.482 111.721C147.297 111.26 147.22 110.764 147.257 110.269C147.294 109.775 147.444 109.295 147.696 108.867L153.921 98.2657C154.208 97.7709 154.622 97.3599 155.119 97.0736C155.617 96.7874 156.181 96.6361 156.756 96.6348H191.408C191.983 96.6361 192.548 96.7874 193.045 97.0736C193.543 97.3599 193.956 97.7709 194.244 98.2657L200.473 108.867C200.725 109.295 200.876 109.774 200.914 110.269C200.951 110.763 200.875 111.26 200.69 111.721L192.651 131.973C192.455 132.468 192.139 132.908 191.732 133.254C191.325 133.6 190.839 133.842 190.316 133.958C179.649 136.391 168.565 136.391 157.897 133.958C157.378 133.84 156.896 133.598 156.492 133.254C156.088 132.909 155.775 132.473 155.579 131.981V131.981Z"/>
</mask>
<path d="M174.082 -20.7913C127.017 -20.7913 88.7256 17.254 88.7256 64.0164C88.7256 110.779 127.017 148.824 174.082 148.824C221.147 148.824 259.439 110.779 259.439 64.0164C259.439 17.254 221.147 -20.7913 174.082 -20.7913ZM232.765 103.158H214.208C213.633 103.157 213.068 103.006 212.571 102.72C212.073 102.433 211.66 102.022 211.372 101.528L204.749 90.2416C204.313 89.5037 204.186 88.6251 204.396 87.7952L210.494 63.3641C210.617 62.8718 210.853 62.4146 211.184 62.0289C211.515 61.6432 211.932 61.3395 212.402 61.1419L223.934 56.29C224.497 56.0525 225.116 55.9764 225.721 56.07C226.326 56.1637 226.892 56.4235 227.356 56.82L244.44 71.4249C244.861 71.7851 245.183 72.2457 245.376 72.7634C245.569 73.2811 245.627 73.8391 245.544 74.385C244.129 84.0291 240.738 93.2823 235.58 101.572C235.289 102.056 234.876 102.456 234.383 102.734C233.889 103.012 233.332 103.158 232.765 103.158ZM124.231 56.3226L135.762 61.1746C136.232 61.3721 136.649 61.6758 136.98 62.0615C137.312 62.4473 137.548 62.9044 137.67 63.3967L143.768 87.8278C143.978 88.6577 143.851 89.5363 143.415 90.2742L136.792 101.528C136.505 102.022 136.091 102.433 135.594 102.72C135.096 103.006 134.531 103.157 133.956 103.158H115.4C114.838 103.159 114.286 103.016 113.796 102.744C113.306 102.472 112.895 102.08 112.601 101.605C107.443 93.315 104.052 84.0618 102.637 74.4176C102.554 73.8717 102.612 73.3137 102.805 72.796C102.998 72.2783 103.32 71.8177 103.741 71.4575L120.825 56.8526C121.287 56.4592 121.85 56.2012 122.452 56.1076C123.053 56.014 123.669 56.0884 124.231 56.3226V56.3226ZM229.671 20.7523L222.255 41.7014C222.106 42.1295 221.869 42.5221 221.559 42.8542C221.249 43.1862 220.872 43.4504 220.454 43.63L208.315 48.7388C207.758 48.973 207.147 49.0497 206.549 48.9604C205.95 48.8712 205.389 48.6196 204.925 48.2332L181.838 28.9925C181.469 28.6892 181.172 28.3095 180.966 27.8798C180.76 27.4502 180.652 26.981 180.648 26.5053V12.8138C180.648 12.2773 180.782 11.7492 181.037 11.2763C181.292 10.8033 181.66 10.4001 182.109 10.1024L199.685 -1.53421C200.144 -1.8384 200.672 -2.02289 201.222 -2.07063C201.771 -2.11838 202.324 -2.02784 202.828 -1.80739C212.942 2.57516 221.917 9.19024 229.072 17.5353C229.448 17.9716 229.701 18.4989 229.806 19.0638C229.912 19.6286 229.865 20.2111 229.671 20.7523V20.7523ZM148.475 -1.53421L166.055 10.1024C166.505 10.4001 166.873 10.8033 167.128 11.2763C167.382 11.7492 167.516 12.2773 167.516 12.8138V26.5053C167.516 26.9818 167.411 27.4525 167.208 27.8843C167.006 28.3161 166.71 28.6986 166.343 29.0047L143.255 48.2455C142.792 48.6318 142.23 48.8835 141.632 48.9727C141.034 49.0619 140.423 48.9852 139.866 48.751L127.711 43.63C127.289 43.4527 126.91 43.19 126.597 42.8586C126.284 42.5272 126.044 42.1344 125.893 41.7055L118.477 20.7564C118.285 20.2133 118.24 19.6292 118.348 19.0634C118.456 18.4976 118.713 17.9704 119.093 17.5353C126.252 9.18183 135.234 2.56089 145.356 -1.8237C145.859 -2.03744 146.408 -2.12291 146.953 -2.07235C147.497 -2.0218 148.021 -1.83681 148.475 -1.53421V-1.53421ZM155.579 131.981L147.482 111.721C147.297 111.26 147.22 110.764 147.257 110.269C147.294 109.775 147.444 109.295 147.696 108.867L153.921 98.2657C154.208 97.7709 154.622 97.3599 155.119 97.0736C155.617 96.7874 156.181 96.6361 156.756 96.6348H191.408C191.983 96.6361 192.548 96.7874 193.045 97.0736C193.543 97.3599 193.956 97.7709 194.244 98.2657L200.473 108.867C200.725 109.295 200.876 109.774 200.914 110.269C200.951 110.763 200.875 111.26 200.69 111.721L192.651 131.973C192.455 132.468 192.139 132.908 191.732 133.254C191.325 133.6 190.839 133.842 190.316 133.958C179.649 136.391 168.565 136.391 157.897 133.958C157.378 133.84 156.896 133.598 156.492 133.254C156.088 132.909 155.775 132.473 155.579 131.981V131.981Z" fill="#186318" stroke="#186318" stroke-width="2" mask="url(#path-5-inside-1_128_3791)"/>
<defs>
<filter id="filter0_d_128_3791" x="43.4609" y="-55.5392" width="255.308" height="255.308" filterUnits="userSpaceOnUse" color-interpolation-filters="sRGB">
<feFlood flood-opacity="0" result="BackgroundImageFix"/>
<feColorMatrix in="SourceAlpha" type="matrix" values="0 0 0 0 0 0 0 0 0 0 0 0 0 0 0 0 0 0 127 0" result="hardAlpha"/>
<feOffset dy="8"/>
<feGaussianBlur stdDeviation="12"/>
<feColorMatrix type="matrix" values="0 0 0 0 0.08 0 0 0 0 0.08 0 0 0 0 0.08 0 0 0 0.16 0"/>
<feBlend mode="normal" in2="BackgroundImageFix" result="effect1_dropShadow_128_3791"/>
<feBlend mode="normal" in="SourceGraphic" in2="effect1_dropShadow_128_3791" result="shape"/>
</filter>
<filter id="filter1_d_128_3791" x="28.1221" y="-70.8784" width="285.461" height="285.462" filterUnits="userSpaceOnUse" color-interpolation-filters="sRGB">
<feFlood flood-opacity="0" result="BackgroundImageFix"/>
<feColorMatrix in="SourceAlpha" type="matrix" values="0 0 0 0 0 0 0 0 0 0 0 0 0 0 0 0 0 0 127 0" result="hardAlpha"/>
<feOffset dy="8"/>
<feGaussianBlur stdDeviation="12"/>
<feColorMatrix type="matrix" values="0 0 0 0 0.08 0 0 0 0 0.08 0 0 0 0 0.08 0 0 0 0.16 0"/>
<feBlend mode="normal" in2="BackgroundImageFix" result="effect1_dropShadow_128_3791"/>
<feBlend mode="normal" in="SourceGraphic" in2="effect1_dropShadow_128_3791" result="shape"/>
</filter>
<filter id="filter2_d_128_3791" x="12.7822" y="-86.2173" width="315.615" height="315.615" filterUnits="userSpaceOnUse" color-interpolation-filters="sRGB">
<feFlood flood-opacity="0" result="BackgroundImageFix"/>
<feColorMatrix in="SourceAlpha" type="matrix" values="0 0 0 0 0 0 0 0 0 0 0 0 0 0 0 0 0 0 127 0" result="hardAlpha"/>
<feOffset dy="8"/>
<feGaussianBlur stdDeviation="12"/>
<feColorMatrix type="matrix" values="0 0 0 0 0.08 0 0 0 0 0.08 0 0 0 0 0.08 0 0 0 0.16 0"/>
<feBlend mode="normal" in2="BackgroundImageFix" result="effect1_dropShadow_128_3791"/>
<feBlend mode="normal" in="SourceGraphic" in2="effect1_dropShadow_128_3791" result="shape"/>
</filter>
<filter id="filter3_d_128_3791" x="0" y="-99" width="342" height="342" filterUnits="userSpaceOnUse" color-interpolation-filters="sRGB">
<feFlood flood-opacity="0" result="BackgroundImageFix"/>
<feColorMatrix in="SourceAlpha" type="matrix" values="0 0 0 0 0 0 0 0 0 0 0 0 0 0 0 0 0 0 127 0" result="hardAlpha"/>
<feOffset dy="8"/>
<feGaussianBlur stdDeviation="12"/>
<feColorMatrix type="matrix" values="0 0 0 0 0.08 0 0 0 0 0.08 0 0 0 0 0.08 0 0 0 0.16 0"/>
<feBlend mode="normal" in2="BackgroundImageFix" result="effect1_dropShadow_128_3791"/>
<feBlend mode="normal" in="SourceGraphic" in2="effect1_dropShadow_128_3791" result="shape"/>
</filter>
</defs>
</svg>
