<svg width="375" height="393" viewBox="0 0 375 393" fill="none" xmlns="http://www.w3.org/2000/svg">
<g filter="url(#filter0_d_655_18655)">
<circle cx="187.635" cy="188.635" r="119.635" stroke="#104210" stroke-width="4"/>
</g>
<g filter="url(#filter1_d_655_18655)">
<circle cx="187.327" cy="188.327" r="138.327" stroke="#104210" stroke-width="2"/>
</g>
<g filter="url(#filter2_d_655_18655)">
<circle cx="187.019" cy="188.019" r="156.519" stroke="#104210"/>
</g>
<g filter="url(#filter3_d_655_18655)">
<circle cx="187.5" cy="188.5" r="172.25" stroke="#104210" stroke-width="0.5"/>
</g>
<path d="M234.303 234.951H234.302C233.544 234.949 232.799 234.749 232.143 234.369C231.488 233.989 230.943 233.444 230.564 232.788C230.564 232.788 230.564 232.787 230.564 232.787L222.843 219.547C222.269 218.568 222.101 217.403 222.378 216.303L234.303 234.951ZM234.303 234.951H255.939C256.687 234.951 257.421 234.757 258.072 234.388C258.721 234.02 259.264 233.49 259.648 232.85C265.696 223.065 269.673 212.144 271.332 200.761C271.442 200.037 271.366 199.297 271.111 198.61C270.857 197.923 270.432 197.312 269.877 196.834L269.877 196.834L249.959 179.695L249.633 180.074L249.959 179.695C249.347 179.169 248.6 178.825 247.803 178.7C247.006 178.576 246.19 178.677 245.447 178.992C245.447 178.992 245.447 178.992 245.447 178.992L232.003 184.686L234.303 234.951ZM129.59 179.03L129.591 179.03L143.036 184.724C143.036 184.724 143.036 184.724 143.036 184.724C143.655 184.986 144.205 185.389 144.642 185.901C145.078 186.412 145.39 187.019 145.551 187.672L152.66 216.339C152.661 216.34 152.661 216.34 152.661 216.34C152.937 217.441 152.77 218.606 152.195 219.585L144.475 232.787C144.475 232.788 144.475 232.788 144.474 232.788C144.095 233.444 143.551 233.989 142.895 234.369C142.239 234.749 141.495 234.949 140.737 234.951H140.736H119.1H119.1V234.451C118.445 234.452 117.802 234.284 117.231 233.965L129.59 179.03ZM129.59 179.03C128.85 178.719 128.038 178.62 127.245 178.744C126.452 178.869 125.709 179.211 125.1 179.733L125.099 179.734L105.181 196.872L105.181 196.872C104.625 197.35 104.201 197.961 103.946 198.648C103.692 199.335 103.616 200.074 103.725 200.798L129.59 179.03ZM241.783 165.055L241.78 165.057L227.627 171.052L227.627 171.052C226.893 171.363 226.087 171.464 225.298 171.346C224.51 171.228 223.769 170.894 223.159 170.381L196.243 147.805C196.243 147.805 196.242 147.804 196.242 147.804C195.756 147.402 195.364 146.898 195.094 146.329C194.823 145.759 194.68 145.136 194.675 144.505L194.675 144.501L194.675 128.434V128.434C194.675 127.722 194.851 127.022 195.187 126.394C195.523 125.767 196.008 125.232 196.6 124.837L196.601 124.837L217.093 111.182L241.783 165.055ZM241.783 165.055C242.335 164.817 242.831 164.467 243.24 164.026C243.649 163.586 243.961 163.065 244.158 162.498C244.158 162.497 244.158 162.497 244.158 162.497M241.783 165.055L244.158 162.497M178.438 124.837L178.438 124.837C179.03 125.232 179.516 125.767 179.852 126.394C180.188 127.022 180.363 127.722 180.364 128.434V128.434V144.501C180.364 145.133 180.225 145.758 179.958 146.331C179.691 146.904 179.301 147.411 178.817 147.817C178.817 147.817 178.817 147.817 178.817 147.817L151.899 170.395C151.288 170.908 150.548 171.242 149.759 171.36C148.971 171.479 148.165 171.377 147.431 171.066L147.43 171.066L133.259 165.057C133.258 165.057 133.258 165.057 133.258 165.057C132.703 164.822 132.203 164.473 131.791 164.033C131.378 163.594 131.062 163.073 130.862 162.503L122.217 137.921L178.438 124.837ZM178.438 124.837L157.942 111.182C157.942 111.182 157.942 111.182 157.941 111.182C157.342 110.781 156.653 110.535 155.935 110.468C155.217 110.401 154.494 110.515 153.831 110.798L153.827 110.8L178.438 124.837ZM167.318 226.296H167.319H207.72H207.721C208.479 226.298 209.223 226.498 209.879 226.878C210.535 227.258 211.079 227.802 211.458 228.458C211.458 228.459 211.459 228.459 211.459 228.46L218.72 240.897L167.318 226.296ZM167.318 226.296C166.56 226.298 165.815 226.498 165.159 226.878C164.504 227.258 163.959 227.803 163.58 228.459C163.58 228.459 163.58 228.459 163.58 228.46L156.323 240.898C155.991 241.466 155.793 242.102 155.744 242.758C155.696 243.414 155.797 244.073 156.041 244.683L167.318 226.296ZM209.169 268.264L209.635 268.447C209.375 269.104 208.959 269.688 208.423 270.147C207.887 270.606 207.246 270.927 206.558 271.081C206.557 271.082 206.557 271.082 206.557 271.082L209.169 268.264ZM209.169 268.264L209.635 268.447L219.007 244.684C219.007 244.683 219.007 244.683 219.007 244.683C219.25 244.072 219.351 243.413 219.301 242.757C219.252 242.101 219.053 241.465 218.721 240.897L209.169 268.264ZM244.158 162.497L252.802 137.918C252.802 137.917 252.803 137.917 252.803 137.916L252.803 137.916L252.331 137.75L244.158 162.497ZM229.487 187.634L222.378 216.301L232.003 184.686C231.383 184.948 230.833 185.351 230.397 185.862C229.96 186.374 229.649 186.981 229.487 187.634ZM166.685 270.147C167.218 270.604 167.853 270.924 168.537 271.081L156.041 244.684L165.481 268.458C165.481 268.458 165.481 268.458 165.481 268.458C165.739 269.11 166.153 269.69 166.685 270.147ZM88.5 188.519C88.5 133.921 132.921 89.5 187.519 89.5C242.117 89.5 286.538 133.921 286.538 188.519C286.538 243.117 242.117 287.538 187.519 287.538C132.921 287.538 88.5 243.117 88.5 188.519ZM252.013 133.651C243.622 123.801 233.097 115.992 221.236 110.819C220.571 110.527 219.842 110.407 219.118 110.47C218.394 110.533 217.698 110.778 217.093 111.181L252.013 133.651ZM122.046 135.675C121.904 136.425 121.963 137.2 122.217 137.921L123.406 133.975L123.028 133.648C123.028 133.648 123.027 133.649 123.027 133.649C122.527 134.226 122.189 134.925 122.046 135.675Z" fill="#104210" stroke="#104210"/>
<g filter="url(#filter4_d_655_18655)">
<circle cx="186.286" cy="189.571" r="71.4285" fill="#196719"/>
</g>
<g filter="url(#filter5_d_655_18655)">
<circle cx="187.555" cy="189.89" r="54.1935" fill="white"/>
<circle cx="187.556" cy="189.889" r="32.1147" fill="#CCFF33"/>
<path d="M249.778 189.889C249.778 224.254 221.92 252.111 187.555 252.111C153.191 252.111 125.333 224.254 125.333 189.889C125.333 155.525 153.191 127.667 187.555 127.667C221.92 127.667 249.778 155.525 249.778 189.889ZM136.652 189.889C136.652 218.002 159.442 240.792 187.555 240.792C215.668 240.792 238.459 218.002 238.459 189.889C238.459 161.776 215.668 138.986 187.555 138.986C159.442 138.986 136.652 161.776 136.652 189.889Z" fill="#CDDDCD"/>
<path d="M231.713 189.89C231.713 214.278 211.943 234.048 187.555 234.048C163.168 234.048 143.398 214.278 143.398 189.89C143.398 165.502 163.168 145.732 187.555 145.732C211.943 145.732 231.713 165.502 231.713 189.89ZM153.112 189.89C153.112 208.912 168.533 224.333 187.555 224.333C206.578 224.333 221.998 208.912 221.998 189.89C221.998 170.868 206.578 155.447 187.555 155.447C168.533 155.447 153.112 170.868 153.112 189.89Z" fill="#70E000"/>
<path d="M231.713 189.89C231.713 195.689 230.571 201.431 228.352 206.789C226.133 212.146 222.88 217.014 218.78 221.114C214.679 225.215 209.811 228.467 204.454 230.686C199.096 232.906 193.354 234.048 187.555 234.048C181.757 234.048 176.014 232.906 170.657 230.686C165.3 228.467 160.432 225.215 156.331 221.114C152.231 217.014 148.978 212.146 146.759 206.789C144.54 201.431 143.398 195.689 143.398 189.89H153.112C153.112 194.413 154.003 198.892 155.734 203.071C157.465 207.25 160.002 211.047 163.201 214.245C166.399 217.443 170.196 219.98 174.375 221.711C178.553 223.442 183.032 224.333 187.555 224.333C192.079 224.333 196.557 223.442 200.736 221.711C204.915 219.98 208.712 217.443 211.91 214.245C215.109 211.047 217.646 207.25 219.377 203.071C221.107 198.892 221.998 194.413 221.998 189.89H231.713Z" fill="#196719"/>
<path d="M187.555 157.273C169.571 157.273 154.939 171.905 154.939 189.89C154.939 207.874 169.571 222.506 187.555 222.506C205.54 222.506 220.172 207.874 220.172 189.89C220.172 171.905 205.54 157.273 187.555 157.273ZM209.979 204.944H202.888C202.668 204.943 202.453 204.885 202.262 204.775C202.072 204.665 201.914 204.507 201.805 204.316L199.274 199.976C199.107 199.692 199.059 199.354 199.139 199.035L201.469 189.639C201.516 189.45 201.606 189.274 201.733 189.126C201.859 188.977 202.018 188.86 202.198 188.784L206.604 186.918C206.82 186.827 207.056 186.798 207.287 186.834C207.519 186.87 207.735 186.97 207.912 187.122L214.44 192.739C214.601 192.878 214.724 193.055 214.798 193.254C214.872 193.453 214.894 193.668 214.862 193.878C214.321 197.587 213.026 201.145 211.055 204.334C210.943 204.52 210.786 204.674 210.597 204.78C210.409 204.887 210.196 204.944 209.979 204.944ZM168.506 186.931L172.912 188.797C173.092 188.873 173.251 188.99 173.378 189.138C173.504 189.286 173.595 189.462 173.641 189.652L175.972 199.048C176.052 199.367 176.003 199.705 175.837 199.988L173.306 204.316C173.196 204.507 173.038 204.665 172.848 204.775C172.658 204.885 172.442 204.943 172.222 204.944H165.131C164.917 204.944 164.706 204.889 164.519 204.784C164.332 204.68 164.174 204.529 164.062 204.346C162.091 201.158 160.795 197.599 160.255 193.89C160.223 193.68 160.245 193.466 160.319 193.266C160.392 193.067 160.515 192.89 160.676 192.752L167.204 187.135C167.381 186.983 167.596 186.884 167.826 186.848C168.056 186.812 168.291 186.841 168.506 186.931ZM208.797 173.251L205.963 181.308C205.906 181.472 205.816 181.623 205.697 181.751C205.578 181.879 205.435 181.98 205.275 182.049L200.636 184.014C200.423 184.104 200.19 184.134 199.961 184.099C199.733 184.065 199.518 183.968 199.341 183.82L190.519 176.42C190.378 176.303 190.264 176.157 190.186 175.992C190.107 175.827 190.066 175.646 190.064 175.463V170.198C190.064 169.991 190.115 169.788 190.213 169.606C190.31 169.425 190.451 169.269 190.622 169.155L197.339 164.68C197.514 164.563 197.716 164.492 197.926 164.473C198.136 164.455 198.347 164.49 198.54 164.575C202.404 166.26 205.834 168.804 208.568 172.014C208.711 172.181 208.808 172.384 208.849 172.601C208.889 172.819 208.871 173.043 208.797 173.251ZM177.77 164.68L184.488 169.155C184.66 169.269 184.8 169.425 184.898 169.606C184.995 169.788 185.046 169.991 185.046 170.198V175.463C185.046 175.647 185.006 175.828 184.929 175.994C184.851 176.16 184.738 176.307 184.598 176.425L175.776 183.824C175.599 183.973 175.384 184.07 175.155 184.104C174.927 184.138 174.693 184.109 174.48 184.019L169.836 182.049C169.675 181.981 169.53 181.88 169.41 181.753C169.29 181.625 169.199 181.474 169.141 181.309L166.307 173.252C166.234 173.043 166.217 172.819 166.258 172.601C166.299 172.384 166.398 172.181 166.543 172.014C169.278 168.801 172.711 166.255 176.578 164.568C176.771 164.486 176.98 164.453 177.189 164.473C177.397 164.492 177.597 164.563 177.77 164.68ZM180.485 216.029L177.391 208.237C177.32 208.06 177.291 207.869 177.305 207.678C177.319 207.488 177.376 207.304 177.472 207.139L179.851 203.062C179.961 202.872 180.119 202.714 180.309 202.603C180.499 202.493 180.715 202.435 180.935 202.435H194.176C194.395 202.435 194.611 202.493 194.801 202.603C194.991 202.714 195.149 202.872 195.259 203.062L197.64 207.139C197.736 207.304 197.794 207.488 197.808 207.678C197.822 207.868 197.793 208.059 197.723 208.237L194.651 216.025C194.576 216.216 194.455 216.385 194.3 216.518C194.144 216.651 193.958 216.744 193.759 216.789C189.682 217.725 185.447 217.725 181.371 216.789C181.172 216.744 180.988 216.651 180.834 216.518C180.679 216.386 180.56 216.218 180.485 216.029Z" fill="#196719"/>
</g>
<path d="M249.821 103.028C250.079 102.331 251.064 102.331 251.322 103.028L255.074 113.168C255.155 113.387 255.327 113.559 255.546 113.64L265.687 117.393C266.383 117.65 266.383 118.635 265.687 118.893L255.546 122.645C255.327 122.726 255.155 122.899 255.074 123.118L251.322 133.258C251.064 133.955 250.079 133.955 249.821 133.258L246.069 123.118C245.988 122.899 245.815 122.726 245.596 122.645L235.456 118.893C234.76 118.635 234.76 117.65 235.456 117.393L245.596 113.64C245.815 113.559 245.988 113.387 246.069 113.168L249.821 103.028Z" fill="#70E000"/>
<path d="M102.96 136.553C103.121 136.118 103.736 136.118 103.897 136.553L106.436 143.412C106.486 143.549 106.594 143.657 106.731 143.708L113.59 146.246C114.025 146.407 114.025 147.023 113.59 147.184L106.731 149.722C106.594 149.772 106.486 149.88 106.436 150.017L103.897 156.876C103.736 157.311 103.121 157.311 102.96 156.876L100.422 150.017C100.371 149.88 100.263 149.772 100.126 149.722L93.2673 147.184C92.8319 147.023 92.8319 146.407 93.2673 146.246L100.126 143.708C100.263 143.657 100.371 143.549 100.422 143.412L102.96 136.553Z" fill="#70E000"/>
<path d="M124.67 250.078C124.734 249.904 124.98 249.904 125.045 250.078L126.369 253.656C126.389 253.711 126.432 253.754 126.487 253.774L130.064 255.098C130.239 255.162 130.239 255.409 130.064 255.473L126.487 256.797C126.432 256.817 126.389 256.86 126.369 256.915L125.045 260.493C124.98 260.667 124.734 260.667 124.67 260.493L123.346 256.915C123.325 256.86 123.282 256.817 123.227 256.797L119.65 255.473C119.476 255.409 119.476 255.162 119.65 255.098L123.227 253.774C123.282 253.754 123.325 253.711 123.346 253.656L124.67 250.078Z" fill="#70E000"/>
<defs>
<filter id="filter0_d_655_18655" x="42" y="51" width="291.269" height="291.27" filterUnits="userSpaceOnUse" color-interpolation-filters="sRGB">
<feFlood flood-opacity="0" result="BackgroundImageFix"/>
<feColorMatrix in="SourceAlpha" type="matrix" values="0 0 0 0 0 0 0 0 0 0 0 0 0 0 0 0 0 0 127 0" result="hardAlpha"/>
<feOffset dy="8"/>
<feGaussianBlur stdDeviation="12"/>
<feColorMatrix type="matrix" values="0 0 0 0 0.08 0 0 0 0 0.08 0 0 0 0 0.08 0 0 0 0.16 0"/>
<feBlend mode="normal" in2="BackgroundImageFix" result="effect1_dropShadow_655_18655"/>
<feBlend mode="normal" in="SourceGraphic" in2="effect1_dropShadow_655_18655" result="shape"/>
</filter>
<filter id="filter1_d_655_18655" x="24" y="33" width="326.654" height="326.654" filterUnits="userSpaceOnUse" color-interpolation-filters="sRGB">
<feFlood flood-opacity="0" result="BackgroundImageFix"/>
<feColorMatrix in="SourceAlpha" type="matrix" values="0 0 0 0 0 0 0 0 0 0 0 0 0 0 0 0 0 0 127 0" result="hardAlpha"/>
<feOffset dy="8"/>
<feGaussianBlur stdDeviation="12"/>
<feColorMatrix type="matrix" values="0 0 0 0 0.08 0 0 0 0 0.08 0 0 0 0 0.08 0 0 0 0.16 0"/>
<feBlend mode="normal" in2="BackgroundImageFix" result="effect1_dropShadow_655_18655"/>
<feBlend mode="normal" in="SourceGraphic" in2="effect1_dropShadow_655_18655" result="shape"/>
</filter>
<filter id="filter2_d_655_18655" x="6" y="15" width="362.039" height="362.038" filterUnits="userSpaceOnUse" color-interpolation-filters="sRGB">
<feFlood flood-opacity="0" result="BackgroundImageFix"/>
<feColorMatrix in="SourceAlpha" type="matrix" values="0 0 0 0 0 0 0 0 0 0 0 0 0 0 0 0 0 0 127 0" result="hardAlpha"/>
<feOffset dy="8"/>
<feGaussianBlur stdDeviation="12"/>
<feColorMatrix type="matrix" values="0 0 0 0 0.08 0 0 0 0 0.08 0 0 0 0 0.08 0 0 0 0.16 0"/>
<feBlend mode="normal" in2="BackgroundImageFix" result="effect1_dropShadow_655_18655"/>
<feBlend mode="normal" in="SourceGraphic" in2="effect1_dropShadow_655_18655" result="shape"/>
</filter>
<filter id="filter3_d_655_18655" x="-9" y="0" width="393" height="393" filterUnits="userSpaceOnUse" color-interpolation-filters="sRGB">
<feFlood flood-opacity="0" result="BackgroundImageFix"/>
<feColorMatrix in="SourceAlpha" type="matrix" values="0 0 0 0 0 0 0 0 0 0 0 0 0 0 0 0 0 0 127 0" result="hardAlpha"/>
<feOffset dy="8"/>
<feGaussianBlur stdDeviation="12"/>
<feColorMatrix type="matrix" values="0 0 0 0 0.08 0 0 0 0 0.08 0 0 0 0 0.08 0 0 0 0.16 0"/>
<feBlend mode="normal" in2="BackgroundImageFix" result="effect1_dropShadow_655_18655"/>
<feBlend mode="normal" in="SourceGraphic" in2="effect1_dropShadow_655_18655" result="shape"/>
</filter>
<filter id="filter4_d_655_18655" x="90.8572" y="102.143" width="190.857" height="190.857" filterUnits="userSpaceOnUse" color-interpolation-filters="sRGB">
<feFlood flood-opacity="0" result="BackgroundImageFix"/>
<feColorMatrix in="SourceAlpha" type="matrix" values="0 0 0 0 0 0 0 0 0 0 0 0 0 0 0 0 0 0 127 0" result="hardAlpha"/>
<feOffset dy="8"/>
<feGaussianBlur stdDeviation="12"/>
<feColorMatrix type="matrix" values="0 0 0 0 0.08 0 0 0 0 0.08 0 0 0 0 0.08 0 0 0 0.16 0"/>
<feBlend mode="normal" in2="BackgroundImageFix" result="effect1_dropShadow_655_18655"/>
<feBlend mode="normal" in="SourceGraphic" in2="effect1_dropShadow_655_18655" result="shape"/>
</filter>
<filter id="filter5_d_655_18655" x="117.333" y="121.667" width="140.444" height="140.444" filterUnits="userSpaceOnUse" color-interpolation-filters="sRGB">
<feFlood flood-opacity="0" result="BackgroundImageFix"/>
<feColorMatrix in="SourceAlpha" type="matrix" values="0 0 0 0 0 0 0 0 0 0 0 0 0 0 0 0 0 0 127 0" result="hardAlpha"/>
<feOffset dy="2"/>
<feGaussianBlur stdDeviation="4"/>
<feColorMatrix type="matrix" values="0 0 0 0 0.08 0 0 0 0 0.08 0 0 0 0 0.08 0 0 0 0.08 0"/>
<feBlend mode="normal" in2="BackgroundImageFix" result="effect1_dropShadow_655_18655"/>
<feBlend mode="normal" in="SourceGraphic" in2="effect1_dropShadow_655_18655" result="shape"/>
</filter>
</defs>
</svg>
