<svg width="97" height="96" viewBox="0 0 97 96" fill="none" xmlns="http://www.w3.org/2000/svg">
<rect x="21" y="11.9434" width="55.71" height="56.1151" rx="8" fill="#BDFFBD"/>
<g filter="url(#filter0_d_914_36604)">
<circle cx="48.8738" cy="40.0188" r="15.9231" stroke="#196719" stroke-width="2"/>
</g>
<g filter="url(#filter1_d_914_36604)">
<circle cx="48.8309" cy="39.9764" r="18.8846" stroke="#196719"/>
</g>
<g filter="url(#filter2_d_914_36604)">
<circle cx="48.788" cy="39.934" r="21.5962" stroke="#196719" stroke-width="0.5"/>
</g>
<g filter="url(#filter3_d_914_36604)">
<circle cx="48.855" cy="40" r="23.95" stroke="#196719" stroke-width="0.1"/>
</g>
<path d="M55.3666 46.8929H55.3655C55.1847 46.8925 55.0071 46.8446 54.8506 46.754C54.6944 46.6636 54.5647 46.5339 54.4743 46.3778C54.4741 46.3774 54.4739 46.377 54.4736 46.3767L53.4011 44.5372C53.4009 44.5369 53.4007 44.5366 53.4005 44.5362C53.2639 44.3031 53.2242 44.0256 53.2899 43.7635C53.29 43.7633 53.29 43.763 53.2901 43.7628L54.2788 39.776C54.3173 39.6202 54.3915 39.4755 54.4957 39.3534C54.5999 39.2313 54.731 39.1352 54.8788 39.0727L55.3666 46.8929ZM55.3666 46.8929H58.3769H58.3771C58.5555 46.8929 58.7308 46.8466 58.8859 46.7586C59.04 46.6712 59.1689 46.5458 59.2604 46.3943C60.1319 44.9837 60.705 43.4094 60.9444 41.7687C60.9702 41.5963 60.952 41.4202 60.8915 41.2568C60.8307 41.0929 60.7294 40.9471 60.597 40.833L60.5968 40.8329L57.8256 38.4485L57.8255 38.4484C57.6796 38.3229 57.5014 38.2406 57.3113 38.211L57.2342 38.705L57.3112 38.211C57.1211 38.1814 56.9265 38.2054 56.7493 38.2805C56.7493 38.2806 56.7492 38.2806 56.7491 38.2806L54.8789 39.0726L55.3666 46.8929ZM40.9645 38.2852L40.9659 38.2858L42.8363 39.0779C42.8364 39.078 42.8364 39.078 42.8365 39.078C42.9842 39.1405 43.1154 39.2366 43.2195 39.3587C43.3236 39.4807 43.3979 39.6254 43.4364 39.7811L43.4363 39.7809L42.951 39.9012L43.4365 39.7813L40.9645 38.2852ZM40.9645 38.2852C40.7879 38.2111 40.5942 38.1876 40.405 38.2172C40.2159 38.2468 40.0386 38.3285 39.8932 38.453L39.8923 38.4538L37.1211 40.8383L37.121 40.8384C36.9885 40.9524 36.8872 41.0982 36.8265 41.2621C36.7661 41.4251 36.7478 41.6007 36.7734 41.7727M40.9645 38.2852L36.7734 41.7727M39.3387 46.8929L39.3384 46.3929V46.8929H39.3387ZM39.3387 46.8929C39.1622 46.893 38.9886 46.8479 38.8345 46.7618L39.0783 46.3253M39.3387 46.8929L36.7734 41.7727M39.0783 46.3253C38.9989 46.2809 38.9321 46.2169 38.8844 46.1393C38.0477 44.7858 37.4976 43.2751 37.2681 41.7006M39.0783 46.3253L42.6415 39.5384L40.7709 38.7463C40.6799 38.708 40.58 38.6959 40.4824 38.7112C40.3848 38.7264 40.2934 38.7686 40.2184 38.8328L37.4472 41.2173C37.3789 41.2761 37.3266 41.3513 37.2953 41.4358C37.264 41.5203 37.2546 41.6114 37.2681 41.7006M39.0783 46.3253L38.8345 46.7618C38.6805 46.6758 38.5512 46.5518 38.4587 46.4016C37.5863 44.9901 37.0127 43.4147 36.7734 41.7727M37.2681 41.7006L36.7738 41.7754C36.7736 41.7745 36.7735 41.7736 36.7734 41.7727M37.2681 41.7006L36.7734 41.7727M56.578 37.1331L56.5748 37.1344L54.6058 37.9685L54.6055 37.9686C54.4303 38.0427 54.2381 38.067 54.0499 38.0387C53.8619 38.0105 53.6852 37.9309 53.5396 37.8086C53.5395 37.8086 53.5395 37.8086 53.5395 37.8086C53.5395 37.8086 53.5395 37.8086 53.5394 37.8085L49.797 34.6694C49.7965 34.669 49.7961 34.6686 49.7956 34.6682C49.6802 34.5724 49.5871 34.4527 49.5227 34.3172C49.4581 34.1812 49.4239 34.0327 49.4227 33.8821L49.4227 33.8781H49.4227V31.6428V31.6425C49.4228 31.4727 49.4648 31.3055 49.5449 31.1558C49.6251 31.0061 49.7409 30.8784 49.8822 30.7842L49.8824 30.784L52.7332 28.8844C52.8775 28.7881 53.0437 28.7297 53.2165 28.7146C53.389 28.6995 53.5625 28.728 53.7211 28.7976C53.7214 28.7977 53.7216 28.7978 53.7219 28.7979L53.5207 29.2557L56.578 37.1331ZM56.578 37.1331C56.7096 37.0762 56.828 36.9926 56.9256 36.8875C57.0227 36.7828 57.0971 36.6591 57.144 36.5242C57.1442 36.5236 57.1444 36.5231 57.1446 36.5226L58.3459 33.1067C58.346 33.1064 58.3462 33.1061 58.3463 33.1057C58.407 32.9347 58.4216 32.7507 58.3886 32.5722L57.8969 32.6632M56.578 37.1331L57.8969 32.6632M57.8969 32.6632L58.3886 32.5722C58.3556 32.3938 58.2762 32.2273 58.1584 32.0894L57.8969 32.6632ZM47.8328 30.784L47.8331 30.7842C47.9743 30.8784 48.0902 31.0061 48.1703 31.1558C48.2504 31.3055 48.2924 31.4727 48.2925 31.6425V31.6428V33.8781V33.8782C48.2925 34.029 48.2595 34.178 48.1957 34.3147L48.1957 34.3147C48.1319 34.4514 48.039 34.5724 47.9234 34.6693L44.1785 37.8105C44.0328 37.9328 43.8561 38.0125 43.668 38.0407C43.4798 38.069 43.2876 38.0447 43.1124 37.9706L43.112 37.9704L41.1405 37.1344C41.008 37.0783 40.8887 36.9951 40.7902 36.8902C40.6919 36.7854 40.6165 36.6613 40.5689 36.5257L47.8328 30.784ZM47.8328 30.784L44.9822 28.8849C44.9819 28.8847 44.9816 28.8846 44.9814 28.8844C44.8386 28.7889 44.6743 28.7305 44.5033 28.7146C44.332 28.6986 44.1594 28.7256 44.0012 28.7933L44.0012 28.7933L43.998 28.7947C42.287 29.5406 40.7686 30.6669 39.5583 32.0878C39.4396 32.2252 39.3594 32.3915 39.3255 32.5699C39.2915 32.7488 39.3055 32.9336 39.366 33.1054C39.366 33.1054 39.366 33.1055 39.366 33.1055C39.366 33.1056 39.3661 33.1057 39.3661 33.1058L40.5687 36.5252L47.8328 30.784ZM46.046 44.8278L46.0471 44.8278L51.6681 44.8278H51.6693C51.8501 44.8283 52.0277 44.8762 52.1842 44.9668C52.3404 45.0572 52.4701 45.1869 52.5605 45.3431C52.5607 45.3434 52.5609 45.3438 52.5611 45.3441L53.5701 47.0722C53.5701 47.0722 53.5701 47.0723 53.5701 47.0723L53.5704 47.0728L53.1386 47.3249C53.1795 47.3948 53.204 47.473 53.2101 47.5538L53.7087 47.516C53.7205 47.6723 53.6966 47.8292 53.6388 47.9749C53.6387 47.9752 53.6386 47.9754 53.6385 47.9757L52.335 51.2807L52.3349 51.2808C52.2731 51.4375 52.1739 51.5767 52.0458 51.6863C51.9181 51.7956 51.7657 51.8721 51.6017 51.9091C49.7981 52.3229 47.9241 52.3228 46.1205 51.9088L46.046 44.8278ZM46.046 44.8278C45.8651 44.8283 45.6876 44.8762 45.531 44.9668L45.7815 45.3995M46.046 44.8278L45.7815 45.3995M45.7815 45.3995L45.531 44.9668C45.3749 45.0571 45.2452 45.1869 45.1548 45.343C45.1546 45.3434 45.1543 45.3437 45.1541 45.3441L44.1455 47.0728C44.0663 47.2084 44.0192 47.3603 44.0075 47.5168C43.9959 47.6731 44.02 47.83 44.0781 47.9756M45.7815 45.3995L44.0781 47.9756M44.0784 47.9763L45.3913 51.2829C45.4529 51.4385 45.5516 51.5768 45.6786 51.6859C45.8056 51.7949 45.9572 51.8714 46.1203 51.9088L44.0784 47.9763ZM44.0784 47.9763C44.0783 47.9761 44.0782 47.9758 44.0781 47.9756M44.0784 47.9763L44.0781 47.9756M44.4252 43.7681L43.9402 43.89L44.4255 43.7696L44.4254 43.769C44.4253 43.7687 44.4252 43.7684 44.4252 43.7681ZM44.3144 44.5421L44.3146 44.5418L43.883 44.2894L44.3142 44.5425C44.3142 44.5424 44.3143 44.5423 44.3144 44.5421ZM43.2416 46.3767L42.8086 46.1267L43.2402 46.3791L43.2407 46.3781C43.241 46.3776 43.2413 46.3771 43.2416 46.3767ZM35.5115 40.0024C35.5115 32.6439 41.4991 26.6562 48.8576 26.6562C56.2162 26.6562 62.2038 32.6439 62.2038 40.0024C62.2038 47.3609 56.2162 53.3486 48.8576 53.3486C41.4991 53.3486 35.5115 47.3609 35.5115 40.0024Z" fill="#196719" stroke="#196719"/>
<g filter="url(#filter4_d_914_36604)">
<circle cx="48.6862" cy="40.1508" r="9.93788" fill="#196719"/>
</g>
<g filter="url(#filter5_d_914_36604)">
<circle cx="48.8627" cy="40.1923" r="7.53997" fill="white"/>
<circle cx="48.8629" cy="40.1908" r="4.46813" fill="#CCFF33"/>
<path d="M57.5198 40.1922C57.5198 44.9733 53.6439 48.8492 48.8628 48.8492C44.0817 48.8492 40.2058 44.9733 40.2058 40.1922C40.2058 35.411 44.0817 31.5352 48.8628 31.5352C53.6439 31.5352 57.5198 35.411 57.5198 40.1922ZM41.7806 40.1922C41.7806 44.1035 44.9514 47.2743 48.8628 47.2743C52.7742 47.2743 55.945 44.1035 55.945 40.1922C55.945 36.2808 52.7742 33.11 48.8628 33.11C44.9514 33.11 41.7806 36.2808 41.7806 40.1922Z" fill="#CDDDCD"/>
<path d="M55.0063 40.1925C55.0063 43.5856 52.2557 46.3362 48.8627 46.3362C45.4696 46.3362 42.719 43.5856 42.719 40.1925C42.719 36.7994 45.4696 34.0488 48.8627 34.0488C52.2557 34.0488 55.0063 36.7994 55.0063 40.1925ZM44.0706 40.1925C44.0706 42.8391 46.2161 44.9846 48.8627 44.9846C51.5093 44.9846 53.6547 42.8391 53.6547 40.1925C53.6547 37.5459 51.5093 35.4004 48.8627 35.4004C46.2161 35.4004 44.0706 37.5459 44.0706 40.1925Z" fill="#70E000"/>
<path d="M55.0063 40.1925C55.0063 40.9993 54.8474 41.7982 54.5387 42.5436C54.2299 43.289 53.7774 43.9662 53.2069 44.5367C52.6364 45.1072 51.9591 45.5598 51.2138 45.8685C50.4684 46.1773 49.6695 46.3362 48.8627 46.3362C48.0559 46.3362 47.257 46.1773 46.5116 45.8685C45.7662 45.5598 45.0889 45.1072 44.5184 44.5367C43.9479 43.9662 43.4954 43.289 43.1867 42.5436C42.8779 41.7982 42.719 40.9993 42.719 40.1925H44.0706C44.0706 40.8218 44.1946 41.445 44.4354 42.0264C44.6762 42.6078 45.0292 43.136 45.4742 43.581C45.9192 44.026 46.4474 44.379 47.0288 44.6198C47.6102 44.8606 48.2334 44.9846 48.8627 44.9846C49.492 44.9846 50.1151 44.8606 50.6965 44.6198C51.2779 44.379 51.8062 44.026 52.2512 43.581C52.6962 43.136 53.0491 42.6078 53.29 42.0264C53.5308 41.445 53.6547 40.8218 53.6547 40.1925H55.0063Z" fill="#196719"/>
<path d="M48.8627 35.6543C46.3605 35.6543 44.3247 37.69 44.3247 40.1922C44.3247 42.6944 46.3605 44.7302 48.8627 44.7302C51.3648 44.7302 53.4006 42.6944 53.4006 40.1922C53.4006 37.69 51.3648 35.6543 48.8627 35.6543ZM51.9825 42.2867H50.9959C50.9654 42.2866 50.9353 42.2785 50.9089 42.2632C50.8824 42.2479 50.8605 42.2259 50.8452 42.1994L50.493 41.5955C50.4699 41.556 50.4631 41.509 50.4743 41.4646L50.7985 40.1573C50.805 40.131 50.8175 40.1065 50.8351 40.0859C50.8528 40.0653 50.8749 40.049 50.8999 40.0384L51.513 39.7788C51.5429 39.7661 51.5759 39.762 51.608 39.767C51.6402 39.7721 51.6703 39.786 51.6949 39.8072L52.6032 40.5887C52.6256 40.6079 52.6427 40.6326 52.653 40.6603C52.6632 40.688 52.6663 40.7178 52.6619 40.747C52.5867 41.2631 52.4064 41.7582 52.1322 42.2018C52.1167 42.2277 52.0947 42.2491 52.0685 42.264C52.0423 42.2788 52.0126 42.2867 51.9825 42.2867ZM46.2123 39.7806L46.8254 40.0402C46.8504 40.0507 46.8725 40.067 46.8902 40.0876C46.9078 40.1083 46.9203 40.1327 46.9268 40.1591L47.251 41.4664C47.2622 41.5108 47.2554 41.5578 47.2323 41.5973L46.8801 42.1994C46.8649 42.2259 46.8429 42.2479 46.8164 42.2632C46.79 42.2785 46.76 42.2866 46.7294 42.2867H45.7428C45.713 42.2867 45.6836 42.2791 45.6576 42.2645C45.6315 42.25 45.6097 42.229 45.594 42.2036C45.3198 41.76 45.1395 41.2648 45.0643 40.7488C45.0599 40.7196 45.0629 40.6897 45.0732 40.662C45.0835 40.6343 45.1006 40.6097 45.123 40.5904L46.0312 39.8089C46.0558 39.7879 46.0858 39.7741 46.1178 39.7691C46.1497 39.764 46.1825 39.768 46.2123 39.7806ZM51.818 37.8772L51.4238 38.9982C51.4158 39.0211 51.4032 39.0421 51.3867 39.0599C51.3702 39.0776 51.3502 39.0918 51.328 39.1014L50.6826 39.3748C50.653 39.3873 50.6205 39.3914 50.5887 39.3866C50.5569 39.3818 50.5271 39.3684 50.5024 39.3477L49.275 38.3182C49.2554 38.3019 49.2396 38.2816 49.2286 38.2586C49.2177 38.2356 49.2119 38.2105 49.2117 38.1851V37.4525C49.2117 37.4238 49.2188 37.3955 49.2324 37.3702C49.2459 37.3449 49.2655 37.3233 49.2894 37.3074L50.2238 36.6847C50.2482 36.6684 50.2763 36.6586 50.3055 36.656C50.3347 36.6535 50.3641 36.6583 50.3909 36.6701C50.9286 36.9046 51.4058 37.2586 51.7861 37.7051C51.8061 37.7284 51.8196 37.7567 51.8252 37.7869C51.8308 37.8171 51.8283 37.8483 51.818 37.8772ZM47.5013 36.6847L48.4359 37.3074C48.4598 37.3233 48.4794 37.3449 48.4929 37.3702C48.5065 37.3955 48.5136 37.4238 48.5136 37.4525V38.1851C48.5136 38.2106 48.508 38.2358 48.4972 38.2589C48.4864 38.282 48.4707 38.3024 48.4512 38.3188L47.2238 39.3484C47.1991 39.369 47.1693 39.3825 47.1375 39.3873C47.1057 39.392 47.0732 39.3879 47.0435 39.3754L46.3973 39.1014C46.3749 39.0919 46.3548 39.0778 46.3381 39.0601C46.3215 39.0424 46.3087 39.0214 46.3007 38.9984L45.9064 37.8775C45.8962 37.8484 45.8938 37.8171 45.8996 37.7869C45.9053 37.7566 45.919 37.7284 45.9392 37.7051C46.3198 37.2581 46.7973 36.9038 47.3355 36.6692C47.3622 36.6578 47.3914 36.6532 47.4203 36.6559C47.4493 36.6586 47.4771 36.6685 47.5013 36.6847ZM47.8789 43.8289L47.4485 42.7448C47.4386 42.7202 47.4345 42.6936 47.4365 42.6672C47.4385 42.6407 47.4464 42.615 47.4598 42.5921L47.7908 42.0249C47.8061 41.9984 47.828 41.9764 47.8545 41.9611C47.8809 41.9458 47.911 41.9377 47.9415 41.9376H49.7838C49.8143 41.9377 49.8444 41.9458 49.8708 41.9611C49.8973 41.9764 49.9192 41.9984 49.9345 42.0249L50.2657 42.5921C50.2791 42.615 50.2871 42.6407 50.2891 42.6671C50.2911 42.6936 50.2871 42.7202 50.2773 42.7448L49.8499 43.8285C49.8394 43.855 49.8226 43.8785 49.801 43.897C49.7794 43.9156 49.7535 43.9285 49.7257 43.9347C49.1586 44.0649 48.5693 44.0649 48.0022 43.9347C47.9746 43.9284 47.949 43.9155 47.9275 43.897C47.906 43.8786 47.8893 43.8552 47.8789 43.8289Z" fill="#196719"/>
</g>
<path d="M57.4424 28.3331C57.5068 28.1589 57.7531 28.1589 57.8175 28.3331L58.2422 29.4808C58.2625 29.5356 58.3057 29.5787 58.3604 29.599L59.5082 30.0237C59.6823 30.0881 59.6823 30.3344 59.5082 30.3988L58.3604 30.8235C58.3057 30.8438 58.2625 30.887 58.2422 30.9417L57.8175 32.0895C57.7531 32.2636 57.5068 32.2636 57.4424 32.0895L57.0177 30.9417C56.9974 30.887 56.9543 30.8438 56.8995 30.8235L55.7518 30.3988C55.5777 30.3344 55.5777 30.0881 55.7518 30.0237L56.8995 29.599C56.9543 29.5787 56.9974 29.5356 57.0177 29.4808L57.4424 28.3331Z" fill="#70E000"/>
<path d="M36.9706 33.1046C37.035 32.9304 37.2813 32.9304 37.3457 33.1046L37.5557 33.672C37.576 33.7268 37.6191 33.7699 37.6739 33.7902L38.2413 34.0001C38.4155 34.0646 38.4155 34.3109 38.2413 34.3753L37.6739 34.5853C37.6191 34.6055 37.576 34.6487 37.5557 34.7034L37.3457 35.2709C37.2813 35.445 37.035 35.445 36.9706 35.2709L36.7606 34.7034C36.7404 34.6487 36.6972 34.6055 36.6425 34.5853L36.075 34.3753C35.9009 34.3109 35.9009 34.0646 36.075 34.0001L36.6425 33.7902C36.6972 33.7699 36.7404 33.7268 36.7606 33.672L36.9706 33.1046Z" fill="#70E000"/>
<path d="M39.956 48.992C40.019 48.8217 40.26 48.8217 40.323 48.992C40.3428 49.0456 40.3851 49.0878 40.4386 49.1076C40.609 49.1707 40.609 49.4116 40.4386 49.4746C40.3851 49.4944 40.3428 49.5367 40.323 49.5902C40.26 49.7606 40.019 49.7606 39.956 49.5902C39.9362 49.5367 39.894 49.4944 39.8404 49.4746C39.6701 49.4116 39.6701 49.1707 39.8404 49.1076C39.894 49.0878 39.9362 49.0456 39.956 48.992Z" fill="#70E000"/>
<defs>
<filter id="filter0_d_914_36604" x="7.95068" y="7.0957" width="81.8462" height="81.8457" filterUnits="userSpaceOnUse" color-interpolation-filters="sRGB">
<feFlood flood-opacity="0" result="BackgroundImageFix"/>
<feColorMatrix in="SourceAlpha" type="matrix" values="0 0 0 0 0 0 0 0 0 0 0 0 0 0 0 0 0 0 127 0" result="hardAlpha"/>
<feOffset dy="8"/>
<feGaussianBlur stdDeviation="12"/>
<feColorMatrix type="matrix" values="0 0 0 0 0.08 0 0 0 0 0.08 0 0 0 0 0.08 0 0 0 0.16 0"/>
<feBlend mode="normal" in2="BackgroundImageFix" result="effect1_dropShadow_914_36604"/>
<feBlend mode="normal" in="SourceGraphic" in2="effect1_dropShadow_914_36604" result="shape"/>
</filter>
<filter id="filter1_d_914_36604" x="5.44629" y="4.5918" width="86.7693" height="86.7695" filterUnits="userSpaceOnUse" color-interpolation-filters="sRGB">
<feFlood flood-opacity="0" result="BackgroundImageFix"/>
<feColorMatrix in="SourceAlpha" type="matrix" values="0 0 0 0 0 0 0 0 0 0 0 0 0 0 0 0 0 0 127 0" result="hardAlpha"/>
<feOffset dy="8"/>
<feGaussianBlur stdDeviation="12"/>
<feColorMatrix type="matrix" values="0 0 0 0 0.08 0 0 0 0 0.08 0 0 0 0 0.08 0 0 0 0.16 0"/>
<feBlend mode="normal" in2="BackgroundImageFix" result="effect1_dropShadow_914_36604"/>
<feBlend mode="normal" in="SourceGraphic" in2="effect1_dropShadow_914_36604" result="shape"/>
</filter>
<filter id="filter2_d_914_36604" x="2.94189" y="2.08789" width="91.6924" height="91.6914" filterUnits="userSpaceOnUse" color-interpolation-filters="sRGB">
<feFlood flood-opacity="0" result="BackgroundImageFix"/>
<feColorMatrix in="SourceAlpha" type="matrix" values="0 0 0 0 0 0 0 0 0 0 0 0 0 0 0 0 0 0 127 0" result="hardAlpha"/>
<feOffset dy="8"/>
<feGaussianBlur stdDeviation="12"/>
<feColorMatrix type="matrix" values="0 0 0 0 0.08 0 0 0 0 0.08 0 0 0 0 0.08 0 0 0 0.16 0"/>
<feBlend mode="normal" in2="BackgroundImageFix" result="effect1_dropShadow_914_36604"/>
<feBlend mode="normal" in="SourceGraphic" in2="effect1_dropShadow_914_36604" result="shape"/>
</filter>
<filter id="filter3_d_914_36604" x="0.85498" y="0" width="96" height="96" filterUnits="userSpaceOnUse" color-interpolation-filters="sRGB">
<feFlood flood-opacity="0" result="BackgroundImageFix"/>
<feColorMatrix in="SourceAlpha" type="matrix" values="0 0 0 0 0 0 0 0 0 0 0 0 0 0 0 0 0 0 127 0" result="hardAlpha"/>
<feOffset dy="8"/>
<feGaussianBlur stdDeviation="12"/>
<feColorMatrix type="matrix" values="0 0 0 0 0.08 0 0 0 0 0.08 0 0 0 0 0.08 0 0 0 0.16 0"/>
<feBlend mode="normal" in2="BackgroundImageFix" result="effect1_dropShadow_914_36604"/>
<feBlend mode="normal" in="SourceGraphic" in2="effect1_dropShadow_914_36604" result="shape"/>
</filter>
<filter id="filter4_d_914_36604" x="14.7483" y="14.2129" width="67.8757" height="67.875" filterUnits="userSpaceOnUse" color-interpolation-filters="sRGB">
<feFlood flood-opacity="0" result="BackgroundImageFix"/>
<feColorMatrix in="SourceAlpha" type="matrix" values="0 0 0 0 0 0 0 0 0 0 0 0 0 0 0 0 0 0 127 0" result="hardAlpha"/>
<feOffset dy="8"/>
<feGaussianBlur stdDeviation="12"/>
<feColorMatrix type="matrix" values="0 0 0 0 0.08 0 0 0 0 0.08 0 0 0 0 0.08 0 0 0 0.16 0"/>
<feBlend mode="normal" in2="BackgroundImageFix" result="effect1_dropShadow_914_36604"/>
<feBlend mode="normal" in="SourceGraphic" in2="effect1_dropShadow_914_36604" result="shape"/>
</filter>
<filter id="filter5_d_914_36604" x="32.2058" y="25.5352" width="33.314" height="33.3145" filterUnits="userSpaceOnUse" color-interpolation-filters="sRGB">
<feFlood flood-opacity="0" result="BackgroundImageFix"/>
<feColorMatrix in="SourceAlpha" type="matrix" values="0 0 0 0 0 0 0 0 0 0 0 0 0 0 0 0 0 0 127 0" result="hardAlpha"/>
<feOffset dy="2"/>
<feGaussianBlur stdDeviation="4"/>
<feColorMatrix type="matrix" values="0 0 0 0 0.08 0 0 0 0 0.08 0 0 0 0 0.08 0 0 0 0.08 0"/>
<feBlend mode="normal" in2="BackgroundImageFix" result="effect1_dropShadow_914_36604"/>
<feBlend mode="normal" in="SourceGraphic" in2="effect1_dropShadow_914_36604" result="shape"/>
</filter>
</defs>
</svg>
