<svg width="24" height="24" viewBox="0 0 24 24" fill="none" xmlns="http://www.w3.org/2000/svg">
<g clip-path="url(#clip0_914_33658)">
<path fill-rule="evenodd" clip-rule="evenodd" d="M23.9381 13.2267C23.979 12.8234 24 12.4141 24 12C24 5.37258 18.6274 0 12 0C6.39589 0 1.68903 3.84156 0.369107 9.03497L2.83659 7.24834C4.55567 3.93989 8.01392 1.68 12 1.68C17.6996 1.68 22.32 6.30042 22.32 12C22.32 12.004 22.32 12.0081 22.32 12.0121L23.9381 13.2267ZM23.5659 15.2098C22.1622 20.2787 17.5157 24 12 24C5.37258 24 0 18.6274 0 12C0 11.5429 0.0255623 11.0917 0.0753355 10.6478L0.227108 10.7577L1.6817 11.811C1.68057 11.8738 1.68 11.9369 1.68 12C1.68 17.6996 6.30042 22.32 12 22.32C15.6748 22.32 18.9009 20.3993 20.7294 17.5071L23.5659 15.2098Z" fill="#141414"/>
<path d="M13.0168 8.13599H7.4236V5.69531L1.22021 10.0682L7.4236 14.4411V11.8987H17.6948V10.0682L22.9829 13.9326L17.6948 18.1021V15.8648H12.2033" stroke="#141414" stroke-width="1.5"/>
</g>
<defs>
<clipPath id="clip0_914_33658">
<rect width="24" height="24" fill="white"/>
</clipPath>
</defs>
</svg>
