<svg width="351" height="229" viewBox="0 0 351 229" fill="none" xmlns="http://www.w3.org/2000/svg">
<g filter="url(#filter0_d_655_18611)">
<circle cx="298.612" cy="96.3879" r="76.3879" fill="#D8FFD8"/>
<path d="M285.327 34.0364L268.46 53.4642L285.327 76.336H319.944L336.546 53.4642L319.944 34.0364C306.026 29.3737 291.067 32.0936 285.327 34.0364Z" stroke="url(#paint0_linear_655_18611)" stroke-width="6"/>
<path d="M320.209 82.96H285.239L274.377 115.281L302.635 135.68L330.541 115.281L320.209 82.96Z" fill="url(#paint1_linear_655_18611)"/>
<path d="M269.873 113.691L242.409 122.433C238.806 118.124 231.665 105.567 228.545 99.8265C227.061 91.349 234.461 74.6881 238.347 67.4174L263.515 57.6152L280.205 80.9286L269.873 113.691Z" stroke="url(#paint2_linear_655_18611)" stroke-width="6"/>
<path d="M299.015 139.654L271.551 119.784L244.087 128.35C243.675 130.852 243.31 136.616 245.147 139.654" stroke="url(#paint3_linear_655_18611)" stroke-width="6"/>
<path d="M306.609 139.653L334.426 119.872L361.36 128.968L360.742 139.388" stroke="url(#paint4_linear_655_18611)" stroke-width="6"/>
<path d="M361.625 121.992L336.193 114.044L325.066 80.3102L342.021 57.2617L361.537 65.5627" stroke="url(#paint5_linear_655_18611)" stroke-width="6"/>
<path d="M344.228 51.6984C338.082 48.0247 332.483 40.1005 330.452 36.5977C347.62 42.1787 357.269 53.7589 359.947 58.8513C357.269 57.9977 350.375 55.372 344.228 51.6984Z" fill="url(#paint6_linear_655_18611)"/>
<path d="M255.302 47.5477C260.566 42.693 270.53 37.9953 274.465 37.0391C265.369 53.1995 250.878 57.0174 245.235 58.1447C246.812 55.8173 250.039 52.4024 255.302 47.5477Z" fill="url(#paint7_linear_655_18611)"/>
<path d="M231.812 132.941C229.358 126.215 227.233 115.088 227.375 111.041C240.481 124.16 239.314 139.567 238.877 145.305C237.061 143.158 235.806 143.886 231.812 132.941Z" fill="url(#paint8_linear_655_18611)"/>
</g>
<g filter="url(#filter1_d_655_18611)">
<circle cx="151.648" cy="186.891" r="76.3879" fill="#D8FFD8"/>
<path d="M99.7109 146.783L99.3504 169.941L124.224 175.923L148.071 155.861L146.254 130.484L123.558 126.722C111.268 131.575 102.539 142.118 99.7109 146.783Z" stroke="url(#paint9_linear_655_18611)" stroke-width="6"/>
<path d="M152.092 160.27L128.002 180.536L139.25 209.096L170.539 206.772L177.94 176.548L152.092 160.27Z" fill="url(#paint10_linear_655_18611)"/>
<path d="M135.226 210.611L121.373 232.549C116.394 231.668 104.197 227.156 98.7211 225.01C92.7862 220.03 88.2287 204.264 86.6919 197.004L98.349 175.666L123.357 182.054L135.226 210.611Z" stroke="url(#paint11_linear_655_18611)" stroke-width="6"/>
<path d="M170.347 211.608L139.913 213.836L125.958 235.653C127.124 237.616 130.213 241.798 133.239 242.826" stroke="url(#paint12_linear_655_18611)" stroke-width="6"/>
<path d="M175.579 207.207L183.278 177.459L207.104 168.117L212.717 175.653" stroke="url(#paint13_linear_655_18611)" stroke-width="6"/>
<path d="M203.243 163.157L181.117 172.421L153.903 155.631L152.226 129.927L170.481 124.335" stroke="url(#paint14_linear_655_18611)" stroke-width="6"/>
<path d="M150.523 124.815C144.16 125.846 135.71 123.632 132.281 122.396C147.342 116.291 160.7 118.677 165.496 120.633C163.156 121.597 156.886 123.783 150.523 124.815Z" fill="url(#paint15_linear_655_18611)"/>
<path d="M86.8573 173.49C87.6698 167.095 91.8119 158.084 93.9683 155.146C97.0677 171.549 89.2971 182.578 86.0634 186.624C85.801 184.107 86.0448 179.885 86.8573 173.49Z" fill="url(#paint16_linear_655_18611)"/>
</g>
<g filter="url(#filter2_d_655_18611)">
<circle cx="257.097" cy="193.533" r="94.6545" fill="#D8FFD8"/>
<path d="M238.88 111.026L218.796 134.159L238.88 161.393H280.098L299.866 134.159L280.098 111.026C263.527 105.475 245.714 108.713 238.88 111.026Z" stroke="url(#paint17_linear_655_18611)" stroke-width="6"/>
<path d="M280.413 169.279H238.775L225.841 207.764L259.489 232.053L292.716 207.764L280.413 169.279Z" fill="url(#paint18_linear_655_18611)"/>
<path d="M220.479 205.871L187.777 216.281C183.487 211.149 174.984 196.197 171.269 189.363C169.503 179.268 178.314 159.43 182.941 150.773L212.908 139.102L232.781 166.861L220.479 205.871Z" stroke="url(#paint19_linear_655_18611)" stroke-width="6"/>
<path d="M255.178 236.784L222.477 213.126L189.775 223.325C189.285 226.305 188.85 233.167 191.037 236.784" stroke="url(#paint20_linear_655_18611)" stroke-width="6"/>
<path d="M264.22 236.785L297.342 213.231L329.413 224.062L328.677 236.469" stroke="url(#paint21_linear_655_18611)" stroke-width="6"/>
<path d="M329.728 215.755L299.445 206.291L286.197 166.124L306.385 138.681L329.623 148.565" stroke="url(#paint22_linear_655_18611)" stroke-width="6"/>
<path d="M309.014 132.057C301.695 127.682 295.029 118.247 292.611 114.076C313.051 120.722 324.541 134.51 327.73 140.574C324.541 139.557 316.332 136.431 309.014 132.057Z" fill="url(#paint23_linear_655_18611)"/>
<path d="M203.129 127.114C209.396 121.334 221.262 115.74 225.947 114.602C215.116 133.844 197.861 138.39 191.142 139.732C193.02 136.961 196.862 132.895 203.129 127.114Z" fill="url(#paint24_linear_655_18611)"/>
<path d="M175.16 228.793C172.237 220.783 169.708 207.534 169.876 202.716C185.481 218.337 184.092 236.682 183.572 243.513C181.41 240.957 179.915 241.825 175.16 228.793Z" fill="url(#paint25_linear_655_18611)"/>
</g>
<defs>
<filter id="filter0_d_655_18611" x="202.224" y="0" width="184.776" height="184.775" filterUnits="userSpaceOnUse" color-interpolation-filters="sRGB">
<feFlood flood-opacity="0" result="BackgroundImageFix"/>
<feColorMatrix in="SourceAlpha" type="matrix" values="0 0 0 0 0 0 0 0 0 0 0 0 0 0 0 0 0 0 127 0" result="hardAlpha"/>
<feOffset dx="-4" dy="-4"/>
<feGaussianBlur stdDeviation="8"/>
<feComposite in2="hardAlpha" operator="out"/>
<feColorMatrix type="matrix" values="0 0 0 0 0 0 0 0 0 0.564706 0 0 0 0 0.145098 0 0 0 0.12 0"/>
<feBlend mode="normal" in2="BackgroundImageFix" result="effect1_dropShadow_655_18611"/>
<feBlend mode="normal" in="SourceGraphic" in2="effect1_dropShadow_655_18611" result="shape"/>
</filter>
<filter id="filter1_d_655_18611" x="55.2605" y="90.5029" width="184.776" height="184.775" filterUnits="userSpaceOnUse" color-interpolation-filters="sRGB">
<feFlood flood-opacity="0" result="BackgroundImageFix"/>
<feColorMatrix in="SourceAlpha" type="matrix" values="0 0 0 0 0 0 0 0 0 0 0 0 0 0 0 0 0 0 127 0" result="hardAlpha"/>
<feOffset dx="-4" dy="-4"/>
<feGaussianBlur stdDeviation="8"/>
<feComposite in2="hardAlpha" operator="out"/>
<feColorMatrix type="matrix" values="0 0 0 0 0 0 0 0 0 0.564706 0 0 0 0 0.145098 0 0 0 0.12 0"/>
<feBlend mode="normal" in2="BackgroundImageFix" result="effect1_dropShadow_655_18611"/>
<feBlend mode="normal" in="SourceGraphic" in2="effect1_dropShadow_655_18611" result="shape"/>
</filter>
<filter id="filter2_d_655_18611" x="130.442" y="66.8789" width="237.309" height="237.31" filterUnits="userSpaceOnUse" color-interpolation-filters="sRGB">
<feFlood flood-opacity="0" result="BackgroundImageFix"/>
<feColorMatrix in="SourceAlpha" type="matrix" values="0 0 0 0 0 0 0 0 0 0 0 0 0 0 0 0 0 0 127 0" result="hardAlpha"/>
<feOffset dx="-8" dy="-8"/>
<feGaussianBlur stdDeviation="12"/>
<feColorMatrix type="matrix" values="0 0 0 0 0 0 0 0 0 0.564706 0 0 0 0 0.145098 0 0 0 0.16 0"/>
<feBlend mode="normal" in2="BackgroundImageFix" result="effect1_dropShadow_655_18611"/>
<feBlend mode="normal" in="SourceGraphic" in2="effect1_dropShadow_655_18611" result="shape"/>
</filter>
<linearGradient id="paint0_linear_655_18611" x1="268.353" y1="56.1164" x2="336.439" y2="56.1164" gradientUnits="userSpaceOnUse">
<stop stop-color="#104210"/>
<stop offset="1" stop-color="#104210" stop-opacity="0"/>
</linearGradient>
<linearGradient id="paint1_linear_655_18611" x1="274.288" y1="111.925" x2="330.452" y2="111.925" gradientUnits="userSpaceOnUse">
<stop stop-color="#104210"/>
<stop offset="1" stop-color="#104210" stop-opacity="0"/>
</linearGradient>
<linearGradient id="paint2_linear_655_18611" x1="228.27" y1="93.2272" x2="280.124" y2="93.2272" gradientUnits="userSpaceOnUse">
<stop stop-color="#104210"/>
<stop offset="1" stop-color="#104210" stop-opacity="0"/>
</linearGradient>
<linearGradient id="paint3_linear_655_18611" x1="243.665" y1="130.701" x2="298.928" y2="130.701" gradientUnits="userSpaceOnUse">
<stop stop-color="#104210"/>
<stop offset="1" stop-color="#104210" stop-opacity="0"/>
</linearGradient>
<linearGradient id="paint4_linear_655_18611" x1="306.523" y1="130.74" x2="361.274" y2="130.74" gradientUnits="userSpaceOnUse">
<stop stop-color="#104210"/>
<stop offset="1" stop-color="#104210" stop-opacity="0"/>
</linearGradient>
<linearGradient id="paint5_linear_655_18611" x1="325.008" y1="92.8252" x2="361.568" y2="92.8252" gradientUnits="userSpaceOnUse">
<stop stop-color="#104210"/>
<stop offset="1" stop-color="#104210" stop-opacity="0"/>
</linearGradient>
<linearGradient id="paint6_linear_655_18611" x1="330.406" y1="48.8241" x2="359.901" y2="48.8241" gradientUnits="userSpaceOnUse">
<stop stop-color="#104210"/>
<stop offset="1" stop-color="#104210" stop-opacity="0"/>
</linearGradient>
<linearGradient id="paint7_linear_655_18611" x1="262.854" y1="33.5649" x2="254.78" y2="60.9157" gradientUnits="userSpaceOnUse">
<stop stop-color="#104210"/>
<stop offset="1" stop-color="#104210" stop-opacity="0"/>
</linearGradient>
<linearGradient id="paint8_linear_655_18611" x1="220.648" y1="121.681" x2="244.326" y2="136.536" gradientUnits="userSpaceOnUse">
<stop stop-color="#104210"/>
<stop offset="1" stop-color="#104210" stop-opacity="0"/>
</linearGradient>
<linearGradient id="paint9_linear_655_18611" x1="100.814" y1="171.83" x2="147.717" y2="132.373" gradientUnits="userSpaceOnUse">
<stop stop-color="#104210"/>
<stop offset="1" stop-color="#104210" stop-opacity="0"/>
</linearGradient>
<linearGradient id="paint10_linear_655_18611" x1="137.244" y1="206.836" x2="175.935" y2="174.288" gradientUnits="userSpaceOnUse">
<stop stop-color="#104210"/>
<stop offset="1" stop-color="#104210" stop-opacity="0"/>
</linearGradient>
<linearGradient id="paint11_linear_655_18611" x1="94.707" y1="220.624" x2="130.428" y2="190.573" gradientUnits="userSpaceOnUse">
<stop stop-color="#104210"/>
<stop offset="1" stop-color="#104210" stop-opacity="0"/>
</linearGradient>
<linearGradient id="paint12_linear_655_18611" x1="127.03" y1="237.517" x2="165.099" y2="205.491" gradientUnits="userSpaceOnUse">
<stop stop-color="#104210"/>
<stop offset="1" stop-color="#104210" stop-opacity="0"/>
</linearGradient>
<linearGradient id="paint13_linear_655_18611" x1="170.354" y1="201.117" x2="208.072" y2="169.387" gradientUnits="userSpaceOnUse">
<stop stop-color="#104210"/>
<stop offset="1" stop-color="#104210" stop-opacity="0"/>
</linearGradient>
<linearGradient id="paint14_linear_655_18611" x1="161.116" y1="164.285" x2="186.301" y2="143.098" gradientUnits="userSpaceOnUse">
<stop stop-color="#104210"/>
<stop offset="1" stop-color="#104210" stop-opacity="0"/>
</linearGradient>
<linearGradient id="paint15_linear_655_18611" x1="139.335" y1="130.845" x2="159.653" y2="113.752" gradientUnits="userSpaceOnUse">
<stop stop-color="#104210"/>
<stop offset="1" stop-color="#104210" stop-opacity="0"/>
</linearGradient>
<linearGradient id="paint16_linear_655_18611" x1="83.9564" y1="159.481" x2="94.2449" y2="183.001" gradientUnits="userSpaceOnUse">
<stop stop-color="#104210"/>
<stop offset="1" stop-color="#104210" stop-opacity="0"/>
</linearGradient>
<linearGradient id="paint17_linear_655_18611" x1="218.669" y1="137.317" x2="299.739" y2="137.317" gradientUnits="userSpaceOnUse">
<stop stop-color="#104210"/>
<stop offset="1" stop-color="#104210" stop-opacity="0"/>
</linearGradient>
<linearGradient id="paint18_linear_655_18611" x1="225.736" y1="203.768" x2="292.611" y2="203.768" gradientUnits="userSpaceOnUse">
<stop stop-color="#104210"/>
<stop offset="1" stop-color="#104210" stop-opacity="0"/>
</linearGradient>
<linearGradient id="paint19_linear_655_18611" x1="170.941" y1="181.505" x2="232.684" y2="181.505" gradientUnits="userSpaceOnUse">
<stop stop-color="#104210"/>
<stop offset="1" stop-color="#104210" stop-opacity="0"/>
</linearGradient>
<linearGradient id="paint20_linear_655_18611" x1="189.273" y1="226.124" x2="255.074" y2="226.124" gradientUnits="userSpaceOnUse">
<stop stop-color="#104210"/>
<stop offset="1" stop-color="#104210" stop-opacity="0"/>
</linearGradient>
<linearGradient id="paint21_linear_655_18611" x1="264.118" y1="226.172" x2="329.31" y2="226.172" gradientUnits="userSpaceOnUse">
<stop stop-color="#104210"/>
<stop offset="1" stop-color="#104210" stop-opacity="0"/>
</linearGradient>
<linearGradient id="paint22_linear_655_18611" x1="286.128" y1="181.026" x2="329.66" y2="181.026" gradientUnits="userSpaceOnUse">
<stop stop-color="#104210"/>
<stop offset="1" stop-color="#104210" stop-opacity="0"/>
</linearGradient>
<linearGradient id="paint23_linear_655_18611" x1="292.555" y1="128.634" x2="327.675" y2="128.634" gradientUnits="userSpaceOnUse">
<stop stop-color="#104210"/>
<stop offset="1" stop-color="#104210" stop-opacity="0"/>
</linearGradient>
<linearGradient id="paint24_linear_655_18611" x1="212.122" y1="110.465" x2="202.508" y2="143.032" gradientUnits="userSpaceOnUse">
<stop stop-color="#104210"/>
<stop offset="1" stop-color="#104210" stop-opacity="0"/>
</linearGradient>
<linearGradient id="paint25_linear_655_18611" x1="161.866" y1="215.385" x2="190.06" y2="233.073" gradientUnits="userSpaceOnUse">
<stop stop-color="#104210"/>
<stop offset="1" stop-color="#104210" stop-opacity="0"/>
</linearGradient>
</defs>
</svg>
