<svg width="32" height="32" viewBox="0 0 32 32" fill="none" xmlns="http://www.w3.org/2000/svg">
<rect width="32" height="32" rx="16" fill="#C2C2C2"/>
<path d="M9.74035 20C9.85035 19.51 9.65035 18.81 9.30035 18.46L6.87035 16.03C6.11035 15.27 5.81035 14.46 6.03035 13.76C6.26035 13.06 6.97035 12.58 8.03035 12.4L11.1503 11.88C11.6003 11.8 12.1503 11.4 12.3603 10.99L14.0803 7.54C14.5803 6.55 15.2603 6 16.0003 6C16.7403 6 17.4203 6.55 17.9203 7.54L19.6403 10.99C19.7703 11.25 20.0403 11.5 20.3303 11.67L9.56035 22.44C9.42035 22.58 9.18035 22.45 9.22035 22.25L9.74035 20Z" fill="#196719"/>
<path d="M22.6998 18.4599C22.3398 18.8199 22.1398 19.5099 22.2598 19.9999L22.9498 23.0099C23.2398 24.2599 23.0598 25.1999 22.4398 25.6499C22.1898 25.8299 21.8898 25.9199 21.5398 25.9199C21.0298 25.9199 20.4298 25.7299 19.7698 25.3399L16.8398 23.5999C16.3798 23.3299 15.6198 23.3299 15.1598 23.5999L12.2298 25.3399C11.1198 25.9899 10.1698 26.0999 9.5598 25.6499C9.3298 25.4799 9.1598 25.2499 9.0498 24.9499L21.2098 12.7899C21.6698 12.3299 22.3198 12.1199 22.9498 12.2299L23.9598 12.3999C25.0198 12.5799 25.7298 13.0599 25.9598 13.7599C26.1798 14.4599 25.8798 15.2699 25.1198 16.0299L22.6998 18.4599Z" fill="#196719"/>
</svg>
