<svg width="32" height="32" viewBox="0 0 32 32" fill="none" xmlns="http://www.w3.org/2000/svg">
<rect width="32" height="32" rx="16" fill="white"/>
<path d="M9.73998 20C9.84998 19.51 9.64998 18.81 9.29998 18.46L6.86998 16.03C6.10998 15.27 5.80998 14.46 6.02998 13.76C6.25998 13.06 6.96998 12.58 8.02998 12.4L11.15 11.88C11.6 11.8 12.15 11.4 12.36 10.99L14.08 7.54C14.58 6.55 15.26 6 16 6C16.74 6 17.42 6.55 17.92 7.54L19.64 10.99C19.77 11.25 20.04 11.5 20.33 11.67L9.55998 22.44C9.41998 22.58 9.17998 22.45 9.21998 22.25L9.73998 20Z" fill="#196719"/>
<path d="M22.7 18.46C22.34 18.82 22.14 19.51 22.26 20L22.95 23.01C23.24 24.26 23.06 25.2 22.44 25.65C22.19 25.83 21.89 25.92 21.54 25.92C21.03 25.92 20.43 25.73 19.77 25.34L16.84 23.6C16.38 23.33 15.62 23.33 15.16 23.6L12.23 25.34C11.12 25.99 10.17 26.1 9.56005 25.65C9.33005 25.48 9.16005 25.25 9.05005 24.95L21.21 12.79C21.67 12.33 22.32 12.12 22.95 12.23L23.96 12.4C25.02 12.58 25.73 13.06 25.96 13.76C26.18 14.46 25.88 15.27 25.12 16.03L22.7 18.46Z" fill="#196719"/>
</svg>
