<svg width="24" height="25" viewBox="0 0 24 25" fill="none" xmlns="http://www.w3.org/2000/svg">
<path d="M16.25 4.06V4.51584L16.7039 4.55787C17.9607 4.67424 18.8396 5.10009 19.4285 5.72534C20.0186 6.3518 20.3659 7.22969 20.4607 8.33991C20.4603 8.34 20.4601 8.34 20.46 8.34H20.46H3.54161C3.54098 8.33968 3.54018 8.33919 3.53936 8.33853C3.63436 7.22896 3.98156 6.35155 4.57144 5.72534C5.16041 5.10009 6.0393 4.67424 7.29608 4.55787L7.74999 4.51584V4.06V2.5C7.74999 2.36614 7.86613 2.25 7.99999 2.25C8.13384 2.25 8.24999 2.36614 8.24999 2.5V4V4.5H8.74999H15.25H15.75V4V2.5C15.75 2.36614 15.8661 2.25 16 2.25C16.1338 2.25 16.25 2.36614 16.25 2.5V4.06Z" fill="#F3FFF3" stroke="#F3FFF3"/>
<path d="M9.52235 19.1004L9.54927 19.0789L9.57298 19.0538C9.83498 18.7773 10 18.3963 10 18C10 17.6036 9.83498 17.2227 9.57298 16.9461L9.54927 16.9211L9.52235 16.8995L9.44735 16.8395L9.37235 16.7795L9.3554 16.766L9.33735 16.7539C9.25521 16.6992 9.16679 16.6525 9.07213 16.6176C8.98364 16.5764 8.88961 16.5455 8.79064 16.5282C8.50137 16.4718 8.20281 16.499 7.92867 16.6179C7.73162 16.6956 7.58367 16.803 7.45552 16.9183L7.44072 16.9316L7.42702 16.9461C7.16502 17.2227 7 17.6036 7 18C7 18.3963 7.16502 18.7773 7.42702 19.0538L7.44072 19.0683L7.45552 19.0816C7.58483 19.198 7.73429 19.3062 7.93401 19.3841C8.10363 19.454 8.29668 19.5 8.5 19.5C8.60112 19.5 8.69236 19.4865 8.75032 19.4779C8.75767 19.4768 8.76448 19.4758 8.77071 19.4749L8.77073 19.4751L8.7822 19.4732C8.88427 19.4561 8.98114 19.4247 9.07214 19.3824C9.16355 19.3487 9.24913 19.3039 9.32888 19.2516C9.38575 19.2161 9.43216 19.1774 9.45883 19.1547C9.47736 19.1389 9.48841 19.1293 9.49667 19.1221C9.50657 19.1134 9.51244 19.1083 9.52235 19.1004ZM9.55387 15.5729L9.56368 15.5636L9.57298 15.5538C9.83498 15.2773 10 14.8963 10 14.5C10 14.1036 9.83498 13.7227 9.57298 13.4461L9.57311 13.446L9.56355 13.4364C9.42198 13.2948 9.25426 13.1896 9.06892 13.117C8.50914 12.8796 7.85619 13.0167 7.43645 13.4364L7.43632 13.4363L7.42702 13.4461C7.16502 13.7227 7 14.1036 7 14.5C7 14.8963 7.16502 15.2773 7.42702 15.5538L7.43632 15.5636L7.44613 15.5729C7.72269 15.8349 8.10363 16 8.5 16C8.89637 16 9.27731 15.8349 9.55387 15.5729ZM13.0539 19.0729L13.0637 19.0636L13.073 19.0538C13.335 18.7773 13.5 18.3963 13.5 18C13.5 17.6036 13.335 17.2227 13.073 16.9461L13.0731 16.946L13.0636 16.9364C12.7704 16.6433 12.3733 16.5125 12 16.5125C11.6267 16.5125 11.2296 16.6433 10.9364 16.9364L10.9363 16.9363L10.927 16.9461C10.665 17.2227 10.5 17.6036 10.5 18C10.5 18.3963 10.665 18.7773 10.927 19.0538L10.9363 19.0636L10.9461 19.0729C11.2227 19.3349 11.6036 19.5 12 19.5C12.3964 19.5 12.7773 19.3349 13.0539 19.0729ZM13.0223 15.6004L13.0493 15.5789L13.073 15.5538C13.335 15.2773 13.5 14.8963 13.5 14.5C13.5 14.1036 13.335 13.7227 13.073 13.4461L13.0731 13.446L13.0636 13.4364C12.6438 13.0167 11.9909 12.8796 11.4311 13.117C11.2457 13.1896 11.078 13.2948 10.9364 13.4364L10.9363 13.4363L10.927 13.4461C10.665 13.7227 10.5 14.1036 10.5 14.5C10.5 14.8963 10.665 15.2773 10.927 15.5538L10.9363 15.5636L10.9461 15.5729C11.2227 15.8349 11.6036 16 12 16C12.1011 16 12.1924 15.9865 12.2503 15.9779C12.2577 15.9768 12.2645 15.9758 12.2707 15.9749L12.2707 15.9751L12.2822 15.9732C12.3843 15.9561 12.4811 15.9247 12.5721 15.8824C12.6668 15.8475 12.7552 15.8008 12.8373 15.746L12.8554 15.734L12.8723 15.7204L12.9473 15.6604L13.0223 15.6004ZM16.5539 19.0729L16.5637 19.0636L16.573 19.0538C16.835 18.7773 17 18.3963 17 18C17 17.6036 16.835 17.2227 16.573 16.9461L16.5731 16.946L16.5636 16.9364C16.2704 16.6433 15.8733 16.5125 15.5 16.5125C15.1267 16.5125 14.7296 16.6433 14.4364 16.9364L14.4363 16.9363L14.427 16.9461C14.165 17.2227 14 17.6036 14 18C14 18.3963 14.165 18.7773 14.427 19.0538L14.4363 19.0636L14.4461 19.0729C14.7227 19.3349 15.1036 19.5 15.5 19.5C15.8964 19.5 16.2773 19.3349 16.5539 19.0729ZM16.5223 15.6004L16.5493 15.5789L16.573 15.5538C16.835 15.2773 17 14.8963 17 14.5C17 14.1036 16.835 13.7227 16.573 13.4461L16.5493 13.4211L16.5223 13.3995L16.4473 13.3395L16.3723 13.2795L16.3554 13.266L16.3373 13.2539C16.2552 13.1992 16.1668 13.1525 16.0721 13.1176C15.9836 13.0764 15.8896 13.0455 15.7906 13.0282C15.5014 12.9718 15.2028 12.999 14.9287 13.1179C14.7316 13.1956 14.5837 13.303 14.4555 13.4183L14.4407 13.4316L14.427 13.4461C14.165 13.7227 14 14.1036 14 14.5C14 14.8963 14.165 15.2773 14.427 15.5538L14.4363 15.5636L14.4461 15.5729C14.7227 15.8349 15.1036 16 15.5 16C15.5967 16 15.6981 15.9854 15.7596 15.9765C15.7635 15.976 15.7672 15.9754 15.7707 15.9749L15.7707 15.9751L15.7822 15.9732C15.8843 15.9561 15.9811 15.9247 16.0721 15.8824C16.1668 15.8475 16.2552 15.8008 16.3373 15.746L16.3554 15.734L16.3723 15.7204L16.4473 15.6604L16.5223 15.6004ZM4 10.84H20C20.2739 10.84 20.5 11.0661 20.5 11.34V17.5C20.5 18.9233 20.1441 20.0331 19.4461 20.7847C18.7543 21.5297 17.6547 22 16 22H8C6.3453 22 5.24565 21.5297 4.5539 20.7847C3.85591 20.0331 3.5 18.9233 3.5 17.5V11.34C3.5 11.0661 3.72614 10.84 4 10.84Z" fill="#F3FFF3" stroke="#F3FFF3"/>
</svg>
