<svg width="24" height="24" viewBox="0 0 24 24" fill="none" xmlns="http://www.w3.org/2000/svg">
<path d="M19.2189 17.3117C19.1675 17.1241 19.2802 16.8632 19.3877 16.6751C19.421 16.619 19.4574 16.5646 19.4965 16.5124C20.4187 15.1139 20.9102 13.4755 20.9101 11.8003C20.9255 6.99195 16.9383 3.08997 12.0078 3.08997C7.70792 3.08997 4.11823 6.06882 3.27992 10.0231C3.15411 10.6093 3.0905 11.2072 3.09016 11.8068C3.09016 16.622 6.92359 20.5853 11.8541 20.5853C12.6384 20.5853 13.696 20.3882 14.273 20.2267C14.85 20.0652 15.4262 19.851 15.5748 19.7936C15.727 19.7352 15.8886 19.7052 16.0516 19.705C16.2294 19.7043 16.4054 19.7398 16.5691 19.8091L19.4751 20.8577C19.5386 20.8851 19.6059 20.9028 19.6747 20.91C19.7291 20.9098 19.783 20.8988 19.8331 20.8777C19.8833 20.8566 19.9288 20.8258 19.9669 20.787C20.0051 20.7482 20.0352 20.7022 20.0555 20.6517C20.0758 20.6012 20.0858 20.5472 20.0851 20.4927C20.0815 20.445 20.0729 20.3977 20.0594 20.3518L19.2189 17.3117Z" stroke="#141414" stroke-width="1.5" stroke-miterlimit="10" stroke-linecap="round"/>
</svg>
