<svg width="16" height="16" viewBox="0 0 16 16" fill="none" xmlns="http://www.w3.org/2000/svg">
<path d="M13.78 10.0603C13.78 10.1869 13.7333 10.3136 13.6333 10.4136C13.44 10.6069 13.12 10.6069 12.9267 10.4136L8.58001 6.06693C8.26001 5.74693 7.74001 5.74693 7.42001 6.06693L3.07335 10.4136C2.88001 10.6069 2.56001 10.6069 2.36668 10.4136C2.17335 10.2203 2.17335 9.90026 2.36668 9.70693L6.71335 5.36026C7.05335 5.02026 7.51335 4.82693 8.00001 4.82693C8.48668 4.82693 8.94668 5.01359 9.28668 5.36026L13.6333 9.70693C13.7267 9.80693 13.78 9.93359 13.78 10.0603Z" fill="#141414"/>
</svg>
