<svg width="16" height="16" viewBox="0 0 16 16" fill="none" xmlns="http://www.w3.org/2000/svg">
<path d="M2.21999 5.93974C2.21999 5.81307 2.26665 5.68641 2.36665 5.58641C2.55999 5.39307 2.87999 5.39307 3.07332 5.58641L7.41999 9.93307C7.73999 10.2531 8.25999 10.2531 8.57999 9.93307L12.9267 5.58641C13.12 5.39307 13.44 5.39307 13.6333 5.58641C13.8267 5.77974 13.8267 6.09974 13.6333 6.29307L9.28665 10.6397C8.94665 10.9797 8.48665 11.1731 7.99999 11.1731C7.51332 11.1731 7.05332 10.9864 6.71332 10.6397L2.36665 6.29307C2.27332 6.19307 2.21999 6.06641 2.21999 5.93974Z" fill="#141414"/>
</svg>
