<svg width="16" height="17" viewBox="0 0 16 17" fill="none" xmlns="http://www.w3.org/2000/svg">
<path d="M7.99967 1.83337C4.32634 1.83337 1.33301 4.82671 1.33301 8.50004C1.33301 12.1734 4.32634 15.1667 7.99967 15.1667C11.673 15.1667 14.6663 12.1734 14.6663 8.50004C14.6663 4.82671 11.673 1.83337 7.99967 1.83337ZM10.2397 10.0334C10.433 10.2267 10.433 10.5467 10.2397 10.74C10.1397 10.84 10.013 10.8867 9.88634 10.8867C9.75968 10.8867 9.63301 10.84 9.53301 10.74L7.99967 9.20671L6.46634 10.74C6.36634 10.84 6.23967 10.8867 6.11301 10.8867C5.98634 10.8867 5.85967 10.84 5.75968 10.74C5.56634 10.5467 5.56634 10.2267 5.75968 10.0334L7.29301 8.50004L5.75968 6.96671C5.56634 6.77337 5.56634 6.45337 5.75968 6.26004C5.95301 6.06671 6.27301 6.06671 6.46634 6.26004L7.99967 7.79337L9.53301 6.26004C9.72634 6.06671 10.0463 6.06671 10.2397 6.26004C10.433 6.45337 10.433 6.77337 10.2397 6.96671L8.70634 8.50004L10.2397 10.0334Z" fill="#858585"/>
</svg>
