<svg width="32" height="33" viewBox="0 0 32 33" fill="none" xmlns="http://www.w3.org/2000/svg">
<path opacity="0.4" d="M16 30.1647C23.3638 30.1647 29.3333 24.1952 29.3333 16.8314C29.3333 9.46758 23.3638 3.49805 16 3.49805C8.6362 3.49805 2.66667 9.46758 2.66667 16.8314C2.66667 24.1952 8.6362 30.1647 16 30.1647Z" fill="#196719"/>
<path d="M17.4133 16.8315L20.48 13.7649C20.8667 13.3782 20.8667 12.7382 20.48 12.3515C20.0933 11.9649 19.4533 11.9649 19.0667 12.3515L16 15.4182L12.9333 12.3515C12.5467 11.9649 11.9067 11.9649 11.52 12.3515C11.1333 12.7382 11.1333 13.3782 11.52 13.7649L14.5867 16.8315L11.52 19.8982C11.1333 20.2849 11.1333 20.9249 11.52 21.3115C11.72 21.5115 11.9733 21.6049 12.2267 21.6049C12.48 21.6049 12.7333 21.5115 12.9333 21.3115L16 18.2449L19.0667 21.3115C19.2667 21.5115 19.52 21.6049 19.7733 21.6049C20.0267 21.6049 20.28 21.5115 20.48 21.3115C20.8667 20.9249 20.8667 20.2849 20.48 19.8982L17.4133 16.8315Z" fill="#196719"/>
</svg>
