<svg width="46" height="42" viewBox="0 0 46 42" fill="none" xmlns="http://www.w3.org/2000/svg">
<path d="M5.50015 21.9918C5.49716 22.6914 5.53938 23.3905 5.62654 24.0846C6.02104 27.171 7.31034 30.0744 9.33542 32.4368C11.3605 34.7991 14.0328 36.5171 17.0226 37.3786C18.4377 37.7844 19.9018 37.9935 21.3739 38.0002C22.4931 38.0055 23.6097 37.8937 24.7057 37.6667C26.7945 37.2269 28.7741 36.3733 30.5278 35.1562C32.2815 33.9392 33.7738 32.3833 34.9166 30.5804C35.0637 30.3483 35.2046 30.11 35.3413 29.8717C35.9739 28.7486 36.4673 27.5525 36.8104 26.3099C36.9264 25.8955 37.0176 25.4604 37.1088 25.0253C37.1999 24.5902 37.2559 24.1488 37.3015 23.6992C37.3553 23.1812 37.383 22.657 37.3843 22.1265C37.3879 21.4875 37.3527 20.8488 37.2787 20.2141C37.2289 19.7748 37.1599 19.3417 37.0715 18.9149C36.4505 15.8357 34.9345 13.0083 32.7133 10.7871C30.4921 8.56593 27.6647 7.04986 24.5855 6.42893C24.1587 6.34191 23.7235 6.27353 23.2843 6.22173C22.6941 6.15288 22.1006 6.1176 21.5065 6.11606C20.937 6.1123 20.3677 6.13997 19.8012 6.19894C19.3537 6.24245 18.9102 6.30876 18.4751 6.39164C18.04 6.47452 17.6111 6.5719 17.1884 6.68794C15.9455 7.03088 14.7493 7.52494 13.6266 8.15907C13.3862 8.29375 13.148 8.43464 12.9159 8.57347C10.36 10.1964 8.31559 12.5095 7.01894 15.2454C6.48411 16.3744 6.08556 17.5632 5.83167 18.7864C5.61403 19.8411 5.50297 20.915 5.50015 21.9918Z" fill="#FCCE17"/>
<path opacity="0.1" d="M5.50015 21.9918C5.49716 22.6914 5.53938 23.3905 5.62654 24.0846C6.02104 27.171 7.31034 30.0744 9.33542 32.4368C11.3605 34.7991 14.0328 36.5171 17.0226 37.3786C18.4377 37.7844 19.9018 37.9935 21.3739 38.0002C22.4931 38.0055 23.6097 37.8937 24.7057 37.6667C26.7945 37.2269 28.7741 36.3733 30.5278 35.1562C32.2815 33.9392 33.7738 32.3833 34.9166 30.5804C35.0637 30.3483 35.2046 30.11 35.3413 29.8717C35.9739 28.7486 36.4673 27.5525 36.8104 26.3099C36.9264 25.8955 37.0176 25.4604 37.1088 25.0253C37.1999 24.5902 37.2559 24.1488 37.3015 23.6992C37.3553 23.1812 37.383 22.657 37.3843 22.1265C37.3879 21.4875 37.3527 20.8488 37.2787 20.2141C37.2289 19.7748 37.1599 19.3417 37.0715 18.9149C36.4505 15.8357 34.9345 13.0083 32.7133 10.7871C30.4921 8.56593 27.6647 7.04986 24.5855 6.42893C24.1587 6.34191 23.7235 6.27353 23.2843 6.22173C22.6941 6.15288 22.1006 6.1176 21.5065 6.11606C20.937 6.1123 20.3677 6.13997 19.8012 6.19894C19.3537 6.24245 18.9102 6.30876 18.4751 6.39164C18.04 6.47452 17.6111 6.5719 17.1884 6.68794C15.9455 7.03088 14.7493 7.52494 13.6266 8.15907C13.3862 8.29375 13.148 8.43464 12.9159 8.57347C10.36 10.1964 8.31559 12.5095 7.01894 15.2454C6.48411 16.3744 6.08556 17.5632 5.83167 18.7864C5.61403 19.8411 5.50297 20.915 5.50015 21.9918Z" fill="#FFF2BE"/>
<path opacity="0.05" d="M36.7606 17.6401C36.8808 18.0545 36.9864 18.4855 37.0735 18.9206C37.1605 19.3558 37.2289 19.7805 37.2807 20.2198C37.3547 20.8546 37.39 21.4932 37.3863 22.1323C37.3863 22.6627 37.3587 23.1869 37.3035 23.7049C37.2579 24.1552 37.1936 24.5973 37.1108 25.031C37.0279 25.4661 36.9284 25.893 36.8124 26.3157C36.4676 27.554 35.9736 28.7459 35.3413 29.865C35.2045 30.1033 35.0636 30.3416 34.9165 30.5737C33.4752 32.8589 31.4755 34.7393 29.1061 36.0375C26.7366 37.3357 24.0755 38.0089 21.3738 37.9936C20.7921 37.9898 20.2111 37.9545 19.6333 37.8879L36.7606 17.6401Z" fill="#594700"/>
<path opacity="0.05" d="M36.5139 27.2622C36.2027 28.1635 35.8102 29.0345 35.3411 29.8647C35.2044 30.1029 35.0635 30.3412 34.9164 30.5733C33.4681 32.8578 31.4642 34.7377 29.0919 36.0372L36.5139 27.2622Z" fill="#594700"/>
<path opacity="0.15" d="M34.581 13.0254C35.0943 13.7699 35.5421 14.5574 35.9195 15.3792L17.2714 37.4441L17.0186 37.3757C16.2377 37.147 15.4757 36.8581 14.7394 36.5117L34.581 13.0254Z" fill="#FFF2BE"/>
<path opacity="0.15" d="M28.483 7.75049C29.3191 8.1641 30.1177 8.64938 30.87 9.2009L10.3384 33.4891C9.66938 32.8385 9.05857 32.1306 8.51294 31.3735L28.483 7.75049Z" fill="#FFF2BE"/>
<path opacity="0.15" d="M26.154 6.82373C26.6472 6.97706 27.1306 7.15249 27.6044 7.35002L7.97209 30.5732C7.69859 30.1401 7.43959 29.6967 7.20752 29.2367L26.154 6.82373Z" fill="#FFF2BE"/>
<path opacity="0.15" d="M5.54565 20.9053C5.56637 20.611 5.59745 20.3189 5.63268 20.0309C5.64511 19.9335 5.65547 19.8361 5.66997 19.7408C5.68448 19.6455 5.69898 19.5336 5.71556 19.4445C5.75286 19.2373 5.79015 19.0094 5.83366 18.7939C6.46349 15.7776 7.95568 13.0092 10.129 10.8249C10.9718 9.975 11.9073 9.2223 12.9179 8.58091C13.15 8.43379 13.3882 8.2929 13.6286 8.1665C14.7513 7.53238 15.9475 7.03832 17.1904 6.69537C17.3479 6.65186 17.5053 6.61456 17.6649 6.5752L5.54565 20.9053Z" fill="#FFF2BE"/>
<path d="M9.56335 22.0587C9.56293 25.0715 10.7075 27.9719 12.7654 30.1725C14.8232 32.373 17.6405 33.7093 20.6466 33.9106C20.9076 33.9272 21.177 33.9375 21.4443 33.9375C24.5679 33.8963 27.5495 32.6265 29.7438 30.4031C31.938 28.1796 33.1683 25.1815 33.1683 22.0576C33.1683 18.9338 31.938 15.9356 29.7438 13.7122C27.5495 11.4888 24.5679 10.219 21.4443 10.1777C21.177 10.1777 20.9076 10.1777 20.6466 10.2047C17.6405 10.407 14.8235 11.7438 12.7658 13.9446C10.7081 16.1454 9.56339 19.0458 9.56335 22.0587Z" fill="#FCCE17"/>
<path opacity="0.4" d="M9.56335 22.0587C9.56293 25.0715 10.7075 27.9719 12.7654 30.1725C14.8232 32.373 17.6405 33.7093 20.6466 33.9106C20.9076 33.9272 21.177 33.9375 21.4443 33.9375C24.5679 33.8963 27.5495 32.6265 29.7438 30.4031C31.938 28.1796 33.1683 25.1815 33.1683 22.0576C33.1683 18.9338 31.938 15.9356 29.7438 13.7122C27.5495 11.4888 24.5679 10.219 21.4443 10.1777C21.177 10.1777 20.9076 10.1777 20.6466 10.2047C17.6405 10.407 14.8235 11.7438 12.7658 13.9446C10.7081 16.1454 9.56339 19.0458 9.56335 22.0587Z" fill="#594700"/>
<path d="M10.0918 22.058C10.0918 22.2652 10.0918 22.4724 10.1084 22.6631C10.256 25.4322 11.4124 28.0515 13.3593 30.0263C15.3063 32.0011 17.9088 33.1946 20.6757 33.3816L20.8311 33.392C21.0383 33.392 21.233 33.4085 21.4361 33.4085C24.2812 33.414 27.0244 32.3496 29.1212 30.4267C31.2181 28.5037 32.5153 25.8627 32.7555 23.0277C32.7845 22.7066 32.797 22.3833 32.797 22.0539C32.797 21.7244 32.7866 21.4551 32.7638 21.1608C32.7175 20.5509 32.6205 19.9458 32.4737 19.352C31.9771 17.3368 30.9383 15.496 29.47 14.0291C28.0017 12.5623 26.1599 11.5254 24.1442 11.0308C23.5504 10.884 22.9453 10.787 22.3353 10.7407C22.0411 10.7179 21.7427 10.7075 21.4423 10.7075C21.1874 10.7075 20.9326 10.7075 20.6819 10.7324C20.6114 10.7324 20.541 10.7324 20.4747 10.749C18.8209 10.8872 17.2183 11.3896 15.7816 12.2201C14.0522 13.2146 12.616 14.648 11.618 16.3755C10.6201 18.1029 10.0957 20.0631 10.098 22.058H10.0918Z" fill="#FCCE17"/>
<path opacity="0.5" d="M10.0918 22.058C10.0918 22.2652 10.0918 22.4724 10.1084 22.6631C10.256 25.4322 11.4124 28.0515 13.3593 30.0263C15.3063 32.0011 17.9088 33.1946 20.6757 33.3816L20.8311 33.392C21.0383 33.392 21.233 33.4085 21.4361 33.4085C24.2812 33.414 27.0244 32.3496 29.1212 30.4267C31.2181 28.5037 32.5153 25.8627 32.7555 23.0277C32.7845 22.7066 32.797 22.3833 32.797 22.0539C32.797 21.7244 32.7866 21.4551 32.7638 21.1608C32.7175 20.5509 32.6205 19.9458 32.4737 19.352C31.9771 17.3368 30.9383 15.496 29.47 14.0291C28.0017 12.5623 26.1599 11.5254 24.1442 11.0308C23.5504 10.884 22.9453 10.787 22.3353 10.7407C22.0411 10.7179 21.7427 10.7075 21.4423 10.7075C21.1874 10.7075 20.9326 10.7075 20.6819 10.7324C20.6114 10.7324 20.541 10.7324 20.4747 10.749C18.8209 10.8872 17.2183 11.3896 15.7816 12.2201C14.0522 13.2146 12.616 14.648 11.618 16.3755C10.6201 18.1029 10.0957 20.0631 10.098 22.058H10.0918Z" fill="#594700"/>
<path d="M29.4403 30.112C31.3553 28.2218 32.5312 25.7091 32.7555 23.0277C32.7845 22.7066 32.799 22.3833 32.799 22.0539C32.799 21.7244 32.7866 21.4551 32.7638 21.1608C32.7175 20.5509 32.6205 19.9458 32.4737 19.352C31.9771 17.3368 30.9383 15.496 29.47 14.0291C28.0017 12.5623 26.1599 11.5254 24.1442 11.0308C23.5503 10.884 22.9453 10.787 22.3353 10.7407C22.0411 10.7179 21.7427 10.7075 21.4423 10.7075C21.1874 10.7075 20.9326 10.7075 20.6818 10.7324C20.6114 10.7324 20.541 10.7324 20.4746 10.749C18.8209 10.8872 17.2183 11.3896 15.7815 12.2201C15.2835 12.5118 14.8084 12.8408 14.3601 13.2043C13.2993 14.2559 12.4577 15.5077 11.8844 16.887C11.311 18.2664 11.0172 19.7458 11.02 21.2396C11.02 21.4468 11.02 21.6436 11.0387 21.8446C11.1854 24.6141 12.3416 27.2339 14.2887 29.2088C16.2357 31.1838 18.8389 32.3771 21.606 32.5631H21.7593C21.9665 32.5735 22.1633 32.5797 22.3664 32.5797C24.9384 32.5823 27.4338 31.7049 29.4382 30.0933L29.4403 30.112Z" fill="#FCCE17"/>
<path opacity="0.25" d="M29.4403 30.112C31.3553 28.2218 32.5312 25.7091 32.7555 23.0277C32.7845 22.7066 32.799 22.3833 32.799 22.0539C32.799 21.7244 32.7866 21.4551 32.7638 21.1608C32.7175 20.5509 32.6205 19.9458 32.4737 19.352C31.9771 17.3368 30.9383 15.496 29.47 14.0291C28.0017 12.5623 26.1599 11.5254 24.1442 11.0308C23.5503 10.884 22.9453 10.787 22.3353 10.7407C22.0411 10.7179 21.7427 10.7075 21.4423 10.7075C21.1874 10.7075 20.9326 10.7075 20.6818 10.7324C20.6114 10.7324 20.541 10.7324 20.4746 10.749C18.8209 10.8872 17.2183 11.3896 15.7815 12.2201C15.2835 12.5118 14.8084 12.8408 14.3601 13.2043C13.2993 14.2559 12.4577 15.5077 11.8844 16.887C11.311 18.2664 11.0172 19.7458 11.02 21.2396C11.02 21.4468 11.02 21.6436 11.0387 21.8446C11.1854 24.6141 12.3416 27.2339 14.2887 29.2088C16.2357 31.1838 18.8389 32.3771 21.606 32.5631H21.7593C21.9665 32.5735 22.1633 32.5797 22.3664 32.5797C24.9384 32.5823 27.4338 31.7049 29.4382 30.0933L29.4403 30.112Z" fill="#594700"/>
<path d="M13.6285 8.15867C20.489 4.60516 26.0606 6.4534 29.7903 8.67045C35.1775 12.2861 38.5756 18.3426 36.717 26.3468V26.3302C36.0075 28.9925 34.6114 31.4218 32.6683 33.3751C34.6746 31.4158 36.1332 28.9657 36.8994 26.2681V26.2826C38.6129 19.6521 36.458 14.3871 32.8631 10.672C29.0112 7.12059 22.4843 3.61266 13.6285 8.15867Z" fill="#FFF2BE"/>
<g filter="url(#filter0_f_874_49477)">
<path d="M22.0098 17.5079C21.6096 16.7074 21.3428 16.5073 21.2594 16.5073C21.4364 16.6211 21.5095 17.2578 21.7597 17.7581C22.319 18.8768 23.2106 20.6098 26.0122 21.01C28.8139 21.4102 28.8576 24.0118 28.7638 25.0124C30.0146 21.7604 27.2424 20.5097 26.0122 20.5097C23.5107 20.5097 22.5101 18.5085 22.0098 17.5079Z" fill="#AA8800"/>
<path d="M22.7605 24.0099C22.7605 22.1657 21.343 21.3417 20.7593 21.2583C21.96 22.0588 22.01 23.2595 22.01 24.0099C23.0106 26.2112 24.9284 25.761 25.7622 25.2607C23.2608 25.2607 22.7605 24.5102 22.7605 24.0099Z" fill="#AA8800"/>
<path d="M17.5069 20.0091C15.9059 19.4088 16.5897 18.1747 17.0066 17.7578C16.7564 17.8412 16.006 18.4082 16.006 19.0086C16.006 19.6089 17.0066 19.9258 17.5069 20.0091Z" fill="#AA8800"/>
</g>
<path d="M22.0098 17.5079C21.6096 16.7074 21.3428 16.5073 21.2594 16.5073C21.4364 16.6211 21.5095 17.2578 21.7597 17.7581C22.319 18.8768 23.2106 20.6098 26.0122 21.01C28.8139 21.4102 28.8576 24.0118 28.7638 25.0124C30.0146 21.7604 27.2424 20.5097 26.0122 20.5097C23.5107 20.5097 22.5101 18.5085 22.0098 17.5079Z" fill="#FFF2BE"/>
<path d="M22.7605 24.0099C22.7605 22.1657 21.343 21.3417 20.7593 21.2583C21.96 22.0588 22.01 23.2595 22.01 24.0099C23.0106 26.2112 24.9284 25.761 25.7622 25.2607C23.2608 25.2607 22.7605 24.5102 22.7605 24.0099Z" fill="#FFF2BE"/>
<path d="M17.5069 20.0091C15.9059 19.4088 16.5897 18.1747 17.0066 17.7578C16.7564 17.8412 16.006 18.4082 16.006 19.0086C16.006 19.6089 17.0066 19.9258 17.5069 20.0091Z" fill="#FFF2BE"/>
<path d="M21.9939 16.2258C22.115 16.1577 22.2418 16.0943 22.3744 16.0356C23.029 15.7455 23.7729 15.6004 24.6061 15.6004C25.4541 15.6004 26.1943 15.7455 26.8266 16.0356C27.4627 16.3257 27.9574 16.7293 28.3107 17.2463C28.6641 17.7633 28.8463 18.3621 28.8575 19.0428H26.5421C26.4975 18.5928 26.3059 18.2431 25.9674 17.9939C25.6289 17.7447 25.1696 17.6201 24.5893 17.6201C24.1951 17.6201 23.8622 17.6759 23.5907 17.7875C23.3581 17.8799 23.1719 18.0036 23.0321 18.1588C22.6609 17.6179 22.3906 17.0519 22.1646 16.5788C22.105 16.4539 22.0484 16.3355 21.9939 16.2258Z" fill="#FFE16B"/>
<path d="M19.5558 24.9243C19.4367 25.0085 19.2998 25.0807 19.1454 25.1409C18.8441 25.26 18.4889 25.3195 18.0797 25.3195C17.6632 25.3195 17.2894 25.2562 16.9583 25.1298C16.631 24.9996 16.3688 24.808 16.1716 24.5551C15.9782 24.2985 15.8685 23.9786 15.8425 23.5955H13.5048C13.5234 24.4175 13.7224 25.1075 14.1017 25.6654C14.4848 26.2196 15.0167 26.638 15.6974 26.9207C16.3818 27.2034 17.1852 27.3447 18.1076 27.3447C19.0375 27.3447 19.8316 27.2053 20.49 26.9263C20.4934 26.9248 20.4968 26.9234 20.5003 26.9219C20.0032 26.4724 19.5734 25.9053 19.5734 25.2828C19.5734 25.1603 19.5677 25.0407 19.5558 24.9243Z" fill="#FFE16B"/>
<path fill-rule="evenodd" clip-rule="evenodd" d="M21.8785 17.5319C22.4182 18.7059 23.2269 20.4651 25.6683 20.6685C28.7091 20.9219 29.1737 23.2026 28.9625 24.4696C28.6669 26.2435 25.9216 29.0309 21.3604 26.4969C20.9896 26.2909 20.0933 25.4832 20.0933 24.4696C20.0933 23.456 19.5865 22.6958 18.3195 22.4424C17.0525 22.189 13.5048 21.4287 13.7582 18.6413C14.0116 15.8538 19.0798 14.3334 21.3604 16.614C21.5384 16.792 21.6924 17.1272 21.8785 17.5319ZM16.2922 18.6413C16.6301 17.6277 18.3195 16.8674 19.5865 18.1345C19.802 18.35 20.0933 18.6413 20.3467 19.4015C20.3642 19.4539 20.3812 19.5071 20.3985 19.561C20.708 20.5282 21.0945 21.7357 25.4148 22.6958C26.0268 22.8318 27.0366 23.2533 26.4285 24.4696C25.8203 25.686 23.8944 25.4832 23.1342 24.9764C22.9652 24.892 22.374 24.5452 22.374 23.7094C22.3739 22.6958 22.1206 21.6821 19.5865 20.6685C19.2847 20.5478 18.9167 20.4386 18.5367 20.3258C17.3215 19.9651 15.9834 19.5679 16.2922 18.6413Z" fill="#FFE16B"/>
<mask id="mask0_874_49477" style="mask-type:alpha" maskUnits="userSpaceOnUse" x="13" y="15" width="17" height="13">
<path d="M21.9939 16.2258C22.115 16.1577 22.2418 16.0943 22.3744 16.0356C23.029 15.7455 23.7729 15.6004 24.6061 15.6004C25.4541 15.6004 26.1943 15.7455 26.8266 16.0356C27.4627 16.3257 27.9574 16.7293 28.3107 17.2463C28.6641 17.7633 28.8463 18.3621 28.8575 19.0428H26.5421C26.4975 18.5928 26.3059 18.2431 25.9674 17.9939C25.6289 17.7447 25.1696 17.6201 24.5893 17.6201C24.1951 17.6201 23.8622 17.6759 23.5907 17.7875C23.3581 17.8799 23.1719 18.0036 23.0321 18.1588C22.6609 17.6179 22.3906 17.0519 22.1646 16.5788C22.105 16.4539 22.0484 16.3355 21.9939 16.2258Z" fill="#2B892B"/>
<path d="M19.5558 24.9243C19.4367 25.0085 19.2998 25.0807 19.1454 25.1409C18.8441 25.26 18.4889 25.3195 18.0797 25.3195C17.6632 25.3195 17.2894 25.2562 16.9583 25.1298C16.631 24.9996 16.3688 24.808 16.1716 24.5551C15.9782 24.2985 15.8685 23.9786 15.8425 23.5955H13.5048C13.5234 24.4175 13.7224 25.1075 14.1017 25.6654C14.4848 26.2196 15.0167 26.638 15.6974 26.9207C16.3818 27.2034 17.1852 27.3447 18.1076 27.3447C19.0375 27.3447 19.8316 27.2053 20.49 26.9263C20.4934 26.9248 20.4968 26.9234 20.5003 26.9219C20.0032 26.4724 19.5734 25.9053 19.5734 25.2828C19.5734 25.1603 19.5677 25.0407 19.5558 24.9243Z" fill="#2B892B"/>
<path fill-rule="evenodd" clip-rule="evenodd" d="M21.8785 17.5319C22.4182 18.7059 23.2269 20.4651 25.6683 20.6685C28.7091 20.9219 29.1737 23.2026 28.9625 24.4696C28.6669 26.2435 25.9216 29.0309 21.3604 26.4969C20.9896 26.2909 20.0933 25.4832 20.0933 24.4696C20.0933 23.456 19.5865 22.6958 18.3195 22.4424C17.0525 22.189 13.5048 21.4287 13.7582 18.6413C14.0116 15.8538 19.0798 14.3334 21.3604 16.614C21.5384 16.792 21.6924 17.1272 21.8785 17.5319ZM16.2922 18.6413C16.6301 17.6277 18.3195 16.8674 19.5865 18.1345C19.802 18.35 20.0933 18.6413 20.3467 19.4015C20.3642 19.4539 20.3812 19.5071 20.3985 19.561C20.708 20.5282 21.0945 21.7357 25.4148 22.6958C26.0268 22.8318 27.0366 23.2533 26.4285 24.4696C25.8203 25.686 23.8944 25.4832 23.1342 24.9764C22.9652 24.892 22.374 24.5452 22.374 23.7094C22.3739 22.6958 22.1206 21.6821 19.5865 20.6685C19.2847 20.5478 18.9167 20.4386 18.5367 20.3258C17.3215 19.9651 15.9834 19.5679 16.2922 18.6413Z" fill="#2B892B"/>
</mask>
<g mask="url(#mask0_874_49477)">
<path opacity="0.15" d="M28.483 7.75049C29.3191 8.1641 30.1177 8.64938 30.87 9.2009L10.3384 33.4891C9.66938 32.8385 9.05857 32.1306 8.51294 31.3735L28.483 7.75049Z" fill="#FFF2BE"/>
<path opacity="0.15" d="M26.154 6.82373C26.6472 6.97706 27.1306 7.15249 27.6044 7.35002L7.97209 30.5732C7.69859 30.1401 7.43959 29.6967 7.20752 29.2367L26.154 6.82373Z" fill="#FFF2BE"/>
<path opacity="0.15" d="M34.581 13.0254C35.0943 13.7699 35.5421 14.5574 35.9195 15.3792L17.2714 37.4441L17.0186 37.3757C16.2377 37.147 15.4757 36.8581 14.7394 36.5117L34.581 13.0254Z" fill="#FFF2BE"/>
</g>
<defs>
<filter id="filter0_f_874_49477" x="0.00598145" y="0.507324" width="45.0747" height="41.1646" filterUnits="userSpaceOnUse" color-interpolation-filters="sRGB">
<feFlood flood-opacity="0" result="BackgroundImageFix"/>
<feBlend mode="normal" in="SourceGraphic" in2="BackgroundImageFix" result="shape"/>
<feGaussianBlur stdDeviation="8" result="effect1_foregroundBlur_874_49477"/>
</filter>
</defs>
</svg>
