<svg width="46" height="42" viewBox="0 0 46 42" fill="none" xmlns="http://www.w3.org/2000/svg">
<path d="M6.00015 21.9914C5.99716 22.6909 6.03938 23.39 6.12654 24.0841C6.52104 27.1705 7.81034 30.074 9.83542 32.4363C11.8605 34.7987 14.5328 36.5166 17.5226 37.3782C18.9377 37.7839 20.4018 37.9931 21.8739 37.9998C22.9931 38.005 24.1097 37.8932 25.2057 37.6662C27.2945 37.2264 29.2741 36.3728 31.0278 35.1557C32.7815 33.9387 34.2738 32.3828 35.4166 30.5799C35.5637 30.3478 35.7046 30.1095 35.8413 29.8712C36.4739 28.7481 36.9673 27.552 37.3104 26.3094C37.4264 25.895 37.5176 25.4599 37.6088 25.0248C37.6999 24.5897 37.7559 24.1483 37.8015 23.6987C37.8553 23.1807 37.883 22.6565 37.8843 22.126C37.8879 21.487 37.8527 20.8483 37.7787 20.2136C37.7289 19.7743 37.6599 19.3413 37.5715 18.9144C36.9505 15.8352 35.4345 13.0078 33.2133 10.7866C30.9921 8.56544 28.1647 7.04937 25.0855 6.42845C24.6587 6.34142 24.2235 6.27304 23.7843 6.22124C23.1941 6.1524 22.6006 6.11712 22.0065 6.11557C21.437 6.11182 20.8677 6.13948 20.3012 6.19845C19.8537 6.24196 19.4102 6.30827 18.9751 6.39115C18.54 6.47403 18.1111 6.57141 17.6884 6.68745C16.4455 7.03039 15.2493 7.52446 14.1266 8.15858C13.8862 8.29326 13.648 8.43416 13.4159 8.57298C10.86 10.1959 8.81559 12.509 7.51894 15.2449C6.98411 16.374 6.58556 17.5627 6.33167 18.786C6.11403 19.8406 6.00297 20.9145 6.00015 21.9914Z" fill="#196719"/>
<path opacity="0.1" d="M6.00015 21.9914C5.99716 22.6909 6.03938 23.39 6.12654 24.0841C6.52104 27.1705 7.81034 30.074 9.83542 32.4363C11.8605 34.7987 14.5328 36.5166 17.5226 37.3782C18.9377 37.7839 20.4018 37.9931 21.8739 37.9998C22.9931 38.005 24.1097 37.8932 25.2057 37.6662C27.2945 37.2264 29.2741 36.3728 31.0278 35.1557C32.7815 33.9387 34.2738 32.3828 35.4166 30.5799C35.5637 30.3478 35.7046 30.1095 35.8413 29.8712C36.4739 28.7481 36.9673 27.552 37.3104 26.3094C37.4264 25.895 37.5176 25.4599 37.6088 25.0248C37.6999 24.5897 37.7559 24.1483 37.8015 23.6987C37.8553 23.1807 37.883 22.6565 37.8843 22.126C37.8879 21.487 37.8527 20.8483 37.7787 20.2136C37.7289 19.7743 37.6599 19.3413 37.5715 18.9144C36.9505 15.8352 35.4345 13.0078 33.2133 10.7866C30.9921 8.56544 28.1647 7.04937 25.0855 6.42845C24.6587 6.34142 24.2235 6.27304 23.7843 6.22124C23.1941 6.1524 22.6006 6.11712 22.0065 6.11557C21.437 6.11182 20.8677 6.13948 20.3012 6.19845C19.8537 6.24196 19.4102 6.30827 18.9751 6.39115C18.54 6.47403 18.1111 6.57141 17.6884 6.68745C16.4455 7.03039 15.2493 7.52446 14.1266 8.15858C13.8862 8.29326 13.648 8.43416 13.4159 8.57298C10.86 10.1959 8.81559 12.509 7.51894 15.2449C6.98411 16.374 6.58556 17.5627 6.33167 18.786C6.11403 19.8406 6.00297 20.9145 6.00015 21.9914Z" fill="#CCFF33"/>
<path opacity="0.05" d="M37.2606 17.6401C37.3808 18.0545 37.4864 18.4855 37.5735 18.9206C37.6605 19.3558 37.7289 19.7805 37.7807 20.2198C37.8547 20.8546 37.89 21.4932 37.8863 22.1323C37.8863 22.6627 37.8587 23.1869 37.8035 23.7049C37.7579 24.1552 37.6936 24.5973 37.6108 25.031C37.5279 25.4661 37.4284 25.893 37.3124 26.3157C36.9676 27.554 36.4736 28.7459 35.8413 29.865C35.7045 30.1033 35.5636 30.3416 35.4165 30.5737C33.9752 32.8589 31.9755 34.7393 29.6061 36.0375C27.2366 37.3357 24.5755 38.0089 21.8738 37.9936C21.2921 37.9898 20.7111 37.9545 20.1333 37.8879L37.2606 17.6401Z" fill="black"/>
<path opacity="0.05" d="M37.0139 27.2627C36.7027 28.164 36.3102 29.035 35.8411 29.8651C35.7044 30.1034 35.5635 30.3417 35.4164 30.5738C33.9681 32.8583 31.9642 34.7382 29.5919 36.0377L37.0139 27.2627Z" fill="black"/>
<path opacity="0.15" d="M35.0808 13.0254C35.594 13.7699 36.0419 14.5574 36.4193 15.3792L17.7711 37.4441L17.5184 37.3757C16.7375 37.147 15.9754 36.8581 15.2391 36.5117L35.0808 13.0254Z" fill="#CCFF33"/>
<path opacity="0.15" d="M28.9829 7.75049C29.819 8.1641 30.6176 8.64938 31.3699 9.2009L10.8383 33.4891C10.1693 32.8385 9.55845 32.1306 9.01282 31.3735L28.9829 7.75049Z" fill="#CCFF33"/>
<path opacity="0.15" d="M26.6539 6.82373C27.1471 6.97706 27.6305 7.15249 28.1043 7.35002L8.47197 30.5732C8.19847 30.1401 7.93946 29.6967 7.7074 29.2367L26.6539 6.82373Z" fill="#CCFF33"/>
<path opacity="0.15" d="M6.04578 20.9053C6.0665 20.611 6.09758 20.3189 6.1328 20.0309C6.14523 19.9335 6.15559 19.8361 6.1701 19.7408C6.1846 19.6455 6.19911 19.5336 6.21568 19.4445C6.25298 19.2373 6.29027 19.0094 6.33379 18.7939C6.96361 15.7776 8.4558 13.0092 10.6291 10.8249C11.4719 9.975 12.4074 9.2223 13.418 8.58091C13.6501 8.43379 13.8884 8.2929 14.1287 8.1665C15.2514 7.53238 16.4476 7.03832 17.6905 6.69537C17.848 6.65186 18.0055 6.61456 18.165 6.5752L6.04578 20.9053Z" fill="#CCFF33"/>
<path d="M10.0634 22.0577C10.0629 25.0705 11.2075 27.9709 13.2654 30.1715C15.3232 32.3721 18.1405 33.7083 21.1466 33.9096C21.4076 33.9262 21.677 33.9366 21.9443 33.9366C25.0679 33.8953 28.0495 32.6255 30.2438 30.4021C32.438 28.1787 33.6683 25.1805 33.6683 22.0567C33.6683 18.9328 32.438 15.9347 30.2438 13.7112C28.0495 11.4878 25.0679 10.218 21.9443 10.1768C21.677 10.1768 21.4076 10.1768 21.1466 10.2037C18.1405 10.406 15.3235 11.7428 13.2658 13.9436C11.2081 16.1444 10.0634 19.0448 10.0634 22.0577Z" fill="#196719"/>
<path opacity="0.4" d="M10.0634 22.0577C10.0629 25.0705 11.2075 27.9709 13.2654 30.1715C15.3232 32.3721 18.1405 33.7083 21.1466 33.9096C21.4076 33.9262 21.677 33.9366 21.9443 33.9366C25.0679 33.8953 28.0495 32.6255 30.2438 30.4021C32.438 28.1787 33.6683 25.1805 33.6683 22.0567C33.6683 18.9328 32.438 15.9347 30.2438 13.7112C28.0495 11.4878 25.0679 10.218 21.9443 10.1768C21.677 10.1768 21.4076 10.1768 21.1466 10.2037C18.1405 10.406 15.3235 11.7428 13.2658 13.9436C11.2081 16.1444 10.0634 19.0448 10.0634 22.0577Z" fill="black"/>
<path d="M10.5917 22.058C10.5917 22.2652 10.5917 22.4724 10.6083 22.6631C10.7559 25.4322 11.9123 28.0515 13.8592 30.0263C15.8061 32.0011 18.4087 33.1946 21.1755 33.3816L21.3309 33.392C21.5381 33.392 21.7329 33.4085 21.936 33.4085C24.7811 33.414 27.5242 32.3496 29.6211 30.4267C31.7179 28.5037 33.0152 25.8627 33.2554 23.0277C33.2844 22.7066 33.2968 22.3833 33.2968 22.0539C33.2968 21.7244 33.2865 21.4551 33.2637 21.1608C33.2174 20.5509 33.1203 19.9458 32.9736 19.352C32.477 17.3368 31.4382 15.496 29.9699 14.0291C28.5016 12.5623 26.6598 11.5254 24.6441 11.0308C24.0502 10.884 23.4452 10.787 22.8352 10.7407C22.541 10.7179 22.2426 10.7075 21.9422 10.7075C21.6873 10.7075 21.4325 10.7075 21.1818 10.7324C21.1113 10.7324 21.0409 10.7324 20.9745 10.749C19.3208 10.8872 17.7182 11.3896 16.2814 12.2201C14.5521 13.2146 13.1159 14.648 12.1179 16.3755C11.12 18.1029 10.5956 20.0631 10.5979 22.058H10.5917Z" fill="#196719"/>
<path opacity="0.5" d="M10.5917 22.058C10.5917 22.2652 10.5917 22.4724 10.6083 22.6631C10.7559 25.4322 11.9123 28.0515 13.8592 30.0263C15.8061 32.0011 18.4087 33.1946 21.1755 33.3816L21.3309 33.392C21.5381 33.392 21.7329 33.4085 21.936 33.4085C24.7811 33.414 27.5242 32.3496 29.6211 30.4267C31.7179 28.5037 33.0152 25.8627 33.2554 23.0277C33.2844 22.7066 33.2968 22.3833 33.2968 22.0539C33.2968 21.7244 33.2865 21.4551 33.2637 21.1608C33.2174 20.5509 33.1203 19.9458 32.9736 19.352C32.477 17.3368 31.4382 15.496 29.9699 14.0291C28.5016 12.5623 26.6598 11.5254 24.6441 11.0308C24.0502 10.884 23.4452 10.787 22.8352 10.7407C22.541 10.7179 22.2426 10.7075 21.9422 10.7075C21.6873 10.7075 21.4325 10.7075 21.1818 10.7324C21.1113 10.7324 21.0409 10.7324 20.9745 10.749C19.3208 10.8872 17.7182 11.3896 16.2814 12.2201C14.5521 13.2146 13.1159 14.648 12.1179 16.3755C11.12 18.1029 10.5956 20.0631 10.5979 22.058H10.5917Z" fill="black"/>
<path d="M29.9401 30.112C31.8552 28.2218 33.0311 25.7091 33.2554 23.0277C33.2844 22.7066 33.2989 22.3833 33.2989 22.0539C33.2989 21.7244 33.2864 21.4551 33.2637 21.1608C33.2174 20.5509 33.1203 19.9458 32.9736 19.352C32.477 17.3368 31.4382 15.496 29.9699 14.0291C28.5016 12.5623 26.6597 11.5254 24.6441 11.0308C24.0502 10.884 23.4452 10.787 22.8352 10.7407C22.541 10.7179 22.2426 10.7075 21.9422 10.7075C21.6873 10.7075 21.4324 10.7075 21.1817 10.7324C21.1113 10.7324 21.0408 10.7324 20.9745 10.749C19.3208 10.8872 17.7181 11.3896 16.2814 12.2201C15.7834 12.5118 15.3082 12.8408 14.86 13.2043C13.7991 14.2559 12.9576 15.5077 12.3843 16.887C11.8109 18.2664 11.5171 19.7458 11.5199 21.2396C11.5199 21.4468 11.5199 21.6436 11.5386 21.8446C11.6853 24.6141 12.8415 27.2339 14.7885 29.2088C16.7356 31.1838 19.3387 32.3771 22.1058 32.5631H22.2592C22.4664 32.5735 22.6632 32.5797 22.8663 32.5797C25.4382 32.5823 27.9337 31.7049 29.9381 30.0933L29.9401 30.112Z" fill="#196719"/>
<path opacity="0.25" d="M29.9401 30.112C31.8552 28.2218 33.0311 25.7091 33.2554 23.0277C33.2844 22.7066 33.2989 22.3833 33.2989 22.0539C33.2989 21.7244 33.2864 21.4551 33.2637 21.1608C33.2174 20.5509 33.1203 19.9458 32.9736 19.352C32.477 17.3368 31.4382 15.496 29.9699 14.0291C28.5016 12.5623 26.6597 11.5254 24.6441 11.0308C24.0502 10.884 23.4452 10.787 22.8352 10.7407C22.541 10.7179 22.2426 10.7075 21.9422 10.7075C21.6873 10.7075 21.4324 10.7075 21.1817 10.7324C21.1113 10.7324 21.0408 10.7324 20.9745 10.749C19.3208 10.8872 17.7181 11.3896 16.2814 12.2201C15.7834 12.5118 15.3082 12.8408 14.86 13.2043C13.7991 14.2559 12.9576 15.5077 12.3843 16.887C11.8109 18.2664 11.5171 19.7458 11.5199 21.2396C11.5199 21.4468 11.5199 21.6436 11.5386 21.8446C11.6853 24.6141 12.8415 27.2339 14.7885 29.2088C16.7356 31.1838 19.3387 32.3771 22.1058 32.5631H22.2592C22.4664 32.5735 22.6632 32.5797 22.8663 32.5797C25.4382 32.5823 27.9337 31.7049 29.9381 30.0933L29.9401 30.112Z" fill="black"/>
<path d="M14.1288 8.15867C20.9892 4.60516 26.5609 6.4534 30.2905 8.67045C35.6778 12.2861 39.0759 18.3426 37.2173 26.3468V26.3302C36.5077 28.9925 35.1116 31.4218 33.1685 33.3751C35.1748 31.4158 36.6335 28.9657 37.3996 26.2681V26.2826C39.1132 19.6521 36.9583 14.3871 33.3633 10.672C29.5114 7.12059 22.9846 3.61266 14.1288 8.15867Z" fill="#CCFF33"/>
<g filter="url(#filter0_f_874_49611)">
<path d="M22.5097 17.5069C22.1095 16.7065 21.8427 16.5063 21.7593 16.5063C21.9362 16.6201 22.0094 17.2568 22.2596 17.7571C22.8189 18.8758 23.7104 20.6088 26.5121 21.009C29.3138 21.4093 29.3575 24.0108 29.2637 25.0114C30.5145 21.7595 27.7423 20.5087 26.5121 20.5087C24.0106 20.5087 23.01 18.5075 22.5097 17.5069Z" fill="#041004"/>
<path d="M23.2602 24.0109C23.2602 22.1667 21.8427 21.3427 21.259 21.2593C22.4597 22.0598 22.5098 23.2605 22.5098 24.0109C23.5104 26.2122 25.4282 25.7619 26.262 25.2616C23.7605 25.2616 23.2602 24.5112 23.2602 24.0109Z" fill="#041004"/>
<path d="M18.0071 20.0087C16.4062 19.4083 17.0899 18.1742 17.5068 17.7573C17.2567 17.8407 16.5062 18.4077 16.5062 19.0081C16.5062 19.6084 17.5068 19.9253 18.0071 20.0087Z" fill="#041004"/>
</g>
<path d="M22.5097 17.5069C22.1095 16.7065 21.8427 16.5063 21.7593 16.5063C21.9362 16.6201 22.0094 17.2568 22.2596 17.7571C22.8189 18.8758 23.7104 20.6088 26.5121 21.009C29.3138 21.4093 29.3575 24.0108 29.2637 25.0114C30.5145 21.7595 27.7423 20.5087 26.5121 20.5087C24.0106 20.5087 23.01 18.5075 22.5097 17.5069Z" fill="#CCFF33"/>
<path d="M23.2602 24.0109C23.2602 22.1667 21.8427 21.3427 21.259 21.2593C22.4597 22.0598 22.5098 23.2605 22.5098 24.0109C23.5104 26.2122 25.4282 25.7619 26.262 25.2616C23.7605 25.2616 23.2602 24.5112 23.2602 24.0109Z" fill="#CCFF33"/>
<path d="M18.0071 20.0087C16.4062 19.4083 17.0899 18.1742 17.5068 17.7573C17.2567 17.8407 16.5062 18.4077 16.5062 19.0081C16.5062 19.6084 17.5068 19.9253 18.0071 20.0087Z" fill="#CCFF33"/>
<path d="M22.4939 16.2253C22.615 16.1572 22.7418 16.0939 22.8744 16.0351C23.529 15.745 24.2729 15.5999 25.1061 15.5999C25.9541 15.5999 26.6943 15.745 27.3266 16.0351C27.9627 16.3252 28.4574 16.7288 28.8107 17.2458C29.1641 17.7628 29.3463 18.3617 29.3575 19.0423H27.0421C26.9975 18.5923 26.8059 18.2426 26.4674 17.9934C26.1289 17.7442 25.6696 17.6196 25.0893 17.6196C24.6951 17.6196 24.3622 17.6754 24.0907 17.787C23.8581 17.8794 23.6719 18.0031 23.5321 18.1583C23.1609 17.6174 22.8906 17.0514 22.6646 16.5783C22.605 16.4535 22.5484 16.3351 22.4939 16.2253Z" fill="#2B892B"/>
<path d="M20.0558 24.9238C19.9367 25.008 19.7998 25.0802 19.6454 25.1404C19.3441 25.2595 18.9889 25.319 18.5797 25.319C18.1632 25.319 17.7894 25.2558 17.4583 25.1293C17.131 24.9991 16.8688 24.8076 16.6716 24.5546C16.4782 24.298 16.3685 23.9781 16.3425 23.595H14.0048C14.0234 24.417 14.2224 25.107 14.6017 25.6649C14.9848 26.2191 15.5167 26.6375 16.1974 26.9202C16.8818 27.2029 17.6852 27.3442 18.6076 27.3442C19.5375 27.3442 20.3316 27.2048 20.99 26.9258C20.9934 26.9243 20.9968 26.9229 21.0003 26.9214C20.5032 26.472 20.0734 25.9048 20.0734 25.2823C20.0734 25.1598 20.0677 25.0402 20.0558 24.9238Z" fill="#2B892B"/>
<path fill-rule="evenodd" clip-rule="evenodd" d="M22.3785 17.5314C22.9182 18.7054 23.7269 20.4646 26.1683 20.668C29.2091 20.9215 29.6737 23.2021 29.4625 24.4691C29.1669 26.243 26.4216 29.0304 21.8604 26.4964C21.4896 26.2904 20.5933 25.4827 20.5933 24.4691C20.5933 23.4555 20.0865 22.6953 18.8195 22.4419C17.5525 22.1885 14.0048 21.4282 14.2582 18.6408C14.5116 15.8533 19.5798 14.3329 21.8604 16.6135C22.0384 16.7915 22.1924 17.1267 22.3785 17.5314ZM16.7922 18.6408C17.1301 17.6272 18.8195 16.867 20.0865 18.134C20.302 18.3495 20.5933 18.6408 20.8467 19.401C20.8642 19.4534 20.8812 19.5066 20.8985 19.5605C21.208 20.5277 21.5945 21.7352 25.9148 22.6953C26.5268 22.8313 27.5366 23.2528 26.9285 24.4691C26.3203 25.6855 24.3944 25.4828 23.6342 24.9759C23.4652 24.8915 22.874 24.5448 22.874 23.7089C22.8739 22.6953 22.6206 21.6817 20.0865 20.668C19.7847 20.5473 19.4167 20.4381 19.0367 20.3253C17.8215 19.9646 16.4834 19.5674 16.7922 18.6408Z" fill="#2B892B"/>
<mask id="mask0_874_49611" style="mask-type:alpha" maskUnits="userSpaceOnUse" x="14" y="15" width="16" height="13">
<path d="M22.4939 16.2253C22.615 16.1572 22.7418 16.0939 22.8744 16.0351C23.529 15.745 24.2729 15.5999 25.1061 15.5999C25.9541 15.5999 26.6943 15.745 27.3266 16.0351C27.9627 16.3252 28.4574 16.7288 28.8107 17.2458C29.1641 17.7628 29.3463 18.3617 29.3575 19.0423H27.0421C26.9975 18.5923 26.8059 18.2426 26.4674 17.9934C26.1289 17.7442 25.6696 17.6196 25.0893 17.6196C24.6951 17.6196 24.3622 17.6754 24.0907 17.787C23.8581 17.8794 23.6719 18.0031 23.5321 18.1583C23.1609 17.6174 22.8906 17.0514 22.6646 16.5783C22.605 16.4535 22.5484 16.3351 22.4939 16.2253Z" fill="#2B892B"/>
<path d="M20.0558 24.9238C19.9367 25.008 19.7998 25.0802 19.6454 25.1404C19.3441 25.2595 18.9889 25.319 18.5797 25.319C18.1632 25.319 17.7894 25.2558 17.4583 25.1293C17.131 24.9991 16.8688 24.8076 16.6716 24.5546C16.4782 24.298 16.3685 23.9781 16.3425 23.595H14.0048C14.0234 24.417 14.2224 25.107 14.6017 25.6649C14.9848 26.2191 15.5167 26.6375 16.1974 26.9202C16.8818 27.2029 17.6852 27.3442 18.6076 27.3442C19.5375 27.3442 20.3316 27.2048 20.99 26.9258C20.9934 26.9243 20.9968 26.9229 21.0003 26.9214C20.5032 26.472 20.0734 25.9048 20.0734 25.2823C20.0734 25.1598 20.0677 25.0402 20.0558 24.9238Z" fill="#2B892B"/>
<path fill-rule="evenodd" clip-rule="evenodd" d="M22.3785 17.5314C22.9182 18.7054 23.7269 20.4646 26.1683 20.668C29.2091 20.9215 29.6737 23.2021 29.4625 24.4691C29.1669 26.243 26.4216 29.0304 21.8604 26.4964C21.4896 26.2904 20.5933 25.4827 20.5933 24.4691C20.5933 23.4555 20.0865 22.6953 18.8195 22.4419C17.5525 22.1885 14.0048 21.4282 14.2582 18.6408C14.5116 15.8533 19.5798 14.3329 21.8604 16.6135C22.0384 16.7915 22.1924 17.1267 22.3785 17.5314ZM16.7922 18.6408C17.1301 17.6272 18.8195 16.867 20.0865 18.134C20.302 18.3495 20.5933 18.6408 20.8467 19.401C20.8642 19.4534 20.8812 19.5066 20.8985 19.5605C21.208 20.5277 21.5945 21.7352 25.9148 22.6953C26.5268 22.8313 27.5366 23.2528 26.9285 24.4691C26.3203 25.6855 24.3944 25.4828 23.6342 24.9759C23.4652 24.8915 22.874 24.5448 22.874 23.7089C22.8739 22.6953 22.6206 21.6817 20.0865 20.668C19.7847 20.5473 19.4167 20.4381 19.0367 20.3253C17.8215 19.9646 16.4834 19.5674 16.7922 18.6408Z" fill="#2B892B"/>
</mask>
<g mask="url(#mask0_874_49611)">
<path opacity="0.15" d="M28.9829 7.75049C29.819 8.1641 30.6176 8.64938 31.3699 9.2009L10.8383 33.4891C10.1693 32.8385 9.55845 32.1306 9.01282 31.3735L28.9829 7.75049Z" fill="#CCFF33"/>
<path opacity="0.15" d="M26.6539 6.82373C27.1471 6.97706 27.6305 7.15249 28.1043 7.35002L8.47197 30.5732C8.19847 30.1401 7.93946 29.6967 7.7074 29.2367L26.6539 6.82373Z" fill="#CCFF33"/>
<path opacity="0.15" d="M35.0808 13.0254C35.594 13.7699 36.0419 14.5574 36.4193 15.3792L17.7711 37.4441L17.5184 37.3757C16.7375 37.147 15.9754 36.8581 15.2391 36.5117L35.0808 13.0254Z" fill="#CCFF33"/>
</g>
<defs>
<filter id="filter0_f_874_49611" x="0.506226" y="0.506348" width="45.0743" height="41.1665" filterUnits="userSpaceOnUse" color-interpolation-filters="sRGB">
<feFlood flood-opacity="0" result="BackgroundImageFix"/>
<feBlend mode="normal" in="SourceGraphic" in2="BackgroundImageFix" result="shape"/>
<feGaussianBlur stdDeviation="8" result="effect1_foregroundBlur_874_49611"/>
</filter>
</defs>
</svg>
