<svg width="36" height="28" viewBox="0 0 36 28" fill="none" xmlns="http://www.w3.org/2000/svg">
<path fill-rule="evenodd" clip-rule="evenodd" d="M33.6227 5.9538L0.277588 13.6521L2.99461 17.8143L2.37713 22.7462L35.7222 15.0479L32.1716 11.0782L33.6227 5.9538ZM32.4085 7.03328L1.8422 14.0901L4.24533 17.5265L3.59182 21.6685L34.1582 14.6117L30.9909 11.3518L32.4085 7.03328Z" fill="#F5F5F5"/>
<path d="M17.9998 0L20.1846 3.01541L23.3572 1.06565L24.222 4.68717L27.8993 4.1008L27.373 7.39724L25.405 7.85145C23.6394 5.72776 20.9776 4.375 17.9998 4.375C13.4694 4.375 9.67017 7.50434 8.64629 11.7198L6.44398 12.2287L7.01478 11.8148L5.0654 8.64214L8.68731 7.77778L8.10018 4.1008L11.7775 4.68717L12.6423 1.06565L15.8149 3.01541L17.9998 0Z" fill="#F5F5F5"/>
<path d="M22.2775 8.45833C22.3151 8.4872 22.3527 8.51758 22.3899 8.5472L22.2775 8.57303V8.45833Z" fill="#F5F5F5"/>
<path d="M21.8886 8.17882C21.7618 8.09375 21.6323 8.01324 21.4998 7.93652V8.75304L21.8886 8.66265V8.17882Z" fill="#F5F5F5"/>
<path d="M21.1109 8.84266V7.72765C20.9833 7.66461 20.8538 7.6046 20.722 7.54915V8.93229L21.1109 8.84266Z" fill="#F5F5F5"/>
<path d="M20.3331 9.02192V7.398C20.2051 7.35243 20.0756 7.31142 19.9442 7.27344V9.11155L20.3331 9.02192Z" fill="#F5F5F5"/>
<path d="M19.5553 9.20193V7.17318C19.4269 7.14431 19.2974 7.11849 19.1664 7.09646V9.29156L19.5553 9.20193Z" fill="#F5F5F5"/>
<path d="M18.7775 9.38119V7.04253C18.6488 7.0281 18.5193 7.01747 18.3886 7.01063V9.47081L18.7775 9.38119Z" fill="#F5F5F5"/>
<path d="M17.9998 9.5612V7C17.8691 7 17.7396 7.0038 17.6109 7.01063V9.65082L17.9998 9.5612Z" fill="#F5F5F5"/>
<path d="M17.222 9.74045V7.04253C17.0913 7.05697 16.9615 7.0752 16.8331 7.09646V9.83008L17.222 9.74045Z" fill="#F5F5F5"/>
<path d="M16.4442 9.91971V7.17318C16.3132 7.2028 16.1833 7.23622 16.0553 7.27344V10.0101L16.4442 9.91971Z" fill="#F5F5F5"/>
<path d="M15.6664 10.0997V7.398C15.535 7.44434 15.4051 7.49523 15.2775 7.54915V10.1893L15.6664 10.0997Z" fill="#F5F5F5"/>
<path d="M14.8886 10.279V7.72765C14.7565 7.79297 14.627 7.86285 14.4998 7.93652V10.3686L14.8886 10.279Z" fill="#F5F5F5"/>
<path d="M14.1109 10.459V8.17882C13.9779 8.26769 13.8481 8.36035 13.722 8.45833V10.5486L14.1109 10.459Z" fill="#F5F5F5"/>
<path d="M13.3331 10.6382V8.78266C13.1986 8.90267 13.0688 9.02875 12.9442 9.15864V10.7279L13.3331 10.6382Z" fill="#F5F5F5"/>
<path d="M12.5553 10.8175V9.59994C12.4178 9.77007 12.2879 9.94629 12.1664 10.1293V10.9079L12.5553 10.8175Z" fill="#F5F5F5"/>
<path d="M11.7775 10.9975V10.7901C11.7377 10.8676 11.6993 10.9451 11.6621 11.0241L11.7775 10.9975Z" fill="#F5F5F5"/>
<path d="M23.4442 17.8836L23.0553 17.9732V18.8414C23.1476 18.7449 23.2372 18.6462 23.3242 18.5444C23.3648 18.4965 23.4047 18.4487 23.4442 18.4001V17.8836Z" fill="#F5F5F5"/>
<path d="M23.8331 17.8707C23.8532 17.8403 23.873 17.8099 23.8927 17.7795L23.8331 17.7932V17.8707Z" fill="#F5F5F5"/>
<path d="M22.2775 18.1525L22.6664 18.0628V19.2173C22.6045 19.2728 22.5422 19.3267 22.4788 19.3799C22.4127 19.4346 22.3455 19.4885 22.2775 19.5409V18.1525Z" fill="#F5F5F5"/>
<path d="M21.8886 18.2428L21.4998 18.3325V20.0635C21.6323 19.9868 21.7618 19.9062 21.8886 19.8212V18.2428Z" fill="#F5F5F5"/>
<path d="M20.722 18.5117L21.1109 18.4221V20.2724C21.0159 20.3194 20.9198 20.365 20.8226 20.4076L20.722 20.4508V18.5117Z" fill="#F5F5F5"/>
<path d="M20.3331 18.6021L19.9442 18.6917V20.7258C20.0756 20.6878 20.2051 20.6468 20.3331 20.6012V18.6021Z" fill="#F5F5F5"/>
<path d="M19.1664 18.871L19.5553 18.7814V20.8261C19.4269 20.8549 19.2974 20.8808 19.1664 20.9028V18.871Z" fill="#F5F5F5"/>
<path d="M18.7775 18.9614L18.3886 19.051V20.9894C18.5193 20.9825 18.6488 20.9719 18.7775 20.9575V18.9614Z" fill="#F5F5F5"/>
<path d="M17.6109 19.2303L17.9998 19.1406V21C17.8691 21 17.7396 20.9962 17.6109 20.9894V19.2303Z" fill="#F5F5F5"/>
<path d="M17.222 19.3206L16.8331 19.4103V20.9035C16.9615 20.9248 17.0913 20.943 17.222 20.9575V19.3206Z" fill="#F5F5F5"/>
<path d="M16.0553 19.5895L16.4442 19.4999V20.8268C16.3132 20.7972 16.1833 20.7638 16.0553 20.7266V19.5895Z" fill="#F5F5F5"/>
<path d="M15.6664 19.6791L15.2775 19.7688V20.4516C15.4051 20.5055 15.535 20.5557 15.6664 20.602V19.6791Z" fill="#F5F5F5"/>
<path d="M14.4998 19.948L14.8886 19.8584V20.2731C14.8078 20.2329 14.7276 20.1911 14.6486 20.1485C14.5985 20.1212 14.5491 20.0931 14.4998 20.0642V19.948Z" fill="#F5F5F5"/>
<path d="M8.51033 21.3312L8.10018 23.8992L11.7775 23.3128L12.6423 26.9344L15.8149 24.9846L17.9998 28L20.1846 24.9846L23.3572 26.9344L24.222 23.3128L27.8993 23.8992L27.3122 20.2222L30.9341 19.3579L29.2099 16.5521L27.1383 17.0298C25.8687 20.861 22.257 23.625 17.9998 23.625C15.303 23.625 12.8648 22.5161 11.1175 20.7288L8.51033 21.3312Z" fill="#F5F5F5"/>
<path d="M10.7245 15.6893L9.94895 15.8684C9.90133 15.763 9.83795 15.6746 9.75883 15.603C9.67942 15.5303 9.58855 15.4742 9.48621 15.4346C9.38387 15.395 9.27255 15.3732 9.15226 15.3694C9.03307 15.364 8.9085 15.3763 8.77855 15.4063C8.54767 15.4596 8.3547 15.5573 8.19964 15.6993C8.04431 15.8402 7.9385 16.0189 7.8822 16.2355C7.82563 16.4509 7.82936 16.6973 7.89339 16.9746C7.95853 17.2568 8.06387 17.4828 8.20942 17.6528C8.35608 17.8213 8.52925 17.9344 8.72894 17.992C8.92973 18.048 9.14488 18.0496 9.37437 17.9966C9.50156 17.9672 9.61713 17.9254 9.72107 17.871C9.82613 17.8152 9.91624 17.7482 9.99141 17.6701C10.068 17.5918 10.127 17.5035 10.1684 17.4054C10.2112 17.307 10.2319 17.2011 10.2304 17.0876L11.0068 16.9122C11.0183 17.0941 10.9934 17.2732 10.9321 17.4492C10.8721 17.6249 10.7784 17.7894 10.6507 17.9429C10.5227 18.0951 10.3627 18.2281 10.1706 18.342C9.97815 18.4547 9.75545 18.5403 9.50246 18.5987C9.12918 18.6849 8.77868 18.6868 8.45094 18.6044C8.12321 18.5219 7.8423 18.3585 7.60822 18.1141C7.37414 17.8697 7.21136 17.5494 7.11989 17.1532C7.02814 16.7558 7.03471 16.3964 7.13962 16.075C7.24425 15.7523 7.42579 15.4822 7.68423 15.2644C7.94267 15.0467 8.25714 14.895 8.62765 14.8095C8.86405 14.7549 9.09052 14.733 9.30705 14.7437C9.52358 14.7544 9.72423 14.7972 9.909 14.8722C10.0935 14.946 10.2555 15.0515 10.3949 15.1887C10.5355 15.3245 10.6453 15.4913 10.7245 15.6893Z" fill="#F5F5F5"/>
<path d="M15.1289 15.3042C15.2206 15.7016 15.2135 16.0617 15.1075 16.3847C15.0026 16.7061 14.8202 16.9758 14.5604 17.1939C14.302 17.4116 13.9868 17.5634 13.6149 17.6493C13.243 17.7351 12.8925 17.737 12.5634 17.6549C12.2354 17.5713 11.9531 17.4082 11.7165 17.1656C11.4811 16.9215 11.3176 16.6014 11.2261 16.2052C11.1344 15.8078 11.1409 15.4484 11.2458 15.127C11.3519 14.804 11.5341 14.5337 11.7925 14.3159C12.0523 14.0979 12.3682 13.9459 12.7401 13.8601C13.112 13.7742 13.4618 13.7725 13.7895 13.8549C14.1187 13.937 14.4009 14.1001 14.6364 14.3442C14.873 14.5868 15.0371 14.9067 15.1289 15.3042ZM14.3554 15.4827C14.2908 15.203 14.1859 14.9787 14.0406 14.8099C13.8964 14.6396 13.7245 14.5256 13.5248 14.468C13.3248 14.4092 13.1094 14.4065 12.8786 14.4598C12.6477 14.5131 12.4553 14.61 12.3013 14.7505C12.1471 14.8898 12.0418 15.0678 11.9855 15.2844C11.9303 15.4994 11.935 15.7469 11.9996 16.0266C12.0642 16.3064 12.1686 16.5314 12.3127 16.7017C12.458 16.8705 12.6306 16.9843 12.8306 17.0431C13.0303 17.1007 13.2456 17.1029 13.4764 17.0496C13.7073 16.9963 13.8999 16.9 14.0541 16.7606C14.2081 16.6201 14.3126 16.4423 14.3678 16.2273C14.4241 16.0107 14.42 15.7625 14.3554 15.4827Z" fill="#F5F5F5"/>
<path d="M15.1969 13.346L16.1384 13.1286L18.0162 15.5102L18.066 15.4987L18.7098 12.535L19.6513 12.3176L20.5028 16.006L19.7646 16.1764L19.1796 13.6425L19.1402 13.6516L18.5489 16.4457L17.9973 16.573L16.2398 14.3155L16.2004 14.3245L16.7867 16.8639L16.0484 17.0343L15.1969 13.346Z" fill="#F5F5F5"/>
<path d="M21.107 15.8665L20.2555 12.1781L21.8813 11.8028C22.1882 11.7319 22.453 11.715 22.6756 11.7522C22.8994 11.7878 23.0783 11.866 23.2125 11.9867C23.3481 12.1072 23.4369 12.2587 23.479 12.4412C23.5137 12.5913 23.5102 12.7274 23.4685 12.8496C23.4265 12.9705 23.3572 13.077 23.2604 13.1689C23.1637 13.2607 23.0495 13.3371 22.9179 13.3978L22.9262 13.4338C23.0786 13.4062 23.2324 13.4131 23.3875 13.4544C23.5438 13.4942 23.6814 13.5699 23.8004 13.6816C23.9193 13.7932 24.0004 13.9427 24.0437 14.13C24.0878 14.3209 24.0742 14.5049 24.0029 14.6819C23.9314 14.8578 23.7986 15.0143 23.6046 15.1514C23.4105 15.2885 23.151 15.3946 22.8261 15.4696L21.107 15.8665ZM21.7475 15.1306L22.5749 14.9395C22.8542 14.8751 23.0446 14.7824 23.1463 14.6615C23.2492 14.5392 23.2836 14.4047 23.2498 14.2583C23.2246 14.149 23.1708 14.0577 23.0883 13.9844C23.0056 13.91 22.901 13.8608 22.7747 13.8368C22.648 13.8117 22.5052 13.8175 22.3462 13.8542L21.498 14.05L21.7475 15.1306ZM21.387 13.5691L22.1481 13.3934C22.2808 13.3628 22.3955 13.3142 22.4923 13.2476C22.5887 13.1798 22.6584 13.0998 22.7012 13.0077C22.7451 12.9141 22.7546 12.8133 22.7296 12.7052C22.6967 12.5624 22.6114 12.4581 22.474 12.3925C22.3379 12.3265 22.1565 12.3197 21.9297 12.372L21.1521 12.5516L21.387 13.5691Z" fill="#F5F5F5"/>
<path d="M28.0806 12.314C28.1723 12.7114 28.1652 13.0716 28.0592 13.3945C27.9543 13.7159 27.7719 13.9857 27.5121 14.2037C27.2537 14.4215 26.9385 14.5733 26.5666 14.6591C26.1947 14.745 25.8442 14.7469 25.5151 14.6648C25.1871 14.5812 24.9048 14.4181 24.6682 14.1755C24.4327 13.9314 24.2693 13.6113 24.1778 13.215C24.0861 12.8176 24.0926 12.4582 24.1975 12.1368C24.3036 11.8139 24.4858 11.5436 24.7442 11.3258C25.004 11.1077 25.3199 10.9558 25.6918 10.8699C26.0637 10.7841 26.4135 10.7823 26.7412 10.8648C27.0703 10.9469 27.3526 11.11 27.5881 11.354C27.8247 11.5966 27.9888 11.9166 28.0806 12.314ZM27.3071 12.4926C27.2425 12.2129 27.1376 11.9886 26.9923 11.8198C26.8481 11.6495 26.6762 11.5355 26.4765 11.4779C26.2765 11.4191 26.0611 11.4163 25.8302 11.4696C25.5994 11.5229 25.407 11.6199 25.253 11.7604C25.0988 11.8997 24.9935 12.0776 24.9372 12.2942C24.882 12.5093 24.8867 12.7567 24.9513 13.0365C25.0159 13.3162 25.1203 13.5413 25.2644 13.7116C25.4097 13.8804 25.5823 13.9942 25.7823 14.053C25.982 14.1106 26.1973 14.1127 26.4281 14.0594C26.659 14.0061 26.8516 13.9098 27.0058 13.7705C27.1598 13.63 27.2643 13.4522 27.3195 13.2371C27.3758 13.0205 27.3717 12.7723 27.3071 12.4926Z" fill="#F5F5F5"/>
</svg>
