<svg width="327" height="350" viewBox="0 0 327 350" fill="none" xmlns="http://www.w3.org/2000/svg">
<path d="M-68.3982 89.5879L-45.0094 331.396" stroke="#CDDDCD" stroke-width="2.68509"/>
<path d="M-54.6062 78.4334L-22.4718 365.507" stroke="#CDDDCD" stroke-width="2.68509"/>
<path d="M-41.8823 72.0687L3.58068 401.38" stroke="#CDDDCD" stroke-width="2.68509"/>
<path d="M-24.6042 64.0561L31.3678 446.996" stroke="#CDDDCD" stroke-width="2.68509"/>
<path d="M-14.3846 53.9011L60.1656 490.583" stroke="#CDDDCD" stroke-width="2.68509"/>
<path d="M0.67356 43.9517L89.9908 515.796" stroke="#CDDDCD" stroke-width="2.68509"/>
<path d="M10.4947 37.463L110.756 510.924" stroke="#CDDDCD" stroke-width="2.68509"/>
<path d="M20.6427 30.7586L133.498 504.066" stroke="#CDDDCD" stroke-width="2.68509"/>
<path d="M26.905 24.5786L159.173 495.95" stroke="#CDDDCD" stroke-width="2.68509"/>
<path d="M34.4342 19.6048L182.484 492.799" stroke="#CDDDCD" stroke-width="2.68509"/>
<path d="M40.3267 15.7114L203.904 487.495" stroke="#CDDDCD" stroke-width="2.68509"/>
<path d="M46.1904 13.1983L225.423 477.36" stroke="#CDDDCD" stroke-width="2.68509"/>
<path d="M50.432 11.0769L246.558 470.202" stroke="#CDDDCD" stroke-width="2.68509"/>
<path d="M52.3815 10.4692L269.315 462.653" stroke="#CDDDCD" stroke-width="2.68509"/>
<path d="M52.3383 12.5391L291.73 456.01" stroke="#CDDDCD" stroke-width="2.68509"/>
<path d="M52.0399 11.3757L315.74 450.356" stroke="#CDDDCD" stroke-width="2.68509"/>
<path d="M78.9324 519.7L558.439 377.12" stroke="#CDDDCD" stroke-width="2.68509"/>
<path d="M57.0498 485.155L552.42 371.568" stroke="#CDDDCD" stroke-width="2.68509"/>
<path d="M31.6663 448.16L550.927 365.749" stroke="#CDDDCD" stroke-width="2.68509"/>
<path d="M4.66089 411.556L552.65 360.528" stroke="#CDDDCD" stroke-width="2.68509"/>
<path d="M-20.9644 370.636L545.562 359.765" stroke="#CDDDCD" stroke-width="2.68509"/>
<path d="M-48.3953 323.424L548.308 367.479" stroke="#CDDDCD" stroke-width="2.68509"/>
<path d="M-48.6177 287.5L499.353 361.711" stroke="#CDDDCD" stroke-width="2.68509"/>
<path d="M-56.0964 243.439L517.967 367.108" stroke="#CDDDCD" stroke-width="2.68509"/>
<path d="M-56.1616 199.925L525.763 380.333" stroke="#CDDDCD" stroke-width="2.68509"/>
<path d="M-61.0361 154.824L513.608 390.405" stroke="#CDDDCD" stroke-width="2.68509"/>
<path d="M-68.8425 110.979L491.25 394.288" stroke="#CDDDCD" stroke-width="2.68509"/>
<path d="M-55.2468 78.1758L469.432 403.258" stroke="#CDDDCD" stroke-width="2.68509"/>
<path d="M-24.2195 61.0797L448.639 409.51" stroke="#CDDDCD" stroke-width="2.68509"/>
<path d="M-2.21484 43.1382L425.882 417.059" stroke="#CDDDCD" stroke-width="2.68509"/>
<path d="M14.4373 34.1777C26.6407 43.5378 279.928 298.88 405.046 425.381" stroke="#CDDDCD" stroke-width="2.68509"/>
<path d="M28.8123 26.0417L382.688 429.264" stroke="#CDDDCD" stroke-width="2.68509"/>
<path d="M358.65 436.298L28.5303 8.53296" stroke="#CDDDCD" stroke-width="2.68509"/>
<path d="M336.533 444.105L42.0928 8.41989" stroke="#CDDDCD" stroke-width="2.68509"/>
<path d="M197.825 -139.525L-170.033 137.375L53.1658 580.08L431.093 451.196L197.825 -139.525Z" fill="url(#paint0_linear_128_5857)"/>
<g filter="url(#filter0_d_128_5857)">
<circle cx="282.489" cy="263.925" r="47.9614" fill="#F3FFF3"/>
<path d="M274.147 224.777L263.557 236.975L274.147 251.335H295.882L306.306 236.975L295.882 224.777C287.144 221.849 277.751 223.557 274.147 224.777Z" stroke="url(#paint1_linear_128_5857)" stroke-width="3.05611"/>
<path d="M296.048 255.494H274.092L267.272 275.787L285.015 288.595L302.536 275.787L296.048 255.494Z" fill="url(#paint2_linear_128_5857)"/>
<path d="M264.444 274.789L247.201 280.278C244.938 277.572 240.455 269.688 238.496 266.084C237.564 260.761 242.211 250.3 244.65 245.735L260.452 239.581L270.931 254.219L264.444 274.789Z" stroke="url(#paint3_linear_128_5857)" stroke-width="3.05611"/>
<path d="M282.741 291.09L265.498 278.615L248.254 283.993C247.995 285.564 247.766 289.183 248.919 291.09" stroke="url(#paint4_linear_128_5857)" stroke-width="3.05611"/>
<path d="M287.51 291.09L304.975 278.67L321.886 284.381L321.498 290.923" stroke="url(#paint5_linear_128_5857)" stroke-width="3.05611"/>
<path d="M322.052 280.001L306.084 275.011L299.098 253.83L309.743 239.359L321.997 244.571" stroke="url(#paint6_linear_128_5857)" stroke-width="3.05611"/>
<path d="M311.13 235.866C307.27 233.559 303.755 228.584 302.48 226.385C313.259 229.889 319.317 237.16 320.999 240.357C319.317 239.821 314.989 238.172 311.13 235.866Z" fill="url(#paint7_linear_128_5857)"/>
<path d="M255.296 233.26C258.6 230.212 264.857 227.262 267.327 226.662C261.616 236.808 252.518 239.205 248.975 239.913C249.965 238.452 251.991 236.308 255.296 233.26Z" fill="url(#paint8_linear_128_5857)"/>
<path d="M240.547 286.876C239.006 282.653 237.672 275.666 237.761 273.126C245.99 281.363 245.257 291.036 244.983 294.639C243.843 293.291 243.055 293.748 240.547 286.876Z" fill="url(#paint9_linear_128_5857)"/>
</g>
<g filter="url(#filter1_d_128_5857)">
<circle cx="190.215" cy="320.749" r="47.9614" fill="#F3FFF3"/>
<path d="M157.605 295.567L157.379 310.107L172.996 313.863L187.969 301.267L186.828 285.333L172.578 282.971C164.861 286.018 159.381 292.638 157.605 295.567Z" stroke="url(#paint10_linear_128_5857)" stroke-width="3.05611"/>
<path d="M190.494 304.035L175.368 316.759L182.43 334.691L202.075 333.232L206.723 314.255L190.494 304.035Z" fill="url(#paint11_linear_128_5857)"/>
<path d="M179.904 335.643L171.206 349.417C168.08 348.864 160.422 346.031 156.983 344.684C153.257 341.557 150.396 331.658 149.431 327.099L156.75 313.702L172.452 317.713L179.904 335.643Z" stroke="url(#paint12_linear_128_5857)" stroke-width="3.05611"/>
<path d="M201.956 336.269L182.847 337.668L174.085 351.366C174.817 352.598 176.757 355.224 178.656 355.869" stroke="url(#paint13_linear_128_5857)" stroke-width="3.05611"/>
<path d="M205.24 333.505L210.074 314.828L225.033 308.962L228.558 313.694" stroke="url(#paint14_linear_128_5857)" stroke-width="3.05611"/>
<path d="M222.61 305.848L208.717 311.664L191.63 301.122L190.577 284.984L202.039 281.473" stroke="url(#paint15_linear_128_5857)" stroke-width="3.05611"/>
<path d="M189.508 281.774C185.513 282.422 180.208 281.031 178.055 280.255C187.511 276.423 195.898 277.921 198.91 279.149C197.441 279.754 193.503 281.127 189.508 281.774Z" fill="url(#paint16_linear_128_5857)"/>
<path d="M149.535 312.336C150.045 308.321 152.645 302.663 153.999 300.818C155.945 311.117 151.066 318.042 149.036 320.582C148.871 319.002 149.024 316.351 149.535 312.336Z" fill="url(#paint17_linear_128_5857)"/>
<path d="M170.447 357.818C166.937 355.802 161.97 351.762 160.558 349.96C171.001 350.866 176.102 357.954 178.001 360.595C176.434 360.327 176.156 361.099 170.447 357.818Z" fill="url(#paint18_linear_128_5857)"/>
</g>
<g filter="url(#filter2_d_128_5857)">
<circle cx="256.423" cy="324.919" r="59.4305" fill="#F3FFF3"/>
<path d="M244.984 273.116L232.375 287.64L244.984 304.739H270.864L283.276 287.64L270.864 273.116C260.459 269.63 249.276 271.663 244.984 273.116Z" stroke="url(#paint19_linear_128_5857)" stroke-width="3.05611"/>
<path d="M271.063 309.691H244.919L236.799 333.854L257.925 349.105L278.787 333.854L271.063 309.691Z" fill="url(#paint20_linear_128_5857)"/>
<path d="M233.431 332.665L212.899 339.201C210.206 335.979 204.867 326.592 202.534 322.3C201.425 315.962 206.958 303.507 209.862 298.071L228.678 290.743L241.156 308.172L233.431 332.665Z" stroke="url(#paint21_linear_128_5857)" stroke-width="3.05611"/>
<path d="M255.217 352.075L234.685 337.221L214.153 343.625C213.845 345.495 213.572 349.804 214.946 352.075" stroke="url(#paint22_linear_128_5857)" stroke-width="3.05611"/>
<path d="M260.895 352.075L281.691 337.287L301.827 344.087L301.365 351.877" stroke="url(#paint23_linear_128_5857)" stroke-width="3.05611"/>
<path d="M302.025 338.871L283.012 332.929L274.693 307.71L287.369 290.479L301.959 296.685" stroke="url(#paint24_linear_128_5857)" stroke-width="3.05611"/>
<path d="M289.019 286.32C284.425 283.573 280.239 277.649 278.72 275.031C291.555 279.203 298.768 287.86 300.771 291.667C298.768 291.029 293.614 289.066 289.019 286.32Z" fill="url(#paint25_linear_128_5857)"/>
<path d="M222.538 283.217C226.473 279.588 233.923 276.076 236.865 275.361C230.065 287.442 219.23 290.297 215.012 291.139C216.191 289.399 218.603 286.846 222.538 283.217Z" fill="url(#paint26_linear_128_5857)"/>
<path d="M204.977 347.058C203.142 342.029 201.554 333.71 201.66 330.685C211.458 340.493 210.586 352.011 210.259 356.3C208.902 354.695 207.963 355.24 204.977 347.058Z" fill="url(#paint27_linear_128_5857)"/>
</g>
<defs>
<filter id="filter0_d_128_5857" x="224.341" y="205.777" width="112.222" height="112.222" filterUnits="userSpaceOnUse" color-interpolation-filters="sRGB">
<feFlood flood-opacity="0" result="BackgroundImageFix"/>
<feColorMatrix in="SourceAlpha" type="matrix" values="0 0 0 0 0 0 0 0 0 0 0 0 0 0 0 0 0 0 127 0" result="hardAlpha"/>
<feOffset dx="-2.03741" dy="-2.03741"/>
<feGaussianBlur stdDeviation="4.07481"/>
<feComposite in2="hardAlpha" operator="out"/>
<feColorMatrix type="matrix" values="0 0 0 0 0 0 0 0 0 0.564706 0 0 0 0 0.145098 0 0 0 0.12 0"/>
<feBlend mode="normal" in2="BackgroundImageFix" result="effect1_dropShadow_128_5857"/>
<feBlend mode="normal" in="SourceGraphic" in2="effect1_dropShadow_128_5857" result="shape"/>
</filter>
<filter id="filter1_d_128_5857" x="132.067" y="262.601" width="112.222" height="112.222" filterUnits="userSpaceOnUse" color-interpolation-filters="sRGB">
<feFlood flood-opacity="0" result="BackgroundImageFix"/>
<feColorMatrix in="SourceAlpha" type="matrix" values="0 0 0 0 0 0 0 0 0 0 0 0 0 0 0 0 0 0 127 0" result="hardAlpha"/>
<feOffset dx="-2.03741" dy="-2.03741"/>
<feGaussianBlur stdDeviation="4.07481"/>
<feComposite in2="hardAlpha" operator="out"/>
<feColorMatrix type="matrix" values="0 0 0 0 0 0 0 0 0 0.564706 0 0 0 0 0.145098 0 0 0 0.12 0"/>
<feBlend mode="normal" in2="BackgroundImageFix" result="effect1_dropShadow_128_5857"/>
<feBlend mode="normal" in="SourceGraphic" in2="effect1_dropShadow_128_5857" result="shape"/>
</filter>
<filter id="filter2_d_128_5857" x="180.693" y="249.19" width="143.31" height="143.31" filterUnits="userSpaceOnUse" color-interpolation-filters="sRGB">
<feFlood flood-opacity="0" result="BackgroundImageFix"/>
<feColorMatrix in="SourceAlpha" type="matrix" values="0 0 0 0 0 0 0 0 0 0 0 0 0 0 0 0 0 0 127 0" result="hardAlpha"/>
<feOffset dx="-4.07481" dy="-4.07481"/>
<feGaussianBlur stdDeviation="6.11222"/>
<feColorMatrix type="matrix" values="0 0 0 0 0 0 0 0 0 0.564706 0 0 0 0 0.145098 0 0 0 0.16 0"/>
<feBlend mode="normal" in2="BackgroundImageFix" result="effect1_dropShadow_128_5857"/>
<feBlend mode="normal" in="SourceGraphic" in2="effect1_dropShadow_128_5857" result="shape"/>
</filter>
<linearGradient id="paint0_linear_128_5857" x1="176.68" y1="180.001" x2="56.1865" y2="368.629" gradientUnits="userSpaceOnUse">
<stop stop-color="white"/>
<stop offset="1" stop-color="white" stop-opacity="0"/>
</linearGradient>
<linearGradient id="paint1_linear_128_5857" x1="263.49" y1="238.64" x2="306.239" y2="238.64" gradientUnits="userSpaceOnUse">
<stop stop-color="#104210"/>
<stop offset="1" stop-color="#104210" stop-opacity="0"/>
</linearGradient>
<linearGradient id="paint2_linear_128_5857" x1="267.217" y1="273.68" x2="302.48" y2="273.68" gradientUnits="userSpaceOnUse">
<stop stop-color="#104210"/>
<stop offset="1" stop-color="#104210" stop-opacity="0"/>
</linearGradient>
<linearGradient id="paint3_linear_128_5857" x1="238.323" y1="261.94" x2="270.88" y2="261.94" gradientUnits="userSpaceOnUse">
<stop stop-color="#104210"/>
<stop offset="1" stop-color="#104210" stop-opacity="0"/>
</linearGradient>
<linearGradient id="paint4_linear_128_5857" x1="247.989" y1="285.469" x2="282.687" y2="285.469" gradientUnits="userSpaceOnUse">
<stop stop-color="#104210"/>
<stop offset="1" stop-color="#104210" stop-opacity="0"/>
</linearGradient>
<linearGradient id="paint5_linear_128_5857" x1="287.455" y1="285.494" x2="321.832" y2="285.494" gradientUnits="userSpaceOnUse">
<stop stop-color="#104210"/>
<stop offset="1" stop-color="#104210" stop-opacity="0"/>
</linearGradient>
<linearGradient id="paint6_linear_128_5857" x1="299.062" y1="261.688" x2="322.016" y2="261.688" gradientUnits="userSpaceOnUse">
<stop stop-color="#104210"/>
<stop offset="1" stop-color="#104210" stop-opacity="0"/>
</linearGradient>
<linearGradient id="paint7_linear_128_5857" x1="302.451" y1="234.061" x2="320.97" y2="234.061" gradientUnits="userSpaceOnUse">
<stop stop-color="#104210"/>
<stop offset="1" stop-color="#104210" stop-opacity="0"/>
</linearGradient>
<linearGradient id="paint8_linear_128_5857" x1="260.037" y1="224.48" x2="254.968" y2="241.653" gradientUnits="userSpaceOnUse">
<stop stop-color="#104210"/>
<stop offset="1" stop-color="#104210" stop-opacity="0"/>
</linearGradient>
<linearGradient id="paint9_linear_128_5857" x1="233.537" y1="279.806" x2="248.404" y2="289.133" gradientUnits="userSpaceOnUse">
<stop stop-color="#104210"/>
<stop offset="1" stop-color="#104210" stop-opacity="0"/>
</linearGradient>
<linearGradient id="paint10_linear_128_5857" x1="158.297" y1="311.293" x2="187.746" y2="286.519" gradientUnits="userSpaceOnUse">
<stop stop-color="#104210"/>
<stop offset="1" stop-color="#104210" stop-opacity="0"/>
</linearGradient>
<linearGradient id="paint11_linear_128_5857" x1="181.171" y1="333.272" x2="205.464" y2="312.836" gradientUnits="userSpaceOnUse">
<stop stop-color="#104210"/>
<stop offset="1" stop-color="#104210" stop-opacity="0"/>
</linearGradient>
<linearGradient id="paint12_linear_128_5857" x1="154.463" y1="341.93" x2="176.891" y2="323.062" gradientUnits="userSpaceOnUse">
<stop stop-color="#104210"/>
<stop offset="1" stop-color="#104210" stop-opacity="0"/>
</linearGradient>
<linearGradient id="paint13_linear_128_5857" x1="174.758" y1="352.536" x2="198.661" y2="332.428" gradientUnits="userSpaceOnUse">
<stop stop-color="#104210"/>
<stop offset="1" stop-color="#104210" stop-opacity="0"/>
</linearGradient>
<linearGradient id="paint14_linear_128_5857" x1="201.96" y1="329.681" x2="225.641" y2="309.759" gradientUnits="userSpaceOnUse">
<stop stop-color="#104210"/>
<stop offset="1" stop-color="#104210" stop-opacity="0"/>
</linearGradient>
<linearGradient id="paint15_linear_128_5857" x1="196.159" y1="306.556" x2="211.972" y2="293.253" gradientUnits="userSpaceOnUse">
<stop stop-color="#104210"/>
<stop offset="1" stop-color="#104210" stop-opacity="0"/>
</linearGradient>
<linearGradient id="paint16_linear_128_5857" x1="182.484" y1="285.56" x2="195.241" y2="274.828" gradientUnits="userSpaceOnUse">
<stop stop-color="#104210"/>
<stop offset="1" stop-color="#104210" stop-opacity="0"/>
</linearGradient>
<linearGradient id="paint17_linear_128_5857" x1="147.713" y1="303.54" x2="154.173" y2="318.308" gradientUnits="userSpaceOnUse">
<stop stop-color="#104210"/>
<stop offset="1" stop-color="#104210" stop-opacity="0"/>
</linearGradient>
<linearGradient id="paint18_linear_128_5857" x1="161.52" y1="357.01" x2="177.167" y2="354.82" gradientUnits="userSpaceOnUse">
<stop stop-color="#104210"/>
<stop offset="1" stop-color="#104210" stop-opacity="0"/>
</linearGradient>
<linearGradient id="paint19_linear_128_5857" x1="232.295" y1="289.623" x2="283.196" y2="289.623" gradientUnits="userSpaceOnUse">
<stop stop-color="#104210"/>
<stop offset="1" stop-color="#104210" stop-opacity="0"/>
</linearGradient>
<linearGradient id="paint20_linear_128_5857" x1="236.733" y1="331.345" x2="278.721" y2="331.345" gradientUnits="userSpaceOnUse">
<stop stop-color="#104210"/>
<stop offset="1" stop-color="#104210" stop-opacity="0"/>
</linearGradient>
<linearGradient id="paint21_linear_128_5857" x1="202.328" y1="317.367" x2="241.095" y2="317.367" gradientUnits="userSpaceOnUse">
<stop stop-color="#104210"/>
<stop offset="1" stop-color="#104210" stop-opacity="0"/>
</linearGradient>
<linearGradient id="paint22_linear_128_5857" x1="213.838" y1="345.382" x2="255.152" y2="345.382" gradientUnits="userSpaceOnUse">
<stop stop-color="#104210"/>
<stop offset="1" stop-color="#104210" stop-opacity="0"/>
</linearGradient>
<linearGradient id="paint23_linear_128_5857" x1="260.831" y1="345.412" x2="301.763" y2="345.412" gradientUnits="userSpaceOnUse">
<stop stop-color="#104210"/>
<stop offset="1" stop-color="#104210" stop-opacity="0"/>
</linearGradient>
<linearGradient id="paint24_linear_128_5857" x1="274.65" y1="317.066" x2="301.982" y2="317.066" gradientUnits="userSpaceOnUse">
<stop stop-color="#104210"/>
<stop offset="1" stop-color="#104210" stop-opacity="0"/>
</linearGradient>
<linearGradient id="paint25_linear_128_5857" x1="278.686" y1="284.171" x2="300.736" y2="284.171" gradientUnits="userSpaceOnUse">
<stop stop-color="#104210"/>
<stop offset="1" stop-color="#104210" stop-opacity="0"/>
</linearGradient>
<linearGradient id="paint26_linear_128_5857" x1="228.184" y1="272.763" x2="222.148" y2="293.211" gradientUnits="userSpaceOnUse">
<stop stop-color="#104210"/>
<stop offset="1" stop-color="#104210" stop-opacity="0"/>
</linearGradient>
<linearGradient id="paint27_linear_128_5857" x1="196.631" y1="338.639" x2="214.333" y2="349.745" gradientUnits="userSpaceOnUse">
<stop stop-color="#104210"/>
<stop offset="1" stop-color="#104210" stop-opacity="0"/>
</linearGradient>
</defs>
</svg>
