<svg width="16" height="16" viewBox="0 0 16 16" fill="none" xmlns="http://www.w3.org/2000/svg">
<path d="M10.6667 8.59999V11.4C10.6667 13.7333 9.73334 14.6667 7.40001 14.6667H4.60001C2.26668 14.6667 1.33334 13.7333 1.33334 11.4V8.59999C1.33334 6.26666 2.26668 5.33333 4.60001 5.33333H7.40001C9.73334 5.33333 10.6667 6.26666 10.6667 8.59999Z" fill="#196719"/>
<path d="M11.4 1.33333H8.6C6.6793 1.33333 5.71167 1.97026 5.42923 3.4926C5.32764 4.04016 5.79499 4.49999 6.3519 4.49999H7.4C10.2 4.49999 11.5 5.79999 11.5 8.59999V9.64809C11.5 10.205 11.9598 10.6724 12.5074 10.5708C14.0297 10.2883 14.6667 9.3207 14.6667 7.4V4.6C14.6667 2.26666 13.7333 1.33333 11.4 1.33333Z" fill="#196719"/>
</svg>
