<svg width="32" height="32" viewBox="0 0 32 32" fill="none" xmlns="http://www.w3.org/2000/svg">
<rect width="32" height="32" rx="12" fill="#196719"/>
<path d="M20 16.9V21.1C20 24.6 18.6 26 15.1 26H10.9C7.4 26 6 24.6 6 21.1V16.9C6 13.4 7.4 12 10.9 12H15.1C18.6 12 20 13.4 20 16.9Z" fill="#E0E0E0"/>
<path d="M21.1 6H16.9C13.8169 6 12.371 7.09409 12.0698 9.73901C12.0067 10.2923 12.465 10.75 13.0219 10.75H15.1C19.3 10.75 21.25 12.7 21.25 16.9V18.9781C21.25 19.535 21.7077 19.9933 22.261 19.9303C24.9059 19.629 26 18.1831 26 15.1V10.9C26 7.4 24.6 6 21.1 6Z" fill="#E0E0E0"/>
</svg>
