<svg width="16" height="16" viewBox="0 0 16 16" fill="none" xmlns="http://www.w3.org/2000/svg">
<path fill-rule="evenodd" clip-rule="evenodd" d="M7.99984 14.6667C11.6817 14.6667 14.6665 11.6819 14.6665 8C14.6665 4.3181 11.6817 1.33334 7.99984 1.33334C4.31794 1.33334 1.33317 4.3181 1.33317 8C1.33317 11.6819 4.31794 14.6667 7.99984 14.6667ZM10.3332 7.33334C9.78089 7.33334 9.33317 6.88562 9.33317 6.33334C9.33317 5.78105 9.78089 5.33334 10.3332 5.33334C10.8855 5.33334 11.3332 5.78105 11.3332 6.33334C11.3332 6.88562 10.8855 7.33334 10.3332 7.33334ZM6.03196 10.9744C5.99644 11.1704 6.24297 11.3333 6.4422 11.3333C6.61991 11.3333 6.69049 11.2036 6.74795 11.0354C6.88226 10.6425 7.22093 10 7.99984 10C8.77988 10 9.11974 10.6443 9.25446 11.0372C9.31184 11.2045 9.37153 11.3333 9.5484 11.3333C9.74698 11.3333 10.0032 11.1709 9.96792 10.9755C9.79926 10.0417 8.98227 9.33334 7.99984 9.33334C7.0178 9.33334 6.20108 10.0411 6.03196 10.9744ZM5.6665 7.33334C5.11422 7.33334 4.6665 6.88562 4.6665 6.33334C4.6665 5.78105 5.11422 5.33334 5.6665 5.33334C6.21879 5.33334 6.6665 5.78105 6.6665 6.33334C6.6665 6.88562 6.21879 7.33334 5.6665 7.33334ZM4.6665 9.33334C4.6665 9.70153 4.96498 10 5.33317 10C5.70136 10 5.99984 9.70153 5.99984 9.33334C5.99984 8.96515 5.33317 8 5.33317 8C5.33317 8 4.6665 8.96515 4.6665 9.33334Z" fill="white"/>
</svg>
