<svg width="64" height="64" viewBox="0 0 64 64" fill="none" xmlns="http://www.w3.org/2000/svg">
<rect width="64" height="64" fill="#1E1E1E"/>
<g id="P2P">
<path d="M-3447 -557C-3447 -558.105 -3446.1 -559 -3445 -559H21207C21208.1 -559 21209 -558.105 21209 -557V2123C21209 2124.1 21208.1 2125 21207 2125H-3445C-3446.1 2125 -3447 2124.1 -3447 2123V-557Z" fill="#404040"/>
<g id="Home">
<path d="M-2854 -279C-2854 -280.105 -2853.1 -281 -2852 -281H2493C2494.1 -281 2495 -280.105 2495 -279V1789C2495 1790.1 2494.1 1791 2493 1791H-2852C-2853.1 1791 -2854 1790.1 -2854 1789V-279Z" fill="#A3A3A3"/>
<g id="Bet slip/Even game">
<mask id="path-5-inside-1_655_16315" fill="white">
<path d="M-247 20C-247 2.32688 -232.673 -12 -215 -12H96C113.673 -12 128 2.32689 128 20V417H-247V20Z"/>
</mask>
<path d="M-247 20C-247 2.32688 -232.673 -12 -215 -12H96C113.673 -12 128 2.32689 128 20V417H-247V20Z" fill="#F5F5F5"/>
<g id="Container">
<g id="Heading">
<g id="CTA/Icons">
<g id="Frame 12052" filter="url(#filter0_d_655_16315)">
<rect x="16" y="12" width="32" height="32" rx="8" fill="white"/>
<g id="trash">
<g id="vuesax/outline/trash">
<g id="trash_2">
<path id="Vector" d="M41 22.73C40.98 22.73 40.95 22.73 40.92 22.73C35.63 22.2 30.35 22 25.12 22.53L23.08 22.73C22.66 22.77 22.29 22.47 22.25 22.05C22.21 21.63 22.51 21.27 22.92 21.23L24.96 21.03C30.28 20.49 35.67 20.7 41.07 21.23C41.48 21.27 41.78 21.64 41.74 22.05C41.71 22.44 41.38 22.73 41 22.73Z" fill="#141414"/>
<path id="Vector_2" d="M28.5 21.72C28.46 21.72 28.42 21.72 28.37 21.71C27.97 21.64 27.69 21.25 27.76 20.85L27.98 19.54C28.14 18.58 28.36 17.25 30.69 17.25H33.31C35.65 17.25 35.87 18.63 36.02 19.55L36.24 20.85C36.31 21.26 36.03 21.65 35.63 21.71C35.22 21.78 34.83 21.5 34.77 21.1L34.55 19.8C34.41 18.93 34.38 18.76 33.32 18.76H30.7C29.64 18.76 29.62 18.9 29.47 19.79L29.24 21.09C29.18 21.46 28.86 21.72 28.5 21.72Z" fill="#141414"/>
<path id="Vector_3" d="M35.21 38.7501H28.79C25.3 38.7501 25.16 36.8201 25.05 35.2601L24.4 25.1901C24.37 24.7801 24.69 24.4201 25.1 24.3901C25.52 24.3701 25.87 24.6801 25.9 25.0901L26.55 35.1601C26.66 36.6801 26.7 37.2501 28.79 37.2501H35.21C37.31 37.2501 37.35 36.6801 37.45 35.1601L38.1 25.0901C38.13 24.6801 38.49 24.3701 38.9 24.3901C39.31 24.4201 39.63 24.7701 39.6 25.1901L38.95 35.2601C38.84 36.8201 38.7 38.7501 35.21 38.7501Z" fill="#141414"/>
<path id="Vector_4" d="M33.66 33.25H30.33C29.92 33.25 29.58 32.91 29.58 32.5C29.58 32.09 29.92 31.75 30.33 31.75H33.66C34.07 31.75 34.41 32.09 34.41 32.5C34.41 32.91 34.07 33.25 33.66 33.25Z" fill="#141414"/>
<path id="Vector_5" d="M34.5 29.25H29.5C29.09 29.25 28.75 28.91 28.75 28.5C28.75 28.09 29.09 27.75 29.5 27.75H34.5C34.91 27.75 35.25 28.09 35.25 28.5C35.25 28.91 34.91 29.25 34.5 29.25Z" fill="#141414"/>
</g>
</g>
</g>
</g>
</g>
</g>
<g id="Content">
<g id="Bets">
<g id="Game" opacity="0.8">
<rect width="375" height="95" transform="translate(-247 52)" fill="white"/>
</g>
</g>
</g>
</g>
<path d="M-247 20C-247 1.22232 -231.778 -14 -213 -14H94C112.778 -14 128 1.22232 128 20C128 3.43146 113.673 -10 96 -10H-215C-232.673 -10 -247 3.43146 -247 20ZM128 417H-247H128ZM-247 417V-12V417ZM128 -12V417V-12Z" fill="#196719" mask="url(#path-5-inside-1_655_16315)"/>
</g>
<path d="M-2852 -280H2493V-282H-2852V-280ZM2494 -279V1789H2496V-279H2494ZM2493 1790H-2852V1792H2493V1790ZM-2853 1789V-279H-2855V1789H-2853ZM-2852 1790C-2852.55 1790 -2853 1789.55 -2853 1789H-2855C-2855 1790.66 -2853.66 1792 -2852 1792V1790ZM2494 1789C2494 1789.55 2493.55 1790 2493 1790V1792C2494.66 1792 2496 1790.66 2496 1789H2494ZM2493 -280C2493.55 -280 2494 -279.552 2494 -279H2496C2496 -280.657 2494.66 -282 2493 -282V-280ZM-2852 -282C-2853.66 -282 -2855 -280.657 -2855 -279H-2853C-2853 -279.552 -2852.55 -280 -2852 -280V-282Z" fill="white" fill-opacity="0.1"/>
</g>
<path d="M-3445 -558H21207V-560H-3445V-558ZM21208 -557V2123H21210V-557H21208ZM21207 2124H-3445V2126H21207V2124ZM-3446 2123V-557H-3448V2123H-3446ZM-3445 2124C-3445.55 2124 -3446 2123.55 -3446 2123H-3448C-3448 2124.66 -3446.66 2126 -3445 2126V2124ZM21208 2123C21208 2123.55 21207.6 2124 21207 2124V2126C21208.7 2126 21210 2124.66 21210 2123H21208ZM21207 -558C21207.6 -558 21208 -557.552 21208 -557H21210C21210 -558.657 21208.7 -560 21207 -560V-558ZM-3445 -560C-3446.66 -560 -3448 -558.657 -3448 -557H-3446C-3446 -557.552 -3445.55 -558 -3445 -558V-560Z" fill="white" fill-opacity="0.1"/>
</g>
<defs>
<filter id="filter0_d_655_16315" x="0" y="0" width="64" height="64" filterUnits="userSpaceOnUse" color-interpolation-filters="sRGB">
<feFlood flood-opacity="0" result="BackgroundImageFix"/>
<feColorMatrix in="SourceAlpha" type="matrix" values="0 0 0 0 0 0 0 0 0 0 0 0 0 0 0 0 0 0 127 0" result="hardAlpha"/>
<feOffset dy="4"/>
<feGaussianBlur stdDeviation="8"/>
<feColorMatrix type="matrix" values="0 0 0 0 0.08 0 0 0 0 0.08 0 0 0 0 0.08 0 0 0 0.08 0"/>
<feBlend mode="normal" in2="BackgroundImageFix" result="effect1_dropShadow_655_16315"/>
<feBlend mode="normal" in="SourceGraphic" in2="effect1_dropShadow_655_16315" result="shape"/>
</filter>
</defs>
</svg>
