<svg width="40" height="40" viewBox="0 0 40 40" fill="none" xmlns="http://www.w3.org/2000/svg">
<rect x="0.5" y="0.5" width="39" height="39" rx="19.5" fill="#C9FFE0"/>
<path d="M28.9933 20.9602C28.8333 20.5602 28.4333 20.2668 28.0066 20.2668H24.54V10.4002C24.54 9.8135 23.9266 9.3335 23.34 9.3335H16.6733C16.0866 9.3335 15.4733 9.8135 15.4733 10.4002V20.2668H12.0066C11.58 20.2668 11.18 20.5868 11.02 20.9602C10.86 21.3602 10.94 21.8402 11.2333 22.1335L19.2333 30.3202C19.4466 30.5335 19.7133 30.6402 20.0066 30.6402C20.3 30.6402 20.5666 30.5335 20.78 30.3202L28.78 22.1335C29.0733 21.8402 29.1533 21.3602 28.9933 20.9602Z" fill="#27AE60"/>
<rect x="0.5" y="0.5" width="39" height="39" rx="19.5" stroke="#27AE60"/>
</svg>
