<svg width="32" height="32" viewBox="0 0 32 32" fill="none" xmlns="http://www.w3.org/2000/svg">
<path d="M24.9933 16.9602C24.8333 16.5602 24.4333 16.2668 24.0066 16.2668H20.54V6.40016C20.54 5.8135 19.9266 5.3335 19.34 5.3335H12.6733C12.0866 5.3335 11.4733 5.8135 11.4733 6.40016V16.2668H8.00665C7.57998 16.2668 7.17998 16.5868 7.01998 16.9602C6.85998 17.3602 6.93998 17.8402 7.23331 18.1335L15.2333 26.3202C15.4466 26.5335 15.7133 26.6402 16.0066 26.6402C16.3 26.6402 16.5666 26.5335 16.78 26.3202L24.78 18.1335C25.0733 17.8402 25.1533 17.3602 24.9933 16.9602Z" fill="#27AE60"/>
</svg>
