<svg width="14" height="16" viewBox="0 0 14 16" fill="none" xmlns="http://www.w3.org/2000/svg">
<path d="M13.9119 8.72C13.7919 8.42 13.4919 8.2 13.1719 8.2H10.5719V0.8C10.5719 0.36 10.1119 0 9.67186 0H4.67186C4.23186 0 3.77186 0.36 3.77186 0.8V8.2H1.17186C0.851856 8.2 0.551856 8.44 0.431856 8.72C0.311856 9.02 0.371857 9.38 0.591857 9.6L6.59186 15.74C6.75186 15.9 6.95186 15.98 7.17186 15.98C7.39186 15.98 7.59186 15.9 7.75185 15.74L13.7519 9.6C13.9719 9.38 14.0319 9.02 13.9119 8.72ZM7.17186 13.98L3.07186 9.8H4.67186C5.11186 9.8 5.37186 9.52 5.37186 9.08V1.6H8.97186V9.08C8.97186 9.52 9.23186 9.8 9.67186 9.8H11.2719L7.17186 13.98Z" fill="#196719"/>
</svg>
