<svg width="105" height="72" viewBox="0 0 105 72" fill="none" xmlns="http://www.w3.org/2000/svg">
<rect x="1" y="0.5" width="103" height="71" rx="23.5" fill="#FF8B8B"/>
<rect x="8.5" y="8" width="88" height="56" rx="16" fill="#EB5757"/>
<path d="M67.6168 24.7167C64.9334 24.45 62.2501 24.25 59.5501 24.1V24.0833L59.1834 21.9167C58.9334 20.3833 58.5668 18.0833 54.6668 18.0833H50.3001C46.4168 18.0833 46.0501 20.2833 45.7834 21.9L45.4334 24.0333C43.8834 24.1333 42.3334 24.2333 40.7834 24.3833L37.3834 24.7167C36.6834 24.7833 36.1834 25.4 36.2501 26.0833C36.3168 26.7667 36.9168 27.2667 37.6168 27.2L41.0168 26.8667C49.7501 26 58.5501 26.3333 67.3834 27.2167C67.4334 27.2167 67.4668 27.2167 67.5168 27.2167C68.1501 27.2167 68.7001 26.7333 68.7668 26.0833C68.8168 25.4 68.3168 24.7833 67.6168 24.7167Z" fill="white"/>
<path d="M64.5499 29.5667C64.1499 29.15 63.5999 28.9167 63.0332 28.9167H41.9666C41.3999 28.9167 40.8332 29.15 40.4499 29.5667C40.0666 29.9833 39.8499 30.55 39.8832 31.1333L40.9166 48.2333C41.0999 50.7667 41.3332 53.9333 47.1499 53.9333H57.8499C63.6666 53.9333 63.8999 50.7833 64.0832 48.2333L65.1166 31.15C65.1499 30.55 64.9332 29.9833 64.5499 29.5667ZM55.2666 45.5833H49.7166C49.0332 45.5833 48.4666 45.0167 48.4666 44.3333C48.4666 43.65 49.0332 43.0833 49.7166 43.0833H55.2666C55.9499 43.0833 56.5166 43.65 56.5166 44.3333C56.5166 45.0167 55.9499 45.5833 55.2666 45.5833ZM56.6666 38.9167H48.3332C47.6499 38.9167 47.0832 38.35 47.0832 37.6667C47.0832 36.9833 47.6499 36.4167 48.3332 36.4167H56.6666C57.3499 36.4167 57.9166 36.9833 57.9166 37.6667C57.9166 38.35 57.3499 38.9167 56.6666 38.9167Z" fill="white"/>
<rect x="1" y="0.5" width="103" height="71" rx="23.5" stroke="#EB5757"/>
</svg>
