<svg width="22" height="22" viewBox="0 0 22 22" fill="none" xmlns="http://www.w3.org/2000/svg">
<path d="M10.9907 0C4.92439 0 -0.000167847 4.92455 -0.000167847 10.9908C-0.000167847 17.0571 4.92439 21.9817 10.9907 21.9817C17.0569 21.9817 21.9815 17.0571 21.9815 10.9908C21.9677 4.92455 17.0569 0 10.9907 0ZM9.69763 9.45019L13.0128 10.6057C14.2095 11.0321 14.7872 11.8712 14.7872 13.1642C14.7872 14.6499 13.6043 15.8741 12.1599 15.8741H12.0361V15.9429C12.0361 16.5069 11.5684 16.9746 11.0044 16.9746C10.4404 16.9746 9.97274 16.5069 9.97274 15.9429V15.8604C8.44586 15.7916 7.22159 14.5123 7.22159 12.9166C7.22159 12.3527 7.68929 11.885 8.25327 11.885C8.81726 11.885 9.28496 12.3527 9.28496 12.9166C9.28496 13.4118 9.6426 13.8108 10.0828 13.8108H12.1461C12.4625 13.8108 12.7101 13.5219 12.7101 13.1642C12.7101 12.6828 12.6276 12.6553 12.3112 12.5452L8.99608 11.3898C7.81309 10.9771 7.22159 10.138 7.22159 8.83118C7.22159 7.34556 8.40459 6.1213 9.84894 6.1213H9.97274V6.06628C9.97274 5.5023 10.4404 5.0346 11.0044 5.0346C11.5684 5.0346 12.0361 5.5023 12.0361 6.06628V6.14881C13.563 6.21759 14.7872 7.49688 14.7872 9.09254C14.7872 9.65653 14.3196 10.1242 13.7556 10.1242C13.1916 10.1242 12.7239 9.65653 12.7239 9.09254C12.7239 8.59734 12.3662 8.19842 11.9261 8.19842H9.8627C9.54631 8.19842 9.29871 8.48729 9.29871 8.84494C9.28496 9.31263 9.36749 9.34015 9.69763 9.45019Z" fill="#196719"/>
</svg>
