<svg width="24" height="24" viewBox="0 0 24 24" fill="none" xmlns="http://www.w3.org/2000/svg">
<rect width="24" height="24" rx="12" fill="#474747"/>
<path d="M11.2251 9.73499C11.1301 9.73499 11.0351 9.7 10.9601 9.625L9.3651 8.03L7.7701 9.625C7.6251 9.77 7.3851 9.77 7.2401 9.625C7.0951 9.48 7.0951 9.24 7.2401 9.095L9.10011 7.23499C9.17011 7.16499 9.2651 7.125 9.3651 7.125C9.4651 7.125 9.56011 7.16499 9.63011 7.23499L11.4901 9.095C11.6351 9.24 11.6351 9.48 11.4901 9.625C11.4151 9.7 11.3201 9.73499 11.2251 9.73499Z" fill="white"/>
<path d="M9.36499 16.875C9.15999 16.875 8.98999 16.705 8.98999 16.5V7.5C8.98999 7.295 9.15999 7.125 9.36499 7.125C9.56999 7.125 9.73999 7.295 9.73999 7.5V16.5C9.73999 16.705 9.56999 16.875 9.36499 16.875Z" fill="white"/>
<path d="M14.64 16.875C14.54 16.875 14.445 16.835 14.375 16.765L12.515 14.905C12.37 14.76 12.37 14.52 12.515 14.375C12.66 14.23 12.9 14.23 13.045 14.375L14.64 15.97L16.235 14.375C16.38 14.23 16.62 14.23 16.765 14.375C16.91 14.52 16.91 14.76 16.765 14.905L14.905 16.765C14.835 16.835 14.735 16.875 14.64 16.875Z" fill="white"/>
<path d="M14.635 16.875C14.43 16.875 14.26 16.705 14.26 16.5V7.5C14.26 7.295 14.43 7.125 14.635 7.125C14.84 7.125 15.01 7.295 15.01 7.5V16.5C15.01 16.705 14.845 16.875 14.635 16.875Z" fill="white"/>
</svg>
