<svg width="16" height="16" viewBox="0 0 16 16" fill="none" xmlns="http://www.w3.org/2000/svg">
<path d="M14 14.6665H2C1.72667 14.6665 1.5 14.4398 1.5 14.1665C1.5 13.8932 1.72667 13.6665 2 13.6665H14C14.2733 13.6665 14.5 13.8932 14.5 14.1665C14.5 14.4398 14.2733 14.6665 14 14.6665Z" fill="#474747"/>
<path d="M12.6804 2.31994C11.387 1.02661 10.1204 0.993275 8.79371 2.31994L7.98704 3.12661C7.92037 3.19328 7.89371 3.29994 7.92038 3.39328C8.42704 5.15994 9.84038 6.57328 11.607 7.07994C11.6337 7.08661 11.6604 7.09328 11.687 7.09328C11.7604 7.09328 11.827 7.06661 11.8804 7.01328L12.6804 6.20661C13.3404 5.55328 13.6604 4.91994 13.6604 4.27994C13.667 3.61994 13.347 2.97994 12.6804 2.31994Z" fill="#474747"/>
<path d="M10.4075 7.68654C10.2142 7.5932 10.0275 7.49987 9.84753 7.3932C9.70086 7.30654 9.56086 7.2132 9.42086 7.1132C9.30753 7.03987 9.1742 6.9332 9.04753 6.82654C9.0342 6.81987 8.98753 6.77987 8.9342 6.72654C8.7142 6.53987 8.46753 6.29987 8.24753 6.0332C8.22753 6.01987 8.1942 5.9732 8.14753 5.9132C8.08086 5.8332 7.96753 5.69987 7.86753 5.54654C7.78753 5.44654 7.6942 5.29987 7.60753 5.1532C7.50086 4.9732 7.40753 4.7932 7.3142 4.60654C7.19182 4.34431 6.84765 4.26641 6.64304 4.47103L2.8942 8.21987C2.80753 8.30654 2.72753 8.4732 2.70753 8.58654L2.34753 11.1399C2.28086 11.5932 2.40753 12.0199 2.68753 12.3065C2.92753 12.5399 3.26086 12.6665 3.62086 12.6665C3.70086 12.6665 3.78086 12.6599 3.86086 12.6465L6.42086 12.2865C6.54086 12.2665 6.70753 12.1865 6.78753 12.0999L10.5426 8.34484C10.7431 8.14432 10.6677 7.79929 10.4075 7.68654Z" fill="#474747"/>
</svg>
