<svg width="17" height="16" viewBox="0 0 17 16" fill="none" xmlns="http://www.w3.org/2000/svg">
<path fill-rule="evenodd" clip-rule="evenodd" d="M9.83366 4.00008C9.83366 4.73646 9.23671 5.33341 8.50033 5.33341C7.76395 5.33341 7.16699 4.73646 7.16699 4.00008C7.16699 3.2637 7.76395 2.66675 8.50033 2.66675C9.23671 2.66675 9.83366 3.2637 9.83366 4.00008ZM8.50033 9.33341C9.23671 9.33341 9.83366 8.73646 9.83366 8.00008C9.83366 7.2637 9.23671 6.66675 8.50033 6.66675C7.76395 6.66675 7.16699 7.2637 7.16699 8.00008C7.16699 8.73646 7.76395 9.33341 8.50033 9.33341ZM8.50033 13.3334C9.23671 13.3334 9.83366 12.7365 9.83366 12.0001C9.83366 11.2637 9.23671 10.6667 8.50033 10.6667C7.76395 10.6667 7.16699 11.2637 7.16699 12.0001C7.16699 12.7365 7.76395 13.3334 8.50033 13.3334Z" fill="#141414"/>
</svg>
