<svg width="149" height="160" viewBox="0 0 149 160" fill="none" xmlns="http://www.w3.org/2000/svg">
<g clip-path="url(#clip0_65_524)">
<path d="M148.341 74.7842C148.344 74.8648 148.316 74.9436 148.263 75.0045C148.207 75.0698 148.128 75.1102 148.042 75.1169C147.956 75.1236 147.871 75.096 147.806 75.0401L146.721 74.1038L128.267 58.2066L76.5097 13.6119C76.2145 13.3591 75.8384 13.2205 75.4498 13.2211C75.0611 13.2217 74.6855 13.3614 74.391 13.6151L4.69165 74.1686L4.06317 74.7129C4.039 74.7343 4.01168 74.7517 3.98217 74.7648C3.93029 74.7877 3.87329 74.7967 3.81687 74.7907C3.73595 74.782 3.66103 74.744 3.60632 74.6838C3.57817 74.6519 3.5566 74.6148 3.54282 74.5745C3.52905 74.5343 3.52334 74.4918 3.52604 74.4493C3.52875 74.4069 3.5398 74.3654 3.55857 74.3272C3.57734 74.2891 3.60346 74.255 3.63542 74.227L3.72289 74.1492L73.9665 13.1259C74.3793 12.7714 74.905 12.5759 75.4491 12.5747C75.9932 12.5735 76.5198 12.7667 76.934 13.1194L128.708 57.7271L148.227 74.5477C148.261 74.5772 148.289 74.6135 148.309 74.6541C148.328 74.6948 148.339 74.7391 148.341 74.7842V74.7842Z" fill="#196719"/>
<path d="M108.988 84.3511L108.136 82.0055L105.2 73.9062L98.8765 56.4668L91.8075 36.9734L79.0592 1.81279C78.8088 1.12713 78.297 0.568611 77.6357 0.259539C76.9745 -0.0495336 76.2177 -0.0839664 75.5311 0.16378L1.82434 26.8882C1.13848 27.1383 0.579746 27.6501 0.27064 28.3114C-0.0384655 28.9728 -0.0727282 29.7297 0.175361 30.4163L18.2497 80.2625L18.5574 81.1146L37.5292 89.7128L42.8618 92.1296L43.7268 92.5216L66.3045 102.756L67.1791 102.438L81.9879 97.0702L104.326 88.9709L107.335 87.8791C108.022 87.6293 108.581 87.1177 108.891 86.4564C109.2 85.7952 109.235 85.0381 108.988 84.3511V84.3511Z" fill="#70E000"/>
<path d="M78.0809 42.8309C77.7132 41.8218 76.9604 40.9996 75.9875 40.5447C75.0146 40.0899 73.901 40.0394 72.8909 40.4043L43.7269 50.982L29.644 56.0878C29.1436 56.2686 28.6837 56.5463 28.2907 56.905C27.8977 57.2637 27.5793 57.6963 27.3536 58.1782C27.1279 58.66 26.9993 59.1816 26.9753 59.7131C26.9513 60.2447 27.0323 60.7757 27.2136 61.2759C27.395 61.7761 27.6732 62.2357 28.0322 62.6284C28.3913 63.021 28.8243 63.339 29.3063 63.5643C29.7884 63.7895 30.3101 63.9175 30.8416 63.941C31.3732 63.9645 31.9042 63.883 32.4042 63.7011L43.7269 59.5964L75.6544 48.0209C76.6635 47.6532 77.4856 46.9004 77.9405 45.9274C78.3954 44.9545 78.4458 43.8409 78.0809 42.8309V42.8309Z" fill="white"/>
<path d="M83.2157 56.9949C82.8481 55.9858 82.0952 55.1637 81.1223 54.7088C80.1494 54.2539 79.0358 54.2034 78.0257 54.5684L73.0852 56.3599L43.7268 67.0056L34.7788 70.2486C33.7698 70.6153 32.9476 71.3677 32.4929 72.3403C32.0383 73.313 31.9884 74.4263 32.3542 75.4357C32.72 76.4451 33.4716 77.268 34.4438 77.7235C35.416 78.1791 36.5293 78.23 37.5391 77.8652L43.7268 75.62L80.7893 62.1817C80.8734 62.1525 80.9544 62.1169 81.0354 62.0813C81.9764 61.6684 82.7253 60.9132 83.1301 59.9687C83.535 59.0242 83.5656 57.9611 83.2157 56.9949V56.9949Z" fill="white"/>
<path d="M88.4056 71.308C88.0387 70.2991 87.2865 69.4769 86.3141 69.022C85.3417 68.5671 84.2285 68.5165 83.2189 68.8814L69.3626 73.9062L58.6358 77.7971L43.7266 83.201L39.9687 84.5649C39.1001 84.8813 38.3656 85.4847 37.8867 86.2753C37.4077 87.0659 37.213 87.9963 37.3347 88.9126C37.3718 89.1853 37.4369 89.4534 37.5291 89.7128L42.8617 92.1296L43.7266 91.8154H43.7331L70.7881 82.0055L85.979 76.498C86.9887 76.1311 87.8114 75.3783 88.2664 74.4052C88.7214 73.432 88.7715 72.318 88.4056 71.308H88.4056Z" fill="white"/>
<path d="M58.04 28.9065C57.6723 27.8974 56.9195 27.0753 55.9466 26.6205C54.9737 26.1656 53.8601 26.1151 52.85 26.48L36.1006 32.5512C35.0915 32.918 34.2693 33.6703 33.8147 34.643C33.3601 35.6156 33.3102 36.729 33.676 37.7384C34.0418 38.7478 34.7934 39.5706 35.7656 40.0262C36.7378 40.4817 37.8511 40.5327 38.8608 40.1678L44.1611 38.2467L47.6696 36.9734L55.6136 34.0933C56.6224 33.7264 57.4446 32.9742 57.8995 32.0018C58.3544 31.0293 58.4049 29.9162 58.04 28.9065Z" fill="white"/>
<path d="M124.881 36.9734H46.4803C46.0179 36.9739 45.563 37.0908 45.1577 37.3133C44.7523 37.5358 44.4095 37.8568 44.1608 38.2467C43.8765 38.6881 43.7257 39.2022 43.7266 39.7272V92.5216L66.3043 102.756L69.4856 104.198L74.5104 106.475C74.8046 106.608 75.1238 106.677 75.4467 106.677C75.7696 106.677 76.0888 106.608 76.383 106.475L81.4077 104.198L97.1333 97.0702L111.79 90.4256L127.635 83.2463V39.7272C127.635 38.997 127.345 38.2969 126.828 37.7805C126.312 37.2642 125.612 36.9739 124.881 36.9734Z" fill="#196719"/>
<path d="M2.9165 74.9985L2.4165 75.9985V77.942V77.9985V156.999C2.4165 158.999 4.08317 159.499 4.9165 159.499H145.917C147.917 159.499 148.417 157.832 148.417 156.999V76.4985L147.917 75.4985L146.917 74.4985L145.917 74.9985L75.4165 106.499L4.9165 74.9985L3.9165 74.4985L2.9165 74.9985Z" fill="#104210"/>
<path d="M95.5622 97.0702L79.8366 104.198L76.1143 105.885C75.9044 105.98 75.677 106.029 75.4469 106.029C75.2167 106.029 74.9893 105.98 74.7794 105.885L71.0571 104.198H69.4858L74.5105 106.475C74.8048 106.608 75.124 106.677 75.4469 106.677C75.7697 106.677 76.0889 106.608 76.3832 106.475L81.4079 104.198L97.1335 97.0702H95.5622ZM95.5622 97.0702L79.8366 104.198L76.1143 105.885C75.9044 105.98 75.677 106.029 75.4469 106.029C75.2167 106.029 74.9893 105.98 74.7794 105.885L71.0571 104.198H69.4858L74.5105 106.475C74.8048 106.608 75.124 106.677 75.4469 106.677C75.7697 106.677 76.0889 106.608 76.3832 106.475L81.4079 104.198L97.1335 97.0702H95.5622ZM95.5622 97.0702L79.8366 104.198L76.1143 105.885C75.9044 105.98 75.677 106.029 75.4469 106.029C75.2167 106.029 74.9893 105.98 74.7794 105.885L71.0571 104.198H69.4858L74.5105 106.475C74.8048 106.608 75.124 106.677 75.4469 106.677C75.7697 106.677 76.0889 106.608 76.3832 106.475L81.4079 104.198L97.1335 97.0702H95.5622ZM148.34 74.7842C148.221 74.6653 148.09 74.5589 147.948 74.4667C147.63 74.2604 147.265 74.1376 146.887 74.1099C146.508 74.0821 146.129 74.1503 145.784 74.308L111.304 89.9363L95.5622 97.0702L79.8366 104.198L76.1142 105.885C75.9044 105.98 75.6769 106.029 75.4468 106.029C75.2167 106.029 74.9892 105.98 74.7794 105.885L71.0571 104.198L67.1791 102.438L43.7332 91.8154L43.7267 91.8122L37.3348 88.9126L18.2497 80.2626L5.10939 74.308C4.9757 74.2461 4.83552 74.1994 4.69146 74.1687C4.37412 74.0894 4.04298 74.0827 3.72271 74.1492C3.21036 74.2541 2.74984 74.5324 2.41878 74.9373C2.08771 75.3421 1.90635 75.8487 1.90527 76.3717V157.731C1.90594 158.332 2.14508 158.908 2.57023 159.334C2.99538 159.759 3.57182 159.998 4.17308 159.998H146.721C147.322 159.998 147.898 159.759 148.323 159.334C148.749 158.908 148.988 158.332 148.988 157.731V76.3717C148.99 75.7779 148.757 75.2076 148.34 74.7842V74.7842ZM148.34 157.731C148.34 158.16 148.17 158.572 147.866 158.876C147.562 159.18 147.15 159.35 146.721 159.351H4.17307C3.74351 159.35 3.33159 159.18 3.02784 158.876C2.7241 158.572 2.55338 158.16 2.55321 157.731V76.3717C2.55334 76.1009 2.6213 75.8345 2.7509 75.5969C2.8805 75.3592 3.0676 75.1577 3.2951 75.011C3.45519 74.9085 3.63155 74.834 3.81665 74.7907C3.87121 74.7789 3.9264 74.7702 3.98195 74.7648C4.04523 74.7556 4.10912 74.7513 4.17306 74.7518C4.40338 74.7521 4.63096 74.8018 4.84044 74.8976L18.5573 81.1146L37.5292 89.7128L42.8617 92.1296L43.7267 92.5216L66.3044 102.756L69.4858 104.198L74.5105 106.475C74.8048 106.608 75.1239 106.677 75.4468 106.677C75.7697 106.677 76.0889 106.608 76.3832 106.475L81.4079 104.198L97.1335 97.0702L111.79 90.4255L146.053 74.8976C146.3 74.7859 146.57 74.7377 146.84 74.7575C147.11 74.7773 147.371 74.8645 147.599 75.011C147.625 75.0263 147.65 75.0437 147.673 75.0628C147.699 75.0795 147.723 75.099 147.744 75.1211C147.931 75.2719 148.081 75.4625 148.184 75.6788C148.287 75.8952 148.341 76.1319 148.34 76.3717L148.34 157.731ZM95.5622 97.0702L79.8366 104.198L76.1143 105.885C75.9044 105.98 75.677 106.029 75.4469 106.029C75.2167 106.029 74.9893 105.98 74.7794 105.885L71.0571 104.198H69.4858L74.5105 106.475C74.8048 106.608 75.124 106.677 75.4469 106.677C75.7697 106.677 76.0889 106.608 76.3832 106.475L81.4079 104.198L97.1335 97.0702H95.5622ZM95.5622 97.0702L79.8366 104.198L76.1143 105.885C75.9044 105.98 75.677 106.029 75.4469 106.029C75.2167 106.029 74.9893 105.98 74.7794 105.885L71.0571 104.198H69.4858L74.5105 106.475C74.8048 106.608 75.124 106.677 75.4469 106.677C75.7697 106.677 76.0889 106.608 76.3832 106.475L81.4079 104.198L97.1335 97.0702H95.5622ZM42.8617 92.1296L43.7267 92.5216V91.8154L42.8617 92.1296ZM95.5622 97.0702L79.8366 104.198L76.1143 105.885C75.9044 105.98 75.677 106.029 75.4469 106.029C75.2167 106.029 74.9893 105.98 74.7794 105.885L71.0571 104.198H69.4858L74.5105 106.475C74.8048 106.608 75.124 106.677 75.4469 106.677C75.7697 106.677 76.0889 106.608 76.3832 106.475L81.4079 104.198L97.1335 97.0702H95.5622Z" fill="#196719"/>
<path d="M66.5 76.5L78.4387 86.2278C79.2992 86.929 80.5661 86.7952 81.2613 85.9298L104.5 57" stroke="#F3FFF3" stroke-width="8" stroke-linecap="round"/>
</g>
<defs>
<clipPath id="clip0_65_524">
<rect width="148.977" height="159.998" fill="white" transform="translate(0.0112305)"/>
</clipPath>
</defs>
</svg>
