<svg width="193" height="173" viewBox="0 0 193 173" fill="none" xmlns="http://www.w3.org/2000/svg">
<path d="M13.4765 44.798C12.5134 35.1343 20.3116 26.848 30.016 27.2233L176.359 32.883C185.308 33.2291 192.23 40.8528 191.714 49.7937L185.525 156.936C185.036 165.4 178.03 172.013 169.552 172.013H40.6391C32.417 172.013 25.5333 165.781 24.7179 157.6L13.4765 44.798Z" fill="#104210"/>
<rect x="57" width="88" height="88" rx="44" fill="#F5F5F5"/>
<path d="M101 11.5C83.0797 11.5 68.5 26.0797 68.5 44C68.5 61.9203 83.0797 76.5 101 76.5C118.92 76.5 133.5 61.9203 133.5 44C133.5 26.0797 118.92 11.5 101 11.5ZM123.344 59H116.278C116.059 58.9995 115.844 58.9415 115.655 58.8318C115.465 58.7221 115.308 58.5646 115.198 58.375L112.677 54.05C112.511 53.7672 112.462 53.4305 112.542 53.1125L114.864 43.75C114.911 43.5614 115.001 43.3862 115.127 43.2383C115.253 43.0905 115.412 42.9741 115.591 42.8984L119.981 41.0391C120.196 40.9481 120.432 40.9189 120.662 40.9548C120.892 40.9907 121.108 41.0902 121.284 41.2422L127.789 46.8391C127.949 46.9771 128.072 47.1536 128.146 47.352C128.219 47.5504 128.241 47.7642 128.209 47.9734C127.671 51.6693 126.379 55.2153 124.416 58.3922C124.305 58.5775 124.148 58.7308 123.96 58.8373C123.772 58.9439 123.56 58.9999 123.344 59ZM82.0188 41.0516L86.4094 42.9109C86.5883 42.9866 86.7472 43.103 86.8733 43.2508C86.9994 43.3987 87.0894 43.5739 87.1359 43.7625L89.4578 53.125C89.5377 53.443 89.4895 53.7797 89.3234 54.0625L86.8016 58.375C86.6921 58.5646 86.5347 58.7221 86.3453 58.8318C86.1558 58.9415 85.9408 58.9995 85.7219 59H78.6562C78.4426 59.0001 78.2324 58.9455 78.0458 58.8413C77.8593 58.737 77.7025 58.5867 77.5906 58.4047C75.6268 55.2278 74.3356 51.6818 73.7969 47.9859C73.7652 47.7767 73.7871 47.5629 73.8607 47.3645C73.9342 47.1661 74.0568 46.9896 74.2172 46.8516L80.7219 41.2547C80.8979 41.1039 81.1125 41.0051 81.3415 40.9692C81.5705 40.9333 81.805 40.9618 82.0188 41.0516ZM122.166 27.4203L119.342 35.4484C119.285 35.6125 119.195 35.763 119.077 35.8902C118.959 36.0174 118.816 36.1187 118.656 36.1875L114.034 38.1453C113.822 38.235 113.59 38.2644 113.362 38.2302C113.134 38.1961 112.92 38.0996 112.744 37.9516L103.953 30.5781C103.813 30.4619 103.699 30.3164 103.621 30.1517C103.543 29.9871 103.501 29.8073 103.5 29.625V24.3781C103.5 24.1725 103.551 23.9702 103.648 23.7889C103.745 23.6077 103.885 23.4532 104.056 23.3391L110.748 18.8797C110.923 18.7631 111.124 18.6924 111.333 18.6741C111.543 18.6558 111.753 18.6905 111.945 18.775C115.796 20.4545 119.213 22.9895 121.938 26.1875C122.081 26.3547 122.177 26.5568 122.217 26.7732C122.257 26.9897 122.24 27.2129 122.166 27.4203ZM91.25 18.8797L97.9438 23.3391C98.1148 23.4532 98.255 23.6077 98.352 23.7889C98.4491 23.9702 98.4999 24.1725 98.5 24.3781V29.625C98.5 29.8076 98.46 29.988 98.3828 30.1535C98.3056 30.3189 98.1931 30.4655 98.0531 30.5828L89.2625 37.9563C89.0861 38.1043 88.8722 38.2007 88.6445 38.2349C88.4167 38.2691 88.184 38.2397 87.9719 38.15L83.3438 36.1875C83.1834 36.1196 83.0389 36.0189 82.9197 35.8919C82.8005 35.7649 82.7092 35.6144 82.6516 35.45L79.8281 27.4219C79.7548 27.2137 79.7378 26.9899 79.779 26.7731C79.8201 26.5563 79.9179 26.3542 80.0625 26.1875C82.7883 22.9863 86.2084 20.449 90.0625 18.7687C90.254 18.6868 90.4629 18.6541 90.6703 18.6735C90.8777 18.6928 91.077 18.7637 91.25 18.8797ZM93.9547 70.0453L90.8719 62.2812C90.8014 62.1048 90.7721 61.9145 90.7861 61.725C90.8002 61.5355 90.8573 61.3516 90.9531 61.1875L93.3234 57.125C93.4329 56.9354 93.5903 56.7779 93.7797 56.6682C93.9692 56.5585 94.1842 56.5005 94.4031 56.5H107.597C107.816 56.5005 108.031 56.5585 108.22 56.6682C108.41 56.7779 108.567 56.9354 108.677 57.125L111.048 61.1875C111.144 61.3515 111.202 61.5353 111.216 61.7248C111.231 61.9143 111.202 62.1046 111.131 62.2812L108.07 70.0422C107.995 70.2319 107.875 70.4005 107.72 70.5331C107.565 70.6658 107.38 70.7585 107.181 70.8031C103.119 71.7353 98.8993 71.7353 94.8375 70.8031C94.6399 70.7579 94.4563 70.6652 94.3026 70.5332C94.1488 70.4012 94.0294 70.2337 93.9547 70.0453Z" fill="#196719"/>
<path fill-rule="evenodd" clip-rule="evenodd" d="M36.6973 40.1599L16.8293 39.5612C7.1891 39.2706 -0.515027 47.5116 0.423203 57.1104L10.2426 157.57C11.0435 165.765 17.933 172.013 26.1667 172.013H169.949C179.056 172.013 186.327 164.423 185.934 155.324L182.139 67.3487C179.376 69.6349 175.829 71.0134 171.948 71.0134H54.2281C45.9954 71.0134 39.1065 64.766 38.3042 56.5725L36.6973 40.1599Z" fill="#5ECD5E"/>
<circle cx="72.6543" cy="104.014" r="5" fill="#104210"/>
<circle cx="132.654" cy="104.014" r="5" fill="#104210"/>
<path d="M83.1543 135.013C88.9876 128.68 104.454 119.813 119.654 135.013" stroke="#104210" stroke-width="3" stroke-linecap="round"/>
</svg>
