<svg width="28" height="21" viewBox="0 0 28 21" fill="none" xmlns="http://www.w3.org/2000/svg">
<rect x="0.25" y="0.75" width="27.5" height="19.5" rx="1.75" fill="#EF264D" stroke="#EF264D" stroke-width="0.5"/>
<mask id="mask0_55_658" style="mask-type:luminance" maskUnits="userSpaceOnUse" x="0" y="0" width="28" height="21">
<rect x="0.25" y="0.75" width="27.5" height="19.5" rx="1.75" fill="white" stroke="white" stroke-width="0.5"/>
</mask>
<g mask="url(#mask0_55_658)">
<path fill-rule="evenodd" clip-rule="evenodd" d="M2 0.5C0.895431 0.5 0 1.39543 0 2.5V8.5H12V0.5H2ZM16 0.5V8.5H28V2.5C28 1.39543 27.1046 0.5 26 0.5H16ZM28 12.5H16V20.5H26C27.1046 20.5 28 19.6046 28 18.5V12.5ZM12 20.5V12.5H0V18.5C0 19.6046 0.895431 20.5 2 20.5H12Z" fill="white"/>
</g>
</svg>
