<svg width="22" height="22" viewBox="0 0 22 22" fill="none" xmlns="http://www.w3.org/2000/svg">
<rect width="22" height="22" rx="11" fill="white"/>
<path d="M15.8463 14.0305C15.1082 14.806 14.0884 15.2857 12.962 15.2857C11.4313 15.2857 10.0975 14.3997 9.39974 13.0892H11.3421L11.91 11.4821H8.90861C8.89175 11.3239 8.88309 11.163 8.88309 11C8.88309 10.837 8.89175 10.6761 8.90862 10.5178H12.4059L12.9738 8.91071H9.39977C10.0975 7.60023 11.4313 6.71429 12.962 6.71429C14.0884 6.71429 15.1082 7.19398 15.8463 7.96954L17 6.75736C15.9666 5.67157 14.539 5 12.962 5C10.5075 5 8.41467 6.62709 7.60725 8.91071H5.63168L5.06375 10.5178H7.26968C7.25764 10.6769 7.25151 10.8377 7.25151 11C7.25151 11.1623 7.25764 11.3231 7.26968 11.4821H4.56792L4 13.0892H7.60723C8.41463 15.3729 10.5075 17 12.962 17C14.539 17 15.9666 16.3284 17 15.2426L15.8463 14.0305Z" fill="#196719"/>
</svg>
