<svg width="18" height="21" viewBox="0 0 18 21" fill="none" xmlns="http://www.w3.org/2000/svg">
<path d="M8.54625 0.5L4.67407 2.13534L7.91342 13.2005L6.10264 18.0752H7.32445L8.54625 12.317V0.5Z" fill="black"/>
<path d="M9.18519 0.5L13.0574 2.13534L9.81802 13.2005L11.6288 18.0752H10.407L9.18519 12.317V0.5Z" fill="black"/>
<path d="M7.91333 18.0749L8.84065 13.2002L9.88701 18.0749H7.91333Z" fill="black"/>
<path d="M5.28174 20.4998L5.87071 18.8457H11.8482L12.4497 20.4998H5.28174Z" fill="black"/>
<path d="M4.55694 19.5451C3.11584 18.7306 2.18944 17.9233 1.38025 16.5878C0.571055 15.2522 0.0350482 13.6619 0.00179893 11.9282C-0.0314503 10.1945 0.397792 8.74385 1.15468 7.35216C1.96922 6.09903 2.99679 4.92735 4.14681 4.30957L4.60707 5.93612C3.83013 6.33086 2.90592 7.45102 2.36075 8.45344C1.81557 9.45585 1.53226 10.6795 1.55621 11.9282C1.58016 13.177 1.90998 14.3786 2.49283 15.3406C3.16878 16.4562 4.17473 17.584 5.10205 17.9975L4.55694 19.5451Z" fill="#FF6900"/>
<path d="M13.1767 19.5451C14.6178 18.7306 15.5442 17.9233 16.3534 16.5878C17.1626 15.2522 17.6986 13.6619 17.7318 11.9282C17.7651 10.1945 17.3359 8.74385 16.579 7.35216C15.7644 6.09903 14.7369 4.92735 13.5868 4.30957L13.1266 5.93612C13.9035 6.33086 14.8277 7.45102 15.3729 8.45344C15.9181 9.45585 16.2014 10.6795 16.1774 11.9282C16.1535 13.177 15.8237 14.3786 15.2408 15.3406C14.5649 16.4562 13.5589 17.584 12.6316 17.9975L13.1767 19.5451Z" fill="#FF6900"/>
</svg>
