<svg width="13" height="12" viewBox="0 0 13 12" fill="none" xmlns="http://www.w3.org/2000/svg">
<path d="M11.8463 9.03046C11.1082 9.80602 10.0884 10.2857 8.96204 10.2857C7.43128 10.2857 6.09746 9.39975 5.39974 8.08922H7.34212L7.91004 6.48214H4.90861C4.89175 6.32387 4.88309 6.163 4.88309 6C4.88309 5.83698 4.89175 5.67608 4.90862 5.5178H8.40587L8.97379 3.91071H5.39977C6.0975 2.60023 7.4313 1.71429 8.96204 1.71429C10.0884 1.71429 11.1082 2.19398 11.8463 2.96954L13 1.75736C11.9666 0.671573 10.539 0 8.96204 0C6.50751 0 4.41467 1.62709 3.60725 3.91071H1.63168L1.06375 5.5178H3.26968C3.25764 5.67686 3.25151 5.83768 3.25151 6C3.25151 6.1623 3.25764 6.32309 3.26968 6.48214H0.567923L0 8.08922H3.60723C4.41463 10.3729 6.50749 12 8.96204 12C10.539 12 11.9666 11.3284 13 10.2426L11.8463 9.03046Z" fill="#196719"/>
</svg>
