<svg width="16" height="16" viewBox="0 0 16 16" fill="none" xmlns="http://www.w3.org/2000/svg">
<path d="M10.7933 1.33333H5.20659C2.77992 1.33333 1.33325 2.78 1.33325 5.20667V10.7867C1.33325 13.22 2.77992 14.6667 5.20659 14.6667H10.7866C13.2133 14.6667 14.6599 13.22 14.6599 10.7933V5.20667C14.6666 2.78 13.2199 1.33333 10.7933 1.33333ZM11.4999 8.22C11.4999 8.49333 11.2733 8.72 10.9999 8.72C10.7266 8.72 10.4999 8.49333 10.4999 8.22V6.20667L5.35325 11.3533C5.25325 11.4533 5.12659 11.5 4.99992 11.5C4.87325 11.5 4.74659 11.4533 4.64659 11.3533C4.45325 11.16 4.45325 10.84 4.64659 10.6467L9.79325 5.5H7.77992C7.50659 5.5 7.27992 5.27333 7.27992 5C7.27992 4.72667 7.50659 4.5 7.77992 4.5H10.9999C11.2733 4.5 11.4999 4.72667 11.4999 5V8.22Z" fill="#196719"/>
</svg>
