<svg width="24" height="25" viewBox="0 0 24 25" fill="none" xmlns="http://www.w3.org/2000/svg">
<path d="M9.10592 14.1481L9.43071 14.7164L9.8936 14.2536L13.7536 10.3936L14.2165 9.93066L13.6481 9.60588C13.1528 9.32283 12.5873 9.17 12 9.17C10.1639 9.17 8.67004 10.6639 8.67004 12.5C8.67004 13.0873 8.82288 13.6527 9.10592 14.1481ZM9.47004 15.28C9.4055 15.28 9.34489 15.2577 9.2936 15.2064C8.56726 14.4801 8.17004 13.5172 8.17004 12.5C8.17004 10.3861 9.88619 8.67 12 8.67C13.0173 8.67 13.9802 9.06721 14.7065 9.79355C14.7538 9.84085 14.78 9.90411 14.78 9.97C14.78 10.0359 14.7538 10.0991 14.7065 10.1464L9.64649 15.2064C9.5952 15.2577 9.53459 15.28 9.47004 15.28Z" fill="#858585" stroke="#858585"/>
<path d="M5.43389 18.4491L5.43536 18.4504C5.47924 18.488 5.54187 18.51 5.59997 18.51C5.67127 18.51 5.73558 18.4788 5.774 18.4321L5.77779 18.4275L5.77782 18.4276C5.87052 18.3177 5.85683 18.1595 5.75242 18.0678C4.7622 17.2129 3.87174 16.1653 3.09903 14.9598C2.65861 14.2728 2.45747 13.3689 2.45747 12.5C2.45747 11.6313 2.6585 10.7277 3.09866 10.0407C5.32495 6.54704 8.55671 4.48 12 4.48C13.9886 4.48 15.9528 5.17165 17.6715 6.47117L17.6719 6.47145C17.7768 6.55092 17.9344 6.53299 18.0214 6.41807C18.1008 6.31332 18.083 6.15602 17.9685 6.06889C16.1475 4.69862 14.0818 3.98 12 3.98C8.45877 3.98 5.05212 6.05755 2.68138 9.76909L5.43389 18.4491ZM5.43389 18.4491C4.40565 17.5746 3.47816 16.4941 2.68286 15.2332L2.68288 15.2332M5.43389 18.4491L2.68288 15.2332M2.68288 15.2332L2.68064 15.2297M2.68288 15.2332L2.68064 15.2297M2.68064 15.2297C2.21359 14.5027 1.96497 13.5172 1.96497 12.5037M2.68064 15.2297L1.96497 12.5037M1.96497 12.5037C1.96497 11.4905 2.21353 10.5018 2.68134 9.76915L1.96497 12.5037Z" fill="#858585" stroke="#858585"/>
<path d="M8.31397 20.2592L8.31512 20.2597C9.50539 20.7643 10.7392 21.02 11.9999 21.02C15.5411 21.02 18.9478 18.9424 21.3185 15.2309L8.31397 20.2592ZM8.31397 20.2592C8.18769 20.206 8.12824 20.0587 8.18076 19.934C8.23386 19.8079 8.3808 19.7485 8.50542 19.8006C9.62493 20.2757 10.8009 20.52 11.9899 20.52C15.4332 20.52 18.665 18.453 20.8912 14.9593C21.3314 14.2723 21.5324 13.3687 21.5324 12.5C21.5324 11.6317 21.3316 10.7284 20.8918 10.0415C20.5712 9.53489 20.2197 9.04911 19.8476 8.59419C19.7668 8.49418 19.7733 8.33577 19.8888 8.23522C19.9973 8.15002 20.1501 8.16367 20.2425 8.2761C20.6214 8.74248 20.9891 9.24592 21.3168 9.76641L21.3168 9.76642M8.31397 20.2592L21.3168 9.76642M21.3168 9.76642L21.3193 9.77025M21.3168 9.76642L21.3193 9.77025M21.3193 9.77025C21.7863 10.4973 22.0349 11.4828 22.0349 12.4963M21.3193 9.77025L22.0349 12.4963M22.0349 12.4963C22.0349 13.5095 21.7864 14.4982 21.3186 15.2308L22.0349 12.4963Z" fill="#858585" stroke="#858585"/>
<path d="M12.4408 16.0646L12.4407 16.0642C12.4144 15.9296 12.501 15.8056 12.6341 15.7829L12.6341 15.7829L12.6394 15.7819C13.9429 15.5449 15.0224 14.4666 15.2611 13.1636C15.2881 13.0314 15.4124 12.9397 15.5599 12.9619C15.7027 12.9928 15.7846 13.1243 15.7592 13.2542L15.7583 13.2591C15.4802 14.7626 14.2908 15.9615 12.8031 16.2658C12.7748 16.2651 12.7507 16.266 12.7322 16.267L12.7069 16.2687L12.6922 16.2697C12.6902 16.2699 12.6888 16.2699 12.688 16.27C12.5714 16.269 12.4637 16.1824 12.4408 16.0646Z" fill="#858585" stroke="#858585"/>
<path d="M1.99994 22.75C1.93539 22.75 1.87478 22.7277 1.82349 22.6764C1.72876 22.5817 1.72876 22.4183 1.82349 22.3236L9.29349 14.8536C9.38823 14.7588 9.55165 14.7588 9.64639 14.8536C9.74113 14.9483 9.74113 15.1117 9.64639 15.2064L2.17639 22.6764C2.1251 22.7277 2.06449 22.75 1.99994 22.75Z" fill="#858585" stroke="#858585"/>
<path d="M14.53 10.22C14.4654 10.22 14.4048 10.1977 14.3535 10.1464C14.2588 10.0517 14.2588 9.88829 14.3535 9.79355L21.8235 2.32355C21.9183 2.22882 22.0817 2.22882 22.1764 2.32355C22.2712 2.41829 22.2712 2.58171 22.1764 2.67645L14.7064 10.1464C14.6551 10.1977 14.5945 10.22 14.53 10.22Z" fill="#858585" stroke="#858585"/>
</svg>
