<svg width="24" height="24" viewBox="0 0 24 24" fill="none" xmlns="http://www.w3.org/2000/svg">
<path d="M14.5 15.2305C14.5001 15.2303 14.5002 15.2301 14.5003 15.2299L16.2585 15.1999L16.2721 15.1997L16.2856 15.1987C16.6401 15.1734 16.9507 14.9195 17.0289 14.5548L17.0305 14.5475L17.0318 14.5401L17.3818 12.6301L17.3819 12.6301L17.3832 12.6222C17.4639 12.138 17.0895 11.69 16.59 11.69V11.69L16.583 11.6901L14.4586 11.72C14.4558 11.7198 14.4547 11.7194 14.4545 11.7193L14.4544 11.7193C14.4539 11.7191 14.4532 11.7186 14.4524 11.7178C14.4515 11.717 14.4508 11.716 14.4504 11.7151C14.4502 11.7146 14.4499 11.714 14.4498 11.713L14.4133 9.47669L16.6151 9.43999C17.0587 9.43732 17.41 9.08453 17.41 8.64001H17.4101L17.4099 8.63168L17.37 6.23492C17.3673 5.79117 17.0145 5.44 16.57 5.44V5.43995L16.5626 5.44006L13.8626 5.48006L13.861 5.48009C11.9267 5.51505 10.3851 7.10111 10.4201 9.03903L10.4201 9.03909L10.4701 11.7891L10.47 11.7891L10.47 11.7894C10.4685 11.7897 10.4667 11.79 10.4644 11.7902L9.27494 11.81C8.83118 11.8127 8.48001 12.1655 8.48001 12.61H8.47995L8.48007 12.6179L8.51002 14.5148C8.51255 14.9587 8.86546 15.31 9.31 15.31V15.3101L9.31833 15.3099L10.5116 15.2901C10.5143 15.2902 10.5153 15.2906 10.5155 15.2907L10.5156 15.2907C10.5161 15.291 10.5168 15.2914 10.5176 15.2922C10.5185 15.293 10.5192 15.294 10.5196 15.295C10.5198 15.2954 10.5201 15.296 10.5202 15.297L10.61 20.9879L10.6101 20.9889C10.6151 21.2706 10.3891 21.5 10.11 21.5H7.81C6.08944 21.5 4.77634 20.9891 3.89377 20.1054C3.01114 19.2217 2.5 17.9059 2.5 16.18V7.81C2.5 6.08943 3.01093 4.77618 3.89355 3.89355C4.77618 3.01093 6.08943 2.5 7.81 2.5H16.19C17.9106 2.5 19.2238 3.01093 20.1064 3.89355C20.9891 4.77618 21.5 6.08943 21.5 7.81V16.19C21.5 17.9106 20.9891 19.2238 20.1064 20.1064C19.2238 20.9891 17.9106 21.5 16.19 21.5H15C14.7261 21.5 14.5 21.2739 14.5 21V15.2306C14.5 15.2306 14.5 15.2306 14.5 15.2305Z" fill="#858585" stroke="#858585"/>
</svg>
