<svg width="57" height="56" viewBox="0 0 57 56" fill="none" xmlns="http://www.w3.org/2000/svg">
<rect x="0.5" width="56" height="56" rx="28" fill="#196719" fill-opacity="0.2"/>
<path d="M28.4999 7.31836C17.0961 7.31836 7.81812 16.5963 7.81812 28.0002C7.81812 39.404 17.0961 48.682 28.4999 48.682C39.9038 48.682 49.1818 39.404 49.1818 28.0002C49.1818 16.5963 39.9038 7.31836 28.4999 7.31836ZM42.7187 37.5456H38.2224C38.0831 37.5453 37.9463 37.5084 37.8257 37.4386C37.7051 37.3688 37.605 37.2686 37.5353 37.1479L35.9305 34.3956C35.8248 34.2157 35.7941 34.0014 35.845 33.799L37.3225 27.8411C37.3522 27.721 37.4094 27.6096 37.4896 27.5155C37.5699 27.4214 37.671 27.3474 37.7849 27.2992L40.5789 26.1159C40.7154 26.058 40.8654 26.0395 41.012 26.0623C41.1585 26.0852 41.2957 26.1485 41.4082 26.2452L45.5475 29.8069C45.6496 29.8947 45.7276 30.007 45.7744 30.1333C45.8212 30.2595 45.8352 30.3956 45.815 30.5287C45.4722 32.8806 44.6505 35.1372 43.4008 37.1588C43.3302 37.2767 43.2302 37.3743 43.1107 37.4421C42.9912 37.5099 42.8561 37.5456 42.7187 37.5456ZM16.421 26.1239L19.215 27.3071C19.3289 27.3553 19.43 27.4294 19.5102 27.5234C19.5905 27.6175 19.6477 27.729 19.6774 27.849L21.1549 33.807C21.2058 34.0094 21.175 34.2236 21.0694 34.4036L19.4646 37.1479C19.3949 37.2686 19.2948 37.3688 19.1742 37.4386C19.0536 37.5084 18.9168 37.5453 18.7775 37.5456H14.2812C14.1452 37.5457 14.0115 37.5109 13.8927 37.4446C13.774 37.3783 13.6743 37.2826 13.6031 37.1668C12.3533 35.1451 11.5317 32.8886 11.1889 30.5367C11.1687 30.4036 11.1827 30.2675 11.2294 30.1412C11.2762 30.015 11.3543 29.9027 11.4563 29.8148L15.5957 26.2532C15.7077 26.1572 15.8442 26.0943 15.99 26.0715C16.1357 26.0487 16.2849 26.0668 16.421 26.1239ZM41.969 17.4495L40.1722 22.5583C40.1361 22.6627 40.0787 22.7584 40.0035 22.8394C39.9284 22.9204 39.8372 22.9848 39.7357 23.0286L36.7945 24.2745C36.6596 24.3316 36.5114 24.3503 36.3665 24.3285C36.2216 24.3068 36.0855 24.2454 35.9732 24.1512L30.3792 19.459C30.2898 19.385 30.2177 19.2924 30.1679 19.1876C30.1181 19.0829 30.0918 18.9685 30.0908 18.8525V15.5135C30.0909 15.3827 30.1233 15.2539 30.185 15.1386C30.2468 15.0232 30.336 14.9249 30.4448 14.8523L34.7035 12.0145C34.8146 11.9403 34.9427 11.8954 35.0758 11.8837C35.2089 11.8721 35.3428 11.8941 35.4651 11.9479C37.9156 13.0167 40.0902 14.6299 41.8238 16.665C41.9149 16.7714 41.9764 16.8999 42.0019 17.0377C42.0273 17.1755 42.016 17.3175 41.969 17.4495ZM22.2954 12.0145L26.555 14.8523C26.6639 14.9249 26.7531 15.0232 26.8149 15.1386C26.8766 15.2539 26.9089 15.3827 26.909 15.5135V18.8525C26.909 18.9687 26.8836 19.0834 26.8344 19.1887C26.7853 19.294 26.7137 19.3873 26.6247 19.462L21.0306 24.1542C20.9184 24.2484 20.7823 24.3097 20.6373 24.3315C20.4924 24.3533 20.3443 24.3346 20.2093 24.2775L17.2641 23.0286C17.1621 22.9854 17.0702 22.9213 16.9943 22.8405C16.9185 22.7597 16.8603 22.6639 16.8237 22.5593L15.0269 17.4505C14.9802 17.318 14.9694 17.1756 14.9956 17.0376C15.0218 16.8996 15.0841 16.7711 15.1761 16.665C16.9107 14.6278 19.0871 13.0132 21.5397 11.9439C21.6616 11.8918 21.7945 11.871 21.9265 11.8833C22.0585 11.8956 22.1853 11.9407 22.2954 12.0145ZM24.0166 44.5745L22.0548 39.6337C22.0099 39.5214 21.9912 39.4003 22.0002 39.2797C22.0092 39.1591 22.0455 39.0421 22.1065 38.9377L23.6148 36.3525C23.6845 36.2318 23.7846 36.1315 23.9052 36.0618C24.0258 35.9919 24.1626 35.955 24.3019 35.9547H32.6979C32.8373 35.955 32.9741 35.9919 33.0946 36.0618C33.2152 36.1315 33.3154 36.2318 33.385 36.3525L34.8944 38.9377C34.9555 39.0421 34.992 39.159 35.0012 39.2796C35.0103 39.4002 34.9918 39.5213 34.9471 39.6337L32.9992 44.5725C32.9516 44.6932 32.8751 44.8005 32.7765 44.8849C32.6779 44.9693 32.5601 45.0283 32.4335 45.0567C29.8487 45.6499 27.1631 45.6499 24.5783 45.0567C24.4526 45.0279 24.3358 44.9689 24.2379 44.8849C24.1401 44.8009 24.0641 44.6944 24.0166 44.5745Z" fill="#196719"/>
</svg>
