<svg width="51" height="52" viewBox="0 0 51 52" fill="none" xmlns="http://www.w3.org/2000/svg">
<path d="M25.4999 5.31836C14.0961 5.31836 4.81812 14.5963 4.81812 26.0002C4.81812 37.404 14.0961 46.682 25.4999 46.682C36.9038 46.682 46.1818 37.404 46.1818 26.0002C46.1818 14.5963 36.9038 5.31836 25.4999 5.31836ZM39.7187 35.5456H35.2224C35.0831 35.5453 34.9463 35.5084 34.8257 35.4386C34.7051 35.3688 34.605 35.2686 34.5353 35.1479L32.9305 32.3956C32.8248 32.2157 32.7941 32.0014 32.845 31.799L34.3225 25.8411C34.3522 25.721 34.4094 25.6096 34.4896 25.5155C34.5699 25.4214 34.671 25.3474 34.7849 25.2992L37.5789 24.1159C37.7154 24.058 37.8654 24.0395 38.012 24.0623C38.1585 24.0852 38.2957 24.1485 38.4082 24.2452L42.5475 27.8069C42.6496 27.8947 42.7276 28.007 42.7744 28.1333C42.8212 28.2595 42.8352 28.3956 42.815 28.5287C42.4722 30.8806 41.6505 33.1372 40.4008 35.1588C40.3302 35.2767 40.2302 35.3743 40.1107 35.4421C39.9912 35.5099 39.8561 35.5456 39.7187 35.5456ZM13.421 24.1239L16.215 25.3071C16.3289 25.3553 16.43 25.4294 16.5102 25.5234C16.5905 25.6175 16.6477 25.729 16.6774 25.849L18.1549 31.807C18.2058 32.0094 18.175 32.2236 18.0694 32.4036L16.4646 35.1479C16.3949 35.2686 16.2948 35.3688 16.1742 35.4386C16.0536 35.5084 15.9168 35.5453 15.7775 35.5456H11.2812C11.1452 35.5457 11.0115 35.5109 10.8927 35.4446C10.774 35.3783 10.6743 35.2826 10.6031 35.1668C9.35334 33.1451 8.53167 30.8886 8.18885 28.5367C8.1687 28.4036 8.18267 28.2675 8.22945 28.1412C8.27623 28.015 8.35429 27.9027 8.45633 27.8148L12.5957 24.2532C12.7077 24.1572 12.8442 24.0943 12.99 24.0715C13.1357 24.0487 13.2849 24.0668 13.421 24.1239ZM38.969 15.4495L37.1722 20.5583C37.1361 20.6627 37.0787 20.7584 37.0035 20.8394C36.9284 20.9204 36.8372 20.9848 36.7357 21.0286L33.7945 22.2745C33.6596 22.3316 33.5114 22.3503 33.3665 22.3285C33.2216 22.3068 33.0855 22.2454 32.9732 22.1512L27.3792 17.459C27.2898 17.385 27.2177 17.2924 27.1679 17.1876C27.1181 17.0829 27.0918 16.9685 27.0908 16.8525V13.5135C27.0909 13.3827 27.1233 13.2539 27.185 13.1386C27.2468 13.0232 27.336 12.9249 27.4448 12.8523L31.7035 10.0145C31.8146 9.94034 31.9427 9.89535 32.0758 9.88371C32.2089 9.87206 32.3428 9.89414 32.4651 9.94791C34.9156 11.0167 37.0902 12.6299 38.8238 14.665C38.9149 14.7714 38.9764 14.8999 39.0019 15.0377C39.0273 15.1755 39.016 15.3175 38.969 15.4495ZM19.2954 10.0145L23.555 12.8523C23.6639 12.9249 23.7531 13.0232 23.8149 13.1386C23.8766 13.2539 23.9089 13.3827 23.909 13.5135V16.8525C23.909 16.9687 23.8836 17.0834 23.8344 17.1887C23.7853 17.294 23.7137 17.3873 23.6247 17.462L18.0306 22.1542C17.9184 22.2484 17.7823 22.3097 17.6373 22.3315C17.4924 22.3533 17.3443 22.3346 17.2093 22.2775L14.2641 21.0286C14.1621 20.9854 14.0702 20.9213 13.9943 20.8405C13.9185 20.7597 13.8603 20.6639 13.8237 20.5593L12.0269 15.4505C11.9802 15.318 11.9694 15.1756 11.9956 15.0376C12.0218 14.8996 12.0841 14.7711 12.1761 14.665C13.9107 12.6278 16.0871 11.0132 18.5397 9.94393C18.6616 9.8918 18.7945 9.87096 18.9265 9.88329C19.0585 9.89562 19.1853 9.94073 19.2954 10.0145ZM21.0166 42.5745L19.0548 37.6337C19.0099 37.5214 18.9912 37.4003 19.0002 37.2797C19.0092 37.1591 19.0455 37.0421 19.1065 36.9377L20.6148 34.3525C20.6845 34.2318 20.7846 34.1315 20.9052 34.0618C21.0258 33.9919 21.1626 33.955 21.3019 33.9547H29.6979C29.8373 33.955 29.9741 33.9919 30.0946 34.0618C30.2152 34.1315 30.3154 34.2318 30.385 34.3525L31.8944 36.9377C31.9555 37.0421 31.992 37.159 32.0012 37.2796C32.0103 37.4002 31.9918 37.5213 31.9471 37.6337L29.9992 42.5725C29.9516 42.6932 29.8751 42.8005 29.7765 42.8849C29.6779 42.9693 29.5601 43.0283 29.4335 43.0567C26.8487 43.6499 24.1631 43.6499 21.5783 43.0567C21.4526 43.0279 21.3358 42.9689 21.2379 42.8849C21.1401 42.8009 21.0641 42.6944 21.0166 42.5745Z" fill="#196719"/>
</svg>
