<svg width="345" height="602" viewBox="0 0 345 602" fill="none" xmlns="http://www.w3.org/2000/svg">
<path d="M176.39 301.324C176.39 303.469 174.49 305.207 172.146 305.207C169.803 305.207 167.903 303.469 167.903 301.324C167.903 299.179 169.803 297.44 172.146 297.44C174.49 297.44 176.39 299.179 176.39 301.324Z" fill="#658523"/>
<path d="M176.487 300.884C176.487 303.028 174.587 304.767 172.243 304.767C169.9 304.767 168 303.028 168 300.884C168 298.739 169.9 297 172.243 297C174.587 297 176.487 298.739 176.487 300.884Z" fill="#658523"/>
<path d="M343.293 1.00011H1M343.293 1.00011L333.014 1C333.629 3.3576 334.986 5.6018 336.776 7.38815C338.566 9.1745 340.779 10.239 343.293 11.0031V1.00011ZM343.293 1.00011V300.676M343.293 300.676H1M343.293 300.676V600.353M1 300.676V1.00011M1 300.676V600.353M1 1.00011H11.6464C11.0316 3.35771 9.66003 5.6018 7.87002 7.38815C6.08001 9.1745 3.51333 10.4124 1 11.1765V1.00011ZM140.675 1.00011H90.8165V58.9289H253.83V1.00011H205.032M140.675 1.00011V14.2687H205.032V1.00011M140.675 1.00011H205.032M343.293 600.353H1M343.293 600.353H333.146C333.761 597.995 334.986 595.751 336.776 593.965C338.566 592.178 340.779 590.941 343.293 590.177V600.353ZM1 600.353H11.6465C11.0317 597.995 9.66003 595.751 7.87002 593.965C6.08001 592.178 3.51342 590.941 1.00009 590.177L1 600.353ZM140.675 600.353H90.8165V542.424H253.83V600.353H205.032M140.675 600.353V587.084H205.032V600.353M140.675 600.353H205.032M207.507 301.324C207.507 319.197 191.676 333.686 172.146 333.686C152.617 333.686 136.786 319.197 136.786 301.324C136.786 283.45 152.617 268.961 172.146 268.961C191.676 268.961 207.507 283.45 207.507 301.324ZM176.39 301.324C176.39 303.468 174.49 305.207 172.146 305.207C169.803 305.207 167.903 303.468 167.903 301.324C167.903 299.179 169.803 297.44 172.146 297.44C174.49 297.44 176.39 299.179 176.39 301.324ZM206.416 58.9289C204.507 63.4822 200.134 67.4376 193.917 70.3269C187.701 73.2161 180.039 74.7859 172.151 74.7865C164.262 74.7871 156.6 73.2185 150.383 70.3302C144.165 67.4419 139.756 63.4819 137.845 58.9289H206.416ZM206.469 542.424C204.56 537.871 200.134 533.915 193.917 531.026C187.701 528.137 180.039 526.567 172.151 526.566C164.262 526.566 156.6 528.134 150.383 531.023C144.165 533.911 139.83 537.871 137.919 542.424H206.469ZM176.487 300.884C176.487 303.028 174.587 304.767 172.243 304.767C169.9 304.767 168 303.028 168 300.884C168 298.739 169.9 297 172.243 297C174.587 297 176.487 298.739 176.487 300.884Z" stroke="#658523" stroke-width="2"/>
</svg>
