<svg width="24" height="24" viewBox="0 0 24 24" fill="none" xmlns="http://www.w3.org/2000/svg">
<path d="M4.72 10.25H4.22V10.75V18C4.22 19.2903 4.37618 20.2983 5.02395 20.9461C5.67172 21.5938 6.67967 21.75 7.97 21.75H15.97C17.2603 21.75 18.2683 21.5938 18.9161 20.9461C19.5638 20.2983 19.72 19.2903 19.72 18V10.75V10.25H19.22H4.72ZM15.97 22.25H7.97C6.3059 22.25 5.28497 21.9229 4.66605 21.3039C4.04714 20.685 3.72 19.6641 3.72 18V10C3.72 9.86614 3.83614 9.75 3.97 9.75H19.97C20.1039 9.75 20.22 9.86614 20.22 10V18C20.22 19.6641 19.8929 20.685 19.2739 21.3039C18.655 21.9229 17.6341 22.25 15.97 22.25Z" fill="#141414" stroke="#141414"/>
<path d="M19.5 10.25H4.5C3.71904 10.25 3.17314 10.0285 2.8223 9.6777C2.47146 9.32686 2.25 8.78096 2.25 8V7C2.25 6.21904 2.47146 5.67314 2.8223 5.3223C3.17314 4.97146 3.71904 4.75 4.5 4.75H19.5C20.2461 4.75 20.7962 4.97831 21.1589 5.34105C21.5217 5.70379 21.75 6.25394 21.75 7V8C21.75 8.74606 21.5217 9.29621 21.1589 9.65895C20.7962 10.0217 20.2461 10.25 19.5 10.25ZM4.5 5.25C4.00391 5.25 3.52201 5.33839 3.1802 5.6802C2.83839 6.02201 2.75 6.50391 2.75 7V8C2.75 8.49609 2.83839 8.97799 3.1802 9.3198C3.52201 9.66161 4.00391 9.75 4.5 9.75H19.5C19.9954 9.75 20.469 9.64806 20.8086 9.30855C21.1481 8.96905 21.25 8.49542 21.25 8V7C21.25 6.50458 21.1481 6.03095 20.8086 5.69145C20.469 5.35194 19.9954 5.25 19.5 5.25H4.5Z" fill="#141414" stroke="#141414"/>
<path d="M11.8704 5.09305L11.8674 5.10007L11.8646 5.10718C11.8328 5.18821 11.7527 5.25 11.64 5.25H6.12C6.05272 5.25 5.98491 5.22069 5.93727 5.17069C5.50792 4.69629 5.52496 3.97215 5.97356 3.52356L7.39356 2.10356C7.85829 1.63882 8.63171 1.63882 9.09645 2.10356L11.8164 4.82356C11.886 4.89308 11.9076 5.00622 11.8704 5.09305ZM6.17 4.25001V4.75001H6.67H9.84H11.053L10.1923 3.89523L8.74356 2.45645C8.7433 2.45619 8.74304 2.45594 8.74278 2.45568C8.46746 2.18119 8.02145 2.18145 7.74645 2.45645L6.32645 3.87645L6.18 4.0229V4.14917C6.17778 4.16027 6.17593 4.17137 6.17446 4.18245C6.17135 4.20588 6.17 4.22848 6.17 4.25001ZM7.03157 4.59051L7.03311 4.58893C7.03258 4.58948 7.03206 4.59001 7.03157 4.59051ZM6.32144 3.88646L6.32074 3.88717L6.32144 3.88646Z" fill="#141414" stroke="#141414"/>
<path d="M17.87 5.75H12.35C12.05 5.75 11.77 5.57 11.66 5.29C11.54 5.01 11.61 4.69 11.82 4.47L14.54 1.75C15.2 1.09 16.29 1.09 16.95 1.75L18.37 3.17C19.01 3.81 19.04 4.84 18.42 5.51C18.28 5.66001 18.08 5.75 17.87 5.75ZM14.17 4.25001H17.34C17.33 4.24001 17.33 4.24001 17.32 4.23001L15.9 2.81C15.82 2.73 15.69 2.73 15.61 2.81L14.17 4.25001Z" fill="#141414"/>
<path d="M9.94 16.9C9.66 16.9 9.37 16.83 9.11 16.69C8.54 16.38 8.19 15.79 8.19 15.15V10C8.19 9.59 8.53 9.25 8.94 9.25H14.98C15.39 9.25 15.73 9.59 15.73 10V15.13C15.73 15.78 15.38 16.37 14.81 16.67C14.24 16.98 13.55 16.94 13.01 16.58L12.12 15.98C12.04 15.92 11.93 15.92 11.84 15.98L10.9 16.6C10.61 16.8 10.27 16.9 9.94 16.9ZM9.69 10.75V15.14C9.69 15.27 9.77 15.33 9.82 15.36C9.87 15.39 9.97 15.42 10.08 15.35L11.02 14.73C11.61 14.34 12.37 14.34 12.95 14.73L13.84 15.33C13.95 15.4 14.05 15.37 14.1 15.34C14.15 15.31 14.23 15.25 14.23 15.12V10.74H9.69V10.75Z" fill="#141414"/>
</svg>
