<svg width="14" height="14" viewBox="0 0 14 14" fill="none" xmlns="http://www.w3.org/2000/svg">
<path d="M7.00004 0.333344C3.32671 0.333344 0.333374 3.32668 0.333374 7.00001C0.333374 10.6733 3.32671 13.6667 7.00004 13.6667C10.6734 13.6667 13.6667 10.6733 13.6667 7.00001C13.6667 3.32668 10.6734 0.333344 7.00004 0.333344ZM10.1867 5.46668L6.40671 9.24668C6.31337 9.34001 6.18671 9.39334 6.05337 9.39334C5.92004 9.39334 5.79337 9.34001 5.70004 9.24668L3.81337 7.36001C3.62004 7.16668 3.62004 6.84668 3.81337 6.65334C4.00671 6.46001 4.32671 6.46001 4.52004 6.65334L6.05337 8.18668L9.48004 4.76001C9.67337 4.56668 9.99337 4.56668 10.1867 4.76001C10.38 4.95334 10.38 5.26668 10.1867 5.46668Z" fill="#54F297"/>
</svg>
