<svg width="33" height="32" viewBox="0 0 33 32" fill="none" xmlns="http://www.w3.org/2000/svg">
<path d="M30.8349 16.3109C30.8349 15.1598 30.7396 14.3198 30.5333 13.4487H17.1206V18.6442H24.9936C24.8349 19.9354 23.9777 21.8798 22.0729 23.1864L22.0462 23.3604L26.2871 26.58L26.5809 26.6087C29.2793 24.1665 30.8349 20.5731 30.8349 16.3109" fill="#4285F4"/>
<path d="M17.1198 30C20.9769 30 24.2149 28.7555 26.5801 26.6089L22.0721 23.1865C20.8658 24.011 19.2467 24.5865 17.1198 24.5865C13.3421 24.5865 10.1357 22.1444 8.99279 18.7688L8.82526 18.7827L4.41558 22.1272L4.35791 22.2843C6.70708 26.8577 11.5325 30 17.1198 30Z" fill="#34A853"/>
<path d="M8.99362 18.7689C8.69204 17.8978 8.51751 16.9644 8.51751 16C8.51751 15.0355 8.69204 14.1022 8.97776 13.2311L8.96977 13.0455L4.50482 9.64736L4.35873 9.71546C3.39052 11.6133 2.83496 13.7444 2.83496 16C2.83496 18.2555 3.39052 20.3866 4.35873 22.2844L8.99362 18.7689" fill="#FBBC05"/>
<path d="M17.1199 7.4133C19.8024 7.4133 21.6119 8.54885 22.6437 9.4978L26.6754 5.64C24.1993 3.38445 20.977 2 17.1199 2C11.5325 2 6.7071 5.1422 4.35791 9.71549L8.97695 13.2311C10.1358 9.85555 13.3421 7.4133 17.1199 7.4133" fill="#EB4335"/>
</svg>
