<svg width="64" height="64" viewBox="0 0 64 64" fill="none" xmlns="http://www.w3.org/2000/svg">
<g filter="url(#filter0_di_914_37750)">
<rect x="8" y="4" width="47.9984" height="47.9998" rx="23.9992" fill="white"/>
<path d="M16.0001 27.9914C15.9972 28.6909 16.0394 29.39 16.1265 30.0841C16.521 33.1705 17.8103 36.074 19.8354 38.4363C21.8605 40.7987 24.5328 42.5166 27.5226 43.3782C28.9377 43.7839 30.4018 43.9931 31.8739 43.9998C32.9931 44.005 34.1097 43.8932 35.2057 43.6662C37.2945 43.2264 39.2741 42.3728 41.0278 41.1557C42.7815 39.9387 44.2738 38.3828 45.4166 36.5799C45.5637 36.3478 45.7046 36.1095 45.8413 35.8712C46.4739 34.7481 46.9673 33.552 47.3104 32.3094C47.4264 31.895 47.5176 31.4599 47.6088 31.0248C47.6999 30.5897 47.7559 30.1483 47.8015 29.6987C47.8553 29.1807 47.883 28.6565 47.8843 28.126C47.8879 27.487 47.8527 26.8483 47.7787 26.2136C47.7289 25.7743 47.6599 25.3413 47.5715 24.9144C46.9505 21.8352 45.4345 19.0078 43.2133 16.7866C40.9921 14.5654 38.1647 13.0494 35.0855 12.4284C34.6587 12.3414 34.2235 12.273 33.7843 12.2212C33.1941 12.1524 32.6006 12.1171 32.0065 12.1156C31.437 12.1118 30.8677 12.1395 30.3012 12.1985C29.8537 12.242 29.4102 12.3083 28.9751 12.3911C28.54 12.474 28.1111 12.5714 27.6884 12.6874C26.4455 13.0304 25.2493 13.5245 24.1266 14.1586C23.8862 14.2933 23.648 14.4342 23.4159 14.573C20.86 16.1959 18.8156 18.509 17.5189 21.2449C16.9841 22.374 16.5856 23.5627 16.3317 24.786C16.114 25.8406 16.003 26.9145 16.0001 27.9914Z" fill="#196719"/>
<path opacity="0.1" d="M16.0001 27.9914C15.9972 28.6909 16.0394 29.39 16.1265 30.0841C16.521 33.1705 17.8103 36.074 19.8354 38.4363C21.8605 40.7987 24.5328 42.5166 27.5226 43.3782C28.9377 43.7839 30.4018 43.9931 31.8739 43.9998C32.9931 44.005 34.1097 43.8932 35.2057 43.6662C37.2945 43.2264 39.2741 42.3728 41.0278 41.1557C42.7815 39.9387 44.2738 38.3828 45.4166 36.5799C45.5637 36.3478 45.7046 36.1095 45.8413 35.8712C46.4739 34.7481 46.9673 33.552 47.3104 32.3094C47.4264 31.895 47.5176 31.4599 47.6088 31.0248C47.6999 30.5897 47.7559 30.1483 47.8015 29.6987C47.8553 29.1807 47.883 28.6565 47.8843 28.126C47.8879 27.487 47.8527 26.8483 47.7787 26.2136C47.7289 25.7743 47.6599 25.3413 47.5715 24.9144C46.9505 21.8352 45.4345 19.0078 43.2133 16.7866C40.9921 14.5654 38.1647 13.0494 35.0855 12.4284C34.6587 12.3414 34.2235 12.273 33.7843 12.2212C33.1941 12.1524 32.6006 12.1171 32.0065 12.1156C31.437 12.1118 30.8677 12.1395 30.3012 12.1985C29.8537 12.242 29.4102 12.3083 28.9751 12.3911C28.54 12.474 28.1111 12.5714 27.6884 12.6874C26.4455 13.0304 25.2493 13.5245 24.1266 14.1586C23.8862 14.2933 23.648 14.4342 23.4159 14.573C20.86 16.1959 18.8156 18.509 17.5189 21.2449C16.9841 22.374 16.5856 23.5627 16.3317 24.786C16.114 25.8406 16.003 26.9145 16.0001 27.9914Z" fill="#CCFF33"/>
<path opacity="0.05" d="M47.2606 23.6406C47.3808 24.055 47.4864 24.486 47.5735 24.9211C47.6605 25.3563 47.7289 25.781 47.7807 26.2203C47.8547 26.855 47.89 27.4937 47.8863 28.1328C47.8863 28.6632 47.8587 29.1874 47.8035 29.7054C47.7579 30.1557 47.6936 30.5978 47.6108 31.0315C47.5279 31.4666 47.4284 31.8935 47.3124 32.3162C46.9676 33.5545 46.4736 34.7464 45.8413 35.8655C45.7045 36.1038 45.5636 36.3421 45.4165 36.5742C43.9752 38.8594 41.9755 40.7398 39.6061 42.038C37.2366 43.3361 34.5755 44.0093 31.8738 43.994C31.2921 43.9903 30.7111 43.955 30.1333 43.8884L47.2606 23.6406Z" fill="black"/>
<path opacity="0.05" d="M47.0139 33.2637C46.7027 34.1649 46.3102 35.036 45.8411 35.8661C45.7044 36.1044 45.5635 36.3427 45.4164 36.5748C43.9681 38.8593 41.9642 40.7392 39.5919 42.0387L47.0139 33.2637Z" fill="black"/>
<path opacity="0.15" d="M45.0808 19.0254C45.594 19.7699 46.0419 20.5574 46.4193 21.3792L27.7711 43.4441L27.5184 43.3757C26.7375 43.147 25.9754 42.8581 25.2391 42.5117L45.0808 19.0254Z" fill="#CCFF33"/>
<path opacity="0.15" d="M38.9829 13.75C39.819 14.1636 40.6176 14.6489 41.3699 15.2004L20.8383 39.4886C20.1693 38.838 19.5585 38.1301 19.0128 37.3731L38.9829 13.75Z" fill="#CCFF33"/>
<path opacity="0.15" d="M36.6539 12.8242C37.1471 12.9775 37.6305 13.153 38.1043 13.3505L18.472 36.5737C18.1985 36.1406 17.9395 35.6972 17.7074 35.2372L36.6539 12.8242Z" fill="#CCFF33"/>
<path opacity="0.15" d="M16.0458 26.9062C16.0665 26.612 16.0976 26.3199 16.1328 26.0318C16.1452 25.9345 16.1556 25.8371 16.1701 25.7418C16.1846 25.6465 16.1991 25.5346 16.2157 25.4455C16.253 25.2383 16.2903 25.0103 16.3338 24.7949C16.9636 21.7786 18.4558 19.0102 20.6291 16.8259C21.4719 15.976 22.4074 15.2233 23.418 14.5819C23.6501 14.4348 23.8884 14.2939 24.1287 14.1675C25.2514 13.5334 26.4476 13.0393 27.6905 12.6963C27.848 12.6528 28.0055 12.6155 28.165 12.5762L16.0458 26.9062Z" fill="#CCFF33"/>
<path d="M20.0634 28.0587C20.0629 31.0715 21.2075 33.9719 23.2654 36.1725C25.3232 38.373 28.1405 39.7093 31.1466 39.9106C31.4076 39.9272 31.677 39.9375 31.9443 39.9375C35.0679 39.8963 38.0495 38.6265 40.2438 36.4031C42.438 34.1796 43.6683 31.1815 43.6683 28.0576C43.6683 24.9338 42.438 21.9356 40.2438 19.7122C38.0495 17.4888 35.0679 16.219 31.9443 16.1777C31.677 16.1777 31.4076 16.1777 31.1466 16.2047C28.1405 16.407 25.3235 17.7438 23.2658 19.9446C21.2081 22.1454 20.0634 25.0458 20.0634 28.0587Z" fill="#196719"/>
<path opacity="0.4" d="M20.0634 28.0587C20.0629 31.0715 21.2075 33.9719 23.2654 36.1725C25.3232 38.373 28.1405 39.7093 31.1466 39.9106C31.4076 39.9272 31.677 39.9375 31.9443 39.9375C35.0679 39.8963 38.0495 38.6265 40.2438 36.4031C42.438 34.1796 43.6683 31.1815 43.6683 28.0576C43.6683 24.9338 42.438 21.9356 40.2438 19.7122C38.0495 17.4888 35.0679 16.219 31.9443 16.1777C31.677 16.1777 31.4076 16.1777 31.1466 16.2047C28.1405 16.407 25.3235 17.7438 23.2658 19.9446C21.2081 22.1454 20.0634 25.0458 20.0634 28.0587Z" fill="black"/>
<path d="M20.5917 28.0575C20.5917 28.2647 20.5917 28.4719 20.6083 28.6626C20.7559 31.4318 21.9123 34.051 23.8592 36.0258C25.8061 38.0006 28.4087 39.1942 31.1755 39.3811L31.3309 39.3915C31.5381 39.3915 31.7329 39.408 31.936 39.408C34.7811 39.4135 37.5242 38.3492 39.6211 36.4262C41.7179 34.5032 43.0152 31.8622 43.2554 29.0272C43.2844 28.7061 43.2968 28.3828 43.2968 28.0534C43.2968 27.7239 43.2865 27.4546 43.2637 27.1604C43.2174 26.5504 43.1203 25.9453 42.9736 25.3515C42.477 23.3363 41.4382 21.4955 39.9699 20.0287C38.5016 18.5618 36.6598 17.5249 34.6441 17.0303C34.0502 16.8835 33.4452 16.7865 32.8352 16.7402C32.541 16.7174 32.2426 16.707 31.9422 16.707C31.6873 16.707 31.4325 16.707 31.1818 16.7319C31.1113 16.7319 31.0409 16.7319 30.9745 16.7485C29.3208 16.8867 27.7182 17.3891 26.2814 18.2196C24.5521 19.2142 23.1159 20.6476 22.1179 22.375C21.12 24.1024 20.5956 26.0626 20.5979 28.0575H20.5917Z" fill="#196719"/>
<path opacity="0.5" d="M20.5917 28.0575C20.5917 28.2647 20.5917 28.4719 20.6083 28.6626C20.7559 31.4318 21.9123 34.051 23.8592 36.0258C25.8061 38.0006 28.4087 39.1942 31.1755 39.3811L31.3309 39.3915C31.5381 39.3915 31.7329 39.408 31.936 39.408C34.7811 39.4135 37.5242 38.3492 39.6211 36.4262C41.7179 34.5032 43.0152 31.8622 43.2554 29.0272C43.2844 28.7061 43.2968 28.3828 43.2968 28.0534C43.2968 27.7239 43.2865 27.4546 43.2637 27.1604C43.2174 26.5504 43.1203 25.9453 42.9736 25.3515C42.477 23.3363 41.4382 21.4955 39.9699 20.0287C38.5016 18.5618 36.6598 17.5249 34.6441 17.0303C34.0502 16.8835 33.4452 16.7865 32.8352 16.7402C32.541 16.7174 32.2426 16.707 31.9422 16.707C31.6873 16.707 31.4325 16.707 31.1818 16.7319C31.1113 16.7319 31.0409 16.7319 30.9745 16.7485C29.3208 16.8867 27.7182 17.3891 26.2814 18.2196C24.5521 19.2142 23.1159 20.6476 22.1179 22.375C21.12 24.1024 20.5956 26.0626 20.5979 28.0575H20.5917Z" fill="black"/>
<path d="M39.9401 36.1115C41.8552 34.2213 43.0311 31.7086 43.2554 29.0272C43.2844 28.7061 43.2989 28.3828 43.2989 28.0534C43.2989 27.7239 43.2864 27.4546 43.2637 27.1604C43.2174 26.5504 43.1203 25.9453 42.9736 25.3515C42.477 23.3363 41.4382 21.4955 39.9699 20.0287C38.5016 18.5618 36.6597 17.5249 34.6441 17.0303C34.0502 16.8835 33.4452 16.7865 32.8352 16.7402C32.541 16.7174 32.2426 16.707 31.9422 16.707C31.6873 16.707 31.4324 16.707 31.1817 16.7319C31.1113 16.7319 31.0408 16.7319 30.9745 16.7485C29.3208 16.8867 27.7181 17.3891 26.2814 18.2196C25.7834 18.5113 25.3082 18.8403 24.86 19.2038C23.7991 20.2554 22.9576 21.5072 22.3843 22.8865C21.8109 24.2659 21.5171 25.7453 21.5199 27.2391C21.5199 27.4463 21.5199 27.6431 21.5386 27.8441C21.6853 30.6136 22.8415 33.2334 24.7885 35.2084C26.7356 37.1833 29.3387 38.3766 32.1058 38.5627H32.2592C32.4664 38.573 32.6632 38.5792 32.8663 38.5792C35.4382 38.5818 37.9337 37.7044 39.9381 36.0928L39.9401 36.1115Z" fill="#196719"/>
<path opacity="0.25" d="M39.9401 36.1115C41.8552 34.2213 43.0311 31.7086 43.2554 29.0272C43.2844 28.7061 43.2989 28.3828 43.2989 28.0534C43.2989 27.7239 43.2864 27.4546 43.2637 27.1604C43.2174 26.5504 43.1203 25.9453 42.9736 25.3515C42.477 23.3363 41.4382 21.4955 39.9699 20.0287C38.5016 18.5618 36.6597 17.5249 34.6441 17.0303C34.0502 16.8835 33.4452 16.7865 32.8352 16.7402C32.541 16.7174 32.2426 16.707 31.9422 16.707C31.6873 16.707 31.4324 16.707 31.1817 16.7319C31.1113 16.7319 31.0408 16.7319 30.9745 16.7485C29.3208 16.8867 27.7181 17.3891 26.2814 18.2196C25.7834 18.5113 25.3082 18.8403 24.86 19.2038C23.7991 20.2554 22.9576 21.5072 22.3843 22.8865C21.8109 24.2659 21.5171 25.7453 21.5199 27.2391C21.5199 27.4463 21.5199 27.6431 21.5386 27.8441C21.6853 30.6136 22.8415 33.2334 24.7885 35.2084C26.7356 37.1833 29.3387 38.3766 32.1058 38.5627H32.2592C32.4664 38.573 32.6632 38.5792 32.8663 38.5792C35.4382 38.5818 37.9337 37.7044 39.9381 36.0928L39.9401 36.1115Z" fill="black"/>
<path d="M24.1288 14.1587C30.9892 10.6052 36.5609 12.4534 40.2905 14.6705C45.6778 18.2861 49.0759 24.3426 47.2173 32.3468V32.3302C46.5077 34.9925 45.1116 37.4218 43.1685 39.3751C45.1748 37.4158 46.6335 34.9657 47.3996 32.2681V32.2826C49.1132 25.6521 46.9583 20.3871 43.3633 16.672C39.5114 13.1206 32.9846 9.61266 24.1288 14.1587Z" fill="#CCFF33"/>
<g filter="url(#filter1_f_914_37750)">
<path d="M32.5097 23.5065C32.1095 22.706 31.8427 22.5059 31.7593 22.5059C31.9362 22.6196 32.0094 23.2563 32.2596 23.7566C32.8189 24.8753 33.7104 26.6083 36.5121 27.0085C39.3138 27.4088 39.3575 30.0103 39.2637 31.0109C40.5145 27.759 37.7423 26.5082 36.5121 26.5082C34.0106 26.5082 33.01 24.507 32.5097 23.5065Z" fill="#041004"/>
<path d="M33.2602 30.0094C33.2602 28.1652 31.8427 27.3412 31.259 27.2578C32.4597 28.0583 32.5098 29.259 32.5098 30.0094C33.5104 32.2107 35.4282 31.7605 36.262 31.2602C33.7605 31.2602 33.2602 30.5097 33.2602 30.0094Z" fill="#041004"/>
<path d="M28.0071 26.0072C26.4062 25.4068 27.0899 24.1728 27.5068 23.7559C27.2567 23.8392 26.5062 24.4062 26.5062 25.0066C26.5062 25.607 27.5068 25.9238 28.0071 26.0072Z" fill="#041004"/>
</g>
<path d="M32.5097 23.5065C32.1095 22.706 31.8427 22.5059 31.7593 22.5059C31.9362 22.6196 32.0094 23.2563 32.2596 23.7566C32.8189 24.8753 33.7104 26.6083 36.5121 27.0085C39.3138 27.4088 39.3575 30.0103 39.2637 31.0109C40.5145 27.759 37.7423 26.5082 36.5121 26.5082C34.0106 26.5082 33.01 24.507 32.5097 23.5065Z" fill="#CCFF33"/>
<path d="M33.2602 30.0094C33.2602 28.1652 31.8427 27.3412 31.259 27.2578C32.4597 28.0583 32.5098 29.259 32.5098 30.0094C33.5104 32.2107 35.4282 31.7605 36.262 31.2602C33.7605 31.2602 33.2602 30.5097 33.2602 30.0094Z" fill="#CCFF33"/>
<path d="M28.0071 26.0072C26.4062 25.4068 27.0899 24.1728 27.5068 23.7559C27.2567 23.8392 26.5062 24.4062 26.5062 25.0066C26.5062 25.607 27.5068 25.9238 28.0071 26.0072Z" fill="#CCFF33"/>
<path d="M32.4939 22.2253C32.615 22.1572 32.7418 22.0939 32.8744 22.0351C33.529 21.745 34.2729 21.5999 35.1061 21.5999C35.9541 21.5999 36.6943 21.745 37.3266 22.0351C37.9627 22.3252 38.4574 22.7288 38.8107 23.2458C39.1641 23.7628 39.3463 24.3617 39.3575 25.0423H37.0421C36.9975 24.5923 36.8059 24.2426 36.4674 23.9934C36.1289 23.7442 35.6696 23.6196 35.0893 23.6196C34.6951 23.6196 34.3622 23.6754 34.0907 23.787C33.8581 23.8794 33.6719 24.0031 33.5321 24.1583C33.1609 23.6174 32.8906 23.0514 32.6646 22.5783C32.605 22.4535 32.5484 22.3351 32.4939 22.2253Z" fill="#2B892B"/>
<path d="M30.0558 30.9238C29.9367 31.008 29.7998 31.0802 29.6454 31.1404C29.3441 31.2595 28.9889 31.319 28.5797 31.319C28.1632 31.319 27.7894 31.2558 27.4583 31.1293C27.131 30.9991 26.8688 30.8076 26.6716 30.5546C26.4782 30.298 26.3685 29.9781 26.3425 29.595H24.0048C24.0234 30.417 24.2224 31.107 24.6017 31.6649C24.9848 32.2191 25.5167 32.6375 26.1974 32.9202C26.8818 33.2029 27.6852 33.3442 28.6076 33.3442C29.5375 33.3442 30.3316 33.2048 30.99 32.9258C30.9934 32.9243 30.9968 32.9229 31.0003 32.9214C30.5032 32.472 30.0734 31.9048 30.0734 31.2823C30.0734 31.1598 30.0677 31.0402 30.0558 30.9238Z" fill="#2B892B"/>
<path fill-rule="evenodd" clip-rule="evenodd" d="M32.3785 23.5314C32.9182 24.7054 33.7269 26.4646 36.1683 26.668C39.2091 26.9215 39.6737 29.2021 39.4625 30.4691C39.1669 32.243 36.4216 35.0304 31.8604 32.4964C31.4896 32.2904 30.5933 31.4827 30.5933 30.4691C30.5933 29.4555 30.0865 28.6953 28.8195 28.4419C27.5525 28.1885 24.0048 27.4282 24.2582 24.6408C24.5116 21.8533 29.5798 20.3329 31.8604 22.6135C32.0384 22.7915 32.1924 23.1267 32.3785 23.5314ZM26.7922 24.6408C27.1301 23.6272 28.8195 22.867 30.0865 24.134C30.302 24.3495 30.5933 24.6408 30.8467 25.401C30.8642 25.4534 30.8812 25.5066 30.8985 25.5605C31.208 26.5277 31.5945 27.7352 35.9148 28.6953C36.5268 28.8313 37.5366 29.2528 36.9285 30.4691C36.3203 31.6855 34.3944 31.4828 33.6342 30.9759C33.4652 30.8915 32.874 30.5448 32.874 29.7089C32.8739 28.6953 32.6206 27.6817 30.0865 26.668C29.7847 26.5473 29.4167 26.4381 29.0367 26.3253C27.8215 25.9646 26.4834 25.5674 26.7922 24.6408Z" fill="#2B892B"/>
<mask id="mask0_914_37750" style="mask-type:alpha" maskUnits="userSpaceOnUse" x="24" y="21" width="16" height="13">
<path d="M32.4939 22.2253C32.615 22.1572 32.7418 22.0939 32.8744 22.0351C33.529 21.745 34.2729 21.5999 35.1061 21.5999C35.9541 21.5999 36.6943 21.745 37.3266 22.0351C37.9627 22.3252 38.4574 22.7288 38.8107 23.2458C39.1641 23.7628 39.3463 24.3617 39.3575 25.0423H37.0421C36.9975 24.5923 36.8059 24.2426 36.4674 23.9934C36.1289 23.7442 35.6696 23.6196 35.0893 23.6196C34.6951 23.6196 34.3622 23.6754 34.0907 23.787C33.8581 23.8794 33.6719 24.0031 33.5321 24.1583C33.1609 23.6174 32.8906 23.0514 32.6646 22.5783C32.605 22.4535 32.5484 22.3351 32.4939 22.2253Z" fill="#2B892B"/>
<path d="M30.0558 30.9238C29.9367 31.008 29.7998 31.0802 29.6454 31.1404C29.3441 31.2595 28.9889 31.319 28.5797 31.319C28.1632 31.319 27.7894 31.2558 27.4583 31.1293C27.131 30.9991 26.8688 30.8076 26.6716 30.5546C26.4782 30.298 26.3685 29.9781 26.3425 29.595H24.0048C24.0234 30.417 24.2224 31.107 24.6017 31.6649C24.9848 32.2191 25.5167 32.6375 26.1974 32.9202C26.8818 33.2029 27.6852 33.3442 28.6076 33.3442C29.5375 33.3442 30.3316 33.2048 30.99 32.9258C30.9934 32.9243 30.9968 32.9229 31.0003 32.9214C30.5032 32.472 30.0734 31.9048 30.0734 31.2823C30.0734 31.1598 30.0677 31.0402 30.0558 30.9238Z" fill="#2B892B"/>
<path fill-rule="evenodd" clip-rule="evenodd" d="M32.3785 23.5314C32.9182 24.7054 33.7269 26.4646 36.1683 26.668C39.2091 26.9215 39.6737 29.2021 39.4625 30.4691C39.1669 32.243 36.4216 35.0304 31.8604 32.4964C31.4896 32.2904 30.5933 31.4827 30.5933 30.4691C30.5933 29.4555 30.0865 28.6953 28.8195 28.4419C27.5525 28.1885 24.0048 27.4282 24.2582 24.6408C24.5116 21.8533 29.5798 20.3329 31.8604 22.6135C32.0384 22.7915 32.1924 23.1267 32.3785 23.5314ZM26.7922 24.6408C27.1301 23.6272 28.8195 22.867 30.0865 24.134C30.302 24.3495 30.5933 24.6408 30.8467 25.401C30.8642 25.4534 30.8812 25.5066 30.8985 25.5605C31.208 26.5277 31.5945 27.7352 35.9148 28.6953C36.5268 28.8313 37.5366 29.2528 36.9285 30.4691C36.3203 31.6855 34.3944 31.4828 33.6342 30.9759C33.4652 30.8915 32.874 30.5448 32.874 29.7089C32.8739 28.6953 32.6206 27.6817 30.0865 26.668C29.7847 26.5473 29.4167 26.4381 29.0367 26.3253C27.8215 25.9646 26.4834 25.5674 26.7922 24.6408Z" fill="#2B892B"/>
</mask>
<g mask="url(#mask0_914_37750)">
<path opacity="0.15" d="M38.9829 13.752C39.819 14.1656 40.6176 14.6508 41.3699 15.2024L20.8383 39.4905C20.1693 38.8399 19.5585 38.1321 19.0128 37.375L38.9829 13.752Z" fill="#CCFF33"/>
<path opacity="0.15" d="M36.6539 12.8242C37.1471 12.9775 37.6305 13.153 38.1043 13.3505L18.472 36.5737C18.1985 36.1406 17.9395 35.6972 17.7074 35.2372L36.6539 12.8242Z" fill="#CCFF33"/>
<path opacity="0.15" d="M45.0808 19.0254C45.594 19.7699 46.0419 20.5574 46.4193 21.3792L27.7711 43.4441L27.5184 43.3757C26.7375 43.147 25.9754 42.8581 25.2391 42.5117L45.0808 19.0254Z" fill="#CCFF33"/>
</g>
</g>
<defs>
<filter id="filter0_di_914_37750" x="0" y="0" width="63.9984" height="64" filterUnits="userSpaceOnUse" color-interpolation-filters="sRGB">
<feFlood flood-opacity="0" result="BackgroundImageFix"/>
<feColorMatrix in="SourceAlpha" type="matrix" values="0 0 0 0 0 0 0 0 0 0 0 0 0 0 0 0 0 0 127 0" result="hardAlpha"/>
<feOffset dy="4"/>
<feGaussianBlur stdDeviation="4"/>
<feColorMatrix type="matrix" values="0 0 0 0 0.08 0 0 0 0 0.08 0 0 0 0 0.08 0 0 0 0.12 0"/>
<feBlend mode="normal" in2="BackgroundImageFix" result="effect1_dropShadow_914_37750"/>
<feBlend mode="normal" in="SourceGraphic" in2="effect1_dropShadow_914_37750" result="shape"/>
<feColorMatrix in="SourceAlpha" type="matrix" values="0 0 0 0 0 0 0 0 0 0 0 0 0 0 0 0 0 0 127 0" result="hardAlpha"/>
<feOffset dy="2"/>
<feGaussianBlur stdDeviation="2"/>
<feComposite in2="hardAlpha" operator="arithmetic" k2="-1" k3="1"/>
<feColorMatrix type="matrix" values="0 0 0 0 0 0 0 0 0 0 0 0 0 0 0 0 0 0 0.16 0"/>
<feBlend mode="normal" in2="shape" result="effect2_innerShadow_914_37750"/>
</filter>
<filter id="filter1_f_914_37750" x="10.5062" y="6.50586" width="45.0743" height="41.166" filterUnits="userSpaceOnUse" color-interpolation-filters="sRGB">
<feFlood flood-opacity="0" result="BackgroundImageFix"/>
<feBlend mode="normal" in="SourceGraphic" in2="BackgroundImageFix" result="shape"/>
<feGaussianBlur stdDeviation="8" result="effect1_foregroundBlur_914_37750"/>
</filter>
</defs>
</svg>
