<svg width="17" height="16" viewBox="0 0 17 16" fill="none" xmlns="http://www.w3.org/2000/svg">
<rect x="1" y="0.5" width="15" height="15" rx="7.5" fill="#FFD663"/>
<path fill-rule="evenodd" clip-rule="evenodd" d="M1.03703 7.25C1.01254 7.49668 1 7.74688 1 8C1 12.1421 4.35786 15.5 8.5 15.5C12.6421 15.5 16 12.1421 16 8C16 7.74688 15.9875 7.49668 15.963 7.25C15.5867 11.04 12.389 14 8.5 14C4.61099 14 1.41332 11.04 1.03703 7.25Z" fill="#FFD04C"/>
<circle cx="3.25" cy="6.25" r="1.25" fill="#FF759B" fill-opacity="0.2"/>
<circle cx="13.75" cy="6.25" r="1.25" fill="#FF759B" fill-opacity="0.2"/>
<mask id="path-5-inside-1_2700_54529" fill="white">
<path fill-rule="evenodd" clip-rule="evenodd" d="M6 4.88889C5.64496 4.88889 5.35714 5.18737 5.35714 5.55556C5.35714 5.80102 5.16526 6 4.92857 6C4.69188 6 4.5 5.80102 4.5 5.55556C4.5 4.69645 5.17157 4 6 4C6.82843 4 7.5 4.69645 7.5 5.55556C7.5 5.80102 7.30812 6 7.07143 6C6.83474 6 6.64286 5.80102 6.64286 5.55556C6.64286 5.18737 6.35504 4.88889 6 4.88889Z"/>
</mask>
<path fill-rule="evenodd" clip-rule="evenodd" d="M6 4.88889C5.64496 4.88889 5.35714 5.18737 5.35714 5.55556C5.35714 5.80102 5.16526 6 4.92857 6C4.69188 6 4.5 5.80102 4.5 5.55556C4.5 4.69645 5.17157 4 6 4C6.82843 4 7.5 4.69645 7.5 5.55556C7.5 5.80102 7.30812 6 7.07143 6C6.83474 6 6.64286 5.80102 6.64286 5.55556C6.64286 5.18737 6.35504 4.88889 6 4.88889Z" fill="#52565F"/>
<path d="M7.35714 5.55556C7.35714 6.22276 6.81746 6.88889 6 6.88889V2.88889C4.47246 2.88889 3.35714 4.15198 3.35714 5.55556H7.35714ZM4.92857 8C6.33777 8 7.35714 6.83641 7.35714 5.55556H3.35714C3.35714 4.76563 3.99276 4 4.92857 4V8ZM2.5 5.55556C2.5 6.83641 3.51937 8 4.92857 8V4C5.86438 4 6.5 4.76563 6.5 5.55556H2.5ZM6 2C3.99907 2 2.5 3.66106 2.5 5.55556H6.5C6.5 5.73184 6.34408 6 6 6V2ZM9.5 5.55556C9.5 3.66106 8.00093 2 6 2V6C5.65592 6 5.5 5.73184 5.5 5.55556H9.5ZM7.07143 8C8.48062 8 9.5 6.83641 9.5 5.55556H5.5C5.5 4.76563 6.13562 4 7.07143 4V8ZM4.64286 5.55556C4.64286 6.83641 5.66223 8 7.07143 8V4C8.00724 4 8.64286 4.76563 8.64286 5.55556H4.64286ZM6 6.88889C5.18254 6.88889 4.64286 6.22276 4.64286 5.55556H8.64286C8.64286 4.15198 7.52754 2.88889 6 2.88889V6.88889Z" fill="#52565F" mask="url(#path-5-inside-1_2700_54529)"/>
<mask id="path-7-inside-2_2700_54529" fill="white">
<path fill-rule="evenodd" clip-rule="evenodd" d="M11 4.88889C10.645 4.88889 10.3571 5.18737 10.3571 5.55556C10.3571 5.80102 10.1653 6 9.92857 6C9.69188 6 9.5 5.80102 9.5 5.55556C9.5 4.69645 10.1716 4 11 4C11.8284 4 12.5 4.69645 12.5 5.55556C12.5 5.80102 12.3081 6 12.0714 6C11.8347 6 11.6429 5.80102 11.6429 5.55556C11.6429 5.18737 11.355 4.88889 11 4.88889Z"/>
</mask>
<path fill-rule="evenodd" clip-rule="evenodd" d="M11 4.88889C10.645 4.88889 10.3571 5.18737 10.3571 5.55556C10.3571 5.80102 10.1653 6 9.92857 6C9.69188 6 9.5 5.80102 9.5 5.55556C9.5 4.69645 10.1716 4 11 4C11.8284 4 12.5 4.69645 12.5 5.55556C12.5 5.80102 12.3081 6 12.0714 6C11.8347 6 11.6429 5.80102 11.6429 5.55556C11.6429 5.18737 11.355 4.88889 11 4.88889Z" fill="#52565F"/>
<path d="M12.3571 5.55556C12.3571 6.22276 11.8175 6.88889 11 6.88889V2.88889C9.47246 2.88889 8.35714 4.15198 8.35714 5.55556H12.3571ZM9.92857 8C11.3378 8 12.3571 6.83641 12.3571 5.55556H8.35714C8.35714 4.76563 8.99276 4 9.92857 4V8ZM7.5 5.55556C7.5 6.83641 8.51937 8 9.92857 8V4C10.8644 4 11.5 4.76563 11.5 5.55556H7.5ZM11 2C8.99907 2 7.5 3.66106 7.5 5.55556H11.5C11.5 5.73184 11.3441 6 11 6V2ZM14.5 5.55556C14.5 3.66106 13.0009 2 11 2V6C10.6559 6 10.5 5.73184 10.5 5.55556H14.5ZM12.0714 8C13.4806 8 14.5 6.83641 14.5 5.55556H10.5C10.5 4.76563 11.1356 4 12.0714 4V8ZM9.64286 5.55556C9.64286 6.83641 10.6622 8 12.0714 8V4C13.0072 4 13.6429 4.76563 13.6429 5.55556H9.64286ZM11 6.88889C10.1825 6.88889 9.64286 6.22276 9.64286 5.55556H13.6429C13.6429 4.15198 12.5275 2.88889 11 2.88889V6.88889Z" fill="#52565F" mask="url(#path-7-inside-2_2700_54529)"/>
<path fill-rule="evenodd" clip-rule="evenodd" d="M3.7765 8.0529C4.02349 7.9294 4.32383 8.02951 4.44732 8.2765C4.83089 9.04365 6.23781 10.0001 8.50011 10.0001C10.7624 10.0001 12.1693 9.04365 12.5529 8.2765C12.6764 8.02951 12.9767 7.9294 13.2237 8.0529C13.4707 8.17639 13.5708 8.47673 13.4473 8.72372C12.8309 9.95657 10.9747 11.0001 8.50011 11.0001C6.02556 11.0001 4.16932 9.95657 3.5529 8.72372C3.4294 8.47673 3.52951 8.17639 3.7765 8.0529Z" fill="#52565F"/>
</svg>
