<svg width="18" height="15" viewBox="0 0 18 15" fill="none" xmlns="http://www.w3.org/2000/svg">
<path d="M2.09753 9.39892C2.21176 9.37262 2.33136 9.35864 2.45455 9.35864C3.25787 9.35864 3.90909 9.95293 3.90909 10.686V12.0134C3.90909 12.7465 3.25787 13.3408 2.45455 13.3408C1.65122 13.3408 1 12.7465 1 12.0134V10.686C1 10.0653 1.46682 9.54416 2.09753 9.39892ZM2.09753 9.39892L2.0157 8.90107C1.44973 5.45779 3.98283 2.2268 7.73663 1.60396C8.57203 1.46535 9.42797 1.46535 10.2634 1.60396C14.0172 2.2268 16.5503 5.45779 15.9843 8.90107L15.9025 9.39892M15.9025 9.39892C15.7882 9.37262 15.6686 9.35864 15.5455 9.35864C14.7421 9.35864 14.0909 9.95293 14.0909 10.686V12.0134C14.0909 12.7465 14.7421 13.3408 15.5455 13.3408C16.3488 13.3408 17 12.7465 17 12.0134V10.686C17 10.0653 16.5332 9.54416 15.9025 9.39892Z" stroke="#141414" stroke-width="1.5"/>
</svg>
