<svg width="22" height="21" viewBox="0 0 22 21" fill="none" xmlns="http://www.w3.org/2000/svg">
<path d="M11 20.15C10.69 20.15 10.39 20.11 10.14 20.02C6.32 18.71 0.25 14.06 0.25 7.19001C0.25 3.69001 3.08 0.850006 6.56 0.850006C8.25 0.850006 9.83 1.51001 11 2.69001C12.17 1.51001 13.75 0.850006 15.44 0.850006C18.92 0.850006 21.75 3.70001 21.75 7.19001C21.75 14.07 15.68 18.71 11.86 20.02C11.61 20.11 11.31 20.15 11 20.15ZM6.56 2.35001C3.91 2.35001 1.75 4.52001 1.75 7.19001C1.75 14.02 8.32 17.82 10.63 18.61C10.81 18.67 11.2 18.67 11.38 18.61C13.68 17.82 20.26 14.03 20.26 7.19001C20.26 4.52001 18.1 2.35001 15.45 2.35001C13.93 2.35001 12.52 3.06001 11.61 4.29001C11.33 4.67001 10.69 4.67001 10.41 4.29001C9.48 3.05001 8.08 2.35001 6.56 2.35001Z" fill="#196719"/>
</svg>
