<svg width="24" height="25" viewBox="0 0 24 25" fill="none" xmlns="http://www.w3.org/2000/svg">
<path d="M9.1058 14.1481L9.43059 14.7165L9.89348 14.2536L13.7535 10.3936L14.2164 9.93068L13.648 9.60589C13.1527 9.32285 12.5872 9.17001 11.9999 9.17001C10.1638 9.17001 8.66992 10.6639 8.66992 12.5C8.66992 13.0873 8.82276 13.6528 9.1058 14.1481ZM9.46992 15.28C9.40537 15.28 9.34476 15.2577 9.29347 15.2065C8.56714 14.4801 8.16992 13.5173 8.16992 12.5C8.16992 10.3862 9.88606 8.67001 11.9999 8.67001C13.0172 8.67001 13.98 9.06723 14.7064 9.79357C14.7537 9.84087 14.7799 9.90413 14.7799 9.97001C14.7799 10.0359 14.7537 10.0992 14.7064 10.1465L9.64637 15.2065C9.59508 15.2578 9.53447 15.28 9.46992 15.28Z" fill="#858585" stroke="#858585"/>
<path d="M5.43402 18.4491L5.43549 18.4504C5.47936 18.488 5.54199 18.51 5.60009 18.51C5.67139 18.51 5.7357 18.4788 5.77412 18.4322L5.77791 18.4276L5.77794 18.4276C5.87064 18.3177 5.85695 18.1595 5.75254 18.0678C4.76232 17.2129 3.87187 16.1653 3.09915 14.9598C2.65874 14.2728 2.45759 13.3689 2.45759 12.5C2.45759 11.6313 2.65862 10.7277 3.09878 10.0408C5.32507 6.54705 8.55683 4.48001 12.0001 4.48001C13.9887 4.48001 15.9529 5.17166 17.6716 6.47118L17.672 6.47146C17.7769 6.55093 17.9345 6.533 18.0215 6.41808C18.1009 6.31333 18.0831 6.15603 17.9686 6.0689C16.1476 4.69863 14.0819 3.98001 12.0001 3.98001C8.45889 3.98001 5.05224 6.05756 2.6815 9.76911L5.43402 18.4491ZM5.43402 18.4491C4.40577 17.5746 3.47829 16.4941 2.68299 15.2333L2.683 15.2333M5.43402 18.4491L2.683 15.2333M2.683 15.2333L2.68076 15.2298M2.683 15.2333L2.68076 15.2298M2.68076 15.2298C2.21371 14.5028 1.96509 13.5172 1.96509 12.5038M2.68076 15.2298L1.96509 12.5038M1.96509 12.5038C1.96509 11.4905 2.21365 10.5018 2.68146 9.76916L1.96509 12.5038Z" fill="#858585" stroke="#858585"/>
<path d="M8.31409 20.2592L8.31524 20.2597C9.50551 20.7643 10.7393 21.02 12.0001 21.02C15.5413 21.02 18.9479 18.9424 21.3187 15.2309L8.31409 20.2592ZM8.31409 20.2592C8.18782 20.206 8.12837 20.0587 8.18088 19.934C8.23398 19.8079 8.38093 19.7485 8.50555 19.8006M8.31409 20.2592L20.8919 10.0415C21.3317 10.7284 21.5326 11.6317 21.5326 12.5C21.5326 13.3687 21.3315 14.2723 20.8914 14.9593C18.6651 18.453 15.4333 20.52 11.9901 20.52C10.8011 20.52 9.62506 20.2757 8.50555 19.8006M21.3169 9.76642L21.3169 9.76641C20.9893 9.24595 20.6216 8.74254 20.2427 8.27619C20.1503 8.16368 19.9975 8.15 19.8889 8.23522C19.7734 8.33576 19.7669 8.49415 19.8477 8.59416C19.8478 8.59434 19.848 8.59452 19.8481 8.5947L19.4601 8.91L21.3169 9.76642ZM21.3169 9.76642L21.3194 9.77025M21.3169 9.76642L21.3194 9.77025M8.50555 19.8006C8.50526 19.8005 8.50497 19.8004 8.50468 19.8002L8.70006 19.34L8.50603 19.8008C8.50587 19.8007 8.50571 19.8007 8.50555 19.8006ZM21.3194 9.77025C21.7864 10.4973 22.0351 11.4828 22.0351 12.4962M21.3194 9.77025L22.0351 12.4962M22.0351 12.4962C22.0351 13.5095 21.7865 14.4982 21.3187 15.2308L22.0351 12.4962Z" fill="#858585" stroke="#858585"/>
<path d="M12.4409 16.0646L12.4408 16.0643C12.4146 15.9296 12.5012 15.8056 12.6342 15.7829L12.6342 15.7829L12.6395 15.7819C13.943 15.5449 15.0225 14.4666 15.2613 13.1636C15.2882 13.0314 15.4126 12.9397 15.5601 12.9619C15.7028 12.9928 15.7847 13.1243 15.7593 13.2543L15.7584 13.2591C15.4803 14.7626 14.2909 15.9615 12.8032 16.2658C12.7749 16.2651 12.7509 16.266 12.7323 16.267L12.7071 16.2687L12.6923 16.2697C12.6903 16.2699 12.6889 16.27 12.6881 16.27C12.5715 16.269 12.4638 16.1824 12.4409 16.0646Z" fill="#858585" stroke="#858585"/>
<path d="M1.99994 22.75C1.93539 22.75 1.87478 22.7277 1.82349 22.6764C1.72876 22.5817 1.72876 22.4183 1.82349 22.3236L9.29349 14.8536C9.38823 14.7588 9.55165 14.7588 9.64639 14.8536C9.74113 14.9483 9.74113 15.1117 9.64639 15.2064L2.17639 22.6764C2.1251 22.7277 2.06449 22.75 1.99994 22.75Z" fill="#858585" stroke="#858585"/>
<path d="M14.53 10.22C14.4654 10.22 14.4048 10.1977 14.3535 10.1464C14.2588 10.0517 14.2588 9.88829 14.3535 9.79356L21.8235 2.32356C21.9183 2.22882 22.0817 2.22882 22.1764 2.32356C22.2712 2.41829 22.2712 2.58171 22.1764 2.67645L14.7064 10.1464C14.6551 10.1977 14.5945 10.22 14.53 10.22Z" fill="#858585" stroke="#858585"/>
</svg>
