<svg width="17" height="16" viewBox="0 0 17 16" fill="none" xmlns="http://www.w3.org/2000/svg">
<rect x="1" y="0.5" width="15" height="15" rx="7.5" fill="#FFD663"/>
<path fill-rule="evenodd" clip-rule="evenodd" d="M1.03703 7.25C1.01254 7.49668 1 7.74688 1 8C1 12.1421 4.35786 15.5 8.5 15.5C12.6421 15.5 16 12.1421 16 8C16 7.74688 15.9875 7.49668 15.963 7.25C15.5867 11.04 12.389 14 8.5 14C4.61099 14 1.41332 11.04 1.03703 7.25Z" fill="#FFD04C"/>
<circle cx="3.25" cy="9.25" r="1.25" fill="#FF759B" fill-opacity="0.2"/>
<circle cx="13.75" cy="9.25" r="1.25" fill="#FF759B" fill-opacity="0.2"/>
<path fill-rule="evenodd" clip-rule="evenodd" d="M12.7146 10.0484C12.964 10.1669 13.0702 10.4651 12.9518 10.7146C12.5037 11.6584 11.8089 12.1526 11.1125 12.3657C10.4358 12.5727 9.77556 12.5103 9.35382 12.3813C9.08977 12.3005 8.94121 12.0209 9.02202 11.7568C9.10282 11.4928 9.38239 11.3442 9.64644 11.425C9.90395 11.5038 10.3588 11.5505 10.8199 11.4094C11.2612 11.2744 11.7268 10.9632 12.0485 10.2857C12.1669 10.0362 12.4651 9.93 12.7146 10.0484Z" fill="#52565F"/>
<path fill-rule="evenodd" clip-rule="evenodd" d="M10.5042 3.69566C10.3054 3.50399 10.2996 3.18746 10.4913 2.98867C10.9034 2.56129 11.5469 2.50265 12.0444 2.60795C12.5496 2.7149 13.1203 3.03576 13.3314 3.63252C13.4235 3.89286 13.2871 4.17855 13.0267 4.27063C12.7664 4.36271 12.4807 4.22631 12.3886 3.96597C12.3361 3.81741 12.1478 3.65201 11.8373 3.58627C11.5189 3.51889 11.2899 3.60116 11.2111 3.6828C11.0195 3.88158 10.7029 3.88734 10.5042 3.69566Z" fill="#52565F"/>
<path d="M4.67742 9.5C8.5 9.5 7.5 5.5 8.5 5.5C9.5 5.5 9 9.5 12.5524 9.5C15.0323 9.5 15.4395 7.36905 15.5 6L16 5.69047V4.5H12.7339C10.5 4.5 10 5 8.5 5C7 5 6.46774 4.5 4.48387 4.5H1V5.75L1.5 6C1.5 7.5 2.03226 9.5 4.67742 9.5Z" fill="#52565F"/>
<path d="M5 5.00003L2.5 8.00003C2.5 8.00003 2.77296 8.34285 3 8.50003C3.17949 8.6243 3.5 8.75003 3.5 8.75003L6 5.25001C6 5.25001 5.83336 5.07417 5.5 5.00003C5.30939 4.95765 5 5.00003 5 5.00003Z" fill="#5F646F"/>
<path d="M13 5L10.5 8C10.5 8 10.773 8.34282 11 8.5C11.1795 8.62427 11.5 8.75 11.5 8.75L14 5H13Z" fill="#5F646F"/>
</svg>
