<svg width="64" height="65" viewBox="0 0 64 65" fill="none" xmlns="http://www.w3.org/2000/svg">
<g filter="url(#filter0_d_128_3810)">
<rect x="16" y="12.5" width="32" height="32" rx="16" fill="white" fill-opacity="0.2"/>
<path d="M41.2699 25.68C40.9799 25.22 40.6699 24.79 40.3499 24.39C39.9799 23.92 39.2799 23.88 38.8599 24.3L35.8599 27.3C36.0799 27.96 36.1199 28.72 35.9199 29.51C35.5699 30.92 34.4299 32.06 33.0199 32.41C32.2299 32.61 31.4699 32.57 30.8099 32.35C30.8099 32.35 29.3799 33.78 28.3499 34.81C27.8499 35.31 28.0099 36.19 28.6799 36.45C29.7499 36.86 30.8599 37.07 31.9999 37.07C33.7799 37.07 35.5099 36.55 37.0899 35.58C38.6999 34.58 40.1499 33.11 41.3199 31.24C42.2699 29.73 42.2199 27.19 41.2699 25.68Z" fill="white"/>
<path d="M34.0201 26.48L29.9801 30.52C29.4701 30 29.1401 29.28 29.1401 28.5C29.1401 26.93 30.4201 25.64 32.0001 25.64C32.7801 25.64 33.5001 25.97 34.0201 26.48Z" fill="white"/>
<path d="M38.25 22.25L34.86 25.64C34.13 24.9 33.12 24.46 32 24.46C29.76 24.46 27.96 26.27 27.96 28.5C27.96 29.62 28.41 30.63 29.14 31.36L25.76 34.75H25.75C24.64 33.85 23.62 32.7 22.75 31.34C21.75 29.77 21.75 27.22 22.75 25.65C23.91 23.83 25.33 22.4 26.91 21.42C28.49 20.46 30.22 19.93 32 19.93C34.23 19.93 36.39 20.75 38.25 22.25Z" fill="white"/>
<path d="M34.8601 28.5C34.8601 30.07 33.5801 31.36 32.0001 31.36C31.9401 31.36 31.8901 31.36 31.8301 31.34L34.8401 28.33C34.8601 28.39 34.8601 28.44 34.8601 28.5Z" fill="white"/>
<path d="M41.7699 18.73C41.4699 18.43 40.9799 18.43 40.6799 18.73L22.2299 37.19C21.9299 37.49 21.9299 37.98 22.2299 38.28C22.3799 38.42 22.5699 38.5 22.7699 38.5C22.9699 38.5 23.1599 38.42 23.3099 38.27L41.7699 19.81C42.0799 19.51 42.0799 19.03 41.7699 18.73Z" fill="white"/>
</g>
<defs>
<filter id="filter0_d_128_3810" x="0" y="0.5" width="64" height="64" filterUnits="userSpaceOnUse" color-interpolation-filters="sRGB">
<feFlood flood-opacity="0" result="BackgroundImageFix"/>
<feColorMatrix in="SourceAlpha" type="matrix" values="0 0 0 0 0 0 0 0 0 0 0 0 0 0 0 0 0 0 127 0" result="hardAlpha"/>
<feOffset dy="4"/>
<feGaussianBlur stdDeviation="8"/>
<feColorMatrix type="matrix" values="0 0 0 0 0.08 0 0 0 0 0.08 0 0 0 0 0.08 0 0 0 0.08 0"/>
<feBlend mode="normal" in2="BackgroundImageFix" result="effect1_dropShadow_128_3810"/>
<feBlend mode="normal" in="SourceGraphic" in2="effect1_dropShadow_128_3810" result="shape"/>
</filter>
</defs>
</svg>
