<svg width="25" height="24" viewBox="0 0 25 24" fill="none" xmlns="http://www.w3.org/2000/svg">
<path d="M12.5099 22.75C11.8799 22.75 11.2499 22.54 10.7599 22.12L9.17988 20.76C9.01988 20.62 8.61989 20.48 8.40989 20.48H6.67988C5.19988 20.48 3.99989 19.28 3.99989 17.8V16.09C3.99989 15.88 3.85989 15.49 3.71989 15.33L2.36988 13.74C1.54988 12.77 1.54988 11.24 2.36988 10.27L3.71989 8.68005C3.85989 8.52005 3.99989 8.13004 3.99989 7.92004V6.20996C3.99989 4.72996 5.19988 3.53002 6.67988 3.53002H8.40989C8.61989 3.53002 9.01988 3.38 9.17988 3.25L10.7599 1.89001C11.7399 1.05001 13.2699 1.05001 14.2499 1.89001L15.8299 3.25C15.9899 3.39 16.3899 3.53002 16.5999 3.53002H18.2999C19.7799 3.53002 20.9799 4.72996 20.9799 6.20996V7.91003C20.9799 8.12003 21.1299 8.52005 21.2699 8.68005L22.6199 10.26C23.4599 11.24 23.4599 12.77 22.6199 13.75L21.2699 15.33C21.1299 15.49 20.9899 15.89 20.9899 16.1V17.8C20.9899 19.28 19.7899 20.48 18.3099 20.48H16.6099C16.3999 20.48 15.9999 20.63 15.8399 20.76L14.2599 22.12C13.7599 22.54 13.1299 22.75 12.5099 22.75ZM6.67988 5.02001C6.02988 5.02001 5.49989 5.54995 5.49989 6.19995V7.91003C5.49989 8.48003 5.22988 9.21001 4.86988 9.64001L3.51988 11.23C3.16988 11.64 3.16988 12.35 3.51988 12.76L4.86988 14.35C5.23988 14.79 5.5099 15.52 5.5099 16.08V17.79C5.5099 18.44 6.03989 18.97 6.68989 18.97H8.4199C8.9999 18.97 9.7299 19.24 10.1699 19.62L11.7499 20.98C12.1599 21.33 12.8799 21.33 13.2899 20.98L14.8699 19.62C15.3099 19.25 16.0399 18.97 16.6199 18.97H18.3199C18.9699 18.97 19.4999 18.44 19.4999 17.79V16.09C19.4999 15.51 19.7699 14.78 20.1499 14.34L21.4999 12.76C21.8499 12.35 21.8499 11.63 21.4999 11.22L20.1499 9.64001C19.7799 9.20001 19.4999 8.47001 19.4999 7.89001V6.18994C19.4999 5.53994 18.9699 5.01 18.3199 5.01H16.6199C16.0499 5.01 15.3099 4.73998 14.8699 4.35998L13.2899 3C12.8799 2.65 12.1599 2.65 11.7499 3L10.1699 4.35998C9.7299 4.72998 8.9999 5.01 8.4199 5.01H6.67988V5.02001Z" fill="#196719"/>
<path d="M14.4998 16.97H12.7198C12.2998 16.97 11.6697 16.84 11.2997 16.47L9.91977 15.41L10.8398 14.22L12.2898 15.3399C12.3898 15.4099 12.5698 15.4599 12.7198 15.4599H14.4998C14.7398 15.4599 15.0297 15.25 15.0797 15.04L16.2198 11.5699C16.2498 11.4799 16.2497 11.42 16.2397 11.4C16.2197 11.37 16.1497 11.3399 16.0497 11.3399H14.1797C13.8197 11.3399 13.4898 11.19 13.2498 10.92C13.0198 10.65 12.9097 10.29 12.9597 9.92002L13.1998 8.41001C13.2198 8.33001 13.1598 8.22994 13.0998 8.20994C13.0398 8.19994 12.9498 8.21998 12.9198 8.24998L11.0098 11.0899L9.75977 10.25L11.6797 7.4C12.0797 6.8 12.9198 6.54002 13.5998 6.79002C14.3598 7.04002 14.8497 7.90003 14.6797 8.68003L14.4998 9.81993H16.0497C16.6397 9.81993 17.1598 10.07 17.4698 10.51C17.7698 10.94 17.8397 11.5 17.6497 12.03L16.5298 15.43C16.3198 16.29 15.4298 16.97 14.4998 16.97Z" fill="#196719"/>
<path d="M9.40024 16.46H8.93024C7.46024 16.46 7.24023 15.4299 7.24023 14.8199V10.24C7.24023 9.62999 7.46024 8.59998 8.93024 8.59998H9.40024C10.8702 8.59998 11.0902 9.62999 11.0902 10.24V14.8199C11.0902 15.4299 10.8702 16.46 9.40024 16.46ZM8.76025 14.95C8.80025 14.96 8.86025 14.96 8.94025 14.96H9.41025C9.49025 14.96 9.55024 14.96 9.59024 14.95C9.59024 14.92 9.60025 14.8799 9.60025 14.8199V10.24C9.60025 10.18 9.60024 10.14 9.59024 10.11C9.55024 10.1 9.49025 10.1 9.41025 10.1H8.94025C8.86025 10.1 8.80025 10.1 8.76025 10.11C8.76025 10.14 8.75024 10.18 8.75024 10.24V14.8199C8.75024 14.8799 8.75025 14.92 8.76025 14.95Z" fill="#196719"/>
</svg>
