<svg width="24" height="24" viewBox="0 0 24 24" fill="none" xmlns="http://www.w3.org/2000/svg">
<path d="M7.57517 3.58997C4.15764 3.58997 1.24609 6.14536 1.24609 9.46417C1.24609 11.7537 2.31816 13.6812 3.739 15.278C5.15496 16.8692 6.98176 18.2048 8.63326 19.3227L11.4827 21.2515C11.7948 21.4628 12.204 21.4628 12.516 21.2515L15.3655 19.3227C17.017 18.2048 18.8438 16.8692 20.2597 15.278C21.6806 13.6812 22.7527 11.7537 22.7527 9.46417C22.7527 6.14536 19.8411 3.58997 16.4236 3.58997C14.6619 3.58997 13.1118 4.416 11.9994 5.48483C10.887 4.416 9.33683 3.58997 7.57517 3.58997Z" fill="#FF5247"/>
</svg>
