<svg width="25" height="25" viewBox="0 0 25 25" fill="none" xmlns="http://www.w3.org/2000/svg">
<path d="M16.75 19.0811H15.24C14.83 19.0811 14.49 18.7411 14.49 18.3311C14.49 17.9211 14.83 17.5811 15.24 17.5811H16.75C19.37 17.5811 21.5 15.4511 21.5 12.8311C21.5 10.2111 19.37 8.08105 16.75 8.08105H15.25C14.84 8.08105 14.5 7.74105 14.5 7.33105C14.5 6.92105 14.83 6.58105 15.25 6.58105H16.75C20.2 6.58105 23 9.38105 23 12.8311C23 16.2811 20.2 19.0811 16.75 19.0811Z" fill="#196719"/>
<path d="M9.25 19.0811H7.75C4.3 19.0811 1.5 16.2811 1.5 12.8311C1.5 9.38105 4.3 6.58105 7.75 6.58105H9.25C9.66 6.58105 10 6.92105 10 7.33105C10 7.74105 9.66 8.08105 9.25 8.08105H7.75C5.13 8.08105 3 10.2111 3 12.8311C3 15.4511 5.13 17.5811 7.75 17.5811H9.25C9.66 17.5811 10 17.9211 10 18.3311C10 18.7411 9.66 19.0811 9.25 19.0811Z" fill="#196719"/>
<path d="M16.25 13.5811H8.25C7.84 13.5811 7.5 13.2411 7.5 12.8311C7.5 12.4211 7.84 12.0811 8.25 12.0811H16.25C16.66 12.0811 17 12.4211 17 12.8311C17 13.2411 16.66 13.5811 16.25 13.5811Z" fill="#196719"/>
</svg>
