<svg width="216" height="216" viewBox="0 0 216 216" fill="none" xmlns="http://www.w3.org/2000/svg">
<g id="Loader" filter="url(#filter0_d_914_49190)">
<rect x="24" y="16" width="168" height="168" rx="48" fill="white"/>
<g id="Group 1770">
<circle id="Ellipse 5" cx="108" cy="100" r="52.2581" fill="white"/>
<circle id="Ellipse 8" cx="108" cy="100" r="30.9677" fill="#CCFF33"/>
<path id="Ellipse 7" d="M168 100C168 133.137 141.137 160 108 160C74.8629 160 48 133.137 48 100C48 66.8629 74.8629 40 108 40C141.137 40 168 66.8629 168 100ZM58.9148 100C58.9148 127.109 80.891 149.085 108 149.085C135.109 149.085 157.085 127.109 157.085 100C157.085 72.891 135.109 50.9148 108 50.9148C80.891 50.9148 58.9148 72.891 58.9148 100Z" fill="#196719" fill-opacity="0.2"/>
<path id="Ellipse 4" d="M150.58 100C150.58 123.517 131.516 142.581 108 142.581C84.4832 142.581 65.4192 123.517 65.4192 100C65.4192 76.4834 84.4832 57.4194 108 57.4194C131.516 57.4194 150.58 76.4834 150.58 100ZM74.7869 100C74.7869 118.343 89.6569 133.213 108 133.213C126.343 133.213 141.213 118.343 141.213 100C141.213 81.6571 126.343 66.7872 108 66.7872C89.6569 66.7872 74.7869 81.6571 74.7869 100Z" fill="#70E000"/>
<path id="Ellipse 6" d="M150.58 100C150.58 105.592 149.479 111.129 147.339 116.295C145.199 121.461 142.063 126.155 138.109 130.109C134.155 134.063 129.461 137.2 124.295 139.339C119.129 141.479 113.592 142.581 108 142.581C102.408 142.581 96.871 141.479 91.7049 139.339C86.5388 137.2 81.8447 134.063 77.8908 130.109C73.9368 126.155 70.8003 121.461 68.6604 116.295C66.5206 111.129 65.4192 105.592 65.4192 100H74.7869C74.7869 104.362 75.646 108.681 77.3151 112.71C78.9842 116.74 81.4307 120.401 84.5148 123.485C87.5989 126.569 91.2602 129.016 95.2898 130.685C99.3194 132.354 103.638 133.213 108 133.213C112.361 133.213 116.68 132.354 120.71 130.685C124.739 129.016 128.401 126.569 131.485 123.485C134.569 120.401 137.015 116.74 138.685 112.71C140.354 108.681 141.213 104.362 141.213 100H150.58Z" fill="#196719"/>
<g id="icons / football">
<path id="Vector" d="M108 68.5488C90.6575 68.5488 76.5481 82.6582 76.5481 100C76.5481 117.343 90.6575 131.452 108 131.452C125.342 131.452 139.451 117.343 139.451 100C139.451 82.6582 125.342 68.5488 108 68.5488ZM129.623 114.517H122.785C122.573 114.516 122.365 114.46 122.182 114.354C121.998 114.248 121.846 114.095 121.74 113.912L119.3 109.726C119.139 109.453 119.092 109.127 119.17 108.819L121.417 99.7585C121.462 99.5759 121.549 99.4064 121.671 99.2634C121.793 99.1203 121.946 99.0077 122.12 98.9344L126.369 97.135C126.576 97.047 126.804 97.0187 127.027 97.0535C127.25 97.0882 127.459 97.1845 127.63 97.3316L133.925 102.748C134.08 102.882 134.198 103.052 134.27 103.244C134.341 103.436 134.362 103.643 134.331 103.846C133.81 107.422 132.56 110.854 130.66 113.928C130.553 114.108 130.401 114.256 130.219 114.359C130.037 114.462 129.832 114.516 129.623 114.517ZM89.6308 97.1471L93.8797 98.9465C94.0529 99.0198 94.2067 99.1324 94.3287 99.2755C94.4508 99.4185 94.5378 99.588 94.5829 99.7706L96.8299 108.831C96.9072 109.139 96.8605 109.465 96.6998 109.738L94.2593 113.912C94.1533 114.095 94.0011 114.248 93.8177 114.354C93.6343 114.46 93.4263 114.516 93.2144 114.517H86.3767C86.1699 114.517 85.9665 114.464 85.786 114.363C85.6055 114.262 85.4538 114.117 85.3455 113.94C83.445 110.866 82.1954 107.434 81.6741 103.858C81.6435 103.655 81.6647 103.448 81.7358 103.256C81.807 103.064 81.9257 102.894 82.0809 102.76L88.3757 97.3437C88.5461 97.1978 88.7537 97.1021 88.9754 97.0674C89.197 97.0327 89.4239 97.0603 89.6308 97.1471ZM128.483 83.9556L125.75 91.7247C125.695 91.8835 125.608 92.0291 125.494 92.1523C125.379 92.2754 125.241 92.3734 125.086 92.44L120.614 94.3346C120.408 94.4214 120.183 94.4499 119.963 94.4168C119.742 94.3837 119.535 94.2904 119.365 94.1471L110.858 87.0115C110.722 86.8991 110.612 86.7582 110.536 86.5989C110.46 86.4396 110.42 86.2656 110.419 86.0892V81.0115C110.419 80.8126 110.468 80.6167 110.562 80.4413C110.656 80.2659 110.792 80.1164 110.957 80.006L117.434 75.6905C117.603 75.5776 117.797 75.5092 118 75.4915C118.202 75.4738 118.406 75.5074 118.592 75.5892C122.318 77.2145 125.625 79.6677 128.262 82.7625C128.4 82.9243 128.494 83.1199 128.533 83.3294C128.571 83.5389 128.554 83.7549 128.483 83.9556ZM98.5642 75.6905L105.042 80.006C105.208 80.1164 105.343 80.2659 105.437 80.4413C105.531 80.6167 105.58 80.8126 105.58 81.0115V86.0892C105.58 86.2659 105.542 86.4404 105.467 86.6006C105.392 86.7607 105.283 86.9025 105.148 87.0161L96.6408 94.1517C96.4701 94.2949 96.2632 94.3883 96.0428 94.4213C95.8224 94.4544 95.5971 94.426 95.3918 94.3392L90.913 92.44C90.7578 92.3742 90.618 92.2768 90.5027 92.1539C90.3873 92.031 90.2989 91.8853 90.2432 91.7262L87.5108 83.9571C87.4398 83.7557 87.4234 83.5391 87.4632 83.3292C87.5031 83.1194 87.5977 82.9239 87.7376 82.7625C90.3755 79.6646 93.6852 77.2092 97.415 75.5831C97.6004 75.5038 97.8026 75.4721 98.0033 75.4909C98.204 75.5096 98.3968 75.5782 98.5642 75.6905ZM101.182 125.206L98.1983 117.692C98.1301 117.521 98.1017 117.337 98.1153 117.154C98.129 116.97 98.1842 116.792 98.2769 116.634L100.571 112.702C100.677 112.519 100.829 112.366 101.012 112.26C101.196 112.154 101.404 112.098 101.616 112.097H114.384C114.596 112.098 114.804 112.154 114.987 112.26C115.17 112.366 115.323 112.519 115.429 112.702L117.724 116.634C117.817 116.792 117.872 116.97 117.886 117.153C117.9 117.337 117.872 117.521 117.804 117.692L114.842 125.203C114.77 125.386 114.653 125.549 114.503 125.678C114.353 125.806 114.174 125.896 113.982 125.939C110.051 126.841 105.967 126.841 102.036 125.939C101.845 125.895 101.667 125.805 101.518 125.678C101.369 125.55 101.254 125.388 101.182 125.206Z" fill="#196719"/>
</g>
</g>
</g>
<defs>
<filter id="filter0_d_914_49190" x="0" y="0" width="216" height="216" filterUnits="userSpaceOnUse" color-interpolation-filters="sRGB">
<feFlood flood-opacity="0" result="BackgroundImageFix"/>
<feColorMatrix in="SourceAlpha" type="matrix" values="0 0 0 0 0 0 0 0 0 0 0 0 0 0 0 0 0 0 127 0" result="hardAlpha"/>
<feOffset dy="8"/>
<feGaussianBlur stdDeviation="12"/>
<feColorMatrix type="matrix" values="0 0 0 0 0.08 0 0 0 0 0.08 0 0 0 0 0.08 0 0 0 0.16 0"/>
<feBlend mode="normal" in2="BackgroundImageFix" result="effect1_dropShadow_914_49190"/>
<feBlend mode="normal" in="SourceGraphic" in2="effect1_dropShadow_914_49190" result="shape"/>
</filter>
</defs>
</svg>
