<svg width="56" height="58" viewBox="0 0 56 58" fill="none" xmlns="http://www.w3.org/2000/svg">
<rect y="0.943359" width="55.71" height="56.1151" rx="8" fill="#BDFFBD"/>
<path d="M36.71 8.94336H18.9978C18.7602 8.94555 18.5255 8.9945 18.3069 9.08742C18.0883 9.18033 17.8902 9.3154 17.7238 9.4849C17.5574 9.6544 17.426 9.85502 17.3371 10.0753C17.2483 10.2956 17.2037 10.5312 17.2059 10.7687V47.2331C17.2017 47.7127 17.3881 48.1744 17.7241 48.5166C18.0601 48.8589 18.5182 49.0538 18.9978 49.0585H36.71C37.1899 49.0541 37.6484 48.8593 37.9848 48.5171C38.3212 48.1748 38.508 47.713 38.5041 47.2331V10.7687C38.5062 10.531 38.4614 10.2953 38.3724 10.075C38.2833 9.8546 38.1518 9.65394 37.9852 9.48444C37.8186 9.31494 37.6202 9.17991 37.4014 9.08708C37.1826 8.99424 36.9477 8.9454 36.71 8.94336ZM37.3795 46.1062C37.3839 47.0669 36.671 47.8479 35.7784 47.8479H19.935C19.0424 47.8479 18.3283 47.0669 18.3283 46.1118V12.1511C18.3283 10.1963 19.0468 10.1004 19.935 10.1004H23.1092C23.2933 10.1004 23.444 10.3101 23.444 10.5701V10.6817C23.444 11.2909 23.7787 11.2931 24.187 11.2931H31.5286C31.9414 11.2931 32.2705 11.2931 32.2705 10.6817V10.5701C32.2705 10.3101 32.42 10.1004 32.6053 10.1004H35.7784C36.6654 10.1004 37.384 10.3603 37.384 12.1511L37.3795 46.1062Z" fill="#041004"/>
<path d="M28.8609 10.5317H26.8526C26.8364 10.5319 26.8203 10.5288 26.8053 10.5227C26.7903 10.5166 26.7766 10.5076 26.7651 10.4962C26.7536 10.4848 26.7444 10.4712 26.7382 10.4562C26.732 10.4413 26.7288 10.4252 26.7288 10.409C26.7286 10.3927 26.7317 10.3765 26.7379 10.3614C26.7441 10.3463 26.7532 10.3326 26.7647 10.3211C26.7762 10.3096 26.7899 10.3005 26.805 10.2943C26.8201 10.2881 26.8363 10.285 26.8526 10.2852H28.8609C28.8772 10.285 28.8934 10.2881 28.9085 10.2943C28.9236 10.3005 28.9373 10.3096 28.9488 10.3211C28.9604 10.3326 28.9695 10.3463 28.9757 10.3614C28.9818 10.3765 28.9849 10.3927 28.9848 10.409C28.9848 10.4252 28.9816 10.4413 28.9753 10.4562C28.9691 10.4712 28.96 10.4848 28.9484 10.4962C28.9369 10.5076 28.9233 10.5166 28.9082 10.5227C28.8932 10.5288 28.8771 10.5319 28.8609 10.5317Z" fill="white"/>
<path d="M37.3839 12.1503V46.1055C37.3839 47.0661 36.6709 47.8471 35.7784 47.8471H19.9349C19.0423 47.8471 18.3271 47.0661 18.3271 46.1111V12.1503C18.3271 10.1956 19.0457 10.0996 19.9349 10.0996H23.1081C23.2922 10.0996 23.4428 10.3094 23.4428 10.5693V10.6809C23.4428 11.2901 23.7775 11.2923 24.1859 11.2923H31.5263C31.9391 11.2923 32.2694 11.2923 32.2694 10.6809V10.5693C32.2694 10.3094 32.4178 10.0996 32.6041 10.0996H35.7784C36.6709 10.0996 37.3839 10.3585 37.3839 12.1503Z" fill="white"/>
<path d="M22.558 10.863L22.5279 10.8931L22.51 10.9109C22.4716 10.8719 22.4258 10.8409 22.3752 10.8198C22.3246 10.7987 22.2703 10.788 22.2155 10.7882C22.1603 10.7879 22.1057 10.7986 22.0547 10.8197C22.0038 10.8408 21.9575 10.8718 21.9187 10.9109L21.902 10.8942L21.8718 10.863L21.9098 10.8295C21.9376 10.8068 21.9679 10.7874 22.0001 10.7715C22.0375 10.753 22.0774 10.7398 22.1184 10.7324C22.138 10.7288 22.1577 10.7262 22.1775 10.7246H22.23C22.2434 10.7246 22.2568 10.7246 22.2701 10.7246C22.3084 10.7279 22.3459 10.7365 22.3817 10.7503C22.4073 10.7595 22.4319 10.7711 22.4554 10.7849C22.4805 10.7986 22.5041 10.8151 22.5256 10.834L22.558 10.863Z" fill="#A3A3A3"/>
<path d="M22.0157 11.0059L21.9678 10.958C22.0002 10.9255 22.0387 10.8997 22.0811 10.8821C22.1235 10.8645 22.169 10.8555 22.2149 10.8555C22.2608 10.8555 22.3063 10.8645 22.3487 10.8821C22.3911 10.8997 22.4296 10.9255 22.462 10.958L22.413 11.007C22.3871 10.9806 22.3562 10.9597 22.3221 10.9455C22.2879 10.9313 22.2513 10.9242 22.2143 10.9245C22.1775 10.9243 22.141 10.9314 22.1069 10.9453C22.0728 10.9593 22.0418 10.9799 22.0157 11.0059Z" fill="#A3A3A3"/>
<path d="M22.3651 11.0539L22.316 11.103C22.3029 11.0893 22.2871 11.0785 22.2696 11.0713C22.2521 11.064 22.2334 11.0603 22.2144 11.0606C22.1955 11.0604 22.1768 11.0641 22.1593 11.0713C22.1419 11.0786 22.1261 11.0894 22.1129 11.103C22.0973 11.0862 22.0806 11.0706 22.0649 11.055C22.0846 11.0352 22.1079 11.0195 22.1336 11.0087C22.1593 10.9979 22.1869 10.9923 22.2148 10.9922C22.2427 10.9921 22.2703 10.9975 22.2961 11.0081C22.3219 11.0187 22.3453 11.0342 22.3651 11.0539Z" fill="#A3A3A3"/>
<path d="M22.2579 11.147C22.2579 11.1586 22.2533 11.1697 22.2452 11.1778C22.237 11.186 22.226 11.1906 22.2144 11.1906C22.203 11.1903 22.1921 11.1856 22.184 11.1775C22.1759 11.1694 22.1712 11.1585 22.1709 11.147C22.1709 11.1355 22.1755 11.1244 22.1836 11.1163C22.1918 11.1081 22.2029 11.1035 22.2144 11.1035C22.2202 11.1034 22.2259 11.1044 22.2312 11.1065C22.2366 11.1087 22.2414 11.1119 22.2455 11.1159C22.2496 11.12 22.2528 11.1249 22.2549 11.1302C22.2571 11.1356 22.2581 11.1413 22.2579 11.147Z" fill="#A3A3A3"/>
<path d="M19.5679 10.9562C19.5679 10.9312 19.5753 10.9068 19.5891 10.8861C19.603 10.8654 19.6227 10.8492 19.6457 10.8397C19.6687 10.8301 19.6941 10.8276 19.7186 10.8325C19.743 10.8374 19.7655 10.8494 19.7831 10.867C19.8007 10.8846 19.8127 10.9071 19.8176 10.9316C19.8225 10.956 19.82 10.9814 19.8104 11.0044C19.8009 11.0274 19.7847 11.0471 19.764 11.061C19.7433 11.0748 19.7189 11.0822 19.694 11.0822C19.6774 11.0824 19.6609 11.0792 19.6455 11.0729C19.6302 11.0667 19.6162 11.0574 19.6045 11.0456C19.5927 11.0339 19.5835 11.0199 19.5772 11.0046C19.5709 10.9892 19.5677 10.9728 19.5679 10.9562Z" fill="#A3A3A3"/>
<path d="M19.9651 10.9564C19.9649 10.9312 19.9721 10.9065 19.986 10.8855C19.9998 10.8644 20.0196 10.8479 20.0428 10.8381C20.0661 10.8283 20.0917 10.8257 20.1164 10.8304C20.1412 10.8352 20.1639 10.8472 20.1818 10.865C20.1997 10.8827 20.212 10.9054 20.217 10.9301C20.2219 10.9548 20.2195 10.9804 20.2099 11.0037C20.2003 11.027 20.184 11.047 20.1631 11.061C20.1421 11.075 20.1175 11.0825 20.0923 11.0825C20.0756 11.0827 20.0591 11.0795 20.0437 11.0732C20.0283 11.067 20.0142 11.0577 20.0024 11.046C19.9906 11.0343 19.9812 11.0203 19.9748 11.0049C19.9684 10.9896 19.9651 10.9731 19.9651 10.9564Z" fill="#A3A3A3"/>
<path d="M20.3635 10.9561C20.3635 10.9313 20.3709 10.9071 20.3846 10.8864C20.3983 10.8658 20.4178 10.8496 20.4406 10.84C20.4635 10.8304 20.4886 10.8277 20.513 10.8323C20.5374 10.8369 20.5598 10.8485 20.5776 10.8658C20.5953 10.8831 20.6076 10.9053 20.6128 10.9295C20.6181 10.9538 20.616 10.979 20.607 11.0021C20.598 11.0252 20.5823 11.0451 20.5621 11.0593C20.5418 11.0736 20.5177 11.0815 20.493 11.0822C20.4761 11.0826 20.4594 11.0797 20.4437 11.0736C20.428 11.0674 20.4137 11.0582 20.4016 11.0465C20.3896 11.0347 20.38 11.0207 20.3734 11.0051C20.3669 10.9896 20.3635 10.973 20.3635 10.9561Z" fill="#A3A3A3"/>
<path d="M20.7617 10.9562C20.7617 10.9396 20.765 10.9232 20.7713 10.9079C20.7776 10.8926 20.7869 10.8787 20.7986 10.867C20.8104 10.8553 20.8243 10.846 20.8395 10.8397C20.8548 10.8333 20.8712 10.8301 20.8878 10.8301C20.9044 10.8301 20.9207 10.8333 20.936 10.8397C20.9513 10.846 20.9652 10.8553 20.9769 10.867C20.9887 10.8787 20.9979 10.8926 21.0043 10.9079C21.0106 10.9232 21.0139 10.9396 21.0139 10.9562C21.0139 10.9727 21.0106 10.9891 21.0043 11.0044C20.9979 11.0197 20.9887 11.0336 20.9769 11.0453C20.9652 11.057 20.9513 11.0663 20.936 11.0726C20.9207 11.079 20.9044 11.0822 20.8878 11.0822C20.8712 11.0822 20.8548 11.079 20.8395 11.0726C20.8243 11.0663 20.8104 11.057 20.7986 11.0453C20.7869 11.0336 20.7776 11.0197 20.7713 11.0044C20.765 10.9891 20.7617 10.9727 20.7617 10.9562Z" fill="#A3A3A3"/>
<path d="M21.1624 10.9564C21.1621 10.9312 21.1694 10.9064 21.1833 10.8853C21.1972 10.8643 21.2171 10.8478 21.2404 10.838C21.2636 10.8283 21.2893 10.8256 21.3141 10.8305C21.3389 10.8354 21.3616 10.8475 21.3795 10.8654C21.3973 10.8832 21.4095 10.906 21.4144 10.9308C21.4192 10.9556 21.4166 10.9812 21.4068 11.0045C21.3971 11.0278 21.3806 11.0476 21.3595 11.0615C21.3384 11.0754 21.3137 11.0827 21.2884 11.0825C21.255 11.0825 21.2229 11.0692 21.1993 11.0456C21.1756 11.0219 21.1624 10.9899 21.1624 10.9564Z" fill="#A3A3A3"/>
<path d="M35.9424 11.2197H34.9382V10.7734H35.9424V11.2197ZM34.9661 11.1918H35.9145V10.7958H34.9661V11.1918Z" fill="#A3A3A3"/>
<path d="M35.6747 10.8359H35.012V11.1506H35.6747V10.8359Z" fill="#A3A3A3"/>
<path d="M36.0461 10.8652H35.9546V11.1196H36.0461V10.8652Z" fill="#A3A3A3"/>
<path d="M26.5926 43.8908C26.5924 43.9466 26.5757 44.0011 26.5445 44.0473C26.5134 44.0936 26.4692 44.1296 26.4176 44.1508C26.366 44.172 26.3093 44.1774 26.2546 44.1664C26.1999 44.1554 26.1497 44.1284 26.1104 44.0889C26.071 44.0494 26.0442 43.9991 26.0334 43.9444C26.0226 43.8896 26.0283 43.8329 26.0497 43.7814C26.0711 43.7299 26.1072 43.6859 26.1536 43.6549C26.2 43.6239 26.2546 43.6074 26.3104 43.6074C26.3475 43.6074 26.3843 43.6148 26.4186 43.629C26.453 43.6433 26.4841 43.6642 26.5104 43.6905C26.5366 43.7168 26.5573 43.7481 26.5715 43.7825C26.5856 43.8168 26.5928 43.8537 26.5926 43.8908Z" fill="#7FEF7F"/>
<path d="M28.3129 43.8922C28.3129 43.9767 28.2878 44.0593 28.2409 44.1296C28.1939 44.1999 28.1272 44.2546 28.0491 44.287C27.971 44.3193 27.8851 44.3278 27.8022 44.3113C27.7193 44.2948 27.6432 44.2541 27.5834 44.1943C27.5237 44.1346 27.483 44.0584 27.4665 43.9755C27.45 43.8926 27.4584 43.8067 27.4908 43.7286C27.5231 43.6506 27.5779 43.5838 27.6482 43.5369C27.7184 43.4899 27.8011 43.4648 27.8856 43.4648C27.9988 43.4651 28.1073 43.5103 28.1874 43.5903C28.2675 43.6704 28.3126 43.7789 28.3129 43.8922Z" fill="#196719"/>
<path d="M29.7423 43.8908C29.7421 43.9466 29.7253 44.0011 29.6942 44.0473C29.663 44.0936 29.6189 44.1296 29.5673 44.1508C29.5157 44.172 29.4589 44.1774 29.4043 44.1664C29.3496 44.1554 29.2994 44.1284 29.26 44.0889C29.2207 44.0494 29.1939 43.9991 29.1831 43.9444C29.1723 43.8896 29.1779 43.8329 29.1993 43.7814C29.2207 43.7299 29.2569 43.6859 29.3033 43.6549C29.3497 43.6239 29.4042 43.6074 29.46 43.6074C29.4972 43.6074 29.534 43.6148 29.5683 43.629C29.6026 43.6433 29.6338 43.6642 29.66 43.6905C29.6862 43.7168 29.707 43.7481 29.7211 43.7825C29.7352 43.8168 29.7424 43.8537 29.7423 43.8908Z" fill="#7FEF7F"/>
<path d="M20.4526 35.5022L22.3025 35.4855L24.1535 35.4799L27.8544 35.4688L31.5553 35.4799L33.4063 35.4855L35.2562 35.5022L33.4063 35.5178L31.5553 35.5234L27.8544 35.5346L24.1535 35.5234L22.3025 35.5178L20.4526 35.5022Z" fill="#104210"/>
<path d="M20.4526 26.6124L22.3025 26.5968L24.1535 26.5912L27.8544 26.5801L31.5553 26.5912L33.4063 26.5968L35.2562 26.6124L33.4063 26.6292L31.5553 26.6347L27.8544 26.6459L24.1535 26.6347L22.3025 26.6292L20.4526 26.6124Z" fill="#196719"/>
<path d="M30.0334 22.2853C29.3783 22.6898 28.6237 22.9041 27.8538 22.9041C27.0839 22.9041 26.3293 22.6898 25.6742 22.2853C24.9075 21.8112 24.3164 21.0999 23.9904 20.2595C23.6644 19.419 23.6214 18.4952 23.8679 17.6281C24.1143 16.7609 24.6368 15.9979 25.3561 15.4545C26.0755 14.9112 26.9523 14.6172 27.8538 14.6172C28.7553 14.6172 29.6321 14.9112 30.3515 15.4545C31.0708 15.9979 31.5933 16.7609 31.8397 17.6281C32.0862 18.4952 32.0432 19.419 31.7172 20.2595C31.3912 21.0999 30.8001 21.8112 30.0334 22.2853Z" fill="#196719"/>
<path d="M27.9569 19.544C28.6509 19.4867 29.167 18.8777 29.1097 18.1838C29.0524 17.4898 28.4434 16.9737 27.7494 17.031C27.0555 17.0883 26.5394 17.6973 26.5967 18.3913C26.654 19.0852 27.263 19.6013 27.9569 19.544Z" fill="white"/>
<path d="M30.0335 21.7634V22.2844C29.3785 22.6889 28.6238 22.9032 27.8539 22.9032C27.084 22.9032 26.3294 22.6889 25.6743 22.2844V21.7656C25.6872 21.1961 25.9225 20.6542 26.3298 20.256C26.7372 19.8577 27.2842 19.6348 27.8539 19.6348C28.4236 19.6348 28.9706 19.8577 29.378 20.256C29.7853 20.6542 30.0206 21.1961 30.0335 21.7656V21.7634Z" fill="white"/>
<path d="M20.4526 39.9046C20.9584 39.8919 21.4635 39.8834 21.9678 39.8789L23.4841 39.8711L25.0004 39.8789C25.5047 39.8834 26.0097 39.8919 26.5155 39.9046C26.0097 39.9172 25.5047 39.9258 25.0004 39.9302L23.4841 39.938L21.9678 39.9258C21.4635 39.9258 20.9584 39.9187 20.4526 39.9046Z" fill="#104210"/>
<path d="M29.1956 39.9046C29.7006 39.8919 30.206 39.8834 30.7118 39.8789L32.227 39.8711L33.7433 39.8789C34.2483 39.8834 34.7538 39.8919 35.2596 39.9046C34.7545 39.9172 34.2491 39.9258 33.7433 39.9302L32.227 39.938L30.7096 39.9258C30.2046 39.9258 29.6999 39.9187 29.1956 39.9046Z" fill="#104210"/>
<path d="M27.4817 40.0454C27.446 40.0073 27.4264 39.957 27.427 39.9048C27.4274 39.8535 27.4469 39.8042 27.4817 39.7664C27.4991 39.7473 27.5203 39.732 27.5439 39.7214C27.5675 39.7108 27.5931 39.7053 27.6189 39.7051C27.6442 39.7051 27.6691 39.7105 27.6921 39.7211C27.715 39.7317 27.7353 39.7472 27.7517 39.7664C27.7877 39.8035 27.8077 39.8532 27.8075 39.9048C27.8081 39.9308 27.8035 39.9566 27.7939 39.9808C27.7843 40.0049 27.77 40.0269 27.7517 40.0454C27.7353 40.0645 27.7149 40.0798 27.692 40.0902C27.669 40.1006 27.6441 40.1059 27.6189 40.1056C27.5931 40.1056 27.5676 40.1003 27.544 40.0899C27.5204 40.0795 27.4991 40.0644 27.4817 40.0454ZM27.514 39.9048C27.513 39.9357 27.5233 39.9658 27.5431 39.9896C27.5638 40.0085 27.5909 40.0188 27.6189 40.0186C27.6462 40.0183 27.6724 40.0079 27.6926 39.9896C27.7135 39.9664 27.7247 39.936 27.7238 39.9048C27.7244 39.8743 27.7132 39.8447 27.6926 39.8222C27.6726 39.8035 27.6463 39.7928 27.6189 39.7921C27.5907 39.7922 27.5636 39.803 27.5431 39.8222C27.5235 39.8452 27.5131 39.8746 27.514 39.9048Z" fill="#104210"/>
<path d="M28.1725 39.7478C28.1725 39.7589 28.1682 39.7695 28.1604 39.7774C28.1527 39.7853 28.1422 39.7899 28.1312 39.7902C28.114 39.7896 28.0971 39.7947 28.0832 39.8047C28.0682 39.8149 28.0556 39.8282 28.0464 39.8438C28.032 39.8642 28.0211 39.8868 28.014 39.9107V40.0614C28.0139 40.0671 28.0126 40.0727 28.0103 40.0779C28.008 40.0831 28.0046 40.0879 28.0005 40.0918C27.9963 40.0957 27.9915 40.0988 27.9861 40.1009C27.9808 40.1029 27.9751 40.1039 27.9694 40.1038C27.9583 40.1035 27.9478 40.0989 27.9401 40.0909C27.9324 40.083 27.9281 40.0724 27.9281 40.0614V39.7478C27.9277 39.7422 27.9283 39.7366 27.9301 39.7313C27.9319 39.7259 27.9348 39.721 27.9386 39.7169C27.9423 39.7127 27.9469 39.7093 27.952 39.707C27.9571 39.7046 27.9627 39.7033 27.9683 39.7032C27.9739 39.7029 27.9796 39.7037 27.9849 39.7057C27.9903 39.7076 27.9952 39.7106 27.9993 39.7144C28.0035 39.7183 28.0068 39.7229 28.0092 39.7281C28.0115 39.7332 28.0128 39.7388 28.0129 39.7445V39.7501C28.0176 39.744 28.0233 39.7387 28.0296 39.7344C28.0589 39.7136 28.0941 39.7026 28.1301 39.7032C28.1359 39.7028 28.1418 39.7038 28.1472 39.7059C28.1527 39.7081 28.1576 39.7114 28.1617 39.7156C28.1657 39.7199 28.1688 39.725 28.1706 39.7305C28.1725 39.7361 28.1731 39.742 28.1725 39.7478Z" fill="#104210"/>
<path d="M28.3856 40.9395H27.2141V42.111H28.3856V40.9395Z" fill="#104210"/>
<path d="M27.6257 41.6525H27.4695V41.4728H27.6223C27.6223 41.4594 27.6223 41.4483 27.6223 41.4382C27.6223 41.3914 27.6223 41.3434 27.6223 41.2965C27.6239 41.2492 27.6425 41.2039 27.6746 41.1691C27.7068 41.1343 27.7504 41.1122 27.7975 41.1069C27.8625 41.1024 27.9278 41.1024 27.9928 41.1069V41.2653H27.9225C27.9013 41.2636 27.88 41.2636 27.8589 41.2653C27.8453 41.2674 27.8329 41.2743 27.8239 41.2847C27.8149 41.2952 27.8099 41.3084 27.8098 41.3222C27.8098 41.368 27.8098 41.4137 27.8098 41.4639H27.9883C27.9805 41.5219 27.9738 41.5755 27.966 41.6313C27.966 41.6313 27.9515 41.6424 27.9437 41.6424C27.9002 41.6424 27.8578 41.6424 27.8109 41.6424V42.1021H27.6212L27.6257 41.6525Z" fill="white"/>
<path d="M28.554 36.9247C28.5538 36.9166 28.5553 36.9085 28.5583 36.901C28.5614 36.8935 28.5659 36.8867 28.5716 36.8809C28.5773 36.8752 28.5842 36.8707 28.5917 36.8677C28.5992 36.8646 28.6072 36.8631 28.6153 36.8633C28.6317 36.8633 28.6474 36.8697 28.6591 36.8812C28.6708 36.8927 28.6775 36.9083 28.6778 36.9247V37.5841C28.6777 37.5921 28.6759 37.6001 28.6727 37.6075C28.6695 37.6148 28.6649 37.6215 28.6591 37.6271C28.6533 37.6327 28.6464 37.6371 28.6389 37.6401C28.6314 37.643 28.6234 37.6445 28.6153 37.6443C28.6073 37.6446 28.5993 37.6433 28.5918 37.6404C28.5842 37.6375 28.5774 37.6331 28.5717 37.6274C28.5659 37.6218 28.5614 37.615 28.5583 37.6076C28.5553 37.6001 28.5538 37.5921 28.554 37.5841V36.9247Z" fill="white"/>
<path d="M20.2058 27.4355V26.9623H20.5025V27.0238H20.2772V27.1679H20.487V27.2292H20.2772V27.374H20.5053V27.4355H20.2058Z" fill="#141414"/>
<path d="M20.5923 27.4355V27.0806H20.6586V27.1384H20.663C20.6704 27.1188 20.6825 27.1036 20.6993 27.0926C20.7161 27.0815 20.7362 27.076 20.7596 27.076C20.7833 27.076 20.8032 27.0815 20.8192 27.0926C20.8354 27.1037 20.8473 27.119 20.855 27.1384H20.8587C20.8672 27.1194 20.8807 27.1043 20.8991 27.0931C20.9176 27.0817 20.9397 27.076 20.9652 27.076C20.9974 27.076 21.0237 27.0861 21.044 27.1063C21.0645 27.1264 21.0747 27.1569 21.0747 27.1975V27.4355H21.0057V27.204C21.0057 27.18 20.9991 27.1626 20.986 27.1518C20.9729 27.141 20.9573 27.1356 20.9391 27.1356C20.9166 27.1356 20.8991 27.1425 20.8867 27.1564C20.8742 27.1701 20.868 27.1877 20.868 27.2093V27.4355H20.7991V27.1996C20.7991 27.1803 20.7931 27.1649 20.7811 27.1532C20.7691 27.1414 20.7534 27.1356 20.7342 27.1356C20.7211 27.1356 20.709 27.1391 20.6979 27.146C20.687 27.1528 20.6781 27.1622 20.6713 27.1744C20.6647 27.1866 20.6614 27.2007 20.6614 27.2167V27.4355H20.5923Z" fill="#141414"/>
<path d="M21.2706 27.4434C21.2481 27.4434 21.2278 27.4392 21.2096 27.4309C21.1914 27.4224 21.177 27.4102 21.1664 27.3941C21.1559 27.3781 21.1507 27.3585 21.1507 27.3352C21.1507 27.3152 21.1546 27.2987 21.1623 27.2858C21.17 27.2728 21.1804 27.2626 21.1934 27.2551C21.2065 27.2475 21.2212 27.2418 21.2373 27.238C21.2535 27.2341 21.27 27.2312 21.2868 27.2292C21.3081 27.2267 21.3253 27.2247 21.3386 27.2232C21.3518 27.2215 21.3614 27.2188 21.3674 27.2151C21.3734 27.2114 21.3764 27.2054 21.3764 27.1971V27.1954C21.3764 27.1753 21.3707 27.1596 21.3593 27.1485C21.3481 27.1374 21.3313 27.1319 21.309 27.1319C21.2857 27.1319 21.2674 27.1371 21.254 27.1474C21.2407 27.1575 21.2316 27.1689 21.2265 27.1813L21.1616 27.1666C21.1693 27.145 21.1805 27.1276 21.1953 27.1143C21.2102 27.1009 21.2274 27.0912 21.2468 27.0852C21.2662 27.0791 21.2866 27.076 21.3081 27.076C21.3222 27.076 21.3372 27.0777 21.3531 27.0811C21.3691 27.0843 21.3841 27.0903 21.3979 27.0991C21.4119 27.1079 21.4234 27.1204 21.4324 27.1368C21.4413 27.1529 21.4458 27.174 21.4458 27.1998V27.4355H21.3783V27.387H21.3755C21.3711 27.3959 21.3644 27.4047 21.3554 27.4133C21.3465 27.4219 21.335 27.4291 21.321 27.4348C21.307 27.4405 21.2902 27.4434 21.2706 27.4434ZM21.2856 27.3879C21.3047 27.3879 21.3211 27.3841 21.3346 27.3766C21.3483 27.369 21.3587 27.3592 21.3658 27.347C21.3731 27.3347 21.3767 27.3215 21.3767 27.3075V27.2618C21.3742 27.2642 21.3694 27.2665 21.3623 27.2687C21.3554 27.2707 21.3475 27.2725 21.3386 27.274C21.3296 27.2754 21.3209 27.2767 21.3124 27.2779C21.304 27.279 21.2969 27.2799 21.2912 27.2807C21.2778 27.2824 21.2655 27.2852 21.2544 27.2892C21.2435 27.2933 21.2347 27.299 21.2281 27.3066C21.2216 27.314 21.2184 27.3238 21.2184 27.3362C21.2184 27.3532 21.2247 27.3662 21.2373 27.375C21.25 27.3836 21.2661 27.3879 21.2856 27.3879Z" fill="#141414"/>
<path d="M21.5378 27.4355V27.0806H21.6069V27.4355H21.5378ZM21.5727 27.0258C21.5607 27.0258 21.5503 27.0218 21.5417 27.0138C21.5332 27.0057 21.529 26.996 21.529 26.9847C21.529 26.9733 21.5332 26.9636 21.5417 26.9556C21.5503 26.9474 21.5607 26.9434 21.5727 26.9434C21.5847 26.9434 21.5949 26.9474 21.6034 26.9556C21.612 26.9636 21.6163 26.9733 21.6163 26.9847C21.6163 26.996 21.612 27.0057 21.6034 27.0138C21.5949 27.0218 21.5847 27.0258 21.5727 27.0258Z" fill="#141414"/>
<path d="M21.7689 26.9623V27.4355H21.6998V26.9623H21.7689Z" fill="#141414"/>
<rect x="20.2058" y="27.7441" width="15" height="2.5" rx="1.25" fill="#E0E0E0"/>
<path d="M21.3742 28.7591H21.4304V29.0243C21.4304 29.0483 21.4257 29.0688 21.4162 29.0858C21.4068 29.1029 21.3936 29.1159 21.3766 29.1249C21.3595 29.1338 21.3395 29.1382 21.3167 29.1382C21.2956 29.1382 21.2767 29.1344 21.2599 29.1267C21.2432 29.119 21.23 29.1079 21.2202 29.0933C21.2106 29.0786 21.2058 29.0607 21.2058 29.0396H21.2619C21.2619 29.05 21.2642 29.0589 21.269 29.0665C21.2739 29.074 21.2805 29.0799 21.2889 29.0842C21.2974 29.0883 21.3072 29.0904 21.3181 29.0904C21.33 29.0904 21.3402 29.0879 21.3484 29.0829C21.3568 29.0778 21.3632 29.0703 21.3676 29.0604C21.372 29.0506 21.3742 29.0385 21.3742 29.0243V28.7591Z" fill="#858585"/>
<path d="M21.5898 29.1393C21.572 29.1393 21.556 29.136 21.5416 29.1295C21.5272 29.1228 21.5158 29.1131 21.5074 29.1004C21.4992 29.0878 21.495 29.0722 21.495 29.0539C21.495 29.038 21.4981 29.025 21.5042 29.0148C21.5102 29.0045 21.5185 28.9965 21.5288 28.9905C21.5392 28.9845 21.5507 28.98 21.5635 28.977C21.5763 28.9739 21.5893 28.9716 21.6026 28.97C21.6194 28.9681 21.633 28.9665 21.6435 28.9653C21.654 28.9639 21.6616 28.9618 21.6663 28.9589C21.6711 28.956 21.6734 28.9512 21.6734 28.9447V28.9434C21.6734 28.9274 21.6689 28.9151 21.6599 28.9063C21.651 28.8975 21.6378 28.8932 21.6201 28.8932C21.6017 28.8932 21.5872 28.8972 21.5767 28.9054C21.5662 28.9134 21.5589 28.9224 21.5549 28.9322L21.5036 28.9205C21.5097 28.9035 21.5186 28.8897 21.5303 28.8793C21.5421 28.8687 21.5557 28.861 21.571 28.8563C21.5863 28.8514 21.6025 28.849 21.6194 28.849C21.6306 28.849 21.6425 28.8503 21.655 28.853C21.6677 28.8555 21.6795 28.8603 21.6904 28.8672C21.7015 28.8742 21.7106 28.8841 21.7176 28.897C21.7247 28.9098 21.7282 28.9264 21.7282 28.9468V29.1331H21.6749V29.0948H21.6727C21.6692 29.1018 21.6639 29.1088 21.6568 29.1156C21.6498 29.1224 21.6407 29.1281 21.6296 29.1326C21.6185 29.1371 21.6053 29.1393 21.5898 29.1393ZM21.6017 29.0955C21.6168 29.0955 21.6297 29.0925 21.6404 29.0865C21.6512 29.0806 21.6594 29.0728 21.665 29.0632C21.6708 29.0534 21.6736 29.043 21.6736 29.0319V28.9958C21.6717 28.9977 21.6679 28.9996 21.6623 29.0013C21.6568 29.0028 21.6506 29.0042 21.6435 29.0055C21.6364 29.0066 21.6296 29.0076 21.6229 29.0086C21.6162 29.0094 21.6106 29.0101 21.6061 29.0108C21.5955 29.0121 21.5858 29.0144 21.577 29.0175C21.5684 29.0207 21.5614 29.0252 21.5562 29.0312C21.5511 29.0371 21.5485 29.0448 21.5485 29.0546C21.5485 29.0681 21.5535 29.0783 21.5635 29.0853C21.5735 29.0921 21.5862 29.0955 21.6017 29.0955Z" fill="#858585"/>
<path d="M21.8512 29.038L21.8508 28.9713H21.8603L21.9721 28.8526H22.0374L21.91 28.9877H21.9014L21.8512 29.038ZM21.801 29.1331V28.7591H21.8556V29.1331H21.801ZM21.9781 29.1331L21.8777 28.9998L21.9153 28.9616L22.0451 29.1331H21.9781Z" fill="#858585"/>
<path d="M22.1965 29.1388C22.1689 29.1388 22.1451 29.1329 22.1251 29.1211C22.1053 29.1091 22.09 29.0924 22.0791 29.0708C22.0684 29.0492 22.0631 29.0238 22.0631 28.9947C22.0631 28.966 22.0684 28.9406 22.0791 28.9187C22.09 28.8968 22.1051 28.8797 22.1244 28.8674C22.1439 28.8551 22.1667 28.849 22.1927 28.849C22.2085 28.849 22.2239 28.8516 22.2387 28.8568C22.2536 28.862 22.2669 28.8703 22.2787 28.8815C22.2905 28.8927 22.2998 28.9072 22.3067 28.9251C22.3135 28.9429 22.3169 28.9645 22.3169 28.9899V29.0093H22.0939V28.9684H22.2634C22.2634 28.954 22.2605 28.9413 22.2546 28.9302C22.2488 28.919 22.2406 28.9102 22.23 28.9037C22.2195 28.8973 22.2072 28.8941 22.1931 28.8941C22.1777 28.8941 22.1643 28.8978 22.1529 28.9054C22.1416 28.9128 22.1328 28.9226 22.1266 28.9346C22.1205 28.9465 22.1175 28.9595 22.1175 28.9735V29.0055C22.1175 29.0242 22.1208 29.0402 22.1273 29.0533C22.134 29.0665 22.1433 29.0765 22.1553 29.0834C22.1672 29.0903 22.1811 29.0937 22.1971 29.0937C22.2074 29.0937 22.2169 29.0922 22.2254 29.0893C22.2339 29.0862 22.2413 29.0817 22.2475 29.0758C22.2537 29.0698 22.2584 29.0624 22.2617 29.0537L22.3134 29.063C22.3093 29.0782 22.3019 29.0915 22.2911 29.103C22.2805 29.1143 22.2672 29.1231 22.2511 29.1295C22.2352 29.1357 22.217 29.1388 22.1965 29.1388Z" fill="#858585"/>
<path d="M22.5877 28.9211L22.5382 28.9299C22.5361 28.9235 22.5328 28.9175 22.5283 28.9118C22.5239 28.9061 22.518 28.9014 22.5104 28.8977C22.5029 28.8941 22.4934 28.8922 22.4821 28.8922C22.4666 28.8922 22.4537 28.8957 22.4434 28.9027C22.433 28.9095 22.4279 28.9183 22.4279 28.9291C22.4279 28.9385 22.4313 28.9461 22.4383 28.9518C22.4452 28.9575 22.4564 28.9622 22.4719 28.9658L22.5164 28.9761C22.5422 28.982 22.5615 28.9912 22.5741 29.0036C22.5868 29.0161 22.5931 29.0322 22.5931 29.052C22.5931 29.0688 22.5883 29.0838 22.5785 29.097C22.5689 29.11 22.5555 29.1202 22.5382 29.1276C22.521 29.1351 22.5011 29.1388 22.4785 29.1388C22.447 29.1388 22.4214 29.1321 22.4016 29.1187C22.3817 29.1052 22.3696 29.086 22.3651 29.0612L22.4178 29.0531C22.4211 29.0669 22.4279 29.0773 22.4381 29.0844C22.4483 29.0913 22.4617 29.0948 22.4781 29.0948C22.496 29.0948 22.5103 29.091 22.521 29.0836C22.5317 29.0761 22.5371 29.0669 22.5371 29.056C22.5371 29.0473 22.5338 29.0399 22.5272 29.034C22.5208 29.028 22.5108 29.0235 22.4974 29.0204L22.45 29.01C22.4238 29.0041 22.4044 28.9946 22.3919 28.9815C22.3795 28.9685 22.3733 28.952 22.3733 28.9321C22.3733 28.9155 22.3779 28.901 22.3871 28.8886C22.3964 28.8762 22.4092 28.8665 22.4255 28.8596C22.4418 28.8525 22.4605 28.849 22.4816 28.849C22.5119 28.849 22.5357 28.8555 22.5531 28.8687C22.5706 28.8817 22.5821 28.8992 22.5877 28.9211Z" fill="#858585"/>
<path d="M22.8783 29.2348C22.8406 29.2348 22.8071 29.2297 22.7779 29.2193C22.7488 29.2091 22.7243 29.194 22.7043 29.174C22.6843 29.1542 22.6692 29.1298 22.6588 29.101C22.6485 29.0721 22.6433 29.0392 22.6433 29.0022C22.6433 28.9661 22.6485 28.9338 22.659 28.905C22.6695 28.8763 22.6847 28.8518 22.7047 28.8316C22.7248 28.8113 22.7492 28.7958 22.7779 28.785C22.8066 28.7743 22.8393 28.769 22.8758 28.769C22.9107 28.769 22.9415 28.7745 22.9682 28.7854C22.9948 28.7964 23.0172 28.8114 23.0354 28.8305C23.0536 28.8496 23.0674 28.8715 23.0767 28.8963C23.0859 28.921 23.0905 28.9471 23.0905 28.9746C23.0905 28.9938 23.0893 29.0126 23.0869 29.031C23.0844 29.0493 23.0799 29.0658 23.0734 29.0807C23.0669 29.0954 23.0575 29.1072 23.0452 29.1161C23.0331 29.1249 23.0172 29.1295 22.9978 29.1298C22.9874 29.1302 22.9774 29.129 22.9676 29.1262C22.9579 29.1234 22.9496 29.1189 22.9428 29.1127C22.936 29.1063 22.9318 29.0983 22.9304 29.0886H22.9282C22.9253 29.0957 22.9204 29.1024 22.9136 29.1086C22.9068 29.1147 22.8981 29.1196 22.8875 29.1232C22.877 29.1268 22.8648 29.1282 22.8509 29.1276C22.8356 29.127 22.8218 29.1236 22.8095 29.1172C22.7972 29.1109 22.7867 29.1021 22.7779 29.0909C22.7693 29.0797 22.7626 29.0665 22.758 29.0511C22.7534 29.0358 22.7511 29.0187 22.7511 29C22.7511 28.982 22.7537 28.9658 22.7589 28.9516C22.7641 28.9372 22.7713 28.9249 22.7803 28.9145C22.7894 28.9041 22.7999 28.8958 22.8117 28.8897C22.8235 28.8836 22.836 28.8798 22.8491 28.8782C22.8619 28.8767 22.8736 28.8771 22.8844 28.8793C22.8951 28.8815 22.904 28.8848 22.911 28.8893C22.9182 28.8938 22.9227 28.8988 22.9245 28.9041H22.9269V28.8837H22.9718V29.0531C22.9718 29.0627 22.9743 29.0709 22.9793 29.0776C22.9844 29.0843 22.9917 29.0876 23.0011 29.0876C23.0121 29.0876 23.0208 29.0836 23.027 29.0754C23.0333 29.0672 23.0378 29.0547 23.0403 29.0378C23.043 29.0209 23.0443 28.9992 23.0443 28.9728C23.0443 28.9543 23.0418 28.9369 23.0368 28.9205C23.032 28.9041 23.0247 28.8893 23.0151 28.876C23.0056 28.8626 22.9939 28.8511 22.9801 28.8415C22.9662 28.8319 22.9503 28.8244 22.9326 28.8192C22.9149 28.814 22.8954 28.8113 22.874 28.8113C22.8449 28.8113 22.819 28.8158 22.7963 28.8249C22.7737 28.8337 22.7546 28.8466 22.739 28.8634C22.7235 28.8802 22.7118 28.9003 22.7038 28.9238C22.6958 28.9472 22.6919 28.9734 22.6919 29.0025C22.6919 29.0329 22.696 29.0598 22.7041 29.0833C22.7123 29.1066 22.7243 29.1264 22.7403 29.1424C22.7562 29.1585 22.776 29.1707 22.7994 29.1789C22.8229 29.1873 22.85 29.1915 22.8807 29.1915C22.8943 29.1915 22.9077 29.1903 22.9209 29.1879C22.934 29.1856 22.9457 29.1829 22.9559 29.1799C22.9663 29.1769 22.974 29.1746 22.9791 29.1727L22.9919 29.2127C22.9844 29.2163 22.9743 29.2197 22.9618 29.2231C22.9494 29.2265 22.9359 29.2293 22.9213 29.2315C22.9068 29.2337 22.8925 29.2348 22.8783 29.2348ZM22.8615 29.0829C22.8774 29.0829 22.8901 29.0797 22.8997 29.0734C22.9094 29.0671 22.9164 29.0576 22.9207 29.0451C22.9251 29.0324 22.9273 29.0166 22.9273 28.9976C22.9272 28.9791 22.9248 28.9644 22.9202 28.9534C22.9157 28.9423 22.9086 28.9344 22.899 28.9297C22.8895 28.9248 22.8772 28.9224 22.8623 28.9224C22.8485 28.9224 22.8368 28.9257 22.827 28.9324C22.8174 28.9391 22.81 28.9482 22.8049 28.9596C22.7999 28.9711 22.7974 28.9838 22.7973 28.9978C22.7974 29.0125 22.7994 29.0264 22.8035 29.0394C22.8076 29.0523 22.8143 29.0628 22.8236 29.0708C22.8329 29.0789 22.8456 29.0829 22.8615 29.0829Z" fill="#858585"/>
<path d="M23.2684 29.2441C23.2462 29.2441 23.227 29.2412 23.2109 29.2354C23.195 29.2295 23.1819 29.2218 23.1718 29.2122C23.1617 29.2026 23.1542 29.192 23.1492 29.1806L23.1961 29.1612C23.1994 29.1666 23.2038 29.1723 23.2093 29.1782C23.2149 29.1843 23.2224 29.1895 23.2319 29.1937C23.2415 29.198 23.2539 29.2001 23.269 29.2001C23.2897 29.2001 23.3068 29.1951 23.3203 29.185C23.3338 29.175 23.3406 29.159 23.3406 29.1371V29.082H23.3371C23.3338 29.0879 23.3291 29.0946 23.3229 29.1019C23.3168 29.1092 23.3084 29.1155 23.2977 29.1209C23.287 29.1262 23.273 29.1289 23.2558 29.1289C23.2337 29.1289 23.2137 29.1237 23.1959 29.1134C23.1783 29.1029 23.1643 29.0875 23.1539 29.0672C23.1437 29.0467 23.1386 29.0216 23.1386 28.9918C23.1386 28.9619 23.1437 28.9364 23.1538 28.9151C23.164 28.8938 23.178 28.8774 23.1958 28.8661C23.2135 28.8547 23.2337 28.849 23.2562 28.849C23.2736 28.849 23.2877 28.8519 23.2984 28.8577C23.3091 28.8634 23.3174 28.8701 23.3234 28.8778C23.3295 28.8855 23.3342 28.8922 23.3375 28.8981H23.3415V28.8526H23.395V29.1393C23.395 29.1634 23.3894 29.1832 23.3782 29.1987C23.367 29.2141 23.3518 29.2256 23.3327 29.233C23.3137 29.2404 23.2923 29.2441 23.2684 29.2441ZM23.2679 29.0836C23.2836 29.0836 23.2969 29.08 23.3077 29.0727C23.3187 29.0652 23.3269 29.0546 23.3325 29.0409C23.3383 29.027 23.3411 29.0104 23.3411 28.991C23.3411 28.9722 23.3383 28.9555 23.3327 28.9412C23.3271 28.9268 23.3189 28.9156 23.3081 28.9076C23.2972 28.8994 23.2838 28.8953 23.2679 28.8953C23.2515 28.8953 23.2378 28.8996 23.2268 28.9081C23.2159 28.9165 23.2076 28.928 23.202 28.9425C23.1965 28.9569 23.1938 28.9731 23.1938 28.991C23.1938 29.0094 23.1966 29.0256 23.2022 29.0394C23.2078 29.0533 23.216 29.0641 23.227 29.0719C23.2381 29.0797 23.2517 29.0836 23.2679 29.0836Z" fill="#858585"/>
<path d="M23.4682 29.1331V28.8526H23.5206V28.8983H23.5241C23.53 28.8828 23.5395 28.8708 23.5528 28.8621C23.566 28.8533 23.5819 28.849 23.6004 28.849C23.6192 28.849 23.6349 28.8533 23.6476 28.8621C23.6603 28.8709 23.6698 28.8829 23.6759 28.8983H23.6788C23.6855 28.8833 23.6961 28.8714 23.7107 28.8625C23.7254 28.8535 23.7428 28.849 23.763 28.849C23.7884 28.849 23.8092 28.8569 23.8252 28.8729C23.8414 28.8888 23.8495 28.9129 23.8495 28.945V29.1331H23.7949V28.9501C23.7949 28.9311 23.7898 28.9174 23.7794 28.9089C23.7691 28.9003 23.7567 28.8961 23.7423 28.8961C23.7246 28.8961 23.7107 28.9016 23.7009 28.9125C23.691 28.9233 23.6861 28.9373 23.6861 28.9543V29.1331H23.6317V28.9467C23.6317 28.9314 23.6269 28.9192 23.6174 28.91C23.6079 28.9007 23.5956 28.8961 23.5804 28.8961C23.57 28.8961 23.5604 28.8988 23.5517 28.9043C23.543 28.9097 23.536 28.9171 23.5307 28.9268C23.5254 28.9364 23.5228 28.9475 23.5228 28.9602V29.1331H23.4682Z" fill="#858585"/>
<path d="M24.0043 29.1393C23.9866 29.1393 23.9705 29.136 23.9561 29.1295C23.9418 29.1228 23.9304 29.1131 23.922 29.1004C23.9137 29.0878 23.9096 29.0722 23.9096 29.0539C23.9096 29.038 23.9126 29.025 23.9187 29.0148C23.9248 29.0045 23.933 28.9965 23.9433 28.9905C23.9537 28.9845 23.9653 28.98 23.978 28.977C23.9908 28.9739 24.0039 28.9716 24.0171 28.97C24.0339 28.9681 24.0476 28.9665 24.058 28.9653C24.0685 28.9639 24.0761 28.9618 24.0809 28.9589C24.0856 28.956 24.088 28.9512 24.088 28.9447V28.9434C24.088 28.9274 24.0835 28.9151 24.0745 28.9063C24.0656 28.8975 24.0523 28.8932 24.0347 28.8932C24.0163 28.8932 24.0018 28.8972 23.9912 28.9054C23.9807 28.9134 23.9735 28.9224 23.9695 28.9322L23.9181 28.9205C23.9242 28.9035 23.9331 28.8897 23.9448 28.8793C23.9566 28.8687 23.9702 28.861 23.9855 28.8563C24.0009 28.8514 24.017 28.849 24.0339 28.849C24.0451 28.849 24.057 28.8503 24.0695 28.853C24.0822 28.8555 24.094 28.8603 24.105 28.8672C24.116 28.8742 24.1251 28.8841 24.1322 28.897C24.1392 28.9098 24.1428 28.9264 24.1428 28.9468V29.1331H24.0894V29.0948H24.0872C24.0837 29.1018 24.0784 29.1088 24.0714 29.1156C24.0643 29.1224 24.0552 29.1281 24.0442 29.1326C24.0331 29.1371 24.0198 29.1393 24.0043 29.1393ZM24.0162 29.0955C24.0313 29.0955 24.0442 29.0925 24.0549 29.0865C24.0658 29.0806 24.074 29.0728 24.0796 29.0632C24.0853 29.0534 24.0882 29.043 24.0882 29.0319V28.9958C24.0862 28.9977 24.0824 28.9996 24.0768 29.0013C24.0714 29.0028 24.0651 29.0042 24.058 29.0055C24.051 29.0066 24.0441 29.0076 24.0374 29.0086C24.0307 29.0094 24.0251 29.0101 24.0206 29.0108C24.01 29.0121 24.0003 29.0144 23.9916 29.0175C23.9829 29.0207 23.976 29.0252 23.9707 29.0312C23.9656 29.0371 23.9631 29.0448 23.9631 29.0546C23.9631 29.0681 23.9681 29.0783 23.978 29.0853C23.988 29.0921 24.0007 29.0955 24.0162 29.0955Z" fill="#858585"/>
<path d="M24.2155 29.1331V28.8526H24.2701V29.1331H24.2155ZM24.2431 28.8093C24.2336 28.8093 24.2254 28.8062 24.2186 28.7998C24.2119 28.7934 24.2086 28.7857 24.2086 28.7768C24.2086 28.7678 24.2119 28.7601 24.2186 28.7538C24.2254 28.7474 24.2336 28.7441 24.2431 28.7441C24.2526 28.7441 24.2607 28.7474 24.2674 28.7538C24.2742 28.7601 24.2776 28.7678 24.2776 28.7768C24.2776 28.7857 24.2742 28.7934 24.2674 28.7998C24.2607 28.8062 24.2526 28.8093 24.2431 28.8093Z" fill="#858585"/>
<path d="M24.3982 28.7591V29.1331H24.3435V28.7591H24.3982Z" fill="#858585"/>
<path d="M24.5076 29.1366C24.4976 29.1366 24.489 29.133 24.4818 29.126C24.4747 29.1188 24.4711 29.1102 24.4711 29.1001C24.4711 29.0901 24.4747 29.0816 24.4818 29.0745C24.489 29.0673 24.4976 29.0637 24.5076 29.0637C24.5176 29.0637 24.5261 29.0673 24.5333 29.0745C24.5405 29.0816 24.5441 29.0901 24.5441 29.1001C24.5441 29.1068 24.5424 29.1129 24.539 29.1185C24.5357 29.124 24.5313 29.1284 24.5258 29.1316C24.5204 29.1349 24.5143 29.1366 24.5076 29.1366Z" fill="#858585"/>
<path d="M24.7354 29.1388C24.7082 29.1388 24.6849 29.1326 24.6653 29.1203C24.6458 29.1079 24.6308 29.0908 24.6203 29.069C24.6099 29.0472 24.6046 29.0223 24.6046 28.9941C24.6046 28.9657 24.61 28.9405 24.6207 28.9187C24.6314 28.8968 24.6465 28.8797 24.666 28.8674C24.6855 28.8551 24.7084 28.849 24.7348 28.849C24.7562 28.849 24.7751 28.8529 24.7918 28.8608C24.8085 28.8686 24.822 28.8796 24.8322 28.8937C24.8425 28.9078 24.8487 28.9243 24.8506 28.9432H24.7975C24.7946 28.93 24.7879 28.9187 24.7774 28.9092C24.767 28.8997 24.7532 28.895 24.7358 28.895C24.7205 28.895 24.7072 28.899 24.6958 28.907C24.6844 28.9149 24.6756 28.9263 24.6693 28.941C24.663 28.9556 24.6598 28.9729 24.6598 28.9929C24.6598 29.0133 24.6629 29.031 24.6691 29.0458C24.6753 29.0607 24.6841 29.0722 24.6954 29.0803C24.7068 29.0885 24.7203 29.0926 24.7358 29.0926C24.7461 29.0926 24.7555 29.0907 24.7639 29.0869C24.7724 29.083 24.7795 29.0775 24.7852 29.0703C24.7911 29.0631 24.7952 29.0545 24.7975 29.0444H24.8506C24.8487 29.0625 24.8428 29.0787 24.8329 29.0929C24.823 29.1072 24.8098 29.1184 24.7933 29.1265C24.7768 29.1347 24.7576 29.1388 24.7354 29.1388Z" fill="#858585"/>
<path d="M25.0272 29.1388C25.0009 29.1388 24.9779 29.1327 24.9583 29.1207C24.9387 29.1086 24.9235 29.0918 24.9127 29.0701C24.9018 29.0484 24.8964 29.0231 24.8964 28.9941C24.8964 28.965 24.9018 28.9396 24.9127 28.9178C24.9235 28.896 24.9387 28.8791 24.9583 28.867C24.9779 28.855 25.0009 28.849 25.0272 28.849C25.0535 28.849 25.0764 28.855 25.096 28.867C25.1156 28.8791 25.1308 28.896 25.1417 28.9178C25.1525 28.9396 25.1579 28.965 25.1579 28.9941C25.1579 29.0231 25.1525 29.0484 25.1417 29.0701C25.1308 29.0918 25.1156 29.1086 25.096 29.1207C25.0764 29.1327 25.0535 29.1388 25.0272 29.1388ZM25.0274 29.0929C25.0444 29.0929 25.0585 29.0884 25.0697 29.0794C25.0809 29.0704 25.0892 29.0584 25.0946 29.0434C25.1 29.0285 25.1028 29.012 25.1028 28.994C25.1028 28.9761 25.1 28.9596 25.0946 28.9447C25.0892 28.9296 25.0809 28.9174 25.0697 28.9083C25.0585 28.8992 25.0444 28.8946 25.0274 28.8946C25.0102 28.8946 24.9959 28.8992 24.9846 28.9083C24.9734 28.9174 24.9651 28.9296 24.9596 28.9447C24.9542 28.9596 24.9516 28.9761 24.9516 28.994C24.9516 29.012 24.9542 29.0285 24.9596 29.0434C24.9651 29.0584 24.9734 29.0704 24.9846 29.0794C24.9959 29.0884 25.0102 29.0929 25.0274 29.0929Z" fill="#858585"/>
<path d="M25.2189 29.1331V28.8526H25.2713V28.8983H25.2747C25.2806 28.8828 25.2901 28.8708 25.3034 28.8621C25.3167 28.8533 25.3326 28.849 25.3511 28.849C25.3698 28.849 25.3855 28.8533 25.3982 28.8621C25.411 28.8709 25.4204 28.8829 25.4265 28.8983H25.4294C25.4361 28.8833 25.4468 28.8714 25.4614 28.8625C25.476 28.8535 25.4934 28.849 25.5136 28.849C25.5391 28.849 25.5598 28.8569 25.5759 28.8729C25.5921 28.8888 25.6002 28.9129 25.6002 28.945V29.1331H25.5456V28.9501C25.5456 28.9311 25.5404 28.9174 25.53 28.9089C25.5197 28.9003 25.5073 28.8961 25.493 28.8961C25.4752 28.8961 25.4614 28.9016 25.4515 28.9125C25.4417 28.9233 25.4367 28.9373 25.4367 28.9543V29.1331H25.3823V28.9467C25.3823 28.9314 25.3776 28.9192 25.3681 28.91C25.3586 28.9007 25.3462 28.8961 25.331 28.8961C25.3206 28.8961 25.3111 28.8988 25.3023 28.9043C25.2937 28.9097 25.2867 28.9171 25.2813 28.9268C25.2761 28.9364 25.2735 28.9475 25.2735 28.9602V29.1331H25.2189Z" fill="#858585"/>
<path d="M20.2058 31.736V31.2441H20.3811C20.4194 31.2441 20.4511 31.2511 20.4762 31.265C20.5014 31.279 20.5202 31.298 20.5327 31.3222C20.5451 31.3462 20.5514 31.3733 20.5514 31.4034C20.5514 31.4336 20.5451 31.4608 20.5324 31.485C20.5199 31.509 20.501 31.5281 20.4757 31.5422C20.4506 31.5561 20.419 31.5631 20.3809 31.5631H20.2603V31.5001H20.3742C20.3983 31.5001 20.4179 31.496 20.433 31.4877C20.448 31.4792 20.4591 31.4676 20.4661 31.4531C20.4732 31.4385 20.4767 31.4219 20.4767 31.4034C20.4767 31.3848 20.4732 31.3683 20.4661 31.3539C20.4591 31.3395 20.448 31.3282 20.4328 31.32C20.4177 31.3119 20.3979 31.3078 20.3732 31.3078H20.28V31.736H20.2058Z" fill="#141414"/>
<path d="M20.7367 31.7441C20.7133 31.7441 20.6922 31.7398 20.6733 31.7312C20.6544 31.7224 20.6394 31.7096 20.6284 31.693C20.6175 31.6763 20.612 31.6559 20.612 31.6317C20.612 31.6109 20.616 31.5938 20.624 31.5804C20.632 31.5669 20.6429 31.5563 20.6565 31.5484C20.6701 31.5406 20.6853 31.5346 20.7021 31.5306C20.7189 31.5266 20.736 31.5236 20.7535 31.5215C20.7756 31.519 20.7935 31.5169 20.8073 31.5153C20.821 31.5135 20.8311 31.5107 20.8373 31.5069C20.8435 31.503 20.8467 31.4968 20.8467 31.4881V31.4865C20.8467 31.4655 20.8407 31.4492 20.8289 31.4377C20.8172 31.4262 20.7998 31.4204 20.7765 31.4204C20.7524 31.4204 20.7333 31.4258 20.7194 31.4365C20.7056 31.4471 20.6961 31.4588 20.6908 31.4718L20.6233 31.4564C20.6313 31.434 20.643 31.4159 20.6584 31.4022C20.6739 31.3882 20.6918 31.3781 20.7119 31.3719C20.7321 31.3655 20.7533 31.3623 20.7756 31.3623C20.7903 31.3623 20.8059 31.3641 20.8224 31.3676C20.8391 31.3709 20.8546 31.3772 20.869 31.3863C20.8836 31.3954 20.8955 31.4085 20.9048 31.4255C20.9141 31.4423 20.9187 31.4641 20.9187 31.491V31.736H20.8486V31.6855H20.8457C20.8411 31.6948 20.8341 31.704 20.8248 31.7129C20.8155 31.7219 20.8036 31.7293 20.789 31.7353C20.7745 31.7412 20.757 31.7441 20.7367 31.7441ZM20.7523 31.6865C20.7721 31.6865 20.7891 31.6826 20.8032 31.6747C20.8174 31.6669 20.8282 31.6566 20.8356 31.644C20.8431 31.6312 20.8469 31.6175 20.8469 31.6029V31.5554C20.8443 31.5579 20.8394 31.5603 20.832 31.5626C20.8248 31.5647 20.8166 31.5665 20.8073 31.5681C20.798 31.5695 20.7889 31.5709 20.7801 31.5722C20.7713 31.5733 20.764 31.5743 20.758 31.5751C20.7441 31.5768 20.7314 31.5798 20.7199 31.584C20.7085 31.5881 20.6994 31.5941 20.6925 31.602C20.6858 31.6097 20.6824 31.6199 20.6824 31.6327C20.6824 31.6505 20.689 31.6639 20.7021 31.6731C20.7152 31.682 20.7319 31.6865 20.7523 31.6865Z" fill="#141414"/>
<path d="M21.2908 31.4572L21.2257 31.4687C21.223 31.4604 21.2186 31.4524 21.2127 31.4449C21.207 31.4374 21.1991 31.4312 21.1892 31.4264C21.1793 31.4216 21.1668 31.4192 21.152 31.4192C21.1316 31.4192 21.1147 31.4238 21.101 31.4329C21.0874 31.4419 21.0806 31.4535 21.0806 31.4677C21.0806 31.4801 21.0852 31.49 21.0943 31.4975C21.1034 31.505 21.1182 31.5112 21.1385 31.516L21.1971 31.5294C21.231 31.5373 21.2563 31.5494 21.273 31.5657C21.2896 31.582 21.298 31.6033 21.298 31.6293C21.298 31.6514 21.2916 31.6711 21.2788 31.6884C21.2661 31.7056 21.2484 31.719 21.2257 31.7288C21.2031 31.7385 21.1769 31.7434 21.1472 31.7434C21.1058 31.7434 21.0721 31.7346 21.046 31.717C21.02 31.6992 21.0039 31.674 20.998 31.6414L21.0674 31.6308C21.0717 31.6489 21.0806 31.6626 21.0941 31.6719C21.1075 31.681 21.1251 31.6855 21.1467 31.6855C21.1702 31.6855 21.189 31.6807 21.2031 31.6709C21.2172 31.661 21.2242 31.6489 21.2242 31.6346C21.2242 31.6231 21.2199 31.6134 21.2113 31.6056C21.2028 31.5977 21.1897 31.5918 21.1721 31.5878L21.1097 31.5741C21.0753 31.5663 21.0498 31.5538 21.0333 31.5366C21.017 31.5195 21.0088 31.4978 21.0088 31.4716C21.0088 31.4498 21.0149 31.4307 21.0271 31.4144C21.0392 31.3981 21.0561 31.3854 21.0775 31.3762C21.099 31.3669 21.1235 31.3623 21.1512 31.3623C21.1911 31.3623 21.2225 31.3709 21.2454 31.3882C21.2683 31.4054 21.2834 31.4283 21.2908 31.4572Z" fill="#141414"/>
<path d="M21.6533 31.4572L21.5883 31.4687C21.5855 31.4604 21.5812 31.4524 21.5753 31.4449C21.5695 31.4374 21.5617 31.4312 21.5518 31.4264C21.5418 31.4216 21.5294 31.4192 21.5145 31.4192C21.4942 31.4192 21.4772 31.4238 21.4636 31.4329C21.45 31.4419 21.4432 31.4535 21.4432 31.4677C21.4432 31.4801 21.4478 31.49 21.4569 31.4975C21.466 31.505 21.4807 31.5112 21.5011 31.516L21.5597 31.5294C21.5936 31.5373 21.6189 31.5494 21.6356 31.5657C21.6522 31.582 21.6605 31.6033 21.6605 31.6293C21.6605 31.6514 21.6541 31.6711 21.6413 31.6884C21.6287 31.7056 21.611 31.719 21.5883 31.7288C21.5657 31.7385 21.5395 31.7434 21.5097 31.7434C21.4684 31.7434 21.4347 31.7346 21.4086 31.717C21.3825 31.6992 21.3665 31.674 21.3606 31.6414L21.43 31.6308C21.4343 31.6489 21.4432 31.6626 21.4567 31.6719C21.4701 31.681 21.4876 31.6855 21.5092 31.6855C21.5328 31.6855 21.5516 31.6807 21.5657 31.6709C21.5798 31.661 21.5868 31.6489 21.5868 31.6346C21.5868 31.6231 21.5825 31.6134 21.5738 31.6056C21.5654 31.5977 21.5523 31.5918 21.5347 31.5878L21.4723 31.5741C21.4378 31.5663 21.4124 31.5538 21.3959 31.5366C21.3796 31.5195 21.3714 31.4978 21.3714 31.4716C21.3714 31.4498 21.3775 31.4307 21.3896 31.4144C21.4018 31.3981 21.4186 31.3854 21.4401 31.3762C21.4615 31.3669 21.4861 31.3623 21.5138 31.3623C21.5537 31.3623 21.5851 31.3709 21.6079 31.3882C21.6308 31.4054 21.646 31.4283 21.6533 31.4572Z" fill="#141414"/>
<path d="M21.8195 31.736L21.7109 31.3671H21.7851L21.8574 31.638H21.861L21.9335 31.3671H22.0077L22.0798 31.6368H22.0834L22.1552 31.3671H22.2294L22.1211 31.736H22.0478L21.9729 31.4696H21.9674L21.8925 31.736H21.8195Z" fill="#141414"/>
<path d="M22.4417 31.7434C22.4071 31.7434 22.3769 31.7355 22.3512 31.7196C22.3254 31.7038 22.3054 31.6816 22.2911 31.6531C22.2769 31.6246 22.2698 31.5913 22.2698 31.5532C22.2698 31.515 22.2769 31.4815 22.2911 31.4528C22.3054 31.4242 22.3254 31.4019 22.3512 31.3861C22.3769 31.3702 22.4071 31.3623 22.4417 31.3623C22.4763 31.3623 22.5065 31.3702 22.5322 31.3861C22.558 31.4019 22.578 31.4242 22.5923 31.4528C22.6065 31.4815 22.6137 31.515 22.6137 31.5532C22.6137 31.5913 22.6065 31.6246 22.5923 31.6531C22.578 31.6816 22.558 31.7038 22.5322 31.7196C22.5065 31.7355 22.4763 31.7434 22.4417 31.7434ZM22.4419 31.6831C22.4644 31.6831 22.4829 31.6772 22.4977 31.6654C22.5124 31.6535 22.5233 31.6378 22.5303 31.6181C22.5375 31.5984 22.5411 31.5767 22.5411 31.553C22.5411 31.5294 22.5375 31.5078 22.5303 31.4881C22.5233 31.4683 22.5124 31.4524 22.4977 31.4403C22.4829 31.4283 22.4644 31.4223 22.4419 31.4223C22.4194 31.4223 22.4006 31.4283 22.3857 31.4403C22.371 31.4524 22.36 31.4683 22.3528 31.4881C22.3458 31.5078 22.3423 31.5294 22.3423 31.553C22.3423 31.5767 22.3458 31.5984 22.3528 31.6181C22.36 31.6378 22.371 31.6535 22.3857 31.6654C22.4006 31.6772 22.4194 31.6831 22.4419 31.6831Z" fill="#141414"/>
<path d="M22.6938 31.736V31.3671H22.7632V31.4257H22.767C22.7738 31.4058 22.7856 31.3902 22.8026 31.3789C22.8197 31.3673 22.8391 31.3616 22.8607 31.3616C22.8652 31.3616 22.8705 31.3617 22.8766 31.3621C22.8828 31.3624 22.8877 31.3628 22.8912 31.3633V31.4319C22.8883 31.4311 22.8832 31.4303 22.8758 31.4293C22.8685 31.4282 22.8611 31.4276 22.8537 31.4276C22.8368 31.4276 22.8216 31.4312 22.8084 31.4384C22.7952 31.4455 22.7848 31.4553 22.7771 31.468C22.7695 31.4805 22.7656 31.4947 22.7656 31.5107V31.736H22.6938Z" fill="#141414"/>
<path d="M23.0782 31.7432C23.0484 31.7432 23.0219 31.7356 22.9985 31.7204C22.9753 31.705 22.957 31.6831 22.9437 31.6548C22.9306 31.6263 22.9241 31.5921 22.9241 31.5523C22.9241 31.5124 22.9307 31.4783 22.944 31.45C22.9574 31.4216 22.9758 31.3999 22.9992 31.3849C23.0226 31.3698 23.0491 31.3623 23.0787 31.3623C23.1016 31.3623 23.12 31.3661 23.1339 31.3738C23.148 31.3813 23.1589 31.3902 23.1666 31.4002C23.1745 31.4103 23.1805 31.4192 23.1849 31.4269H23.1892V31.2441H23.261V31.736H23.1909V31.6786H23.1849C23.1805 31.6864 23.1743 31.6954 23.1661 31.7055C23.1581 31.7156 23.1471 31.7244 23.133 31.7319C23.1189 31.7394 23.1006 31.7432 23.0782 31.7432ZM23.0941 31.6819C23.1147 31.6819 23.1322 31.6765 23.1464 31.6656C23.1608 31.6546 23.1717 31.6393 23.1791 31.6197C23.1866 31.6002 23.1904 31.5775 23.1904 31.5515C23.1904 31.5259 23.1867 31.5035 23.1793 31.4843C23.172 31.4651 23.1612 31.4501 23.1469 31.4394C23.1327 31.4287 23.1151 31.4233 23.0941 31.4233C23.0725 31.4233 23.0545 31.4289 23.04 31.4401C23.0256 31.4513 23.0147 31.4666 23.0074 31.486C23.0002 31.5053 22.9966 31.5272 22.9966 31.5515C22.9966 31.5762 23.0003 31.5984 23.0076 31.6181C23.015 31.6378 23.0259 31.6534 23.0403 31.6649C23.0549 31.6763 23.0728 31.6819 23.0941 31.6819Z" fill="#141414"/>
<rect x="20.2058" y="32.0449" width="15" height="2.29899" rx="1.14949" fill="#E0E0E0"/>
<path d="M21.3279 33.2129L21.2397 33.2743C21.2355 33.2777 21.2304 33.2797 21.225 33.2801C21.2198 33.2798 21.2149 33.2775 21.2114 33.2736C21.2078 33.2698 21.2058 33.2646 21.2058 33.2593C21.2059 33.2551 21.2072 33.2511 21.2097 33.2477C21.2121 33.2444 21.2155 33.242 21.2194 33.2407L21.3177 33.1921L21.2194 33.1446C21.2157 33.1431 21.2124 33.1406 21.21 33.1373C21.2076 33.134 21.2062 33.1301 21.2058 33.126C21.2058 33.1207 21.2078 33.1156 21.2114 33.1117C21.2149 33.1078 21.2198 33.1055 21.225 33.1052C21.2277 33.105 21.2304 33.1055 21.233 33.1065C21.2355 33.1075 21.2378 33.109 21.2397 33.111L21.3279 33.1712L21.32 33.0646C21.32 33.062 21.3205 33.0595 21.3215 33.0571C21.3224 33.0547 21.3238 33.0525 21.3256 33.0507C21.3274 33.0489 21.3295 33.0474 21.3319 33.0464C21.3342 33.0454 21.3367 33.0449 21.3392 33.0449C21.3417 33.0449 21.3442 33.0454 21.3466 33.0464C21.3489 33.0474 21.351 33.0489 21.3528 33.0507C21.3546 33.0525 21.356 33.0547 21.357 33.0571C21.3579 33.0595 21.3584 33.062 21.3584 33.0646L21.3505 33.1712L21.4387 33.111C21.4406 33.109 21.4429 33.1075 21.4455 33.1066C21.448 33.1056 21.4507 33.1051 21.4534 33.1052C21.4586 33.1055 21.4635 33.1078 21.467 33.1117C21.4706 33.1156 21.4726 33.1207 21.4726 33.126C21.4725 33.1302 21.4712 33.1342 21.4688 33.1376C21.4663 33.1409 21.4629 33.1433 21.459 33.1446L21.3607 33.1921L21.459 33.2407C21.463 33.2418 21.4665 33.2442 21.469 33.2476C21.4715 33.2509 21.4727 33.2551 21.4726 33.2593C21.4726 33.2646 21.4706 33.2698 21.467 33.2736C21.4635 33.2775 21.4586 33.2798 21.4534 33.2801C21.448 33.2797 21.4429 33.2777 21.4387 33.2743L21.3505 33.2129L21.3584 33.3207C21.3584 33.3233 21.3579 33.3258 21.357 33.3282C21.356 33.3306 21.3546 33.3328 21.3528 33.3346C21.351 33.3364 21.3489 33.3379 21.3466 33.3389C21.3442 33.3399 21.3417 33.3404 21.3392 33.3404C21.3367 33.3404 21.3342 33.3399 21.3319 33.3389C21.3295 33.3379 21.3274 33.3364 21.3256 33.3346C21.3238 33.3328 21.3224 33.3306 21.3215 33.3282C21.3205 33.3258 21.32 33.3233 21.32 33.3207L21.3279 33.2129Z" fill="#858585"/>
<path d="M21.7947 33.2152L21.7077 33.2767C21.703 33.2801 21.6975 33.2821 21.6918 33.2824C21.6866 33.2822 21.6817 33.2798 21.6782 33.2759C21.6746 33.2721 21.6726 33.2669 21.6726 33.2616C21.6727 33.2574 21.674 33.2534 21.6765 33.2501C21.6789 33.2467 21.6823 33.2443 21.6862 33.2431L21.7857 33.1944L21.6862 33.1469C21.6825 33.1454 21.6792 33.1429 21.6768 33.1396C21.6744 33.1363 21.673 33.1324 21.6726 33.1283C21.6726 33.123 21.6746 33.1179 21.6782 33.114C21.6817 33.1101 21.6866 33.1078 21.6918 33.1075C21.6947 33.1073 21.6976 33.1077 21.7003 33.1087C21.703 33.1097 21.7055 33.1113 21.7077 33.1133L21.7947 33.1735L21.7868 33.0669C21.7866 33.0642 21.787 33.0615 21.7879 33.0589C21.7888 33.0563 21.7901 33.0539 21.7919 33.0518C21.7937 33.0498 21.7959 33.0481 21.7983 33.0469C21.8007 33.0458 21.8033 33.0451 21.806 33.0449C21.8087 33.0449 21.8114 33.0455 21.8139 33.0466C21.8164 33.0477 21.8186 33.0494 21.8205 33.0515C21.8223 33.0536 21.8236 33.056 21.8245 33.0587C21.8253 33.0614 21.8255 33.0642 21.8252 33.0669L21.8184 33.1735L21.9055 33.1133C21.9076 33.1113 21.9101 33.1097 21.9128 33.1087C21.9155 33.1077 21.9184 33.1073 21.9213 33.1075C21.9238 33.1076 21.9263 33.1083 21.9286 33.1094C21.9309 33.1106 21.9329 33.1121 21.9346 33.1141C21.9363 33.116 21.9375 33.1183 21.9384 33.1207C21.9392 33.1232 21.9395 33.1258 21.9394 33.1283C21.9394 33.1324 21.9382 33.1363 21.936 33.1396C21.9338 33.1429 21.9306 33.1455 21.927 33.1469L21.8275 33.1944L21.927 33.2431C21.9307 33.2443 21.934 33.2468 21.9362 33.2502C21.9385 33.2535 21.9396 33.2575 21.9394 33.2616C21.9394 33.2667 21.9376 33.2717 21.9343 33.2756C21.9309 33.2794 21.9263 33.2819 21.9213 33.2824C21.9156 33.2823 21.91 33.2803 21.9055 33.2767L21.8184 33.2152L21.8252 33.323C21.8256 33.3257 21.8253 33.3285 21.8245 33.3311C21.8237 33.3337 21.8223 33.3361 21.8204 33.3381C21.8186 33.3401 21.8163 33.3416 21.8138 33.3426C21.8114 33.3436 21.8087 33.3441 21.806 33.3439C21.8034 33.3439 21.8008 33.3433 21.7984 33.3423C21.796 33.3412 21.7938 33.3396 21.792 33.3377C21.7902 33.3357 21.7888 33.3334 21.7879 33.3309C21.787 33.3284 21.7866 33.3257 21.7868 33.323L21.7947 33.2152Z" fill="#858585"/>
<path d="M22.2526 33.2129L22.1644 33.2743C22.1602 33.2777 22.1551 33.2797 22.1497 33.2801C22.1462 33.2781 22.1434 33.275 22.1416 33.2713C22.1397 33.2676 22.1391 33.2634 22.1396 33.2593C22.1396 33.2551 22.141 33.2511 22.1434 33.2477C22.1459 33.2444 22.1493 33.242 22.1531 33.2407L22.2515 33.1921L22.1531 33.1446C22.1494 33.1431 22.1462 33.1406 22.1438 33.1373C22.1414 33.134 22.1399 33.1301 22.1396 33.126C22.1396 33.1207 22.1416 33.1156 22.1451 33.1117C22.1487 33.1078 22.1536 33.1055 22.1588 33.1052C22.1615 33.105 22.1642 33.1055 22.1667 33.1065C22.1693 33.1075 22.1716 33.109 22.1735 33.111L22.2617 33.1712L22.2538 33.0646C22.2538 33.062 22.2542 33.0595 22.2552 33.0571C22.2562 33.0547 22.2576 33.0525 22.2594 33.0507C22.2612 33.0489 22.2633 33.0474 22.2656 33.0464C22.2679 33.0454 22.2704 33.0449 22.273 33.0449C22.2755 33.0449 22.278 33.0454 22.2803 33.0464C22.2827 33.0474 22.2848 33.0489 22.2866 33.0507C22.2883 33.0525 22.2898 33.0547 22.2907 33.0571C22.2917 33.0595 22.2922 33.062 22.2922 33.0646L22.2843 33.1712L22.3713 33.111C22.3758 33.1072 22.3814 33.1052 22.3871 33.1052C22.3923 33.1055 22.3972 33.1078 22.4008 33.1117C22.4044 33.1156 22.4064 33.1207 22.4064 33.126C22.4063 33.1302 22.405 33.1342 22.4025 33.1376C22.4001 33.1409 22.3967 33.1433 22.3928 33.1446L22.2944 33.1921L22.3928 33.2407C22.3968 33.2418 22.4003 33.2442 22.4028 33.2476C22.4052 33.2509 22.4065 33.2551 22.4064 33.2593C22.4064 33.2646 22.4044 33.2698 22.4008 33.2736C22.3972 33.2775 22.3923 33.2798 22.3871 33.2801C22.3815 33.2796 22.376 33.2776 22.3713 33.2743L22.2843 33.2129L22.2922 33.3207C22.2922 33.3233 22.2917 33.3258 22.2907 33.3282C22.2898 33.3306 22.2883 33.3328 22.2866 33.3346C22.2848 33.3364 22.2827 33.3379 22.2803 33.3389C22.278 33.3399 22.2755 33.3404 22.273 33.3404C22.2704 33.3404 22.2679 33.3399 22.2656 33.3389C22.2633 33.3379 22.2612 33.3364 22.2594 33.3346C22.2576 33.3328 22.2562 33.3306 22.2552 33.3282C22.2542 33.3258 22.2538 33.3233 22.2538 33.3207L22.2526 33.2129Z" fill="#858585"/>
<path d="M22.7285 33.2152L22.6415 33.2767C22.6368 33.2801 22.6314 33.2821 22.6257 33.2824C22.6205 33.2822 22.6156 33.2798 22.612 33.2759C22.6084 33.2721 22.6064 33.2669 22.6064 33.2616C22.6065 33.2574 22.6079 33.2534 22.6103 33.2501C22.6127 33.2467 22.6161 33.2443 22.62 33.2431L22.7195 33.1944L22.62 33.1469C22.6163 33.1454 22.6131 33.1429 22.6107 33.1396C22.6083 33.1363 22.6068 33.1324 22.6064 33.1283C22.6064 33.123 22.6084 33.1179 22.612 33.114C22.6156 33.1101 22.6205 33.1078 22.6257 33.1075C22.6285 33.1073 22.6314 33.1077 22.6342 33.1087C22.6369 33.1097 22.6394 33.1113 22.6415 33.1133L22.7285 33.1735L22.7206 33.0669C22.7205 33.0642 22.7208 33.0615 22.7217 33.0589C22.7226 33.0563 22.724 33.0539 22.7258 33.0518C22.7276 33.0498 22.7297 33.0481 22.7321 33.0469C22.7345 33.0458 22.7372 33.0451 22.7398 33.0449C22.7426 33.0449 22.7453 33.0455 22.7478 33.0466C22.7502 33.0477 22.7525 33.0494 22.7543 33.0515C22.7561 33.0536 22.7575 33.056 22.7583 33.0587C22.7591 33.0614 22.7594 33.0642 22.7591 33.0669L22.7523 33.1735L22.8393 33.1133C22.8414 33.1113 22.8439 33.1097 22.8467 33.1087C22.8494 33.1077 22.8523 33.1073 22.8551 33.1075C22.8577 33.1076 22.8601 33.1083 22.8624 33.1094C22.8647 33.1106 22.8667 33.1121 22.8684 33.1141C22.8701 33.116 22.8714 33.1183 22.8722 33.1207C22.873 33.1232 22.8734 33.1258 22.8732 33.1283C22.8733 33.1324 22.8721 33.1363 22.8699 33.1396C22.8676 33.1429 22.8645 33.1455 22.8608 33.1469L22.7613 33.1944L22.8608 33.2431C22.8646 33.2443 22.8678 33.2468 22.8701 33.2502C22.8723 33.2535 22.8734 33.2575 22.8732 33.2616C22.8733 33.2667 22.8714 33.2717 22.8681 33.2756C22.8648 33.2794 22.8601 33.2819 22.8551 33.2824C22.8494 33.2823 22.8439 33.2803 22.8393 33.2767L22.7523 33.2152L22.7591 33.323C22.7594 33.3257 22.7591 33.3285 22.7583 33.3311C22.7575 33.3337 22.7561 33.3361 22.7543 33.3381C22.7524 33.3401 22.7502 33.3416 22.7477 33.3426C22.7452 33.3436 22.7425 33.3441 22.7398 33.3439C22.7372 33.3439 22.7346 33.3433 22.7322 33.3423C22.7298 33.3412 22.7276 33.3396 22.7258 33.3377C22.724 33.3357 22.7226 33.3334 22.7217 33.3309C22.7209 33.3284 22.7205 33.3257 22.7206 33.323L22.7285 33.2152Z" fill="#858585"/>
<path d="M23.1953 33.2129L23.1072 33.2743C23.1029 33.2777 23.0978 33.2797 23.0925 33.2801C23.0873 33.2798 23.0824 33.2775 23.0788 33.2736C23.0752 33.2698 23.0732 33.2646 23.0732 33.2593C23.0733 33.2551 23.0746 33.2511 23.0771 33.2477C23.0795 33.2444 23.0829 33.242 23.0868 33.2407L23.1852 33.1921L23.0868 33.1446C23.0831 33.1431 23.0799 33.1406 23.0775 33.1373C23.0751 33.134 23.0736 33.1301 23.0732 33.126C23.0732 33.1207 23.0752 33.1156 23.0788 33.1117C23.0824 33.1078 23.0873 33.1055 23.0925 33.1052C23.0952 33.105 23.0979 33.1055 23.1004 33.1065C23.1029 33.1075 23.1052 33.109 23.1072 33.111L23.1953 33.1712L23.1874 33.0646C23.1874 33.062 23.1879 33.0595 23.1889 33.0571C23.1898 33.0547 23.1913 33.0525 23.193 33.0507C23.1948 33.0489 23.197 33.0474 23.1993 33.0464C23.2016 33.0454 23.2041 33.0449 23.2066 33.0449C23.2092 33.0449 23.2117 33.0454 23.214 33.0464C23.2163 33.0474 23.2184 33.0489 23.2202 33.0507C23.222 33.0525 23.2234 33.0547 23.2244 33.0571C23.2254 33.0595 23.2259 33.062 23.2259 33.0646L23.2179 33.1712L23.305 33.111C23.3093 33.107 23.315 33.1049 23.3208 33.1052C23.326 33.1055 23.3309 33.1078 23.3345 33.1117C23.3381 33.1156 23.34 33.1207 23.34 33.126C23.34 33.1302 23.3386 33.1342 23.3362 33.1376C23.3338 33.1409 23.3303 33.1433 23.3265 33.1446L23.2281 33.1921L23.3265 33.2407C23.3304 33.2418 23.334 33.2442 23.3364 33.2476C23.3389 33.2509 23.3402 33.2551 23.34 33.2593C23.34 33.2646 23.3381 33.2698 23.3345 33.2736C23.3309 33.2775 23.326 33.2798 23.3208 33.2801C23.3151 33.2798 23.3096 33.2778 23.305 33.2743L23.2179 33.2129L23.2259 33.3207C23.2259 33.3233 23.2254 33.3258 23.2244 33.3282C23.2234 33.3306 23.222 33.3328 23.2202 33.3346C23.2184 33.3364 23.2163 33.3379 23.214 33.3389C23.2117 33.3399 23.2092 33.3404 23.2066 33.3404C23.2041 33.3404 23.2016 33.3399 23.1993 33.3389C23.197 33.3379 23.1948 33.3364 23.193 33.3346C23.1913 33.3328 23.1898 33.3306 23.1889 33.3282C23.1879 33.3258 23.1874 33.3233 23.1874 33.3207L23.1953 33.2129Z" fill="#858585"/>
<path d="M23.6666 33.2164L23.5796 33.2778C23.575 33.2812 23.5695 33.2832 23.5638 33.2836C23.5586 33.2833 23.5537 33.281 23.5501 33.2771C23.5465 33.2732 23.5446 33.2681 23.5446 33.2628C23.5446 33.2586 23.546 33.2546 23.5484 33.2512C23.5508 33.2479 23.5542 33.2454 23.5581 33.2442L23.6576 33.1956L23.5536 33.1469C23.5499 33.1454 23.5466 33.1429 23.5442 33.1396C23.5419 33.1363 23.5404 33.1324 23.54 33.1283C23.54 33.123 23.542 33.1179 23.5456 33.114C23.5492 33.1101 23.5541 33.1078 23.5593 33.1075C23.5621 33.1073 23.565 33.1077 23.5677 33.1087C23.5705 33.1097 23.573 33.1113 23.5751 33.1133L23.6621 33.1735L23.6542 33.0669C23.6539 33.0642 23.6542 33.0614 23.655 33.0587C23.6558 33.056 23.6572 33.0536 23.659 33.0515C23.6608 33.0494 23.663 33.0477 23.6655 33.0466C23.668 33.0455 23.6707 33.0449 23.6734 33.0449C23.6762 33.0449 23.6789 33.0455 23.6813 33.0466C23.6838 33.0477 23.6861 33.0494 23.6879 33.0515C23.6897 33.0536 23.6911 33.056 23.6919 33.0587C23.6927 33.0614 23.693 33.0642 23.6927 33.0669L23.6859 33.1735L23.7729 33.1133C23.7749 33.1114 23.7772 33.1099 23.7797 33.1089C23.7822 33.1079 23.7849 33.1074 23.7876 33.1075C23.7902 33.1075 23.7928 33.108 23.7952 33.1091C23.7976 33.1102 23.7998 33.1117 23.8016 33.1137C23.8034 33.1156 23.8048 33.1179 23.8057 33.1205C23.8066 33.123 23.807 33.1257 23.8068 33.1283C23.8068 33.1325 23.8054 33.1365 23.803 33.1399C23.8005 33.1432 23.7971 33.1457 23.7933 33.1469L23.6949 33.1944L23.7933 33.2431C23.7972 33.2441 23.8008 33.2465 23.8032 33.2499C23.8057 33.2533 23.807 33.2574 23.8068 33.2616C23.8068 33.2669 23.8048 33.2721 23.8013 33.2759C23.7977 33.2798 23.7928 33.2822 23.7876 33.2825C23.7823 33.2821 23.7771 33.28 23.7729 33.2767L23.6859 33.2152L23.6927 33.323C23.693 33.3257 23.6927 33.3285 23.6919 33.3311C23.6911 33.3337 23.6897 33.3361 23.6879 33.3381C23.686 33.3401 23.6838 33.3416 23.6813 33.3426C23.6788 33.3436 23.6761 33.3441 23.6734 33.3439C23.6708 33.3439 23.6682 33.3433 23.6658 33.3423C23.6634 33.3412 23.6612 33.3396 23.6594 33.3377C23.6576 33.3357 23.6562 33.3334 23.6553 33.3309C23.6544 33.3284 23.6541 33.3257 23.6542 33.323L23.6666 33.2164Z" fill="#858585"/>
<path d="M24.1289 33.2129L24.0408 33.2743C24.0365 33.2777 24.0314 33.2797 24.0261 33.2801C24.0209 33.2798 24.016 33.2775 24.0124 33.2736C24.0088 33.2698 24.0068 33.2646 24.0068 33.2593C24.0069 33.2551 24.0082 33.2511 24.0107 33.2477C24.0131 33.2444 24.0165 33.242 24.0204 33.2407L24.1188 33.1921L24.0204 33.1446C24.0167 33.1431 24.0134 33.1406 24.011 33.1373C24.0087 33.134 24.0072 33.1301 24.0068 33.126C24.0068 33.1207 24.0088 33.1156 24.0124 33.1117C24.016 33.1078 24.0209 33.1055 24.0261 33.1052C24.0288 33.105 24.0315 33.1055 24.034 33.1065C24.0365 33.1075 24.0388 33.109 24.0408 33.111L24.1289 33.1712L24.121 33.0646C24.121 33.062 24.1215 33.0595 24.1225 33.0571C24.1234 33.0547 24.1249 33.0525 24.1266 33.0507C24.1284 33.0489 24.1305 33.0474 24.1329 33.0464C24.1352 33.0454 24.1377 33.0449 24.1402 33.0449C24.1428 33.0449 24.1453 33.0454 24.1476 33.0464C24.1499 33.0474 24.152 33.0489 24.1538 33.0507C24.1556 33.0525 24.157 33.0547 24.158 33.0571C24.159 33.0595 24.1594 33.062 24.1594 33.0646L24.1515 33.1712L24.2386 33.111C24.2429 33.107 24.2486 33.1049 24.2544 33.1052C24.2596 33.1055 24.2645 33.1078 24.2681 33.1117C24.2716 33.1156 24.2736 33.1207 24.2736 33.126C24.2736 33.1302 24.2722 33.1342 24.2698 33.1376C24.2673 33.1409 24.2639 33.1433 24.2601 33.1446L24.1606 33.1921L24.2601 33.2407C24.264 33.2418 24.2676 33.2442 24.27 33.2476C24.2725 33.2509 24.2738 33.2551 24.2736 33.2593C24.2736 33.2646 24.2716 33.2698 24.2681 33.2736C24.2645 33.2775 24.2596 33.2798 24.2544 33.2801C24.2487 33.2798 24.2432 33.2778 24.2386 33.2743L24.1515 33.2129L24.1594 33.3207C24.1594 33.3233 24.159 33.3258 24.158 33.3282C24.157 33.3306 24.1556 33.3328 24.1538 33.3346C24.152 33.3364 24.1499 33.3379 24.1476 33.3389C24.1453 33.3399 24.1428 33.3404 24.1402 33.3404C24.1377 33.3404 24.1352 33.3399 24.1329 33.3389C24.1305 33.3379 24.1284 33.3364 24.1266 33.3346C24.1249 33.3328 24.1234 33.3306 24.1225 33.3282C24.1215 33.3258 24.121 33.3233 24.121 33.3207L24.1289 33.2129Z" fill="#858585"/>
<path d="M24.5957 33.2152L24.5087 33.2767C24.504 33.2801 24.4985 33.2821 24.4928 33.2824C24.4877 33.2822 24.4828 33.2798 24.4792 33.2759C24.4756 33.2721 24.4736 33.2669 24.4736 33.2616C24.4737 33.2574 24.475 33.2534 24.4775 33.2501C24.4799 33.2467 24.4833 33.2443 24.4872 33.2431L24.5867 33.1944L24.4872 33.1469C24.4835 33.1454 24.4802 33.1429 24.4778 33.1396C24.4754 33.1363 24.474 33.1324 24.4736 33.1283C24.4736 33.123 24.4756 33.1179 24.4792 33.114C24.4828 33.1101 24.4877 33.1078 24.4928 33.1075C24.4957 33.1073 24.4986 33.1077 24.5013 33.1087C24.5041 33.1097 24.5066 33.1113 24.5087 33.1133L24.5957 33.1735L24.5878 33.0669C24.5875 33.0642 24.5877 33.0614 24.5886 33.0587C24.5894 33.056 24.5908 33.0536 24.5926 33.0515C24.5944 33.0494 24.5966 33.0477 24.5991 33.0466C24.6016 33.0455 24.6043 33.0449 24.607 33.0449C24.6098 33.0449 24.6125 33.0455 24.6149 33.0466C24.6174 33.0477 24.6197 33.0494 24.6215 33.0515C24.6233 33.0536 24.6247 33.056 24.6255 33.0587C24.6263 33.0614 24.6266 33.0642 24.6262 33.0669L24.6195 33.1735L24.7065 33.1133C24.7085 33.1114 24.7108 33.1099 24.7133 33.1089C24.7158 33.1079 24.7185 33.1074 24.7212 33.1075C24.7238 33.1075 24.7264 33.108 24.7288 33.1091C24.7312 33.1102 24.7334 33.1117 24.7352 33.1137C24.737 33.1156 24.7384 33.1179 24.7393 33.1205C24.7402 33.123 24.7406 33.1257 24.7404 33.1283C24.7403 33.1323 24.7391 33.1362 24.7368 33.1395C24.7346 33.1428 24.7316 33.1453 24.728 33.1469L24.6285 33.1944L24.728 33.2431C24.7317 33.2445 24.7348 33.247 24.737 33.2503C24.7393 33.2536 24.7404 33.2576 24.7404 33.2616C24.7404 33.2669 24.7384 33.2721 24.7349 33.2759C24.7313 33.2798 24.7264 33.2822 24.7212 33.2824C24.7159 33.2821 24.7107 33.28 24.7065 33.2767L24.6195 33.2152L24.6262 33.323C24.6266 33.3257 24.6263 33.3285 24.6255 33.3311C24.6247 33.3337 24.6233 33.3361 24.6215 33.3381C24.6196 33.3401 24.6174 33.3416 24.6149 33.3426C24.6124 33.3436 24.6097 33.3441 24.607 33.3439C24.6044 33.3439 24.6018 33.3433 24.5994 33.3423C24.597 33.3412 24.5948 33.3396 24.593 33.3377C24.5912 33.3357 24.5898 33.3334 24.5889 33.3309C24.588 33.3284 24.5877 33.3257 24.5878 33.323L24.5957 33.2152Z" fill="#858585"/>
<path d="M26.2058 25.1103V23.9883H26.3751V24.9645H26.8835V25.1103H26.2058Z" fill="#141414"/>
<path d="M27.4179 25.1273C27.339 25.1273 27.2702 25.1092 27.2114 25.073C27.1526 25.0369 27.1069 24.9863 27.0744 24.9213C27.0419 24.8563 27.0257 24.7803 27.0257 24.6934C27.0257 24.6061 27.0419 24.5297 27.0744 24.4644C27.1069 24.399 27.1526 24.3482 27.2114 24.3121C27.2702 24.2759 27.339 24.2578 27.4179 24.2578C27.4968 24.2578 27.5657 24.2759 27.6245 24.3121C27.6833 24.3482 27.7289 24.399 27.7614 24.4644C27.7939 24.5297 27.8102 24.6061 27.8102 24.6934C27.8102 24.7803 27.7939 24.8563 27.7614 24.9213C27.7289 24.9863 27.6833 25.0369 27.6245 25.073C27.5657 25.1092 27.4968 25.1273 27.4179 25.1273ZM27.4185 24.9897C27.4696 24.9897 27.512 24.9762 27.5456 24.9492C27.5792 24.9222 27.604 24.8862 27.6201 24.8413C27.6365 24.7964 27.6447 24.7469 27.6447 24.6928C27.6447 24.6391 27.6365 24.5898 27.6201 24.5449C27.604 24.4996 27.5792 24.4633 27.5456 24.4359C27.512 24.4085 27.4696 24.3948 27.4185 24.3948C27.367 24.3948 27.3242 24.4085 27.2903 24.4359C27.2567 24.4633 27.2317 24.4996 27.2152 24.5449C27.1991 24.5898 27.1911 24.6391 27.1911 24.6928C27.1911 24.7469 27.1991 24.7964 27.2152 24.8413C27.2317 24.8862 27.2567 24.9222 27.2903 24.9492C27.3242 24.9762 27.367 24.9897 27.4185 24.9897Z" fill="#141414"/>
<path d="M28.3458 25.4434C28.279 25.4434 28.2215 25.4346 28.1733 25.4171C28.1254 25.3995 28.0863 25.3763 28.056 25.3475C28.0257 25.3186 28.0031 25.287 27.9881 25.2527L28.1289 25.1946C28.1387 25.2107 28.1519 25.2277 28.1683 25.2456C28.1851 25.2638 28.2078 25.2794 28.2363 25.2922C28.2651 25.3049 28.3022 25.3113 28.3475 25.3113C28.4096 25.3113 28.4609 25.2962 28.5014 25.2659C28.542 25.2359 28.5622 25.1881 28.5622 25.1223V24.9569H28.5518C28.542 24.9748 28.5277 24.9947 28.5091 25.0166C28.4908 25.0385 28.4656 25.0575 28.4335 25.0736C28.4013 25.0896 28.3595 25.0977 28.308 25.0977C28.2416 25.0977 28.1817 25.0821 28.1283 25.0511C28.0754 25.0197 28.0334 24.9735 28.0023 24.9125C27.9717 24.8511 27.9563 24.7757 27.9563 24.6862C27.9563 24.5968 27.9715 24.5201 28.0018 24.4561C28.0325 24.3922 28.0745 24.3433 28.1278 24.3093C28.1811 24.275 28.2416 24.2578 28.3091 24.2578C28.3614 24.2578 28.4035 24.2666 28.4357 24.2841C28.4678 24.3013 28.4928 24.3214 28.5107 24.3444C28.529 24.3674 28.5431 24.3877 28.5529 24.4052H28.565V24.2688H28.7255V25.1289C28.7255 25.2012 28.7087 25.2606 28.6751 25.3069C28.6415 25.3533 28.596 25.3877 28.5387 25.4099C28.4817 25.4322 28.4174 25.4434 28.3458 25.4434ZM28.3442 24.9618C28.3913 24.9618 28.4311 24.9508 28.4636 24.9289C28.4965 24.9067 28.5213 24.8749 28.5381 24.8336C28.5553 24.792 28.5639 24.7421 28.5639 24.684C28.5639 24.6274 28.5555 24.5776 28.5387 24.5345C28.5219 24.4914 28.4972 24.4578 28.4647 24.4337C28.4322 24.4092 28.392 24.397 28.3442 24.397C28.2949 24.397 28.2538 24.4098 28.2209 24.4353C28.1881 24.4605 28.1632 24.4949 28.1464 24.5383C28.13 24.5818 28.1218 24.6304 28.1218 24.684C28.1218 24.7392 28.1302 24.7876 28.147 24.8292C28.1638 24.8709 28.1886 24.9034 28.2215 24.9267C28.2547 24.9501 28.2956 24.9618 28.3442 24.9618Z" fill="#141414"/>
<path d="M28.9452 25.1103V24.2688H29.109V25.1103H28.9452ZM29.0279 24.1389C28.9994 24.1389 28.9749 24.1294 28.9545 24.1105C28.9344 24.0911 28.9244 24.0681 28.9244 24.0414C28.9244 24.0144 28.9344 23.9914 28.9545 23.9724C28.9749 23.953 28.9994 23.9434 29.0279 23.9434C29.0564 23.9434 29.0807 23.953 29.1008 23.9724C29.1212 23.9914 29.1314 24.0144 29.1314 24.0414C29.1314 24.0681 29.1212 24.0911 29.1008 24.1105C29.0807 24.1294 29.0564 24.1389 29.0279 24.1389Z" fill="#141414"/>
<path d="M29.4932 24.6106V25.1103H29.3293V24.2688H29.4866V24.4057H29.497C29.5163 24.3612 29.5467 24.3254 29.5879 24.2984C29.6296 24.2713 29.682 24.2578 29.7452 24.2578C29.8025 24.2578 29.8527 24.2699 29.8958 24.294C29.9389 24.3177 29.9723 24.3531 29.9961 24.4003C30.0198 24.4474 30.0317 24.5056 30.0317 24.575V25.1103H29.8679V24.5947C29.8679 24.5338 29.852 24.4861 29.8202 24.4518C29.7884 24.4171 29.7448 24.3997 29.6893 24.3997C29.6513 24.3997 29.6175 24.4079 29.5879 24.4244C29.5587 24.4408 29.5355 24.4649 29.5184 24.4967C29.5016 24.5281 29.4932 24.5661 29.4932 24.6106Z" fill="#141414"/>
<rect x="22.2058" y="35.9434" width="10.5506" height="3" rx="1.5" fill="#196719"/>
<path d="M26.2058 37.7213V36.9733H26.3187V37.6241H26.6576V37.7213H26.2058Z" fill="white"/>
<path d="M27.0139 37.7326C26.9613 37.7326 26.9154 37.7206 26.8762 37.6965C26.837 37.6724 26.8066 37.6386 26.7849 37.5953C26.7632 37.552 26.7524 37.5013 26.7524 37.4434C26.7524 37.3852 26.7632 37.3343 26.7849 37.2907C26.8066 37.2471 26.837 37.2133 26.8762 37.1892C26.9154 37.1651 26.9613 37.153 27.0139 37.153C27.0665 37.153 27.1124 37.1651 27.1516 37.1892C27.1908 37.2133 27.2212 37.2471 27.2429 37.2907C27.2646 37.3343 27.2754 37.3852 27.2754 37.4434C27.2754 37.5013 27.2646 37.552 27.2429 37.5953C27.2212 37.6386 27.1908 37.6724 27.1516 37.6965C27.1124 37.7206 27.0665 37.7326 27.0139 37.7326ZM27.0142 37.6409C27.0483 37.6409 27.0766 37.6319 27.099 37.6139C27.1214 37.5959 27.1379 37.5719 27.1487 37.542C27.1596 37.512 27.1651 37.479 27.1651 37.443C27.1651 37.4072 27.1596 37.3743 27.1487 37.3444C27.1379 37.3142 27.1214 37.29 27.099 37.2717C27.0766 37.2534 27.0483 37.2443 27.0142 37.2443C26.9799 37.2443 26.9514 37.2534 26.9288 37.2717C26.9064 37.29 26.8897 37.3142 26.8787 37.3444C26.868 37.3743 26.8627 37.4072 26.8627 37.443C26.8627 37.479 26.868 37.512 26.8787 37.542C26.8897 37.5719 26.9064 37.5959 26.9288 37.6139C26.9514 37.6319 26.9799 37.6409 27.0142 37.6409Z" fill="white"/>
<path d="M27.6325 37.9434C27.5879 37.9434 27.5496 37.9375 27.5174 37.9258C27.4855 37.9141 27.4595 37.8987 27.4393 37.8794C27.4191 37.8602 27.404 37.8391 27.394 37.8163L27.4879 37.7775C27.4944 37.7883 27.5032 37.7996 27.5142 37.8115C27.5254 37.8237 27.5405 37.834 27.5594 37.8426C27.5787 37.8511 27.6034 37.8553 27.6336 37.8553C27.675 37.8553 27.7092 37.8452 27.7362 37.825C27.7632 37.8051 27.7768 37.7732 27.7768 37.7293V37.619H27.7698C27.7632 37.631 27.7537 37.6442 27.7413 37.6588C27.7292 37.6735 27.7124 37.6861 27.6909 37.6968C27.6695 37.7075 27.6416 37.7129 27.6073 37.7129C27.563 37.7129 27.523 37.7026 27.4875 37.6819C27.4522 37.6609 27.4242 37.6301 27.4035 37.5895C27.383 37.5485 27.3728 37.4983 27.3728 37.4386C27.3728 37.379 27.3829 37.3278 27.4031 37.2852C27.4236 37.2426 27.4516 37.21 27.4871 37.1873C27.5227 37.1644 27.563 37.153 27.608 37.153C27.6428 37.153 27.671 37.1588 27.6924 37.1705C27.7138 37.182 27.7305 37.1954 27.7424 37.2107C27.7546 37.226 27.764 37.2396 27.7705 37.2512H27.7786V37.1603H27.8856V37.7337C27.8856 37.7819 27.8744 37.8215 27.852 37.8524C27.8296 37.8833 27.7993 37.9062 27.7611 37.9211C27.7231 37.9359 27.6802 37.9434 27.6325 37.9434ZM27.6314 37.6223C27.6628 37.6223 27.6893 37.615 27.711 37.6004C27.7329 37.5856 27.7495 37.5644 27.7607 37.5369C27.7721 37.5091 27.7779 37.4759 27.7779 37.4372C27.7779 37.3994 27.7723 37.3662 27.7611 37.3374C27.7499 37.3087 27.7334 37.2863 27.7117 37.2702C27.6901 37.2539 27.6633 37.2458 27.6314 37.2458C27.5985 37.2458 27.5711 37.2543 27.5492 37.2713C27.5273 37.2881 27.5107 37.311 27.4995 37.34C27.4886 37.369 27.4831 37.4014 27.4831 37.4372C27.4831 37.4739 27.4887 37.5062 27.4999 37.5339C27.5111 37.5617 27.5277 37.5834 27.5496 37.5989C27.5717 37.6145 27.599 37.6223 27.6314 37.6223Z" fill="white"/>
<path d="M28.0321 37.7213V37.1603H28.1413V37.7213H28.0321ZM28.0872 37.0737C28.0682 37.0737 28.0519 37.0674 28.0383 37.0548C28.0249 37.0418 28.0182 37.0265 28.0182 37.0087C28.0182 36.9907 28.0249 36.9754 28.0383 36.9627C28.0519 36.9498 28.0682 36.9434 28.0872 36.9434C28.1062 36.9434 28.1224 36.9498 28.1358 36.9627C28.1494 36.9754 28.1562 36.9907 28.1562 37.0087C28.1562 37.0265 28.1494 37.0418 28.1358 37.0548C28.1224 37.0674 28.1062 37.0737 28.0872 37.0737Z" fill="white"/>
<path d="M28.3974 37.3882V37.7213H28.2882V37.1603H28.393V37.2516H28.3999C28.4128 37.2219 28.433 37.198 28.4606 37.18C28.4883 37.162 28.5233 37.153 28.5654 37.153C28.6036 37.153 28.6371 37.161 28.6658 37.1771C28.6945 37.1929 28.7168 37.2166 28.7327 37.248C28.7485 37.2794 28.7564 37.3182 28.7564 37.3645V37.7213H28.6472V37.3776C28.6472 37.337 28.6366 37.3052 28.6154 37.2823C28.5942 37.2592 28.5651 37.2476 28.5281 37.2476C28.5028 37.2476 28.4803 37.2531 28.4606 37.264C28.4411 37.275 28.4256 37.2911 28.4142 37.3122C28.403 37.3332 28.3974 37.3585 28.3974 37.3882Z" fill="white"/>
</svg>
