<svg width="57" height="56" viewBox="0 0 57 56" fill="none" xmlns="http://www.w3.org/2000/svg">
<rect x="0.5" width="56.0002" height="56" rx="16" fill="#196719"/>
<ellipse cx="24.0901" cy="15.9248" rx="3.46241" ry="3.46241" fill="#FCCE17"/>
<path d="M28.4624 20.6356C22.1311 26.9669 13.4998 17.5442 19.93 11.114C3.02519 15.8188 6.87171 45.3671 23.6397 45.3671C25.4946 35.5982 38.1076 25.6643 45.5271 17.6678C47.8766 15.3183 47.1346 11.8312 45.6507 10.4957C42.6829 7.82474 39.8389 9.34156 38.7259 10.372L28.4624 20.6356Z" fill="white" stroke="white" stroke-width="1.97852" stroke-linecap="round"/>
<path d="M25.9294 46.0665C26.6287 43.0359 30.5802 34.9465 40.7909 26.8339C53.5544 16.693 44.1129 42.5696 25.9294 46.0665Z" fill="#FCCE17"/>
<path d="M42.1593 10.0491C39.8456 10.0491 37.9631 11.9315 37.9631 14.2453C37.9631 16.559 39.8456 18.4415 42.1593 18.4415C44.4731 18.4415 46.3555 16.559 46.3555 14.2453C46.3555 11.9315 44.4731 10.0491 42.1593 10.0491ZM45.0442 16.182H44.132C44.1037 16.1819 44.0759 16.1744 44.0515 16.1603C44.027 16.1461 44.0067 16.1258 43.9926 16.1013L43.6669 15.5429C43.6455 15.5063 43.6393 15.4629 43.6496 15.4218L43.9494 14.213C43.9554 14.1886 43.967 14.166 43.9833 14.1469C43.9996 14.1278 44.0201 14.1128 44.0432 14.103L44.6101 13.863C44.6378 13.8512 44.6682 13.8474 44.6979 13.8521C44.7277 13.8567 44.7555 13.8696 44.7783 13.8892L45.6182 14.6118C45.6389 14.6296 45.6547 14.6524 45.6642 14.6781C45.6737 14.7037 45.6765 14.7313 45.6724 14.7583C45.6029 15.2355 45.4362 15.6933 45.1826 16.1035C45.1683 16.1274 45.148 16.1472 45.1238 16.161C45.0995 16.1747 45.0721 16.182 45.0442 16.182ZM39.7086 13.8646L40.2755 14.1046C40.2986 14.1144 40.3191 14.1294 40.3354 14.1485C40.3517 14.1676 40.3633 14.1902 40.3693 14.2146L40.6691 15.4234C40.6794 15.4645 40.6732 15.508 40.6517 15.5445L40.3261 16.1013C40.312 16.1258 40.2917 16.1461 40.2672 16.1603C40.2427 16.1744 40.215 16.1819 40.1867 16.182H39.2744C39.2469 16.182 39.2197 16.1749 39.1956 16.1615C39.1715 16.148 39.1513 16.1286 39.1369 16.1051C38.8833 15.6949 38.7166 15.2371 38.647 14.7599C38.6429 14.7329 38.6458 14.7053 38.6553 14.6797C38.6648 14.654 38.6806 14.6313 38.7013 14.6134L39.5411 13.8908C39.5639 13.8713 39.5916 13.8586 39.6212 13.8539C39.6507 13.8493 39.681 13.853 39.7086 13.8646ZM44.8921 12.1046L44.5276 13.1411C44.5202 13.1623 44.5086 13.1817 44.4933 13.1982C44.4781 13.2146 44.4596 13.2277 44.439 13.2366L43.8423 13.4893C43.8149 13.5009 43.7848 13.5047 43.7554 13.5003C43.726 13.4959 43.6984 13.4834 43.6756 13.4643L42.5406 12.5123C42.5225 12.4973 42.5079 12.4785 42.4978 12.4573C42.4876 12.436 42.4823 12.4128 42.4821 12.3892V11.7118C42.4821 11.6853 42.4887 11.6591 42.5012 11.6357C42.5138 11.6123 42.5319 11.5924 42.5539 11.5776L43.418 11.0019C43.4405 10.9868 43.4665 10.9777 43.4935 10.9753C43.5205 10.973 43.5477 10.9775 43.5725 10.9884C44.0697 11.2052 44.5109 11.5325 44.8627 11.9454C44.8812 11.967 44.8936 11.9931 44.8988 12.021C44.904 12.049 44.9017 12.0778 44.8921 12.1046ZM40.9005 11.0019L41.7647 11.5776C41.7868 11.5924 41.8049 11.6123 41.8174 11.6357C41.83 11.6591 41.8365 11.6853 41.8366 11.7118V12.3892C41.8366 12.4128 41.8314 12.4361 41.8214 12.4575C41.8114 12.4788 41.7969 12.4978 41.7789 12.5129L40.6439 13.4649C40.6211 13.484 40.5935 13.4965 40.5641 13.5009C40.5347 13.5053 40.5046 13.5015 40.4772 13.4899L39.8797 13.2366C39.859 13.2278 39.8403 13.2148 39.8249 13.1984C39.8095 13.182 39.7977 13.1626 39.7903 13.1413L39.4258 12.1048C39.4163 12.0779 39.4141 12.049 39.4194 12.021C39.4247 11.993 39.4374 11.9669 39.456 11.9454C39.808 11.5321 40.2495 11.2045 40.7472 10.9876C40.7719 10.977 40.7989 10.9727 40.8256 10.9753C40.8524 10.9778 40.8781 10.9869 40.9005 11.0019ZM41.2497 17.6081L40.8517 16.6056C40.8426 16.5828 40.8388 16.5583 40.8406 16.5338C40.8424 16.5093 40.8498 16.4856 40.8621 16.4644L41.1682 15.9399C41.1823 15.9154 41.2026 15.8951 41.2271 15.8809C41.2516 15.8667 41.2793 15.8592 41.3076 15.8592H43.0111C43.0394 15.8592 43.0671 15.8667 43.0916 15.8809C43.116 15.8951 43.1364 15.9154 43.1505 15.9399L43.4567 16.4644C43.4691 16.4856 43.4765 16.5093 43.4784 16.5338C43.4802 16.5582 43.4765 16.5828 43.4674 16.6056L43.0722 17.6077C43.0625 17.6322 43.047 17.6539 43.027 17.6711C43.007 17.6882 42.9831 17.7001 42.9574 17.7059C42.433 17.8263 41.8881 17.8263 41.3637 17.7059C41.3382 17.7001 41.3145 17.6881 41.2946 17.6711C41.2747 17.654 41.2593 17.6324 41.2497 17.6081Z" fill="#196719"/>
<g filter="url(#filter0_d_3006_57329)">
<ellipse cx="42.1615" cy="14.3069" rx="2.40642" ry="2.40642" fill="white"/>
<ellipse cx="42.1617" cy="14.3069" rx="1.25156" ry="1.25156" fill="#FCCE17"/>
<mask id="path-8-inside-1_3006_57329" fill="white">
<path d="M44.9245 14.3069C44.9245 15.8328 43.6875 17.0699 42.1616 17.0699C40.6356 17.0699 39.3986 15.8328 39.3986 14.3069C39.3986 12.781 40.6356 11.544 42.1616 11.544C43.6875 11.544 44.9245 12.781 44.9245 14.3069ZM39.9012 14.3069C39.9012 15.5553 40.9132 16.5672 42.1616 16.5672C43.4099 16.5672 44.4219 15.5553 44.4219 14.3069C44.4219 13.0586 43.4099 12.0466 42.1616 12.0466C40.9132 12.0466 39.9012 13.0586 39.9012 14.3069Z"/>
</mask>
<path d="M44.9245 14.3069C44.9245 15.8328 43.6875 17.0699 42.1616 17.0699C40.6356 17.0699 39.3986 15.8328 39.3986 14.3069C39.3986 12.781 40.6356 11.544 42.1616 11.544C43.6875 11.544 44.9245 12.781 44.9245 14.3069ZM39.9012 14.3069C39.9012 15.5553 40.9132 16.5672 42.1616 16.5672C43.4099 16.5672 44.4219 15.5553 44.4219 14.3069C44.4219 13.0586 43.4099 12.0466 42.1616 12.0466C40.9132 12.0466 39.9012 13.0586 39.9012 14.3069Z" fill="#E0E0E0" stroke="#196719" stroke-width="0.699367" mask="url(#path-8-inside-1_3006_57329)"/>
<path d="M44.1224 14.307C44.1224 15.3899 43.2446 16.2677 42.1617 16.2677C41.0787 16.2677 40.2009 15.3899 40.2009 14.307C40.2009 13.224 41.0787 12.3462 42.1617 12.3462C43.2446 12.3462 44.1224 13.224 44.1224 14.307ZM40.6322 14.307C40.6322 15.1516 41.317 15.8364 42.1617 15.8364C43.0063 15.8364 43.6911 15.1516 43.6911 14.307C43.6911 13.4623 43.0063 12.7775 42.1617 12.7775C41.317 12.7775 40.6322 13.4623 40.6322 14.307Z" fill="#70E000"/>
<path d="M44.1224 14.307C44.1224 14.5644 44.0717 14.8194 43.9732 15.0573C43.8747 15.2952 43.7302 15.5114 43.5481 15.6934C43.3661 15.8755 43.1499 16.0199 42.912 16.1185C42.6741 16.217 42.4192 16.2677 42.1617 16.2677C41.9042 16.2677 41.6492 16.217 41.4113 16.1185C41.1734 16.0199 40.9572 15.8755 40.7752 15.6934C40.5931 15.5114 40.4487 15.2952 40.3501 15.0573C40.2516 14.8194 40.2009 14.5644 40.2009 14.307H40.6322C40.6322 14.5078 40.6718 14.7067 40.7487 14.8922C40.8255 15.0778 40.9382 15.2464 41.0802 15.3884C41.2222 15.5304 41.3908 15.6431 41.5764 15.7199C41.7619 15.7968 41.9608 15.8364 42.1617 15.8364C42.3625 15.8364 42.5614 15.7968 42.7469 15.7199C42.9325 15.6431 43.1011 15.5304 43.2431 15.3884C43.3851 15.2464 43.4978 15.0778 43.5747 14.8922C43.6515 14.7067 43.6911 14.5078 43.6911 14.307H44.1224Z" fill="#196719"/>
<g clip-path="url(#clip0_3006_57329)">
<path d="M42.1615 13.0059C41.4441 13.0059 40.8605 13.5896 40.8605 14.3069C40.8605 15.0243 41.4441 15.6079 42.1615 15.6079C42.8789 15.6079 43.4625 15.0243 43.4625 14.3069C43.4625 13.5896 42.8789 13.0059 42.1615 13.0059ZM43.0559 14.9074H42.7731C42.7643 14.9074 42.7557 14.9051 42.7481 14.9007C42.7405 14.8963 42.7342 14.89 42.7299 14.8824L42.6289 14.7092C42.6223 14.6979 42.6203 14.6844 42.6235 14.6717L42.7165 14.2969C42.7183 14.2894 42.7219 14.2824 42.727 14.2764C42.732 14.2705 42.7384 14.2659 42.7456 14.2628L42.9213 14.1884C42.9299 14.1848 42.9394 14.1836 42.9486 14.185C42.9578 14.1865 42.9664 14.1905 42.9735 14.1965L43.2339 14.4206C43.2403 14.4261 43.2452 14.4332 43.2482 14.4411C43.2511 14.4491 43.252 14.4576 43.2507 14.466C43.2291 14.6139 43.1775 14.7559 43.0988 14.8831C43.0944 14.8905 43.0881 14.8966 43.0806 14.9009C43.0731 14.9052 43.0646 14.9074 43.0559 14.9074ZM41.4016 14.1889L41.5774 14.2633C41.5846 14.2664 41.5909 14.271 41.596 14.2769C41.601 14.2829 41.6046 14.2899 41.6065 14.2974L41.6994 14.6722C41.7026 14.6849 41.7007 14.6984 41.6941 14.7097L41.5931 14.8824C41.5887 14.89 41.5824 14.8963 41.5748 14.9007C41.5673 14.9051 41.5586 14.9074 41.5499 14.9074H41.267C41.2585 14.9074 41.2501 14.9052 41.2426 14.901C41.2351 14.8969 41.2289 14.8909 41.2244 14.8836C41.1458 14.7564 41.0941 14.6144 41.0725 14.4665C41.0712 14.4581 41.0721 14.4496 41.0751 14.4416C41.078 14.4337 41.0829 14.4266 41.0893 14.4211L41.3497 14.197C41.3568 14.191 41.3654 14.187 41.3745 14.1856C41.3837 14.1842 41.3931 14.1853 41.4016 14.1889ZM43.0088 13.6432L42.8957 13.9646C42.8935 13.9712 42.8899 13.9772 42.8851 13.9823C42.8804 13.9874 42.8747 13.9914 42.8683 13.9942L42.6833 14.0726C42.6748 14.0762 42.6655 14.0773 42.6563 14.076C42.6472 14.0746 42.6387 14.0707 42.6316 14.0648L42.2797 13.7696C42.2741 13.765 42.2695 13.7592 42.2664 13.7526C42.2633 13.746 42.2616 13.7388 42.2616 13.7315V13.5214C42.2616 13.5132 42.2636 13.5051 42.2675 13.4979C42.2714 13.4906 42.277 13.4844 42.2838 13.4799L42.5517 13.3013C42.5587 13.2967 42.5668 13.2938 42.5751 13.2931C42.5835 13.2924 42.5919 13.2938 42.5996 13.2971C42.7538 13.3644 42.8906 13.4659 42.9996 13.5939C43.0054 13.6006 43.0092 13.6087 43.0108 13.6173C43.0124 13.626 43.0117 13.6349 43.0088 13.6432ZM41.7712 13.3013L42.0391 13.4799C42.046 13.4844 42.0516 13.4906 42.0555 13.4979C42.0594 13.5051 42.0614 13.5132 42.0614 13.5214V13.7315C42.0614 13.7388 42.0598 13.746 42.0567 13.7526C42.0536 13.7593 42.0491 13.7651 42.0435 13.7698L41.6916 14.065C41.6846 14.0709 41.676 14.0748 41.6669 14.0762C41.6578 14.0775 41.6484 14.0763 41.64 14.0728L41.4547 13.9942C41.4483 13.9915 41.4425 13.9874 41.4377 13.9824C41.4329 13.9773 41.4293 13.9712 41.427 13.9647L41.314 13.6433C41.311 13.635 41.3103 13.626 41.312 13.6173C41.3136 13.6086 41.3175 13.6006 41.3233 13.5939C41.4325 13.4657 41.5694 13.3642 41.7236 13.2969C41.7313 13.2936 41.7397 13.2923 41.748 13.2931C41.7563 13.2939 41.7643 13.2967 41.7712 13.3013ZM41.8795 15.3496L41.756 15.0388C41.7532 15.0317 41.752 15.0241 41.7526 15.0165C41.7532 15.0089 41.7555 15.0015 41.7593 14.995L41.8542 14.8323C41.8586 14.8248 41.8649 14.8184 41.8725 14.8141C41.88 14.8097 41.8886 14.8073 41.8974 14.8073H42.4256C42.4343 14.8073 42.4429 14.8097 42.4505 14.8141C42.4581 14.8184 42.4644 14.8248 42.4688 14.8323L42.5637 14.995C42.5676 15.0015 42.5699 15.0089 42.5705 15.0165C42.571 15.0241 42.5699 15.0317 42.5671 15.0388L42.4445 15.3494C42.4415 15.357 42.4367 15.3638 42.4305 15.3691C42.4243 15.3744 42.4169 15.3781 42.4089 15.3799C42.2463 15.4172 42.0774 15.4172 41.9148 15.3799C41.9069 15.3781 41.8995 15.3744 41.8934 15.3691C41.8872 15.3638 41.8824 15.3571 41.8795 15.3496Z" fill="#196719"/>
</g>
</g>
<defs>
<filter id="filter0_d_3006_57329" x="39.0434" y="11.2776" width="6.23635" height="6.23633" filterUnits="userSpaceOnUse" color-interpolation-filters="sRGB">
<feFlood flood-opacity="0" result="BackgroundImageFix"/>
<feColorMatrix in="SourceAlpha" type="matrix" values="0 0 0 0 0 0 0 0 0 0 0 0 0 0 0 0 0 0 127 0" result="hardAlpha"/>
<feOffset dy="0.0888085"/>
<feGaussianBlur stdDeviation="0.177617"/>
<feColorMatrix type="matrix" values="0 0 0 0 0.08 0 0 0 0 0.08 0 0 0 0 0.08 0 0 0 0.08 0"/>
<feBlend mode="normal" in2="BackgroundImageFix" result="effect1_dropShadow_3006_57329"/>
<feBlend mode="normal" in="SourceGraphic" in2="effect1_dropShadow_3006_57329" result="shape"/>
</filter>
<clipPath id="clip0_3006_57329">
<rect width="3.20249" height="3.20249" fill="white" transform="translate(40.5602 12.7057)"/>
</clipPath>
</defs>
</svg>
