<svg width="17" height="16" viewBox="0 0 17 16" fill="none" xmlns="http://www.w3.org/2000/svg">
<path d="M8.49967 15.2066C8.03967 15.2066 7.60634 14.9733 7.29967 14.5666L6.29967 13.2333C6.27967 13.2066 6.19967 13.1733 6.16634 13.1666H5.83301C3.05301 13.1666 1.33301 12.4133 1.33301 8.66659V5.33325C1.33301 2.38659 2.88634 0.833252 5.83301 0.833252H11.1663C14.113 0.833252 15.6663 2.38659 15.6663 5.33325V8.66659C15.6663 11.6133 14.113 13.1666 11.1663 13.1666H10.833C10.7797 13.1666 10.733 13.1933 10.6997 13.2333L9.69967 14.5666C9.39301 14.9733 8.95967 15.2066 8.49967 15.2066ZM5.83301 1.83325C3.44634 1.83325 2.33301 2.94659 2.33301 5.33325V8.66659C2.33301 11.6799 3.36634 12.1666 5.83301 12.1666H6.16634C6.50634 12.1666 6.89301 12.3599 7.09967 12.6333L8.09967 13.9666C8.33301 14.2733 8.66634 14.2733 8.89967 13.9666L9.89968 12.6333C10.1197 12.3399 10.4663 12.1666 10.833 12.1666H11.1663C13.553 12.1666 14.6663 11.0533 14.6663 8.66659V5.33325C14.6663 2.94659 13.553 1.83325 11.1663 1.83325H5.83301Z" fill="#858585"/>
<path d="M8.49967 8.00008C8.12634 8.00008 7.83301 7.70008 7.83301 7.33341C7.83301 6.96675 8.13301 6.66675 8.49967 6.66675C8.86634 6.66675 9.16634 6.96675 9.16634 7.33341C9.16634 7.70008 8.87301 8.00008 8.49967 8.00008Z" fill="#858585"/>
<path d="M11.1667 8.00008C10.7933 8.00008 10.5 7.70008 10.5 7.33341C10.5 6.96675 10.8 6.66675 11.1667 6.66675C11.5333 6.66675 11.8333 6.96675 11.8333 7.33341C11.8333 7.70008 11.54 8.00008 11.1667 8.00008Z" fill="#858585"/>
<path d="M5.83366 8.00008C5.46033 8.00008 5.16699 7.70008 5.16699 7.33341C5.16699 6.96675 5.46699 6.66675 5.83366 6.66675C6.20033 6.66675 6.50033 6.96675 6.50033 7.33341C6.50033 7.70008 6.20699 8.00008 5.83366 8.00008Z" fill="#858585"/>
</svg>
