<svg width="40" height="40" viewBox="0 0 40 40" fill="none" xmlns="http://www.w3.org/2000/svg">
<path d="M21.9835 10H11.3168C10.8835 10 10.4668 10.0167 10.0668 10.0667C5.5835 10.45 3.3335 13.1 3.3335 17.9833V24.65C3.3335 31.3167 6.00016 32.6333 11.3168 32.6333H11.9835C12.3502 32.6333 12.8335 32.8833 13.0502 33.1667L15.0502 35.8333C15.9335 37.0167 17.3668 37.0167 18.2502 35.8333L20.2502 33.1667C20.5002 32.8333 20.9002 32.6333 21.3168 32.6333H21.9835C26.8668 32.6333 29.5168 30.4 29.9002 25.9C29.9502 25.5 29.9668 25.0833 29.9668 24.65V17.9833C29.9668 12.6667 27.3002 10 21.9835 10ZM10.8335 23.3333C9.90016 23.3333 9.16683 22.5833 9.16683 21.6667C9.16683 20.75 9.91683 20 10.8335 20C11.7502 20 12.5002 20.75 12.5002 21.6667C12.5002 22.5833 11.7502 23.3333 10.8335 23.3333ZM16.6502 23.3333C15.7168 23.3333 14.9835 22.5833 14.9835 21.6667C14.9835 20.75 15.7335 20 16.6502 20C17.5668 20 18.3168 20.75 18.3168 21.6667C18.3168 22.5833 17.5835 23.3333 16.6502 23.3333ZM22.4835 23.3333C21.5502 23.3333 20.8168 22.5833 20.8168 21.6667C20.8168 20.75 21.5668 20 22.4835 20C23.4002 20 24.1502 20.75 24.1502 21.6667C24.1502 22.5833 23.4002 23.3333 22.4835 23.3333Z" fill="#196719"/>
<path d="M36.6334 11.3168V17.9835C36.6334 21.3168 35.6001 23.5835 33.5334 24.8335C33.0334 25.1335 32.4501 24.7335 32.4501 24.1502L32.4667 17.9835C32.4667 11.3168 28.6501 7.50016 21.9834 7.50016L11.8334 7.51683C11.2501 7.51683 10.8501 6.9335 11.1501 6.4335C12.4001 4.36683 14.6668 3.3335 17.9834 3.3335H28.6501C33.9668 3.3335 36.6334 6.00016 36.6334 11.3168Z" fill="#FCCE17"/>
</svg>
