<svg width="24" height="25" viewBox="0 0 24 25" fill="none" xmlns="http://www.w3.org/2000/svg">
<path fill-rule="evenodd" clip-rule="evenodd" d="M18.7502 11.5009L18.7441 11.7441L18.7502 12.0009L18.7443 12.2458L18.7502 12.5009L18.5615 20.7541C18.538 21.7812 17.7568 22.6318 16.7354 22.7424C13.5877 23.0833 10.4123 23.0833 7.26453 22.7424C6.24313 22.6318 5.46194 21.7812 5.43846 20.7541L5.24979 12.5009L5.25566 12.2441L5.24981 12.0009L5.25596 11.7451L5.24976 11.5009L5.41846 4.85942C5.41957 4.81553 5.4217 4.77188 5.42481 4.72849L5.43593 4.26632C5.46136 3.20962 6.26844 2.3366 7.3199 2.22843C7.4074 2.21942 7.49493 2.21067 7.58247 2.20218C7.70121 2.17458 7.82296 2.15446 7.94722 2.14235C10.6427 1.87963 13.3573 1.87963 16.0528 2.14235C16.177 2.15446 16.2988 2.17458 16.4175 2.20217C16.5051 2.21067 16.5926 2.21942 16.6802 2.22843C17.7316 2.3366 18.5387 3.20962 18.5641 4.26632L18.5753 4.72954C18.5783 4.77259 18.5804 4.81589 18.5815 4.85943L18.7502 11.5009ZM16 18.2508C16.4142 18.2508 16.75 17.915 16.75 17.5008C16.75 17.0866 16.4142 16.7508 16 16.7508H8C7.58579 16.7508 7.25 17.0866 7.25 17.5008C7.25 17.915 7.58579 18.2508 8 18.2508H16ZM12 22.2009C12.8284 22.2009 13.5 21.5293 13.5 20.7009C13.5 19.8725 12.8284 19.2009 12 19.2009C11.1716 19.2009 10.5 19.8725 10.5 20.7009C10.5 21.5293 11.1716 22.2009 12 22.2009Z" fill="#858585"/>
</svg>
