<svg width="20" height="20" viewBox="0 0 20 20" fill="none" xmlns="http://www.w3.org/2000/svg">
<path d="M19.0999 14.1849L19.0997 14.185L19.1069 14.1964C19.145 14.2569 19.1964 14.3699 19.1859 14.5481C19.1752 14.7294 19.098 15.0194 18.8058 15.4257C16.9206 17.9856 13.9312 19.49 10.74 19.49C10.5982 19.49 10.4538 19.4811 10.2912 19.471L10.2912 19.4708L10.28 19.4704C9.33055 19.4324 8.40911 19.252 7.53427 18.9477L7.53365 18.9475C3.87052 17.6788 1.1138 14.3124 0.828777 10.3948C0.54395 6.22019 2.9495 2.31915 6.84276 0.681353C7.30448 0.489873 7.60573 0.482823 7.787 0.515713C7.966 0.54819 8.07005 0.627138 8.12646 0.683548C8.17628 0.733373 8.2505 0.831089 8.27997 0.999778C8.30965 1.16969 8.30137 1.45473 8.11162 1.8903L8.11113 1.89144C7.63301 2.99642 7.40001 4.16425 7.40001 5.36999L7.40002 5.37245C7.41066 7.54349 8.26204 9.54905 9.63716 11.0831C11.1926 12.8287 13.4269 13.9631 15.8974 14.0695C16.5691 14.1014 17.2362 14.0478 17.8874 13.9323L17.8879 13.9322C18.3772 13.8448 18.6685 13.9017 18.8324 13.9702C18.9937 14.0375 19.0678 14.1308 19.0999 14.1849Z" fill="#FAFAFA" stroke="#FAFAFA"/>
</svg>
