<svg width="22" height="22" viewBox="0 0 22 22" fill="none" xmlns="http://www.w3.org/2000/svg">
<rect width="22" height="22" rx="11" fill="white"/>
<path fill-rule="evenodd" clip-rule="evenodd" d="M15.5 5C15.9142 5 16.25 5.33579 16.25 5.75V9.25H18C18.2761 9.25 18.5 9.47386 18.5 9.75C18.5 10.0261 18.2761 10.25 18 10.25H16.25V12.25H18C18.2761 12.25 18.5 12.4739 18.5 12.75C18.5 13.0261 18.2761 13.25 18 13.25H16.25V16.135C16.25 17.055 15.0729 17.4378 14.5317 16.6937L12.0272 13.25H8.25V16.25C8.25 16.6642 7.91421 17 7.5 17C7.08579 17 6.75 16.6642 6.75 16.25V13.25H4.5C4.22386 13.25 4 13.0261 4 12.75C4 12.4739 4.22386 12.25 4.5 12.25H6.75V10.25H4.5C4.22386 10.25 4 10.0261 4 9.75C4 9.47386 4.22386 9.25 4.5 9.25H6.75V6.36504C6.75 5.44499 7.92715 5.06219 8.4683 5.80627L10.9728 9.25H14.75V5.75C14.75 5.33579 15.0858 5 15.5 5ZM8.25 12.25H11.2999L9.84535 10.25H8.25V12.25ZM13.8819 13.25L14.75 14.4436V13.25H13.8819ZM14.75 12.25H13.1546L11.7001 10.25H14.75V12.25ZM8.25 8.05639L9.11808 9.25H8.25V8.05639Z" fill="#196719"/>
</svg>
