<svg width="57" height="56" viewBox="0 0 57 56" fill="none" xmlns="http://www.w3.org/2000/svg">
<path d="M22.4331 44.6819C26.1198 41.8352 30.9031 41.8352 34.5898 44.6819Z" stroke="#196719" stroke-width="2.1875" stroke-linecap="round" stroke-linejoin="round"/>
<path fill-rule="evenodd" clip-rule="evenodd" d="M16.8305 23.1191L18.6284 25.1895C16.5925 26.0674 14.6219 27.2257 12.7586 28.6643C12.1849 29.1073 11.3606 29.0013 10.9176 28.4275C10.4746 27.8538 10.5806 27.0295 11.1544 26.5865C12.9626 25.1905 14.8655 24.0347 16.8305 23.1191ZM9.72281 14.9346L11.485 16.9638C9.58941 17.979 7.74457 19.1724 5.96831 20.5442C5.3946 20.9873 4.57035 20.8814 4.12729 20.3077C3.68423 19.734 3.79014 18.9097 4.36385 18.4666C6.09299 17.1313 7.88421 15.9539 9.72281 14.9346ZM23.7736 31.1143C20.8834 31.8033 18.0829 33.133 15.5391 35.1035C14.966 35.5474 14.8613 36.3718 15.3052 36.9448C15.7491 37.5179 16.5735 37.6226 17.1466 37.1787C19.7907 35.1306 22.7382 33.8699 25.7558 33.3968L23.7736 31.1143Z" fill="#196719"/>
<path fill-rule="evenodd" clip-rule="evenodd" d="M7.32425 3.80252C6.84896 3.25521 6.01999 3.19683 5.47268 3.67212C4.92538 4.14741 4.867 4.97639 5.34229 5.52369L43.8423 49.857C44.3176 50.4043 45.1466 50.4627 45.6939 49.9874C46.2412 49.5121 46.2995 48.6832 45.8242 48.1359L33.4555 33.8931C35.6855 34.5428 37.8432 35.6371 39.8297 37.1758C40.4027 37.6197 41.2271 37.515 41.671 36.9419C42.1149 36.3688 42.0102 35.5444 41.4371 35.1005C38.1525 32.5563 34.4399 31.0802 30.6586 30.6724L24.4053 23.4716C31.2089 22.3171 38.2885 24.047 44.265 28.6614C44.8387 29.1044 45.663 28.9984 46.106 28.4246C46.5489 27.8509 46.4429 27.0266 45.8692 26.5836C38.8462 21.1612 30.3947 19.3636 22.4246 21.1908L16.7393 14.6441C28.1622 10.6327 40.7461 12.5985 51.0311 20.5413C51.6048 20.9843 52.429 20.8784 52.8721 20.3047C53.3151 19.731 53.2092 18.9068 52.6355 18.4637C41.3401 9.74049 27.3955 7.76029 14.8974 12.5231L7.32425 3.80252Z" fill="#196719"/>
</svg>
