<svg width="263" height="193" viewBox="0 0 263 193" fill="none" xmlns="http://www.w3.org/2000/svg">
<path d="M58.6727 53.2459L9.80823 85.9331L57.9395 157.885L106.804 125.198L58.6727 53.2459Z" fill="#E0E0E0"/>
<path d="M81.5531 121.794L81 125.226L56.7073 121.724L57.2604 118.292L81.5531 121.794Z" fill="#70E000"/>
<path d="M69.3195 109.553L72.8035 110.054L68.9406 133.972L65.4521 133.467L69.3195 109.553Z" fill="#70E000"/>
<path d="M46.9648 79.1539C46.9996 79.2018 42.1045 82.5422 36.0292 86.6011C29.9538 90.6601 25.0021 93.9177 24.9672 93.8654C24.9324 93.8132 29.8275 90.4772 35.9029 86.4139C41.9782 82.3506 46.9082 79.1017 46.9648 79.1539Z" fill="#70E000"/>
<path d="M64.9165 74.642C64.9514 74.6942 56.8074 80.1991 46.7297 86.9408C36.652 93.6824 28.4383 99.1045 28.4122 99.0566C28.386 99.0087 36.5126 93.4952 46.6034 86.7535C56.6941 80.0118 64.8817 74.5897 64.9165 74.642Z" fill="#70E000"/>
<path d="M68.5182 80.0248C68.5531 80.0771 60.409 85.5862 50.3314 92.3279C40.2537 99.0696 32.04 104.492 32.0139 104.439C31.9877 104.387 40.123 98.8823 50.2051 92.1363C60.2871 85.3903 68.4834 79.9725 68.5182 80.0248Z" fill="#70E000"/>
<path d="M72.1198 85.4115C72.1547 85.4638 64.0107 90.973 53.933 97.7103C43.8553 104.448 35.6416 109.878 35.6416 109.826C35.6416 109.774 43.7464 104.265 53.8285 97.523C63.9105 90.7813 72.085 85.3592 72.1198 85.4115Z" fill="#70E000"/>
<path d="M75.7084 90.7992C75.7433 90.8515 67.5992 96.3563 57.5216 103.098C47.4439 109.84 39.2302 115.262 39.2084 115.209C39.1866 115.157 47.3263 109.652 57.417 102.911C67.5078 96.169 75.7084 90.7469 75.7084 90.7992Z" fill="#70E000"/>
<path d="M222.07 101.458L181.031 128.91L221.453 189.336L262.491 161.884L222.07 101.458Z" fill="#E0E0E0"/>
<path d="M241.289 159.039L240.823 161.922L220.419 158.983L220.89 156.1L241.289 159.039Z" fill="#70E000"/>
<path d="M231.015 148.757L233.942 149.179L230.697 169.265L227.766 168.843L231.015 148.757Z" fill="#70E000"/>
<path d="M212.223 123.249C212.258 123.301 208.151 126.11 203.047 129.52C197.943 132.93 193.779 135.657 193.744 135.617C193.71 135.578 197.821 132.761 202.921 129.346C208.02 125.932 212.188 123.175 212.223 123.249Z" fill="#70E000"/>
<path d="M227.314 119.438C227.348 119.491 220.515 124.125 212.071 129.782C203.626 135.439 196.715 139.994 196.68 139.942C196.645 139.89 203.478 135.256 211.923 129.595C220.367 123.933 227.266 119.386 227.314 119.438Z" fill="#70E000"/>
<path d="M230.34 123.959C230.375 124.011 223.542 128.645 215.097 134.307C206.653 139.968 199.741 144.515 199.706 144.463C199.672 144.41 206.483 139.798 214.949 134.137C223.416 128.475 230.314 123.911 230.34 123.959Z" fill="#70E000"/>
<path d="M233.363 128.475C233.398 128.528 226.56 133.161 218.12 138.823C209.68 144.485 202.764 149.031 202.729 148.979C202.694 148.927 209.527 144.297 217.972 138.631C226.416 132.966 233.332 128.432 233.363 128.475Z" fill="#70E000"/>
<path d="M236.411 133.009C236.446 133.061 229.613 137.69 221.168 143.352C212.724 149.014 205.812 153.56 205.778 153.513C205.743 153.465 212.576 148.826 221.02 143.165C229.465 137.503 236.355 132.956 236.411 133.009Z" fill="#70E000"/>
<path d="M157.145 55.8928L112.367 31.9434L77.1022 97.8776L121.88 121.827L157.145 55.8928Z" fill="#E0E0E0"/>
<path d="M114.216 101.199L111.377 102.171L104.165 82.2373L107.008 81.2617L114.216 101.199Z" fill="#70E000"/>
<path d="M118.571 86.897L119.608 89.7583L99.8095 96.5391L98.7729 93.6778L118.571 86.897Z" fill="#70E000"/>
<path d="M132.638 57.4872C132.603 57.5525 128.065 55.1921 122.495 52.2175C116.925 49.243 112.444 46.7737 112.479 46.7084C112.513 46.643 117.056 49.0035 122.626 51.978C128.196 54.9525 132.673 57.4175 132.638 57.4872Z" fill="#70E000"/>
<path d="M143.387 69.3461C143.352 69.4114 135.835 65.457 126.598 60.5183C117.361 55.5797 109.905 51.5207 109.939 51.4554C109.974 51.3901 117.487 55.3401 126.724 60.2832C135.961 65.2262 143.421 69.2808 143.387 69.3461Z" fill="#70E000"/>
<path d="M140.747 74.2802C140.713 74.3455 133.196 70.3954 123.959 65.4524C114.721 60.5094 107.265 56.4548 107.3 56.3895C107.335 56.3241 114.848 60.2786 124.085 65.2172C133.322 70.1559 140.782 74.2149 140.747 74.2802Z" fill="#70E000"/>
<path d="M138.108 79.2146C138.073 79.28 130.556 75.3299 121.319 70.3912C112.082 65.4526 104.626 61.4067 104.661 61.3283C104.696 61.2499 112.208 65.213 121.446 70.1517C130.683 75.0904 138.143 79.1493 138.108 79.2146Z" fill="#70E000"/>
<path d="M135.469 84.1489C135.434 84.2142 127.917 80.2641 118.68 75.3255C109.443 70.3868 101.983 66.3278 102.022 66.2625C102.061 66.1972 109.569 70.1473 118.806 75.0859C128.044 80.0246 135.504 84.0835 135.469 84.1489Z" fill="#70E000"/>
<path opacity="0.2" d="M135.7 0H134.576V19.1537H135.7V0Z" fill="black"/>
<g filter="url(#filter0_i_849_32266)">
<path d="M108.907 42.3268H161.369C161.369 42.3268 156.526 19.1621 134.742 19.1621C115.366 19.1621 108.907 42.3268 108.907 42.3268Z" fill="#196719"/>
</g>
<path d="M135.7 0H134.576V19.1537H135.7V0Z" fill="#196719"/>
<path d="M251.946 191.55C251.946 191.611 195.656 191.663 126.232 191.663C56.8073 191.663 0.509033 191.624 0.509033 191.55C0.509033 191.476 56.7899 191.437 126.232 191.437C195.674 191.437 251.946 191.484 251.946 191.55Z" fill="#141414"/>
<path d="M14.428 164.274C15.1643 164.328 15.8824 164.528 16.5394 164.865C17.1963 165.202 17.7787 165.667 18.2518 166.234C19.1924 167.374 19.8585 168.715 20.1985 170.154C20.9345 172.906 20.4816 176.159 19.6977 178.899C16.7188 177.832 14.8766 174.653 14.0361 172.98C12.7295 170.341 11.95 164.766 14.415 164.27" fill="#196719"/>
<path d="M23.9873 182.239C23.54 181.545 23.2842 180.746 23.246 179.921C23.2077 179.096 23.3884 178.276 23.7696 177.544C24.1627 176.819 24.6964 176.179 25.3395 175.663C25.9825 175.146 26.7221 174.763 27.515 174.535C28.2423 174.308 29.0871 174.217 29.7186 174.639C30.0033 174.855 30.225 175.142 30.3606 175.473C30.4962 175.803 30.5407 176.163 30.4895 176.516C30.3752 177.224 30.0745 177.888 29.6185 178.441C28.1682 180.406 26.4088 182.039 23.9569 182.239" fill="#196719"/>
<path d="M24.3184 191.441C24.2537 191.256 24.2085 191.065 24.1834 190.871C24.105 190.461 24.0004 189.934 23.8741 189.303C23.4832 187.574 23.3744 185.793 23.5519 184.029C23.7572 182.256 24.4323 180.571 25.5073 179.147C25.8358 178.721 26.2145 178.336 26.6353 178.001C26.7496 177.911 26.8688 177.826 26.9924 177.749C27.0317 177.716 27.0758 177.69 27.123 177.67C26.5722 178.141 26.0689 178.665 25.6205 179.234C24.6022 180.659 23.961 182.319 23.7566 184.059C23.4778 186.089 23.8219 187.948 24.0222 189.285C24.1267 189.952 24.2138 190.492 24.2618 190.866C24.2961 191.056 24.315 191.248 24.3184 191.441Z" fill="#141414"/>
<path d="M15.386 168.468C15.4357 168.536 15.4767 168.611 15.5079 168.69C15.5863 168.864 15.6908 169.082 15.8128 169.356C16.0784 169.935 16.4486 170.776 16.8972 171.817C17.7944 173.903 18.9964 176.803 20.2506 180.035C21.5049 183.266 22.5719 186.215 23.2992 188.362C23.6737 189.433 23.9655 190.304 24.1702 190.91C24.2617 191.197 24.3313 191.428 24.388 191.606C24.419 191.686 24.4409 191.77 24.4533 191.855C24.4091 191.781 24.374 191.702 24.3488 191.619C24.2834 191.445 24.2007 191.219 24.0918 190.936L23.1729 188.41C22.3933 186.28 21.3046 183.336 20.0546 180.109C18.8047 176.882 17.6201 173.973 16.7578 171.873C16.3223 170.841 15.987 170.001 15.7388 169.387C15.6255 169.108 15.5341 168.886 15.4644 168.707C15.4317 168.63 15.4054 168.55 15.386 168.468Z" fill="#141414"/>
<path d="M20.7776 185.353C19.8815 183.861 18.6431 182.603 17.1649 181.685C15.6866 180.766 14.011 180.213 12.2765 180.07C11.4054 180.009 10.3341 180.157 9.94213 180.941C9.55017 181.725 10.0728 182.683 10.6738 183.319C11.9507 184.655 13.5945 185.582 15.398 185.986C17.2015 186.389 19.084 186.249 20.8081 185.583" fill="#196719"/>
<path d="M13.6178 182.431C13.8025 182.421 13.9876 182.429 14.1709 182.452C14.3856 182.464 14.5994 182.489 14.8111 182.526C15.0593 182.574 15.3511 182.6 15.656 182.688C15.9968 182.76 16.3327 182.853 16.662 182.966C17.0435 183.089 17.4173 183.234 17.7813 183.402C18.6185 183.777 19.4104 184.246 20.1417 184.8C20.8646 185.367 21.5193 186.016 22.0928 186.733C22.3405 187.046 22.5688 187.373 22.7766 187.713C22.9644 188.007 23.1359 188.311 23.2905 188.624C23.4213 188.878 23.5376 189.14 23.6389 189.407C23.7262 189.606 23.8004 189.809 23.861 190.017C23.9255 190.191 23.9736 190.37 24.0047 190.553C23.9568 190.553 23.7478 189.804 23.1598 188.689C22.9997 188.389 22.8238 188.099 22.6329 187.818C22.4206 187.488 22.1909 187.17 21.9447 186.864C20.8056 185.456 19.353 184.335 17.7029 183.589C17.324 183.424 16.9625 183.267 16.6098 183.154C16.2859 183.036 15.9559 182.935 15.6212 182.853C14.4017 182.518 13.6135 182.479 13.6178 182.431Z" fill="#141414"/>
<path d="M211.308 45.9376C210.028 46.2294 209.405 47.7058 209.283 49.0123C209.161 50.3188 209.327 51.7037 208.778 52.897C208.16 54.2384 206.683 55.2314 206.635 56.7077C206.605 57.6092 207.141 58.4498 207.114 59.36C207.071 60.8407 205.564 61.973 205.481 63.4363C205.425 64.5033 206.135 65.5224 205.965 66.5764C205.834 67.3951 205.194 68.0397 204.924 68.8236C204.388 70.3914 205.464 72.1117 206.862 72.9914C207.645 73.4838 208.526 73.7993 209.444 73.9157C210.362 74.0322 211.294 73.9468 212.175 73.6656C213.057 73.3844 213.866 72.9142 214.547 72.2877C215.227 71.6612 215.763 70.8937 216.116 70.0387C216.892 68.1573 216.722 66.0363 216.552 64.0112C216.029 57.6934 215.64 51.3669 215.385 45.0317" fill="#141414"/>
<path d="M207.589 68.2268C207.853 68.063 208.058 67.8209 208.177 67.5343C208.303 67.1935 208.353 66.8295 208.325 66.4673C208.278 65.9871 208.171 65.5147 208.007 65.0606C207.799 64.4899 207.722 63.8797 207.781 63.275C207.89 62.5957 208.378 62.0382 208.817 61.4895C209.054 61.2209 209.252 60.9204 209.405 60.5967C209.559 60.2693 209.584 59.8963 209.475 59.5515C209.249 58.8416 208.552 58.319 208.234 57.4959C208.084 57.0884 208.06 56.6455 208.164 56.2242C208.263 55.8291 208.409 55.4474 208.6 55.0875C208.967 54.4392 209.26 53.751 209.471 53.0362C209.775 51.6557 209.632 50.3361 209.841 49.2517C209.957 48.3831 210.342 47.5728 210.943 46.9348C211.113 46.7629 211.306 46.6162 211.518 46.4992C211.59 46.4613 211.668 46.4334 211.748 46.4165C211.475 46.5668 211.225 46.7544 211.004 46.974C210.447 47.6184 210.097 48.4148 209.998 49.2604C209.921 49.838 209.88 50.4198 209.876 51.0024C209.874 51.6881 209.807 52.3721 209.675 53.045C209.468 53.7761 209.175 54.4806 208.804 55.1441C208.478 55.8279 208.177 56.6292 208.465 57.3783C208.752 58.1273 209.444 58.6456 209.71 59.4469C209.83 59.8428 209.801 60.2689 209.627 60.6446C209.458 61.0008 209.238 61.3308 208.974 61.6245C208.539 62.1732 208.064 62.6958 207.959 63.3055C207.898 63.8839 207.967 64.4685 208.16 65.0171C208.315 65.4852 208.412 65.9709 208.447 66.463C208.469 66.8419 208.402 67.2207 208.251 67.5692C208.158 67.7876 208.007 67.9771 207.816 68.1179C207.748 68.1678 207.671 68.2047 207.589 68.2268Z" fill="#42AB42"/>
<path d="M204.183 78.5527L200.264 89.876L183.871 90.747L181.136 96.8441L198.252 98.5861C199.06 98.9181 199.928 99.0827 200.802 99.07C201.676 99.0573 202.539 98.8675 203.337 98.5122C204.136 98.1568 204.854 97.6432 205.449 97.0025C206.043 96.3617 206.502 95.6071 206.797 94.7842L211.365 82.0325L204.183 78.5527Z" fill="#B78876"/>
<path d="M238.071 185.396C238.071 185.396 226.059 147.237 225.802 146C225.571 144.877 230.157 117.418 230.741 110.289L214.51 110.894V111.055L207.611 111.438L213.787 189.447H221.256L220.515 163.556C225.123 175.92 231.725 188.523 231.725 188.523L238.071 185.396Z" fill="#B78876"/>
<path d="M220.82 172.845C220.82 172.61 220.728 164.17 220.728 164.17C220.637 164.675 217.867 156.845 217.933 156.37C217.967 156.122 220.82 172.845 220.82 172.845Z" fill="#A36957"/>
<path d="M217.619 152.659C217.581 152.814 217.565 152.974 217.571 153.133C217.547 153.569 217.547 154.005 217.571 154.44C217.571 154.714 217.61 155.01 217.645 155.333C217.68 155.655 217.728 155.995 217.802 156.347C217.957 157.118 218.162 157.877 218.416 158.621C218.956 160.202 219.557 161.582 219.98 162.584C220.18 163.019 220.354 163.433 220.502 163.764C220.556 163.918 220.629 164.065 220.72 164.2C220.697 164.049 220.653 163.903 220.589 163.764C220.489 163.477 220.337 163.063 220.154 162.553C219.77 161.534 219.196 160.141 218.66 158.577C218.407 157.845 218.199 157.097 218.037 156.339C217.959 155.99 217.907 155.655 217.859 155.341C217.811 155.028 217.776 154.732 217.754 154.47C217.702 153.93 217.68 153.495 217.667 153.19C217.675 153.012 217.659 152.833 217.619 152.659Z" fill="#A36957"/>
<path d="M213.647 189.843V189.142L221.299 188.807L221.321 191.703L220.85 191.733C218.747 191.855 210.159 192.212 208.756 191.79C207.184 191.32 213.647 189.843 213.647 189.843Z" fill="#42AB42"/>
<path d="M221.421 191.528C221.377 191.531 221.334 191.531 221.29 191.528L220.916 191.554L219.531 191.615C218.364 191.663 216.748 191.707 214.967 191.716C213.186 191.724 211.565 191.694 210.394 191.659L209.013 191.602H208.634H208.504C208.547 191.599 208.591 191.599 208.634 191.602H209.013L210.398 191.628C211.565 191.628 213.181 191.663 214.962 191.655C216.744 191.646 218.364 191.615 219.531 191.585L220.916 191.55H221.421V191.528Z" fill="#141414"/>
<path d="M211.152 191.772C211.088 191.544 211.001 191.324 210.89 191.114C210.753 190.921 210.593 190.745 210.416 190.587C210.653 190.672 210.851 190.843 210.969 191.066C211.113 191.272 211.178 191.522 211.152 191.772Z" fill="#141414"/>
<path d="M213.408 190.627C213.408 190.627 213.281 190.509 213.168 190.335C213.055 190.161 212.985 190.009 213.007 189.996C213.029 189.982 213.133 190.109 213.246 190.283C213.36 190.457 213.429 190.614 213.408 190.627Z" fill="#141414"/>
<path d="M214.026 190.317C214.026 190.339 213.887 190.256 213.756 190.139C213.625 190.021 213.53 189.912 213.547 189.895C213.564 189.878 213.686 189.956 213.817 190.074C213.948 190.191 214.043 190.278 214.026 190.317Z" fill="#141414"/>
<path d="M214.414 189.577C214.286 189.624 214.149 189.642 214.013 189.629C213.88 189.647 213.744 189.634 213.617 189.59C213.743 189.543 213.879 189.525 214.013 189.538C214.148 189.519 214.285 189.533 214.414 189.577Z" fill="#141414"/>
<path d="M214.544 189.072C214.415 189.156 214.263 189.201 214.109 189.202C213.961 189.222 213.81 189.201 213.673 189.141C213.817 189.117 213.963 189.105 214.109 189.106C214.252 189.081 214.398 189.069 214.544 189.072Z" fill="#141414"/>
<path d="M213.151 189.961C212.988 189.991 212.821 189.991 212.658 189.961C212.483 189.939 212.309 189.902 212.14 189.848C212.036 189.819 211.935 189.778 211.84 189.726C211.782 189.691 211.738 189.637 211.718 189.573C211.71 189.537 211.712 189.499 211.726 189.464C211.739 189.429 211.762 189.399 211.792 189.377C211.912 189.319 212.044 189.288 212.178 189.287C212.313 189.285 212.445 189.314 212.567 189.37C212.688 189.426 212.796 189.509 212.882 189.612C212.968 189.715 213.03 189.835 213.063 189.965C213.072 190.008 213.072 190.053 213.063 190.096C213.014 189.938 212.938 189.791 212.837 189.66C212.721 189.53 212.57 189.436 212.402 189.39C212.209 189.328 211.999 189.344 211.818 189.434C211.744 189.49 211.774 189.582 211.857 189.634C211.946 189.682 212.039 189.722 212.136 189.752C212.3 189.806 212.467 189.848 212.637 189.878C212.963 189.948 213.151 189.948 213.151 189.961Z" fill="#141414"/>
<path d="M213.024 189.987C212.961 189.885 212.939 189.764 212.963 189.647C212.979 189.519 213.026 189.396 213.098 189.29C213.139 189.217 213.198 189.156 213.269 189.112C213.339 189.067 213.42 189.042 213.503 189.037C213.553 189.049 213.596 189.078 213.624 189.12C213.652 189.162 213.664 189.214 213.656 189.264C213.645 189.341 213.617 189.416 213.573 189.481C213.507 189.589 213.43 189.69 213.342 189.782C213.267 189.869 213.171 189.936 213.064 189.978C213.064 189.978 213.159 189.891 213.294 189.734C213.373 189.644 213.441 189.546 213.499 189.442C213.564 189.338 213.612 189.15 213.499 189.129C213.386 189.107 213.255 189.242 213.181 189.338C213.112 189.432 213.064 189.541 213.042 189.656C213.024 189.765 213.018 189.876 213.024 189.987Z" fill="#141414"/>
<path d="M221.26 189.447C221.26 189.447 221.042 189.447 220.698 189.469C220.25 189.522 219.826 189.7 219.474 189.983C219.123 190.265 218.857 190.641 218.708 191.067C218.595 191.393 218.586 191.616 218.569 191.611C218.551 191.607 218.569 191.555 218.569 191.459C218.58 191.318 218.606 191.18 218.647 191.045C218.786 190.599 219.052 190.204 219.413 189.908C219.779 189.618 220.224 189.444 220.689 189.408C220.834 189.39 220.98 189.39 221.125 189.408C221.171 189.415 221.217 189.428 221.26 189.447Z" fill="#141414"/>
<path d="M217.597 190.918C217.232 191.003 216.857 191.04 216.482 191.027C216.11 191.046 215.736 191.013 215.372 190.931C215.372 190.905 215.868 190.931 216.482 190.931C217.096 190.931 217.593 190.892 217.597 190.918Z" fill="#141414"/>
<path d="M219.087 190.905C219.087 190.905 219.047 191.01 218.995 191.123C218.943 191.236 218.917 191.341 218.891 191.337C218.865 191.332 218.851 191.219 218.912 191.084C218.973 190.949 219.069 190.884 219.087 190.905Z" fill="#141414"/>
<path d="M219.648 190.204C219.648 190.204 219.618 190.3 219.54 190.379C219.461 190.457 219.383 190.509 219.361 190.492C219.339 190.474 219.392 190.396 219.47 190.313C219.548 190.231 219.627 190.183 219.648 190.204Z" fill="#141414"/>
<path d="M220.45 189.882C220.45 189.908 220.345 189.908 220.232 189.947C220.119 189.986 220.04 190.047 220.019 190.03C219.997 190.012 220.062 189.908 220.202 189.86C220.341 189.812 220.458 189.855 220.45 189.882Z" fill="#141414"/>
<path d="M221.02 189.725C221.02 189.751 220.99 189.791 220.924 189.812C220.859 189.834 220.803 189.839 220.794 189.812C220.785 189.786 220.829 189.747 220.89 189.725C220.951 189.704 221.012 189.704 221.02 189.725Z" fill="#141414"/>
<path d="M231.573 189.168L231.285 188.528L238.127 185.092L239.333 187.705L238.898 187.927C237.03 188.898 229.343 192.739 227.888 192.931C226.281 193.162 231.573 189.168 231.573 189.168Z" fill="#42AB42"/>
<path d="M239.36 187.518L239.246 187.587L238.911 187.761L237.674 188.389C236.629 188.907 235.174 189.608 233.55 190.348C231.926 191.089 230.436 191.72 229.356 192.169L228.071 192.687L227.723 192.822C227.683 192.841 227.64 192.854 227.597 192.861L227.714 192.805L228.058 192.652L229.33 192.108C230.406 191.646 231.886 191.002 233.511 190.261C235.135 189.521 236.594 188.833 237.648 188.328L238.894 187.731L239.238 187.57L239.36 187.518Z" fill="#141414"/>
<path d="M230.105 191.946C229.954 191.762 229.783 191.596 229.595 191.45C229.391 191.329 229.173 191.232 228.947 191.162C229.197 191.159 229.442 191.232 229.649 191.372C229.856 191.513 230.015 191.713 230.105 191.946Z" fill="#141414"/>
<path d="M231.677 189.978C231.677 189.978 231.512 189.925 231.338 189.812C231.163 189.699 231.037 189.59 231.05 189.568C231.063 189.546 231.216 189.621 231.39 189.734C231.564 189.847 231.69 189.956 231.677 189.978Z" fill="#141414"/>
<path d="M232.104 189.447C232.104 189.469 231.956 189.447 231.786 189.395C231.616 189.342 231.49 189.277 231.494 189.251C231.604 189.241 231.715 189.259 231.817 189.303C231.982 189.342 232.113 189.403 232.104 189.447Z" fill="#141414"/>
<path d="M232.165 188.61C232.165 188.636 232.021 188.728 231.821 188.824C231.706 188.893 231.576 188.936 231.442 188.95C231.442 188.924 231.586 188.832 231.782 188.737C231.899 188.668 232.03 188.625 232.165 188.61Z" fill="#141414"/>
<path d="M232.078 188.096C232.078 188.096 231.952 188.27 231.725 188.397C231.597 188.484 231.445 188.53 231.29 188.527C231.414 188.444 231.547 188.372 231.686 188.314C231.899 188.196 232.056 188.075 232.078 188.096Z" fill="#141414"/>
<path d="M231.185 189.481C231.052 189.573 230.905 189.64 230.75 189.682C230.578 189.732 230.404 189.768 230.227 189.791C230.12 189.804 230.012 189.804 229.905 189.791C229.837 189.786 229.775 189.754 229.73 189.704C229.71 189.672 229.699 189.636 229.699 189.599C229.699 189.562 229.71 189.526 229.73 189.495C229.863 189.334 230.047 189.225 230.251 189.185C230.455 189.145 230.667 189.178 230.85 189.277C230.958 189.333 231.053 189.412 231.128 189.508C231.181 189.577 231.203 189.621 231.198 189.625C231.091 189.505 230.962 189.407 230.819 189.333C230.666 189.261 230.495 189.236 230.327 189.259C230.227 189.27 230.131 189.3 230.042 189.347C229.954 189.395 229.876 189.46 229.813 189.538C229.765 189.621 229.813 189.691 229.931 189.704C230.031 189.712 230.131 189.712 230.231 189.704C230.405 189.686 230.576 189.656 230.745 189.612C230.993 189.542 231.185 189.468 231.185 189.481Z" fill="#141414"/>
<path d="M231.063 189.555C230.966 189.486 230.898 189.384 230.872 189.268C230.833 189.145 230.824 189.015 230.845 188.889C230.853 188.805 230.882 188.725 230.929 188.655C230.976 188.586 231.04 188.53 231.115 188.492C231.224 188.458 231.477 188.68 231.494 188.762C231.512 188.845 231.368 188.802 231.359 188.871C231.345 188.995 231.316 189.116 231.272 189.233C231.24 189.345 231.18 189.447 231.098 189.529C231.098 189.529 231.15 189.411 231.211 189.215C231.242 189.1 231.264 188.982 231.277 188.863C231.277 188.741 231.277 188.553 231.137 188.584C230.998 188.614 230.959 188.784 230.928 188.906C230.902 189.019 230.902 189.137 230.928 189.25C230.964 189.356 231.009 189.458 231.063 189.555Z" fill="#141414"/>
<path d="M238.358 185.684C238.358 185.684 238.149 185.758 237.853 185.937C237.465 186.168 237.15 186.503 236.942 186.904C236.741 187.308 236.655 187.76 236.694 188.21C236.72 188.558 236.803 188.759 236.786 188.767C236.757 188.724 236.735 188.677 236.72 188.628C236.677 188.495 236.647 188.358 236.629 188.219C236.566 187.755 236.647 187.283 236.859 186.866C237.072 186.449 237.406 186.107 237.818 185.884C237.941 185.816 238.071 185.761 238.205 185.719C238.254 185.7 238.306 185.688 238.358 185.684Z" fill="#141414"/>
<path d="M235.619 188.532C235.005 188.959 234.319 189.272 233.594 189.455C233.594 189.429 234.051 189.255 234.608 189.02C235.166 188.785 235.606 188.51 235.619 188.532Z" fill="#141414"/>
<path d="M236.973 187.909C236.995 187.909 236.973 188.018 236.973 188.144C236.973 188.271 236.973 188.375 236.973 188.384C236.973 188.393 236.886 188.288 236.886 188.144C236.886 188.001 236.951 187.896 236.973 187.909Z" fill="#141414"/>
<path d="M237.195 187.038C237.217 187.038 237.195 187.138 237.169 187.243C237.143 187.347 237.078 187.426 237.056 187.417C237.034 187.408 237.056 187.317 237.082 187.212C237.108 187.108 237.169 187.03 237.195 187.038Z" fill="#141414"/>
<path d="M237.796 186.398C237.796 186.424 237.709 186.463 237.622 186.546C237.535 186.629 237.487 186.716 237.465 186.707C237.443 186.698 237.465 186.577 237.561 186.476C237.657 186.376 237.792 186.398 237.796 186.398Z" fill="#141414"/>
<path d="M238.253 186.041C238.253 186.041 238.253 186.111 238.201 186.159C238.149 186.207 238.101 186.233 238.083 186.215C238.066 186.198 238.083 186.146 238.136 186.098C238.188 186.05 238.236 186.024 238.253 186.041Z" fill="#141414"/>
<path d="M229.687 97.3971L228.415 81.8494L234.948 81.967C234.948 81.967 235.248 79.6718 234.286 74.6461C233.694 71.5627 231.642 69.6725 229.338 68.5489V68.5054L229.138 68.4531C227.242 67.6017 225.216 67.0732 223.145 66.8896L215.11 66.9811C215.11 66.9811 208.974 66.1972 205.59 70.5915C204.284 72.2769 200.229 83.8135 200.229 83.8135L209.876 88.4561L208.974 82.0584C208.974 82.0584 209.157 86.6966 209.749 88.1556C210.076 88.9743 211.056 91.5177 211.056 91.5177L210.929 99.1913L229.687 97.3971Z" fill="#196719"/>
<path d="M225.258 79.5938L224.064 84.6719H235.314L234.573 76.1533L225.258 79.5938Z" fill="#196719"/>
<path d="M235.314 84.6717C234.822 84.5812 234.324 84.5316 233.824 84.5236C232.901 84.4714 231.647 84.4235 230.218 84.4322C228.79 84.4409 227.531 84.5019 226.608 84.5715C226.108 84.5889 225.612 84.6501 225.123 84.7545C225.621 84.7942 226.122 84.7942 226.621 84.7545C227.54 84.724 228.799 84.6891 230.218 84.6848C231.638 84.6804 232.897 84.6848 233.82 84.7066C234.318 84.7345 234.817 84.7228 235.314 84.6717Z" fill="#141414"/>
<path d="M224.77 76.1138C224.716 76.5471 224.705 76.9847 224.735 77.4203C224.735 78.2173 224.77 79.3148 224.818 80.5298C224.866 81.7449 224.922 82.8467 224.975 83.6394C224.977 84.0785 225.024 84.5162 225.114 84.9459C225.168 84.5125 225.179 84.075 225.149 83.6394C225.149 82.8424 225.114 81.7405 225.066 80.5255C225.018 79.3104 224.962 78.2129 224.909 77.4159C224.908 76.9783 224.861 76.5419 224.77 76.1138Z" fill="#141414"/>
<g opacity="0.3">
<path d="M214.536 80.5127C214.536 80.5127 217.035 99.0523 224.065 98.5602C224.065 98.5602 227.231 98.5253 228.245 96.4218V95.5944L214.536 80.5127Z" fill="black"/>
</g>
<g opacity="0.3">
<path d="M224.77 77.207L223.424 86.2961L224.295 87.8901L225.733 84.7718L225.123 84.7544L224.77 77.207Z" fill="black"/>
</g>
<path d="M211.017 91.5268C210.933 91.3911 210.869 91.2445 210.825 91.0913C210.716 90.8082 210.572 90.3944 210.389 89.8762C209.953 88.5258 209.594 87.1517 209.314 85.7606C209.034 84.3687 208.857 82.9583 208.782 81.5405C208.756 80.9962 208.748 80.5563 208.756 80.234C208.745 80.0766 208.755 79.9184 208.787 79.7637C208.822 79.7637 208.848 80.4344 208.939 81.5057C209.062 82.9106 209.261 84.3078 209.536 85.6909C209.858 87.311 210.246 88.7613 210.542 89.8022C210.681 90.2856 210.799 90.6993 210.895 91.039C210.954 91.1962 210.995 91.3599 211.017 91.5268Z" fill="#141414"/>
<path d="M213.856 96.8526C213.795 96.8526 213.621 96.4737 213.469 95.9816C213.337 95.68 213.279 95.3517 213.299 95.0234C213.491 95.2896 213.623 95.5941 213.686 95.9162C213.811 96.212 213.869 96.5318 213.856 96.8526Z" fill="#141414"/>
<path d="M214.827 96.7835C214.498 95.9099 214.484 94.9487 214.788 94.0659C214.822 94.5182 214.822 94.9724 214.788 95.4247C214.836 95.876 214.849 96.3302 214.827 96.7835Z" fill="#141414"/>
<path d="M210.072 88.6696C210.041 88.7219 207.798 87.6592 205.059 86.2917C202.32 84.9243 200.12 83.7658 200.146 83.7092C200.172 83.6526 202.42 84.7196 205.159 86.0871C207.898 87.4546 210.098 88.613 210.072 88.6696Z" fill="#141414"/>
<path d="M214.026 68.4842C214.074 66.2805 214.087 63.9636 214.087 63.9636C214.087 63.9636 211.26 63.4193 210.768 59.7C210.298 56.155 211.613 47.8324 211.613 47.8324C215.742 46.2733 220.032 47.6887 222.858 51.0334L222.157 68.9197C222.074 70.9971 220.223 72.5824 218.002 72.4778C215.755 72.369 213.978 70.5834 214.026 68.4842Z" fill="#B78876"/>
<path d="M211.395 54.4825C211.392 54.6046 211.435 54.7235 211.516 54.815C211.597 54.9065 211.709 54.9635 211.831 54.9746C211.893 54.9806 211.955 54.9739 212.014 54.955C212.074 54.936 212.128 54.9052 212.175 54.8645C212.222 54.8237 212.26 54.7739 212.287 54.7179C212.314 54.662 212.329 54.6011 212.332 54.5391C212.336 54.4175 212.293 54.299 212.211 54.2083C212.13 54.1175 212.018 54.0613 211.896 54.0513C211.834 54.0419 211.771 54.046 211.711 54.0634C211.65 54.0807 211.594 54.1109 211.547 54.1518C211.499 54.1928 211.461 54.2435 211.435 54.3006C211.409 54.3577 211.395 54.4197 211.395 54.4825Z" fill="#141414"/>
<path d="M211.221 53.8594C211.278 53.9204 211.657 53.6634 212.158 53.6808C212.659 53.6982 213.029 53.9595 213.09 53.8986C213.151 53.8376 213.064 53.7592 212.902 53.6329C212.684 53.4749 212.423 53.3882 212.153 53.3847C211.888 53.3746 211.627 53.451 211.409 53.6024C211.248 53.72 211.191 53.8289 211.221 53.8594Z" fill="#141414"/>
<path d="M216.582 54.8047C216.578 54.9271 216.62 55.0466 216.701 55.1383C216.782 55.23 216.896 55.2868 217.018 55.2969C217.08 55.3063 217.144 55.3021 217.205 55.2845C217.265 55.2669 217.321 55.2363 217.369 55.1949C217.417 55.1535 217.455 55.1022 217.481 55.0446C217.506 54.987 217.519 54.9245 217.519 54.8614C217.524 54.7394 217.481 54.6204 217.4 54.5294C217.318 54.4384 217.205 54.3825 217.083 54.3736C217.021 54.3642 216.958 54.3683 216.898 54.3856C216.837 54.403 216.781 54.4332 216.734 54.4741C216.686 54.5151 216.648 54.5658 216.622 54.6229C216.596 54.6799 216.582 54.742 216.582 54.8047Z" fill="#141414"/>
<path d="M216.548 54.1818C216.604 54.2471 216.983 53.9902 217.484 54.0033C217.985 54.0163 218.355 54.282 218.42 54.221C218.486 54.16 218.39 54.0816 218.229 53.9597C218.014 53.7976 217.753 53.709 217.484 53.7071C217.218 53.6991 216.956 53.7753 216.735 53.9249C216.578 54.0425 216.522 54.1513 216.548 54.1818Z" fill="#141414"/>
<path d="M214.596 57.9229C214.329 57.831 214.051 57.7739 213.769 57.7531C213.638 57.7531 213.516 57.7052 213.499 57.6181C213.488 57.4819 213.522 57.346 213.595 57.2305L214.004 56.2506C214.385 55.4178 214.698 54.5555 214.94 53.6724C214.494 54.4726 214.113 55.307 213.799 56.1678C213.664 56.5119 213.529 56.8429 213.403 57.1564C213.319 57.312 213.291 57.4922 213.325 57.666C213.342 57.7132 213.37 57.7558 213.406 57.7906C213.442 57.8253 213.486 57.8512 213.534 57.8663C213.606 57.8872 213.681 57.8989 213.756 57.9012C214.034 57.944 214.316 57.9513 214.596 57.9229Z" fill="#141414"/>
<path d="M214.087 63.9633C215.829 64.033 217.557 63.6185 219.078 62.7656C219.078 62.7656 217.811 65.2785 214.113 64.8387L214.087 63.9633Z" fill="#A36957"/>
<path d="M218.185 52.6967C218.081 52.8579 217.689 52.7882 217.253 52.6967C216.818 52.6053 216.434 52.5312 216.382 52.344C216.33 52.1567 216.787 51.9084 217.371 52.026C217.954 52.1436 218.29 52.5574 218.185 52.6967Z" fill="#141414"/>
<path d="M213.103 51.9563C213.064 52.1436 212.645 52.2132 212.166 52.235C211.687 52.2568 211.265 52.235 211.208 52.0434C211.152 51.8518 211.557 51.5817 212.136 51.5556C212.715 51.5295 213.142 51.7777 213.103 51.9563Z" fill="#141414"/>
<path d="M214.605 59.1467C214.55 59.1337 214.492 59.1395 214.441 59.1632C214.39 59.1868 214.348 59.2271 214.322 59.2774C214.297 59.3218 214.285 59.3719 214.285 59.4228C214.286 59.4736 214.3 59.5235 214.325 59.5673C214.351 59.6112 214.388 59.6476 214.432 59.6728C214.476 59.6981 214.526 59.7114 214.577 59.7114C214.628 59.7114 214.678 59.6981 214.722 59.6728C214.766 59.6476 214.803 59.6112 214.829 59.5673C214.854 59.5235 214.868 59.4736 214.869 59.4228C214.869 59.3719 214.857 59.3218 214.832 59.2774C214.8 59.2189 214.75 59.1728 214.689 59.1466C214.628 59.1205 214.56 59.1159 214.496 59.1337" fill="#A36957"/>
<path d="M214.723 59.1993C214.723 59.1775 214.64 59.0512 214.418 59.0991C214.352 59.1165 214.291 59.1509 214.242 59.1991C214.193 59.2472 214.158 59.3074 214.139 59.3735C214.116 59.4569 214.118 59.5453 214.145 59.6276C214.172 59.7098 214.223 59.7821 214.292 59.8352C214.364 59.8848 214.45 59.9113 214.538 59.9113C214.626 59.9113 214.711 59.8848 214.784 59.8352C214.842 59.7961 214.887 59.7414 214.915 59.6773C214.943 59.6133 214.952 59.5426 214.941 59.4737C214.897 59.2429 214.727 59.208 214.719 59.2385C214.71 59.269 214.78 59.3474 214.766 59.4824C214.764 59.5157 214.752 59.5479 214.734 59.576C214.716 59.6041 214.691 59.6273 214.662 59.6435C214.628 59.663 214.59 59.6733 214.551 59.6733C214.512 59.6733 214.474 59.663 214.44 59.6435C214.409 59.6177 214.386 59.5845 214.373 59.5471C214.359 59.5098 214.355 59.4694 214.361 59.4301C214.366 59.3957 214.38 59.3631 214.4 59.335C214.421 59.3069 214.448 59.2842 214.479 59.269C214.601 59.195 214.71 59.2298 214.723 59.1993Z" fill="#141414"/>
<path d="M221.168 55.4009C220.733 56.42 219.653 57.2082 219.801 58.3101C219.897 59.0199 220.354 59.6819 220.267 60.3962C220.154 61.2672 219.226 61.9117 219.091 62.8045C218.93 63.8977 219.997 64.7469 220.419 65.766C221.042 67.2554 220.249 68.9278 220.228 70.5566C220.253 71.7932 220.726 72.9786 221.559 73.8931C222.392 74.8076 223.528 75.3892 224.757 75.5301C225.75 75.6128 226.869 75.3123 227.37 74.4587C227.806 73.7532 227.71 72.8561 227.962 72.0765C228.346 70.9093 229.456 70.0557 229.704 68.8537C230.14 66.6762 227.483 64.8471 227.657 62.6173C227.732 61.6635 228.319 60.836 228.568 59.9127C228.726 59.306 228.738 58.6704 228.603 58.058C228.468 57.4456 228.191 56.8739 227.792 56.3895C227.135 55.6099 226.185 55.0829 225.615 54.2468C224.983 53.2843 224.962 52.0692 224.744 50.9325C224.451 49.5509 223.814 48.266 222.89 47.1979C221.966 46.1298 220.786 45.3133 219.461 44.8248C218.136 44.3363 216.709 44.1917 215.313 44.4045C213.917 44.6173 212.598 45.1806 211.478 46.0418C211.478 46.0418 210.847 48.9118 213.795 49.3952C216.744 49.8786 218.107 49.3212 218.438 50.5014C218.36 50.9876 218.398 51.4854 218.549 51.9539C218.701 52.4225 218.961 52.8485 219.309 53.1972C220.511 54.495 221.656 54.2163 221.168 55.4009Z" fill="#141414"/>
<path d="M225.85 75.3079C225.759 75.311 225.669 75.3023 225.58 75.2818C225.325 75.2365 225.074 75.168 224.831 75.0771C223.932 74.7323 223.143 74.1498 222.549 73.3917C222.132 72.8686 221.806 72.2799 221.582 71.6497C221.328 70.9319 221.194 70.177 221.186 69.4155C221.177 68.5762 221.282 67.7395 221.499 66.9287C221.618 66.5005 221.764 66.0802 221.935 65.6701C222.115 65.262 222.273 64.8448 222.41 64.4202C222.529 64.0018 222.529 63.5582 222.41 63.1398C222.282 62.7279 222.117 62.3285 221.917 61.9465C221.716 61.5677 221.545 61.173 221.408 60.7663C221.274 60.3638 221.242 59.9341 221.316 59.5164C221.491 58.6976 221.987 58.0879 222.283 57.4651C222.565 56.8886 222.7 56.2512 222.675 55.6099C222.636 54.6713 222.295 53.7705 221.704 53.0404C221.475 52.7846 221.229 52.5445 220.968 52.3218C221.273 52.4933 221.546 52.7174 221.774 52.9838C222.408 53.7128 222.782 54.632 222.836 55.5968C222.872 56.2661 222.741 56.9337 222.453 57.5392C222.153 58.1837 221.669 58.7978 221.521 59.5469C221.373 60.2959 221.726 61.0842 222.113 61.842C222.325 62.2349 222.497 62.6478 222.627 63.0745C222.756 63.5301 222.756 64.0125 222.627 64.4681C222.482 64.9075 222.315 65.3392 222.126 65.7616C221.955 66.1627 221.81 66.5744 221.691 66.9941C221.475 67.7844 221.368 68.6005 221.373 69.4199C221.36 70.8152 221.81 72.1755 222.653 73.2872C223.218 74.0358 223.968 74.623 224.831 74.99C225.48 75.2426 225.854 75.2818 225.85 75.3079Z" fill="#42AB42"/>
<path d="M225.415 53.3325C225.202 53.3874 224.985 53.4196 224.766 53.4283C224.168 53.4922 223.565 53.4761 222.971 53.3804C222.522 53.3138 222.09 53.1582 221.701 52.9226C221.312 52.6871 220.974 52.3763 220.707 52.0085C220.458 51.5433 220.259 51.0527 220.114 50.5452C219.929 50.0383 219.579 49.6078 219.122 49.3215C218.168 48.7161 217.048 48.6421 216.073 48.5245C215.173 48.4796 214.299 48.2069 213.534 47.7318C213.021 47.3921 212.651 46.8761 212.493 46.2816C212.455 46.1205 212.445 45.9541 212.463 45.7895C212.463 45.6762 212.489 45.6196 212.497 45.6196C212.503 45.8353 212.53 46.0499 212.58 46.2598C212.76 46.8157 213.13 47.2905 213.625 47.6012C214.377 48.0396 215.225 48.285 216.095 48.3154C217.07 48.4287 218.229 48.4853 219.248 49.1298C219.746 49.443 220.127 49.9135 220.328 50.4668C220.464 50.9615 220.653 51.4403 220.89 51.8953C221.397 52.5912 222.157 53.0603 223.006 53.2018C223.58 53.3086 224.165 53.348 224.748 53.3194C224.97 53.3069 225.193 53.3113 225.415 53.3325Z" fill="#42AB42"/>
<path d="M224.335 49.7874C224.17 49.8423 223.998 49.8674 223.825 49.8615C223.013 49.8669 222.231 49.5543 221.647 48.9905C221.381 48.7233 221.154 48.4198 220.972 48.089C220.58 47.427 220.202 46.6126 219.387 46.2729C218.603 46.0097 217.767 45.9365 216.948 46.0595C216.258 46.1565 215.557 46.1565 214.867 46.0595C214.386 45.9928 213.934 45.7938 213.56 45.4846C213.463 45.4004 213.379 45.3038 213.307 45.1972C213.255 45.1217 213.233 45.0825 213.242 45.0796C213.242 45.0796 213.364 45.219 213.617 45.4149C213.989 45.6798 214.422 45.8475 214.875 45.9027C215.553 45.9792 216.238 45.9674 216.913 45.8679C217.768 45.7284 218.643 45.8032 219.461 46.0856C219.882 46.2746 220.242 46.576 220.502 46.9566C220.732 47.2961 220.942 47.648 221.134 48.0106C221.305 48.3271 221.518 48.6199 221.765 48.8816C221.984 49.1029 222.235 49.2894 222.51 49.4347C222.915 49.6462 223.36 49.7694 223.816 49.7961C224.152 49.7918 224.33 49.7657 224.335 49.7874Z" fill="#42AB42"/>
<path d="M227.148 74.3676C227.126 74.3676 227.266 74.0802 227.427 73.5402C227.645 72.782 227.742 71.9942 227.714 71.2058C227.683 70.0388 227.364 68.8975 226.786 67.8829C226.469 67.3124 225.985 66.8028 225.589 66.1757C225.379 65.8562 225.231 65.5002 225.153 65.1261C225.085 64.7324 225.118 64.3277 225.249 63.9502C225.493 63.1968 225.929 62.5653 226.024 61.8729C226.12 61.1804 225.789 60.5663 225.458 59.9871C225.287 59.7053 225.132 59.4145 224.992 59.1161C224.865 58.8267 224.781 58.5199 224.744 58.2059C224.703 57.6525 224.72 57.0963 224.796 56.5466C224.935 55.7695 224.863 54.9693 224.587 54.2297C224.464 53.9706 224.289 53.7394 224.073 53.5503C224.073 53.5503 224.095 53.5503 224.126 53.5764C224.177 53.602 224.224 53.6359 224.265 53.6766C224.435 53.8185 224.573 53.9952 224.67 54.1948C224.985 54.9408 225.083 55.7605 224.953 56.5597C224.893 57.0991 224.886 57.6432 224.931 58.1841C225.039 58.7926 225.28 59.3697 225.637 59.8739C225.823 60.1682 225.981 60.4787 226.111 60.8015C226.249 61.15 226.294 61.528 226.242 61.899C226.138 62.6611 225.689 63.3057 225.463 64.0156C225.344 64.3581 225.312 64.7248 225.371 65.0826C225.447 65.4286 225.586 65.7577 225.78 66.0538C226.151 66.6591 226.651 67.1774 226.969 67.774C227.553 68.8229 227.864 70.0013 227.875 71.2015C227.889 72.0048 227.765 72.8046 227.509 73.5663C227.44 73.7724 227.355 73.9733 227.257 74.1673C227.23 74.2389 227.194 74.3064 227.148 74.3676Z" fill="#42AB42"/>
<path d="M209.41 155.516C209.41 155.516 206.474 127.713 206.304 117.439C206.135 107.166 210.925 97.0271 210.925 97.0271L229.687 96.2476C229.687 96.2476 233.397 106.669 233.463 111.055C233.593 119.565 231.203 127.966 231.477 134.716L232.104 155.533" fill="#141414"/>
<path d="M232.736 121.333C232.638 121.418 232.534 121.496 232.426 121.568L232.257 121.685L232.074 121.864C231.912 122.003 231.766 122.16 231.638 122.33C231.033 123.07 230.593 124.398 230.17 126.049C229.955 126.965 229.636 127.853 229.221 128.697C229.095 128.928 228.949 129.148 228.785 129.355C228.707 129.459 228.633 129.572 228.542 129.673L228.254 129.96C227.842 130.345 227.364 130.652 226.843 130.866C225.794 131.327 224.605 131.545 223.525 132.09C222.418 132.685 221.563 133.659 221.116 134.833C220.585 136.014 220.245 137.25 219.81 138.409C219.374 139.567 218.786 140.673 217.85 141.379C216.955 142.001 215.892 142.337 214.801 142.341C213.791 142.402 212.855 142.372 212.014 142.498C211.258 142.577 210.534 142.85 209.915 143.291C209.462 143.645 209.123 144.123 208.939 144.667C208.823 145.01 208.797 145.378 208.865 145.734C208.918 145.978 208.983 146.096 208.97 146.1C208.9 145.991 208.85 145.87 208.822 145.743C208.73 145.38 208.742 144.998 208.857 144.641C209.03 144.07 209.371 143.564 209.837 143.191C210.472 142.711 211.224 142.411 212.014 142.32C212.885 142.18 213.813 142.198 214.81 142.132C215.868 142.125 216.899 141.797 217.767 141.192C218.647 140.423 219.297 139.425 219.644 138.309C220.08 137.163 220.398 135.922 220.951 134.72C221.419 133.497 222.313 132.485 223.468 131.867C224.592 131.31 225.78 131.097 226.804 130.652C227.305 130.445 227.765 130.15 228.163 129.781L228.437 129.507C228.524 129.411 228.598 129.302 228.677 129.202C228.83 129.004 228.966 128.793 229.082 128.571C229.499 127.738 229.822 126.862 230.044 125.958C230.48 124.311 230.954 122.966 231.595 122.221C231.722 122.051 231.868 121.896 232.03 121.759C232.1 121.698 232.161 121.637 232.222 121.589L232.4 121.476C232.509 121.422 232.621 121.374 232.736 121.333Z" fill="#FAFAFA"/>
<path d="M232.849 108.468C232.869 108.591 232.877 108.715 232.875 108.838C232.873 109.198 232.83 109.556 232.744 109.905C232.369 111.179 231.632 112.317 230.623 113.18C229.957 113.793 229.227 114.332 228.446 114.788C227.605 115.284 226.678 115.759 225.724 116.299C224.722 116.836 223.789 117.492 222.945 118.254C222.08 119.113 221.367 120.113 220.837 121.211C220.303 122.324 219.694 123.4 219.013 124.43C218.666 124.91 218.266 125.348 217.819 125.736C217.379 126.111 216.895 126.431 216.378 126.69C215.442 127.15 214.467 127.524 213.464 127.809C212.532 128.097 211.661 128.354 210.903 128.68C210.216 128.954 209.561 129.305 208.952 129.725C208.494 130.043 208.082 130.423 207.729 130.853C207.432 131.227 207.185 131.637 206.993 132.073C207.024 131.952 207.064 131.834 207.114 131.72C207.257 131.391 207.44 131.081 207.659 130.797C208.006 130.348 208.417 129.952 208.878 129.621C209.49 129.185 210.149 128.82 210.842 128.532C211.681 128.19 212.538 127.892 213.408 127.639C214.396 127.348 215.358 126.972 216.282 126.516C216.772 126.26 217.232 125.95 217.654 125.592C218.084 125.21 218.469 124.78 218.804 124.312C219.475 123.287 220.079 122.219 220.611 121.115C221.157 119.993 221.894 118.973 222.788 118.102C223.647 117.329 224.598 116.665 225.619 116.125C226.577 115.589 227.505 115.123 228.346 114.631C229.125 114.19 229.855 113.667 230.523 113.072C231.524 112.234 232.267 111.13 232.666 109.888C232.778 109.423 232.839 108.947 232.849 108.468Z" fill="#FAFAFA"/>
<path d="M206.4 118.894C206.383 118.867 206.37 118.838 206.361 118.807C206.328 118.723 206.301 118.637 206.278 118.55C206.204 118.204 206.219 117.844 206.322 117.505C206.566 116.634 207.528 115.514 209.079 114.961C209.854 114.696 210.729 114.526 211.644 114.299C212.403 114.174 213.122 113.868 213.739 113.408C214.357 112.948 214.855 112.347 215.193 111.656C215.441 111.148 215.658 110.626 215.842 110.092C216.183 108.933 216.645 107.813 217.223 106.752C217.884 105.709 218.888 104.928 220.062 104.544C221.13 104.197 222.22 103.921 223.324 103.717C224.309 103.527 225.264 103.202 226.159 102.75C226.918 102.316 227.572 101.722 228.076 101.008C228.819 99.9768 229.243 98.7501 229.295 97.4801C229.297 97.0139 229.266 96.5483 229.204 96.0864C229.335 96.5389 229.395 97.0091 229.382 97.4801C229.365 98.7776 228.955 100.039 228.206 101.099C227.696 101.837 227.028 102.451 226.251 102.898C225.343 103.367 224.374 103.706 223.372 103.904C222.278 104.111 221.199 104.389 220.141 104.736C219.013 105.105 218.05 105.855 217.414 106.857C216.846 107.903 216.389 109.007 216.051 110.149C215.863 110.692 215.64 111.223 215.385 111.739C215.127 112.234 214.798 112.688 214.409 113.089C213.644 113.786 212.703 114.261 211.687 114.461C210.764 114.696 209.893 114.844 209.131 115.096C207.62 115.61 206.662 116.669 206.405 117.513C206.299 117.839 206.271 118.185 206.322 118.524C206.359 118.645 206.385 118.769 206.4 118.894Z" fill="#FAFAFA"/>
<path d="M231.237 142.412C231.255 142.502 231.265 142.594 231.268 142.686C231.276 142.95 231.248 143.214 231.185 143.47C230.912 144.414 230.333 145.241 229.539 145.822C229.009 146.244 228.423 146.59 227.797 146.849C227.131 147.133 226.395 147.359 225.619 147.599C224.815 147.834 224.027 148.125 223.263 148.47C222.469 148.849 221.758 149.38 221.168 150.033C220.533 150.695 219.984 151.422 219.374 152.067C218.791 152.691 218.114 153.22 217.366 153.635C216.095 154.328 214.673 154.699 213.225 154.715C212.255 154.725 211.291 154.565 210.377 154.24C210.128 154.155 209.887 154.051 209.654 153.931C209.569 153.896 209.488 153.85 209.414 153.796C209.502 153.82 209.588 153.851 209.671 153.887C209.91 153.99 210.154 154.08 210.403 154.157C211.315 154.443 212.269 154.577 213.225 154.554C214.641 154.517 216.027 154.139 217.266 153.452C217.99 153.042 218.647 152.523 219.213 151.914C219.81 151.279 220.354 150.556 221.003 149.876C221.627 149.199 222.379 148.651 223.215 148.265C223.991 147.919 224.79 147.627 225.606 147.394C226.373 147.159 227.104 146.958 227.784 146.671C228.391 146.422 228.963 146.092 229.482 145.691C230.263 145.14 230.845 144.352 231.142 143.444C231.206 143.103 231.238 142.758 231.237 142.412Z" fill="#FAFAFA"/>
<path d="M229.099 84.6893L225.467 84.7764C225.327 85.5088 225.049 86.2079 224.648 86.8363C221.599 81.5667 219.261 74.5114 218.677 71.6763C218.764 71.3932 218.864 71.0796 218.991 70.7312C219.081 70.202 219.065 69.6601 218.943 69.1372C218.838 68.5058 218.664 67.6565 218.612 67.2646C218.451 66.0626 218.255 65.8753 217.837 66.0103C217.271 66.1976 218.072 69.3768 217.606 69.4465C217.353 69.4813 217.048 68.3925 216.961 67.4997C216.874 66.6069 216.465 63.8545 216.173 63.6716C215.738 63.4016 215.359 63.8284 215.472 64.7168C215.585 65.6053 215.72 68.3054 215.25 68.3446C214.779 68.3838 214.379 63.8197 214.379 63.8197C214.379 63.8197 214.453 62.8267 213.904 62.8485C212.92 62.892 213.691 67.7001 213.773 68.1574C213.834 68.4709 213.338 68.5319 213.277 68.1878C213.216 67.8438 212.989 63.6281 211.97 63.6629C211.195 63.6629 212.567 67.6217 212.132 68.5362C211.696 69.4508 211.4 65.4354 210.664 65.4877C210.389 65.5095 210.185 65.5617 210.69 67.8307C211.174 69.6335 211.755 71.4087 212.432 73.1483C213.599 79.4414 218.721 99.575 226.747 95.8906C231.242 93.8262 233.062 84.6893 233.062 84.6893H229.099Z" fill="#B78876"/>
<path d="M213.617 68.4623C213.651 68.4709 213.687 68.4709 213.721 68.4623C213.774 68.4462 213.819 68.412 213.848 68.3657C213.878 68.3194 213.89 68.2641 213.882 68.2097C213.882 67.9397 213.83 67.5477 213.769 67.0382C213.667 66.424 213.6 65.8046 213.569 65.1829C213.569 64.8171 213.569 64.4251 213.591 64.0114C213.597 63.801 213.619 63.5914 213.656 63.3842C213.691 63.1883 213.821 62.9487 213.974 62.9879H214C214.152 62.9879 214.274 63.1012 214.322 63.2841C214.376 63.4736 214.397 63.6711 214.383 63.8676C214.473 65.0873 214.629 66.3013 214.849 67.5041C214.884 67.6653 214.919 67.8308 214.971 67.9963C214.994 68.081 215.023 68.1639 215.058 68.2445C215.081 68.2894 215.105 68.333 215.132 68.3752C215.152 68.407 215.179 68.4338 215.21 68.4535C215.242 68.4731 215.278 68.4851 215.315 68.4884C215.379 68.4814 215.439 68.4558 215.487 68.4147C215.536 68.3736 215.572 68.3189 215.59 68.2576C215.627 68.1724 215.655 68.0833 215.672 67.9919C215.706 67.8164 215.73 67.6389 215.742 67.4606C215.782 66.7349 215.772 66.0073 215.712 65.283C215.656 64.9214 215.642 64.5548 215.668 64.1899C215.684 64.0323 215.76 63.8871 215.881 63.7849C215.909 63.7683 215.94 63.7578 215.973 63.754C216.005 63.7503 216.038 63.7534 216.069 63.7631C216.106 63.772 216.141 63.7867 216.173 63.8067C216.195 63.8232 216.212 63.846 216.221 63.872C216.358 64.2252 216.459 64.5915 216.522 64.9651C216.6 65.3484 216.665 65.7447 216.726 66.141C216.787 66.5373 216.844 66.938 216.892 67.343C216.929 67.761 216.996 68.1757 217.092 68.5842C217.144 68.7931 217.209 68.9982 217.288 69.1983C217.333 69.3103 217.394 69.4146 217.471 69.5075C217.5 69.5461 217.54 69.5756 217.586 69.5925C217.631 69.6095 217.68 69.6132 217.728 69.6033C217.772 69.5888 217.812 69.5631 217.843 69.5287C217.874 69.4944 217.896 69.4526 217.907 69.4073C217.958 69.1848 217.974 68.9555 217.954 68.7279C217.954 68.5102 217.928 68.2924 217.907 68.0834C217.876 67.7175 217.841 67.3561 217.828 66.999C217.817 66.8235 217.817 66.6475 217.828 66.472C217.837 66.3943 217.856 66.3181 217.885 66.2455C217.894 66.2216 217.907 66.1995 217.924 66.1802H217.981C218.268 66.0626 218.364 66.4633 218.442 66.7856C218.521 67.1078 218.551 67.4737 218.621 67.8177C218.734 68.5015 218.882 69.1852 218.956 69.8385C219.006 70.1513 218.995 70.471 218.921 70.7792C218.817 71.0927 218.712 71.402 218.612 71.7112V71.7416V71.7678C219.122 73.9073 219.772 76.011 220.559 78.0652C221.247 79.9249 221.939 81.5493 222.545 82.8558C223.15 84.1624 223.699 85.1858 224.073 85.8739L224.509 86.6535C224.556 86.7464 224.613 86.834 224.679 86.9148C224.642 86.8181 224.597 86.7248 224.544 86.6361L224.108 85.8391C223.751 85.1379 223.237 84.097 222.645 82.7905C222.053 81.484 221.382 79.8595 220.711 77.9999C219.944 75.9488 219.307 73.8513 218.804 71.7199V71.7808C218.904 71.476 219.004 71.1668 219.109 70.8576C219.199 70.5182 219.217 70.1635 219.161 69.8167C219.082 69.133 218.939 68.471 218.825 67.7829C218.76 67.4432 218.717 67.0948 218.647 66.7377C218.642 66.5542 218.612 66.3723 218.555 66.1976C218.506 66.0914 218.421 66.0053 218.316 65.9537C218.204 65.9172 218.084 65.9172 217.972 65.9537H217.902C217.865 65.9656 217.831 65.9848 217.802 66.0104C217.754 66.0514 217.716 66.1037 217.693 66.1628C217.653 66.257 217.628 66.357 217.619 66.4589C217.606 66.6474 217.606 66.8366 217.619 67.0251C217.619 67.3909 217.671 67.7567 217.702 68.1226C217.702 68.336 217.737 68.5581 217.745 68.7541C217.763 68.9505 217.752 69.1484 217.715 69.342C217.715 69.3855 217.68 69.3768 217.715 69.3986L217.689 69.3725C217.633 69.3013 217.589 69.222 217.558 69.1373C217.482 68.9489 217.419 68.7554 217.371 68.5581C217.275 68.1615 217.21 67.7582 217.175 67.3517C217.128 66.9423 217.072 66.5373 217.005 66.1367C216.944 65.736 216.874 65.344 216.796 64.9521C216.73 64.5531 216.619 64.163 216.465 63.7893C216.435 63.7268 216.388 63.674 216.33 63.6368C216.279 63.6074 216.225 63.584 216.169 63.5671C216.107 63.5508 216.042 63.5471 215.978 63.556C215.915 63.565 215.854 63.5866 215.799 63.6194C215.709 63.6865 215.634 63.7714 215.578 63.8689C215.523 63.9663 215.488 64.0741 215.476 64.1856C215.448 64.3835 215.448 64.5843 215.476 64.7822C215.476 64.9695 215.52 65.1524 215.533 65.3353C215.594 66.0479 215.607 66.7637 215.572 67.478C215.562 67.6477 215.54 67.8165 215.507 67.9832C215.494 68.0611 215.472 68.1371 215.442 68.2097C215.43 68.2384 215.414 68.2649 215.394 68.2881C215.394 68.3273 215.363 68.2881 215.367 68.3403C215.367 68.2968 215.367 68.3403 215.367 68.2837C215.348 68.2543 215.331 68.2238 215.315 68.1923C215.285 68.1226 215.259 68.0442 215.232 67.9701C215.185 67.8134 215.15 67.6522 215.115 67.4954C214.888 66.3029 214.723 65.0992 214.623 63.8894C214.636 63.6705 214.611 63.4509 214.549 63.2405C214.52 63.1308 214.461 63.0312 214.379 62.9531C214.336 62.9119 214.286 62.8798 214.23 62.8589C214.175 62.8379 214.116 62.8285 214.057 62.8311H214.083C214.009 62.8204 213.934 62.8315 213.866 62.8633C213.799 62.8951 213.742 62.946 213.704 63.0097C213.639 63.1136 213.595 63.2289 213.573 63.3494C213.537 63.5653 213.516 63.7837 213.512 64.0027C213.512 64.4382 213.512 64.8171 213.512 65.1872C213.554 65.8129 213.634 66.4354 213.752 67.0512C213.826 67.5564 213.882 67.9484 213.909 68.214C213.917 68.2606 213.909 68.3085 213.886 68.3498C213.863 68.3911 213.826 68.4231 213.782 68.4405C213.652 68.4536 213.612 68.4579 213.617 68.4623Z" fill="#A36957"/>
<path d="M185.252 90.6857C184.402 90.6676 183.554 90.7658 182.73 90.9775C180.479 91.5698 176.598 93.9216 176.437 96.8264H179.259C179.259 96.8264 177.678 100.189 178.14 99.875C179.346 99.0649 181.742 96.6304 181.742 96.6304L185.252 90.6857Z" fill="#B78876"/>
<path d="M223.72 40.067C223.655 40.067 223.402 37.7413 223.15 34.8409C222.897 31.9404 222.741 29.6147 222.801 29.6147C222.862 29.6147 223.119 31.9404 223.372 34.8409C223.625 37.7413 223.781 40.067 223.72 40.067Z" fill="#141414"/>
<path d="M236.093 29.7933C236.141 29.8281 234.238 32.5936 231.838 35.9688C229.439 39.344 227.448 42.0659 227.396 42.0137C227.344 41.9614 229.251 39.2134 231.651 35.8382C234.051 32.463 236.041 29.7585 236.093 29.7933Z" fill="#141414"/>
<path d="M241.232 42.3268C241.232 42.3878 239.02 42.8973 236.268 43.4635C233.515 44.0297 231.268 44.439 231.255 44.3781C231.242 44.3171 233.463 43.8075 236.22 43.2414C238.976 42.6752 241.202 42.2658 241.232 42.3268Z" fill="#141414"/>
<g filter="url(#filter1_i_849_32266)">
<path d="M93.1287 102.145L77.7117 181.32L75.7084 191.685L178.488 191.189C183.105 191.167 187.199 187.069 188.675 180.98L206.905 106.234C208.033 101.613 205.56 96.8052 202.058 96.8096L98.0064 96.9185C95.7418 96.9141 93.7123 99.0568 93.1287 102.145Z" fill="#196719"/>
</g>
<g opacity="0.5">
<path opacity="0.7" d="M93.1287 102.145L77.7117 181.32L75.7084 191.685L178.488 191.189C183.105 191.167 187.199 187.069 188.675 180.98L206.905 106.234C208.033 101.613 205.56 96.8052 202.058 96.8096L98.0064 96.9185C95.7418 96.9141 93.7123 99.0568 93.1287 102.145Z" fill="black"/>
</g>
<g filter="url(#filter2_i_849_32266)">
<path d="M168.642 175.946L157.754 88.2299C157.318 84.637 154.448 81.9543 151.065 81.9673L127.199 82.0414C126.312 82.0514 125.436 82.2419 124.625 82.6013C123.814 82.9607 123.085 83.4814 122.482 84.1318L111.159 96.1823L44.7873 96.5395C40.7327 96.5612 37.6144 100.402 38.1501 104.714L48.2583 185.784C48.6938 189.373 51.5638 192.051 54.939 192.047L170.632 191.816C183.514 192.081 184.747 188.279 184.747 188.279C169.957 191.55 168.642 175.968 168.642 175.946Z" fill="#196719"/>
</g>
<g opacity="0.5">
<path d="M116.589 156.456C117.779 157.526 117.86 159.364 116.769 160.534C115.705 161.677 113.921 161.756 112.761 160.711L86.9667 137.504C85.7772 136.434 85.696 134.597 86.7866 133.426C87.8509 132.283 89.6346 132.204 90.7955 133.249L116.589 156.456Z" fill="white"/>
<path d="M111.276 132.526C112.354 131.368 114.162 131.288 115.338 132.347C116.543 133.431 116.625 135.292 115.52 136.478L92.2845 161.434C91.206 162.592 89.3982 162.673 88.2213 161.614C87.0149 160.53 86.9323 158.667 88.0378 157.48L111.276 132.526Z" fill="white"/>
</g>
<path d="M185.161 45.1965C185.02 45.1371 184.899 45.0388 184.811 44.9131C184.724 44.7874 184.675 44.6395 184.669 44.4866L184.494 40.4451C184.488 40.3195 184.511 40.1942 184.562 40.0792C184.613 39.9641 184.689 39.8624 184.786 39.7821C184.883 39.7018 184.997 39.6451 185.119 39.6166C185.242 39.5881 185.369 39.5884 185.492 39.6176C185.829 39.6904 186.177 39.6935 186.516 39.6269C186.854 39.5602 187.176 39.4252 187.46 39.23C187.722 39.0642 187.947 38.8465 188.122 38.5904C188.296 38.3342 188.416 38.045 188.475 37.7406C188.514 37.4323 188.491 37.1193 188.408 36.8201C188.324 36.5209 188.181 36.2415 187.987 35.9985C187.783 35.7221 187.526 35.4887 187.232 35.3116C186.938 35.1345 186.611 35.0172 186.271 34.9664C185.586 34.9283 184.908 35.1226 184.347 35.5177C183.786 35.9129 183.374 36.4859 183.179 37.1439C183.114 37.3433 182.975 37.5099 182.79 37.609C182.605 37.7082 182.389 37.7321 182.187 37.676C181.985 37.6199 181.812 37.488 181.705 37.3077C181.598 37.1275 181.564 36.9128 181.611 36.7084C181.908 35.6734 182.551 34.772 183.434 34.1557C184.317 33.5394 185.385 33.2459 186.458 33.3245C187.017 33.399 187.556 33.585 188.041 33.8715C188.527 34.1581 188.95 34.5393 189.285 34.9925C189.611 35.4126 189.85 35.8938 189.987 36.4077C190.124 36.9216 190.156 37.4578 190.082 37.9845C189.983 38.5104 189.777 39.0104 189.478 39.4538C189.178 39.8973 188.791 40.2746 188.34 40.5627C187.686 41.0026 186.923 41.2514 186.136 41.2813L186.271 44.3995C186.276 44.5365 186.247 44.6726 186.185 44.7951C186.124 44.9176 186.032 45.0226 185.919 45.1003C185.806 45.1781 185.676 45.226 185.539 45.2398C185.403 45.2536 185.265 45.2327 185.139 45.1791L185.161 45.1965Z" fill="#196719"/>
<path d="M186.354 46.8522C186.363 46.9837 186.333 47.115 186.268 47.2294C186.202 47.3439 186.104 47.4363 185.986 47.4951C185.868 47.5538 185.735 47.5762 185.605 47.5595C185.474 47.5427 185.351 47.4876 185.251 47.401C185.152 47.3144 185.081 47.2002 185.046 47.073C185.012 46.9458 185.016 46.8111 185.058 46.6862C185.1 46.5612 185.178 46.4515 185.282 46.371C185.387 46.2905 185.512 46.2427 185.644 46.2338C185.731 46.2273 185.819 46.2381 185.902 46.2658C185.985 46.2934 186.062 46.3373 186.128 46.3948C186.194 46.4523 186.248 46.5223 186.287 46.6009C186.326 46.6794 186.348 46.7648 186.354 46.8522Z" fill="#196719"/>
<path d="M171.168 39.4961C171.186 39.4099 171.199 39.3226 171.207 39.2348C171.207 39.0431 171.255 38.7993 171.29 38.4552C171.332 38.0328 171.404 37.6138 171.503 37.2009C171.56 36.9571 171.59 36.687 171.677 36.4127C171.764 36.1383 171.851 35.8422 171.947 35.5416C172.451 34.0528 173.186 32.6523 174.125 31.3913C175.355 29.7584 176.914 28.4022 178.702 27.4107C179.72 26.837 180.803 26.3895 181.929 26.078C183.144 25.756 184.396 25.592 185.653 25.5903C186.315 25.5796 186.977 25.6146 187.634 25.6948C187.97 25.7296 188.301 25.8167 188.636 25.8734C188.975 25.9314 189.31 26.0129 189.638 26.1172C191.01 26.5008 192.316 27.0928 193.509 27.8723C196.162 29.5931 198.183 32.1308 199.267 35.1018C199.85 36.6932 200.145 38.376 200.138 40.0709C200.156 41.8171 199.847 43.5512 199.227 45.1838L199.032 45.6803L199.005 45.7456L199.032 45.811C200.125 48.3238 201.209 50.7932 202.233 53.1841L202.415 52.9751L195.883 50.4709L195.804 50.4404L195.739 50.5014C194.011 52.1758 191.895 53.3967 189.581 54.0551C187.603 54.5996 185.533 54.7184 183.506 54.4039C181.479 54.0893 179.542 53.3485 177.822 52.2304C176.414 51.3067 175.172 50.1507 174.151 48.8116C172.671 46.857 171.711 44.5581 171.364 42.1309C171.311 41.6954 171.268 41.3296 171.229 40.9986C171.189 40.6676 171.229 40.3976 171.207 40.1668C171.185 39.9359 171.207 39.7835 171.207 39.6572C171.229 39.6539 171.248 39.6425 171.262 39.6254C171.276 39.6082 171.282 39.5864 171.281 39.5645C171.279 39.5426 171.269 39.5222 171.253 39.5072C171.237 39.4923 171.216 39.484 171.194 39.484C171.172 39.484 171.151 39.4923 171.135 39.5072C171.118 39.5222 171.109 39.5426 171.107 39.5645C171.105 39.5864 171.112 39.6082 171.126 39.6254C171.139 39.6425 171.159 39.6539 171.181 39.6572C171.181 39.7835 171.181 39.9534 171.181 40.1668C171.181 40.3802 171.181 40.6763 171.181 41.0073C171.181 41.3383 171.255 41.7172 171.298 42.1483C171.442 43.1958 171.691 44.226 172.043 45.223C172.542 46.5396 173.212 47.7844 174.038 48.9248C175.063 50.2878 176.314 51.4661 177.735 52.4089C179.476 53.555 181.441 54.3178 183.499 54.6467C185.557 54.9756 187.661 54.863 189.672 54.3164C192.015 53.6512 194.157 52.4186 195.909 50.7278L195.765 50.7583L202.298 53.2756L202.624 53.4019L202.481 53.0665C201.444 50.6756 200.373 48.2106 199.284 45.6934V45.8197L199.484 45.3101C200.12 43.6419 200.436 41.8691 200.416 40.084C200.43 38.353 200.135 36.6335 199.545 35.006C198.439 31.9758 196.373 29.3899 193.662 27.6415C192.438 26.8438 191.098 26.2413 189.69 25.8559C189.357 25.7505 189.016 25.6704 188.671 25.6164C188.331 25.5554 187.996 25.4683 187.656 25.4378C186.99 25.3552 186.319 25.3173 185.648 25.3246C184.371 25.33 183.1 25.5028 181.868 25.8385C180.727 26.1625 179.629 26.6216 178.597 27.206C176.792 28.2219 175.223 29.6098 173.994 31.278C173.058 32.5599 172.334 33.9831 171.847 35.4937C171.756 35.8073 171.668 36.1078 171.59 36.3648C171.521 36.6273 171.466 36.8933 171.425 37.1617C171.331 37.5774 171.27 37.9996 171.242 38.4247C171.216 38.7601 171.198 39.017 171.185 39.2086C171.167 39.3033 171.161 39.3999 171.168 39.4961Z" fill="#141414"/>
<defs>
<filter id="filter0_i_849_32266" x="108.907" y="19.1621" width="52.4614" height="27.1646" filterUnits="userSpaceOnUse" color-interpolation-filters="sRGB">
<feFlood flood-opacity="0" result="BackgroundImageFix"/>
<feBlend mode="normal" in="SourceGraphic" in2="BackgroundImageFix" result="shape"/>
<feColorMatrix in="SourceAlpha" type="matrix" values="0 0 0 0 0 0 0 0 0 0 0 0 0 0 0 0 0 0 127 0" result="hardAlpha"/>
<feOffset dy="4"/>
<feGaussianBlur stdDeviation="4"/>
<feComposite in2="hardAlpha" operator="arithmetic" k2="-1" k3="1"/>
<feColorMatrix type="matrix" values="0 0 0 0 0.0627451 0 0 0 0 0.258824 0 0 0 0 0.0627451 0 0 0 1 0"/>
<feBlend mode="normal" in2="shape" result="effect1_innerShadow_849_32266"/>
</filter>
<filter id="filter1_i_849_32266" x="71.7084" y="96.8096" width="135.473" height="98.8755" filterUnits="userSpaceOnUse" color-interpolation-filters="sRGB">
<feFlood flood-opacity="0" result="BackgroundImageFix"/>
<feBlend mode="normal" in="SourceGraphic" in2="BackgroundImageFix" result="shape"/>
<feColorMatrix in="SourceAlpha" type="matrix" values="0 0 0 0 0 0 0 0 0 0 0 0 0 0 0 0 0 0 127 0" result="hardAlpha"/>
<feOffset dx="-4" dy="4"/>
<feGaussianBlur stdDeviation="4"/>
<feComposite in2="hardAlpha" operator="arithmetic" k2="-1" k3="1"/>
<feColorMatrix type="matrix" values="0 0 0 0 0.0627451 0 0 0 0 0.258824 0 0 0 0 0.0627451 0 0 0 1 0"/>
<feBlend mode="normal" in2="shape" result="effect1_innerShadow_849_32266"/>
</filter>
<filter id="filter2_i_849_32266" x="38.0901" y="81.9673" width="150.657" height="118.079" filterUnits="userSpaceOnUse" color-interpolation-filters="sRGB">
<feFlood flood-opacity="0" result="BackgroundImageFix"/>
<feBlend mode="normal" in="SourceGraphic" in2="BackgroundImageFix" result="shape"/>
<feColorMatrix in="SourceAlpha" type="matrix" values="0 0 0 0 0 0 0 0 0 0 0 0 0 0 0 0 0 0 127 0" result="hardAlpha"/>
<feOffset dx="4" dy="8"/>
<feGaussianBlur stdDeviation="4"/>
<feComposite in2="hardAlpha" operator="arithmetic" k2="-1" k3="1"/>
<feColorMatrix type="matrix" values="0 0 0 0 0.0627451 0 0 0 0 0.258824 0 0 0 0 0.0627451 0 0 0 1 0"/>
<feBlend mode="normal" in2="shape" result="effect1_innerShadow_849_32266"/>
</filter>
</defs>
</svg>
