<svg width="193" height="193" viewBox="0 0 193 193" fill="none" xmlns="http://www.w3.org/2000/svg">
<path d="M13.4765 65.7252C12.5134 56.0615 20.3116 47.7752 30.016 48.1505L176.359 53.8102C185.308 54.1563 192.23 61.78 191.714 70.7209L185.525 177.863C185.036 186.327 178.03 192.94 169.552 192.94H40.6391C32.417 192.94 25.5333 186.709 24.7179 178.527L13.4765 65.7252Z" fill="#104210"/>
<path d="M101.72 120C101.639 120.001 101.558 119.979 101.488 119.937C101.418 119.895 101.361 119.834 101.324 119.762L91.3948 100.363C79.1055 97.809 68.1999 90.7886 60.7875 80.6594C53.375 70.5301 49.9824 58.0118 51.2659 45.5259C52.5495 33.04 58.4179 21.4737 67.736 13.0643C77.0542 4.65489 89.1599 0 101.712 0C114.263 0 126.369 4.65489 135.687 13.0643C145.005 21.4737 150.874 33.04 152.157 45.5259C153.441 58.0118 150.048 70.5301 142.636 80.6594C135.223 90.7886 124.318 97.809 112.029 100.363L102.108 119.762C102.073 119.834 102.018 119.895 101.949 119.937C101.88 119.98 101.801 120.001 101.72 120ZM101.72 0.958756C89.3886 0.980511 77.5031 5.57505 68.363 13.8536C59.2229 22.1321 53.4779 33.5062 52.2394 45.7757C51.0008 58.0452 54.3566 70.3381 61.6578 80.2763C68.9589 90.2145 79.6864 97.0918 91.7651 99.5778C91.8289 99.5914 91.889 99.619 91.9408 99.6587C91.9926 99.6983 92.035 99.749 92.0649 99.807L101.72 118.589L111.341 99.7894C111.373 99.7311 111.417 99.6804 111.47 99.6408C111.523 99.6013 111.584 99.5737 111.649 99.5601C123.754 97.1021 134.515 90.235 141.842 80.2912C149.17 70.3475 152.543 58.0362 151.306 45.7462C150.069 33.4562 144.31 22.064 135.148 13.78C125.986 5.49603 114.073 0.911023 101.72 0.914664V0.958756Z" fill="#196719"/>
<path d="M63.6095 53.4067L69.6938 78.4406C69.9339 79.4215 70.5536 80.2669 71.4167 80.791C72.2798 81.3152 73.3157 81.4752 74.2968 81.2359L131.251 67.383C132.231 67.1407 133.076 66.521 133.601 65.6589C134.126 64.7968 134.29 63.762 134.055 62.7801L127.971 37.755C127.852 37.2829 127.646 36.8373 127.363 36.4411C126.921 35.8236 126.304 35.352 125.593 35.0865C124.881 34.8211 124.107 34.7739 123.368 34.9509L66.4489 48.8038C65.7043 48.9797 65.0294 49.3744 64.5109 49.9369C63.9924 50.4994 63.6539 51.2042 63.539 51.9606C63.466 52.4425 63.4899 52.9341 63.6095 53.4067Z" fill="#196719"/>
<path opacity="0.1" d="M63.5391 51.9606L103.607 68.5646L127.363 36.4411C126.921 35.8236 126.304 35.352 125.593 35.0865C124.881 34.8211 124.107 34.7739 123.368 34.9509L66.4489 48.8038C65.7044 48.9797 65.0295 49.3744 64.511 49.9369C63.9924 50.4994 63.654 51.2042 63.5391 51.9606Z" fill="#041004"/>
<path d="M63.5391 51.9614L104.101 65.1882L127.345 36.4772C126.903 35.8598 126.287 35.3881 125.575 35.1227C124.864 34.8572 124.089 34.81 123.351 34.987L66.4489 48.8046C65.7044 48.9806 65.0295 49.3752 64.511 49.9378C63.9924 50.5003 63.654 51.205 63.5391 51.9614Z" fill="#196719"/>
<path opacity="0.3" d="M63.5391 51.9614L104.101 65.1882L127.345 36.4772C126.903 35.8598 126.287 35.3881 125.575 35.1227C124.864 34.8572 124.089 34.81 123.351 34.987L66.4489 48.8046C65.7044 48.9806 65.0295 49.3752 64.511 49.9378C63.9924 50.5003 63.654 51.205 63.5391 51.9614Z" fill="#FCCE17"/>
<path opacity="0.1" d="M129.938 45.8684L82.5857 44.872L97.2675 41.3008L129.303 43.2583L129.938 45.8684Z" fill="#141414"/>
<path d="M87.3739 14.6622L85.8484 37.5887C85.7903 38.4861 86.0897 39.3701 86.6811 40.0475C87.2726 40.7249 88.1082 41.1407 89.0052 41.204L141.075 44.6694C141.972 44.7276 142.856 44.4282 143.534 43.8367C144.211 43.2452 144.627 42.4097 144.69 41.5126L146.216 18.6303C146.269 17.7325 145.967 16.8499 145.374 16.1733C144.782 15.4967 143.947 15.0806 143.05 15.015L90.9804 11.5495C90.3056 11.5076 89.6336 11.6672 89.0496 12.0078C88.4656 12.3485 87.9959 12.855 87.7002 13.463C87.5152 13.838 87.4044 14.2452 87.3739 14.6622Z" fill="#196719"/>
<path opacity="0.1" d="M87.7 13.4181L117.284 38.2316L146.048 17.3068C145.838 16.6626 145.441 16.0959 144.906 15.6795C144.372 15.263 143.726 15.016 143.05 14.97L90.9802 11.5046C90.3054 11.4627 89.6333 11.6222 89.0493 11.9629C88.4653 12.3036 87.9957 12.8101 87.7 13.4181Z" fill="#041004"/>
<path d="M87.7 13.4184L125.917 34.0346L146.048 17.2806C145.838 16.6365 145.441 16.0697 144.906 15.6533C144.372 15.2369 143.726 14.9898 143.05 14.9439L90.9802 11.4785C90.3025 11.4389 89.6284 11.6023 89.0441 11.9479C88.4597 12.2935 87.9917 12.8054 87.7 13.4184Z" fill="#196719"/>
<path opacity="0.3" d="M87.7 13.4184L125.917 34.0346L146.048 17.2806C145.838 16.6365 145.441 16.0697 144.906 15.6533C144.372 15.2369 143.726 14.9898 143.05 14.9439L90.9802 11.4785C90.3025 11.4389 89.6284 11.6023 89.0441 11.9479C88.4597 12.2935 87.9917 12.8054 87.7 13.4184Z" fill="#FCCE17"/>
<path fill-rule="evenodd" clip-rule="evenodd" d="M36.6973 61.0867L16.8293 60.4879C7.1891 60.1974 -0.515027 68.4383 0.423203 78.0372L10.2426 178.497C11.0435 186.691 17.933 192.94 26.1667 192.94H169.949C179.056 192.94 186.327 185.349 185.934 176.251L182.139 88.2755C179.376 90.5617 175.829 91.9402 171.948 91.9402H54.2281C45.9954 91.9402 39.1065 85.6928 38.3042 77.4993L36.6973 61.0867Z" fill="#5ECD5E"/>
<circle cx="72.6543" cy="124.94" r="5" fill="#104210"/>
<circle cx="132.654" cy="124.94" r="5" fill="#104210"/>
<path d="M83.1543 155.941C88.9876 149.607 104.454 140.741 119.654 155.941" stroke="#104210" stroke-width="3" stroke-linecap="round"/>
</svg>
