<svg width="191" height="193" viewBox="0 0 191 193" fill="none" xmlns="http://www.w3.org/2000/svg">
<path opacity="0.7" d="M11.5932 60.0938C11.5932 60.0938 -0.549728 91.453 16.5149 123.03C33.5795 154.607 68.7278 171.288 96.8596 185.552C124.991 199.816 154.203 192.869 168.084 169.507C181.965 146.144 162.927 129.467 162.901 96.1525C162.875 62.8378 167.888 54.018 149.835 25.8732C131.781 -2.27165 87.5259 -8.50427 54.0587 12.3713C20.5916 33.2469 11.5932 60.0938 11.5932 60.0938Z" fill="#F3FFF3"/>
<path opacity="0.5" d="M8.68821 67.6595C25.1605 51.1916 39.1109 65.0071 44.9908 42.8945C58.2661 -7.05798 113.328 -6.58323 120.566 28.9615C133.611 92.9864 190.427 52.3284 190.005 98.1824C189.569 147.142 153.55 185.291 88.9589 189.085C31.0882 192.504 -18.6073 94.9463 8.68821 67.6595Z" fill="#BDFFBD"/>
<path opacity="0.2" d="M8.68821 67.6595C25.1605 51.1916 39.1109 65.0071 44.9908 42.8945C58.2661 -7.05798 113.328 -6.58323 120.566 28.9615C133.611 92.9864 190.427 52.3284 190.005 98.1824C189.569 147.142 153.55 185.291 88.9589 189.085C31.0882 192.504 -18.6073 94.9463 8.68821 67.6595Z" fill="#F3FFF3"/>
<path d="M151.611 154.342L141.524 155.522C141.294 155.549 141.064 155.484 140.882 155.341C140.701 155.198 140.584 154.989 140.557 154.76L139.346 144.359C139.325 144.165 139.347 143.969 139.411 143.786C139.475 143.602 139.579 143.435 139.716 143.296L143.923 139.154C144.126 138.953 144.39 138.826 144.674 138.793C144.957 138.76 145.244 138.822 145.487 138.971L150.535 142.02C150.701 142.121 150.842 142.259 150.947 142.422C151.052 142.586 151.118 142.772 151.14 142.965L152.36 153.366C152.39 153.595 152.327 153.826 152.187 154.009C152.047 154.191 151.839 154.311 151.611 154.342Z" fill="#196719" stroke="#104210" stroke-linecap="round" stroke-linejoin="round"/>
<path d="M142.003 145.666C141.898 144.795 142.294 144.234 143.144 144.133C143.993 144.033 144.507 144.473 144.612 145.362L144.947 148.197C145.047 149.068 144.651 149.63 143.801 149.73C142.952 149.83 142.438 149.39 142.334 148.502L142.003 145.666ZM143.2 148.463C143.248 148.846 143.427 148.985 143.71 148.955C143.993 148.924 144.146 148.741 144.089 148.358L143.745 145.401C143.697 145.017 143.505 144.878 143.235 144.913C142.965 144.948 142.8 145.122 142.856 145.505L143.2 148.463ZM146.554 143.798L147.356 143.702L144.964 152.727L144.163 152.822L146.554 143.798ZM146.646 148.323C146.541 147.452 146.942 146.886 147.791 146.79C148.64 146.694 149.154 147.13 149.259 148.014L149.59 150.849C149.694 151.721 149.298 152.282 148.444 152.383C147.591 152.483 147.081 152.043 146.977 151.154L146.646 148.323ZM147.848 151.115C147.891 151.498 148.07 151.642 148.353 151.607C148.636 151.572 148.788 151.394 148.736 151.011L148.388 148.053C148.344 147.674 148.153 147.535 147.883 147.565C147.612 147.596 147.447 147.779 147.504 148.158L147.848 151.115Z" fill="#70E000"/>
<path d="M144.873 133.035C144.873 133.035 146.842 140.614 144.873 140.396" stroke="#104210" stroke-linecap="round" stroke-linejoin="round"/>
<path d="M146.685 133.209C146.685 133.209 144.755 136.764 144.372 138.872C144.229 139.679 144.243 141.05 145.443 140.082" stroke="#104210" stroke-linecap="round" stroke-linejoin="round"/>
<path d="M144.873 140.384C144.758 140.376 144.648 140.333 144.558 140.261C144.468 140.188 144.403 140.09 144.372 139.979" stroke="#104210" stroke-linecap="round" stroke-linejoin="round"/>
<path d="M153.658 135.835C155.423 137.262 156.776 139.134 157.578 141.258" stroke="#104210" stroke-linecap="round" stroke-linejoin="round"/>
<path d="M133.27 142.561C133.776 140.614 134.735 138.814 136.068 137.307C137.402 135.801 139.072 134.631 140.943 133.892C142.815 133.154 144.834 132.867 146.837 133.057C148.839 133.246 150.769 133.906 152.469 134.982" stroke="#104210" stroke-linecap="round" stroke-linejoin="round"/>
<path d="M137.247 155.401C134.944 153.401 133.436 150.641 133 147.622" stroke="#104210" stroke-linecap="round" stroke-linejoin="round"/>
<path d="M145.134 158.536C142.804 158.443 140.545 157.712 138.601 156.424" stroke="#104210" stroke-linecap="round" stroke-linejoin="round"/>
<path d="M158.27 143.923C158.761 147.275 157.901 150.684 155.879 153.402C153.856 156.119 150.838 157.922 147.486 158.414" stroke="#104210" stroke-linecap="round" stroke-linejoin="round"/>
<path d="M145.513 140.309C145.529 140.437 145.506 140.566 145.448 140.681C145.39 140.796 145.299 140.891 145.187 140.954C145.074 141.017 144.946 141.045 144.818 141.035C144.689 141.024 144.567 140.976 144.466 140.896C144.365 140.816 144.29 140.708 144.251 140.586C144.212 140.463 144.21 140.331 144.246 140.208C144.281 140.084 144.353 139.974 144.451 139.891C144.55 139.808 144.671 139.756 144.799 139.743C144.969 139.723 145.139 139.772 145.273 139.878C145.407 139.984 145.494 140.139 145.513 140.309Z" fill="#70E000" stroke="#104210" stroke-width="0.2" stroke-linecap="round" stroke-linejoin="round"/>
<path d="M36.461 154.682L52.4971 157.792L50.6294 167.425C50.5929 167.613 50.4833 167.779 50.3247 167.886C50.1661 167.993 49.9714 168.033 49.7834 167.996L35.1602 165.161C34.9722 165.125 34.8065 165.015 34.6994 164.857C34.5923 164.698 34.5526 164.503 34.589 164.315L36.4567 154.682L36.461 154.682Z" fill="#42AB42" stroke="#104210" stroke-width="0.8" stroke-linecap="round" stroke-linejoin="round"/>
<path d="M53.0549 158.012L36.1747 154.759L36.6693 152.193C36.7056 152.004 36.8152 151.838 36.974 151.731C37.1328 151.623 37.3278 151.583 37.5161 151.619L52.9935 154.603C53.1758 154.642 53.3357 154.751 53.4398 154.906C53.5438 155.061 53.584 155.25 53.552 155.433L53.0574 157.999L53.0549 158.012Z" fill="#42AB42" stroke="#104210" stroke-width="0.8" stroke-linecap="round" stroke-linejoin="round"/>
<path d="M46.4166 153.321L44.12 152.878L41.4887 166.529L43.7853 166.972L46.4166 153.321Z" fill="#70E000" stroke="#104210" stroke-width="0.8" stroke-linecap="round" stroke-linejoin="round"/>
<path d="M45.2674 153.1C45.2674 153.1 49.2526 150.19 51.095 151.07C52.9373 151.95 52.027 154.402 51.095 154.223" fill="#70E000"/>
<path d="M45.2674 153.1C45.2674 153.1 49.2526 150.19 51.095 151.07C52.9373 151.95 52.027 154.402 51.095 154.223" stroke="#104210" stroke-width="0.8" stroke-linecap="round" stroke-linejoin="round"/>
<path d="M46.8441 153.401C46.8441 153.401 50.0845 151.789 50.5549 152.53C51.0253 153.27 49.6272 153.954 48.5514 153.745" stroke="#104210" stroke-width="0.8" stroke-linecap="round" stroke-linejoin="round"/>
<path d="M45.3763 152.899C45.3763 152.899 47.0575 149.85 46.8397 148.866H47.9591C47.9591 148.866 48.3249 150.024 47.0183 152.006" fill="#70E000"/>
<path d="M45.3763 152.899C45.3763 152.899 47.0575 149.85 46.8397 148.866H47.9591C47.9591 148.866 48.3249 150.024 47.0183 152.006" stroke="#104210" stroke-width="0.8" stroke-linecap="round" stroke-linejoin="round"/>
<path d="M45.2674 153.1C45.2674 153.1 42.6542 148.918 40.6115 149.053C38.5688 149.189 38.5121 151.797 39.4399 151.976" fill="#70E000"/>
<path d="M45.2674 153.1C45.2674 153.1 42.6542 148.918 40.6115 149.053C38.5688 149.189 38.5121 151.797 39.4399 151.976" stroke="#104210" stroke-width="0.8" stroke-linecap="round" stroke-linejoin="round"/>
<path d="M43.6908 152.794C43.6908 152.794 41.2822 150.089 40.5723 150.595C39.8623 151.1 40.9076 152.258 41.9834 152.463" stroke="#104210" stroke-width="0.8" stroke-linecap="round" stroke-linejoin="round"/>
<path d="M45.2413 152.873C45.2413 152.873 44.8058 149.411 45.3851 148.587L44.3398 148.152C44.3398 148.152 43.5732 149.093 44.0523 151.418" fill="#70E000"/>
<path d="M45.2413 152.873C45.2413 152.873 44.8058 149.411 45.3851 148.587L44.3398 148.152C44.3398 148.152 43.5732 149.093 44.0523 151.418" stroke="#104210" stroke-width="0.8" stroke-linecap="round" stroke-linejoin="round"/>
<path d="M57.1273 148.204C58.9228 150.472 60.0819 153.178 60.4853 156.043" stroke="#104210" stroke-linecap="round" stroke-linejoin="round"/>
<path d="M29.8361 150.817C31.0164 148.535 32.719 146.565 34.8052 145.065C36.8915 143.566 39.3023 142.581 41.8414 142.19C44.3805 141.799 46.9761 142.013 49.4167 142.815C51.8573 143.618 54.0739 144.985 55.886 146.806" stroke="#104210" stroke-linecap="round" stroke-linejoin="round"/>
<path d="M31.1428 167.934C28.8414 164.792 27.7441 160.928 28.0504 157.045" stroke="#104210" stroke-linecap="round" stroke-linejoin="round"/>
<path d="M40.1018 174.062C37.2194 173.292 34.6049 171.743 32.5452 169.584" stroke="#104210" stroke-linecap="round" stroke-linejoin="round"/>
<path d="M60.5899 159.571C60.2551 163.884 58.2211 167.887 54.9352 170.7C51.6493 173.513 47.3805 174.905 43.0679 174.571" stroke="#104210" stroke-linecap="round" stroke-linejoin="round"/>
<path d="M148.643 57.1855L147.275 56.4886C147.479 55.888 147.547 55.2501 147.476 54.6201C147.911 54.8292 148.373 55.0557 148.782 55.2429C148.761 55.8048 148.726 56.4668 148.643 57.1855Z" fill="#70E000" stroke="#104210" stroke-width="0.5" stroke-linecap="round" stroke-linejoin="round"/>
<path d="M150.633 56.1404C151.067 56.3613 151.531 56.5169 152.01 56.6021C152.512 59.2801 152.118 62.0487 150.89 64.481C150.538 65.1692 146.831 63.2702 147.18 62.5821C147.974 60.8807 148.469 59.0552 148.643 57.1857C148.726 56.467 148.774 55.805 148.795 55.2432C149.571 55.609 150.25 55.9444 150.633 56.1404Z" fill="#196719" stroke="#104210" stroke-linecap="round" stroke-linejoin="round"/>
<path d="M155.054 47.5025C156.088 48.0315 156.898 48.9139 157.337 49.9895C157.776 51.0651 157.814 52.2624 157.445 53.3638C157.076 54.4652 156.324 55.3977 155.326 55.9917C154.328 56.5858 153.15 56.802 152.005 56.601C151.526 56.5159 151.063 56.3603 150.629 56.1393C150.246 55.9433 149.566 55.608 148.791 55.2421C148.356 55.0374 147.92 54.8283 147.484 54.6193C146.413 54.1271 145.376 53.6741 144.841 53.4999L149.527 44.3535C150.503 45.0678 153.957 46.9406 155.054 47.5025Z" fill="#BDFFBD" stroke="#104210" stroke-linecap="round" stroke-linejoin="round"/>
<path d="M144.976 40.0249C146.289 41.6629 147.817 43.1162 149.519 44.3455L144.832 53.4919C142.838 52.8387 140.765 52.4564 138.669 52.3552L136.853 52.2593L143.822 38.6138L144.976 40.0249Z" fill="#70E000" stroke="#104210" stroke-linecap="round" stroke-linejoin="round"/>
<path d="M134.74 52.6378L142.911 36.6751C142.974 36.5546 143.082 36.4638 143.212 36.4222C143.342 36.3807 143.482 36.3917 143.604 36.453L144.205 36.7623C144.326 36.8247 144.418 36.9324 144.46 37.062C144.503 37.1916 144.492 37.3328 144.431 37.4548L143.835 38.6177L136.866 52.2632L136.274 53.4261C136.243 53.4862 136.2 53.5396 136.149 53.5833C136.097 53.627 136.038 53.6601 135.973 53.6808C135.909 53.7014 135.841 53.7091 135.774 53.7036C135.707 53.698 135.641 53.6792 135.581 53.6483L134.976 53.339C134.913 53.3099 134.857 53.2682 134.811 53.2166C134.764 53.165 134.729 53.1046 134.707 53.039C134.685 52.9734 134.677 52.904 134.683 52.835C134.688 52.766 134.708 52.6989 134.74 52.6378Z" fill="#42AB42" stroke="#104210" stroke-linecap="round" stroke-linejoin="round"/>
<path d="M134.984 42.6867L131.835 41.0752" stroke="#42AB42" stroke-linecap="round" stroke-linejoin="round"/>
<path d="M138.673 37.6334L136.687 34.1577" stroke="#42AB42" stroke-linecap="round" stroke-linejoin="round"/>
<path d="M133.046 48.6318L129.07 49.0543" stroke="#42AB42" stroke-linecap="round" stroke-linejoin="round"/>
<path d="M159.37 33.5967C156.621 31.0503 153.241 29.2862 149.579 28.4878" stroke="#104210" stroke-linecap="round" stroke-linejoin="round"/>
<path d="M153.273 68.4701C156.327 67.1773 159.033 65.1818 161.171 62.6457C163.309 60.1097 164.818 57.1049 165.575 53.8757C166.332 50.6465 166.316 47.2842 165.529 44.0623C164.741 40.8404 163.204 37.8498 161.043 35.334" stroke="#104210" stroke-linecap="round" stroke-linejoin="round"/>
<path d="M131.361 65.0688C135.175 68.3478 140.041 70.147 145.072 70.1386" stroke="#104210" stroke-linecap="round" stroke-linejoin="round"/>
<path d="M124.37 52.9385C125.074 56.7289 126.809 60.2521 129.383 63.1215" stroke="#104210" stroke-linecap="round" stroke-linejoin="round"/>
<path d="M145.072 28C139.483 28 134.123 30.22 130.172 34.1717C126.22 38.1234 124 43.4831 124 49.0716" stroke="#104210" stroke-linecap="round" stroke-linejoin="round"/>
<path d="M52.8342 46.5981C51.0659 45.0171 49.2322 45.727 48.2958 46.2628C48.1085 45.1913 47.4247 43.3446 45.0902 43.031C42.5379 42.6913 40.4473 45.1783 41.1311 48.6452C41.6276 51.1409 43.2217 53.4362 44.0754 54.5033C44.1756 54.6339 44.2714 54.7472 44.3498 54.8386H44.7853C46.1616 54.782 48.9317 54.5076 51.1443 53.262C54.2061 51.5198 54.7506 48.3142 52.8342 46.5981Z" fill="#70E000" stroke="#104210" stroke-linecap="round" stroke-linejoin="round"/>
<path d="M42.9037 56.4634C42.9037 56.4634 42.7862 56.6768 42.625 57.0514" stroke="#104210" stroke-linecap="round" stroke-linejoin="round"/>
<path d="M42.1808 58.2666C41.4839 60.5445 41.0048 64.447 44.7157 66.812C53.8882 72.6613 56.9762 58.8633 49.9422 60.1046C45.112 60.9757 50.2209 73.7415 57.782 71.1674" stroke="#104210" stroke-linecap="round" stroke-linejoin="round" stroke-dasharray="2.98 2.98"/>
<path d="M58.4135 70.9286C58.6052 70.8415 58.8011 70.7456 58.9971 70.6411" stroke="#104210" stroke-linecap="round" stroke-linejoin="round"/>
<circle cx="97" cy="102" r="45.5" fill="url(#paint0_radial_843_32026)" stroke="#196719"/>
<g filter="url(#filter0_i_843_32026)">
<circle cx="97" cy="102" r="40" fill="url(#paint1_radial_843_32026)"/>
</g>
<g filter="url(#filter1_d_843_32026)">
<path d="M107 114.5H87C87 119.5 90.585 124.5 97 124.5C103.415 124.5 107 119.5 107 114.5Z" fill="#70E000"/>
</g>
<g filter="url(#filter2_di_843_32026)">
<path d="M116.008 108.072L118.773 112.687C119.618 114.095 119.61 114.717 118.836 114.717H75.0133C74.4197 114.717 74.2232 114.092 75.0682 112.687L77.8332 108.072C78.8807 106.325 79.4332 101.825 79.4332 99.7924V93.225C79.4332 84.2775 87.9673 77 96.9198 77C105.872 77 114.408 84.2775 114.408 93.225V99.7924C114.408 101.825 114.961 106.325 116.008 108.072Z" fill="#5ECD5E"/>
</g>
<path d="M97.2755 128.169L97.2615 131.707" stroke="#70E000" stroke-linecap="round" stroke-linejoin="round"/>
<path d="M91.1002 127.163L88.8978 130.505" stroke="#70E000" stroke-linecap="round" stroke-linejoin="round"/>
<path d="M103.455 127.21L105.629 130.566" stroke="#70E000" stroke-linecap="round" stroke-linejoin="round"/>
<g opacity="0.5" filter="url(#filter3_f_843_32026)">
<path d="M98.5 79.5C103 79.5 115.34 89.1494 111.13 100.378C109.122 91.3209 105.5 86.5 98.5 79.5Z" fill="#BDFFBD"/>
</g>
<path d="M12.3846 34.2673C12.5456 33.8319 13.1613 33.8319 13.3224 34.2673L14.1627 36.5382C14.2134 36.6751 14.3213 36.783 14.4581 36.8336L16.7291 37.6739C17.1644 37.835 17.1644 38.4507 16.7291 38.6118L14.4581 39.4521C14.3213 39.5028 14.2134 39.6107 14.1627 39.7475L13.3224 42.0185C13.1613 42.4538 12.5456 42.4538 12.3846 42.0185L11.5442 39.7475C11.4936 39.6107 11.3857 39.5028 11.2488 39.4521L8.97789 38.6118C8.54258 38.4507 8.54258 37.835 8.97789 37.6739L11.2488 36.8336C11.3857 36.783 11.4936 36.6751 11.5442 36.5382L12.3846 34.2673Z" fill="#70E000"/>
<path d="M107.812 75.5069C107.877 75.3328 108.123 75.3328 108.188 75.5069L109.048 77.8334C109.069 77.8881 109.112 77.9313 109.167 77.9516L111.493 78.8124C111.667 78.8769 111.667 79.1231 111.493 79.1876L109.167 80.0484C109.112 80.0687 109.069 80.1119 109.048 80.1666L108.188 82.4931C108.123 82.6672 107.877 82.6672 107.812 82.4931L106.952 80.1666C106.931 80.1119 106.888 80.0687 106.833 80.0484L104.507 79.1876C104.333 79.1231 104.333 78.8769 104.507 78.8124L106.833 77.9516C106.888 77.9313 106.931 77.8881 106.952 77.8334L107.812 75.5069Z" fill="#70E000"/>
<path d="M98.6739 166.267C98.835 165.832 99.4507 165.832 99.6118 166.267L100.452 168.538C100.503 168.675 100.611 168.783 100.748 168.834L103.018 169.674C103.454 169.835 103.454 170.451 103.018 170.612L100.748 171.452C100.611 171.503 100.503 171.611 100.452 171.748L99.6118 174.018C99.4507 174.454 98.835 174.454 98.6739 174.018L97.8336 171.748C97.783 171.611 97.6751 171.503 97.5382 171.452L95.2673 170.612C94.8319 170.451 94.8319 169.835 95.2673 169.674L97.5382 168.834C97.6751 168.783 97.783 168.675 97.8336 168.538L98.6739 166.267Z" fill="#70E000"/>
<path d="M118.675 27.0276C118.932 26.3311 119.917 26.3311 120.175 27.0276L121.381 30.2857C121.462 30.5047 121.634 30.6774 121.853 30.7584L125.112 31.964C125.808 32.2217 125.808 33.2068 125.112 33.4646L121.853 34.6702C121.634 34.7512 121.462 34.9239 121.381 35.1428L120.175 38.401C119.917 39.0975 118.932 39.0975 118.675 38.401L117.469 35.1428C117.388 34.9239 117.215 34.7512 116.996 34.6702L113.738 33.4646C113.042 33.2068 113.042 32.2217 113.738 31.964L116.996 30.7584C117.215 30.6774 117.388 30.5047 117.469 30.2857L118.675 27.0276Z" fill="#70E000"/>
<path d="M18.0945 105.507C18.1589 105.333 18.4052 105.333 18.4696 105.507L18.9447 106.791C18.9649 106.845 19.0081 106.889 19.0628 106.909L20.3466 107.384C20.5207 107.448 20.5207 107.695 20.3466 107.759L19.0628 108.234C19.0081 108.254 18.9649 108.297 18.9447 108.352L18.4696 109.636C18.4052 109.81 18.1589 109.81 18.0945 109.636L17.6195 108.352C17.5992 108.297 17.556 108.254 17.5013 108.234L16.2175 107.759C16.0434 107.695 16.0434 107.448 16.2175 107.384L17.5013 106.909C17.556 106.889 17.5992 106.845 17.6195 106.791L18.0945 105.507Z" fill="#70E000"/>
<path d="M177.384 65.5069C177.448 65.3328 177.695 65.3328 177.759 65.5069L178.234 66.7907C178.254 66.8454 178.297 66.8886 178.352 66.9088L179.636 67.3839C179.81 67.4483 179.81 67.6946 179.636 67.759L178.352 68.234C178.297 68.2543 178.254 68.2975 178.234 68.3522L177.759 69.636C177.695 69.8101 177.448 69.8101 177.384 69.636L176.909 68.3522C176.889 68.2975 176.845 68.2543 176.791 68.234L175.507 67.759C175.333 67.6946 175.333 67.4483 175.507 67.3839L176.791 66.9088C176.845 66.8886 176.889 66.8454 176.909 66.7907L177.384 65.5069Z" fill="#70E000"/>
<path d="M168.096 127.507C168.161 127.333 168.407 127.333 168.471 127.507L168.946 128.791C168.967 128.845 169.01 128.889 169.065 128.909L170.348 129.384C170.523 129.448 170.523 129.695 170.348 129.759L169.065 130.234C169.01 130.254 168.967 130.297 168.946 130.352L168.471 131.636C168.407 131.81 168.161 131.81 168.096 131.636L167.621 130.352C167.601 130.297 167.558 130.254 167.503 130.234L166.219 129.759C166.045 129.695 166.045 129.448 166.219 129.384L167.503 128.909C167.558 128.889 167.601 128.845 167.621 128.791L168.096 127.507Z" fill="#70E000"/>
<defs>
<filter id="filter0_i_843_32026" x="57" y="62" width="84" height="82" filterUnits="userSpaceOnUse" color-interpolation-filters="sRGB">
<feFlood flood-opacity="0" result="BackgroundImageFix"/>
<feBlend mode="normal" in="SourceGraphic" in2="BackgroundImageFix" result="shape"/>
<feColorMatrix in="SourceAlpha" type="matrix" values="0 0 0 0 0 0 0 0 0 0 0 0 0 0 0 0 0 0 127 0" result="hardAlpha"/>
<feOffset dx="4" dy="2"/>
<feGaussianBlur stdDeviation="8"/>
<feComposite in2="hardAlpha" operator="arithmetic" k2="-1" k3="1"/>
<feColorMatrix type="matrix" values="0 0 0 0 0.0627451 0 0 0 0 0.258824 0 0 0 0 0.0627451 0 0 0 0.5 0"/>
<feBlend mode="normal" in2="shape" result="effect1_innerShadow_843_32026"/>
</filter>
<filter id="filter1_d_843_32026" x="83" y="114.5" width="28" height="18" filterUnits="userSpaceOnUse" color-interpolation-filters="sRGB">
<feFlood flood-opacity="0" result="BackgroundImageFix"/>
<feColorMatrix in="SourceAlpha" type="matrix" values="0 0 0 0 0 0 0 0 0 0 0 0 0 0 0 0 0 0 127 0" result="hardAlpha"/>
<feOffset dy="4"/>
<feGaussianBlur stdDeviation="2"/>
<feComposite in2="hardAlpha" operator="out"/>
<feColorMatrix type="matrix" values="0 0 0 0 0.439216 0 0 0 0 0.878431 0 0 0 0 0 0 0 0 0.24 0"/>
<feBlend mode="normal" in2="BackgroundImageFix" result="effect1_dropShadow_843_32026"/>
<feBlend mode="normal" in="SourceGraphic" in2="effect1_dropShadow_843_32026" result="shape"/>
</filter>
<filter id="filter2_di_843_32026" x="70.5" y="75" width="52.9119" height="45.7173" filterUnits="userSpaceOnUse" color-interpolation-filters="sRGB">
<feFlood flood-opacity="0" result="BackgroundImageFix"/>
<feColorMatrix in="SourceAlpha" type="matrix" values="0 0 0 0 0 0 0 0 0 0 0 0 0 0 0 0 0 0 127 0" result="hardAlpha"/>
<feOffset dy="2"/>
<feGaussianBlur stdDeviation="2"/>
<feComposite in2="hardAlpha" operator="out"/>
<feColorMatrix type="matrix" values="0 0 0 0 0.0627451 0 0 0 0 0.258824 0 0 0 0 0.0627451 0 0 0 0.4 0"/>
<feBlend mode="normal" in2="BackgroundImageFix" result="effect1_dropShadow_843_32026"/>
<feBlend mode="normal" in="SourceGraphic" in2="effect1_dropShadow_843_32026" result="shape"/>
<feColorMatrix in="SourceAlpha" type="matrix" values="0 0 0 0 0 0 0 0 0 0 0 0 0 0 0 0 0 0 127 0" result="hardAlpha"/>
<feOffset dx="2" dy="-1"/>
<feGaussianBlur stdDeviation="4"/>
<feComposite in2="hardAlpha" operator="arithmetic" k2="-1" k3="1"/>
<feColorMatrix type="matrix" values="0 0 0 0 0.0627451 0 0 0 0 0.258824 0 0 0 0 0.0627451 0 0 0 0.54 0"/>
<feBlend mode="normal" in2="shape" result="effect2_innerShadow_843_32026"/>
</filter>
<filter id="filter3_f_843_32026" x="94.5" y="75.5" width="21.492" height="28.8779" filterUnits="userSpaceOnUse" color-interpolation-filters="sRGB">
<feFlood flood-opacity="0" result="BackgroundImageFix"/>
<feBlend mode="normal" in="SourceGraphic" in2="BackgroundImageFix" result="shape"/>
<feGaussianBlur stdDeviation="2" result="effect1_foregroundBlur_843_32026"/>
</filter>
<radialGradient id="paint0_radial_843_32026" cx="0" cy="0" r="1" gradientUnits="userSpaceOnUse" gradientTransform="translate(97 102) rotate(90) scale(46)">
<stop offset="0.692708" stop-color="#BDFFBD"/>
<stop offset="1" stop-color="#196719"/>
</radialGradient>
<radialGradient id="paint1_radial_843_32026" cx="0" cy="0" r="1" gradientUnits="userSpaceOnUse" gradientTransform="translate(97 102) rotate(90) scale(40)">
<stop stop-color="#75EB00"/>
<stop offset="1" stop-color="#196719"/>
</radialGradient>
</defs>
</svg>
