<svg width="24" height="24" viewBox="0 0 24 24" fill="none" xmlns="http://www.w3.org/2000/svg">
<path d="M12 10.02C11.8661 10.02 11.75 9.90386 11.75 9.77V6.44C11.75 6.30614 11.8661 6.19 12 6.19C12.1339 6.19 12.25 6.30614 12.25 6.44V9.77C12.25 9.90953 12.1382 10.02 12 10.02Z" fill="#141414" stroke="#141414"/>
<path d="M4.94289 13.17L4.9429 13.17C5.31377 12.5607 5.61 11.4811 5.61 10.76V8.66C5.61 5.12386 8.48386 2.25 12.02 2.25C15.557 2.25 18.4292 5.12437 18.44 8.66847L18.44 8.67L18.44 10.77C18.44 11.4911 18.7362 12.5707 19.1071 13.18L19.1089 13.183L20.3789 15.303L20.3807 15.306C20.6819 15.8167 20.7545 16.4332 20.5391 17.0031C20.3358 17.5676 19.8896 17.9978 19.3163 18.1849L4.94289 13.17ZM4.94289 13.17L4.94055 13.1739M4.94289 13.17L4.94055 13.1739M4.94055 13.1739L3.67214 15.3013M4.94055 13.1739L3.67214 15.3013M3.67214 15.3013C3.67187 15.3017 3.6716 15.3022 3.67132 15.3026L3.67214 15.3013ZM4.5787 18.6458L4.57655 18.6451C3.799 18.3888 3.2326 17.8425 2.98957 17.1782C2.74549 16.5111 2.82017 15.728 3.23893 15.0269C3.23893 15.0269 3.23894 15.0269 3.23894 15.0269C3.23903 15.0268 3.23912 15.0266 3.23921 15.0265L4.50893 12.9069L4.50956 12.9059C4.67995 12.6199 4.82705 12.2371 4.93141 11.8651C5.03563 11.4936 5.11 11.0876 5.11 10.75V8.65C5.11 4.83614 8.20615 1.74 12.02 1.74C15.8339 1.74 18.93 4.83614 18.93 8.65V10.75C18.93 11.0829 19.0045 11.4891 19.1085 11.8609C19.2126 12.2333 19.3596 12.6192 19.5305 12.9059L19.5311 12.9069L20.8011 15.0269L20.8017 15.0281C21.1919 15.6755 21.2597 16.4473 21.0003 17.1587C20.7438 17.862 20.1805 18.4033 19.4602 18.6462L19.4596 18.6464C17.064 19.458 14.5485 19.85 12.02 19.85C9.49286 19.85 6.97652 19.4484 4.5787 18.6458Z" fill="#141414" stroke="#141414"/>
<path d="M12 22.4C11.0645 22.4 10.1411 22.014 9.47355 21.3464C8.92552 20.7984 8.56726 20.078 8.45653 19.32H8.96199C9.06843 19.9514 9.37295 20.5401 9.82644 20.9936C10.398 21.5651 11.1842 21.9 12 21.9C13.526 21.9 14.7992 20.7799 15.0393 19.32H15.5452C15.3012 21.0581 13.8042 22.4 12 22.4Z" fill="#141414" stroke="#141414"/>
</svg>
