<svg width="24" height="24" viewBox="0 0 24 24" fill="none" xmlns="http://www.w3.org/2000/svg">
<path d="M3.86001 17.5991L3.86004 17.599L3.85803 17.5937C3.6277 16.9821 3.69864 16.2919 4.08786 15.6488L4.08846 15.6478L5.23846 13.7378L5.23886 13.7372C5.39162 13.4826 5.52122 13.1343 5.61218 12.8039C5.70321 12.4732 5.77011 12.1075 5.77011 11.8099V8.91992C5.77011 5.47606 8.57626 2.66992 12.0201 2.66992C15.464 2.66992 18.2701 5.47606 18.2701 8.91992V11.8099C18.2701 12.1029 18.3372 12.4686 18.4278 12.8004C18.5185 13.1327 18.6475 13.4844 18.7986 13.7425L18.7986 13.7425L18.8014 13.7472L19.9408 15.6463C19.941 15.6465 19.9411 15.6467 19.9412 15.6469C20.2931 16.2365 20.359 16.9486 20.1207 17.5976C19.8841 18.2424 19.3706 18.7321 18.7238 18.945L18.7207 18.946C16.5737 19.6682 14.2977 20.0299 12.0201 20.0299C9.74347 20.0299 7.46794 19.6685 5.31108 18.9465C4.59587 18.699 4.08181 18.209 3.86001 17.5991ZM4.52176 15.902L4.52176 15.902L4.52035 15.9044C4.24712 16.3639 4.13406 16.9141 4.33162 17.4248C4.5173 17.9411 4.95789 18.2887 5.46854 18.4631L5.47132 18.464C9.75414 19.8985 14.2954 19.8986 18.5782 18.4643C19.0819 18.2964 19.4779 17.9151 19.6604 17.4097C19.8389 16.9154 19.8002 16.367 19.5178 15.901C19.5178 15.9009 19.5178 15.9008 19.5177 15.9008L18.3702 13.9949C18.0351 13.4201 17.7701 12.4391 17.7701 11.7999V8.91992C17.7701 5.74378 15.1963 3.16992 12.0201 3.16992C8.85459 3.16992 6.27011 5.74316 6.27011 8.91992V11.8099C6.27011 12.4477 5.99581 13.4388 5.67028 13.9945L4.52176 15.902Z" fill="#141414" stroke="#141414"/>
<path d="M13.8075 3.42893L13.8075 3.42891L13.8031 3.42769C13.4954 3.34282 13.1954 3.27835 12.9034 3.23509L12.9034 3.235L12.8943 3.23382C11.9798 3.11548 11.0888 3.17915 10.247 3.4306L10.247 3.4305L10.2371 3.43367C10.1525 3.46086 10.0551 3.43518 9.99088 3.36423C9.92508 3.2915 9.90825 3.19402 9.94316 3.10834L9.94321 3.10836L9.94587 3.10155C10.2812 2.24266 11.0969 1.67969 12.0301 1.67969C12.9642 1.67969 13.7766 2.23292 14.1123 3.09612C14.1499 3.20052 14.1263 3.29869 14.0723 3.36094C14.024 3.41038 13.9514 3.43969 13.8801 3.43969C13.8584 3.43969 13.8346 3.43668 13.8075 3.42893Z" fill="#141414" stroke="#141414"/>
<path d="M12.02 22.3096C11.1634 22.3096 10.3304 21.9628 9.72357 21.356C9.23584 20.8683 8.91611 20.2344 8.80942 19.5596H9.31672C9.41833 20.1012 9.68246 20.6091 10.0765 21.0031C10.59 21.5167 11.2971 21.8096 12.02 21.8096C13.3655 21.8096 14.4886 20.8379 14.7245 19.5596H15.2317C14.991 21.1164 13.6439 22.3096 12.02 22.3096Z" fill="#141414" stroke="#141414"/>
</svg>
