<svg width="32" height="32" viewBox="0 0 32 32" fill="none" xmlns="http://www.w3.org/2000/svg">
<rect width="32" height="32" rx="16" fill="#E0E0E0"/>
<circle cx="21" cy="8" r="4" fill="#EB5757"/>
<path d="M18.8299 24.01C18.4099 25.17 17.2999 26 15.9999 26C15.2099 26 14.4299 25.68 13.8799 25.11C13.5599 24.81 13.3199 24.41 13.1799 24C13.3099 24.02 13.4399 24.03 13.5799 24.05C13.8099 24.08 14.0499 24.11 14.2899 24.13C14.8599 24.18 15.4399 24.21 16.0199 24.21C16.5899 24.21 17.1599 24.18 17.7199 24.13C17.9299 24.11 18.1399 24.1 18.3399 24.07C18.4999 24.05 18.6599 24.03 18.8299 24.01Z" fill="#141414"/>
<path fill-rule="evenodd" clip-rule="evenodd" d="M16.4041 6.02746C16.2688 6.00931 16.1305 6 15.9899 6C14.8999 6 13.9199 6.59 13.3999 7.52C11.4499 8.49 10.0999 10.5 10.0999 12.82V15.35C10.0999 15.76 9.90994 16.46 9.69994 16.82L8.68994 18.49C8.28994 19.16 8.19994 19.9 8.44994 20.58C8.68994 21.25 9.25994 21.77 9.99994 22.02C11.9399 22.68 13.9799 23 16.0199 23C18.0599 23 20.0999 22.68 22.0399 22.03C22.7399 21.8 23.2799 21.27 23.5399 20.58C23.7999 19.89 23.7299 19.13 23.3399 18.49L22.3399 16.83C22.1299 16.46 21.9399 15.76 21.9399 15.35V12.9118C21.6355 12.9697 21.3213 13 21 13C18.2386 13 16 10.7614 16 8C16 7.29951 16.1441 6.63266 16.4041 6.02746Z" fill="#141414"/>
<circle cx="21" cy="8" r="4" fill="#EB5757"/>
</svg>
