<svg width="32" height="32" viewBox="0 0 32 32" fill="none" xmlns="http://www.w3.org/2000/svg">
<rect width="32" height="32" rx="16" fill="#C2C2C2"/>
<path d="M24.1902 18.0598L23.0602 16.1798C22.8102 15.7698 22.5902 14.9798 22.5902 14.4998V12.6298C22.5902 8.9998 19.6402 6.0498 16.0202 6.0498C12.3902 6.0598 9.4402 8.9998 9.4402 12.6298V14.4898C9.4402 14.9698 9.2202 15.7598 8.9802 16.1698L7.8502 18.0498C7.4202 18.7798 7.3202 19.6098 7.5902 20.3298C7.8602 21.0598 8.4702 21.6398 9.2702 21.8998C10.3502 22.2598 11.4402 22.5198 12.5502 22.7098C12.6602 22.7298 12.7702 22.7398 12.8802 22.7598C13.0202 22.7798 13.1702 22.7998 13.3202 22.8198C13.5802 22.8598 13.8402 22.8898 14.1102 22.9098C14.7402 22.9698 15.3802 22.9998 16.0202 22.9998C16.6502 22.9998 17.2802 22.9698 17.9002 22.9098C18.1302 22.8898 18.3602 22.8698 18.5802 22.8398C18.7602 22.8198 18.9402 22.7998 19.1202 22.7698C19.2302 22.7598 19.3402 22.7398 19.4502 22.7198C20.5702 22.5398 21.6802 22.2598 22.7602 21.8998C23.5302 21.6398 24.1202 21.0598 24.4002 20.3198C24.6802 19.5698 24.6002 18.7498 24.1902 18.0598ZM16.7502 13.9998C16.7502 14.4198 16.4102 14.7598 15.9902 14.7598C15.5702 14.7598 15.2302 14.4198 15.2302 13.9998V10.8998C15.2302 10.4798 15.5702 10.1398 15.9902 10.1398C16.4102 10.1398 16.7502 10.4798 16.7502 10.8998V13.9998Z" fill="#196719"/>
<path d="M18.8297 24.01C18.4097 25.17 17.2997 26 15.9997 26C15.2097 26 14.4297 25.68 13.8797 25.11C13.5597 24.81 13.3197 24.41 13.1797 24C13.3097 24.02 13.4397 24.03 13.5797 24.05C13.8097 24.08 14.0497 24.11 14.2897 24.13C14.8597 24.18 15.4397 24.21 16.0197 24.21C16.5897 24.21 17.1597 24.18 17.7197 24.13C17.9297 24.11 18.1397 24.1 18.3397 24.07C18.4997 24.05 18.6597 24.03 18.8297 24.01Z" fill="#196719"/>
</svg>
