<svg width="93" height="80" viewBox="0 0 93 80" fill="none" xmlns="http://www.w3.org/2000/svg">
<path d="M85.9562 4.73047H12.5463C9.08055 4.73047 6.271 7.54002 6.271 11.0058V57.2357C6.271 60.7015 9.08055 63.511 12.5463 63.511H85.9562C89.4219 63.511 92.2315 60.7015 92.2315 57.2357V11.0058C92.2315 7.54002 89.4219 4.73047 85.9562 4.73047Z" fill="#196719"/>
<path d="M4.26498 4.0516C4.11799 4.05098 3.97713 3.99262 3.87277 3.88911L2.86424 2.88618C2.75874 2.78068 2.69946 2.63758 2.69946 2.48838C2.69946 2.33917 2.75874 2.19607 2.86424 2.09056C2.96975 1.98506 3.11284 1.92578 3.26205 1.92578C3.41126 1.92578 3.55436 1.98506 3.65986 2.09056L4.66279 3.0991C4.76714 3.20407 4.82572 3.34608 4.82572 3.4941C4.82572 3.64213 4.76714 3.78414 4.66279 3.88911C4.61043 3.94104 4.54834 3.98212 4.48008 4.01C4.41181 4.03789 4.33872 4.05202 4.26498 4.0516Z" fill="#196719"/>
<path d="M2.74664 7.57176H1.32909C1.18049 7.57176 1.03798 7.51273 0.932905 7.40766C0.827829 7.30258 0.768799 7.16007 0.768799 7.01147C0.768799 6.86287 0.827829 6.72035 0.932905 6.61528C1.03798 6.5102 1.18049 6.45117 1.32909 6.45117H2.74664C2.89524 6.45117 3.03775 6.5102 3.14283 6.61528C3.2479 6.72035 3.30693 6.86287 3.30693 7.01147C3.30693 7.16007 3.2479 7.30258 3.14283 7.40766C3.03775 7.51273 2.89524 7.57176 2.74664 7.57176Z" fill="#196719"/>
<path d="M7.83425 2.53923C7.6922 2.53957 7.55532 2.48595 7.4513 2.38922C7.34728 2.29248 7.2839 2.15985 7.27395 2.01815L7.1731 0.600601C7.16776 0.526984 7.17703 0.453045 7.20036 0.383018C7.22369 0.312992 7.26062 0.248263 7.30904 0.192554C7.35746 0.136846 7.41641 0.0912546 7.48251 0.0583968C7.5486 0.0255391 7.62053 0.00606372 7.69417 0.00109004C7.84193 -0.00813568 7.98733 0.041486 8.09861 0.13912C8.2099 0.236755 8.27801 0.374462 8.28809 0.52216L8.39454 1.93971C8.39988 2.01332 8.39062 2.08727 8.36729 2.1573C8.34396 2.22732 8.30702 2.29205 8.2586 2.34776C8.21018 2.40347 8.15123 2.44906 8.08514 2.48192C8.01905 2.51478 7.94711 2.53425 7.87346 2.53923H7.83425Z" fill="#196719"/>
<path d="M55.5209 57.4648L78.0615 79.9999V57.4648H55.5209Z" fill="#196719"/>
<path d="M61.7009 47.5934L60.5803 42.8365C60.2974 41.5861 60.2974 40.2882 60.5803 39.0377L62.1379 32.2638C62.7752 29.3751 62.4301 26.3564 61.1574 23.686C59.8847 21.0157 57.7571 18.8466 55.1118 17.5224C55.1615 17.3978 55.2045 17.2706 55.2407 17.1414C55.3327 16.7305 55.3428 16.3054 55.2705 15.8906C55.1982 15.4757 55.0449 15.0792 54.8194 14.7236C54.5939 14.368 54.3005 14.0602 53.956 13.818C53.6116 13.5758 53.2228 13.4038 52.8118 13.3118C52.4009 13.2198 51.9759 13.2097 51.561 13.282C51.1461 13.3543 50.7496 13.5076 50.394 13.7331C50.0384 13.9586 49.7307 14.252 49.4884 14.5965C49.2462 14.9409 49.0742 15.3297 48.9822 15.7407C48.9544 15.8717 48.9375 16.0047 48.9318 16.1385C45.9748 16.2079 43.1254 17.2617 40.8349 19.1331C38.5443 21.0045 36.9435 23.5865 36.2859 26.4703L34.7675 33.2499C34.4886 34.4981 33.9334 35.668 33.1427 36.6733L30.1227 40.5113C29.8273 40.8878 29.632 41.3329 29.555 41.8052C29.478 42.2775 29.5218 42.7616 29.6823 43.2124C29.8429 43.6632 30.1149 44.066 30.473 44.3834C30.8312 44.7007 31.2639 44.9222 31.7307 45.0273L58.3447 50.9888C58.81 51.0894 59.2931 51.0709 59.7493 50.9352C60.2055 50.7994 60.6201 50.5508 60.9547 50.2123C61.2893 49.8738 61.5331 49.4563 61.6636 48.9985C61.794 48.5408 61.8068 48.0575 61.7009 47.5934Z" fill="#BDFFBD"/>
<path d="M41.6032 49.0608C41.4008 49.0162 41.1904 49.0222 40.9909 49.0782C40.7913 49.1342 40.6086 49.2386 40.459 49.3822C40.3094 49.5257 40.1975 49.7038 40.1332 49.9009C40.0689 50.098 40.0542 50.3079 40.0904 50.512C40.2432 51.4123 40.6606 52.2467 41.2892 52.9091C41.9179 53.5714 42.7295 54.0316 43.6206 54.2311C44.5117 54.4306 45.4421 54.3603 46.2931 54.0293C47.1442 53.6982 47.8775 53.1214 48.3996 52.3722C48.5189 52.2033 48.5948 52.0077 48.6206 51.8026C48.6465 51.5975 48.6215 51.3892 48.5479 51.196C48.4743 51.0028 48.3543 50.8307 48.1985 50.6948C48.0426 50.5589 47.8558 50.4634 47.6544 50.4168L41.6032 49.0608Z" fill="#BDFFBD"/>
<path d="M21.1634 39.6308C21.0246 39.6318 20.8877 39.598 20.7654 39.5324C20.643 39.4668 20.5391 39.3716 20.4631 39.2554C17.8168 35.2907 16.8537 30.4371 17.7857 25.7624C18.7177 21.0877 21.4685 16.9746 25.4329 14.3278C25.6186 14.2045 25.8458 14.16 26.0643 14.2041C26.2829 14.2483 26.475 14.3774 26.5983 14.5632C26.7216 14.7489 26.7661 14.976 26.722 15.1946C26.6779 15.4132 26.5487 15.6052 26.363 15.7286C22.7741 18.1323 20.2861 21.8624 19.4457 26.0994C18.6052 30.3363 19.481 34.7336 21.8806 38.3253C22.0046 38.5103 22.05 38.737 22.0069 38.9555C21.9638 39.174 21.8358 39.3665 21.6509 39.4907C21.5064 39.5858 21.3364 39.6347 21.1634 39.6308Z" fill="#2B892B"/>
<path d="M24.7214 37.244C24.5837 37.2431 24.4484 37.2084 24.3272 37.1429C24.2061 37.0775 24.1029 36.9833 24.0267 36.8686C22.0125 33.8483 21.2794 30.1521 21.9886 26.5918C22.6977 23.0315 24.791 19.8982 27.8087 17.8802C27.9006 17.8187 28.0038 17.776 28.1123 17.7544C28.2208 17.7329 28.3325 17.7329 28.4409 17.7545C28.5494 17.7761 28.6526 17.8188 28.7445 17.8803C28.8365 17.9417 28.9155 18.0207 28.9769 18.1127C29.0383 18.2047 29.081 18.3078 29.1026 18.4163C29.1242 18.5248 29.1242 18.6365 29.1026 18.745C29.081 18.8534 29.0382 18.9566 28.9768 19.0486C28.9153 19.1405 28.8363 19.2195 28.7444 19.2809C26.0956 21.0485 24.2576 23.796 23.6345 26.9188C23.0114 30.0416 23.6543 33.2841 25.4218 35.9329C25.5458 36.1179 25.5912 36.3446 25.5481 36.5631C25.505 36.7816 25.377 36.9741 25.1921 37.0983C25.0527 37.1916 24.8892 37.2422 24.7214 37.244Z" fill="#2B892B"/>
<path d="M28.2848 34.862C28.1475 34.8627 28.0121 34.8293 27.8908 34.7648C27.7695 34.7002 27.6662 34.6066 27.5901 34.4922C26.9036 33.4643 26.4266 32.3111 26.1862 31.0986C25.9459 29.8861 25.9471 28.6382 26.1896 27.4261C26.4321 26.2141 26.9112 25.0618 27.5995 24.0351C28.2879 23.0084 29.1719 22.1276 30.201 21.4429C30.3861 21.328 30.6085 21.2894 30.8214 21.3352C31.0343 21.3811 31.2212 21.5078 31.3425 21.6887C31.4638 21.8696 31.5102 22.0905 31.4718 22.3049C31.4334 22.5193 31.3133 22.7105 31.1367 22.8381C30.2926 23.4015 29.5678 24.1258 29.0037 24.9695C28.4395 25.8131 28.0472 26.7597 27.8489 27.755C27.6507 28.7504 27.6505 29.7751 27.8483 30.7705C28.0462 31.7659 28.4382 32.7126 29.002 33.5565C29.1245 33.742 29.1691 33.9682 29.1261 34.1863C29.0831 34.4044 28.956 34.5968 28.7723 34.7219C28.6278 34.817 28.4578 34.8659 28.2848 34.862Z" fill="#2B892B"/>
<path d="M69.6178 51.4474C69.4299 51.4469 69.2476 51.3835 69.0999 51.2672C68.9523 51.151 68.8479 50.9886 68.8033 50.806C68.7588 50.6234 68.7768 50.4312 68.8543 50.26C68.9319 50.0889 69.0646 49.9486 69.2312 49.8617C73.07 47.8783 75.9641 44.4518 77.2774 40.3354C78.5907 36.2189 78.2158 31.7495 76.2349 27.9094C76.1747 27.8108 76.1355 27.7009 76.1196 27.5864C76.1038 27.472 76.1117 27.3556 76.1429 27.2443C76.1741 27.1331 76.2279 27.0295 76.3009 26.94C76.374 26.8505 76.4647 26.777 76.5673 26.7241C76.67 26.6712 76.7825 26.6401 76.8978 26.6326C77.0131 26.6251 77.1287 26.6415 77.2373 26.6807C77.346 26.7199 77.4454 26.7811 77.5293 26.8604C77.6133 26.9397 77.68 27.0355 77.7253 27.1418C78.8073 29.2402 79.4654 31.5312 79.6618 33.8839C79.8582 36.2367 79.5892 38.6051 78.8702 40.8538C78.1511 43.1026 76.9961 45.1877 75.471 46.99C73.946 48.7922 72.0808 50.2764 69.982 51.3577C69.8684 51.4133 69.7443 51.4438 69.6178 51.4474Z" fill="#2B892B"/>
<path d="M67.6512 47.644C67.4632 47.6435 67.2809 47.5801 67.1332 47.4639C66.9856 47.3476 66.8812 47.1852 66.8367 47.0026C66.7922 46.8201 66.8101 46.6278 66.8877 46.4567C66.9652 46.2855 67.0979 46.1453 67.2646 46.0584C68.6666 45.3355 69.9125 44.3434 70.9308 43.1387C71.9491 41.934 72.7199 40.5403 73.1992 39.0375C73.6785 37.5346 73.8568 35.952 73.7239 34.3802C73.591 32.8083 73.1496 31.2781 72.4249 29.877C72.3223 29.6787 72.3028 29.4477 72.3706 29.2349C72.4384 29.0221 72.5879 28.845 72.7863 28.7424C72.9847 28.6399 73.2156 28.6204 73.4284 28.6882C73.6412 28.7559 73.8183 28.9055 73.9209 29.1038C74.7467 30.701 75.2496 32.4453 75.4008 34.237C75.5521 36.0287 75.3487 37.8326 74.8023 39.5457C74.256 41.2587 73.3773 42.8472 72.2166 44.2205C71.0559 45.5937 69.6359 46.7247 68.0378 47.5487C67.9189 47.6123 67.786 47.645 67.6512 47.644Z" fill="#2B892B"/>
<path d="M65.6845 43.8398C65.4973 43.8367 65.3163 43.7716 65.1701 43.6547C65.0238 43.5377 64.9204 43.3755 64.8762 43.1936C64.832 43.0116 64.8494 42.8201 64.9257 42.649C65.0021 42.478 65.133 42.3371 65.298 42.2485C66.2 41.7843 67.0017 41.1467 67.6571 40.3723C68.3124 39.5978 68.8086 38.7018 69.1173 37.7353C69.4259 36.7689 69.5408 35.751 69.4556 34.7401C69.3704 33.7292 69.0866 32.745 68.6205 31.8438C68.518 31.6455 68.4984 31.4145 68.5662 31.2017C68.634 30.9889 68.7835 30.8118 68.9819 30.7092C69.1803 30.6067 69.4113 30.5872 69.624 30.6549C69.8368 30.7227 70.0139 30.8723 70.1165 31.0706C71.2568 33.2897 71.4701 35.8705 70.7096 38.2466C69.949 40.6227 68.2768 42.6 66.0599 43.7445C65.9437 43.8045 65.8153 43.8371 65.6845 43.8398Z" fill="#2B892B"/>
</svg>
