<svg width="26" height="26" viewBox="0 0 26 26" fill="none" xmlns="http://www.w3.org/2000/svg">
<circle cx="23" cy="3" r="3" fill="#FAFAFA"/>
<circle cx="3" cy="3" r="3" fill="#FAFAFA"/>
<circle cx="23" cy="23" r="3" fill="#FAFAFA"/>
<circle cx="3" cy="23" r="3" fill="#FAFAFA"/>
<path d="M12.0195 4.55154C12.6283 4.20908 13.3717 4.20908 13.9805 4.55154L19.9805 7.92654C20.6103 8.28078 21 8.94715 21 9.66969V16.3303C21 17.0529 20.6103 17.7192 19.9805 18.0735L13.9805 21.4485C13.3717 21.7909 12.6283 21.7909 12.0195 21.4485L6.01948 18.0735C5.38972 17.7192 5 17.0529 5 16.3303V9.66969C5 8.94715 5.38972 8.28078 6.01948 7.92654L12.0195 4.55154Z" fill="#FAFAFA"/>
</svg>
