<svg width="13" height="13" viewBox="0 0 13 13" fill="none" xmlns="http://www.w3.org/2000/svg">
<path d="M9.78835 5.59027C9.68543 5.59027 9.58251 5.55236 9.50126 5.47111L6.50043 2.47027L3.4996 5.47111C3.34251 5.62819 3.08251 5.62819 2.92543 5.47111C2.76835 5.31402 2.76835 5.05402 2.92543 4.89694L6.21335 1.60902C6.37043 1.45194 6.63043 1.45194 6.78751 1.60902L10.0754 4.89694C10.2325 5.05402 10.2325 5.31402 10.0754 5.47111C9.9996 5.55236 9.89126 5.59027 9.78835 5.59027Z" fill="#27AE60"/>
<path d="M6.5 11.5108C6.27792 11.5108 6.09375 11.3266 6.09375 11.1045V1.98828C6.09375 1.7662 6.27792 1.58203 6.5 1.58203C6.72208 1.58203 6.90625 1.7662 6.90625 1.98828V11.1045C6.90625 11.3266 6.72208 11.5108 6.5 11.5108Z" fill="#27AE60"/>
</svg>
