<svg width="14" height="13" viewBox="0 0 14 13" fill="none" xmlns="http://www.w3.org/2000/svg">
<path d="M7.00043 11.5102C6.89751 11.5102 6.7946 11.4723 6.71335 11.391L3.42543 8.10311C3.26835 7.94603 3.26835 7.68603 3.42543 7.52895C3.58251 7.37186 3.84251 7.37186 3.9996 7.52895L7.00043 10.5298L10.0013 7.52895C10.1583 7.37186 10.4183 7.37186 10.5754 7.52895C10.7325 7.68603 10.7325 7.94603 10.5754 8.10311L7.28751 11.391C7.20626 11.4723 7.10335 11.5102 7.00043 11.5102Z" fill="#EB5757"/>
<path d="M7 11.418C6.77792 11.418 6.59375 11.2338 6.59375 11.0118V1.89551C6.59375 1.67342 6.77792 1.48926 7 1.48926C7.22208 1.48926 7.40625 1.67342 7.40625 1.89551V11.0118C7.40625 11.2338 7.22208 11.418 7 11.418Z" fill="#EB5757"/>
</svg>
