<svg width="28" height="28" viewBox="0 0 28 28" fill="none" xmlns="http://www.w3.org/2000/svg">
<rect width="28" height="28" rx="8" fill="#D8FFD8"/>
<path d="M14.0003 5.66699C9.40866 5.66699 5.66699 9.40866 5.66699 14.0003C5.66699 18.592 9.40866 22.3337 14.0003 22.3337C18.592 22.3337 22.3337 18.592 22.3337 14.0003C22.3337 9.40866 18.592 5.66699 14.0003 5.66699ZM13.3753 10.667C13.3753 10.3253 13.6587 10.042 14.0003 10.042C14.342 10.042 14.6253 10.3253 14.6253 10.667V14.8337C14.6253 15.1753 14.342 15.4587 14.0003 15.4587C13.6587 15.4587 13.3753 15.1753 13.3753 14.8337V10.667ZM14.767 17.6503C14.7253 17.7587 14.667 17.842 14.592 17.9253C14.5087 18.0003 14.417 18.0587 14.317 18.1003C14.217 18.142 14.1087 18.167 14.0003 18.167C13.892 18.167 13.7837 18.142 13.6837 18.1003C13.5837 18.0587 13.492 18.0003 13.4087 17.9253C13.3337 17.842 13.2753 17.7587 13.2337 17.6503C13.192 17.5503 13.167 17.442 13.167 17.3337C13.167 17.2253 13.192 17.117 13.2337 17.017C13.2753 16.917 13.3337 16.8253 13.4087 16.742C13.492 16.667 13.5837 16.6087 13.6837 16.567C13.8837 16.4837 14.117 16.4837 14.317 16.567C14.417 16.6087 14.5087 16.667 14.592 16.742C14.667 16.8253 14.7253 16.917 14.767 17.017C14.8087 17.117 14.8337 17.2253 14.8337 17.3337C14.8337 17.442 14.8087 17.5503 14.767 17.6503Z" fill="#196719"/>
</svg>
