<svg width="56" height="58" viewBox="0 0 56 58" fill="none" xmlns="http://www.w3.org/2000/svg">
<rect y="0.941406" width="55.71" height="56.1151" rx="8" fill="#BDFFBD"/>
<g clip-path="url(#clip0_914_36557)">
<path fill-rule="evenodd" clip-rule="evenodd" d="M47.6593 31.8067C47.7883 30.889 47.855 29.9513 47.855 28.998C47.855 17.9524 38.9007 8.99805 27.855 8.99805C18.1638 8.99805 10.0825 15.8909 8.24628 25.0415L8.62448 24.7677L11.9937 22.3281C14.5989 16.1402 20.7196 11.7958 27.855 11.7958C37.3555 11.7958 45.0572 19.4975 45.0572 28.998C45.0572 29.2798 45.0504 29.5599 45.037 29.8384L47.4384 31.6409L47.6593 31.8067ZM47.3966 33.2751C45.4379 42.2657 37.4327 48.998 27.855 48.998C16.8093 48.998 7.85498 40.0437 7.85498 28.998C7.85498 27.9766 7.93155 26.9731 8.07927 25.9928L8.62448 26.3876L10.6884 27.882C10.6648 28.251 10.6528 28.6231 10.6528 28.998C10.6528 38.4986 18.3545 46.2002 27.855 46.2002C34.6261 46.2002 40.4835 42.2881 43.2902 36.6009L47.3966 33.2751ZM44.5965 32.9692L45.2122 32.4706L44.771 32.1394C44.7195 32.4185 44.6613 32.6951 44.5965 32.9692ZM10.9831 25.6262C10.9907 25.5882 10.9983 25.5503 11.0061 25.5124L10.9161 25.5776L10.9831 25.6262Z" fill="#196719"/>
<path d="M29.5499 22.558H20.2279V18.4902L9.88892 25.7784L20.2279 33.0665V28.8292H37.3465V25.7784L46.1601 32.219L37.3465 39.1682V35.4394H28.194" stroke="#196719" stroke-width="2"/>
</g>
<defs>
<clipPath id="clip0_914_36557">
<rect width="40" height="40" fill="white" transform="translate(7.85498 8.99805)"/>
</clipPath>
</defs>
</svg>
