<svg width="16" height="16" viewBox="0 0 16 16" fill="none" xmlns="http://www.w3.org/2000/svg">
<path d="M12.8983 4.35282C12.8983 5.65231 11.8448 6.70576 10.5453 6.70576C9.24583 6.70576 8.19238 5.65231 8.19238 4.35282C8.19238 3.05333 9.24583 1.99988 10.5453 1.99988C11.8448 1.99988 12.8983 3.05333 12.8983 4.35282Z" fill="#196719"/>
<path d="M7.40803 4.35282C7.40803 5.65231 6.35458 6.70576 5.05509 6.70576C3.7556 6.70576 2.70215 5.65231 2.70215 4.35282C2.70215 3.05333 3.7556 1.99988 5.05509 1.99988C6.35458 1.99988 7.40803 3.05333 7.40803 4.35282ZM3.87862 4.35282C3.87862 5.00257 4.40534 5.52929 5.05509 5.52929C5.70484 5.52929 6.23156 5.00257 6.23156 4.35282C6.23156 3.70307 5.70484 3.17635 5.05509 3.17635C4.40534 3.17635 3.87862 3.70307 3.87862 4.35282Z" fill="#196719"/>
<path fill-rule="evenodd" clip-rule="evenodd" d="M4.2708 7.60779C2.53814 7.60779 1.13354 9.01239 1.13354 10.745V13.8823C1.13354 14.3155 1.48469 14.6666 1.91786 14.6666H13.6826C14.1157 14.6666 14.4669 14.3155 14.4669 13.8823V10.745C14.4669 9.01239 13.0623 7.60779 11.3296 7.60779H4.2708ZM3.846 9.17635C3.26845 9.17635 2.80025 9.64455 2.80025 10.2221V12.8365C2.80025 12.9809 2.9173 13.0979 3.06169 13.0979H5.87215C6.01654 13.0979 6.13359 12.9809 6.13359 12.8365V10.2221C6.13359 9.64455 5.66539 9.17635 5.08783 9.17635H3.846Z" fill="#196719"/>
</svg>
