<svg width="25" height="16" viewBox="0 0 25 16" fill="none" xmlns="http://www.w3.org/2000/svg">
<path d="M2.56971 0C1.64764 0 0.900146 0.818679 0.900146 1.82857V3.1593C2.39993 3.04217 3.58344 1.67246 3.58344 0H2.56971Z" fill="#474747"/>
<path d="M12.9001 9.47857C12.1546 9.47857 11.5501 8.81659 11.5501 8C11.5501 7.18341 12.1546 6.52143 12.9001 6.52143C13.6457 6.52143 14.2501 7.18341 14.2501 8C14.2501 8.81659 13.6457 9.47857 12.9001 9.47857Z" fill="#474747"/>
<path fill-rule="evenodd" clip-rule="evenodd" d="M0.900146 10.6331V5.7098C3.68488 5.58982 5.90884 3.07936 5.90884 0H20.1001C20.1001 3.00204 22.2138 5.46338 24.9001 5.69627L24.9001 10.6466C22.3168 10.8705 20.2631 13.1553 20.1094 16L5.8996 16C5.74178 13.0791 3.58078 10.7486 0.900146 10.6331ZM12.9001 11.7714C14.8019 11.7714 16.3436 10.0829 16.3436 8C16.3436 5.9171 14.8019 4.22857 12.9001 4.22857C10.9984 4.22857 9.45666 5.9171 9.45666 8C9.45666 10.0829 10.9984 11.7714 12.9001 11.7714Z" fill="#474747"/>
<path d="M22.4255 0C22.4255 1.59408 23.5007 2.91311 24.9001 3.13468V1.82857C24.9001 0.818679 24.1526 0 23.2306 0H22.4255Z" fill="#474747"/>
<path d="M23.2306 16L22.4423 16C22.5835 14.5629 23.6024 13.4136 24.9001 13.2082L24.9001 14.1714C24.9001 15.1813 24.1526 16 23.2306 16Z" fill="#474747"/>
<path d="M3.5667 16C3.41797 14.4867 2.29605 13.2926 0.900146 13.1836V14.1714C0.900146 15.1813 1.64764 16 2.56971 16H3.5667Z" fill="#474747"/>
</svg>
