<svg width="332" height="222" viewBox="0 0 332 222" fill="none" xmlns="http://www.w3.org/2000/svg">
<g filter="url(#filter0_d_712_30216)">
<rect x="16" y="12" width="300" height="190" rx="16" fill="white"/>
<rect x="16" y="12" width="300" height="40" fill="#196719"/>
<g clip-path="url(#clip0_712_30216)">
<rect x="36" y="72" width="100" height="112" rx="8" fill="#E0E0E0"/>
<rect x="36" y="72" width="100" height="112" fill="#E0E0E0"/>
<path d="M86 140C99.8071 140 111 128.807 111 115C111 101.193 99.8071 90 86 90C72.1929 90 61 101.193 61 115C61 128.807 72.1929 140 86 140Z" fill="#196719"/>
<path d="M86 152.5C60.95 152.5 40.55 169.3 40.55 190C40.55 191.4 41.65 192.5 43.05 192.5H128.95C130.35 192.5 131.45 191.4 131.45 190C131.45 169.3 111.05 152.5 86 152.5Z" fill="#196719"/>
</g>
<rect x="152" y="72" width="144" height="12" rx="2" fill="#E0E0E0"/>
<rect x="152" y="92" width="99" height="12" rx="2" fill="#E0E0E0"/>
<rect x="152" y="112" width="85" height="12" rx="2" fill="#E0E0E0"/>
<rect x="152" y="132" width="55" height="12" rx="2" fill="#E0E0E0"/>
<rect x="152" y="152" width="85" height="12" rx="2" fill="#E0E0E0"/>
<rect x="152" y="172" width="118" height="12" rx="2" fill="#E0E0E0"/>
</g>
<defs>
<filter id="filter0_d_712_30216" x="0" y="0" width="332" height="222" filterUnits="userSpaceOnUse" color-interpolation-filters="sRGB">
<feFlood flood-opacity="0" result="BackgroundImageFix"/>
<feColorMatrix in="SourceAlpha" type="matrix" values="0 0 0 0 0 0 0 0 0 0 0 0 0 0 0 0 0 0 127 0" result="hardAlpha"/>
<feOffset dy="4"/>
<feGaussianBlur stdDeviation="8"/>
<feColorMatrix type="matrix" values="0 0 0 0 0.08 0 0 0 0 0.08 0 0 0 0 0.08 0 0 0 0.08 0"/>
<feBlend mode="normal" in2="BackgroundImageFix" result="effect1_dropShadow_712_30216"/>
<feBlend mode="normal" in="SourceGraphic" in2="effect1_dropShadow_712_30216" result="shape"/>
</filter>
<clipPath id="clip0_712_30216">
<rect x="36" y="72" width="100" height="112" rx="8" fill="white"/>
</clipPath>
</defs>
</svg>
