<svg width="24" height="24" viewBox="0 0 24 24" fill="none" xmlns="http://www.w3.org/2000/svg">
<path d="M11.842 10.6197L11.9004 10.6217L11.9415 10.6135C11.9519 10.613 11.968 10.6125 11.9896 10.6125C12.034 10.6125 12.0887 10.6145 12.1413 10.6185L12.1719 10.6209L12.2026 10.6195C14.4311 10.5171 16.1783 8.6862 16.1896 6.44253V6.44C16.1896 4.13386 14.3058 2.25 11.9996 2.25C9.69347 2.25 7.80962 4.13386 7.80962 6.44C7.80962 8.70956 9.58316 10.5402 11.842 10.6197ZM12.1596 11.12H12.1594H12.1593H12.1591H12.1589H12.1587H12.1586H12.1584H12.1582H12.158H12.1579H12.1577H12.1575H12.1574H12.1572H12.157H12.1568H12.1567H12.1565H12.1563H12.1561H12.156H12.1558H12.1556H12.1555H12.1553H12.1551H12.155H12.1548H12.1546H12.1544H12.1543H12.1541H12.1539H12.1538H12.1536H12.1534H12.1533H12.1531H12.1529H12.1528H12.1526H12.1524H12.1523H12.1521H12.1519H12.1518H12.1516H12.1514H12.1513H12.1511H12.1509H12.1508H12.1506H12.1504H12.1503H12.1501H12.1499H12.1498H12.1496H12.1494H12.1493H12.1491H12.149H12.1488H12.1486H12.1485H12.1483H12.1481H12.148H12.1478H12.1477H12.1475H12.1473H12.1472H12.147H12.1469H12.1467H12.1465H12.1464H12.1462H12.146H12.1459H12.1457H12.1456H12.1454H12.1453H12.1451H12.1449H12.1448H12.1446H12.1445H12.1443H12.1441H12.144H12.1438H12.1437H12.1435H12.1433H12.1432H12.143H12.1429H12.1427H12.1426H12.1424H12.1422H12.1421H12.1419H12.1418H12.1416H12.1415H12.1413H12.1412H12.141H12.1408H12.1407H12.1405H12.1404H12.1402H12.1401H12.1399H12.1398H12.1396H12.1394H12.1393H12.1391H12.139H12.1388H12.1387H12.1385H12.1384H12.1382H12.1381H12.1379H12.1378H12.1376H12.1375H12.1373H12.1371H12.137H12.1368H12.1367H12.1365H12.1364H12.1362H12.1361H12.1359H12.1358H12.1356H12.1355H12.1353H12.1352H12.135H12.1349H12.1347H12.1346H12.1344H12.1343H12.1341H12.134H12.1338H12.1337H12.1335H12.1334H12.1332H12.1331H12.1329H12.1328H12.1326H12.1325H12.1323H12.1322H12.132H12.1319H12.1317H12.1316H12.1314H12.1313H12.1311H12.131H12.1308H12.1307H12.1305H12.1304H12.1302H12.1301H12.1299H12.1298H12.1296H12.1295H12.1293H12.1292H12.129H12.1289H12.1287H12.1286H12.1284H12.1283H12.1281H12.128H12.1278H12.1277H12.1275H12.1274H12.1273H12.1271H12.127H12.1268H12.1267H12.1265H12.1264H12.1262H12.1261H12.1259H12.1258H12.1256H12.1255H12.1253H12.1252H12.125H12.1249H12.1247H12.1246H12.1245H12.1243H12.1242H12.124H12.1239H12.1237H12.1236H12.1234H12.1233H12.1231H12.123H12.1228H12.1227H12.1225H12.1224H12.1223H12.1221H12.122H12.1218H12.1217H12.1215H12.1214H12.1212H12.1211H12.1209H12.1208H12.1206H12.1205H12.1203H12.1202H12.1201H12.1199H12.1198H12.1196H12.1195H12.1193H12.1192H12.119H12.1189H12.1187H12.1186H12.1184H12.1183H12.1182H12.118H12.1179H12.1177H12.1176H12.1175C12.0362 11.1098 11.952 11.1106 11.8755 11.1189C9.26225 11.0178 7.30962 8.96409 7.30962 6.44C7.30962 3.85614 9.41576 1.75 11.9996 1.75C14.5832 1.75 16.6891 3.85562 16.6896 6.43903C16.6802 8.97998 14.6952 11.0348 12.1814 11.12H12.1814H12.1813H12.1812H12.1812H12.1811H12.1811H12.181H12.1809H12.1809H12.1808H12.1808H12.1807H12.1807H12.1806H12.1805H12.1805H12.1804H12.1804H12.1803H12.1802H12.1802H12.1801H12.1801H12.18H12.1799H12.1799H12.1798H12.1798H12.1797H12.1797H12.1796H12.1795H12.1795H12.1794H12.1794H12.1793H12.1792H12.1792H12.1791H12.1791H12.179H12.179H12.1789H12.1788H12.1788H12.1787H12.1787H12.1786H12.1785H12.1785H12.1784H12.1784H12.1783H12.1782H12.1782H12.1781H12.1781H12.178H12.178H12.1779H12.1778H12.1778H12.1777H12.1777H12.1776H12.1775H12.1775H12.1774H12.1774H12.1773H12.1773H12.1772H12.1771H12.1771H12.177H12.177H12.1769H12.1768H12.1768H12.1767H12.1767H12.1766H12.1765H12.1765H12.1764H12.1764H12.1763H12.1763H12.1762H12.1761H12.1761H12.176H12.176H12.1759H12.1758H12.1758H12.1757H12.1757H12.1756H12.1756H12.1755H12.1754H12.1754H12.1753H12.1753H12.1752H12.1751H12.1751H12.175H12.175H12.1749H12.1749H12.1748H12.1747H12.1747H12.1746H12.1746H12.1745H12.1744H12.1744H12.1743H12.1743H12.1742H12.1741H12.1741H12.174H12.174H12.1739H12.1739H12.1738H12.1737H12.1737H12.1736H12.1736H12.1735H12.1734H12.1734H12.1733H12.1733H12.1732H12.1732H12.1731H12.173H12.173H12.1729H12.1729H12.1728H12.1727H12.1727H12.1726H12.1726H12.1725H12.1724H12.1724H12.1723H12.1723H12.1722H12.1722H12.1721H12.172H12.172H12.1719H12.1719H12.1718H12.1717H12.1717H12.1716H12.1716H12.1715H12.1715H12.1714H12.1713H12.1713H12.1712H12.1712H12.1711H12.171H12.171H12.1709H12.1709H12.1708H12.1707H12.1707H12.1706H12.1706H12.1705H12.1705H12.1704H12.1703H12.1703H12.1702H12.1702H12.1701H12.17H12.17H12.1699H12.1699H12.1698H12.1698H12.1697H12.1696H12.1696H12.1695H12.1695H12.1694H12.1693H12.1693H12.1692H12.1692H12.1691H12.169H12.169H12.1689H12.1689H12.1688H12.1688H12.1687H12.1686H12.1686H12.1685H12.1685H12.1684H12.1683H12.1683H12.1682H12.1682H12.1681H12.1681H12.168H12.1679H12.1679H12.1678H12.1678H12.1677H12.1676H12.1676H12.1675H12.1675H12.1674H12.1674H12.1673H12.1672H12.1672H12.1671H12.1671H12.167H12.1669H12.1669H12.1668H12.1668H12.1667H12.1666H12.1666H12.1665H12.1665H12.1664H12.1664H12.1663H12.1662H12.1662H12.1661H12.1661H12.166H12.1659H12.1659H12.1658H12.1658H12.1657H12.1657H12.1656H12.1655H12.1655H12.1654H12.1654H12.1653H12.1652H12.1652H12.1651H12.1651H12.165H12.1649H12.1649H12.1648H12.1648H12.1647H12.1647H12.1646H12.1645H12.1645H12.1644H12.1644H12.1643H12.1642H12.1642H12.1641H12.1641H12.164H12.164H12.1639H12.1638H12.1638H12.1637H12.1637H12.1636H12.1635H12.1635H12.1634H12.1634H12.1633H12.1632H12.1632H12.1631H12.1631H12.163H12.163H12.1629H12.1628H12.1628H12.1627H12.1627H12.1626H12.1625H12.1625H12.1624H12.1624H12.1623H12.1623H12.1622H12.1621H12.1621H12.162H12.162H12.1619H12.1618H12.1618H12.1617H12.1617H12.1616H12.1615H12.1615H12.1614H12.1614H12.1613H12.1613H12.1612H12.1611H12.1611H12.161H12.161H12.1609H12.1608H12.1608H12.1607H12.1607H12.1606H12.1606H12.1605H12.1604H12.1604H12.1603H12.1603H12.1602H12.1601H12.1601H12.16H12.16H12.1599H12.1599H12.1598H12.1597H12.1597H12.1596Z" fill="#141414" stroke="#141414"/>
<path d="M7.02825 20.6348L7.02557 20.6331C5.74176 19.7833 5.09961 18.6655 5.09961 17.5C5.09961 16.3337 5.74269 15.2056 7.02682 14.3461C8.42832 13.4168 10.2915 12.9375 12.1771 12.9375C14.0633 12.9375 15.921 13.417 17.3119 14.3458L17.3123 14.346C18.589 15.1972 19.2396 16.3161 19.2396 17.48C19.2396 18.6465 18.5964 19.7747 17.312 20.6342C15.9103 21.5685 14.0522 22.05 12.1696 22.05C10.286 22.05 8.4187 21.568 7.02825 20.6348ZM7.30226 14.774C6.25414 15.4727 5.59961 16.4297 5.59961 17.51C5.59961 18.583 6.26706 19.5392 7.3022 20.226C8.64842 21.1285 10.424 21.5625 12.1696 21.5625C13.9154 21.5625 15.6911 21.1284 17.0374 20.2257C18.0853 19.527 18.7396 18.5702 18.7396 17.49C18.7396 16.4168 18.0719 15.4605 17.0365 14.7736C15.6903 13.8764 13.9149 13.445 12.1696 13.445C10.4241 13.445 8.64845 13.8765 7.30226 14.774Z" fill="#141414" stroke="#141414"/>
</svg>
