<svg width="22" height="22" viewBox="0 0 22 22" fill="none" xmlns="http://www.w3.org/2000/svg">
<rect width="22" height="22" rx="11" fill="white"/>
<path fill-rule="evenodd" clip-rule="evenodd" d="M9.5958 8.20482C9.19088 7.09138 9.84043 6.06777 10.7781 5.74509C11.2243 5.59159 11.7011 5.61572 12.1322 5.86909C12.5673 6.12476 13.0597 6.67692 13.388 7.77129C13.5308 8.24739 14.0325 8.51756 14.5086 8.37474C14.9847 8.23191 15.2549 7.73018 15.112 7.25409C14.6903 5.84836 13.9695 4.86096 13.0442 4.31723C12.1151 3.77119 11.0846 3.73606 10.1925 4.04304C8.45373 4.64135 7.10328 6.6177 7.9042 8.82001C8.09493 9.34454 8.24006 9.82369 8.34681 10.2622H5.75C5.33579 10.2622 5 10.598 5 11.0122C5 11.4264 5.33579 11.7622 5.75 11.7622H8.5836C8.61944 12.3745 8.56197 12.876 8.45273 13.294C8.20542 14.2402 7.66084 14.8895 7.01439 15.5179C6.52278 15.9958 6.66879 16.6216 6.87009 16.9339C7.06969 17.2436 7.53731 17.5999 8.13935 17.4318C9.32916 17.0996 10.2569 17.3179 11.2946 17.5621C11.4458 17.5977 11.5994 17.6339 11.7565 17.669C12.3489 17.8013 13.0338 17.9227 13.7525 17.8081C14.5042 17.6882 15.2085 17.3265 15.8864 16.6486C16.2379 16.2971 16.2379 15.7273 15.8864 15.3758C15.5349 15.0243 14.9651 15.0243 14.6136 15.3758C14.1671 15.8223 13.7975 15.9782 13.469 16.0306C13.1076 16.0882 12.706 16.0366 12.1488 15.9122C12.0194 15.8834 11.8832 15.8505 11.7402 15.8161L11.74 15.816C11.0971 15.661 10.3182 15.4733 9.42036 15.4654C9.74092 14.9845 10.0184 14.4219 10.1942 13.7492C10.3495 13.155 10.4199 12.4982 10.3861 11.7622H14.25C14.6642 11.7622 15 11.4264 15 11.0122C15 10.598 14.6642 10.2622 14.25 10.2622H10.1913C10.0611 9.62926 9.86525 8.9458 9.59581 8.20485L9.5958 8.20482Z" fill="#196719"/>
</svg>
