<svg width="12" height="15" viewBox="0 0 12 15" fill="none" xmlns="http://www.w3.org/2000/svg">
<path fill-rule="evenodd" clip-rule="evenodd" d="M4.5958 5.20482C4.19088 4.09138 4.84043 3.06777 5.77815 2.74509C6.22426 2.59159 6.7011 2.61572 7.13225 2.86909C7.56731 3.12476 8.05966 3.67692 8.38795 4.77129C8.53078 5.24739 9.03251 5.51756 9.5086 5.37474C9.9847 5.23191 10.2549 4.73018 10.112 4.25409C9.69034 2.84836 8.96946 1.86096 8.04424 1.31723C7.11509 0.771192 6.08459 0.736062 5.19247 1.04304C3.45373 1.64135 2.10328 3.6177 2.9042 5.82001C3.09493 6.34454 3.24006 6.82369 3.34681 7.26221H0.75C0.335786 7.26221 0 7.59799 0 8.01221C0 8.42642 0.335786 8.76221 0.75 8.76221H3.5836C3.61944 9.37451 3.56197 9.87603 3.45273 10.294C3.20542 11.2402 2.66084 11.8895 2.01439 12.5179C1.52278 12.9958 1.66879 13.6216 1.87009 13.9339C2.06969 14.2436 2.53731 14.5999 3.13935 14.4318C4.32916 14.0996 5.25692 14.3179 6.29457 14.5621C6.44583 14.5977 6.59942 14.6339 6.7565 14.669C7.34892 14.8013 8.03376 14.9227 8.75249 14.8081C9.50417 14.6882 10.2085 14.3265 10.8864 13.6486C11.2379 13.2971 11.2379 12.7273 10.8864 12.3758C10.5349 12.0243 9.96508 12.0243 9.6136 12.3758C9.16709 12.8223 8.79751 12.9782 8.46902 13.0306C8.10758 13.0882 7.70595 13.0366 7.14875 12.9122C7.01942 12.8834 6.88318 12.8505 6.74023 12.8161L6.74004 12.816C6.09707 12.661 5.31816 12.4733 4.42036 12.4654C4.74092 11.9845 5.01839 11.4219 5.19422 10.7492C5.34953 10.155 5.41986 9.49815 5.3861 8.76221H9.25C9.66421 8.76221 10 8.42642 10 8.01221C10 7.59799 9.66421 7.26221 9.25 7.26221H5.19134C5.06106 6.62926 4.86525 5.9458 4.59581 5.20485L4.5958 5.20482Z" fill="#196719"/>
</svg>
