<svg width="21" height="20" viewBox="0 0 21 20" fill="none" xmlns="http://www.w3.org/2000/svg">
<path d="M10.7 20C5.17695 20 0.699951 15.523 0.699951 10C0.699951 4.477 5.17695 0 10.7 0C16.223 0 20.7 4.477 20.7 10C20.7 15.523 16.223 20 10.7 20ZM5.71295 16.256C7.1285 17.3877 8.88763 18.0029 10.7 18C12.67 18 14.473 17.288 15.867 16.108C15.2157 15.4397 14.437 14.9089 13.577 14.5468C12.717 14.1847 11.7931 13.9988 10.86 14C9.89254 13.9989 8.93545 14.1989 8.04942 14.5872C7.16338 14.9756 6.36773 15.5439 5.71295 16.256ZM4.31595 14.82C5.1564 13.9281 6.17062 13.2177 7.29609 12.7327C8.42156 12.2477 9.63443 11.9984 10.86 12C12.0416 11.9985 13.2119 12.2304 14.3037 12.6824C15.3955 13.1344 16.3872 13.7976 17.222 14.634C18.078 13.4291 18.5836 12.0106 18.6825 10.5359C18.7815 9.06119 18.4699 7.58789 17.7824 6.27946C17.095 4.97102 16.0585 3.87862 14.7879 3.12345C13.5174 2.36827 12.0624 1.97984 10.5846 2.00125C9.10667 2.02267 7.66361 2.45308 6.41547 3.24476C5.16733 4.03643 4.16291 5.1584 3.51364 6.4862C2.86438 7.814 2.59565 9.29571 2.73727 10.7669C2.87889 12.2382 3.42532 13.6414 4.31595 14.821V14.82ZM10.7 11C9.63908 11 8.62167 10.5786 7.87152 9.82843C7.12138 9.07828 6.69995 8.06087 6.69995 7C6.69995 5.93913 7.12138 4.92172 7.87152 4.17157C8.62167 3.42143 9.63908 3 10.7 3C11.7608 3 12.7782 3.42143 13.5284 4.17157C14.2785 4.92172 14.7 5.93913 14.7 7C14.7 8.06087 14.2785 9.07828 13.5284 9.82843C12.7782 10.5786 11.7608 11 10.7 11ZM10.7 9C11.2304 9 11.7391 8.78929 12.1142 8.41421C12.4892 8.03914 12.7 7.53043 12.7 7C12.7 6.46957 12.4892 5.96086 12.1142 5.58579C11.7391 5.21071 11.2304 5 10.7 5C10.1695 5 9.66081 5.21071 9.28574 5.58579C8.91067 5.96086 8.69995 6.46957 8.69995 7C8.69995 7.53043 8.91067 8.03914 9.28574 8.41421C9.66081 8.78929 10.1695 9 10.7 9Z" fill="#474747"/>
</svg>
