<svg width="32" height="32" viewBox="0 0 32 32" fill="none" xmlns="http://www.w3.org/2000/svg">
<circle cx="16" cy="16" r="16" fill="#F5F5F5"/>
<path d="M26 12.5C26 15.76 23.6 18.45 20.48 18.92V18.86C20.17 14.98 17.02 11.83 13.11 11.52H13.08C13.55 8.4 16.24 6 19.5 6C23.09 6 26 8.91 26 12.5Z" fill="#C2C2C2"/>
<path d="M18.98 18.98C18.73 15.81 16.19 13.27 13.02 13.02C12.85 13.01 12.67 13 12.5 13C8.91 13 6 15.91 6 19.5C6 23.09 8.91 26 12.5 26C16.09 26 19 23.09 19 19.5C19 19.33 18.99 19.15 18.98 18.98ZM13.38 20.38L12.5 22L11.62 20.38L10 19.5L11.62 18.62L12.5 17L13.38 18.62L15 19.5L13.38 20.38Z" fill="#858585"/>
</svg>
