<svg width="32" height="32" viewBox="0 0 32 32" fill="none" xmlns="http://www.w3.org/2000/svg">
<circle cx="16" cy="16" r="16" fill="#F5F5F5"/>
<path d="M20 21H12C12 23 13.434 25 16 25C18.566 25 20 23 20 21Z" fill="#858585"/>
<path d="M23.6033 18.429L24.7093 20.2749C25.0473 20.8379 25.0439 21.0869 24.7343 21.0869H7.2053C6.9679 21.0869 6.88929 20.8369 7.22729 20.2749L8.33329 18.429C8.75229 17.73 8.97329 15.9299 8.97329 15.1169V12.49C8.97329 8.91099 12.3869 6 15.9679 6C19.5489 6 22.9633 8.91099 22.9633 12.49V15.1169C22.9633 15.9299 23.1843 17.73 23.6033 18.429Z" fill="#C2C2C2"/>
</svg>
