<svg width="24" height="24" viewBox="0 0 24 24" fill="none" xmlns="http://www.w3.org/2000/svg">
<path d="M6.37644 19.3365L6.37018 19.3427L6.36415 19.3492C5.95024 19.7935 5.5818 20.0593 5.2804 20.1894C4.98391 20.3174 4.78295 20.3035 4.64904 20.2458C4.51147 20.1865 4.35038 20.0405 4.21876 19.7177C4.08647 19.3934 4 18.9247 4 18.3V7.04C4 5.01737 4.24812 3.9484 4.80763 3.35034C5.35604 2.76414 6.331 2.5 8.22 2.5H15.78C17.6692 2.5 18.6438 2.76423 19.1908 3.35002C19.7489 3.94758 19.995 5.01607 19.99 7.03876V7.04V18.29C19.99 18.9151 19.9041 19.384 19.7723 19.7085C19.6413 20.0315 19.4809 20.177 19.3444 20.2359C19.2114 20.2933 19.011 20.3075 18.7136 20.1793C18.4115 20.049 18.0417 19.783 17.6252 19.3385C17.1213 18.7981 16.4631 18.5296 15.8003 18.5657C15.1375 18.6018 14.5124 18.9401 14.07 19.53L14.0696 19.5305L13.0613 20.8782C13.0611 20.8786 13.0608 20.8789 13.0606 20.8792C12.7359 21.3075 12.3459 21.4825 11.995 21.4825C11.6442 21.4825 11.2541 21.3076 10.9295 20.8793C10.9292 20.8789 10.9289 20.8786 10.9287 20.8782L9.92051 19.5307C9.92047 19.5306 9.92043 19.5306 9.9204 19.5305C9.92038 19.5305 9.92037 19.5305 9.92036 19.5305C9.0244 18.3319 7.41291 18.2433 6.38146 19.3314L6.37644 19.3365ZM6.28 11C6.28 11.8261 6.95386 12.5 7.78 12.5C8.60614 12.5 9.28 11.8261 9.28 11C9.28 10.1739 8.60614 9.5 7.78 9.5C6.95386 9.5 6.28 10.1739 6.28 11ZM6.28 7C6.28 7.82614 6.95386 8.5 7.78 8.5C8.60614 8.5 9.28 7.82614 9.28 7C9.28 6.17386 8.60614 5.5 7.78 5.5C6.95386 5.5 6.28 6.17386 6.28 7ZM10.73 12.25H16.23C16.9161 12.25 17.48 11.6861 17.48 11C17.48 10.3139 16.9161 9.75 16.23 9.75H10.73C10.0439 9.75 9.48 10.3139 9.48 11C9.48 11.6861 10.0439 12.25 10.73 12.25ZM10.73 8.25H16.23C16.9161 8.25 17.48 7.68614 17.48 7C17.48 6.31386 16.9161 5.75 16.23 5.75H10.73C10.0439 5.75 9.48 6.31386 9.48 7C9.48 7.68614 10.0439 8.25 10.73 8.25Z" fill="white" stroke="#F3FFF3"/>
</svg>
