<svg width="22" height="20" viewBox="0 0 22 20" fill="none" xmlns="http://www.w3.org/2000/svg">
<path d="M20.6067 5.46648H10.74V1.99981C10.74 1.57314 10.42 1.17314 10.0467 1.01314C9.64671 0.853145 9.16671 0.933146 8.87337 1.22648L0.686719 9.22648C0.473385 9.43981 0.366699 9.70648 0.366699 9.99981C0.366699 10.2931 0.473385 10.5598 0.686719 10.7731L8.84671 18.7731C9.06005 18.9598 9.32669 19.0665 9.59336 19.0665C9.72669 19.0665 9.91338 19.0398 10.0467 18.9865C10.4467 18.8265 10.74 18.4265 10.74 17.9998V14.5331H20.6067C21.1934 14.5331 21.6734 13.9198 21.6734 13.3331V6.66648C21.6734 6.07981 21.1934 5.46648 20.6067 5.46648Z" fill="#2F80ED"/>
</svg>
