<svg width="25" height="24" viewBox="0 0 25 24" fill="none" xmlns="http://www.w3.org/2000/svg">
<path d="M7.90015 2H6.90015C3.90015 2 2.90015 3.79 2.90015 6V7V21C2.90015 21.83 3.84015 22.3 4.50015 21.8L6.21015 20.52C6.61015 20.22 7.17015 20.26 7.53015 20.62L9.19015 22.29C9.58015 22.68 10.2201 22.68 10.6101 22.29L12.2901 20.61C12.6401 20.26 13.2001 20.22 13.5901 20.52L15.3001 21.8C15.9601 22.29 16.9001 21.82 16.9001 21V4C16.9001 2.9 17.8001 2 18.9001 2H7.90015ZM6.87015 14.01C6.32015 14.01 5.87015 13.56 5.87015 13.01C5.87015 12.46 6.32015 12.01 6.87015 12.01C7.42015 12.01 7.87015 12.46 7.87015 13.01C7.87015 13.56 7.42015 14.01 6.87015 14.01ZM6.87015 10.01C6.32015 10.01 5.87015 9.56 5.87015 9.01C5.87015 8.46 6.32015 8.01 6.87015 8.01C7.42015 8.01 7.87015 8.46 7.87015 9.01C7.87015 9.56 7.42015 10.01 6.87015 10.01ZM12.9001 13.76H9.90015C9.49015 13.76 9.15015 13.42 9.15015 13.01C9.15015 12.6 9.49015 12.26 9.90015 12.26H12.9001C13.3101 12.26 13.6501 12.6 13.6501 13.01C13.6501 13.42 13.3101 13.76 12.9001 13.76ZM12.9001 9.76H9.90015C9.49015 9.76 9.15015 9.42 9.15015 9.01C9.15015 8.6 9.49015 8.26 9.90015 8.26H12.9001C13.3101 8.26 13.6501 8.6 13.6501 9.01C13.6501 9.42 13.3101 9.76 12.9001 9.76Z" fill="#474747"/>
<path d="M18.9101 2V3.5C19.5701 3.5 20.2001 3.77 20.6601 4.22C21.1401 4.71 21.4001 5.34 21.4001 6V8.42C21.4001 9.16 21.0701 9.5 20.3201 9.5H18.4001V4.01C18.4001 3.73 18.6301 3.5 18.9101 3.5V2ZM18.9101 2C17.8001 2 16.9001 2.9 16.9001 4.01V11H20.3201C21.9001 11 22.9001 10 22.9001 8.42V6C22.9001 4.9 22.4501 3.9 21.7301 3.17C21.0001 2.45 20.0101 2.01 18.9101 2C18.9201 2 18.9101 2 18.9101 2Z" fill="#474747"/>
</svg>
