<svg width="40" height="40" viewBox="0 0 40 40" fill="none" xmlns="http://www.w3.org/2000/svg">
<rect x="0.5" y="0.5" width="39" height="39" rx="19.5" fill="#EAF3FF"/>
<path d="M29.6067 15.4665H19.74V11.9998C19.74 11.5731 19.42 11.1731 19.0467 11.0131C18.6467 10.8531 18.1667 10.9331 17.8734 11.2265L9.68672 19.2265C9.47339 19.4398 9.3667 19.7065 9.3667 19.9998C9.3667 20.2931 9.47339 20.5598 9.68672 20.7731L17.8467 28.7731C18.06 28.9598 18.3267 29.0665 18.5934 29.0665C18.7267 29.0665 18.9134 29.0398 19.0467 28.9865C19.4467 28.8265 19.74 28.4265 19.74 27.9998V24.5331H29.6067C30.1934 24.5331 30.6734 23.9198 30.6734 23.3331V16.6665C30.6734 16.0798 30.1934 15.4665 29.6067 15.4665Z" fill="#2F80ED"/>
<rect x="0.5" y="0.5" width="39" height="39" rx="19.5" stroke="#2F80ED"/>
</svg>
