<svg width="14" height="14" viewBox="0 0 14 14" fill="none" xmlns="http://www.w3.org/2000/svg">
<path d="M9.79325 0.333374H4.20659C1.77992 0.333374 0.333252 1.78004 0.333252 4.20671V9.78671C0.333252 12.22 1.77992 13.6667 4.20659 13.6667H9.78659C12.2133 13.6667 13.6599 12.22 13.6599 9.79338V4.20671C13.6666 1.78004 12.2199 0.333374 9.79325 0.333374ZM10.4999 7.22004C10.4999 7.49337 10.2733 7.72004 9.99992 7.72004C9.72659 7.72004 9.49992 7.49337 9.49992 7.22004V5.20671L4.35325 10.3534C4.25325 10.4534 4.12659 10.5 3.99992 10.5C3.87325 10.5 3.74659 10.4534 3.64659 10.3534C3.45325 10.16 3.45325 9.84004 3.64659 9.64671L8.79325 4.50004H6.77992C6.50659 4.50004 6.27992 4.27337 6.27992 4.00004C6.27992 3.72671 6.50659 3.50004 6.77992 3.50004H9.99992C10.2733 3.50004 10.4999 3.72671 10.4999 4.00004V7.22004Z" fill="#196719"/>
</svg>
