<svg width="24" height="25" viewBox="0 0 24 25" fill="none" xmlns="http://www.w3.org/2000/svg">
<path d="M2 10.25C1.59 10.25 1.25 9.91 1.25 9.5V7C1.25 4.1 3.61 1.75 6.5 1.75H9C9.41 1.75 9.75 2.09 9.75 2.5C9.75 2.91 9.41 3.25 9 3.25H6.5C4.43 3.25 2.75 4.93 2.75 7V9.5C2.75 9.91 2.41 10.25 2 10.25Z" fill="#141414"/>
<path d="M22 10.25C21.59 10.25 21.25 9.91 21.25 9.5V7C21.25 4.93 19.57 3.25 17.5 3.25H15C14.59 3.25 14.25 2.91 14.25 2.5C14.25 2.09 14.59 1.75 15 1.75H17.5C20.39 1.75 22.75 4.1 22.75 7V9.5C22.75 9.91 22.41 10.25 22 10.25Z" fill="#141414"/>
<path d="M17.5 23.25H16C15.59 23.25 15.25 22.91 15.25 22.5C15.25 22.09 15.59 21.75 16 21.75H17.5C19.57 21.75 21.25 20.07 21.25 18V16.5C21.25 16.09 21.59 15.75 22 15.75C22.41 15.75 22.75 16.09 22.75 16.5V18C22.75 20.9 20.39 23.25 17.5 23.25Z" fill="#141414"/>
<path d="M9 23.25H6.5C3.61 23.25 1.25 20.9 1.25 18V15.5C1.25 15.09 1.59 14.75 2 14.75C2.41 14.75 2.75 15.09 2.75 15.5V18C2.75 20.07 4.43 21.75 6.5 21.75H9C9.41 21.75 9.75 22.09 9.75 22.5C9.75 22.91 9.41 23.25 9 23.25Z" fill="#141414"/>
<path d="M14 18.75H10C7.58 18.75 6.25 17.42 6.25 15V10C6.25 7.58 7.58 6.25 10 6.25H14C16.42 6.25 17.75 7.58 17.75 10V15C17.75 17.42 16.42 18.75 14 18.75ZM10 7.75C8.42 7.75 7.75 8.42 7.75 10V15C7.75 16.58 8.42 17.25 10 17.25H14C15.58 17.25 16.25 16.58 16.25 15V10C16.25 8.42 15.58 7.75 14 7.75H10Z" fill="#141414"/>
<path d="M19 13.25H5C4.59 13.25 4.25 12.91 4.25 12.5C4.25 12.09 4.59 11.75 5 11.75H19C19.41 11.75 19.75 12.09 19.75 12.5C19.75 12.91 19.41 13.25 19 13.25Z" fill="#141414"/>
</svg>
