<svg width="21" height="20" viewBox="0 0 21 20" fill="none" xmlns="http://www.w3.org/2000/svg">
<path d="M10.3 0.25C4.92395 0.25 0.550049 4.62391 0.550049 10C0.550049 15.3761 4.92395 19.75 10.3 19.75C15.6761 19.75 20.05 15.3761 20.05 10C20.05 4.62391 15.6761 0.25 10.3 0.25ZM17.0032 14.5H14.8835C14.8178 14.4999 14.7533 14.4825 14.6965 14.4495C14.6396 14.4166 14.5924 14.3694 14.5596 14.3125L13.803 13.015C13.7532 12.9302 13.7387 12.8292 13.7627 12.7338L14.4593 9.925C14.4732 9.86841 14.5002 9.81585 14.5381 9.7715C14.5759 9.72716 14.6235 9.69224 14.6772 9.66953L15.9944 9.11172C16.0588 9.08442 16.1295 9.07567 16.1986 9.08643C16.2677 9.0972 16.3324 9.12707 16.3854 9.17266L18.3368 10.8517C18.3849 10.8931 18.4217 10.9461 18.4437 11.0056C18.4658 11.0651 18.4724 11.1293 18.4629 11.192C18.3012 12.3008 17.9139 13.3646 17.3247 14.3177C17.2915 14.3732 17.2443 14.4192 17.188 14.4512C17.1316 14.4832 17.068 14.5 17.0032 14.5ZM4.60567 9.11547L5.92286 9.67328C5.97655 9.69599 6.0242 9.73091 6.06204 9.77525C6.09988 9.8196 6.12685 9.87216 6.14083 9.92875L6.83739 12.7375C6.86137 12.8329 6.84689 12.9339 6.79708 13.0187L6.04052 14.3125C6.00768 14.3694 5.96047 14.4166 5.90363 14.4495C5.84678 14.4825 5.78229 14.4999 5.71661 14.5H3.59692C3.53281 14.5 3.46977 14.4836 3.4138 14.4524C3.35783 14.4211 3.31081 14.376 3.27724 14.3214C2.68808 13.3683 2.30072 12.3045 2.13911 11.1958C2.12961 11.133 2.13619 11.0689 2.15825 11.0094C2.1803 10.9498 2.2171 10.8969 2.2652 10.8555L4.21661 9.17641C4.26943 9.13117 4.33379 9.10152 4.4025 9.09076C4.47121 9.07999 4.54155 9.08855 4.60567 9.11547V9.11547ZM16.6497 5.02609L15.8027 7.43453C15.7857 7.48375 15.7586 7.52889 15.7232 7.56706C15.6877 7.60523 15.6447 7.63561 15.5969 7.65625L14.2104 8.24359C14.1467 8.27051 14.0769 8.27933 14.0086 8.26907C13.9403 8.25882 13.8761 8.22988 13.8232 8.18547L11.186 5.97344C11.1438 5.93857 11.1098 5.89491 11.0864 5.84552C11.0629 5.79612 11.0505 5.74219 11.05 5.6875V4.11344C11.0501 4.05176 11.0653 3.99105 11.0944 3.93668C11.1236 3.8823 11.1656 3.83595 11.2169 3.80172L13.2246 2.46391C13.277 2.42893 13.3373 2.40772 13.4001 2.40224C13.4628 2.39675 13.526 2.40715 13.5836 2.4325C14.7389 2.93634 15.764 3.69685 16.5813 4.65625C16.6243 4.70641 16.6532 4.76703 16.6652 4.83197C16.6773 4.89691 16.6719 4.96388 16.6497 5.02609V5.02609ZM7.37505 2.46391L9.38317 3.80172C9.43448 3.83595 9.47655 3.8823 9.50566 3.93668C9.53476 3.99105 9.55001 4.05176 9.55005 4.11344V5.6875C9.55005 5.74228 9.53804 5.7964 9.51488 5.84604C9.49172 5.89568 9.45796 5.93965 9.41599 5.97484L6.7788 8.18688C6.72588 8.23129 6.66172 8.26022 6.59339 8.27048C6.52507 8.28074 6.45524 8.27192 6.39161 8.245L5.00317 7.65625C4.95506 7.63587 4.91173 7.60567 4.87597 7.56757C4.84021 7.52947 4.81281 7.48431 4.79552 7.435L3.94849 5.02656C3.92647 4.96412 3.92139 4.89697 3.93374 4.83193C3.94609 4.76689 3.97543 4.70627 4.0188 4.65625C4.83653 3.69589 5.86256 2.9347 7.0188 2.43062C7.07625 2.40605 7.13893 2.39623 7.20115 2.40204C7.26336 2.40785 7.32314 2.42912 7.37505 2.46391V2.46391ZM8.18646 17.8136L7.26161 15.4844C7.24046 15.4314 7.23167 15.3744 7.23589 15.3175C7.24011 15.2606 7.25725 15.2055 7.28599 15.1562L7.99708 13.9375C8.02992 13.8806 8.07713 13.8334 8.13397 13.8005C8.19081 13.7675 8.2553 13.7501 8.32099 13.75H12.2791C12.3448 13.7501 12.4093 13.7675 12.4661 13.8005C12.523 13.8334 12.5702 13.8806 12.603 13.9375L13.3146 15.1562C13.3434 15.2055 13.3606 15.2606 13.3649 15.3174C13.3692 15.3743 13.3605 15.4314 13.3394 15.4844L12.4211 17.8127C12.3987 17.8696 12.3626 17.9201 12.3161 17.9599C12.2697 17.9997 12.2141 18.0275 12.1544 18.0409C10.9359 18.3206 9.66983 18.3206 8.4513 18.0409C8.39203 18.0274 8.33695 17.9996 8.29081 17.96C8.24468 17.9204 8.20886 17.8701 8.18646 17.8136V17.8136Z" fill="#474747"/>
</svg>
