<svg width="20" height="20" viewBox="0 0 20 20" fill="none" xmlns="http://www.w3.org/2000/svg">
<path d="M16.6667 4.79199H11.6667C11.3251 4.79199 11.0417 4.50866 11.0417 4.16699C11.0417 3.82533 11.3251 3.54199 11.6667 3.54199H16.6667C17.0084 3.54199 17.2917 3.82533 17.2917 4.16699C17.2917 4.50866 17.0084 4.79199 16.6667 4.79199Z" fill="#A3A3A3"/>
<path d="M14.1667 7.29199H11.6667C11.3251 7.29199 11.0417 7.00866 11.0417 6.66699C11.0417 6.32533 11.3251 6.04199 11.6667 6.04199H14.1667C14.5084 6.04199 14.7917 6.32533 14.7917 6.66699C14.7917 7.00866 14.5084 7.29199 14.1667 7.29199Z" fill="#A3A3A3"/>
<path d="M9.58342 18.1253C4.87508 18.1253 1.04175 14.292 1.04175 9.58366C1.04175 4.87533 4.87508 1.04199 9.58342 1.04199C9.92508 1.04199 10.2084 1.32533 10.2084 1.66699C10.2084 2.00866 9.92508 2.29199 9.58342 2.29199C5.55841 2.29199 2.29175 5.56699 2.29175 9.58366C2.29175 13.6003 5.55841 16.8753 9.58342 16.8753C13.6084 16.8753 16.8751 13.6003 16.8751 9.58366C16.8751 9.24199 17.1584 8.95866 17.5001 8.95866C17.8417 8.95866 18.1251 9.24199 18.1251 9.58366C18.1251 14.292 14.2917 18.1253 9.58342 18.1253Z" fill="#A3A3A3"/>
<path d="M18.3333 18.9585C18.175 18.9585 18.0166 18.9002 17.8916 18.7752L16.225 17.1085C15.9833 16.8669 15.9833 16.4669 16.225 16.2252C16.4666 15.9835 16.8666 15.9835 17.1083 16.2252L18.775 17.8919C19.0166 18.1335 19.0166 18.5335 18.775 18.7752C18.65 18.9002 18.4916 18.9585 18.3333 18.9585Z" fill="#A3A3A3"/>
</svg>
