<svg width="16" height="17" viewBox="0 0 16 17" fill="none" xmlns="http://www.w3.org/2000/svg">
<path d="M13.333 4.33337H9.33301C9.05967 4.33337 8.83301 4.10671 8.83301 3.83337C8.83301 3.56004 9.05967 3.33337 9.33301 3.33337H13.333C13.6063 3.33337 13.833 3.56004 13.833 3.83337C13.833 4.10671 13.6063 4.33337 13.333 4.33337Z" fill="#A3A3A3"/>
<path d="M11.333 6.33337H9.33301C9.05967 6.33337 8.83301 6.10671 8.83301 5.83337C8.83301 5.56004 9.05967 5.33337 9.33301 5.33337H11.333C11.6063 5.33337 11.833 5.56004 11.833 5.83337C11.833 6.10671 11.6063 6.33337 11.333 6.33337Z" fill="#A3A3A3"/>
<path d="M7.66634 15C3.89967 15 0.833008 11.9334 0.833008 8.16671C0.833008 4.40004 3.89967 1.33337 7.66634 1.33337C7.93967 1.33337 8.16634 1.56004 8.16634 1.83337C8.16634 2.10671 7.93967 2.33337 7.66634 2.33337C4.44634 2.33337 1.83301 4.95337 1.83301 8.16671C1.83301 11.38 4.44634 14 7.66634 14C10.8863 14 13.4997 11.38 13.4997 8.16671C13.4997 7.89337 13.7263 7.66671 13.9997 7.66671C14.273 7.66671 14.4997 7.89337 14.4997 8.16671C14.4997 11.9334 11.433 15 7.66634 15Z" fill="#A3A3A3"/>
<path d="M14.6666 15.6666C14.54 15.6666 14.4133 15.62 14.3133 15.52L12.98 14.1866C12.7866 13.9933 12.7866 13.6733 12.98 13.48C13.1733 13.2866 13.4933 13.2866 13.6866 13.48L15.02 14.8133C15.2133 15.0066 15.2133 15.3266 15.02 15.52C14.92 15.62 14.7933 15.6666 14.6666 15.6666Z" fill="#A3A3A3"/>
</svg>
