<svg width="55" height="61" viewBox="0 0 55 61" fill="none" xmlns="http://www.w3.org/2000/svg">
<path d="M49.2982 13.6264V27.4302H45.3973V13.6264C45.3973 8.37707 41.4103 4.1087 36.5057 4.1087C31.6011 4.1087 27.6141 8.37707 27.6141 13.6264V27.4302H23.7133V13.6264C23.7133 6.10854 29.4517 0 36.5057 0C43.5597 0 49.2982 6.10854 49.2982 13.6264Z" fill="#C2C2C2"/>
<path d="M23.7133 17.2148L27.6141 17.372V27.4295H23.7133V17.2148Z" fill="#104210"/>
<path d="M49.2982 18.2573V27.4303H45.3973V18.0977L49.2982 18.2573Z" fill="#104210"/>
<path d="M54.299 19.5703H18.7148V51.8543H54.299V19.5703Z" fill="#2B892B"/>
<path opacity="0.2" d="M54.2964 19.5703H36.5056V51.8543H54.2964V19.5703Z" fill="#041004"/>
<path d="M38.0112 36.894L39.4991 43.9581H33.1776L34.668 36.894C34.0852 36.5309 33.6365 35.9878 33.3899 35.347C33.1432 34.7061 33.1119 34.0024 33.3008 33.3422C33.4897 32.682 33.8884 32.1013 34.4367 31.6878C34.9849 31.2744 35.6529 31.0508 36.3396 31.0508C37.0263 31.0508 37.6943 31.2744 38.2426 31.6878C38.7908 32.1013 39.1896 32.682 39.3784 33.3422C39.5673 34.0024 39.536 34.7061 39.2894 35.347C39.0427 35.9878 38.594 36.5309 38.0112 36.894Z" fill="#104210"/>
<path d="M26.1693 36.8833C26.1693 36.8833 24.3088 51.777 21.252 55.1329C17.5818 59.1528 14.9153 58.5648 13.4351 60.6382C11.9549 58.5623 9.29091 59.1528 5.61565 55.1303C2.55884 51.777 0.700928 36.8807 0.700928 36.8807C8.7561 32.9723 13.4402 28.5898 13.4402 28.5898C13.5796 28.7267 18.2383 33.0356 26.1693 36.8833Z" fill="#E0E0E0"/>
<path d="M13.4402 28.5924V60.6356C11.96 58.5597 9.29604 59.1503 5.62077 55.1278C2.56397 51.7744 0.706055 36.8782 0.706055 36.8782C8.75616 32.9723 13.4402 28.5898 13.4402 28.5898V28.5924Z" fill="#E0E0E0"/>
<path d="M24.1947 38.0845C24.1947 38.0845 22.6232 50.6641 20.0404 53.4978C16.9355 56.8993 14.6847 56.4 13.4325 58.1515C12.1804 56.4 9.92963 56.8993 6.8272 53.4978C4.24438 50.6641 2.67542 38.0845 2.67542 38.0845C9.481 34.7895 13.4325 31.0762 13.4325 31.0762C13.4325 31.0762 17.3892 34.7793 24.1947 38.0845Z" fill="#F5F5F5"/>
<path d="M2.67798 38.0853C2.67798 38.0853 4.24947 50.6649 6.8323 53.4986C9.9322 56.8976 12.1728 56.4008 13.4402 58.1472V31.082C13.316 31.1936 9.38471 34.8308 2.67798 38.0853Z" fill="#C2C2C2"/>
<path d="M16.9622 48.1424C18.9103 46.1944 18.9103 43.0361 16.9622 41.088C15.0142 39.14 11.8559 39.14 9.90783 41.088C7.9598 43.036 7.9598 46.1944 9.90783 48.1424C11.8559 50.0905 15.0142 50.0905 16.9622 48.1424Z" fill="#2B892B"/>
<path d="M12.8673 47.855L10.6444 45.5434L11.4682 44.7501L12.6924 46.025L15.3335 41.9746L16.2916 42.5981L12.8673 47.855Z" fill="white"/>
</svg>
