<svg width="68" height="66" viewBox="0 0 68 66" fill="none" xmlns="http://www.w3.org/2000/svg">
<g filter="url(#filter0_di_1917_41490)">
<rect x="4" y="2" width="58" height="58" rx="29" fill="#D8FFD8"/>
<path d="M22.0007 20.993C21.9987 21.4739 22.0277 21.9545 22.0876 22.4317C22.3588 24.5536 23.2452 26.5498 24.6375 28.1739C26.0297 29.798 27.8669 30.979 29.9224 31.5714C30.8953 31.8503 31.9019 31.9941 32.9139 31.9987C33.6833 32.0023 34.451 31.9255 35.2045 31.7694C36.6406 31.467 38.0016 30.8802 39.2072 30.0435C40.4129 29.2067 41.4388 28.1371 42.2245 26.8976C42.3256 26.738 42.4225 26.5742 42.5165 26.4104C42.9514 25.6382 43.2906 24.8159 43.5265 23.9616C43.6063 23.6767 43.669 23.3776 43.7316 23.0784C43.7943 22.7793 43.8328 22.4759 43.8641 22.1668C43.9011 21.8106 43.9201 21.4502 43.9211 21.0856C43.9236 20.6462 43.8993 20.2071 43.8484 19.7707C43.8143 19.4687 43.7668 19.171 43.706 18.8776C43.2791 16.7606 42.2368 14.8167 40.7098 13.2897C39.1827 11.7626 37.2389 10.7203 35.1219 10.2935C34.8284 10.2336 34.5293 10.1866 34.2273 10.151C33.8216 10.1037 33.4135 10.0794 33.0051 10.0784C32.6135 10.0758 32.2221 10.0948 31.8327 10.1353C31.525 10.1653 31.2201 10.2108 30.921 10.2678C30.6219 10.3248 30.327 10.3917 30.0364 10.4715C29.1819 10.7073 28.3595 11.047 27.5876 11.4829C27.4224 11.5755 27.2586 11.6724 27.099 11.7678C25.3419 12.8836 23.9363 14.4738 23.0449 16.3548C22.6772 17.131 22.4032 17.9482 22.2286 18.7892C22.079 19.5143 22.0026 20.2526 22.0007 20.993Z" fill="#196719"/>
<path opacity="0.1" d="M22.0007 20.993C21.9987 21.4739 22.0277 21.9545 22.0876 22.4317C22.3588 24.5536 23.2452 26.5498 24.6375 28.1739C26.0297 29.798 27.8669 30.979 29.9224 31.5714C30.8953 31.8503 31.9019 31.9941 32.9139 31.9987C33.6833 32.0023 34.451 31.9255 35.2045 31.7694C36.6406 31.467 38.0016 30.8802 39.2072 30.0435C40.4129 29.2067 41.4388 28.1371 42.2245 26.8976C42.3256 26.738 42.4225 26.5742 42.5165 26.4104C42.9514 25.6382 43.2906 24.8159 43.5265 23.9616C43.6063 23.6767 43.669 23.3776 43.7316 23.0784C43.7943 22.7793 43.8328 22.4759 43.8641 22.1668C43.9011 21.8106 43.9201 21.4502 43.9211 21.0856C43.9236 20.6462 43.8993 20.2071 43.8484 19.7707C43.8143 19.4687 43.7668 19.171 43.706 18.8776C43.2791 16.7606 42.2368 14.8167 40.7098 13.2897C39.1827 11.7626 37.2389 10.7203 35.1219 10.2935C34.8284 10.2336 34.5293 10.1866 34.2273 10.151C33.8216 10.1037 33.4135 10.0794 33.0051 10.0784C32.6135 10.0758 32.2221 10.0948 31.8327 10.1353C31.525 10.1653 31.2201 10.2108 30.921 10.2678C30.6219 10.3248 30.327 10.3917 30.0364 10.4715C29.1819 10.7073 28.3595 11.047 27.5876 11.4829C27.4224 11.5755 27.2586 11.6724 27.099 11.7678C25.3419 12.8836 23.9363 14.4738 23.0449 16.3548C22.6772 17.131 22.4032 17.9482 22.2286 18.7892C22.079 19.5143 22.0026 20.2526 22.0007 20.993Z" fill="#CCFF33"/>
<path opacity="0.05" d="M43.4923 18.002C43.5749 18.2869 43.6476 18.5832 43.7074 18.8823C43.7672 19.1814 43.8142 19.4735 43.8498 19.7755C43.9007 20.2119 43.925 20.6509 43.9225 21.0903C43.9225 21.455 43.9035 21.8154 43.8655 22.1715C43.8342 22.4811 43.79 22.785 43.733 23.0832C43.6761 23.3823 43.6077 23.6758 43.5279 23.9664C43.2909 24.8178 42.9513 25.6372 42.5165 26.4066C42.4225 26.5704 42.3256 26.7342 42.2245 26.8938C41.2336 28.4648 39.8588 29.7576 38.2298 30.6501C36.6008 31.5426 34.7713 32.0054 32.9139 31.9949C32.514 31.9924 32.1145 31.9681 31.7173 31.9223L43.4923 18.002Z" fill="black"/>
<path opacity="0.05" d="M43.3227 24.6172C43.1088 25.2368 42.8389 25.8357 42.5164 26.4064C42.4224 26.5702 42.3255 26.734 42.2244 26.8936C41.2287 28.4642 39.851 29.7566 38.2201 30.65L43.3227 24.6172Z" fill="black"/>
<path opacity="0.15" d="M41.9937 14.8301C42.3465 15.3419 42.6544 15.8834 42.9139 16.4483L30.0933 31.6179L29.9195 31.5709C29.3826 31.4137 28.8588 31.2151 28.3525 30.9769L41.9937 14.8301Z" fill="#CCFF33"/>
<path opacity="0.15" d="M37.8013 11.2031C38.3761 11.4875 38.9252 11.8211 39.4424 12.2003L25.3269 28.8984C24.867 28.4511 24.447 27.9645 24.0719 27.444L37.8013 11.2031Z" fill="#CCFF33"/>
<path opacity="0.15" d="M36.2002 10.5664C36.5392 10.6718 36.8716 10.7924 37.1973 10.9282L23.7001 26.8942C23.512 26.5964 23.334 26.2916 23.1744 25.9753L36.2002 10.5664Z" fill="#CCFF33"/>
<path opacity="0.15" d="M22.0321 20.2465C22.0463 20.0442 22.0677 19.8433 22.0919 19.6453C22.1005 19.5784 22.1076 19.5114 22.1176 19.4459C22.1275 19.3803 22.1375 19.3034 22.1489 19.2422C22.1746 19.0997 22.2002 18.943 22.2301 18.7949C22.6631 16.7212 23.689 14.8179 25.1831 13.3162C25.7626 12.7319 26.4057 12.2144 27.1005 11.7735C27.2601 11.6723 27.4239 11.5755 27.5891 11.4886C28.361 11.0526 29.1833 10.7129 30.0379 10.4772C30.1461 10.4472 30.2544 10.4216 30.3641 10.3945L22.0321 20.2465Z" fill="#CCFF33"/>
<path d="M24.7942 21.0392C24.7939 23.1106 25.5808 25.1046 26.9956 26.6175C28.4103 28.1304 30.3472 29.049 32.4139 29.1874C32.5934 29.1988 32.7786 29.206 32.9623 29.206C35.1098 29.1776 37.1597 28.3046 38.6682 26.776C40.1768 25.2474 41.0226 23.1862 41.0226 21.0385C41.0226 18.8909 40.1768 16.8296 38.6682 15.301C37.1597 13.7724 35.1098 12.8995 32.9623 12.8711C32.7786 12.8711 32.5934 12.8711 32.4139 12.8896C30.3472 13.0287 28.4105 13.9478 26.9959 15.4608C25.5812 16.9739 24.7942 18.9679 24.7942 21.0392Z" fill="#196719"/>
<path opacity="0.4" d="M24.7942 21.0392C24.7939 23.1106 25.5808 25.1046 26.9956 26.6175C28.4103 28.1304 30.3472 29.049 32.4139 29.1874C32.5934 29.1988 32.7786 29.206 32.9623 29.206C35.1098 29.1776 37.1597 28.3046 38.6682 26.776C40.1768 25.2474 41.0226 23.1862 41.0226 21.0385C41.0226 18.8909 40.1768 16.8296 38.6682 15.301C37.1597 13.7724 35.1098 12.8995 32.9623 12.8711C32.7786 12.8711 32.5934 12.8711 32.4139 12.8896C30.3472 13.0287 28.4105 13.9478 26.9959 15.4608C25.5812 16.9739 24.7942 18.9679 24.7942 21.0392Z" fill="black"/>
<path d="M25.1573 21.0398C25.1573 21.1823 25.1573 21.3247 25.1687 21.4558C25.2702 23.3596 26.0653 25.1603 27.4038 26.518C28.7423 27.8757 30.5316 28.6962 32.4338 28.8248L32.5406 28.8319C32.683 28.8319 32.8169 28.8433 32.9565 28.8433C34.9126 28.847 36.7985 28.1153 38.2401 26.7932C39.6817 25.4712 40.5735 23.6555 40.7387 21.7065C40.7586 21.4857 40.7671 21.2634 40.7671 21.037C40.7671 20.8105 40.76 20.6253 40.7444 20.423C40.7125 20.0036 40.6458 19.5877 40.5449 19.1794C40.2035 17.794 39.4893 16.5284 38.4799 15.5199C37.4704 14.5115 36.2042 13.7986 34.8184 13.4586C34.4101 13.3577 33.9941 13.2909 33.5748 13.2591C33.3725 13.2435 33.1674 13.2363 32.9608 13.2363C32.7856 13.2363 32.6104 13.2363 32.438 13.2534C32.3896 13.2534 32.3412 13.2534 32.2956 13.2648C31.1586 13.3599 30.0568 13.7053 29.0691 14.2762C27.8801 14.96 26.8927 15.9454 26.2066 17.133C25.5205 18.3206 25.1601 19.6683 25.1616 21.0398H25.1573Z" fill="#196719"/>
<path opacity="0.5" d="M25.1573 21.0398C25.1573 21.1823 25.1573 21.3247 25.1687 21.4558C25.2702 23.3596 26.0653 25.1603 27.4038 26.518C28.7423 27.8757 30.5316 28.6962 32.4338 28.8248L32.5406 28.8319C32.683 28.8319 32.8169 28.8433 32.9565 28.8433C34.9126 28.847 36.7985 28.1153 38.2401 26.7932C39.6817 25.4712 40.5735 23.6555 40.7387 21.7065C40.7586 21.4857 40.7671 21.2634 40.7671 21.037C40.7671 20.8105 40.76 20.6253 40.7444 20.423C40.7125 20.0036 40.6458 19.5877 40.5449 19.1794C40.2035 17.794 39.4893 16.5284 38.4799 15.5199C37.4704 14.5115 36.2042 13.7986 34.8184 13.4586C34.4101 13.3577 33.9941 13.2909 33.5748 13.2591C33.3725 13.2435 33.1674 13.2363 32.9608 13.2363C32.7856 13.2363 32.6104 13.2363 32.438 13.2534C32.3896 13.2534 32.3412 13.2534 32.2956 13.2648C31.1586 13.3599 30.0568 13.7053 29.0691 14.2762C27.8801 14.96 26.8927 15.9454 26.2066 17.133C25.5205 18.3206 25.1601 19.6683 25.1616 21.0398H25.1573Z" fill="black"/>
<path d="M38.4595 26.5769C39.7761 25.2774 40.5845 23.5499 40.7387 21.7065C40.7586 21.4857 40.7686 21.2634 40.7686 21.037C40.7686 20.8105 40.76 20.6253 40.7444 20.423C40.7125 20.0036 40.6458 19.5877 40.5449 19.1794C40.2035 17.794 39.4894 16.5284 38.4799 15.5199C37.4704 14.5115 36.2042 13.7986 34.8184 13.4586C34.4101 13.3577 33.9942 13.2909 33.5748 13.2591C33.3725 13.2435 33.1674 13.2363 32.9608 13.2363C32.7856 13.2363 32.6104 13.2363 32.438 13.2534C32.3896 13.2534 32.3412 13.2534 32.2956 13.2648C31.1587 13.3599 30.0568 13.7053 29.0691 14.2762C28.7267 14.4767 28.4 14.7029 28.0919 14.9529C27.3625 15.6758 26.784 16.5364 26.3898 17.4847C25.9956 18.433 25.7936 19.4502 25.7955 20.4771C25.7955 20.6196 25.7955 20.7549 25.8084 20.8931C25.9092 22.7971 26.7041 24.5982 28.0427 25.956C29.3813 27.3138 31.171 28.1341 33.0734 28.2621H33.1788C33.3212 28.2692 33.4566 28.2735 33.5962 28.2735C35.3644 28.2752 37.08 27.672 38.458 26.5641L38.4595 26.5769Z" fill="#196719"/>
<path opacity="0.25" d="M38.4595 26.5769C39.7761 25.2774 40.5845 23.5499 40.7387 21.7065C40.7586 21.4857 40.7686 21.2634 40.7686 21.037C40.7686 20.8105 40.76 20.6253 40.7444 20.423C40.7125 20.0036 40.6458 19.5877 40.5449 19.1794C40.2035 17.794 39.4894 16.5284 38.4799 15.5199C37.4704 14.5115 36.2042 13.7986 34.8184 13.4586C34.4101 13.3577 33.9942 13.2909 33.5748 13.2591C33.3725 13.2435 33.1674 13.2363 32.9608 13.2363C32.7856 13.2363 32.6104 13.2363 32.438 13.2534C32.3896 13.2534 32.3412 13.2534 32.2956 13.2648C31.1587 13.3599 30.0568 13.7053 29.0691 14.2762C28.7267 14.4767 28.4 14.7029 28.0919 14.9529C27.3625 15.6758 26.784 16.5364 26.3898 17.4847C25.9956 18.433 25.7936 19.4502 25.7955 20.4771C25.7955 20.6196 25.7955 20.7549 25.8084 20.8931C25.9092 22.7971 26.7041 24.5982 28.0427 25.956C29.3813 27.3138 31.171 28.1341 33.0734 28.2621H33.1788C33.3212 28.2692 33.4566 28.2735 33.5962 28.2735C35.3644 28.2752 37.08 27.672 38.458 26.5641L38.4595 26.5769Z" fill="black"/>
<path d="M27.5891 11.4841C32.3057 9.04105 36.1362 10.3117 38.7003 11.8359C42.404 14.3217 44.7402 18.4856 43.4624 23.9884V23.977C42.9746 25.8073 42.0148 27.4775 40.6789 28.8204C42.0583 27.4734 43.0611 25.7889 43.5878 23.9343V23.9443C44.7659 19.3858 43.2844 15.7662 40.8128 13.212C38.1647 10.7704 33.6775 8.35871 27.5891 11.4841Z" fill="#CCFF33"/>
<g filter="url(#filter1_f_1917_41490)">
<path d="M33.351 17.9106C33.0759 17.3602 32.8924 17.2227 32.8351 17.2227C32.9567 17.3009 33.0071 17.7386 33.179 18.0825C33.5636 18.8516 34.1765 20.0431 36.1026 20.3182C38.0288 20.5934 38.0588 22.382 37.9944 23.0699C38.8543 20.8342 36.9484 19.9743 36.1026 19.9743C34.3829 19.9743 33.695 18.5985 33.351 17.9106Z" fill="#041004"/>
<path d="M33.867 22.382C33.867 21.1141 32.8925 20.5476 32.4912 20.4902C33.3167 21.0406 33.3511 21.866 33.3511 22.382C34.039 23.8954 35.3575 23.5858 35.9307 23.2419C34.211 23.2419 33.867 22.7259 33.867 22.382Z" fill="#041004"/>
<path d="M30.2555 19.6298C29.1548 19.2171 29.6249 18.3687 29.9115 18.082C29.7396 18.1394 29.2236 18.5292 29.2236 18.9419C29.2236 19.3547 29.9115 19.5725 30.2555 19.6298Z" fill="#041004"/>
</g>
<path d="M33.351 17.9106C33.0759 17.3602 32.8924 17.2227 32.8351 17.2227C32.9567 17.3009 33.0071 17.7386 33.179 18.0825C33.5636 18.8516 34.1765 20.0431 36.1026 20.3182C38.0288 20.5934 38.0588 22.382 37.9944 23.0699C38.8543 20.8342 36.9484 19.9743 36.1026 19.9743C34.3829 19.9743 33.695 18.5985 33.351 17.9106Z" fill="#CCFF33"/>
<path d="M33.867 22.382C33.867 21.1141 32.8925 20.5476 32.4912 20.4902C33.3167 21.0406 33.3511 21.866 33.3511 22.382C34.039 23.8954 35.3575 23.5858 35.9307 23.2419C34.211 23.2419 33.867 22.7259 33.867 22.382Z" fill="#CCFF33"/>
<path d="M30.2555 19.6298C29.1548 19.2171 29.6249 18.3687 29.9115 18.082C29.7396 18.1394 29.2236 18.5292 29.2236 18.9419C29.2236 19.3547 29.9115 19.5725 30.2555 19.6298Z" fill="#CCFF33"/>
<path d="M33.3402 17.0298C33.4235 16.983 33.5106 16.9394 33.6018 16.899C34.0518 16.6996 34.5633 16.5998 35.1361 16.5998C35.7191 16.5998 36.228 16.6996 36.6627 16.899C37.1 17.0985 37.4401 17.3759 37.683 17.7314C37.9259 18.0868 38.0512 18.4985 38.0589 18.9665H36.4671C36.4364 18.6571 36.3047 18.4167 36.072 18.2454C35.8393 18.074 35.5235 17.9884 35.1246 17.9884C34.8535 17.9884 34.6246 18.0267 34.438 18.1034C34.2781 18.167 34.1501 18.252 34.054 18.3587C33.7988 17.9868 33.6129 17.5977 33.4575 17.2725C33.4165 17.1866 33.3777 17.1052 33.3402 17.0298Z" fill="#2B892B"/>
<path d="M31.664 23.01C31.5821 23.0679 31.488 23.1175 31.3818 23.1589C31.1747 23.2408 30.9305 23.2817 30.6492 23.2817C30.3628 23.2817 30.1058 23.2382 29.8782 23.1513C29.6532 23.0618 29.4729 22.9301 29.3374 22.7562C29.2044 22.5797 29.129 22.3598 29.1111 22.0964H27.5039C27.5167 22.6616 27.6535 23.1359 27.9143 23.5195C28.1777 23.9005 28.5434 24.1882 29.0113 24.3825C29.4819 24.5769 30.0342 24.674 30.6684 24.674C31.3077 24.674 31.8536 24.5782 32.3062 24.3864C32.3086 24.3854 32.311 24.3844 32.3133 24.3833C31.9716 24.0743 31.6761 23.6844 31.6761 23.2565C31.6761 23.1723 31.6722 23.09 31.664 23.01Z" fill="#2B892B"/>
<path fill-rule="evenodd" clip-rule="evenodd" d="M33.2608 17.9277C33.6319 18.7349 34.1879 19.9443 35.8663 20.0842C37.9569 20.2584 38.2763 21.8263 38.1311 22.6974C37.9279 23.9169 36.0405 25.8333 32.9046 24.0911C32.6498 23.9495 32.0336 23.3943 32.0336 22.6974C32.0336 22.0005 31.6851 21.4779 30.814 21.3037C29.943 21.1294 27.5039 20.6068 27.6781 18.6904C27.8524 16.774 31.3367 15.7287 32.9046 17.2967C33.027 17.419 33.1329 17.6495 33.2608 17.9277ZM29.4203 18.6904C29.6526 17.9936 30.814 17.4709 31.6851 18.342C31.8333 18.4902 32.0335 18.6904 32.2077 19.2131C32.2198 19.2491 32.2315 19.2857 32.2433 19.3227C32.4561 19.9877 32.7219 20.8178 35.6921 21.4779C36.1128 21.5714 36.8071 21.8612 36.3889 22.6974C35.9708 23.5336 34.6468 23.3943 34.1241 23.0458C34.008 22.9878 33.6015 22.7494 33.6015 22.1747C33.6015 21.4779 33.4273 20.781 31.6851 20.0842C31.4776 20.0012 31.2246 19.9261 30.9634 19.8485C30.1279 19.6005 29.2079 19.3274 29.4203 18.6904Z" fill="#2B892B"/>
<mask id="mask0_1917_41490" style="mask-type:alpha" maskUnits="userSpaceOnUse" x="27" y="16" width="12" height="9">
<path d="M33.3402 17.0298C33.4235 16.983 33.5106 16.9394 33.6018 16.899C34.0518 16.6996 34.5633 16.5998 35.1361 16.5998C35.7191 16.5998 36.228 16.6996 36.6627 16.899C37.1 17.0985 37.4401 17.3759 37.683 17.7314C37.9259 18.0868 38.0512 18.4985 38.0589 18.9665H36.4671C36.4364 18.6571 36.3047 18.4167 36.072 18.2454C35.8393 18.074 35.5235 17.9884 35.1246 17.9884C34.8535 17.9884 34.6246 18.0267 34.438 18.1034C34.2781 18.167 34.1501 18.252 34.054 18.3587C33.7988 17.9868 33.6129 17.5977 33.4575 17.2725C33.4165 17.1866 33.3777 17.1052 33.3402 17.0298Z" fill="#2B892B"/>
<path d="M31.664 23.01C31.5821 23.0679 31.488 23.1175 31.3818 23.1589C31.1747 23.2408 30.9305 23.2817 30.6492 23.2817C30.3628 23.2817 30.1058 23.2382 29.8782 23.1513C29.6532 23.0618 29.4729 22.9301 29.3374 22.7562C29.2044 22.5797 29.129 22.3598 29.1111 22.0964H27.5039C27.5167 22.6616 27.6535 23.1359 27.9143 23.5195C28.1777 23.9005 28.5434 24.1882 29.0113 24.3825C29.4819 24.5769 30.0342 24.674 30.6684 24.674C31.3077 24.674 31.8536 24.5782 32.3062 24.3864C32.3086 24.3854 32.311 24.3844 32.3133 24.3833C31.9716 24.0743 31.6761 23.6844 31.6761 23.2565C31.6761 23.1723 31.6722 23.09 31.664 23.01Z" fill="#2B892B"/>
<path fill-rule="evenodd" clip-rule="evenodd" d="M33.2608 17.9277C33.6319 18.7349 34.1879 19.9443 35.8663 20.0842C37.9569 20.2584 38.2763 21.8263 38.1311 22.6974C37.9279 23.9169 36.0405 25.8333 32.9046 24.0911C32.6498 23.9495 32.0336 23.3943 32.0336 22.6974C32.0336 22.0005 31.6851 21.4779 30.814 21.3037C29.943 21.1294 27.5039 20.6068 27.6781 18.6904C27.8524 16.774 31.3367 15.7287 32.9046 17.2967C33.027 17.419 33.1329 17.6495 33.2608 17.9277ZM29.4203 18.6904C29.6526 17.9936 30.814 17.4709 31.6851 18.342C31.8333 18.4902 32.0335 18.6904 32.2077 19.2131C32.2198 19.2491 32.2315 19.2857 32.2433 19.3227C32.4561 19.9877 32.7219 20.8178 35.6921 21.4779C36.1128 21.5714 36.8071 21.8612 36.3889 22.6974C35.9708 23.5336 34.6468 23.3943 34.1241 23.0458C34.008 22.9878 33.6015 22.7494 33.6015 22.1747C33.6015 21.4779 33.4273 20.781 31.6851 20.0842C31.4776 20.0012 31.2246 19.9261 30.9634 19.8485C30.1279 19.6005 29.2079 19.3274 29.4203 18.6904Z" fill="#2B892B"/>
</mask>
<g mask="url(#mask0_1917_41490)">
<path opacity="0.15" d="M37.8013 11.2031C38.3761 11.4875 38.9252 11.8211 39.4424 12.2003L25.3269 28.8984C24.867 28.4511 24.447 27.9645 24.0719 27.444L37.8013 11.2031Z" fill="#CCFF33"/>
<path opacity="0.15" d="M36.2002 10.5664C36.5392 10.6718 36.8716 10.7924 37.1973 10.9282L23.7001 26.8942C23.512 26.5964 23.334 26.2916 23.1744 25.9753L36.2002 10.5664Z" fill="#CCFF33"/>
<path opacity="0.15" d="M41.9937 14.8301C42.3465 15.3419 42.6544 15.8834 42.9139 16.4483L30.0933 31.6179L29.9195 31.5709C29.3826 31.4137 28.8588 31.2151 28.3525 30.9769L41.9937 14.8301Z" fill="#CCFF33"/>
</g>
<mask id="path-28-inside-1_1917_41490" fill="white">
<path fill-rule="evenodd" clip-rule="evenodd" d="M22.6054 27H21C16.0294 27 12 31.0294 12 36C12 40.9706 16.0294 45 21 45H45C49.9706 45 54 40.9706 54 36C54 31.0294 49.9706 27 45 27H43.3946C41.3198 30.5868 37.4417 33 33 33C28.5583 33 24.6802 30.5868 22.6054 27Z"/>
</mask>
<g filter="url(#filter2_i_1917_41490)">
<path fill-rule="evenodd" clip-rule="evenodd" d="M22.6054 27H21C16.0294 27 12 31.0294 12 36C12 40.9706 16.0294 45 21 45H45C49.9706 45 54 40.9706 54 36C54 31.0294 49.9706 27 45 27H43.3946C41.3198 30.5868 37.4417 33 33 33C28.5583 33 24.6802 30.5868 22.6054 27Z" fill="#104210"/>
</g>
<path d="M22.6054 27L23.471 26.4993L23.1822 26H22.6054V27ZM43.3946 27V26H42.8178L42.529 26.4993L43.3946 27ZM21 28H22.6054V26H21V28ZM13 36C13 31.5817 16.5817 28 21 28V26C15.4772 26 11 30.4772 11 36H13ZM21 44C16.5817 44 13 40.4183 13 36H11C11 41.5228 15.4772 46 21 46V44ZM45 44H21V46H45V44ZM53 36C53 40.4183 49.4183 44 45 44V46C50.5228 46 55 41.5228 55 36H53ZM45 28C49.4183 28 53 31.5817 53 36H55C55 30.4772 50.5228 26 45 26V28ZM43.3946 28H45V26H43.3946V28ZM42.529 26.4993C40.6255 29.7898 37.0703 32 33 32V34C37.8131 34 42.014 31.3838 44.2602 27.5007L42.529 26.4993ZM33 32C28.9297 32 25.3745 29.7898 23.471 26.4993L21.7398 27.5007C23.986 31.3838 28.1869 34 33 34V32Z" fill="#196719" mask="url(#path-28-inside-1_1917_41490)"/>
</g>
<path d="M56 44C50.49 44 46 48.49 46 54C46 59.51 50.49 64 56 64C61.51 64 66 59.51 66 54C66 48.49 61.51 44 56 44ZM60.78 51.7L55.11 57.37C54.97 57.51 54.78 57.59 54.58 57.59C54.38 57.59 54.19 57.51 54.05 57.37L51.22 54.54C50.93 54.25 50.93 53.77 51.22 53.48C51.51 53.19 51.99 53.19 52.28 53.48L54.58 55.78L59.72 50.64C60.01 50.35 60.49 50.35 60.78 50.64C61.07 50.93 61.07 51.4 60.78 51.7Z" fill="#27AE60"/>
<defs>
<filter id="filter0_di_1917_41490" x="0" y="0" width="66" height="66" filterUnits="userSpaceOnUse" color-interpolation-filters="sRGB">
<feFlood flood-opacity="0" result="BackgroundImageFix"/>
<feColorMatrix in="SourceAlpha" type="matrix" values="0 0 0 0 0 0 0 0 0 0 0 0 0 0 0 0 0 0 127 0" result="hardAlpha"/>
<feOffset dy="2"/>
<feGaussianBlur stdDeviation="2"/>
<feColorMatrix type="matrix" values="0 0 0 0 0.08 0 0 0 0 0.08 0 0 0 0 0.08 0 0 0 0.08 0"/>
<feBlend mode="normal" in2="BackgroundImageFix" result="effect1_dropShadow_1917_41490"/>
<feBlend mode="normal" in="SourceGraphic" in2="effect1_dropShadow_1917_41490" result="shape"/>
<feColorMatrix in="SourceAlpha" type="matrix" values="0 0 0 0 0 0 0 0 0 0 0 0 0 0 0 0 0 0 127 0" result="hardAlpha"/>
<feOffset dy="2"/>
<feGaussianBlur stdDeviation="2"/>
<feComposite in2="hardAlpha" operator="arithmetic" k2="-1" k3="1"/>
<feColorMatrix type="matrix" values="0 0 0 0 0.0627451 0 0 0 0 0.258824 0 0 0 0 0.0627451 0 0 0 0.5 0"/>
<feBlend mode="normal" in2="shape" result="effect2_innerShadow_1917_41490"/>
</filter>
<filter id="filter1_f_1917_41490" x="13.2236" y="1.22266" width="40.9886" height="38.3027" filterUnits="userSpaceOnUse" color-interpolation-filters="sRGB">
<feFlood flood-opacity="0" result="BackgroundImageFix"/>
<feBlend mode="normal" in="SourceGraphic" in2="BackgroundImageFix" result="shape"/>
<feGaussianBlur stdDeviation="8" result="effect1_foregroundBlur_1917_41490"/>
</filter>
<filter id="filter2_i_1917_41490" x="12" y="27" width="42" height="22" filterUnits="userSpaceOnUse" color-interpolation-filters="sRGB">
<feFlood flood-opacity="0" result="BackgroundImageFix"/>
<feBlend mode="normal" in="SourceGraphic" in2="BackgroundImageFix" result="shape"/>
<feColorMatrix in="SourceAlpha" type="matrix" values="0 0 0 0 0 0 0 0 0 0 0 0 0 0 0 0 0 0 127 0" result="hardAlpha"/>
<feOffset dy="4"/>
<feGaussianBlur stdDeviation="4"/>
<feComposite in2="hardAlpha" operator="arithmetic" k2="-1" k3="1"/>
<feColorMatrix type="matrix" values="0 0 0 0 0 0 0 0 0 0 0 0 0 0 0 0 0 0 0.24 0"/>
<feBlend mode="normal" in2="shape" result="effect1_innerShadow_1917_41490"/>
</filter>
</defs>
</svg>
