<svg width="25" height="25" viewBox="0 0 25 25" fill="none" xmlns="http://www.w3.org/2000/svg">
<path d="M18.57 9.3407L10.01 5.0607C4.26002 2.1807 1.90002 4.5407 4.78002 10.2907L5.65002 12.0307C5.90002 12.5407 5.90002 13.1307 5.65002 13.6407L4.78002 15.3707C1.90002 21.1207 4.25002 23.4807 10.01 20.6007L18.57 16.3207C22.41 14.4007 22.41 11.2607 18.57 9.3407ZM15.34 13.5807H9.94002C9.53002 13.5807 9.19002 13.2407 9.19002 12.8307C9.19002 12.4207 9.53002 12.0807 9.94002 12.0807H15.34C15.75 12.0807 16.09 12.4207 16.09 12.8307C16.09 13.2407 15.75 13.5807 15.34 13.5807Z" fill="#FAFAFA"/>
</svg>
