<svg width="24" height="24" viewBox="0 0 24 24" fill="none" xmlns="http://www.w3.org/2000/svg">
<path d="M21.7969 4.6294C21.2998 3.76841 20.4101 3.24434 19.4153 3.22833L5.90076 3.00071C4.09921 2.9704 2.58367 4.12141 2.12983 5.86537C1.676 7.60934 2.43675 9.35254 4.02409 10.2054L8.22889 12.4637L8.08219 17.2343C8.02715 19.0354 9.15648 20.5658 10.8937 21.0448C10.9034 21.0474 10.9121 21.0497 10.9217 21.0523C12.6498 21.5153 14.39 20.7776 15.2601 19.2114L21.8202 7.39369C22.303 6.52298 22.294 5.4904 21.7969 4.6294ZM20.5086 6.66324L13.9484 18.4811C13.291 19.6632 12.1081 19.8007 11.2919 19.5975C10.4772 19.373 9.54026 18.6313 9.58169 17.2789L9.72918 12.4629L14.9123 9.47052C15.2712 9.26334 15.3941 8.80449 15.187 8.44564C14.9798 8.08679 14.5209 7.96384 14.1621 8.17102L8.97894 11.1636L4.73448 8.88331C3.54259 8.243 3.36869 7.06063 3.5816 6.24287C3.79476 5.42415 4.52359 4.47755 5.87674 4.50055L19.3904 4.72793C19.5007 4.72954 19.6084 4.74489 19.7108 4.77233C20.0392 4.86033 20.3214 5.07475 20.4977 5.37874C20.7289 5.77923 20.7327 6.25949 20.5086 6.66324Z" fill="#141414"/>
</svg>
