<svg width="24" height="24" viewBox="0 0 24 24" fill="none" xmlns="http://www.w3.org/2000/svg">
<path d="M12 15.25C10.2061 15.25 8.75 13.7939 8.75 12C8.75 10.2061 10.2061 8.75 12 8.75C13.7939 8.75 15.25 10.2061 15.25 12C15.25 13.7939 13.7939 15.25 12 15.25ZM12 9.25C10.4839 9.25 9.25 10.4839 9.25 12C9.25 13.5161 10.4839 14.75 12 14.75C13.5161 14.75 14.75 13.5161 14.75 12C14.75 10.4839 13.5161 9.25 12 9.25Z" fill="#141414" stroke="#141414"/>
<path d="M9.29506 21.6259L9.29505 21.6258L9.28974 21.6273C8.78935 21.7623 8.27942 21.6906 7.84725 21.4313L7.84729 21.4312L7.83943 21.4267L6.11942 20.4367L6.11883 20.4363C5.62587 20.1535 5.26895 19.6938 5.11296 19.1305C4.96627 18.5649 5.04116 17.9912 5.32369 17.4988L5.32465 17.4972C5.48974 17.2068 5.60884 16.9076 5.656 16.6178C5.70286 16.33 5.68369 16.0141 5.52135 15.7372C5.21133 15.2083 4.53815 15.03 3.9 15.03C2.71614 15.03 1.75 14.0639 1.75 12.88V11.12C1.75 9.93615 2.71614 8.97001 3.9 8.97001C4.53815 8.97001 5.21133 8.79173 5.52135 8.26287C5.8349 7.728 5.64497 7.04842 5.32247 6.49906C5.04025 6.00589 4.96658 5.42242 5.11336 4.86796L5.11381 4.86622C5.25952 4.30766 5.61339 3.84904 6.1158 3.56542L6.1158 3.56543L6.11834 3.56398L7.84834 2.57398L7.84837 2.57403L7.85501 2.5701C8.74208 2.04413 9.92719 2.34717 10.4696 3.2645L10.4696 3.26451L10.4713 3.26726L10.5893 3.46395C10.92 4.03413 11.4019 4.47501 12.015 4.47501C12.6294 4.47501 13.1119 4.03237 13.4427 3.46053C13.4427 3.46047 13.4428 3.46042 13.4428 3.46036L13.5513 3.27287C13.5516 3.2725 13.5518 3.27213 13.552 3.27175C14.0945 2.34777 15.277 2.04444 16.1739 2.57942L16.1738 2.57947L16.1806 2.58336L17.9006 3.57336L17.9012 3.5737C18.3941 3.85655 18.7511 4.31623 18.907 4.87948C19.0537 5.4451 18.9788 6.01878 18.6963 6.51118L18.6954 6.51286C18.5303 6.8032 18.4112 7.10247 18.364 7.39218C18.3171 7.68 18.3363 7.99594 18.4987 8.27287C18.8087 8.80173 19.4819 8.98001 20.12 8.98001C21.3039 8.98001 22.27 9.94615 22.27 11.13V12.89C22.27 14.0739 21.3039 15.04 20.12 15.04C19.4818 15.04 18.8087 15.2183 18.4987 15.7472C18.1851 16.282 18.375 16.9616 18.6975 17.511C18.9824 18.0086 19.0608 18.59 18.9084 19.1355L18.9084 19.1354L18.9062 19.1438C18.7605 19.7024 18.4066 20.161 17.9042 20.4446L17.9017 20.446L16.1751 21.4341C15.8657 21.6044 15.5395 21.69 15.21 21.69C15.05 21.69 14.8823 21.6675 14.7042 21.6256C14.2097 21.4879 13.8 21.1782 13.5387 20.7428L13.4207 20.546C13.0899 19.9759 12.6081 19.535 11.995 19.535C11.3806 19.535 10.898 19.9777 10.5672 20.5497L10.4592 20.7362C10.4589 20.7367 10.4586 20.7372 10.4583 20.7377C10.1931 21.1869 9.7813 21.5004 9.29506 21.6259ZM13.8567 20.2895L13.8573 20.2905L13.9659 20.4781C13.9661 20.4785 13.9664 20.479 13.9667 20.4795C14.1561 20.8101 14.4704 21.043 14.8387 21.1351C15.1931 21.2237 15.5696 21.1839 15.8933 20.9911L17.6199 19.9931C17.9901 19.7795 18.2775 19.4226 18.3931 18.9888C18.5063 18.5644 18.451 18.1178 18.2331 17.7401L18.2322 17.7386C17.7242 16.8652 17.7069 16.0507 18.0341 15.4781C18.3586 14.9102 19.0688 14.52 20.09 14.52C21.0061 14.52 21.74 13.7862 21.74 12.87V11.11C21.74 10.2067 21.009 9.46001 20.09 9.46001C19.0688 9.46001 18.3586 9.06983 18.0341 8.50194C17.7069 7.92937 17.7242 7.11479 18.2322 6.2414L18.2331 6.23987C18.451 5.8622 18.5063 5.41562 18.3931 4.99118C18.2776 4.55816 18.0025 4.21598 17.642 3.99418L17.6353 3.99L17.6283 3.98604L15.903 2.99871C15.2278 2.59477 14.3551 2.8362 13.9595 3.50565L13.9595 3.50564L13.9573 3.50949L13.8473 3.69949L13.8467 3.70053C13.3372 4.58536 12.6503 5.00001 11.99 5.00001C11.3308 5.00001 10.6449 4.58665 10.1357 3.70464L10.0281 3.50905L10.024 3.50159L10.0196 3.49427C9.6304 2.84034 8.76766 2.60928 8.09931 2.9974C8.0991 2.99752 8.0989 2.99764 8.09869 2.99776L6.37014 3.99692C6.37005 3.99697 6.36995 3.99703 6.36986 3.99708C6.36983 3.99709 6.36981 3.99711 6.36978 3.99713C5.99973 4.21074 5.7125 4.56761 5.59688 5.00118C5.4837 5.42562 5.53902 5.8722 5.7569 6.24987L5.75779 6.2514C6.26579 7.1248 6.28306 7.93937 5.95588 8.51194C5.63137 9.07983 4.9212 9.47001 3.9 9.47001C2.98386 9.47001 2.25 10.2039 2.25 11.12V12.88C2.25 13.7833 2.98103 14.53 3.9 14.53C4.9212 14.53 5.63137 14.9202 5.95588 15.4881C6.28306 16.0607 6.26579 16.8752 5.75779 17.7486L5.75691 17.7502C5.53902 18.1278 5.4837 18.5744 5.59688 18.9988C5.71235 19.4319 5.98753 19.774 6.34795 19.9958L6.35474 20L6.36166 20.004L8.08504 20.9902C8.41615 21.1919 8.80356 21.2351 9.15373 21.1445C9.53454 21.0485 9.836 20.7987 10.0251 20.4932L10.029 20.4869L10.0327 20.4805L10.1422 20.2914C10.1423 20.2913 10.1424 20.2911 10.1424 20.291C10.6537 19.4123 11.3419 18.99 12 18.99C12.6603 18.99 13.3472 19.4047 13.8567 20.2895Z" fill="#141414" stroke="#141414"/>
</svg>
