<svg width="32" height="32" viewBox="0 0 32 32" fill="none" xmlns="http://www.w3.org/2000/svg">
<rect width="32" height="32" rx="16" fill="white"/>
<path d="M21.5 6.5C19.8431 6.5 18.5 7.84315 18.5 9.5C18.5 9.76447 18.5342 10.021 18.5985 10.2653C18.5276 10.2799 18.4577 10.3051 18.3909 10.3416L15.6343 11.8451L12.1279 13.8488C12.0921 13.8693 12.0586 13.8923 12.0275 13.9174C11.5801 13.6522 11.0578 13.5 10.5 13.5C8.84315 13.5 7.5 14.8431 7.5 16.5C7.5 18.1569 8.84315 19.5 10.5 19.5C11.3741 19.5 12.1608 19.1262 12.7091 18.5297L15.6357 20.1556L18.5902 21.7671C18.5313 22.0017 18.5 22.2472 18.5 22.5C18.5 24.1569 19.8431 25.5 21.5 25.5C23.1569 25.5 24.5 24.1569 24.5 22.5C24.5 20.8431 23.1569 19.5 21.5 19.5C20.6356 19.5 19.8565 19.8656 19.3091 20.4506L16.3617 18.843L13.4163 17.2066C13.471 16.98 13.5 16.7434 13.5 16.5C13.5 15.9603 13.3575 15.4539 13.108 15.0164L16.3657 13.1549L19.1091 11.6584C19.1762 11.6218 19.2354 11.5765 19.2862 11.5247C19.8347 12.1241 20.6235 12.5 21.5 12.5C23.1569 12.5 24.5 11.1569 24.5 9.5C24.5 7.84315 23.1569 6.5 21.5 6.5Z" fill="#196719"/>
</svg>
