<svg width="48" height="56" viewBox="0 0 48 56" fill="none" xmlns="http://www.w3.org/2000/svg">
<path d="M47.6975 13.5346C47.6975 13.5346 44.6626 37.8368 39.6738 43.3015C33.6686 49.8609 29.3403 48.9001 26.9244 52.2861C24.5039 48.8955 20.1618 49.8609 14.1659 43.2969C9.17702 37.8322 6.15137 13.53 6.15137 13.53C19.2933 7.1507 26.9383 0 26.9383 0C27.16 0.230966 34.7588 7.25695 47.6975 13.5346Z" fill="#2B892B"/>
<path opacity="0.1" d="M26.9244 0.0230962V52.2861C24.5039 48.8955 20.1618 49.8609 14.1659 43.2969C9.17702 37.8322 6.15137 13.53 6.15137 13.53C19.2933 7.1507 26.9383 0 26.9383 0L26.9244 0.0230962Z" fill="#0C450C"/>
<path d="M9.37085 15.4934C9.37085 15.4934 11.93 36.0216 16.1428 40.6409C21.224 46.1841 24.8825 45.3757 26.9243 48.2305C28.966 45.3757 32.6384 46.1887 37.7011 40.6409C41.9139 36.0216 44.473 15.4934 44.473 15.4934C33.3867 10.1026 26.9196 4.06055 26.9196 4.06055C26.9196 4.06055 20.4711 10.1026 9.37085 15.4934Z" fill="#196719"/>
<path opacity="0.4" d="M44.4685 15.4939C44.4685 15.4939 41.9048 36.0175 37.6919 40.6415C32.6338 46.1846 28.9614 45.3763 26.9197 48.2264V4.07031C27.1137 4.25509 33.5392 10.1863 44.4685 15.4939Z" fill="#BDFFBD"/>
<path d="M26.9198 34.2843C31.4149 34.2843 35.059 30.6403 35.059 26.1451C35.059 21.6499 31.4149 18.0059 26.9198 18.0059C22.4246 18.0059 18.7805 21.6499 18.7805 26.1451C18.7805 30.6403 22.4246 34.2843 26.9198 34.2843Z" fill="#0C450C"/>
<path d="M25.9958 31.4342L22.3696 27.6648L23.7139 26.3714L25.714 28.4501L30.0192 21.8398L31.5852 22.8607L25.9958 31.4342Z" fill="white"/>
<path d="M44.4684 48.7157L43.3182 48.9328L43.0595 50.1431L42.8008 48.9328L41.6506 48.7157L42.7962 48.4386L43.0595 47.293L43.3228 48.4386L44.4684 48.7157Z" fill="#2B892B"/>
<path d="M10.3732 39.4899L9.223 39.7024L8.96432 40.9172L8.70564 39.7024L7.55542 39.4899L8.70102 39.2081L8.96432 38.0625L9.22763 39.2081L10.3732 39.4899Z" fill="#2B892B"/>
<path d="M15.6254 7.50549L14.4752 7.71798L14.2165 8.92824L13.9624 7.71798L12.8076 7.50088L13.9578 7.22372L14.2165 6.07812L14.4798 7.22372L15.6254 7.50549Z" fill="#2B892B"/>
<path d="M42.4082 43.2601L41.7661 43.3802L41.6229 44.0592L41.4797 43.3802L40.833 43.2601L41.4751 43.103L41.6229 42.4609L41.7661 43.103L42.4082 43.2601Z" fill="#2B892B"/>
<path d="M46.8567 29.7574L46.2146 29.8775L46.0714 30.5566L45.9282 29.8775L45.2815 29.7574L45.9236 29.6004L46.0714 28.9629L46.2192 29.6004L46.8567 29.7574Z" fill="#2B892B"/>
<path d="M41.3967 6.07844L40.7546 6.19854L40.6114 6.87296L40.4636 6.19854L39.8215 6.07844L40.4636 5.92138L40.6114 5.2793L40.7546 5.92138L41.3967 6.07844Z" fill="#2B892B"/>
<path d="M24.9658 55.2054L24.3237 55.3255L24.1759 55.9999L24.0327 55.3255L23.3906 55.2054L24.0327 55.0483L24.1759 54.4062L24.3237 55.0483L24.9658 55.2054Z" fill="#2B892B"/>
<path d="M6.79785 41.0706L6.15575 41.1907L6.00795 41.8698L5.86475 41.1907L5.22266 41.0706L5.86475 40.9136L6.00795 40.2715L6.15575 40.9136L6.79785 41.0706Z" fill="#2B892B"/>
<path d="M7.80027 22.2698L7.15357 22.3899L7.01037 23.069L6.86718 22.3899L6.2251 22.2698L6.86255 22.1128L7.01037 21.4707L7.15819 22.1128L7.80027 22.2698Z" fill="#2B892B"/>
<path d="M34.7864 46.3047C34.7418 46.3117 34.7012 46.3344 34.6719 46.3687C34.6426 46.403 34.6265 46.4467 34.6265 46.4918C34.6265 46.5369 34.6426 46.5805 34.6719 46.6148C34.7012 46.6491 34.7418 46.6718 34.7864 46.6789C34.8309 46.6718 34.8715 46.6491 34.9008 46.6148C34.9302 46.5805 34.9463 46.5369 34.9463 46.4918C34.9463 46.4467 34.9302 46.403 34.9008 46.3687C34.8715 46.3344 34.8309 46.3117 34.7864 46.3047Z" fill="#2B892B"/>
<path d="M5.13036 12.4961C5.08579 12.5031 5.04521 12.5258 5.01589 12.5601C4.98658 12.5944 4.97046 12.6381 4.97046 12.6832C4.97046 12.7283 4.98658 12.7719 5.01589 12.8062C5.04521 12.8405 5.08579 12.8632 5.13036 12.8703C5.17493 12.8632 5.21553 12.8405 5.24484 12.8062C5.27416 12.7719 5.29028 12.7283 5.29028 12.6832C5.29028 12.6381 5.27416 12.5944 5.24484 12.5601C5.21553 12.5258 5.17493 12.5031 5.13036 12.4961Z" fill="#2B892B"/>
<path d="M40.6113 47.3535C40.5668 47.3605 40.5262 47.3832 40.4969 47.4175C40.4675 47.4518 40.4514 47.4955 40.4514 47.5406C40.4514 47.5857 40.4675 47.6294 40.4969 47.6637C40.5262 47.6979 40.5668 47.7207 40.6113 47.7277C40.6559 47.7207 40.6965 47.6979 40.7258 47.6637C40.7551 47.6294 40.7712 47.5857 40.7712 47.5406C40.7712 47.4955 40.7551 47.4518 40.7258 47.4175C40.6965 47.3832 40.6559 47.3605 40.6113 47.3535Z" fill="#2B892B"/>
<path d="M21.7231 18.2285C21.6741 18.2285 21.6271 18.248 21.5924 18.2826C21.5578 18.3173 21.5383 18.3643 21.5383 18.4133C21.5383 18.4623 21.5578 18.5093 21.5924 18.5439C21.6271 18.5786 21.6741 18.5981 21.7231 18.5981C21.7721 18.5981 21.8191 18.5786 21.8538 18.5439C21.8884 18.5093 21.9079 18.4623 21.9079 18.4133C21.9079 18.3643 21.8884 18.3173 21.8538 18.2826C21.8191 18.248 21.7721 18.2285 21.7231 18.2285Z" fill="#2B892B"/>
<path d="M4.45605 25.7383C4.41148 25.7453 4.37088 25.768 4.34156 25.8023C4.31225 25.8366 4.29614 25.8802 4.29614 25.9254C4.29614 25.9705 4.31225 26.0141 4.34156 26.0484C4.37088 26.0827 4.41148 26.1054 4.45605 26.1124C4.50061 26.1054 4.54121 26.0827 4.57053 26.0484C4.59984 26.0141 4.61595 25.9705 4.61595 25.9254C4.61595 25.8802 4.59984 25.8366 4.57053 25.8023C4.54121 25.768 4.50061 25.7453 4.45605 25.7383Z" fill="#2B892B"/>
<path d="M0.109182 23.707C0.0784887 23.7128 0.0507824 23.7291 0.0308443 23.7532C0.0109063 23.7772 0 23.8075 0 23.8387C0 23.8699 0.0109063 23.9002 0.0308443 23.9242C0.0507824 23.9482 0.0784887 23.9646 0.109182 23.9703C0.139874 23.9646 0.167595 23.9482 0.187533 23.9242C0.207471 23.9002 0.218377 23.8699 0.218377 23.8387C0.218377 23.8075 0.207471 23.7772 0.187533 23.7532C0.167595 23.7291 0.139874 23.7128 0.109182 23.707Z" fill="#2B892B"/>
<path d="M35.6917 3.64453C35.661 3.65031 35.6333 3.66662 35.6134 3.69066C35.5934 3.7147 35.5825 3.74495 35.5825 3.77618C35.5825 3.80741 35.5934 3.83766 35.6134 3.8617C35.6333 3.88574 35.661 3.90206 35.6917 3.90783C35.7224 3.90206 35.7501 3.88574 35.7701 3.8617C35.79 3.83766 35.8009 3.80741 35.8009 3.77618C35.8009 3.74495 35.79 3.7147 35.7701 3.69066C35.7501 3.66662 35.7224 3.65031 35.6917 3.64453Z" fill="#2B892B"/>
<path d="M17.2791 48.8066C17.2484 48.8124 17.2207 48.8287 17.2008 48.8528C17.1808 48.8768 17.1699 48.9071 17.1699 48.9383C17.1699 48.9695 17.1808 48.9998 17.2008 49.0238C17.2207 49.0479 17.2484 49.0642 17.2791 49.0699C17.3098 49.0642 17.3375 49.0479 17.3575 49.0238C17.3774 48.9998 17.3883 48.9695 17.3883 48.9383C17.3883 48.9071 17.3774 48.8768 17.3575 48.8528C17.3375 48.8287 17.3098 48.8124 17.2791 48.8066Z" fill="#2B892B"/>
<path d="M13.1541 46.3828C13.0661 46.3928 12.9849 46.4348 12.926 46.5009C12.8671 46.5669 12.8345 46.6523 12.8345 46.7408C12.8345 46.8293 12.8671 46.9147 12.926 46.9808C12.9849 47.0468 13.0661 47.0888 13.1541 47.0988C13.242 47.0888 13.3232 47.0468 13.3821 46.9808C13.441 46.9147 13.4736 46.8293 13.4736 46.7408C13.4736 46.6523 13.441 46.5669 13.3821 46.5009C13.3232 46.4348 13.242 46.3928 13.1541 46.3828Z" fill="#2B892B"/>
</svg>
