<svg width="64" height="64" viewBox="0 0 64 64" fill="none" xmlns="http://www.w3.org/2000/svg">
<g filter="url(#filter0_d_655_23809)">
<rect x="16" y="12" width="32" height="32" rx="8" fill="white"/>
<path d="M35 38.75H29C23.57 38.75 21.25 36.43 21.25 31V25C21.25 19.57 23.57 17.25 29 17.25H35C40.43 17.25 42.75 19.57 42.75 25V31C42.75 36.43 40.43 38.75 35 38.75ZM29 18.75C24.39 18.75 22.75 20.39 22.75 25V31C22.75 35.61 24.39 37.25 29 37.25H35C39.61 37.25 41.25 35.61 41.25 31V25C41.25 20.39 39.61 18.75 35 18.75H29Z" fill="#141414"/>
<path d="M30.58 31.5801C30.38 31.5801 30.19 31.5001 30.05 31.3601L27.22 28.5301C26.93 28.2401 26.93 27.7601 27.22 27.4701C27.51 27.1801 27.99 27.1801 28.28 27.4701L30.58 29.7701L35.72 24.6301C36.01 24.3401 36.49 24.3401 36.78 24.6301C37.07 24.9201 37.07 25.4001 36.78 25.6901L31.11 31.3601C30.97 31.5001 30.78 31.5801 30.58 31.5801Z" fill="#141414"/>
</g>
<defs>
<filter id="filter0_d_655_23809" x="0" y="0" width="64" height="64" filterUnits="userSpaceOnUse" color-interpolation-filters="sRGB">
<feFlood flood-opacity="0" result="BackgroundImageFix"/>
<feColorMatrix in="SourceAlpha" type="matrix" values="0 0 0 0 0 0 0 0 0 0 0 0 0 0 0 0 0 0 127 0" result="hardAlpha"/>
<feOffset dy="4"/>
<feGaussianBlur stdDeviation="8"/>
<feColorMatrix type="matrix" values="0 0 0 0 0.08 0 0 0 0 0.08 0 0 0 0 0.08 0 0 0 0.08 0"/>
<feBlend mode="normal" in2="BackgroundImageFix" result="effect1_dropShadow_655_23809"/>
<feBlend mode="normal" in="SourceGraphic" in2="effect1_dropShadow_655_23809" result="shape"/>
</filter>
</defs>
</svg>
