<svg width="88" height="25" viewBox="0 0 88 25" fill="none" xmlns="http://www.w3.org/2000/svg">
<ellipse cx="10.4427" cy="5.06209" rx="2.03108" ry="2.03109" fill="#FCCE17"/>
<path d="M13.0074 7.82557C9.29343 11.5396 4.23023 6.0121 8.00225 2.24008C-1.91427 5 0.342136 22.3333 10.1784 22.3333C11.2665 16.6028 18.6654 10.7755 23.0177 6.08464C24.396 4.7064 23.9607 2.66081 23.0903 1.8774C21.3493 0.310577 19.681 1.20036 19.0281 1.80485L13.0074 7.82557Z" fill="#196719" stroke="#196719" stroke-width="1.93436" stroke-linecap="round"/>
<path d="M21.0423 1.61536C19.6851 1.61536 18.5808 2.71962 18.5808 4.07689C18.5808 5.43417 19.6851 6.53843 21.0423 6.53843C22.3996 6.53843 23.5039 5.43417 23.5039 4.07689C23.5039 2.71962 22.3996 1.61536 21.0423 1.61536ZM22.7346 5.21299H22.1995C22.1829 5.21295 22.1666 5.20856 22.1523 5.20025C22.1379 5.19194 22.126 5.18001 22.1177 5.16565L21.9267 4.83808C21.9141 4.81666 21.9105 4.79116 21.9165 4.76707L22.0924 4.05796C22.0959 4.04367 22.1027 4.0304 22.1123 4.01921C22.1218 4.00801 22.1339 3.9992 22.1474 3.99346L22.48 3.85263C22.4962 3.84574 22.5141 3.84353 22.5315 3.84625C22.549 3.84897 22.5653 3.85651 22.5787 3.86802L23.0713 4.29192C23.0835 4.30238 23.0928 4.31575 23.0983 4.33078C23.1039 4.3458 23.1056 4.362 23.1032 4.37784C23.0624 4.65776 22.9646 4.92634 22.8158 5.16695C22.8074 5.18099 22.7955 5.1926 22.7813 5.20067C22.7671 5.20874 22.751 5.21298 22.7346 5.21299ZM19.6047 3.85358L19.9373 3.99441C19.9508 4.00014 19.9628 4.00896 19.9724 4.02015C19.9819 4.03135 19.9888 4.04462 19.9923 4.05891L20.1681 4.76802C20.1742 4.79211 20.1705 4.81761 20.158 4.83902L19.967 5.16565C19.9587 5.18001 19.9468 5.19194 19.9324 5.20025C19.918 5.20856 19.9018 5.21295 19.8852 5.21299H19.35C19.3339 5.213 19.3179 5.20886 19.3038 5.20097C19.2897 5.19307 19.2778 5.18169 19.2693 5.1679C19.1206 4.92728 19.0228 4.65871 18.982 4.37879C18.9796 4.36294 18.9813 4.34675 18.9868 4.33172C18.9924 4.31669 19.0017 4.30333 19.0138 4.29287L19.5065 3.86897C19.5198 3.85755 19.5361 3.85006 19.5534 3.84734C19.5708 3.84463 19.5885 3.84679 19.6047 3.85358ZM22.6454 2.82116L22.4316 3.4292C22.4273 3.44163 22.4204 3.45302 22.4115 3.46266C22.4025 3.4723 22.3917 3.47997 22.3796 3.48518L22.0296 3.63346C22.0135 3.64026 21.9959 3.64248 21.9786 3.6399C21.9614 3.63731 21.9452 3.63 21.9318 3.61879L21.266 3.06033C21.2554 3.05152 21.2468 3.0405 21.2409 3.02803C21.2349 3.01556 21.2318 3.00194 21.2317 2.98814V2.59074C21.2317 2.57517 21.2355 2.55984 21.2429 2.54611C21.2502 2.53239 21.2609 2.52068 21.2738 2.51204L21.7807 2.17429C21.7939 2.16546 21.8091 2.16011 21.825 2.15872C21.8408 2.15734 21.8568 2.15996 21.8713 2.16636C22.163 2.29357 22.4218 2.48557 22.6281 2.72778C22.639 2.74045 22.6463 2.75575 22.6493 2.77215C22.6524 2.78854 22.651 2.80545 22.6454 2.82116ZM20.3039 2.17429L20.8109 2.51204C20.8238 2.52068 20.8344 2.53239 20.8418 2.54611C20.8491 2.55984 20.853 2.57517 20.853 2.59074V2.98814C20.853 3.00197 20.85 3.01563 20.8441 3.02816C20.8383 3.0407 20.8297 3.0518 20.8191 3.06068L20.1533 3.61914C20.14 3.63036 20.1238 3.63766 20.1065 3.64025C20.0893 3.64284 20.0717 3.64061 20.0556 3.63382L19.7051 3.48518C19.6929 3.48003 19.682 3.47241 19.673 3.46279C19.6639 3.45317 19.657 3.44177 19.6526 3.42932L19.4388 2.82127C19.4332 2.80551 19.432 2.78856 19.4351 2.77214C19.4382 2.75571 19.4456 2.74041 19.4565 2.72778C19.663 2.48532 19.922 2.29315 20.2139 2.16589C20.2284 2.15969 20.2443 2.1572 20.26 2.15867C20.2757 2.16014 20.2908 2.16551 20.3039 2.17429ZM20.5087 6.04956L20.2752 5.46151C20.2699 5.44814 20.2677 5.43373 20.2687 5.41938C20.2698 5.40502 20.2741 5.3911 20.2814 5.37867L20.4609 5.07098C20.4692 5.05662 20.4811 5.04469 20.4955 5.03638C20.5098 5.02807 20.5261 5.02368 20.5427 5.02364H21.542C21.5586 5.02368 21.5748 5.02807 21.5892 5.03638C21.6035 5.04469 21.6155 5.05662 21.6238 5.07098L21.8034 5.37867C21.8107 5.39109 21.815 5.40501 21.8161 5.41937C21.8172 5.43372 21.815 5.44813 21.8097 5.46151L21.5778 6.04932C21.5722 6.06369 21.5631 6.07646 21.5513 6.0865C21.5396 6.09655 21.5256 6.10357 21.5105 6.10695C21.2029 6.17756 20.8832 6.17756 20.5756 6.10695C20.5606 6.10352 20.5467 6.09651 20.5351 6.08651C20.5234 6.07651 20.5144 6.06383 20.5087 6.04956Z" fill="white"/>
<ellipse cx="21.0107" cy="4.10484" rx="1.86057" ry="1.86057" fill="#196719"/>
<g filter="url(#filter0_d_3006_57361)">
<ellipse cx="21.044" cy="4.11317" rx="1.41163" ry="1.41163" fill="white"/>
<ellipse cx="21.0438" cy="4.11314" rx="0.836521" ry="0.836524" fill="#FCCE17"/>
<path d="M22.6646 4.11307C22.6646 5.0082 21.939 5.73384 21.0439 5.73384C20.1487 5.73384 19.4231 5.0082 19.4231 4.11307C19.4231 3.21795 20.1487 2.49231 21.0439 2.49231C21.939 2.49231 22.6646 3.21795 22.6646 4.11307ZM19.7179 4.11307C19.7179 4.84536 20.3116 5.439 21.0439 5.439C21.7761 5.439 22.3698 4.84536 22.3698 4.11307C22.3698 3.38079 21.7761 2.78715 21.0439 2.78715C20.3116 2.78715 19.7179 3.38079 19.7179 4.11307Z" fill="#E0E0E0"/>
<path d="M22.194 4.11311C22.194 4.74836 21.679 5.26333 21.0438 5.26333C20.4085 5.26333 19.8936 4.74836 19.8936 4.11311C19.8936 3.47786 20.4085 2.96289 21.0438 2.96289C21.679 2.96289 22.194 3.47786 22.194 4.11311ZM20.1466 4.11311C20.1466 4.60861 20.5483 5.01028 21.0438 5.01028C21.5393 5.01028 21.9409 4.60861 21.9409 4.11311C21.9409 3.61762 21.5393 3.21594 21.0438 3.21594C20.5483 3.21594 20.1466 3.61762 20.1466 4.11311Z" fill="#70E000"/>
<path d="M22.194 4.11311C22.194 4.26416 22.1642 4.41373 22.1064 4.55328C22.0486 4.69283 21.9639 4.81963 21.8571 4.92644C21.7503 5.03325 21.6235 5.11797 21.4839 5.17578C21.3444 5.23358 21.1948 5.26333 21.0438 5.26333C20.8927 5.26333 20.7432 5.23358 20.6036 5.17578C20.4641 5.11797 20.3373 5.03325 20.2304 4.92644C20.1236 4.81963 20.0389 4.69283 19.9811 4.55328C19.9233 4.41373 19.8936 4.26416 19.8936 4.11311H20.1466C20.1466 4.23093 20.1698 4.34759 20.2149 4.45644C20.26 4.56529 20.3261 4.6642 20.4094 4.74751C20.4927 4.83082 20.5916 4.8969 20.7004 4.94199C20.8093 4.98708 20.926 5.01028 21.0438 5.01028C21.1616 5.01028 21.2783 4.98708 21.3871 4.94199C21.496 4.8969 21.5949 4.83082 21.6782 4.74751C21.7615 4.6642 21.8276 4.56529 21.8726 4.45644C21.9177 4.34759 21.9409 4.23093 21.9409 4.11311H22.194Z" fill="#196719"/>
<g clip-path="url(#clip0_3006_57361)">
<path d="M21.0439 3.26355C20.5755 3.26355 20.1943 3.64468 20.1943 4.11314C20.1943 4.5816 20.5755 4.96274 21.0439 4.96274C21.5124 4.96274 21.8935 4.5816 21.8935 4.11314C21.8935 3.64468 21.5124 3.26355 21.0439 3.26355ZM21.628 4.50526H21.4433C21.4376 4.50525 21.432 4.50373 21.427 4.50087C21.4221 4.498 21.418 4.49388 21.4151 4.48892L21.3492 4.37586C21.3448 4.36847 21.3436 4.35967 21.3457 4.35136L21.4064 4.10661C21.4076 4.10168 21.4099 4.0971 21.4132 4.09323C21.4165 4.08937 21.4207 4.08633 21.4253 4.08435L21.5401 4.03574C21.5457 4.03336 21.5519 4.0326 21.5579 4.03354C21.5639 4.03447 21.5696 4.03708 21.5742 4.04105L21.7442 4.18736C21.7484 4.19097 21.7516 4.19558 21.7536 4.20077C21.7555 4.20596 21.756 4.21154 21.7552 4.21701C21.7411 4.31363 21.7074 4.40632 21.656 4.48937C21.6531 4.49422 21.649 4.49823 21.6441 4.50101C21.6392 4.5038 21.6337 4.50526 21.628 4.50526ZM20.5477 4.03607L20.6625 4.08467C20.6672 4.08665 20.6713 4.08969 20.6746 4.09356C20.6779 4.09742 20.6803 4.102 20.6815 4.10693L20.7422 4.35168C20.7443 4.36 20.743 4.3688 20.7387 4.37619L20.6728 4.48892C20.6699 4.49388 20.6658 4.498 20.6608 4.50087C20.6559 4.50373 20.6503 4.50525 20.6445 4.50526H20.4598C20.4542 4.50527 20.4488 4.50384 20.4439 4.50111C20.439 4.49839 20.4349 4.49446 20.432 4.4897C20.3806 4.40665 20.3469 4.31395 20.3328 4.21734C20.332 4.21187 20.3325 4.20628 20.3345 4.2011C20.3364 4.19591 20.3396 4.1913 20.3438 4.18769L20.5138 4.04138C20.5184 4.03743 20.524 4.03485 20.53 4.03391C20.536 4.03298 20.5421 4.03372 20.5477 4.03607ZM21.5972 3.67973L21.5234 3.88959C21.5219 3.89388 21.5196 3.89782 21.5165 3.90114C21.5134 3.90447 21.5097 3.90711 21.5055 3.90891L21.3847 3.96009C21.3791 3.96244 21.373 3.96321 21.3671 3.96231C21.3611 3.96142 21.3555 3.9589 21.3509 3.95503L21.1211 3.76228C21.1175 3.75924 21.1145 3.75543 21.1124 3.75113C21.1104 3.74683 21.1093 3.74213 21.1093 3.73736V3.6002C21.1093 3.59483 21.1106 3.58954 21.1132 3.5848C21.1157 3.58006 21.1194 3.57602 21.1238 3.57304L21.2988 3.45646C21.3033 3.45342 21.3086 3.45157 21.3141 3.45109C21.3195 3.45061 21.325 3.45152 21.3301 3.45373C21.4307 3.49763 21.52 3.5639 21.5913 3.6475C21.595 3.65187 21.5975 3.65715 21.5986 3.66281C21.5996 3.66847 21.5992 3.67431 21.5972 3.67973ZM20.7891 3.45646L20.964 3.57304C20.9685 3.57602 20.9722 3.58006 20.9747 3.5848C20.9772 3.58954 20.9786 3.59483 20.9786 3.6002V3.73736C20.9786 3.74213 20.9775 3.74685 20.9755 3.75118C20.9735 3.7555 20.9706 3.75933 20.9669 3.7624L20.7371 3.95515C20.7325 3.95902 20.7269 3.96154 20.7209 3.96244C20.715 3.96333 20.7089 3.96256 20.7034 3.96022L20.5824 3.90891C20.5782 3.90714 20.5744 3.90451 20.5713 3.90119C20.5682 3.89787 20.5658 3.89393 20.5643 3.88963L20.4905 3.67977C20.4886 3.67433 20.4881 3.66848 20.4892 3.66281C20.4903 3.65714 20.4928 3.65186 20.4966 3.6475C20.5679 3.56382 20.6573 3.49749 20.758 3.45356C20.763 3.45142 20.7685 3.45057 20.7739 3.45107C20.7793 3.45158 20.7845 3.45343 20.7891 3.45646ZM20.8598 4.794L20.7792 4.59104C20.7773 4.58642 20.7766 4.58145 20.7769 4.5765C20.7773 4.57154 20.7788 4.56674 20.7813 4.56245L20.8433 4.45625C20.8461 4.45129 20.8502 4.44717 20.8552 4.44431C20.8601 4.44144 20.8658 4.43992 20.8715 4.43991H21.2164C21.2221 4.43992 21.2277 4.44144 21.2327 4.44431C21.2376 4.44717 21.2417 4.45129 21.2446 4.45625L21.3066 4.56245C21.3091 4.56673 21.3106 4.57154 21.311 4.57649C21.3114 4.58145 21.3106 4.58642 21.3088 4.59104L21.2288 4.79392C21.2268 4.79888 21.2237 4.80329 21.2196 4.80675C21.2156 4.81022 21.2107 4.81264 21.2055 4.81381C21.0993 4.83818 20.989 4.83818 20.8828 4.81381C20.8777 4.81263 20.8729 4.81021 20.8688 4.80676C20.8648 4.8033 20.8617 4.79893 20.8598 4.794Z" fill="#196719"/>
</g>
</g>
<path d="M11.8509 22.9861C12.2572 20.9999 14.4811 17.5879 17.2572 14.6666C20.7274 11.0149 17.2651 21.1347 11.8509 22.9861Z" fill="#FCCE17"/>
<path fill-rule="evenodd" clip-rule="evenodd" d="M57.2937 3.66663H54.2317V6.82153H53.4429V9.58208H54.2317V21.6498C54.2269 22.4129 54.3778 23.0446 54.6845 23.5448C54.9912 24.0451 55.4201 24.414 55.9711 24.6515C56.527 24.889 57.9118 24.9623 57.9118 24.9623C57.9118 24.9623 59.7527 25.1595 60.9852 24.6515V22.2638C60.1613 22.3624 59.1804 22.3624 58.3287 22.3624C58.1226 22.3624 57.9406 22.3295 57.7824 22.2638C57.6291 22.1981 57.5093 22.0844 57.423 21.9227C57.3368 21.756 57.2937 21.5235 57.2937 21.2254V9.58208H60.9358V6.82153H57.2937V3.66663Z" fill="black"/>
<path d="M47.9219 24.1736V5.79443H50.829V8.87695H50.9417C51.1388 8.20129 51.4696 7.69099 51.9342 7.34607C52.3988 6.99643 52.9337 6.8216 53.5391 6.8216C53.872 6.8216 54.3539 6.8216 54.6261 6.8216V9.5616C54.3539 9.56159 54.3539 9.56159 54.0818 9.5616C53.8097 9.56159 53.4719 9.5616 53.2654 9.5616C52.8243 9.5616 52.4301 9.65846 52.0828 9.85218C51.7403 10.0412 51.4681 10.3058 51.2663 10.646C51.0692 10.9862 50.9205 11.2607 50.9205 11.7048V24.1736H47.9219Z" fill="black"/>
<path d="M42.214 22.7398C41.2405 22.7398 40.3986 22.533 39.6883 22.1193C38.9822 21.7015 38.4369 21.1207 38.0526 20.377C36.9211 18.1756 37.0029 11.6786 38.0526 9.64783C38.4369 8.89994 38.9822 8.31917 39.6883 7.90553C40.3986 7.48772 41.2405 7.27881 42.214 7.27881C43.1875 7.27881 44.0273 7.48772 44.7335 7.90553C45.4437 8.31917 45.9911 8.89994 46.3755 9.64783C47.4251 11.6786 47.5069 18.1756 46.3755 20.377C45.9911 21.1207 45.4437 21.7015 44.7335 22.1193C44.0273 22.533 43.1875 22.7398 42.214 22.7398ZM42.2265 20.6716C42.6694 20.6716 43.0392 20.5462 43.3359 20.2955C43.6325 20.0407 43.856 19.6939 44.0064 19.2552C44.161 18.8165 44.2383 18.3172 44.2383 17.7573C44.2383 17.1974 44.161 11.177 44.0064 10.7383C43.856 10.2996 43.6325 9.95284 43.3359 9.69797C43.0392 9.4431 42.6694 9.31567 42.2265 9.31567C41.7795 9.31567 41.4034 9.4431 41.0984 9.69797C40.7976 9.95284 40.5699 10.2996 40.4153 10.7383C40.2649 11.177 40.1897 17.1974 40.1897 17.7573C40.1897 18.3172 40.2649 18.8165 40.4153 19.2552C40.5699 19.6939 40.7976 20.0407 41.0984 20.2955C41.4034 20.5462 41.7795 20.6716 42.2265 20.6716Z" fill="black"/>
<path d="M28.2429 22.9905V11.214L30.5848 10.8196V12.2583H30.6908C30.7949 12.0278 30.9454 11.7936 31.1424 11.5557C31.3432 11.3141 31.6034 11.1133 31.9231 10.9535C32.2465 10.7899 32.648 10.7081 33.1275 10.7081C33.752 10.7081 34.3282 10.8717 34.856 11.1988C35.3839 11.5222 35.8058 12.0111 36.1218 12.6653C36.4378 13.3158 36.5958 15.7092 36.5958 16.6906C36.5958 17.646 36.4415 18.4526 36.1329 19.1106C35.8281 19.7648 35.4118 20.2611 34.8839 20.5994C34.3598 20.9339 33.7724 21.1012 33.1219 21.1012C32.661 21.1012 32.2688 21.025 31.9454 20.8726C31.6257 20.7202 31.3636 20.5288 31.1592 20.2983C30.9547 20.0641 30.7986 19.828 30.6908 19.5901H30.6183V22.9905H28.2429ZM30.5681 16.6795C30.5681 17.1887 30.6387 17.633 30.78 18.0121C30.9213 18.3913 31.1257 18.6868 31.3934 18.8987C31.661 19.1069 31.9863 19.211 32.3692 19.211C32.7558 19.211 33.0829 19.105 33.3505 18.8931C33.6182 18.6775 33.8208 18.3801 33.9583 18.001C34.0996 17.6181 34.1702 17.1776 34.1702 16.6795C34.1702 16.1851 34.1014 14.1727 33.9639 13.7972C33.8263 13.4218 33.6238 13.1281 33.3561 12.9162C33.0885 12.7043 32.7595 12.5984 32.3692 12.5984C31.9826 12.5984 31.6554 12.7006 31.3878 12.9051C31.1238 13.1095 30.9213 13.3995 30.78 13.7749C30.6387 14.1504 30.5681 16.1702 30.5681 16.6795Z" fill="black"/>
<path d="M25.5051 13.6899C25.4716 13.3517 25.3276 13.0889 25.0732 12.9016C24.8188 12.7142 24.4735 12.6206 24.0374 12.6206C23.741 12.6206 23.4908 12.6625 23.2867 12.7464C23.0826 12.8275 22.9261 12.9407 22.8171 13.0861C22.7108 13.2314 22.6577 13.3964 22.6577 13.5809C22.6521 13.7347 22.6843 13.8689 22.7542 13.9835C22.8268 14.0981 22.9261 14.1974 23.0519 14.2812C23.1777 14.3623 23.3231 14.4336 23.488 14.4951C23.653 14.5538 23.8291 14.6041 24.0164 14.6461L24.788 14.8306C25.1626 14.9144 25.5065 15.0263 25.8196 15.1661C26.1327 15.3058 26.4039 15.4778 26.6332 15.6819C26.8624 15.8859 27.0399 16.1264 27.1657 16.4031C27.2943 16.6799 27.36 16.9972 27.3628 17.3551C27.36 17.8807 27.2258 18.3363 26.9603 18.7221C26.6975 19.1052 26.3172 19.4029 25.8196 19.6154C25.3248 19.825 24.7279 19.9299 24.029 19.9299C23.3357 19.9299 22.7318 19.8236 22.2174 19.6112C21.7058 19.3987 21.306 19.0842 21.018 18.6676C20.7329 18.2483 20.5833 17.7297 20.5693 17.1118H22.3264C22.346 17.3998 22.4285 17.6402 22.5738 17.8331C22.722 18.0232 22.9191 18.1672 23.1651 18.2651C23.4139 18.3601 23.6949 18.4076 24.008 18.4076C24.3155 18.4076 24.5825 18.3629 24.809 18.2734C25.0382 18.184 25.2157 18.0596 25.3416 17.9002C25.4674 17.7409 25.5303 17.5578 25.5303 17.3509C25.5303 17.158 25.473 16.9958 25.3583 16.8644C25.2465 16.733 25.0816 16.6212 24.8635 16.5289C24.6482 16.4367 24.384 16.3528 24.0709 16.2773L23.1358 16.0425C22.4117 15.8664 21.84 15.591 21.4206 15.2164C21.0013 14.8418 20.793 14.3371 20.7958 13.7025C20.793 13.1825 20.9314 12.7282 21.2109 12.3396C21.4933 11.951 21.8805 11.6477 22.3725 11.4296C22.8646 11.2116 23.4237 11.1025 24.05 11.1025C24.6874 11.1025 25.2437 11.2116 25.719 11.4296C26.197 11.6477 26.5689 11.951 26.8344 12.3396C27.1 12.7282 27.237 13.1783 27.2454 13.6899H25.5051Z" fill="black"/>
<path d="M84.5977 19.0468C84.0304 19.0468 83.5399 18.9228 83.1261 18.6749C82.7147 18.4244 82.397 18.0762 82.173 17.6303C81.6612 16.6055 81.6525 14.7993 82.173 13.763C82.397 13.3146 82.7147 12.9664 83.1261 12.7184C83.5399 12.4679 84.0304 12.3427 84.5977 12.3427C85.1649 12.3427 85.6542 12.4679 86.0656 12.7184C86.4794 12.9664 86.7983 13.3146 87.0223 13.763C87.5428 14.7993 87.5341 16.6055 87.0223 17.6303C86.7983 18.0762 86.4794 18.4244 86.0656 18.6749C85.6542 18.9228 85.1649 19.0468 84.5977 19.0468ZM84.605 17.8069C84.863 17.8069 85.0784 17.7317 85.2513 17.5814C85.4241 17.4286 85.5544 17.2207 85.642 16.9577C85.7321 16.6947 85.7771 15.6504 85.7771 15.3148C85.7771 14.9791 85.7321 14.6798 85.642 14.4168C85.5544 14.1537 85.4241 13.9458 85.2513 13.793C85.0784 13.6402 84.863 13.5638 84.605 13.5638C84.3445 13.5638 84.1254 13.6402 83.9477 13.793C83.7724 13.9458 83.6397 14.1537 83.5497 14.4168C83.462 14.6798 83.4182 14.9791 83.4182 15.3148C83.4182 15.6504 83.462 16.6947 83.5497 16.9577C83.6397 17.2207 83.7724 17.4286 83.9477 17.5814C84.1254 17.7317 84.3445 17.8069 84.605 17.8069Z" fill="black"/>
<path d="M76.9056 20.9165C76.0273 20.9165 75.2677 20.7299 74.6268 20.3567C73.9897 19.9798 73.4978 19.4558 73.1509 18.7847C72.3149 17.1581 72.3306 14.0955 73.1509 12.5083C73.4978 11.8335 73.9897 11.3095 74.6268 10.9363C75.2677 10.5593 76.0273 10.3708 76.9056 10.3708C77.784 10.3708 78.5417 10.5593 79.1788 10.9363C79.8196 11.3095 80.3135 11.8335 80.6603 12.5083C81.4807 14.0955 81.4963 17.1581 80.6603 18.7847C80.3135 19.4558 79.8196 19.9798 79.1788 20.3567C78.5417 20.7299 77.784 20.9165 76.9056 20.9165ZM76.9169 19.0505C77.3165 19.0505 77.6501 18.9374 77.9178 18.7112C78.1855 18.4813 78.3871 18.1684 78.5228 17.7726C78.6623 17.3767 78.7321 16.9263 78.7321 16.4211C78.7321 15.916 78.6623 13.888 78.5228 13.4922C78.3871 13.0964 78.1855 12.7835 77.9178 12.5535C77.6501 12.3236 77.3165 12.2086 76.9169 12.2086C76.5136 12.2086 76.1743 12.3236 75.8991 12.5535C75.6277 12.7835 75.4222 13.0964 75.2827 13.4922C75.147 13.888 75.0792 15.916 75.0792 16.4211C75.0792 16.9263 75.147 17.3767 75.2827 17.7726C75.4222 18.1684 75.6277 18.4813 75.8991 18.7112C76.1743 18.9374 76.5136 19.0505 76.9169 19.0505Z" fill="black"/>
<path d="M61.7246 24.43V3.66663H64.5283V9.88647H64.6139C64.7367 9.65844 64.9144 9.42673 65.147 9.19134C65.3839 8.95227 65.6911 8.75366 66.0684 8.59551C66.4501 8.43368 66.924 8.35277 67.49 8.35277C68.2271 8.35277 68.9072 8.5146 69.5303 8.83826C70.1533 9.15824 70.6513 9.64189 71.0243 10.2892C72.0871 12.1234 71.9896 19.7133 71.0375 21.4153C70.6777 22.0626 70.1862 22.5536 69.5632 22.8883C68.9445 23.2193 68.2513 23.3848 67.4834 23.3848C66.9394 23.3848 66.4765 23.3094 66.0947 23.1586C65.7174 23.0078 65.4081 22.8184 65.1667 22.5904C64.9254 22.3587 64.7411 22.1251 64.6139 21.8897H64.4888V24.43H61.7246ZM64.4691 12.7001C64.4691 13.204 64.5525 19.9533 64.7192 20.3285C64.8859 20.7036 65.1273 20.996 65.4432 21.2056C65.7591 21.4116 66.143 21.5146 66.5949 21.5146C67.0512 21.5146 67.4374 21.4098 67.7533 21.2001C68.0692 20.9868 68.3083 20.6926 68.4707 20.3174C68.6374 19.9386 68.7208 13.1929 68.7208 12.7001C68.7208 12.2109 68.6396 11.7806 68.4772 11.4091C68.3149 11.0377 68.0758 10.7471 67.7599 10.5375C67.4439 10.3278 67.0556 10.223 66.5949 10.223C66.1386 10.223 65.7525 10.3241 65.4366 10.5264C65.1251 10.7287 64.8859 11.0156 64.7192 11.3871C64.5525 11.7585 64.4691 12.1962 64.4691 12.7001Z" fill="black"/>
<defs>
<filter id="filter0_d_3006_57361" x="19.0758" y="2.23183" width="3.93607" height="3.93619" filterUnits="userSpaceOnUse" color-interpolation-filters="sRGB">
<feFlood flood-opacity="0" result="BackgroundImageFix"/>
<feColorMatrix in="SourceAlpha" type="matrix" values="0 0 0 0 0 0 0 0 0 0 0 0 0 0 0 0 0 0 127 0" result="hardAlpha"/>
<feOffset dy="0.0868266"/>
<feGaussianBlur stdDeviation="0.173653"/>
<feColorMatrix type="matrix" values="0 0 0 0 0.08 0 0 0 0 0.08 0 0 0 0 0.08 0 0 0 0.08 0"/>
<feBlend mode="normal" in2="BackgroundImageFix" result="effect1_dropShadow_3006_57361"/>
<feBlend mode="normal" in="SourceGraphic" in2="effect1_dropShadow_3006_57361" result="shape"/>
</filter>
<clipPath id="clip0_3006_57361">
<rect width="2.09131" height="2.09131" fill="white" transform="translate(19.9983 3.0675)"/>
</clipPath>
</defs>
</svg>
