<svg width="52" height="42" viewBox="0 0 52 42" fill="none" xmlns="http://www.w3.org/2000/svg">
<path fill-rule="evenodd" clip-rule="evenodd" d="M28.2803 3.39657C28.6837 3.16994 29.1061 2.95879 29.5476 2.76313C31.7284 1.79664 34.2066 1.31339 36.9822 1.31339C39.8073 1.31339 42.2731 1.79664 44.3796 2.76313C46.4985 3.72963 48.1465 5.07405 49.3236 6.7964C50.5007 8.51874 51.1079 10.5137 51.1451 12.7812H43.4317C43.283 11.2819 42.6449 10.1172 41.5173 9.28698C40.3897 8.45679 38.8594 8.04169 36.9264 8.04169C35.613 8.04169 34.504 8.22755 33.5994 8.59928C32.8248 8.90702 32.2047 9.31926 31.739 9.83601C30.5023 8.03418 29.6017 6.14869 28.849 4.57282C28.6503 4.15674 28.4619 3.76224 28.2803 3.39657Z" fill="#70E000"/>
<path fill-rule="evenodd" clip-rule="evenodd" d="M20.1583 32.3746C19.7613 32.6549 19.3055 32.8954 18.7909 33.0963C17.7873 33.4928 16.6039 33.691 15.2409 33.691C13.8531 33.691 12.6078 33.4804 11.505 33.0591C10.4146 32.6254 9.54106 31.9873 8.88433 31.1447C8.24 30.2897 7.87447 29.2241 7.78773 27.9478H0C0.061955 30.6862 0.724873 32.9847 1.98875 34.8434C3.26502 36.6896 5.03693 38.0836 7.30448 39.0253C9.58442 39.9671 12.2609 40.4379 15.3338 40.4379C18.4316 40.4379 21.0771 39.9732 23.2703 39.0439C23.2817 39.039 23.2931 39.0342 23.3045 39.0293C21.6488 37.532 20.217 35.6427 20.217 33.5689C20.217 33.1608 20.1977 32.7624 20.1583 32.3746Z" fill="#70E000"/>
<path fill-rule="evenodd" clip-rule="evenodd" d="M27.8958 7.74777C29.6938 11.659 32.3879 17.5192 40.521 18.197C50.6511 19.0413 52.1989 26.6389 51.4954 30.8598C50.5105 36.7692 41.365 46.0552 26.1698 37.6133C24.9348 36.9272 21.9489 34.2366 21.9489 30.8598C21.9489 27.4831 20.2605 24.9505 16.0396 24.1063C11.8187 23.2622 7.54595e-05 20.7295 0.844261 11.4435C1.68845 2.15752 18.5723 -2.90759 26.1698 4.69008C26.7627 5.283 27.276 6.39959 27.8958 7.74777ZM9.286 11.4435C10.4116 8.06687 16.0395 5.53431 20.2604 9.75517C20.9785 10.4732 21.9487 11.4436 22.793 13.9761C22.8511 14.1506 22.9079 14.3278 22.9654 14.5076C23.9966 17.7295 25.2841 21.7523 39.6767 24.9505C41.7155 25.4036 45.0795 26.8077 43.0534 30.8598C41.0274 34.9119 34.6115 34.2366 32.079 32.5482C31.5162 32.2668 29.5465 31.1118 29.5465 28.3273C29.5464 24.9506 28.7023 21.5738 20.2604 18.1971C19.2549 17.7949 18.0291 17.431 16.7631 17.0552C12.7149 15.8536 8.25706 14.5303 9.286 11.4435Z" fill="#FCCE17"/>
<path d="M40.521 18.197L40.5002 18.4462L40.521 18.197ZM27.8958 7.74777L27.6687 7.8522V7.8522L27.8958 7.74777ZM51.4954 30.8598L51.2488 30.8187L51.4954 30.8598ZM26.1698 37.6133L26.0484 37.8319L26.1698 37.6133ZM0.844261 11.4435L0.595288 11.4209L0.844261 11.4435ZM26.1698 4.69008L26.3466 4.5133L26.1698 4.69008ZM20.2604 9.75517L20.0836 9.93194L20.2604 9.75517ZM9.286 11.4435L9.52317 11.5226L9.286 11.4435ZM22.793 13.9761L22.5558 14.0552L22.5558 14.0552L22.793 13.9761ZM22.9654 14.5076L22.7273 14.5838V14.5838L22.9654 14.5076ZM39.6767 24.9505L39.6224 25.1946L39.6767 24.9505ZM43.0534 30.8598L42.8298 30.748L43.0534 30.8598ZM32.079 32.5482L32.2177 32.3402L32.2047 32.3316L32.1908 32.3246L32.079 32.5482ZM29.5465 28.3273L29.7965 28.3273L29.5465 28.3273ZM20.2604 18.1971L20.3533 17.9649L20.2604 18.1971ZM16.7631 17.0552L16.8343 16.8155L16.7631 17.0552ZM40.5417 17.9479C36.5404 17.6144 33.8901 16.0101 32.015 14.0138C30.1318 12.0089 29.0236 9.60251 28.123 7.64335L27.6687 7.8522C28.566 9.80422 29.7039 12.2836 31.6505 14.3561C33.6052 16.4372 36.3685 18.1018 40.5002 18.4462L40.5417 17.9479ZM51.742 30.9009C52.1012 28.7457 51.8877 25.7264 50.2834 23.1308C48.6711 20.5221 45.6751 18.3757 40.5417 17.9479L40.5002 18.4462C45.497 18.8626 48.3399 20.9372 49.8581 23.3936C51.3844 25.8631 51.5931 28.753 51.2488 30.8187L51.742 30.9009ZM26.0484 37.8319C33.7029 42.0844 39.8729 41.8895 44.2669 39.8449C48.6451 37.8078 51.235 33.9427 51.742 30.9009L51.2488 30.8187C50.7709 33.6863 48.2956 37.4189 44.056 39.3916C39.8323 41.3569 33.832 41.5841 26.2912 37.3948L26.0484 37.8319ZM21.6989 30.8598C21.6989 32.622 22.4772 34.1912 23.3975 35.3972C24.3168 36.6019 25.3975 37.4702 26.0484 37.8319L26.2912 37.3948C25.7072 37.0703 24.6774 36.2502 23.795 35.0939C22.9136 33.9389 22.1989 32.4743 22.1989 30.8598H21.6989ZM15.9906 24.3515C18.0601 24.7654 19.4796 25.5868 20.3836 26.6917C21.2877 27.7967 21.6989 29.213 21.6989 30.8598H22.1989C22.1989 29.1299 21.7659 27.5916 20.7706 26.3751C19.7751 25.1584 18.24 24.2915 16.0886 23.8612L15.9906 24.3515ZM0.595288 11.4209C0.160611 16.2023 2.99937 19.2344 6.41995 21.1585C9.83503 23.0795 13.8808 23.9295 15.9906 24.3515L16.0886 23.8612C13.9775 23.439 10.0035 22.6006 6.66508 20.7227C3.33217 18.848 0.683725 15.9707 1.09323 11.4662L0.595288 11.4209ZM26.3466 4.5133C22.4614 0.628075 16.2345 0.00302005 10.9071 1.49468C5.58939 2.98364 1.03127 6.62509 0.595288 11.4209L1.09323 11.4662C1.50144 6.97595 5.80733 3.44185 11.0419 1.97616C16.2669 0.513183 22.2807 1.15441 25.993 4.86685L26.3466 4.5133ZM28.123 7.64335C27.814 6.97128 27.5273 6.34747 27.2431 5.81752C26.9598 5.28959 26.6694 4.83615 26.3466 4.5133L25.993 4.86685C26.2631 5.13692 26.5258 5.53824 26.8024 6.05388C27.078 6.56751 27.3579 7.17609 27.6687 7.8522L28.123 7.64335ZM20.4372 9.57839C18.2623 7.4035 15.7087 6.9594 13.5509 7.50799C11.4079 8.05281 9.64304 9.58186 9.04883 11.3645L9.52317 11.5226C10.0545 9.92854 11.6664 8.50299 13.6741 7.99257C15.6669 7.48594 18.0377 7.88598 20.0836 9.93194L20.4372 9.57839ZM23.0301 13.8971C22.1696 11.3158 21.1722 10.3134 20.4372 9.57839L20.0836 9.93194C20.7848 10.6331 21.7278 11.5714 22.5558 14.0552L23.0301 13.8971ZM23.2035 14.4314C23.146 14.2519 23.0889 14.0732 23.0301 13.8971L22.5558 14.0552C22.6134 14.228 22.6697 14.4038 22.7273 14.5838L23.2035 14.4314ZM39.7309 24.7065C32.5486 23.1104 28.6727 21.3157 26.4672 19.5431C24.2769 17.7827 23.7156 16.0313 23.2035 14.4314L22.7273 14.5838C23.2464 16.2058 23.8445 18.0767 26.1539 19.9328C28.4481 21.7766 32.4123 23.5924 39.6224 25.1946L39.7309 24.7065ZM43.277 30.9716C43.798 29.9296 43.9837 29.0355 43.9163 28.2688C43.8486 27.4987 43.5272 26.8787 43.0732 26.3861C42.1767 25.4135 40.7621 24.9356 39.7309 24.7065L39.6224 25.1946C40.6301 25.4185 41.9169 25.8693 42.7056 26.725C43.0941 27.1466 43.3613 27.6657 43.4182 28.3126C43.4754 28.9631 43.3218 29.764 42.8298 30.748L43.277 30.9716ZM31.9403 32.7562C33.26 33.636 35.5534 34.2355 37.7707 34.1063C39.9901 33.977 42.2077 33.1103 43.277 30.9716L42.8298 30.748C41.8731 32.6614 39.8697 33.4832 37.7416 33.6071C35.6113 33.7312 33.4305 33.1488 32.2177 32.3402L31.9403 32.7562ZM29.2965 28.3273C29.2965 31.2561 31.3757 32.4761 31.9672 32.7718L32.1908 32.3246C31.6567 32.0576 29.7965 30.9676 29.7965 28.3273L29.2965 28.3273ZM20.1676 18.4292C24.3696 20.11 26.6424 21.7766 27.8691 23.4122C29.0886 25.0382 29.2964 26.663 29.2965 28.3273L29.7965 28.3273C29.7964 26.6149 29.5821 24.8629 28.2691 23.1122C26.9633 21.371 24.5931 19.6609 20.3533 17.9649L20.1676 18.4292ZM16.692 17.2949C17.9612 17.6716 19.175 18.0321 20.1676 18.4292L20.3533 17.9649C19.3349 17.5576 18.0969 17.1903 16.8343 16.8155L16.692 17.2949ZM9.04883 11.3645C8.76998 12.201 8.86053 12.9376 9.23499 13.5796C9.6026 14.2099 10.2319 14.729 10.995 15.1725C12.5184 16.0576 14.6777 16.697 16.692 17.2949L16.8343 16.8155C14.8003 16.2118 12.7067 15.5887 11.2462 14.7401C10.5176 14.3167 9.97225 13.8512 9.66689 13.3277C9.36838 12.8159 9.28755 12.2294 9.52317 11.5226L9.04883 11.3645Z" fill="#FCCE17"/>
</svg>
