<svg width="25" height="24" viewBox="0 0 25 24" fill="none" xmlns="http://www.w3.org/2000/svg">
<path d="M11.249 1.6V4.8V7.2V8.01568C6.72022 8.16592 3.25238 9.5464 3.24902 11.2V18.4C3.24902 20.1674 7.18886 21.6 12.049 21.6C16.9092 21.6 20.849 20.1674 20.849 18.4V11.2C20.8457 9.5464 17.3778 8.16592 12.849 8.01568V6.5L17.649 4.4L11.249 1.6ZM4.84902 13.0344C5.6727 13.4618 6.77126 13.8093 8.04902 14.0469V18.7938C6.1207 18.3632 4.84902 17.6318 4.84902 16.8V13.0344ZM19.249 13.0374V16.8C19.249 17.6318 17.9773 18.3632 16.049 18.7938V14.0499C17.3268 13.8125 18.4253 13.4648 19.249 13.0374ZM9.64902 14.275C10.4293 14.3568 11.237 14.3987 12.049 14.4C12.8607 14.3998 13.6684 14.3589 14.449 14.2781V19.0531C13.6949 19.1424 12.8951 19.2 12.049 19.2C11.2029 19.2 10.4031 19.1424 9.64902 19.0531V14.275Z" fill="#196719"/>
</svg>
