<svg width="21" height="20" viewBox="0 0 21 20" fill="none" xmlns="http://www.w3.org/2000/svg">
<path d="M5.44915 13.3332C5.54082 12.9248 5.37415 12.3415 5.08248 12.0498L3.05748 10.0248C2.42415 9.3915 2.17415 8.7165 2.35748 8.13317C2.54915 7.54984 3.14082 7.14984 4.02415 6.99984L6.62415 6.5665C6.99915 6.49984 7.45748 6.1665 7.63248 5.82484L9.06582 2.94984C9.48248 2.12484 10.0492 1.6665 10.6658 1.6665C11.2825 1.6665 11.8492 2.12484 12.2658 2.94984L13.6992 5.82484C13.8075 6.0415 14.0325 6.24984 14.2742 6.3915L5.29915 15.3665C5.18248 15.4832 4.98248 15.3748 5.01582 15.2082L5.44915 13.3332Z" fill="white"/>
<path d="M16.25 12.0501C15.95 12.3501 15.7833 12.9251 15.8833 13.3334L16.4583 15.8417C16.7 16.8834 16.55 17.6667 16.0333 18.0417C15.825 18.1917 15.575 18.2667 15.2833 18.2667C14.8583 18.2667 14.3583 18.1084 13.8083 17.7834L11.3667 16.3334C10.9833 16.1084 10.35 16.1084 9.96667 16.3334L7.525 17.7834C6.6 18.3251 5.80833 18.4167 5.3 18.0417C5.10833 17.9001 4.96667 17.7084 4.875 17.4584L15.0083 7.32508C15.3917 6.94174 15.9333 6.76674 16.4583 6.85841L17.3 7.00008C18.1833 7.15008 18.775 7.55008 18.9667 8.13341C19.15 8.71674 18.9 9.39174 18.2667 10.0251L16.25 12.0501Z" fill="white"/>
</svg>
