<svg width="120" height="86" viewBox="0 0 120 86" fill="none" xmlns="http://www.w3.org/2000/svg">
<path d="M4.67393 9.26725C4.83501 8.83194 5.4507 8.83194 5.61178 9.26725L6.45211 11.5382C6.50275 11.6751 6.61066 11.783 6.74752 11.8336L9.01846 12.6739C9.45377 12.835 9.45377 13.4507 9.01846 13.6118L6.74752 14.4521C6.61066 14.5028 6.50275 14.6107 6.45211 14.7475L5.61178 17.0185C5.4507 17.4538 4.83501 17.4538 4.67393 17.0185L3.83361 14.7475C3.78296 14.6107 3.67506 14.5028 3.5382 14.4521L1.26725 13.6118C0.831944 13.4507 0.831944 12.835 1.26725 12.6739L3.5382 11.8336C3.67506 11.783 3.78296 11.6751 3.83361 11.5382L4.67393 9.26725Z" fill="#70E000"/>
<path d="M110.964 2.0276C111.222 1.33111 112.207 1.33111 112.465 2.02761L113.67 5.28574C113.751 5.50471 113.924 5.67736 114.143 5.75839L117.401 6.964C118.097 7.22173 118.097 8.20684 117.401 8.46457L114.143 9.67018C113.924 9.75121 113.751 9.92386 113.67 10.1428L112.465 13.401C112.207 14.0975 111.222 14.0975 110.964 13.401L109.758 10.1428C109.677 9.92386 109.505 9.75121 109.286 9.67018L106.028 8.46457C105.331 8.20684 105.331 7.22173 106.028 6.964L109.286 5.75839C109.505 5.67736 109.677 5.50471 109.758 5.28574L110.964 2.0276Z" fill="#70E000"/>
<path d="M10.3839 80.5069C10.4483 80.3328 10.6946 80.3328 10.759 80.5069L11.234 81.7907C11.2543 81.8454 11.2975 81.8886 11.3522 81.9088L12.636 82.3839C12.8101 82.4483 12.8101 82.6946 12.636 82.759L11.3522 83.234C11.2975 83.2543 11.2543 83.2975 11.234 83.3522L10.759 84.636C10.6946 84.8101 10.4483 84.8101 10.3839 84.636L9.90882 83.3522C9.88857 83.2975 9.84541 83.2543 9.79066 83.234L8.5069 82.759C8.33278 82.6946 8.33278 82.4483 8.5069 82.3839L9.79066 81.9088C9.84541 81.8886 9.88857 81.8454 9.90882 81.7907L10.3839 80.5069Z" fill="#70E000"/>
</svg>
