<svg width="16" height="16" viewBox="0 0 16 16" fill="none" xmlns="http://www.w3.org/2000/svg">
<path d="M3.8269 10.6667C3.90023 10.34 3.7669 9.87333 3.53357 9.64L1.91356 8.01999C1.4069 7.51333 1.2069 6.97333 1.35356 6.50666C1.5069 6.04 1.98023 5.72 2.6869 5.59999L4.7669 5.25333C5.0669 5.2 5.43356 4.93333 5.57356 4.65999L6.72023 2.35999C7.05357 1.69999 7.5069 1.33333 8.00023 1.33333C8.49357 1.33333 8.9469 1.69999 9.28023 2.35999L10.4269 4.65999C10.5136 4.83333 10.6936 4.99999 10.8869 5.11333L3.7069 12.2933C3.61356 12.3867 3.45356 12.3 3.48023 12.1667L3.8269 10.6667Z" fill="#196719"/>
<path d="M12.4662 9.64C12.2262 9.88 12.0929 10.34 12.1729 10.6667L12.6329 12.6733C12.8262 13.5067 12.7062 14.1333 12.2929 14.4333C12.1262 14.5533 11.9262 14.6133 11.6929 14.6133C11.3529 14.6133 10.9529 14.4867 10.5129 14.2267L8.55954 13.0667C8.25288 12.8867 7.74621 12.8867 7.43954 13.0667L5.48621 14.2267C4.74621 14.66 4.11288 14.7333 3.70621 14.4333C3.55288 14.32 3.43954 14.1667 3.36621 13.9667L11.4729 5.86C11.7795 5.55333 12.2129 5.41333 12.6329 5.48666L13.3062 5.6C14.0129 5.72 14.4862 6.04 14.6395 6.50666C14.7862 6.97333 14.5862 7.51333 14.0795 8.02L12.4662 9.64Z" fill="#196719"/>
</svg>
