<svg width="24" height="24" viewBox="0 0 24 24" fill="none" xmlns="http://www.w3.org/2000/svg">
<rect width="24" height="24" rx="8" fill="#27AE60"/>
<path d="M12 5.33334C8.32671 5.33334 5.33337 8.32667 5.33337 12C5.33337 15.6733 8.32671 18.6667 12 18.6667C15.6734 18.6667 18.6667 15.6733 18.6667 12C18.6667 8.32667 15.6734 5.33334 12 5.33334ZM15.1867 10.4667L11.4067 14.2467C11.3134 14.34 11.1867 14.3933 11.0534 14.3933C10.92 14.3933 10.7934 14.34 10.7 14.2467L8.81337 12.36C8.62004 12.1667 8.62004 11.8467 8.81337 11.6533C9.00671 11.46 9.32671 11.46 9.52004 11.6533L11.0534 13.1867L14.48 9.76C14.6734 9.56667 14.9934 9.56667 15.1867 9.76C15.38 9.95334 15.38 10.2667 15.1867 10.4667Z" fill="white"/>
</svg>
