<svg width="24" height="24" viewBox="0 0 24 24" fill="none" xmlns="http://www.w3.org/2000/svg">
<rect width="24" height="24" rx="8" fill="#EB5757"/>
<path d="M12.0002 5.3335C8.32683 5.3335 5.3335 8.32683 5.3335 12.0002C5.3335 15.6735 8.32683 18.6668 12.0002 18.6668C15.6735 18.6668 18.6668 15.6735 18.6668 12.0002C18.6668 8.32683 15.6735 5.3335 12.0002 5.3335ZM14.2402 13.5335C14.4335 13.7268 14.4335 14.0468 14.2402 14.2402C14.1402 14.3402 14.0135 14.3868 13.8868 14.3868C13.7602 14.3868 13.6335 14.3402 13.5335 14.2402L12.0002 12.7068L10.4668 14.2402C10.3668 14.3402 10.2402 14.3868 10.1135 14.3868C9.98683 14.3868 9.86016 14.3402 9.76016 14.2402C9.56683 14.0468 9.56683 13.7268 9.76016 13.5335L11.2935 12.0002L9.76016 10.4668C9.56683 10.2735 9.56683 9.9535 9.76016 9.76016C9.9535 9.56683 10.2735 9.56683 10.4668 9.76016L12.0002 11.2935L13.5335 9.76016C13.7268 9.56683 14.0468 9.56683 14.2402 9.76016C14.4335 9.9535 14.4335 10.2735 14.2402 10.4668L12.7068 12.0002L14.2402 13.5335Z" fill="white"/>
</svg>
