<svg width="201" height="193" viewBox="0 0 201 193" fill="none" xmlns="http://www.w3.org/2000/svg">
<path opacity="0.7" d="M11.5932 60.0938C11.5932 60.0938 -0.549789 91.453 16.5148 123.03C33.5794 154.607 68.7278 171.288 96.8595 185.552C124.991 199.816 154.203 192.869 168.084 169.507C181.965 146.144 162.927 129.467 162.901 96.1525C162.875 62.8378 167.888 54.018 149.835 25.8732C131.781 -2.27165 87.5258 -8.50427 54.0587 12.3713C20.5915 33.2469 11.5932 60.0938 11.5932 60.0938Z" fill="#F3FFF3"/>
<path opacity="0.5" d="M8.68821 67.6605C25.1605 51.1926 39.1109 65.008 44.9908 42.8955C58.2661 -7.057 113.328 -6.58226 120.566 28.9625C133.611 92.9874 190.427 52.3294 190.005 98.1834C189.569 147.143 153.55 185.292 88.9589 189.086C31.0882 192.505 -18.6073 94.9473 8.68821 67.6605Z" fill="#BDFFBD"/>
<path opacity="0.2" d="M8.68821 67.6605C25.1605 51.1926 39.1109 65.008 44.9908 42.8955C58.2661 -7.057 113.328 -6.58225 120.566 28.9625C133.611 92.9874 190.427 52.3294 190.005 98.1834C189.569 147.143 153.55 185.292 88.9589 189.086C31.0882 192.505 -18.6073 94.9473 8.68821 67.6605Z" fill="#F3FFF3"/>
<path d="M197.161 9.91211H94.4597V146.322H197.161V9.91211Z" fill="#196719"/>
<g opacity="0.1">
<path d="M197.161 9.91211H94.4597V146.322H197.161V9.91211Z" fill="#196719"/>
</g>
<path d="M194.368 9.91211H91.6663V146.322H194.368V9.91211Z" fill="#42AB42"/>
<path d="M188.527 15.3586L97.8718 16.5137L99.4376 139.404L190.093 138.249L188.527 15.3586Z" fill="white"/>
<path d="M98.6076 14.9759L95.948 137.848L186.59 139.81L189.249 16.9379L98.6076 14.9759Z" fill="#C2C2C2"/>
<path d="M187.921 15.9336H97.2581V138.834H187.921V15.9336Z" fill="white"/>
<path d="M117.387 53.1693C114.967 53.2301 110.273 53.3235 107.853 53.3515C107.801 50.5487 107.815 46.6293 107.792 43.8078V43.5742H108.026C110.861 43.6022 114.771 43.5742 117.569 43.6303C117.537 46.0547 117.453 50.7495 117.387 53.1693ZM117.387 53.1693C117.326 50.8336 117.242 46.1622 117.21 43.8265L117.387 44.004C114.682 44.0367 110.772 44.046 108.044 44.06L108.278 43.8265C108.278 46.5873 108.254 50.4646 108.222 53.1693L108.044 52.9918C110.38 53.0198 115.075 53.1133 117.387 53.1693Z" fill="#C2C2C2"/>
<path d="M122.362 45.4101C129.225 45.0925 136.143 45.0925 143.005 45.4101C136.138 45.7324 129.225 45.7278 122.362 45.4101Z" fill="#C2C2C2"/>
<path d="M122.362 47.6668C139.964 47.3538 159.533 47.3632 177.149 47.6668C159.528 47.9658 139.969 47.9751 122.362 47.6668Z" fill="#C2C2C2"/>
<path d="M108.717 48.0041C109.063 48.2938 109.39 48.5927 109.717 48.8964C110.044 49.2 110.357 49.513 110.651 49.8307C111.282 50.452 111.889 51.0919 112.487 51.7413L111.417 51.8113C112.267 50.032 113.241 48.3148 114.332 46.6728C114.874 45.8568 115.45 45.0596 116.061 44.281C116.676 43.4944 117.344 42.75 118.06 42.0527C117.774 43.0093 117.424 43.9457 117.013 44.8556C116.616 45.7572 116.177 46.6401 115.705 47.4996C114.764 49.2236 113.706 50.8811 112.538 52.4607L111.95 53.2455L111.483 52.5307C110.987 51.7973 110.502 51.0592 110.034 50.3071C109.81 49.9241 109.567 49.5504 109.352 49.1626C109.137 48.7749 108.909 48.4059 108.717 48.0041Z" fill="#141414"/>
<path d="M117.387 70.726C114.967 70.7867 110.273 70.8801 107.853 70.9081C107.801 68.1053 107.815 64.1906 107.792 61.3644V61.1309H108.026C110.861 61.1589 114.771 61.1309 117.569 61.1916C117.537 63.6161 117.453 68.3062 117.387 70.726ZM117.387 70.726C117.326 68.3903 117.242 63.7188 117.21 61.3831L117.387 61.5653C114.682 61.598 110.772 61.6027 108.044 61.6167L108.278 61.3831C108.278 64.1439 108.254 68.0259 108.222 70.726L108.044 70.5484C110.38 70.5765 115.075 70.6699 117.387 70.726Z" fill="#C2C2C2"/>
<path d="M122.362 62.9529C129.225 62.6352 136.143 62.6306 143.005 62.9529C136.138 63.2705 129.225 63.2705 122.362 62.9529Z" fill="#C2C2C2"/>
<path d="M122.362 65.2041C139.964 64.8958 159.533 64.9005 177.149 65.2041C159.528 65.5077 139.969 65.5171 122.362 65.2041Z" fill="#C2C2C2"/>
<path d="M108.717 65.5406C109.063 65.8302 109.39 66.1292 109.717 66.4328C110.044 66.7364 110.357 67.0494 110.651 67.3671C111.282 67.9931 111.889 68.633 112.487 69.2824L111.417 69.3478C112.269 67.5784 113.243 65.8708 114.332 64.2372C114.874 63.4213 115.45 62.624 116.061 61.8455C116.675 61.0579 117.343 60.3134 118.06 59.6172C117.774 60.5738 117.425 61.5102 117.013 62.42C116.616 63.3263 116.177 64.2045 115.705 65.0687C114.764 66.7912 113.706 68.4472 112.538 70.0251L111.95 70.8146L111.483 70.0952C110.987 69.3664 110.502 68.6284 110.034 67.8716C109.81 67.4885 109.567 67.1148 109.352 66.7271C109.137 66.3394 108.909 65.9423 108.717 65.5406Z" fill="#141414"/>
<path d="M117.387 88.2471C114.967 88.3078 110.273 88.4013 107.853 88.4293C107.801 85.6264 107.815 81.7071 107.792 78.8856V78.666H108.026C110.861 78.694 114.771 78.666 117.569 78.7221C117.537 81.1465 117.453 85.8366 117.387 88.2611V88.2471ZM117.387 88.2471C117.326 85.9114 117.242 81.24 117.21 78.9043L117.387 79.0818C114.682 79.1145 110.772 79.1238 108.044 79.1378L108.278 78.9043C108.278 81.6651 108.254 85.5423 108.222 88.2471L108.044 88.0696C110.38 88.0976 115.075 88.191 117.387 88.2471Z" fill="#C2C2C2"/>
<path d="M122.362 80.4882C129.225 80.1706 136.143 80.1706 143.005 80.4882C136.138 80.8059 129.225 80.8059 122.362 80.4882Z" fill="#C2C2C2"/>
<path d="M122.362 82.7449C139.964 82.4319 159.533 82.4413 177.149 82.7449C159.528 83.0439 139.969 83.0532 122.362 82.7449Z" fill="#C2C2C2"/>
<path d="M117.387 105.785C114.967 105.845 110.273 105.939 107.853 105.967C107.801 103.164 107.815 99.2492 107.792 96.423V96.1895H108.026C110.861 96.2175 114.771 96.1895 117.569 96.2502C117.537 98.67 117.453 103.365 117.387 105.785ZM117.387 105.785C117.326 103.449 117.242 98.7774 117.21 96.4417L117.387 96.6239C114.682 96.6566 110.772 96.6613 108.044 96.6753L108.278 96.4417C108.278 99.2025 108.254 103.084 108.222 105.785L108.044 105.607C110.38 105.635 115.075 105.728 117.387 105.785Z" fill="#C2C2C2"/>
<path d="M122.362 98.0289C129.225 97.7065 136.143 97.7065 143.005 98.0289C136.138 98.3465 129.225 98.3465 122.362 98.0289Z" fill="#C2C2C2"/>
<path d="M122.362 100.282C139.964 99.9739 159.533 99.9786 177.149 100.282C159.528 100.586 139.969 100.595 122.362 100.282Z" fill="#C2C2C2"/>
<path d="M117.387 123.326C114.967 123.386 110.273 123.475 107.853 123.508C107.801 120.705 107.815 116.786 107.792 113.964V113.73H108.026C110.861 113.758 114.771 113.73 117.569 113.787C117.537 116.211 117.453 120.901 117.387 123.326ZM117.387 123.326C117.326 120.99 117.242 116.295 117.21 113.983L117.387 114.16C114.682 114.193 110.772 114.202 108.044 114.216L108.278 113.983C108.278 116.744 108.254 120.621 108.222 123.326L108.044 123.148C110.38 123.176 115.075 123.27 117.387 123.326Z" fill="#C2C2C2"/>
<path d="M122.362 115.57C129.225 115.253 136.143 115.253 143.005 115.57C136.138 115.888 129.225 115.888 122.362 115.57Z" fill="#C2C2C2"/>
<path d="M122.362 117.823C139.964 117.51 159.533 117.519 177.149 117.823C159.528 118.122 139.969 118.131 122.362 117.823Z" fill="#C2C2C2"/>
<path d="M134.064 29.0005H132.807V33.2048C132.807 33.32 132.762 33.4305 132.68 33.512C132.599 33.5935 132.488 33.6393 132.373 33.6393C132.258 33.6393 132.147 33.5935 132.066 33.512C131.984 33.4305 131.939 33.32 131.939 33.2048V29.0005H130.687C130.571 28.9993 130.461 28.9525 130.379 28.8703C130.298 28.7881 130.252 28.6771 130.252 28.5614C130.252 28.5042 130.262 28.4474 130.284 28.3944C130.306 28.3414 130.338 28.2933 130.378 28.2528C130.419 28.2124 130.467 28.1804 130.52 28.1588C130.573 28.1372 130.629 28.1264 130.687 28.127H134.064C134.121 28.1264 134.178 28.1372 134.231 28.1588C134.284 28.1804 134.332 28.2124 134.373 28.2528C134.413 28.2933 134.445 28.3414 134.467 28.3944C134.488 28.4474 134.499 28.5042 134.499 28.5614C134.492 28.675 134.444 28.7822 134.364 28.863C134.284 28.9439 134.178 28.9928 134.064 29.0005Z" fill="#196719"/>
<path d="M137.871 32.3542H135.952L135.564 33.3819C135.531 33.4638 135.474 33.534 135.401 33.5831C135.327 33.6323 135.241 33.6582 135.153 33.6575C135.102 33.6573 135.052 33.6495 135.003 33.6341C134.897 33.5885 134.811 33.5049 134.763 33.3996C134.714 33.2943 134.707 33.1747 134.742 33.0642L136.489 28.3928C136.525 28.3116 136.584 28.2424 136.659 28.1936C136.733 28.1448 136.82 28.1183 136.909 28.1172C136.998 28.1183 137.085 28.1448 137.16 28.1936C137.234 28.2424 137.293 28.3116 137.33 28.3928L139.077 33.0642C139.112 33.1747 139.104 33.2943 139.056 33.3996C139.007 33.5049 138.922 33.5885 138.815 33.6341C138.767 33.6495 138.716 33.6573 138.666 33.6575C138.578 33.6586 138.492 33.6327 138.419 33.5835C138.346 33.5342 138.291 33.4638 138.259 33.3819L137.871 32.3542ZM137.549 31.4853L136.909 29.7849L136.269 31.4853H137.549Z" fill="#196719"/>
<path d="M139.847 32.2834C139.882 32.2416 139.924 32.207 139.972 32.1816C140.019 32.1562 140.072 32.1404 140.125 32.1352C140.179 32.13 140.234 32.1355 140.285 32.1513C140.337 32.1671 140.385 32.1929 140.427 32.2273C140.85 32.5884 141.38 32.8016 141.936 32.8346C142.288 32.8428 142.635 32.7399 142.926 32.5403C143.023 32.4802 143.105 32.3974 143.163 32.299C143.222 32.2006 143.256 32.0894 143.262 31.9751C143.264 31.8844 143.24 31.7952 143.192 31.7181C143.131 31.6235 143.05 31.5437 142.954 31.4846C142.619 31.2967 142.254 31.1701 141.875 31.1108C141.523 31.0525 141.181 30.9489 140.856 30.8025C140.557 30.671 140.301 30.4571 140.118 30.1859C139.999 29.9904 139.938 29.7654 139.941 29.5366C139.949 29.3084 140.01 29.0851 140.119 28.8848C140.229 28.6844 140.384 28.5125 140.571 28.3827C140.974 28.1061 141.452 27.9609 141.94 27.967C142.565 27.9988 143.166 28.2186 143.664 28.5976C143.752 28.6582 143.813 28.751 143.833 28.8559C143.853 28.9608 143.831 29.0694 143.771 29.1582C143.743 29.2039 143.706 29.2434 143.663 29.2744C143.619 29.3054 143.569 29.3272 143.517 29.3386C143.465 29.3499 143.411 29.3506 143.358 29.3404C143.305 29.3303 143.255 29.3096 143.211 29.2797C142.85 28.9835 142.406 28.8057 141.94 28.7705C141.623 28.7659 141.313 28.8607 141.053 29.0414C140.966 29.0935 140.894 29.1658 140.842 29.2521C140.79 29.3383 140.76 29.436 140.754 29.5366C140.748 29.6154 140.768 29.6939 140.81 29.7608C140.865 29.8428 140.937 29.9127 141.02 29.9664C141.325 30.1429 141.661 30.2602 142.01 30.312C142.387 30.3777 142.754 30.4891 143.103 30.6437C143.423 30.7851 143.697 31.0133 143.893 31.3024C144.017 31.5047 144.084 31.7375 144.084 31.9751C144.077 32.2187 144.011 32.4569 143.892 32.6698C143.773 32.8827 143.605 33.0642 143.402 33.199C142.977 33.5059 142.465 33.6696 141.94 33.6661C141.197 33.6328 140.486 33.3553 139.918 32.8767C139.874 32.8425 139.837 32.7999 139.81 32.7515C139.783 32.7031 139.765 32.6498 139.759 32.5946C139.752 32.5395 139.757 32.4836 139.772 32.4301C139.787 32.3767 139.813 32.3268 139.847 32.2834Z" fill="#196719"/>
<path d="M145.294 33.2232V28.5985C145.294 28.4833 145.34 28.3728 145.421 28.2913C145.503 28.2098 145.613 28.1641 145.729 28.1641C145.844 28.1641 145.954 28.2098 146.036 28.2913C146.117 28.3728 146.163 28.4833 146.163 28.5985V30.8688L148.723 28.2995C148.763 28.2583 148.811 28.2255 148.864 28.2031C148.917 28.1807 148.974 28.1692 149.031 28.1692C149.089 28.1692 149.146 28.1807 149.199 28.2031C149.252 28.2255 149.3 28.2583 149.34 28.2995C149.421 28.3817 149.466 28.4925 149.466 28.6078C149.466 28.7232 149.421 28.834 149.34 28.9162L147.602 30.6446L149.358 32.9476C149.395 32.9911 149.423 33.0417 149.44 33.0964C149.457 33.151 149.462 33.2085 149.456 33.2653C149.45 33.3222 149.433 33.3772 149.404 33.4269C149.376 33.4767 149.338 33.5203 149.293 33.5549C149.217 33.6224 149.119 33.659 149.017 33.6577C148.955 33.6563 148.894 33.6414 148.839 33.614C148.783 33.5865 148.734 33.5472 148.695 33.4988L146.985 31.2612L146.163 32.1021V33.2232C146.163 33.3384 146.117 33.4489 146.036 33.5304C145.954 33.6119 145.844 33.6577 145.729 33.6577C145.613 33.6577 145.503 33.6119 145.421 33.5304C145.34 33.4489 145.294 33.3384 145.294 33.2232Z" fill="#196719"/>
<path d="M150.694 32.2834C150.728 32.2412 150.77 32.2062 150.817 32.1805C150.864 32.1548 150.916 32.1388 150.97 32.1336C151.023 32.1284 151.078 32.134 151.129 32.1501C151.18 32.1662 151.228 32.1924 151.269 32.2273C151.693 32.5878 152.222 32.8009 152.778 32.8346C153.131 32.8428 153.477 32.7399 153.768 32.5403C153.867 32.481 153.95 32.3986 154.009 32.3C154.068 32.2015 154.103 32.09 154.109 31.9751C154.112 31.8837 154.086 31.7939 154.035 31.7181C153.974 31.6246 153.895 31.545 153.801 31.4846C153.465 31.296 153.098 31.1694 152.717 31.1108C152.366 31.0525 152.024 30.9489 151.699 30.8025C151.4 30.672 151.145 30.4579 150.965 30.1859C150.843 29.9918 150.78 29.7661 150.783 29.5366C150.791 29.3084 150.852 29.0851 150.962 28.8848C151.071 28.6844 151.226 28.5125 151.414 28.3827C151.816 28.1061 152.294 27.9609 152.783 27.967C153.408 27.9979 154.009 28.2178 154.506 28.5976C154.597 28.6596 154.659 28.7549 154.679 28.8627C154.699 28.9704 154.676 29.0818 154.614 29.1722C154.552 29.2627 154.457 29.3248 154.349 29.3449C154.241 29.3651 154.13 29.3416 154.039 29.2797C153.678 28.9835 153.234 28.8057 152.769 28.7705C152.452 28.7659 152.141 28.8607 151.881 29.0414C151.796 29.0944 151.724 29.1669 151.672 29.253C151.62 29.3391 151.589 29.4363 151.582 29.5366C151.579 29.6151 151.598 29.693 151.638 29.7608C151.696 29.8428 151.769 29.9126 151.853 29.9664C152.157 30.1429 152.491 30.2602 152.839 30.312C153.214 30.3783 153.579 30.4897 153.927 30.6437C154.247 30.7851 154.52 31.0133 154.717 31.3024C154.843 31.5038 154.91 31.7372 154.908 31.9751C154.9 32.2187 154.834 32.4569 154.716 32.6698C154.597 32.8827 154.429 33.0642 154.226 33.199C153.801 33.5065 153.289 33.6702 152.764 33.6661C152.022 33.6307 151.311 33.3535 150.741 32.8767C150.699 32.8412 150.664 32.7975 150.638 32.7482C150.613 32.699 150.597 32.6451 150.593 32.5899C150.588 32.5346 150.595 32.479 150.613 32.4263C150.63 32.3737 150.658 32.3251 150.694 32.2834Z" fill="#196719"/>
<path d="M164.298 7.42383H119.765V20.999H164.298V7.42383Z" fill="#C2C2C2"/>
<path d="M155.646 0H128.01L126.786 7.42289H157.281L155.646 0ZM142.029 5.32542C141.707 5.32542 141.391 5.22981 141.123 5.05066C140.855 4.87152 140.646 4.6169 140.523 4.319C140.399 4.02109 140.367 3.69329 140.43 3.37704C140.493 3.06078 140.648 2.77029 140.876 2.54228C141.104 2.31428 141.395 2.159 141.711 2.0961C142.027 2.03319 142.355 2.06548 142.653 2.18887C142.951 2.31227 143.205 2.52123 143.385 2.78934C143.564 3.05744 143.659 3.37265 143.659 3.6951C143.66 3.90937 143.618 4.12165 143.536 4.31973C143.455 4.5178 143.335 4.69778 143.183 4.84929C143.032 5.0008 142.852 5.12087 142.654 5.20258C142.456 5.28429 142.243 5.32604 142.029 5.32542Z" fill="#C2C2C2"/>
<path d="M157.281 7.42203H126.786L127.062 5.76367H156.912L157.281 7.42203Z" fill="#A3A3A3"/>
<path d="M0.821045 192.464C64.6794 192.179 136.32 192.174 200.179 192.464C136.32 192.753 64.6794 192.748 0.821045 192.464Z" fill="#141414"/>
<path d="M95.6788 192.459C94.539 192.832 61.9605 192.417 60.7319 191.609C60.2647 191.314 60.0452 186.563 59.9471 180.818V180.635C59.9237 179.454 59.9097 178.23 59.905 176.996C59.905 176.823 59.905 176.655 59.905 176.487L61.4793 159.586L83.2715 159.796L81.1273 176.539L81.0993 177.202L80.9685 180.668V181.023C80.9685 181.023 93.3664 186.76 94.6231 187.787C95.8797 188.815 96.8233 192.099 95.6788 192.459Z" fill="#B57269"/>
<path d="M95.6788 192.46C94.539 192.834 61.9605 192.418 60.7319 191.61C60.2647 191.315 60.0452 186.565 59.9471 180.819V180.637C59.9237 179.455 59.9097 178.231 59.905 176.997C59.905 176.825 59.905 176.656 59.905 176.488L81.1273 176.54L81.0993 177.203L80.9685 180.669V181.024C80.9685 181.024 93.3664 186.761 94.6231 187.788C95.8797 188.816 96.8233 192.1 95.6788 192.46Z" fill="white"/>
<path d="M95.6835 192.459C95.0949 192.65 86.2472 192.632 77.5957 192.459C75.8533 192.422 74.1249 192.384 72.4572 192.337C66.2862 192.169 61.1897 191.917 60.7179 191.609C60.2461 191.3 60.0312 186.694 59.9377 181.056C59.9377 180.977 59.9377 180.897 59.9377 180.818C59.9377 180.738 59.9377 180.692 59.9377 180.631H59.9611L80.9545 180.668V181.023C80.9545 181.023 93.3571 186.76 94.6137 187.783C95.8703 188.806 96.8233 192.095 95.6835 192.459Z" fill="#196719"/>
<path d="M95.3286 191.192C89.8397 190.987 67.6784 190.678 62.2362 190.893C62.1895 190.893 62.1895 190.926 62.2362 190.931C67.6737 191.253 89.835 191.398 95.3286 191.281C95.4454 191.281 95.4454 191.197 95.3286 191.192Z" fill="#141414"/>
<path d="M83.3042 180.757C81.1507 180.327 78.502 180.626 76.8297 182.158C76.7643 182.219 76.8296 182.308 76.9231 182.289C78.9951 181.649 81.1296 181.233 83.2902 181.047C83.3286 181.048 83.3662 181.035 83.3947 181.009C83.4232 180.983 83.4402 180.947 83.4421 180.909C83.4439 180.87 83.4304 180.833 83.4046 180.804C83.3788 180.776 83.3427 180.759 83.3042 180.757Z" fill="#141414"/>
<path d="M84.8505 181.719C82.6969 181.289 80.0482 181.583 78.3805 183.12C78.3151 183.181 78.3805 183.274 78.4693 183.251C80.5428 182.61 82.6789 182.194 84.8411 182.008C84.8795 182.009 84.9169 181.995 84.9449 181.969C84.9729 181.943 84.9894 181.907 84.9906 181.868C84.9918 181.83 84.9778 181.792 84.9515 181.764C84.9252 181.736 84.8889 181.72 84.8505 181.719Z" fill="#141414"/>
<path d="M86.4015 182.677C84.2433 182.247 81.5993 182.546 79.9269 184.078C79.8615 184.139 79.9269 184.228 80.0157 184.209C82.0887 183.567 84.225 183.15 86.3875 182.966C86.4259 182.968 86.4635 182.955 86.492 182.929C86.5204 182.903 86.5375 182.867 86.5393 182.829C86.5412 182.79 86.5277 182.753 86.5019 182.724C86.476 182.696 86.4399 182.679 86.4015 182.677Z" fill="#141414"/>
<path d="M77.6099 192.459C75.8675 192.422 74.139 192.384 72.4713 192.337C66.3004 192.169 61.2038 191.917 60.732 191.609C60.2602 191.3 60.0453 186.694 59.9519 181.056C59.9519 180.977 59.9519 180.897 59.9519 180.818C59.9519 180.738 59.9519 180.692 59.9519 180.631H59.9753C62.8482 182.649 72.9852 189.38 77.6099 192.459Z" fill="#141414"/>
<path d="M82.2205 180.743H58.7606C58.7606 180.743 63.4694 125.943 63.2872 124.985C63.0536 123.761 61.6662 118.216 59.821 110.971C59.2417 108.7 58.6157 106.271 57.9524 103.749C56.2006 96.9331 54.2713 89.4821 52.5896 82.9982C50.0624 73.2863 48.0957 68.2832 48.0957 68.2832H67.9773C67.9773 68.2832 84.3273 115.082 84.9766 124.751C85.5512 133.188 82.2205 180.743 82.2205 180.743Z" fill="#141414"/>
<path d="M81.1787 176.739C77.5958 176.665 78.6281 176.637 75.0451 176.599C73.2887 176.599 61.7643 176.487 60.1246 176.758C60.0919 176.758 60.0919 176.823 60.1246 176.833C61.7643 177.104 73.2887 177.001 75.0451 176.982C78.6281 176.945 77.5958 176.917 81.1787 176.842C81.1924 176.842 81.2054 176.837 81.2151 176.827C81.2247 176.817 81.2301 176.804 81.2301 176.791C81.2301 176.777 81.2247 176.764 81.2151 176.754C81.2054 176.745 81.1924 176.739 81.1787 176.739Z" fill="#70E000"/>
<path d="M67.7018 121.644C66.931 118.253 65.7818 114.931 64.7775 111.601C62.7438 104.836 60.6962 98.0767 58.6346 91.3219C57.6068 87.9444 52.8373 75.3035 52.3655 73.6218C52.174 72.9398 52.0712 73.3135 52.3188 74.1824C52.814 75.9342 60.9609 100.992 63.0257 107.859C64.0596 111.303 65.0951 114.744 66.1322 118.183C66.6558 119.82 67.0801 121.488 67.4028 123.176C67.6791 124.944 67.7481 126.737 67.6084 128.52C67.3841 132.108 66.9684 135.696 66.6414 139.265L65.6464 150.009C64.9861 157.153 64.3321 164.296 63.6844 171.437C63.6049 172.343 63.5255 173.245 63.4555 174.151C63.4555 174.455 63.8899 174.431 63.9226 174.151C64.6934 167.088 65.2867 160.001 65.9453 152.929C66.604 145.856 67.2627 138.854 67.9167 131.814C68.0848 130.048 68.2717 128.278 68.2717 126.502C68.2627 124.867 68.0716 123.237 67.7018 121.644Z" fill="#70E000"/>
<path d="M65.7398 68.2832C64.3384 78.9621 61.7364 96.4472 59.8211 110.975C55.3319 93.3734 48.1145 68.2879 48.1145 68.2879L65.7398 68.2832Z" fill="#70E000"/>
<path d="M71.4201 192.782C70.2756 193.156 37.6971 192.857 36.4685 192.058C36.0014 191.763 35.7585 187.013 35.6417 181.267V181.085C35.6137 179.903 35.595 178.683 35.5856 177.446C35.5856 177.277 35.5856 177.105 35.5856 176.936C35.5062 168.64 36.1042 160.035 36.1042 160.035L57.3965 160.171L56.8032 176.913V177.576L56.6818 181.043V181.398C56.6818 181.398 69.0984 187.092 70.3644 188.11C71.6304 189.129 72.56 192.413 71.4201 192.782Z" fill="#B57269"/>
<path d="M71.4202 192.781C70.2757 193.155 37.6972 192.856 36.4686 192.057C36.0014 191.763 35.7585 187.012 35.6418 181.266V181.084C35.6137 179.902 35.595 178.683 35.5857 177.445C35.5857 177.276 35.5857 177.104 35.5857 176.935L56.8033 176.912V177.575L56.6818 181.042V181.397C56.6818 181.397 69.0985 187.091 70.3645 188.11C71.6304 189.128 72.56 192.412 71.4202 192.781Z" fill="white"/>
<path d="M71.4203 192.782C70.2758 193.156 37.6973 192.857 36.4687 192.058C36.0015 191.764 35.7586 187.013 35.6418 181.267V181.085L56.6633 181.043V181.398C56.6633 181.398 69.0799 187.092 70.3459 188.111C71.6118 189.129 72.5601 192.413 71.4203 192.782Z" fill="#196719"/>
<path d="M71.0698 191.516C65.5809 191.329 43.4196 191.105 37.9774 191.338C37.9307 191.338 37.9307 191.371 37.9774 191.371C43.415 191.675 65.5762 191.721 71.0698 191.605C71.1772 191.6 71.1772 191.52 71.0698 191.516Z" fill="#141414"/>
<path d="M58.9989 181.121C56.8407 180.701 54.1967 181.009 52.529 182.522C52.4682 182.583 52.5523 182.672 52.6224 182.653C54.6928 182.003 56.8276 181.578 58.9895 181.387C59.0179 181.379 59.043 181.362 59.0612 181.339C59.0794 181.316 59.0897 181.287 59.0908 181.258C59.0918 181.228 59.0835 181.199 59.067 181.174C59.0505 181.15 59.0266 181.131 58.9989 181.121Z" fill="#141414"/>
<path d="M60.5497 182.079C58.3915 181.654 55.7474 181.962 54.0797 183.48C54.019 183.541 54.1031 183.63 54.1732 183.611C56.2454 182.973 58.3799 182.558 60.5403 182.373C60.5793 182.374 60.6173 182.36 60.6457 182.333C60.6742 182.307 60.6909 182.27 60.6921 182.231C60.6934 182.192 60.6791 182.154 60.6523 182.125C60.6256 182.097 60.5887 182.08 60.5497 182.079Z" fill="#141414"/>
<path d="M62.1007 183.032C59.9425 182.607 57.2984 182.915 55.6354 184.433C55.57 184.489 55.6354 184.583 55.7242 184.56C57.7959 183.917 59.9304 183.497 62.0913 183.308C62.1094 183.308 62.1275 183.305 62.1444 183.299C62.1614 183.293 62.1769 183.283 62.1901 183.271C62.2034 183.258 62.214 183.243 62.2215 183.227C62.229 183.21 62.2332 183.193 62.2338 183.174C62.2344 183.156 62.2315 183.138 62.2251 183.121C62.2187 183.104 62.2091 183.089 62.1967 183.076C62.1844 183.062 62.1695 183.052 62.153 183.044C62.1366 183.037 62.1188 183.033 62.1007 183.032Z" fill="#141414"/>
<path d="M67.8604 68.2832C67.4517 73.1929 66.5709 78.0518 65.2304 82.7926C65.0576 83.4139 64.8661 84.0259 64.6605 84.6145C64.6605 84.6145 62.9041 85.4367 59.4379 87.5622C59.4379 87.5622 59.2136 95.2186 58.9707 103.753C58.7185 113.297 58.4569 123.943 58.5036 126.2C58.7045 134.645 57.4572 181.089 57.4572 181.089L34.002 181.192C34.002 181.192 38.2062 129.339 38.2062 126.228C38.1595 121.252 39.3367 99.2734 40.243 83.2504C40.7989 73.3751 41.2567 68.3019 41.2567 68.3019L67.8604 68.2832Z" fill="#141414"/>
<path d="M56.6771 176.918C53.0941 176.862 54.1218 176.824 50.5388 176.81C48.7871 176.81 37.2627 176.75 35.623 177.03C35.5856 177.03 35.5903 177.095 35.623 177.1C37.2627 177.366 48.7871 177.212 50.5435 177.189C54.1265 177.137 53.0941 177.114 56.6771 177.025C56.6887 177.022 56.6988 177.015 56.706 177.005C56.7132 176.995 56.7171 176.983 56.7171 176.971C56.7171 176.959 56.7132 176.948 56.706 176.938C56.6988 176.928 56.6887 176.921 56.6771 176.918Z" fill="#70E000"/>
<path d="M43.2468 71.6895C42.817 84.7695 42.3639 95.3222 41.7799 108.407C41.196 121.492 40.4065 134.651 39.3134 147.745C38.7015 155.06 38.1269 165.352 37.3374 172.653C37.3374 172.7 37.4075 172.718 37.4121 172.653C39.1172 159.671 40.0655 143.62 40.9064 130.554C41.7472 117.488 42.3078 104.394 42.7516 91.3141C42.9992 83.9146 43.1907 79.0516 43.4103 71.6521C43.4149 71.5727 43.2514 71.582 43.2468 71.6895Z" fill="#70E000"/>
<path d="M44.1484 80.1897C44.7277 80.0403 45.3443 79.9936 45.9329 79.9001C46.4001 79.8254 46.8672 79.7413 47.3343 79.6385C48.2367 79.476 49.0919 79.1154 49.8382 78.5828C51.0061 77.6485 52.3515 73.0378 52.515 72.7435C52.7952 72.2343 52.8793 72.6781 52.8793 72.7435C52.8793 73.2807 51.6507 77.3355 51.1743 78.0923C50.3054 79.4937 48.7451 80.0356 47.1895 80.2318C46.7457 80.2879 46.2973 80.3206 45.8488 80.3439C45.2832 80.3953 44.7141 80.3953 44.1484 80.3439C44.1312 80.3396 44.1159 80.3297 44.105 80.3158C44.0941 80.3018 44.0881 80.2846 44.0881 80.2668C44.0881 80.2491 44.0941 80.2319 44.105 80.2179C44.1159 80.2039 44.1312 80.194 44.1484 80.1897Z" fill="#42AB42"/>
<path d="M64.5858 84.7402C62.3027 85.569 60.0957 86.5944 57.9898 87.8046C57.9741 87.814 57.9623 87.8288 57.9568 87.8463C57.9513 87.8638 57.9524 87.8826 57.9599 87.8993C57.9674 87.9161 57.9808 87.9294 57.9975 87.9369C58.0142 87.9445 58.033 87.9456 58.0505 87.9401C60.2741 87.0058 62.5444 86.0715 64.7166 84.9924C64.7428 84.9715 64.761 84.9421 64.768 84.9093C64.775 84.8765 64.7703 84.8423 64.7549 84.8125C64.7395 84.7828 64.7142 84.7593 64.6833 84.7461C64.6525 84.7329 64.618 84.7308 64.5858 84.7402Z" fill="#42AB42"/>
<path d="M65.2538 69.4832C65.2538 69.4084 65.1137 69.3898 65.1137 69.4832C65.1147 71.9653 64.99 74.4459 64.74 76.9154C64.6372 78.0646 63.7169 84.3897 61.7269 83.9226C61.3952 83.8478 61.2271 83.5161 61.1757 83.0163C61.1823 82.3602 61.2701 81.7075 61.4373 81.073C61.6568 79.7463 61.8343 78.4149 61.9511 77.0789C62.1801 74.5834 62.1519 72.071 61.867 69.5813C61.8633 69.5675 61.855 69.5553 61.8436 69.5466C61.8322 69.5379 61.8183 69.5332 61.804 69.5332C61.7897 69.5332 61.7757 69.5379 61.7643 69.5466C61.7529 69.5553 61.7447 69.5675 61.7409 69.5813C61.8004 73.0407 61.5974 76.4997 61.1336 79.9285C60.886 81.5728 60.0545 84.0534 61.7783 84.3103C63.502 84.5672 64.6699 80.4096 64.8848 79.2745C65.4313 76.0405 65.5553 72.7492 65.2538 69.4832Z" fill="#42AB42"/>
<path d="M61.783 84.1015C61.5966 84.5275 61.4405 84.9662 61.3159 85.4142C61.1894 85.7598 61.1261 86.1253 61.129 86.4933C61.129 86.5633 61.2318 86.568 61.2691 86.5213C61.4774 86.1967 61.635 85.8423 61.7363 85.4702C61.8858 85.0638 62.0446 84.6621 62.2034 84.251C62.2233 84.1952 62.2201 84.1339 62.1947 84.0804C62.1693 84.027 62.1237 83.9858 62.068 83.966C62.0122 83.9462 61.9509 83.9493 61.8974 83.9747C61.844 84.0001 61.8028 84.0457 61.783 84.1015Z" fill="#42AB42"/>
<path d="M63.9506 42.9319C63.2639 53.3866 63.745 64.0701 65.0857 66.0041C67.1645 69.0078 80.8097 75.431 85.4018 76.6036C86.9059 76.9866 90.3114 66.9898 89.3071 65.6678C88.3027 64.3457 73.4242 58.5438 72.6815 57.8571C72.2844 57.4881 70.1262 48.8927 68.3043 43.0627C66.6133 37.6439 64.1608 39.7554 63.9506 42.9319Z" fill="#B57269"/>
<path d="M80.2305 75.2577L84.7057 62.6729C84.7057 62.6729 74.2885 58.0015 73.0552 57.3008C72.532 57.0111 69.8086 46.3883 68.3838 41.7823C67.4495 38.7552 64.5859 37.251 63.5068 43.2772C62.8762 46.8041 62.3436 63.8688 64.6186 66.6997C66.4358 68.956 80.2305 75.2577 80.2305 75.2577Z" fill="#AA8800"/>
<path d="M78.1656 73.5849C78.3431 72.6506 79.7165 68.8901 80.0716 67.9792C80.4266 67.0683 81.9401 63.3732 82.3279 62.4202C82.3279 62.3688 82.4306 62.3828 82.4073 62.4202C82.0616 63.3545 80.8096 67.1757 80.464 68.1053C80.1183 69.0349 78.7075 72.7768 78.2123 73.6036C78.2111 73.6067 78.2093 73.6095 78.207 73.6118C78.2047 73.6142 78.2019 73.6161 78.1989 73.6174C78.1958 73.6187 78.1926 73.6194 78.1893 73.6194C78.186 73.6194 78.1827 73.6188 78.1796 73.6176C78.1766 73.6164 78.1738 73.6146 78.1714 73.6123C78.169 73.61 78.1672 73.6072 78.1659 73.6042C78.1646 73.6011 78.1639 73.5979 78.1638 73.5946C78.1638 73.5913 78.1644 73.588 78.1656 73.5849Z" fill="#141414"/>
<path opacity="0.1" d="M75.8488 73.1844C71.6445 71.1383 65.7679 68.1205 64.6374 66.7051C62.3624 63.8696 62.8903 46.8048 63.5256 43.2779C64.0675 40.2321 65.0718 39.1157 66.0481 39.139L75.8488 73.1844Z" fill="#141414"/>
<path d="M40.3411 68.2077C40.3925 68.2918 68.8882 71.7673 69.2012 71.5291C69.318 71.4403 70.0233 45.9717 67.0336 39.2075C65.8004 36.4046 60.7973 34.9378 58.0038 37.8995C44.3492 52.3529 40.2757 68.0956 40.3411 68.2077Z" fill="white"/>
<path d="M44.6029 79.0097L48.9287 91.2051L108.29 70.1492L103.964 57.9539L44.6029 79.0097Z" fill="#FCCE17"/>
<path opacity="0.2" d="M44.6029 79.0097L48.9287 91.2051L108.29 70.1492L103.964 57.9539L44.6029 79.0097Z" fill="#141414"/>
<g opacity="0.1">
<path d="M103.074 60.9824C85.4065 67.401 65.5342 74.4501 47.7688 80.6024C65.4361 74.1839 85.3084 67.1347 103.074 60.9824Z" fill="black"/>
<path d="M103.933 63.4019C86.266 69.8158 66.3984 76.865 48.647 83.0126C66.3143 76.594 86.1866 69.5495 103.952 63.3926L103.933 63.4019Z" fill="black"/>
<path d="M104.788 65.8184C87.1208 72.2369 67.2486 79.2861 49.4832 85.4383C67.1505 79.0198 87.0274 71.9706 104.788 65.8184Z" fill="black"/>
<path d="M105.639 68.2383C87.9712 74.6568 68.0989 81.706 50.3335 87.8583C68.0008 81.4397 87.8731 74.3952 105.639 68.2383Z" fill="black"/>
</g>
<path d="M44.0456 93.0975C44.0456 93.0975 36.7722 96.5964 34.3197 89.6827C31.8672 82.769 39.7199 80.9004 39.7199 80.9004L44.0456 93.0975Z" fill="#FF8B8B"/>
<path d="M39.3876 79.713L44.438 93.9512L47.8941 92.7253L42.8437 78.4871L39.3876 79.713Z" fill="#A3A3A3"/>
<path d="M43.2008 78.3555L48.2512 92.5938L51.7073 91.3678L46.6569 77.1296L43.2008 78.3555Z" fill="#A3A3A3"/>
<path d="M103.947 57.9414L114.351 59.4176L117.784 59.8847L115.448 62.4493L108.306 70.1525L106.096 69.5452C106.096 69.5452 107.418 67.7467 107.437 67.7093L105.227 67.1021C105.227 67.1021 106.554 65.3036 106.573 65.2662L104.373 64.6869C104.373 64.6869 105.69 62.8604 105.704 62.8184L103.508 62.2391C103.508 62.2391 104.821 60.4126 104.84 60.3705L102.639 59.7913C102.639 59.7913 103.933 57.9788 103.947 57.9414Z" fill="#196719"/>
<path opacity="0.8" d="M103.947 57.9414L114.351 59.4176L117.784 59.8847L115.448 62.4493L108.306 70.1525L106.096 69.5452C106.096 69.5452 107.418 67.7467 107.437 67.7093L105.227 67.1021C105.227 67.1021 106.554 65.3036 106.573 65.2662L104.373 64.6869C104.373 64.6869 105.69 62.8604 105.704 62.8184L103.508 62.2391C103.508 62.2391 104.821 60.4126 104.84 60.3705L102.639 59.7913C102.639 59.7913 103.933 57.9788 103.947 57.9414Z" fill="white"/>
<path d="M114.351 59.416L117.784 59.8925L115.425 62.4478L114.351 59.416Z" fill="#141414"/>
<path d="M55.5233 39.5855C49.0908 45.308 40.3599 55.8467 40.7523 58.5515C41.7333 65.3204 46.7551 73.8457 49.3851 76.9989C50.9173 78.8395 61.0263 71.2204 59.7416 69.5247C57.7236 66.8386 52.9167 58.3693 52.3701 57.2668C52.0758 56.6782 56.537 48.606 58.9662 43.0751C61.6102 37.0583 58.6625 36.8013 55.5233 39.5855Z" fill="#B57269"/>
<path d="M63.1284 74.8377C62.764 74.095 63.1518 73.9034 64.4691 74.5341C65.7865 75.1647 70.4766 78.8131 71.6117 77.0707C72.7469 75.3282 66.0574 70.2878 63.7731 69.3955C61.4887 68.5033 57.5227 67.8633 57.5227 67.8633C58.6158 69.1012 61.0076 72.3712 63.1284 74.8377Z" fill="#B57269"/>
<path d="M49.3149 76.948C52.5522 80.3301 56.3781 84.7446 61.4606 86.1787C62.022 86.3548 62.6264 86.335 63.1751 86.1227C65.4454 86.8094 66.4451 85.9405 66.4451 85.9405C68.7527 85.9405 69.659 84.9081 69.659 84.9081C69.659 84.9081 72.3264 85.6789 73.0645 84.142C73.896 82.4229 69.9813 81.6708 68.0801 79.9377C63.7263 75.9764 58.6438 69.1234 57.504 67.8574L49.3149 76.948Z" fill="#B57269"/>
<path d="M60.6058 78.9943C61.8669 80.1749 63.2077 81.2675 64.6186 82.2643C66.2264 83.2523 67.9049 84.1204 69.6404 84.8616C69.6475 84.8624 69.6544 84.8648 69.6604 84.8686C69.6665 84.8725 69.6715 84.8777 69.6753 84.8838C69.679 84.8899 69.6813 84.8968 69.6819 84.904C69.6825 84.9111 69.6815 84.9183 69.6789 84.925C69.6763 84.9317 69.6722 84.9377 69.6669 84.9425C69.6616 84.9474 69.6553 84.9509 69.6484 84.9529C69.6415 84.9549 69.6343 84.9553 69.6272 84.9541C69.6201 84.9528 69.6135 84.9499 69.6077 84.9457C66.1092 83.8518 62.9778 81.8192 60.5545 79.069C60.4984 78.9896 60.5404 78.9382 60.6058 78.9943Z" fill="#141414"/>
<path d="M57.8356 81.2791C59.1669 82.3162 61.5167 84.1287 66.473 85.8898C66.473 85.8898 66.473 85.9272 66.473 85.9225C63.2105 85.2304 60.2051 83.6436 57.7935 81.3399C57.7048 81.2698 57.7468 81.2091 57.8356 81.2791Z" fill="#141414"/>
<path d="M56.3642 82.5312C58.6999 84.2129 60.3769 84.979 63.1751 86.1095C63.1751 86.1095 63.1751 86.1469 63.1751 86.1376C59.8631 85.2033 58.7699 84.4652 56.3081 82.6013C56.2147 82.5406 56.2754 82.4658 56.3642 82.5312Z" fill="#141414"/>
<path d="M46.6476 76.621L59.5314 67.7967L52.9914 57.3C55.2384 52.8668 59.424 44.1032 60.5171 40.8052C61.8017 36.9372 59.5828 36.4654 56.2848 39.0207C48.8105 44.86 39.1547 56.1228 38.7109 58.4585C38.0756 61.7986 46.6476 76.621 46.6476 76.621Z" fill="#AA8800"/>
<path d="M46.8018 73.4254C47.4932 72.734 50.7865 70.3936 51.6134 69.8191C52.4402 69.2445 55.8176 67.0489 56.6912 66.465C56.7379 66.4323 56.794 66.4883 56.7473 66.521C55.9157 67.1143 52.6878 69.5808 51.8656 70.1601C51.0434 70.7393 47.7127 73.061 46.8298 73.4674C46.8018 73.4861 46.7784 73.4488 46.8018 73.4254Z" fill="#141414"/>
<path d="M58.1672 46.6401C56.8779 49.826 55.1168 53.1054 53.6687 56.2259C53.5659 56.4501 53.2436 57.1602 53.2015 57.2723C54.6497 59.8416 56.4715 62.6071 57.9897 65.167L59.55 67.7596L59.195 67.9839L59.5266 67.7223V67.755L57.8122 65.2557C56.1866 62.7986 54.3834 60.1172 52.9025 57.5993C52.8418 57.4638 52.7577 57.3937 52.7671 57.2069C52.8839 56.7911 53.0403 56.3875 53.2342 56.0017C54.6824 52.9652 56.579 49.5691 58.1532 46.6074L58.1672 46.6401Z" fill="#141414"/>
<path d="M58.2609 47.2617C58.0066 47.7591 57.6424 48.1921 57.1958 48.5277C57.5251 48.0847 57.8808 47.662 58.2609 47.2617Z" fill="#141414"/>
<path d="M85.1543 72.3667C85.9344 70.9653 87.1443 72.6844 87.1443 72.6844C87.1443 72.6844 86.0045 69.7834 87.3685 68.6483C88.7326 67.5131 90.0733 69.6947 90.1714 69.8441C90.1107 69.69 89.1343 66.9946 90.6385 65.9949C92.1427 64.9952 93.2078 67.3403 93.2732 67.4944C93.2732 67.3356 93.1704 65.1587 94.4738 64.6916C96.7161 63.832 97.5055 69.9703 99.0284 71.1848L102.546 70.3019C101.842 70.9131 101.33 71.7144 101.07 72.6096C100.659 73.8943 100.392 74.7491 99.7992 75.3471C99.5409 75.6244 99.2 75.8111 98.8272 75.8792C98.4544 75.9474 98.0695 75.8935 97.7298 75.7255C97.7298 75.7255 98.0708 77.3978 96.9216 78.22C96.333 78.6404 95.1324 78.0705 95.1324 78.0705C95.1324 78.0705 95.3473 79.4206 94.2822 80.0886C93.432 80.6258 92.3623 79.9718 92.3623 79.9718C92.3623 79.9718 91.9699 81.3732 90.9235 81.6301C88.8213 82.1533 83.4819 75.3704 85.1543 72.3667Z" fill="#B57269"/>
<path d="M99.8645 71.0868L102.471 70.3113H102.779C106.26 70.2506 109.114 73.6748 106.736 74.4362C104.928 75.0155 102.438 72.9647 100.663 73.8289L99.8645 71.0868Z" fill="#B57269"/>
<path d="M92.1707 79.8721C92.1707 79.8721 92.1707 79.9281 92.1427 79.9094C89.7462 78.0435 87.975 75.4917 87.0649 72.594C87.0415 72.5006 87.1816 72.4165 87.2284 72.5146C88.5091 75.1945 90.1741 77.6731 92.1707 79.8721Z" fill="#141414"/>
<path d="M95.1416 78.098C95.1416 78.1214 95.1416 78.1588 95.0949 78.1354C92.7358 76.2668 90.601 73.1837 90.0544 69.8203C90.0544 69.7035 90.1339 69.582 90.1666 69.7128C90.6898 71.9224 93.2357 76.0613 95.1416 78.098Z" fill="#141414"/>
<path d="M93.3104 67.2454C93.9597 70.45 95.5713 73.1267 97.6221 75.6539C97.6501 75.6866 97.5987 75.7193 97.5707 75.7007C96.2347 74.7664 95.0948 73.0099 94.3007 71.5851C93.5585 70.2749 93.172 68.7933 93.1796 67.2874C93.1982 67.208 93.2963 67.18 93.3104 67.2454Z" fill="#141414"/>
<path d="M61.9278 35.9102C60.5264 36.4754 60.6432 38.3253 61.6008 40.6096C62.5585 42.894 64.0533 44.5056 65.5902 44.3841C67.1271 44.2627 67.7017 42.0905 67.8419 40.8432C67.9493 39.8622 67.5896 37.8815 65.8986 36.9145C64.2075 35.9475 62.7267 35.5878 61.9278 35.9102Z" fill="#AA8800"/>
<path d="M65.2024 43.5108C63.5207 43.2539 61.5727 39.5121 61.3018 37.1951C61.3018 37.0362 62.0352 35.7423 62.8807 34.126C63.3852 33.145 63.9271 32.0425 64.3475 30.9961L70.2522 35.2237C69.354 36.3734 68.5994 37.6284 68.0053 38.9609C67.948 39.1044 67.9042 39.253 67.8745 39.4047C67.8761 39.4295 67.8761 39.4545 67.8745 39.4794C67.6596 40.3623 66.8281 43.7584 65.2024 43.5108Z" fill="#B57269"/>
<path d="M67.8746 39.4282C67.8746 39.4282 67.8746 39.4703 67.8746 39.4983C67.6397 39.4394 67.41 39.3612 67.1879 39.2647C63.4507 37.6531 64.413 32.6546 64.7681 31.2812L66.2396 32.337L70.271 35.2286C69.3721 36.3778 68.6175 37.6329 68.0241 38.9657C67.9589 39.1145 67.9088 39.2694 67.8746 39.4282Z" fill="#141414"/>
<path d="M65.5155 23.652C64.2075 25.9223 63.8805 33.2658 65.2539 35.2372C67.2439 38.0914 71.3268 39.2546 73.9428 36.676C76.4934 34.1768 76.7456 24.5957 75.1433 22.7224C72.7702 19.9663 67.4401 20.3026 65.5155 23.652Z" fill="#B57269"/>
<path d="M71.4014 29.8223C71.4014 29.8223 71.364 29.8223 71.364 29.8643C71.364 30.3595 71.2613 30.9247 70.8035 31.0649C70.8035 31.0649 70.8035 31.0976 70.8035 31.0929C71.3594 31.0462 71.4762 30.2941 71.4014 29.8223Z" fill="#141414"/>
<path d="M70.9857 29.286C70.1962 29.1832 70.0514 30.7762 70.7894 30.8696C71.5275 30.9631 71.6537 29.3701 70.9857 29.286Z" fill="#141414"/>
<path d="M74.2089 29.9824C74.2089 29.9824 74.2463 29.9824 74.2416 30.0291C74.1856 30.5196 74.1996 31.0942 74.6294 31.2951C74.6294 31.2951 74.6294 31.3278 74.6294 31.3231C74.0875 31.197 74.0735 30.4356 74.2089 29.9824Z" fill="#141414"/>
<path d="M74.6948 29.5059C75.4936 29.5059 75.4142 31.1129 74.6948 31.1035C73.9754 31.0942 74.0268 29.4966 74.6948 29.5059Z" fill="#141414"/>
<path d="M70.3129 28.0381C70.531 28.0168 70.7477 27.9841 70.9623 27.94C71.1954 27.9393 71.4219 27.8622 71.6069 27.7204C71.652 27.6605 71.6764 27.5875 71.6764 27.5125C71.6764 27.4376 71.652 27.3646 71.6069 27.3047C71.5051 27.1957 71.3763 27.1155 71.2337 27.072C71.091 27.0286 70.9394 27.0234 70.7941 27.0571C70.489 27.0831 70.2044 27.2212 69.9953 27.4448C69.9472 27.4998 69.917 27.5682 69.9088 27.6408C69.9005 27.7134 69.9146 27.7868 69.9491 27.8512C69.9836 27.9156 70.0369 27.968 70.1019 28.0014C70.1669 28.0348 70.2405 28.0476 70.3129 28.0381Z" fill="#141414"/>
<path d="M75.4937 28.2401C75.2846 28.1775 75.0787 28.1042 74.8771 28.0206C74.6488 27.9717 74.4423 27.8505 74.2885 27.6749C74.2552 27.6122 74.2422 27.5408 74.2514 27.4704C74.2606 27.4001 74.2915 27.3344 74.3399 27.2825C74.461 27.1955 74.603 27.142 74.7514 27.1272C74.8998 27.1125 75.0495 27.137 75.1854 27.1984C75.479 27.2838 75.7304 27.4753 75.8908 27.7356C75.9189 27.7959 75.9297 27.8628 75.922 27.9289C75.9144 27.995 75.8885 28.0577 75.8474 28.1099C75.8062 28.1622 75.7514 28.2021 75.6889 28.2251C75.6265 28.248 75.5589 28.2532 75.4937 28.2401Z" fill="#141414"/>
<path d="M63.6889 28.5339C63.6142 27.8565 63.3152 22.106 63.6235 21.3772C63.9319 20.6485 64.6139 21.1203 64.6326 21.0829C64.6513 21.0456 64.7774 20.4196 65.2025 20.2468C65.3465 20.2134 65.4958 20.2099 65.6412 20.2364C65.7866 20.263 65.925 20.3189 66.048 20.4009C66.048 20.4009 66.2769 19.7563 66.7207 19.6442C66.8681 19.6244 67.018 19.6428 67.1563 19.6976C67.2945 19.7524 67.4164 19.8418 67.5102 19.9571C67.5775 19.7869 67.6855 19.6357 67.8248 19.5168C67.964 19.3979 68.1303 19.3149 68.309 19.2751C68.4649 19.2576 68.6223 19.2908 68.7578 19.37C68.8933 19.4491 68.9997 19.5698 69.0611 19.7142C69.0611 19.7142 69.346 19.1116 69.7992 19.0602C70.2523 19.0088 70.5559 19.5274 70.5559 19.5274C70.6451 19.3794 70.7723 19.258 70.9243 19.1759C71.0763 19.0937 71.2475 19.0538 71.4201 19.0602C71.5837 19.0984 71.732 19.1846 71.8461 19.3079C71.9601 19.4311 72.0347 19.5856 72.0601 19.7516C72.1679 19.6144 72.3056 19.5036 72.4626 19.4275C72.6196 19.3514 72.7919 19.3121 72.9664 19.3125C73.4662 19.3779 73.5363 20.0272 73.5363 20.0272C73.5363 20.0272 73.8259 19.5087 74.2884 19.6208C74.7509 19.7329 74.7555 20.4056 74.7555 20.4056C74.7555 20.4056 75.176 19.7516 75.6384 20.1113C76.185 20.5411 76.2224 24.7827 76.1056 26.5579C76.1056 26.5579 75.9094 25.2452 75.4049 25.2265C74.9004 25.2078 74.5593 26.2963 73.6437 25.9552C72.7281 25.6142 71.5136 24.5538 70.1589 24.6099C68.8042 24.6659 67.7157 26.0113 66.9262 27.9546C66.0527 30.1455 63.8665 30.1362 63.6889 28.5339Z" fill="#141414"/>
<path d="M70.0514 32.1032C69.6707 32.0182 69.3215 31.828 69.0435 31.5543C68.7656 31.2806 68.57 30.9344 68.4792 30.5551C68.3883 30.1757 68.4058 29.7785 68.5296 29.4086C68.6534 29.0387 68.8785 28.7109 69.1794 28.4627C69.4803 28.2145 69.8448 28.0557 70.2315 28.0044C70.6182 27.9531 71.0115 28.0115 71.3667 28.1727C71.7219 28.334 72.0247 28.5917 72.2406 28.9166C72.4565 29.2415 72.5768 29.6205 72.5879 30.0104C72.5952 30.3269 72.5305 30.6409 72.3988 30.9288C72.2671 31.2167 72.0717 31.4709 71.8276 31.6724C71.5834 31.8739 71.2966 32.0173 70.989 32.0919C70.6813 32.1665 70.3607 32.1704 70.0514 32.1032ZM70.9016 28.3053C70.748 28.2733 70.5912 28.2592 70.4344 28.2633C69.9769 28.2819 69.5436 28.4739 69.2225 28.8002C68.9013 29.1266 68.7163 29.5629 68.7051 30.0207C68.6939 30.4784 68.8572 30.9233 69.1619 31.2651C69.4667 31.6068 69.8901 31.8198 70.3461 31.8609C70.8021 31.9019 71.2567 31.7679 71.6176 31.4861C71.9785 31.2042 72.2186 30.7957 72.2893 30.3433C72.36 29.8909 72.2559 29.4285 71.9982 29.05C71.7404 28.6716 71.3484 28.4053 70.9016 28.3053Z" fill="#70E000"/>
<path d="M74.8071 32.575C74.0316 32.3975 73.5037 31.4445 73.6158 30.3607C73.6605 29.8435 73.8664 29.3533 74.2044 28.9593C74.3455 28.7875 74.5254 28.6518 74.7293 28.5632C74.9331 28.4747 75.1551 28.4359 75.377 28.4501C75.5966 28.4803 75.8056 28.5632 75.9862 28.6918C76.1668 28.8203 76.3136 28.9906 76.414 29.1882C76.6643 29.644 76.7656 30.1668 76.7036 30.6831C76.5822 31.8276 75.7927 32.6824 74.9425 32.5937L74.8071 32.575ZM75.4517 28.7444H75.3489C75.1709 28.7344 74.9931 28.7674 74.8305 28.8406C74.6679 28.9138 74.5253 29.025 74.4147 29.1649C74.114 29.5133 73.9324 29.9486 73.8961 30.4075C73.7887 31.3978 74.2745 32.276 74.9706 32.3368C75.6666 32.3975 76.3206 31.6641 76.428 30.6737C76.4808 30.2161 76.3928 29.7533 76.1758 29.347C76.1045 29.2011 76.0031 29.072 75.8783 28.9681C75.7535 28.8643 75.6081 28.788 75.4517 28.7444Z" fill="#70E000"/>
<path d="M72.4945 30.2443L72.3403 30.0107C72.6813 29.7818 73.4428 29.5015 73.8959 30.0948L73.6717 30.263C73.2699 29.7304 72.5272 30.2209 72.4945 30.2443Z" fill="#70E000"/>
<path d="M63.203 29.8139L62.9741 29.6597C63.0442 29.5523 63.6888 28.5993 64.3148 28.5619C64.9408 28.5245 68.5798 29.2626 68.7387 29.2953L68.6826 29.5709C67.6269 29.3561 64.7866 28.8142 64.3335 28.8422C63.8804 28.8702 63.3759 29.5523 63.203 29.8139Z" fill="#70E000"/>
<path d="M65.7023 29.744C65.7023 29.744 64.5765 27.1233 63.418 27.4736C62.2595 27.824 62.7733 31.3976 63.8851 32.1077C64.0229 32.2087 64.1798 32.2807 64.3463 32.3193C64.5127 32.3579 64.6853 32.3622 64.8535 32.3321C65.0217 32.3019 65.182 32.2379 65.3247 32.1439C65.4674 32.05 65.5895 31.928 65.6836 31.7854L65.7023 29.744Z" fill="#B57269"/>
<path d="M63.5955 28.4961C63.5955 28.4961 63.5674 28.4961 63.5955 28.5241C64.3803 29.052 64.6652 29.9255 64.81 30.8271C64.7788 30.7307 64.7268 30.6422 64.6579 30.568C64.5889 30.4937 64.5045 30.4354 64.4106 30.3971C64.3167 30.3589 64.2156 30.3416 64.1144 30.3464C64.0131 30.3513 63.9141 30.3783 63.8244 30.4254C63.7963 30.4254 63.8244 30.4768 63.8244 30.4768C63.9846 30.4593 64.1463 30.4923 64.2869 30.571C64.4276 30.6497 64.5402 30.7702 64.6092 30.9159C64.7225 31.1595 64.8087 31.4148 64.8661 31.6773C64.8941 31.7661 65.0389 31.7521 65.0296 31.6773V31.654C65.2678 30.5515 64.74 28.8465 63.5955 28.4961Z" fill="#141414"/>
</svg>
