<svg width="24" height="24" viewBox="0 0 24 24" fill="none" xmlns="http://www.w3.org/2000/svg">
<path d="M17.62 9.12H12.37C12.2361 9.12 12.12 9.00385 12.12 8.87C12.12 8.73614 12.2361 8.62 12.37 8.62H17.62C17.7539 8.62 17.87 8.73614 17.87 8.87C17.87 9.00821 17.7595 9.12 17.62 9.12Z" fill="#141414" stroke="#141414"/>
<path d="M6.76644 8.92356L7.12 9.27711L7.47355 8.92356L9.19355 7.20356C9.28829 7.10882 9.45171 7.10882 9.54644 7.20356C9.64118 7.2983 9.64118 7.46172 9.54644 7.55645L7.29644 9.80645C7.24914 9.85376 7.18588 9.88001 7.12 9.88001C7.05545 9.88001 6.99484 9.85774 6.94355 9.80645L6.19355 9.05645C6.09881 8.96172 6.09881 8.7983 6.19355 8.70356C6.28829 8.60882 6.45171 8.60882 6.54644 8.70356L6.9 8.35001L6.54644 8.70356L6.76644 8.92356Z" fill="#141414" stroke="#141414"/>
<path d="M17.62 16.12H12.37C12.2361 16.12 12.12 16.0039 12.12 15.87C12.12 15.7361 12.2361 15.62 12.37 15.62H17.62C17.7539 15.62 17.87 15.7361 17.87 15.87C17.87 16.0082 17.7595 16.12 17.62 16.12Z" fill="#141414" stroke="#141414"/>
<path d="M7.12 17.38C6.93 17.38 6.74 17.31 6.59 17.16L5.84 16.41C5.55 16.12 5.55 15.64 5.84 15.35C6.13 15.06 6.61 15.06 6.9 15.35L7.12 15.57L8.84 13.85C9.13 13.56 9.61 13.56 9.9 13.85C10.19 14.14 10.19 14.62 9.9 14.91L7.65 17.16C7.51 17.3 7.32 17.38 7.12 17.38Z" fill="#141414"/>
<path d="M15 22.75H9C3.57 22.75 1.25 20.43 1.25 15V9C1.25 3.57 3.57 1.25 9 1.25H15C20.43 1.25 22.75 3.57 22.75 9V15C22.75 20.43 20.43 22.75 15 22.75ZM9 2.75C4.39 2.75 2.75 4.39 2.75 9V15C2.75 19.61 4.39 21.25 9 21.25H15C19.61 21.25 21.25 19.61 21.25 15V9C21.25 4.39 19.61 2.75 15 2.75H9Z" fill="#141414"/>
</svg>
