<svg width="24" height="24" viewBox="0 0 24 24" fill="none" xmlns="http://www.w3.org/2000/svg">
<path fill-rule="evenodd" clip-rule="evenodd" d="M18.4831 19.7902L18.4838 19.7885L18.5011 19.745L21.4999 4.62592V4.57682C21.4999 4.20012 21.3608 3.87126 21.0579 3.674C20.7928 3.50133 20.488 3.48904 20.2743 3.50526C20.0483 3.52241 19.8352 3.57883 19.6876 3.62579C19.6117 3.64995 19.5482 3.67323 19.5028 3.69083C19.48 3.69967 19.4615 3.70717 19.448 3.71276L19.4348 3.71831L2.71502 10.2772L2.71042 10.2789C2.70139 10.2822 2.68944 10.2866 2.67502 10.2923C2.64627 10.3034 2.60713 10.3195 2.56115 10.3403C2.47087 10.3812 2.34613 10.4444 2.21963 10.531C2.00477 10.6781 1.59566 11.0264 1.66474 11.5787C1.72196 12.0361 2.03727 12.3266 2.24983 12.477C2.36378 12.5576 2.4728 12.6157 2.55262 12.6538C2.59307 12.673 2.62743 12.6878 2.65302 12.6982C2.66585 12.7034 2.67657 12.7076 2.68487 12.7107L2.6955 12.7147L2.70229 12.7172L5.62753 13.702C5.61766 13.8856 5.63586 14.0727 5.68453 14.2573L7.14982 19.8157C7.32355 20.4748 7.91978 20.9339 8.60135 20.9334C9.21228 20.9329 9.75411 20.5633 9.98429 20.0119L12.272 17.5658L16.2009 20.5781L16.2568 20.6025C16.6138 20.7582 16.9473 20.8076 17.2522 20.7659C17.5567 20.7243 17.7987 20.5966 17.9804 20.4512C18.1593 20.3081 18.2819 20.1466 18.359 20.025C18.3981 19.9633 18.4273 19.909 18.4476 19.8681C18.4578 19.8476 18.4658 19.8302 18.4718 19.8167L18.4793 19.7993L18.482 19.7928L18.4831 19.7902ZM7.13493 13.875C7.10163 13.7486 7.15391 13.6153 7.2642 13.5452L17.1862 7.24432C17.1862 7.24432 17.7698 6.89002 17.7489 7.24432C17.7489 7.24432 17.8531 7.30689 17.5404 7.59861C17.2438 7.87569 10.4687 14.4167 9.78316 15.0786C9.74359 15.1168 9.71997 15.1607 9.70602 15.2139L8.60022 19.4334L7.13493 13.875Z" fill="#858585"/>
</svg>
