<svg width="22" height="20" viewBox="0 0 22 20" fill="none" xmlns="http://www.w3.org/2000/svg">
<path d="M21.3534 9.22661L13.1934 1.22661C12.8734 0.933276 12.3667 0.826608 11.9934 1.01328C11.5934 1.17328 11.3 1.57327 11.3 1.99994V5.46661H1.43337C0.846699 5.46661 0.366699 6.07994 0.366699 6.66661V13.3333C0.366699 13.9199 0.846699 14.5333 1.43337 14.5333H11.3V17.9999C11.3 18.4266 11.62 18.8266 11.9934 18.9866C12.1267 19.0399 12.2867 19.0666 12.4201 19.0666C12.6867 19.0666 12.9801 18.9599 13.1667 18.7733L21.3267 10.7733C21.54 10.5599 21.6467 10.2933 21.6467 9.99994C21.6467 9.70661 21.5667 9.43994 21.3534 9.22661Z" fill="#E2B93B"/>
</svg>
