<svg width="17" height="16" viewBox="0 0 17 16" fill="none" xmlns="http://www.w3.org/2000/svg">
<path d="M13.6767 7.61306L9.59668 3.61306C9.43668 3.46639 9.18334 3.41306 8.99668 3.50639C8.79668 3.58639 8.65001 3.78639 8.65001 3.99973V5.73306H3.71668C3.42335 5.73306 3.18335 6.03973 3.18335 6.33306V9.66639C3.18335 9.95973 3.42335 10.2664 3.71668 10.2664H8.65001V11.9997C8.65001 12.2131 8.81001 12.4131 8.99668 12.4931C9.06334 12.5197 9.14336 12.5331 9.21002 12.5331C9.34336 12.5331 9.49003 12.4797 9.58336 12.3864L13.6633 8.38639C13.77 8.27973 13.8233 8.14639 13.8233 7.99973C13.8233 7.85306 13.7834 7.71973 13.6767 7.61306ZM9.70335 10.7331V9.66639C9.70335 9.37306 9.51667 9.19973 9.22334 9.19973H4.23668V6.79973H9.22334C9.51667 6.79973 9.70335 6.62639 9.70335 6.33306V5.26639L12.49 7.99973L9.70335 10.7331Z" fill="#196719"/>
</svg>
