<svg width="40" height="40" viewBox="0 0 40 40" fill="none" xmlns="http://www.w3.org/2000/svg">
<rect x="0.5" y="0.5" width="39" height="39" rx="19.5" fill="#FFF1C6"/>
<path d="M30.3534 19.2266L22.1934 11.2266C21.8734 10.9333 21.3667 10.8266 20.9934 11.0133C20.5934 11.1733 20.3 11.5733 20.3 11.9999V15.4666H10.4334C9.8467 15.4666 9.3667 16.0799 9.3667 16.6666V23.3333C9.3667 23.9199 9.8467 24.5333 10.4334 24.5333H20.3V27.9999C20.3 28.4266 20.62 28.8266 20.9934 28.9866C21.1267 29.0399 21.2867 29.0666 21.4201 29.0666C21.6867 29.0666 21.9801 28.9599 22.1667 28.7733L30.3267 20.7733C30.54 20.5599 30.6467 20.2933 30.6467 19.9999C30.6467 19.7066 30.5667 19.4399 30.3534 19.2266Z" fill="#E2B93B"/>
<rect x="0.5" y="0.5" width="39" height="39" rx="19.5" stroke="#E2B93B"/>
</svg>
