<svg width="24" height="24" viewBox="0 0 24 24" fill="none" xmlns="http://www.w3.org/2000/svg">
<path d="M21.0206 5.72755L21.0226 5.72775C21.1626 5.74108 21.2684 5.86344 21.2618 6.00616C21.2449 6.13523 21.1336 6.23 21.01 6.23H21.0098H21.0097H21.0095H21.0093H21.0091H21.009H21.0088H21.0086H21.0084H21.0083H21.0081H21.0079H21.0077H21.0076H21.0074H21.0072H21.007H21.0069H21.0067H21.0065H21.0064H21.0062H21.006H21.0059H21.0057H21.0055H21.0053H21.0052H21.005H21.0048H21.0047H21.0045H21.0043H21.0042H21.004H21.0038H21.0037H21.0035H21.0033H21.0031H21.003H21.0028H21.0026H21.0025H21.0023H21.0021H21.002H21.0018H21.0016H21.0015H21.0013H21.0012H21.001H21.0008H21.0007H21.0005H21.0003H21.0002H21H20.9998H20.9997H20.9995H20.9993H20.9992H20.999H20.9989H20.9987H20.9985H20.9984H20.9982H20.998H20.9979H20.9977H20.9976H20.9974H20.9972H20.9971H20.9969H20.9968H20.9966H20.9964H20.9963H20.9961H20.996H20.9958H20.9956H20.9955H20.9953H20.9952H20.995H20.9948H20.9947H20.9945H20.9944H20.9942H20.9941H20.9939H20.9937H20.9936H20.9934H20.9933H20.9931H20.993H20.9928H20.9926H20.9925H20.9923H20.9922H20.992H20.9919H20.9917H20.9915H20.9914H20.9912H20.9911H20.9909H20.9908H20.9906H20.9905H20.9903H20.9901H20.99H20.9898H20.9897H20.9895H20.9894H20.9892H20.9891H20.9889H20.9888H20.9886H20.9885H20.9883H20.9881H20.988H20.9878H20.9877H20.9875H20.9874H20.9872H20.9871H20.9869H20.9868H20.9866H20.9865H20.9863H20.9862H20.986H20.9859H20.9857H20.9856H20.9854H20.9853H20.9851H20.985H20.9848H20.9847H20.9845H20.9844H20.9842H20.984H20.9839H20.9837H20.9836H20.9834H20.9833H20.9831H20.983H20.9828H20.9827H20.9825H20.9824H20.9822H20.9821H20.982H20.9818H20.9817H20.9815H20.9814H20.9812H20.9811H20.9809H20.9808H20.9806H20.9805H20.9803H20.9802H20.98H20.9799H20.9797H20.9796H20.9794H20.9793H20.9791H20.979H20.9788H20.9787H20.9785H20.9784H20.9782H20.9781H20.9779H20.9778H20.9776H20.9775H20.9773H20.9772H20.9771H20.9769H20.9768H20.9766H20.9765H20.9763H20.9762H20.976H20.9759H20.9757H20.9756H20.9754H20.9753H20.9751H20.975H20.9748H20.9747H20.9746H20.9744H20.9743H20.9741H20.974H20.9738H20.9737H20.9735H20.9734H20.9732H20.9731H20.9729H20.9728H20.9726H20.9725H20.9724H20.9722H20.9721H20.9719H20.9718H20.9716H20.9715H20.9713H20.9712H20.971H20.9709H20.9707H20.9706H20.9704H20.9703H20.9702H20.97H20.9699H20.9697H20.9696H20.9694H20.9693H20.9691H20.969H20.9688H20.9687H20.9685H20.9684H20.9682H20.9681H20.968H20.9678H20.9677H20.9675H20.9674H20.9672H20.9671H20.9669H20.9668H20.9666H20.9665H20.9663H20.9662H20.966H20.9659H20.9658H20.9656H20.9655H20.9653H20.9652H20.965H20.9649H20.9647H20.9646H20.9644H20.9643H20.9641H20.964H20.9638H20.9637H20.9635H20.9634H20.9633H20.9631H20.963H20.9628H20.9627H20.9625H20.9624H20.9622H20.9621H20.9619H20.9618H20.9616H20.9615H20.9613H20.9612H20.961H20.9609H20.9607H20.9606H20.9604H20.9603H20.9601H20.96H20.9599H20.9597H20.9596H20.9594H20.9593H20.9591H20.959H20.9588H20.9587H20.9585H20.9584H20.9582H20.9581H20.9579H20.9578H20.9576H20.9575H20.9573H20.9572H20.957H20.9569H20.9567H20.9566H20.9564H20.9563H20.9561H20.956H20.9558H20.9557H20.9555H20.9554H20.9552H20.9551H20.9549C15.6442 5.69996 10.337 5.49886 5.0609 6.02242C5.06081 6.02243 5.06072 6.02243 5.06063 6.02244L3.0226 6.22225C3.02243 6.22227 3.02226 6.22228 3.02209 6.2223C2.8756 6.23599 2.76074 6.13572 2.74764 6.00145C2.73447 5.86639 2.8331 5.74149 2.97741 5.72775L2.97879 5.72761L5.01817 5.52768C5.01832 5.52766 5.01848 5.52765 5.01863 5.52763C5.93918 5.43856 6.86103 5.37904 7.7922 5.31896L8.18903 5.29336L8.25341 4.90095L8.46334 3.62137C8.46335 3.62129 8.46337 3.6212 8.46338 3.62111C8.54668 3.11612 8.62963 2.67881 8.89948 2.34634C9.14164 2.04798 9.61236 1.75 10.68 1.75H13.3C14.3661 1.75 14.8402 2.05891 15.0851 2.36644C15.3577 2.70887 15.4384 3.1516 15.5165 3.63046L15.5165 3.63046L15.517 3.63343L15.73 4.89201V5.33299L16.2023 5.35923C17.816 5.44888 19.4187 5.56836 21.0206 5.72755Z" fill="#196719" stroke="#196719"/>
<path d="M18.32 8.25C18.5214 8.25 18.7197 8.33255 18.8656 8.48246C19.0043 8.63529 19.0827 8.84203 19.0708 9.06115C19.0708 9.06152 19.0708 9.06189 19.0708 9.06226L18.4511 19.307C18.394 20.1001 18.3293 20.8012 17.9438 21.3288C17.5895 21.8136 16.8698 22.26 15.21 22.26H8.78999C7.13115 22.26 6.41108 21.8116 6.05647 21.3254C5.6706 20.7963 5.60595 20.0947 5.5489 19.3069L4.92918 9.05148C4.92917 9.05124 4.92915 9.051 4.92914 9.05076C4.91743 8.84219 4.99548 8.6334 5.13796 8.47853C5.26721 8.33804 5.47061 8.25 5.67999 8.25H18.32ZM10.33 18.25H13.66C14.3461 18.25 14.91 17.6861 14.91 17C14.91 16.3139 14.3461 15.75 13.66 15.75H10.33C9.64385 15.75 9.07999 16.3139 9.07999 17C9.07999 17.6861 9.64385 18.25 10.33 18.25ZM9.49999 14.25H14.5C15.1861 14.25 15.75 13.6861 15.75 13C15.75 12.3139 15.1861 11.75 14.5 11.75H9.49999C8.81385 11.75 8.24999 12.3139 8.24999 13C8.24999 13.6861 8.81385 14.25 9.49999 14.25Z" fill="#196719" stroke="#196719"/>
</svg>
