<svg width="16" height="16" viewBox="0 0 16 16" fill="none" xmlns="http://www.w3.org/2000/svg">
<rect x="0.5" y="0.5" width="15" height="15" rx="7.5" fill="white"/>
<path d="M13.2301 5.30503C13.1367 5.2117 13.0201 5.20004 12.9034 5.20004H10.4534V3.80004C10.4534 3.54337 10.2201 3.33337 9.96338 3.33337H6.04339C5.78672 3.33337 5.55339 3.54337 5.55339 3.80004V5.20004H3.10339C2.84672 5.20004 2.63672 5.35171 2.63672 5.60837V12.2C2.63672 12.4567 2.84672 12.6667 3.10339 12.6667H12.9034C13.1601 12.6667 13.3701 12.4567 13.3701 12.2V5.6317C13.3701 5.50337 13.3234 5.39836 13.2301 5.30503ZM6.48672 4.26671H9.52005V5.20004H6.48672V4.26671ZM12.4367 11.7334H3.57005V6.13337H12.4367V11.7334ZM6.10172 8.87504C6.10172 8.65337 6.28839 8.46671 6.51005 8.46671H7.53672V7.42839C7.53672 7.20672 7.72339 7.02005 7.94505 7.02005C8.16672 7.02005 8.35339 7.20672 8.35339 7.42839V8.46671H9.49672C9.71838 8.46671 9.90505 8.65337 9.90505 8.87504C9.90505 9.09671 9.71838 9.28337 9.49672 9.28337H8.35339V10.38C8.35339 10.6017 8.16672 10.7884 7.94505 10.7884C7.72339 10.7884 7.53672 10.6017 7.53672 10.38V9.28337H6.51005C6.28839 9.28337 6.10172 9.09671 6.10172 8.87504Z" fill="#EB5757"/>
<rect x="0.5" y="0.5" width="15" height="15" rx="7.5" stroke="white"/>
</svg>
