<svg width="24" height="24" viewBox="0 0 24 24" fill="none" xmlns="http://www.w3.org/2000/svg">
<g clip-path="url(#clip0_914_34905)">
<path d="M22.1621 5.6569C21.3986 5.9946 20.589 6.21638 19.7601 6.3149C20.6338 5.79234 21.2878 4.96992 21.6001 4.0009C20.7801 4.4889 19.8811 4.8309 18.9441 5.0159C18.3147 4.34248 17.4804 3.89587 16.571 3.74549C15.6616 3.59511 14.728 3.74939 13.9153 4.18436C13.1026 4.61932 12.4564 5.31059 12.0772 6.1507C11.6979 6.9908 11.6068 7.93268 11.8181 8.8299C10.1552 8.74656 8.52838 8.31443 7.04334 7.56157C5.55829 6.80871 4.24818 5.75195 3.19805 4.4599C2.82634 5.09835 2.63101 5.82413 2.63205 6.5629C2.63205 8.0129 3.37005 9.2939 4.49205 10.0439C3.82806 10.023 3.17869 9.84368 2.59805 9.5209V9.5729C2.59825 10.5386 2.93242 11.4745 3.5439 12.222C4.15538 12.9694 5.00653 13.4824 5.95305 13.6739C5.33667 13.8409 4.69036 13.8656 4.06305 13.7459C4.32992 14.5771 4.85006 15.3041 5.55064 15.825C6.25123 16.3459 7.09718 16.6347 7.97005 16.6509C7.10253 17.3322 6.10923 17.8359 5.04693 18.1331C3.98464 18.4303 2.87418 18.5152 1.77905 18.3829C3.69075 19.6123 5.91615 20.265 8.18905 20.2629C15.8821 20.2629 20.0891 13.8899 20.0891 8.3629C20.0891 8.1829 20.0841 8.0009 20.0761 7.8229C20.8949 7.23107 21.6017 6.49792 22.1631 5.6579L22.1621 5.6569Z" fill="#858585"/>
</g>
<defs>
<clipPath id="clip0_914_34905">
<rect width="24" height="24" fill="white"/>
</clipPath>
</defs>
</svg>
