<svg width="24" height="24" viewBox="0 0 24 24" fill="none" xmlns="http://www.w3.org/2000/svg">
<mask id="path-1-inside-1_1505_13996" fill="white">
<path d="M12.75 14.5198H12.98C13.31 14.5198 13.59 14.2198 13.59 13.8498C13.59 13.3798 13.48 13.3198 13.16 13.2098L12.75 13.0698V14.5198Z"/>
</mask>
<path d="M12.75 14.5198H12.98C13.31 14.5198 13.59 14.2198 13.59 13.8498C13.59 13.3798 13.48 13.3198 13.16 13.2098L12.75 13.0698V14.5198Z" fill="white"/>
<path d="M12.75 14.5198H11.75V15.5198H12.75V14.5198ZM13.16 13.2098L13.4851 12.2641L13.4831 12.2635L13.16 13.2098ZM12.75 13.0698L13.0731 12.1235L11.75 11.6717V13.0698H12.75ZM12.75 15.5198H12.98V13.5198H12.75V15.5198ZM12.98 15.5198C13.9416 15.5198 14.59 14.6893 14.59 13.8498H12.59C12.59 13.7813 12.6161 13.7084 12.6719 13.6475C12.7274 13.587 12.833 13.5198 12.98 13.5198V15.5198ZM14.59 13.8498C14.59 13.5978 14.5758 13.1586 14.2868 12.784C14.0056 12.4196 13.5889 12.2998 13.4851 12.2641L12.8349 14.1555C12.9189 14.1844 12.9218 14.1882 12.905 14.1795C12.8737 14.1634 12.7852 14.1119 12.7032 14.0056C12.6216 13.8999 12.5957 13.8037 12.5889 13.7711C12.5841 13.7482 12.59 13.7627 12.59 13.8498H14.59ZM13.4831 12.2635L13.0731 12.1235L12.4269 14.0162L12.8369 14.1562L13.4831 12.2635ZM11.75 13.0698V14.5198H13.75V13.0698H11.75Z" fill="white" mask="url(#path-1-inside-1_1505_13996)"/>
<path d="M2.5 12C2.5 6.75614 6.75614 2.5 12 2.5C17.2439 2.5 21.5 6.75614 21.5 12C21.5 17.2439 17.2439 21.5 12 21.5C6.75614 21.5 2.5 17.2439 2.5 12ZM7.93354 17.8336C8.4188 17.3483 8.4188 16.5517 7.93354 16.0664C6.84739 14.9803 6.25 13.5375 6.25 12C6.25 10.4625 6.84739 9.0197 7.93354 7.93356C8.4188 7.44829 8.4188 6.65171 7.93354 6.16644C7.44828 5.68118 6.6517 5.68118 6.16644 6.16644C4.61281 7.72007 3.75 9.7972 3.75 12C3.75 14.2028 4.61281 16.2799 6.16644 17.8336C6.41515 18.0823 6.73454 18.2 7.04999 18.2C7.36543 18.2 7.68482 18.0823 7.93354 17.8336ZM15.58 13.84C15.58 13.2401 15.4451 12.7031 15.1354 12.2581C14.9515 11.9939 14.7173 11.7785 14.4417 11.6058C15.081 11.5535 15.59 11.0119 15.59 10.36C15.59 8.93767 14.5668 7.73171 13.2168 7.51474C13.0864 6.96428 12.5881 6.55 12 6.55C11.4207 6.55 10.9285 6.95199 10.7893 7.49015C9.44088 7.60947 8.41 8.76562 8.41 10.15C8.41 10.7499 8.54494 11.2869 8.85461 11.7319C9.03848 11.9961 9.27264 12.2115 9.54831 12.3841C8.90901 12.4365 8.39999 12.9781 8.39999 13.63C8.39999 15.0523 9.42315 16.2583 10.7732 16.4753C10.9036 17.0257 11.4019 17.44 11.99 17.44C12.5693 17.44 13.0615 17.038 13.2007 16.4999C14.5491 16.3805 15.58 15.2244 15.58 13.84ZM13.25 10.9689C13.2864 11.0336 13.3285 11.0947 13.3754 11.1517L13.25 11.1071V10.9689ZM10.74 13.0211C10.7035 12.9564 10.6615 12.8953 10.6146 12.8383L10.74 12.8829V13.0211ZM16.95 18.2C17.2655 18.2 17.5848 18.0823 17.8336 17.8336C19.3872 16.2799 20.25 14.2028 20.25 12C20.25 9.7972 19.3872 7.72007 17.8336 6.16644C17.3483 5.68118 16.5517 5.68118 16.0665 6.16644C15.5812 6.65171 15.5812 7.44829 16.0665 7.93356C17.1526 9.0197 17.75 10.4625 17.75 12C17.75 13.5375 17.1526 14.9803 16.0665 16.0664C15.5812 16.5517 15.5812 17.3483 16.0665 17.8336C16.3152 18.0823 16.6346 18.2 16.95 18.2Z" fill="white" stroke="white"/>
<mask id="path-4-inside-2_1505_13996" fill="white">
<path d="M10.42 10.16C10.42 10.63 10.53 10.69 10.85 10.8L11.26 10.94V9.47998H11.03C10.69 9.47998 10.42 9.78998 10.42 10.16Z"/>
</mask>
<path d="M10.42 10.16C10.42 10.63 10.53 10.69 10.85 10.8L11.26 10.94V9.47998H11.03C10.69 9.47998 10.42 9.78998 10.42 10.16Z" fill="white"/>
<path d="M10.85 10.8L10.5249 11.7457L10.5269 11.7463L10.85 10.8ZM11.26 10.94L10.9369 11.8863L12.26 12.3381V10.94H11.26ZM11.26 9.47998H12.26V8.47998H11.26V9.47998ZM9.42001 10.16C9.42001 10.412 9.43425 10.8512 9.72322 11.2258C10.0044 11.5902 10.4211 11.71 10.5249 11.7457L11.1751 9.85429C11.0911 9.82543 11.0882 9.82165 11.1051 9.83032C11.1363 9.84637 11.2248 9.89791 11.3068 10.0042C11.3884 10.1099 11.4143 10.2061 11.4211 10.2387C11.4259 10.2616 11.42 10.2471 11.42 10.16H9.42001ZM10.5269 11.7463L10.9369 11.8863L11.5831 9.99363L11.1731 9.85363L10.5269 11.7463ZM12.26 10.94V9.47998H10.26V10.94H12.26ZM11.26 8.47998H11.03V10.48H11.26V8.47998ZM11.03 8.47998C10.0302 8.47998 9.42001 9.35171 9.42001 10.16H11.42C11.42 10.2167 11.3997 10.2839 11.3449 10.3456C11.2876 10.41 11.1778 10.48 11.03 10.48V8.47998Z" fill="white" mask="url(#path-4-inside-2_1505_13996)"/>
</svg>
