<svg width="121" height="120" viewBox="0 0 121 120" fill="none" xmlns="http://www.w3.org/2000/svg">
<g clip-path="url(#clip0_878_49862)">
<rect x="0.5" width="120" height="120" rx="60" fill="#C2C2C2"/>
<circle cx="60.5" cy="60" r="60" fill="#BDFFBD"/>
<path d="M60.5 84.9997C72.006 84.9997 81.3334 75.6723 81.3334 64.1663C81.3334 52.6604 72.006 43.333 60.5 43.333C48.9941 43.333 39.6667 52.6604 39.6667 64.1663C39.6667 75.6723 48.9941 84.9997 60.5 84.9997Z" fill="#196719"/>
<path d="M60.5 95.417C39.625 95.417 22.625 109.417 22.625 126.667C22.625 127.834 23.5417 128.75 24.7083 128.75H96.2917C97.4583 128.75 98.375 127.834 98.375 126.667C98.375 109.417 81.375 95.417 60.5 95.417Z" fill="#196719"/>
</g>
<rect x="1.5" y="1" width="118" height="118" rx="59" stroke="#196719" stroke-width="2"/>
<defs>
<clipPath id="clip0_878_49862">
<rect x="0.5" width="120" height="120" rx="60" fill="white"/>
</clipPath>
</defs>
</svg>
