<svg width="24" height="24" viewBox="0 0 24 24" fill="none" xmlns="http://www.w3.org/2000/svg">
<g clip-path="url(#clip0_128_3729)">
<rect width="24" height="24" rx="12" fill="#474747"/>
<circle cx="12" cy="12" r="12" fill="#BDFFBD"/>
<path d="M12 16.5C14.0711 16.5 15.75 14.8211 15.75 12.75C15.75 10.6789 14.0711 9 12 9C9.92893 9 8.25 10.6789 8.25 12.75C8.25 14.8211 9.92893 16.5 12 16.5Z" fill="#42AB42"/>
<path d="M12.0001 18.375C8.24262 18.375 5.18262 20.895 5.18262 24C5.18262 24.21 5.34762 24.375 5.55762 24.375H18.4426C18.6526 24.375 18.8176 24.21 18.8176 24C18.8176 20.895 15.7576 18.375 12.0001 18.375Z" fill="#42AB42"/>
</g>
<rect x="0.5" y="0.5" width="23" height="23" rx="11.5" stroke="#42AB42"/>
<defs>
<clipPath id="clip0_128_3729">
<rect width="24" height="24" rx="12" fill="white"/>
</clipPath>
</defs>
</svg>
