<svg width="32" height="32" viewBox="0 0 32 32" fill="none" xmlns="http://www.w3.org/2000/svg">
<circle cx="16" cy="16" r="16" fill="#196719"/>
<path d="M16 0C24.832 0 32 7.168 32 16C32 24.832 24.832 32 16 32C7.168 32 0 24.832 0 16C0 7.168 7.168 0 16 0ZM6.4368 21.4656C8.7856 24.9696 12.312 27.2 16.256 27.2C20.1984 27.2 23.7264 24.9712 26.0736 21.4656C23.4108 18.977 19.9007 17.5949 16.256 17.6C12.6107 17.5945 9.10002 18.9766 6.4368 21.4656ZM16 14.4C17.273 14.4 18.4939 13.8943 19.3941 12.9941C20.2943 12.0939 20.8 10.873 20.8 9.6C20.8 8.32696 20.2943 7.10606 19.3941 6.20589C18.4939 5.30571 17.273 4.8 16 4.8C14.727 4.8 13.5061 5.30571 12.6059 6.20589C11.7057 7.10606 11.2 8.32696 11.2 9.6C11.2 10.873 11.7057 12.0939 12.6059 12.9941C13.5061 13.8943 14.727 14.4 16 14.4Z" fill="#BDFFBD"/>
</svg>
