<svg width="32" height="34" viewBox="0 0 32 34" fill="none" xmlns="http://www.w3.org/2000/svg"><g clip-path="url(#clip0_128_2982)">
<rect width="32" height="32" rx="16" fill="#BDBDBD"/>
<circle cx="16" cy="16" r="16" fill="#E0E0E0"/>
<path d="M16.0002 23C18.3013 23 20.1668 21.1345 20.1668 18.8333C20.1668 16.5321 18.3013 14.6667 16.0002 14.6667C13.699 14.6667 11.8335 16.5321 11.8335 18.8333C11.8335 21.1345 13.699 23 16.0002 23Z" fill="#868B9A"/>
<path d="M15.9998 25.0833C11.8248 25.0833 8.4248 27.8833 8.4248 31.3333C8.4248 31.5667 8.60814 31.75 8.84147 31.75H23.1581C23.3915 31.75 23.5748 31.5667 23.5748 31.3333C23.5748 27.8833 20.1748 25.0833 15.9998 25.0833Z" fill="#868B9A"/>
</g>
<circle cx="26" cy="27.5" r="5" fill="#00B181" stroke="white" stroke-width="2"/>
<defs>
<clipPath id="clip0_128_2982">
<rect width="32" height="32" rx="16" fill="white"/>
</clipPath>
</defs>
</svg>
