<svg width="25" height="24" viewBox="0 0 25 24" fill="none" xmlns="http://www.w3.org/2000/svg">
<path d="M19.6474 6.52941C19.6474 8.47865 18.0673 10.0588 16.118 10.0588C14.1688 10.0588 12.5886 8.47865 12.5886 6.52941C12.5886 4.58017 14.1688 3 16.118 3C18.0673 3 19.6474 4.58017 19.6474 6.52941Z" fill="#474747"/>
<path d="M11.4121 6.52941C11.4121 8.47865 9.83192 10.0588 7.88268 10.0588C5.93344 10.0588 4.35327 8.47865 4.35327 6.52941C4.35327 4.58017 5.93344 3 7.88268 3C9.83192 3 11.4121 4.58017 11.4121 6.52941ZM6.11798 6.52941C6.11798 7.50403 6.90806 8.29412 7.88268 8.29412C8.8573 8.29412 9.64739 7.50403 9.64739 6.52941C9.64739 5.55479 8.8573 4.76471 7.88268 4.76471C6.90806 4.76471 6.11798 5.55479 6.11798 6.52941Z" fill="#474747"/>
<path fill-rule="evenodd" clip-rule="evenodd" d="M6.70613 11.4116C4.10714 11.4116 2.00024 13.5185 2.00024 16.1175V20.8234C2.00024 21.4731 2.52697 21.9999 3.17671 21.9999H20.8238C21.4735 21.9999 22.0002 21.4731 22.0002 20.8234V16.1175C22.0002 13.5185 19.8933 11.4116 17.2944 11.4116H6.70613ZM6.06887 13.7646C5.20254 13.7646 4.50024 14.4669 4.50024 15.3332V19.2548C4.50024 19.4713 4.67582 19.6469 4.8924 19.6469H9.10809C9.32467 19.6469 9.50024 19.4713 9.50024 19.2548V15.3332C9.50024 14.4669 8.79795 13.7646 7.93162 13.7646H6.06887Z" fill="#474747"/>
</svg>
