<svg width="64" height="65" viewBox="0 0 64 65" fill="none" xmlns="http://www.w3.org/2000/svg">
<g clip-path="url(#clip0_1661_37729)">
<rect y="0.5" width="64" height="64" rx="32" fill="#C2C2C2"/>
<circle cx="32" cy="32.5" r="32" fill="#196719"/>
<path d="M32 0.5C49.664 0.5 64 14.836 64 32.5C64 50.164 49.664 64.5 32 64.5C14.336 64.5 0 50.164 0 32.5C0 14.836 14.336 0.5 32 0.5ZM12.8736 43.4312C17.5712 50.4392 24.624 54.9 32.512 54.9C40.3968 54.9 47.4528 50.4424 52.1472 43.4312C46.8216 38.4539 39.8014 35.6898 32.512 35.7C25.2215 35.689 18.2 38.4532 12.8736 43.4312ZM32 29.3C34.5461 29.3 36.9879 28.2886 38.7882 26.4882C40.5886 24.6879 41.6 22.2461 41.6 19.7C41.6 17.1539 40.5886 14.7121 38.7882 12.9118C36.9879 11.1114 34.5461 10.1 32 10.1C29.4539 10.1 27.0121 11.1114 25.2118 12.9118C23.4114 14.7121 22.4 17.1539 22.4 19.7C22.4 22.2461 23.4114 24.6879 25.2118 26.4882C27.0121 28.2886 29.4539 29.3 32 29.3Z" fill="#BDFFBD"/>
</g>
<rect x="1" y="1.5" width="62" height="62" rx="31" stroke="#196719" stroke-width="2"/>
<defs>
<clipPath id="clip0_1661_37729">
<rect y="0.5" width="64" height="64" rx="32" fill="white"/>
</clipPath>
</defs>
</svg>
