<svg width="24" height="24" viewBox="0 0 24 24" fill="none" xmlns="http://www.w3.org/2000/svg">
<rect width="24" height="24" rx="12" fill="#0B6A33"/>
<path d="M18.3733 11.16L17.4667 10.1067C17.2933 9.90667 17.1533 9.53333 17.1533 9.26667V8.13333C17.1533 7.42667 16.5733 6.84666 15.8667 6.84666H14.7333C14.4733 6.84666 14.0933 6.70667 13.8933 6.53333L12.84 5.62667C12.38 5.23333 11.6267 5.23333 11.16 5.62667L10.1133 6.54C9.91334 6.70667 9.53334 6.84666 9.27334 6.84666H8.12C7.41334 6.84666 6.83334 7.42667 6.83334 8.13333V9.27333C6.83334 9.53333 6.69334 9.90667 6.52667 10.1067L5.62667 11.1667C5.24 11.6267 5.24 12.3733 5.62667 12.8333L6.52667 13.8933C6.69334 14.0933 6.83334 14.4667 6.83334 14.7267V15.8667C6.83334 16.5733 7.41334 17.1533 8.12 17.1533H9.27334C9.53334 17.1533 9.91334 17.2933 10.1133 17.4667L11.1667 18.3733C11.6267 18.7667 12.38 18.7667 12.8467 18.3733L13.9 17.4667C14.1 17.2933 14.4733 17.1533 14.74 17.1533H15.8733C16.58 17.1533 17.16 16.5733 17.16 15.8667V14.7333C17.16 14.4733 17.3 14.0933 17.4733 13.8933L18.38 12.84C18.7667 12.38 18.7667 11.62 18.3733 11.16ZM14.7733 10.74L11.5533 13.96C11.46 14.0533 11.3333 14.1067 11.2 14.1067C11.0667 14.1067 10.94 14.0533 10.8467 13.96L9.23334 12.3467C9.04 12.1533 9.04 11.8333 9.23334 11.64C9.42667 11.4467 9.74667 11.4467 9.94 11.64L11.2 12.9L14.0667 10.0333C14.26 9.84 14.58 9.84 14.7733 10.0333C14.9667 10.2267 14.9667 10.5467 14.7733 10.74Z" fill="#54F297"/>
</svg>
