<svg width="25" height="24" viewBox="0 0 25 24" fill="none" xmlns="http://www.w3.org/2000/svg">
<path d="M19.085 10.36L13.085 4.24C12.925 4.08 12.725 4 12.505 4C12.285 4 12.085 4.08 11.925 4.24L5.92496 10.36C5.70496 10.58 5.62496 10.98 5.76496 11.26C5.88496 11.56 6.18496 11.78 6.50496 11.78H9.10496V19.18C9.10496 19.62 9.56496 19.98 10.005 19.98H15.005C15.445 19.98 15.905 19.62 15.905 19.18V11.78H18.505C18.825 11.78 19.125 11.54 19.245 11.26C19.365 10.98 19.305 10.6 19.085 10.36ZM15.005 10.2C14.565 10.2 14.305 10.48 14.305 10.92V18.4H10.705V10.92C10.705 10.48 10.445 10.2 10.005 10.2H8.40496L12.505 6.02L16.605 10.2H15.005Z" fill="#196719"/>
</svg>
