<svg width="25" height="24" viewBox="0 0 25 24" fill="none" xmlns="http://www.w3.org/2000/svg">
<path d="M20.2649 11.4201L14.1449 5.42008C13.9049 5.20008 13.5249 5.12008 13.2449 5.26008C12.9449 5.38008 12.7249 5.68008 12.7249 6.00008V8.60008H5.3249C4.8849 8.60008 4.5249 9.06008 4.5249 9.50008V14.5001C4.5249 14.9401 4.8849 15.4001 5.3249 15.4001H12.7249V18.0001C12.7249 18.3201 12.9649 18.6201 13.2449 18.7401C13.3449 18.7801 13.4649 18.8001 13.5649 18.8001C13.7649 18.8001 13.9849 18.7201 14.1249 18.5801L20.2449 12.5801C20.4049 12.4201 20.4849 12.2201 20.4849 12.0001C20.4849 11.7801 20.4249 11.5801 20.2649 11.4201ZM14.3049 16.1001V14.5001C14.3049 14.0601 14.0249 13.8001 13.5849 13.8001H6.1049V10.2001H13.5849C14.0249 10.2001 14.3049 9.94008 14.3049 9.50008V7.90008L18.4849 12.0001L14.3049 16.1001Z" fill="#196719"/>
</svg>
