<svg width="25" height="24" viewBox="0 0 25 24" fill="none" xmlns="http://www.w3.org/2000/svg">
<path d="M19.2451 12.72C19.1251 12.42 18.8251 12.2 18.5051 12.2H15.9051V4.8C15.9051 4.36 15.4451 4 15.0051 4H10.0051C9.56511 4 9.10511 4.36 9.10511 4.8V12.2H6.50511C6.18511 12.2 5.88511 12.44 5.76511 12.72C5.64511 13.02 5.70511 13.38 5.92511 13.6L11.9251 19.74C12.0851 19.9 12.2851 19.98 12.5051 19.98C12.7251 19.98 12.9251 19.9 13.0851 19.74L19.0851 13.6C19.3051 13.38 19.3651 13.02 19.2451 12.72ZM12.5051 17.98L8.40511 13.8H10.0051C10.4451 13.8 10.7051 13.52 10.7051 13.08V5.6H14.3051V13.08C14.3051 13.52 14.5651 13.8 15.0051 13.8H16.6051L12.5051 17.98Z" fill="#196719"/>
</svg>
