<svg width="205" height="163" viewBox="0 0 205 163" fill="none" xmlns="http://www.w3.org/2000/svg">
<g opacity="0.5">
<g filter="url(#filter0_d_3614_58065)">
<circle cx="171.115" cy="46.1148" r="101.654" stroke="#42AB42" stroke-width="4"/>
</g>
<g filter="url(#filter1_d_3614_58065)">
<circle cx="170.853" cy="45.8528" r="117.731" stroke="#42AB42" stroke-width="2"/>
</g>
<g filter="url(#filter2_d_3614_58065)">
<circle cx="170.59" cy="45.5899" r="133.308" stroke="#42AB42"/>
</g>
<g filter="url(#filter3_d_3614_58065)">
<circle cx="171" cy="46" r="146.75" stroke="#42AB42" stroke-width="0.5"/>
</g>
<path d="M203.591 85.6587H203.59C202.943 85.6572 202.309 85.4813 201.751 85.1497C201.193 84.8182 200.732 84.3432 200.411 83.7735C200.411 83.7733 200.411 83.7731 200.411 83.7729L194.002 72.4901C193.517 71.6407 193.376 70.6312 193.609 69.678L203.591 85.6587ZM203.591 85.6587H221.551C222.189 85.6584 222.816 85.4884 223.369 85.1664C223.921 84.845 224.381 84.3834 224.706 83.8278L203.591 85.6587ZM233.182 53.0504L233.182 53.0505C233.653 53.467 234.012 53.9983 234.227 54.5939C234.442 55.1886 234.506 55.829 234.414 56.4555C234.414 56.4564 234.414 56.4573 234.414 56.4582L233.919 56.3852L233.182 53.0504ZM233.182 53.0504L216.648 38.4455L216.317 38.8203M233.182 53.0504L216.317 38.8203M216.317 38.8203L216.648 38.4454C216.128 37.9869 215.493 37.6854 214.813 37.5765C214.133 37.4677 213.437 37.5564 212.805 37.8318L201.644 42.6836C201.117 42.9127 200.65 43.2643 200.28 43.7096C199.91 44.1546 199.647 44.6811 199.511 45.2469L216.317 38.8203ZM171.418 9.88006L170.964 10.0902C171.193 10.5844 171.525 11.0223 171.937 11.3729C171.938 11.3732 171.938 11.3735 171.938 11.3738L194.281 30.6123C194.281 30.6123 194.281 30.6123 194.281 30.6124C194.799 31.0591 195.429 31.3512 196.102 31.4548C196.774 31.5585 197.462 31.4693 198.087 31.1977L198.087 31.1976L209.836 26.0887L209.839 26.0873C210.309 25.8791 210.73 25.5732 211.077 25.1897C211.423 24.8064 211.688 24.354 211.853 23.8616C211.853 23.8615 211.854 23.8614 211.854 23.8613L219.029 2.9165C219.245 2.29404 219.297 1.62453 219.18 0.975304C219.063 0.326485 218.781 -0.280418 218.362 -0.783756L171.418 9.88006ZM171.418 9.88006L170.964 10.0902C170.735 9.59555 170.615 9.05607 170.61 8.50947L170.61 8.50558L170.61 -5.18597V-5.18626C170.611 -5.80264 170.759 -6.41 171.043 -6.95467C171.327 -7.4994 171.739 -7.96522 172.242 -8.30989L172.242 -8.31005L189.253 -19.9464C189.253 -19.9465 189.253 -19.9465 189.253 -19.9465C189.767 -20.2987 190.36 -20.5129 190.978 -20.5684C191.595 -20.6238 192.216 -20.5187 192.783 -20.2632C202.641 -15.8492 211.388 -9.18739 218.361 -0.784805L171.418 9.88006ZM157.269 -8.31008L157.269 -8.30989C157.773 -7.96522 158.184 -7.4994 158.468 -6.95466C158.752 -6.41 158.9 -5.80264 158.901 -5.18626V-5.18597V8.5056C158.901 9.05311 158.784 9.59438 158.558 10.0915C158.332 10.5886 158.002 11.0299 157.591 11.3839L135.246 30.6245C135.246 30.6245 135.246 30.6246 135.246 30.6246C134.728 31.0713 134.098 31.3634 133.425 31.4671C132.753 31.5707 132.065 31.4815 131.44 31.2099L131.44 31.2097L119.676 26.0888C119.676 26.0887 119.676 26.0887 119.675 26.0887C119.203 25.8831 118.778 25.5789 118.428 25.1962C118.078 24.8136 117.811 24.361 117.643 23.8677C117.642 23.8676 117.642 23.8675 117.642 23.8673L110.466 2.91899L157.269 -8.31008ZM157.269 -8.31008L140.255 -19.9459C140.255 -19.9461 140.255 -19.9464 140.254 -19.9466C139.745 -20.2965 139.158 -20.5111 138.546 -20.5698C137.934 -20.6286 137.317 -20.5292 136.752 -20.2813L136.749 -20.2798L157.269 -8.31008ZM147.986 78.135H147.987H181.524H181.525C182.172 78.1365 182.806 78.3124 183.364 78.644C183.922 78.9754 184.383 79.4502 184.704 80.0198C184.704 80.0201 184.704 80.0205 184.704 80.0208L190.732 90.6191C191.013 91.1122 191.181 91.6639 191.223 92.2322C191.265 92.8005 191.18 93.3714 190.974 93.9017L183.194 114.152L182.728 113.973L183.194 114.152C182.975 114.722 182.623 115.229 182.168 115.63C181.713 116.029 181.169 116.31 180.582 116.445C180.582 116.445 180.581 116.446 180.58 116.446L147.986 78.135ZM147.986 78.135C147.339 78.1365 146.705 78.3124 146.147 78.644C145.589 78.9753 145.128 79.45 144.808 80.0193C144.807 80.0198 144.807 80.0203 144.807 80.0208L138.783 90.6198C138.502 91.1132 138.335 91.665 138.294 92.2334C138.253 92.8013 138.339 93.3717 138.544 93.9014L147.986 78.135ZM199.511 45.2474L193.609 69.6766L199.511 45.2474ZM116.706 37.8643L116.705 37.8636C116.075 37.592 115.382 37.5055 114.706 37.6142C114.03 37.7229 113.398 38.0224 112.88 38.4773L112.879 38.4781L96.3451 53.083L96.345 53.0831C95.8738 53.4996 95.5145 54.0309 95.2996 54.6265C95.0848 55.2216 95.0207 55.8624 95.1128 56.4893C96.4916 66.1985 99.7959 75.5149 104.822 83.8621C105.15 84.4096 105.61 84.8631 106.159 85.1782L106.408 84.7445C106.882 85.0164 107.417 85.159 107.96 85.1587V85.6587H107.96H125.92H125.921C126.568 85.6572 127.202 85.4813 127.76 85.1497C128.318 84.8182 128.779 84.3433 129.1 83.7737C129.1 83.7734 129.1 83.7731 129.1 83.7729L135.509 72.5227C135.509 72.5225 135.509 72.5223 135.509 72.522C135.995 71.6725 136.135 70.6628 135.902 69.7095C135.902 69.7094 135.902 69.7093 135.902 69.7092L130.001 45.28C129.864 44.714 129.601 44.1874 129.231 43.7422C128.861 43.297 128.394 42.9454 127.867 42.7163C127.867 42.7162 127.867 42.7162 127.867 42.7162L116.706 37.8643ZM147.401 115.629C147.853 116.028 148.393 116.308 148.976 116.445L138.545 93.9023L146.381 114.161C146.599 114.727 146.949 115.231 147.401 115.629ZM82.6436 46.0167C82.6436 -0.482101 119.492 -38.291 164.756 -38.291C210.019 -38.291 246.868 -0.482101 246.868 46.0167C246.868 92.5154 210.019 130.324 164.756 130.324C119.492 130.324 82.6436 92.5154 82.6436 46.0167ZM110.322 0.972706C110.202 1.62281 110.251 2.29406 110.466 2.91864L111.534 -0.464466L111.152 -0.787052C111.152 -0.786491 111.151 -0.785931 111.151 -0.78537C110.728 -0.283482 110.442 0.32317 110.322 0.972706Z" fill="#42AB42" stroke="#42AB42"/>
</g>
<defs>
<filter id="filter0_d_3614_58065" x="43.4607" y="-73.5391" width="255.308" height="255.308" filterUnits="userSpaceOnUse" color-interpolation-filters="sRGB">
<feFlood flood-opacity="0" result="BackgroundImageFix"/>
<feColorMatrix in="SourceAlpha" type="matrix" values="0 0 0 0 0 0 0 0 0 0 0 0 0 0 0 0 0 0 127 0" result="hardAlpha"/>
<feOffset dy="8"/>
<feGaussianBlur stdDeviation="12"/>
<feColorMatrix type="matrix" values="0 0 0 0 0.08 0 0 0 0 0.08 0 0 0 0 0.08 0 0 0 0.16 0"/>
<feBlend mode="normal" in2="BackgroundImageFix" result="effect1_dropShadow_3614_58065"/>
<feBlend mode="normal" in="SourceGraphic" in2="effect1_dropShadow_3614_58065" result="shape"/>
</filter>
<filter id="filter1_d_3614_58065" x="28.1218" y="-88.8779" width="285.461" height="285.462" filterUnits="userSpaceOnUse" color-interpolation-filters="sRGB">
<feFlood flood-opacity="0" result="BackgroundImageFix"/>
<feColorMatrix in="SourceAlpha" type="matrix" values="0 0 0 0 0 0 0 0 0 0 0 0 0 0 0 0 0 0 127 0" result="hardAlpha"/>
<feOffset dy="8"/>
<feGaussianBlur stdDeviation="12"/>
<feColorMatrix type="matrix" values="0 0 0 0 0.08 0 0 0 0 0.08 0 0 0 0 0.08 0 0 0 0.16 0"/>
<feBlend mode="normal" in2="BackgroundImageFix" result="effect1_dropShadow_3614_58065"/>
<feBlend mode="normal" in="SourceGraphic" in2="effect1_dropShadow_3614_58065" result="shape"/>
</filter>
<filter id="filter2_d_3614_58065" x="12.7827" y="-104.218" width="315.615" height="315.615" filterUnits="userSpaceOnUse" color-interpolation-filters="sRGB">
<feFlood flood-opacity="0" result="BackgroundImageFix"/>
<feColorMatrix in="SourceAlpha" type="matrix" values="0 0 0 0 0 0 0 0 0 0 0 0 0 0 0 0 0 0 127 0" result="hardAlpha"/>
<feOffset dy="8"/>
<feGaussianBlur stdDeviation="12"/>
<feColorMatrix type="matrix" values="0 0 0 0 0.08 0 0 0 0 0.08 0 0 0 0 0.08 0 0 0 0.16 0"/>
<feBlend mode="normal" in2="BackgroundImageFix" result="effect1_dropShadow_3614_58065"/>
<feBlend mode="normal" in="SourceGraphic" in2="effect1_dropShadow_3614_58065" result="shape"/>
</filter>
<filter id="filter3_d_3614_58065" x="0" y="-117" width="342" height="342" filterUnits="userSpaceOnUse" color-interpolation-filters="sRGB">
<feFlood flood-opacity="0" result="BackgroundImageFix"/>
<feColorMatrix in="SourceAlpha" type="matrix" values="0 0 0 0 0 0 0 0 0 0 0 0 0 0 0 0 0 0 127 0" result="hardAlpha"/>
<feOffset dy="8"/>
<feGaussianBlur stdDeviation="12"/>
<feColorMatrix type="matrix" values="0 0 0 0 0.08 0 0 0 0 0.08 0 0 0 0 0.08 0 0 0 0.16 0"/>
<feBlend mode="normal" in2="BackgroundImageFix" result="effect1_dropShadow_3614_58065"/>
<feBlend mode="normal" in="SourceGraphic" in2="effect1_dropShadow_3614_58065" result="shape"/>
</filter>
</defs>
</svg>
