<svg width="20" height="18" viewBox="0 0 20 18" fill="none" xmlns="http://www.w3.org/2000/svg">
<path d="M18.5701 12.55H17.1401C15.2401 12.55 13.6401 11.12 13.4801 9.3C13.3901 8.26 13.7701 7.22 14.5301 6.48C15.1701 5.82 16.0601 5.45 17.0201 5.45H18.5701C18.8601 5.45 19.1001 5.21 19.0701 4.92C18.8501 2.49 17.2401 0.83 14.8501 0.55C14.6101 0.51 14.3601 0.5 14.1001 0.5H5.1001C4.8201 0.5 4.5501 0.52 4.2901 0.56C1.7401 0.88 0.100098 2.78 0.100098 5.5V12.5C0.100098 15.26 2.3401 17.5 5.1001 17.5H14.1001C16.9001 17.5 18.8301 15.75 19.0701 13.08C19.1001 12.79 18.8601 12.55 18.5701 12.55ZM11.1001 6.75H5.1001C4.6901 6.75 4.3501 6.41 4.3501 6C4.3501 5.59 4.6901 5.25 5.1001 5.25H11.1001C11.5101 5.25 11.8501 5.59 11.8501 6C11.8501 6.41 11.5101 6.75 11.1001 6.75Z" fill="#196719"/>
</svg>
