<svg width="19" height="22" viewBox="0 0 19 22" fill="none" xmlns="http://www.w3.org/2000/svg">
<path d="M18.5197 8.813L10.5197 0.653007C10.3063 0.439674 10.0397 0.333004 9.74633 0.333004C9.45299 0.333004 9.18633 0.439674 8.97299 0.653007L0.972994 8.813C0.67966 9.10634 0.572994 9.63967 0.75966 10.013C0.91966 10.413 1.31966 10.7063 1.74633 10.7063H5.21299V20.573C5.21299 21.1597 5.82633 21.6397 6.41299 21.6397H13.0797C13.6663 21.6397 14.2797 21.1597 14.2797 20.573V10.7063H17.7463C18.173 10.7063 18.573 10.3863 18.733 10.013C18.893 9.63967 18.813 9.133 18.5197 8.813Z" fill="#EB5757"/>
</svg>
