<svg width="40" height="40" viewBox="0 0 40 40" fill="none" xmlns="http://www.w3.org/2000/svg">
<rect x="0.5" y="0.5" width="39" height="39" rx="19.5" fill="#FFCECE"/>
<path d="M28.5197 17.813L20.5197 9.65301C20.3063 9.43967 20.0397 9.333 19.7463 9.333C19.453 9.333 19.1863 9.43967 18.973 9.65301L10.973 17.813C10.6797 18.1063 10.573 18.6397 10.7597 19.013C10.9197 19.413 11.3197 19.7063 11.7463 19.7063H15.213V29.573C15.213 30.1597 15.8263 30.6397 16.413 30.6397H23.0797C23.6663 30.6397 24.2797 30.1597 24.2797 29.573V19.7063H27.7463C28.173 19.7063 28.573 19.3863 28.733 19.013C28.893 18.6397 28.813 18.133 28.5197 17.813Z" fill="#EB5757"/>
<rect x="0.5" y="0.5" width="39" height="39" rx="19.5" stroke="#EB5757"/>
</svg>
