<svg width="15" height="16" viewBox="0 0 15 16" fill="none" xmlns="http://www.w3.org/2000/svg">
<path d="M14.085 6.36L8.08496 0.240002C7.92496 0.0800024 7.72496 0 7.50496 0C7.28496 0 7.08496 0.0800024 6.92496 0.240002L0.924961 6.36C0.704961 6.58 0.624961 6.98 0.764961 7.26C0.884961 7.56 1.18496 7.78 1.50496 7.78H4.10496V15.18C4.10496 15.62 4.56496 15.98 5.00496 15.98H10.005C10.445 15.98 10.905 15.62 10.905 15.18V7.78H13.505C13.825 7.78 14.125 7.54 14.245 7.26C14.365 6.98 14.305 6.6 14.085 6.36ZM10.005 6.2C9.56496 6.2 9.30496 6.48 9.30496 6.92V14.4H5.70496V6.92C5.70496 6.48 5.44496 6.2 5.00496 6.2H3.40496L7.50496 2.02L11.605 6.2H10.005Z" fill="#196719"/>
</svg>
