<svg width="65" height="64" viewBox="0 0 65 64" fill="none" xmlns="http://www.w3.org/2000/svg">
<g filter="url(#filter0_di_914_37788)">
<rect x="8.5" y="4" width="47.9982" height="48.0005" rx="23.9991" fill="white"/>
<path d="M16.5001 27.9914C16.4972 28.6909 16.5394 29.39 16.6265 30.0841C17.021 33.1705 18.3103 36.074 20.3354 38.4363C22.3605 40.7987 25.0328 42.5166 28.0226 43.3782C29.4377 43.7839 30.9018 43.9931 32.3739 43.9998C33.4931 44.005 34.6097 43.8932 35.7057 43.6662C37.7945 43.2264 39.7741 42.3728 41.5278 41.1557C43.2815 39.9387 44.7738 38.3828 45.9166 36.5799C46.0637 36.3478 46.2046 36.1095 46.3413 35.8712C46.9739 34.7481 47.4673 33.552 47.8104 32.3094C47.9264 31.895 48.0176 31.4599 48.1088 31.0248C48.1999 30.5897 48.2559 30.1483 48.3015 29.6987C48.3553 29.1807 48.383 28.6565 48.3843 28.126C48.3879 27.487 48.3527 26.8483 48.2787 26.2136C48.2289 25.7743 48.1599 25.3413 48.0715 24.9144C47.4505 21.8352 45.9345 19.0078 43.7133 16.7866C41.4921 14.5654 38.6647 13.0494 35.5855 12.4284C35.1587 12.3414 34.7235 12.273 34.2843 12.2212C33.6941 12.1524 33.1006 12.1171 32.5065 12.1156C31.937 12.1118 31.3677 12.1395 30.8012 12.1985C30.3537 12.242 29.9102 12.3083 29.4751 12.3911C29.04 12.474 28.6111 12.5714 28.1884 12.6874C26.9455 13.0304 25.7493 13.5245 24.6266 14.1586C24.3862 14.2933 24.148 14.4342 23.9159 14.573C21.36 16.1959 19.3156 18.509 18.0189 21.2449C17.4841 22.374 17.0856 23.5627 16.8317 24.786C16.614 25.8406 16.503 26.9145 16.5001 27.9914Z" fill="#FCCE17"/>
<path opacity="0.1" d="M16.5001 27.9914C16.4972 28.6909 16.5394 29.39 16.6265 30.0841C17.021 33.1705 18.3103 36.074 20.3354 38.4363C22.3605 40.7987 25.0328 42.5166 28.0226 43.3782C29.4377 43.7839 30.9018 43.9931 32.3739 43.9998C33.4931 44.005 34.6097 43.8932 35.7057 43.6662C37.7945 43.2264 39.7741 42.3728 41.5278 41.1557C43.2815 39.9387 44.7738 38.3828 45.9166 36.5799C46.0637 36.3478 46.2046 36.1095 46.3413 35.8712C46.9739 34.7481 47.4673 33.552 47.8104 32.3094C47.9264 31.895 48.0176 31.4599 48.1088 31.0248C48.1999 30.5897 48.2559 30.1483 48.3015 29.6987C48.3553 29.1807 48.383 28.6565 48.3843 28.126C48.3879 27.487 48.3527 26.8483 48.2787 26.2136C48.2289 25.7743 48.1599 25.3413 48.0715 24.9144C47.4505 21.8352 45.9345 19.0078 43.7133 16.7866C41.4921 14.5654 38.6647 13.0494 35.5855 12.4284C35.1587 12.3414 34.7235 12.273 34.2843 12.2212C33.6941 12.1524 33.1006 12.1171 32.5065 12.1156C31.937 12.1118 31.3677 12.1395 30.8012 12.1985C30.3537 12.242 29.9102 12.3083 29.4751 12.3911C29.04 12.474 28.6111 12.5714 28.1884 12.6874C26.9455 13.0304 25.7493 13.5245 24.6266 14.1586C24.3862 14.2933 24.148 14.4342 23.9159 14.573C21.36 16.1959 19.3156 18.509 18.0189 21.2449C17.4841 22.374 17.0856 23.5627 16.8317 24.786C16.614 25.8406 16.503 26.9145 16.5001 27.9914Z" fill="#FFF2BE"/>
<path opacity="0.05" d="M47.7606 23.6406C47.8808 24.055 47.9864 24.486 48.0735 24.9211C48.1605 25.3563 48.2289 25.781 48.2807 26.2203C48.3547 26.855 48.39 27.4937 48.3863 28.1328C48.3863 28.6632 48.3587 29.1874 48.3035 29.7054C48.2579 30.1557 48.1936 30.5978 48.1108 31.0315C48.0279 31.4666 47.9284 31.8935 47.8124 32.3162C47.4676 33.5545 46.9736 34.7464 46.3413 35.8655C46.2045 36.1038 46.0636 36.3421 45.9165 36.5742C44.4752 38.8594 42.4755 40.7398 40.1061 42.038C37.7366 43.3361 35.0755 44.0093 32.3738 43.994C31.7921 43.9903 31.2111 43.955 30.6333 43.8884L47.7606 23.6406Z" fill="#594700"/>
<path opacity="0.05" d="M47.5139 33.2617C47.2027 34.163 46.8102 35.0341 46.3411 35.8642C46.2044 36.1025 46.0635 36.3407 45.9164 36.5728C44.4681 38.8573 42.4642 40.7372 40.0919 42.0367L47.5139 33.2617Z" fill="#594700"/>
<path opacity="0.15" d="M45.581 19.0254C46.0943 19.7699 46.5421 20.5574 46.9195 21.3792L28.2714 43.4441L28.0186 43.3757C27.2377 43.147 26.4757 42.8581 25.7394 42.5117L45.581 19.0254Z" fill="#FFF2BE"/>
<path opacity="0.15" d="M39.483 13.75C40.3191 14.1636 41.1177 14.6489 41.87 15.2004L21.3384 39.4886C20.6694 38.838 20.0586 38.1301 19.5129 37.3731L39.483 13.75Z" fill="#FFF2BE"/>
<path opacity="0.15" d="M37.154 12.8242C37.6472 12.9775 38.1306 13.153 38.6044 13.3505L18.9721 36.5737C18.6986 36.1406 18.4396 35.6972 18.2075 35.2372L37.154 12.8242Z" fill="#FFF2BE"/>
<path opacity="0.15" d="M16.5457 26.9062C16.5664 26.612 16.5975 26.3199 16.6327 26.0318C16.6451 25.9345 16.6555 25.8371 16.67 25.7418C16.6845 25.6465 16.699 25.5346 16.7156 25.4455C16.7529 25.2383 16.7902 25.0103 16.8337 24.7949C17.4635 21.7786 18.9557 19.0102 21.129 16.8259C21.9718 15.976 22.9073 15.2233 23.9179 14.5819C24.15 14.4348 24.3882 14.2939 24.6286 14.1675C25.7513 13.5334 26.9475 13.0393 28.1904 12.6963C28.3479 12.6528 28.5053 12.6155 28.6649 12.5762L16.5457 26.9062Z" fill="#FFF2BE"/>
<path d="M20.5634 28.0587C20.5629 31.0715 21.7075 33.9719 23.7654 36.1725C25.8232 38.373 28.6405 39.7093 31.6466 39.9106C31.9076 39.9272 32.177 39.9375 32.4443 39.9375C35.5679 39.8963 38.5495 38.6265 40.7438 36.4031C42.938 34.1796 44.1683 31.1815 44.1683 28.0576C44.1683 24.9338 42.938 21.9356 40.7438 19.7122C38.5495 17.4888 35.5679 16.219 32.4443 16.1777C32.177 16.1777 31.9076 16.1777 31.6466 16.2047C28.6405 16.407 25.8235 17.7438 23.7658 19.9446C21.7081 22.1454 20.5634 25.0458 20.5634 28.0587Z" fill="#FCCE17"/>
<path opacity="0.4" d="M20.5634 28.0587C20.5629 31.0715 21.7075 33.9719 23.7654 36.1725C25.8232 38.373 28.6405 39.7093 31.6466 39.9106C31.9076 39.9272 32.177 39.9375 32.4443 39.9375C35.5679 39.8963 38.5495 38.6265 40.7438 36.4031C42.938 34.1796 44.1683 31.1815 44.1683 28.0576C44.1683 24.9338 42.938 21.9356 40.7438 19.7122C38.5495 17.4888 35.5679 16.219 32.4443 16.1777C32.177 16.1777 31.9076 16.1777 31.6466 16.2047C28.6405 16.407 25.8235 17.7438 23.7658 19.9446C21.7081 22.1454 20.5634 25.0458 20.5634 28.0587Z" fill="#594700"/>
<path d="M21.0918 28.0575C21.0918 28.2647 21.0918 28.4719 21.1084 28.6626C21.256 31.4318 22.4124 34.051 24.3593 36.0258C26.3063 38.0006 28.9088 39.1942 31.6757 39.3811L31.8311 39.3915C32.0383 39.3915 32.233 39.408 32.4361 39.408C35.2812 39.4135 38.0244 38.3492 40.1212 36.4262C42.2181 34.5032 43.5153 31.8622 43.7555 29.0272C43.7845 28.7061 43.797 28.3828 43.797 28.0534C43.797 27.7239 43.7866 27.4546 43.7638 27.1604C43.7175 26.5504 43.6205 25.9453 43.4737 25.3515C42.9771 23.3363 41.9383 21.4955 40.47 20.0287C39.0017 18.5618 37.1599 17.5249 35.1442 17.0303C34.5504 16.8835 33.9453 16.7865 33.3353 16.7402C33.0411 16.7174 32.7427 16.707 32.4423 16.707C32.1874 16.707 31.9326 16.707 31.6819 16.7319C31.6114 16.7319 31.541 16.7319 31.4747 16.7485C29.8209 16.8867 28.2183 17.3891 26.7816 18.2196C25.0522 19.2142 23.616 20.6476 22.618 22.375C21.6201 24.1024 21.0957 26.0626 21.098 28.0575H21.0918Z" fill="#FCCE17"/>
<path opacity="0.5" d="M21.0918 28.0575C21.0918 28.2647 21.0918 28.4719 21.1084 28.6626C21.256 31.4318 22.4124 34.051 24.3593 36.0258C26.3063 38.0006 28.9088 39.1942 31.6757 39.3811L31.8311 39.3915C32.0383 39.3915 32.233 39.408 32.4361 39.408C35.2812 39.4135 38.0244 38.3492 40.1212 36.4262C42.2181 34.5032 43.5153 31.8622 43.7555 29.0272C43.7845 28.7061 43.797 28.3828 43.797 28.0534C43.797 27.7239 43.7866 27.4546 43.7638 27.1604C43.7175 26.5504 43.6205 25.9453 43.4737 25.3515C42.9771 23.3363 41.9383 21.4955 40.47 20.0287C39.0017 18.5618 37.1599 17.5249 35.1442 17.0303C34.5504 16.8835 33.9453 16.7865 33.3353 16.7402C33.0411 16.7174 32.7427 16.707 32.4423 16.707C32.1874 16.707 31.9326 16.707 31.6819 16.7319C31.6114 16.7319 31.541 16.7319 31.4747 16.7485C29.8209 16.8867 28.2183 17.3891 26.7816 18.2196C25.0522 19.2142 23.616 20.6476 22.618 22.375C21.6201 24.1024 21.0957 26.0626 21.098 28.0575H21.0918Z" fill="#594700"/>
<path d="M40.4403 36.1115C42.3553 34.2213 43.5312 31.7086 43.7555 29.0272C43.7845 28.7061 43.799 28.3828 43.799 28.0534C43.799 27.7239 43.7866 27.4546 43.7638 27.1604C43.7175 26.5504 43.6205 25.9453 43.4737 25.3515C42.9771 23.3363 41.9383 21.4955 40.47 20.0287C39.0017 18.5618 37.1599 17.5249 35.1442 17.0303C34.5503 16.8835 33.9453 16.7865 33.3353 16.7402C33.0411 16.7174 32.7427 16.707 32.4423 16.707C32.1874 16.707 31.9326 16.707 31.6818 16.7319C31.6114 16.7319 31.541 16.7319 31.4746 16.7485C29.8209 16.8867 28.2183 17.3891 26.7815 18.2196C26.2835 18.5113 25.8084 18.8403 25.3601 19.2038C24.2993 20.2554 23.4577 21.5072 22.8844 22.8865C22.311 24.2659 22.0172 25.7453 22.02 27.2391C22.02 27.4463 22.02 27.6431 22.0387 27.8441C22.1854 30.6136 23.3416 33.2334 25.2887 35.2084C27.2357 37.1833 29.8389 38.3766 32.606 38.5627H32.7593C32.9665 38.573 33.1633 38.5792 33.3664 38.5792C35.9384 38.5818 38.4338 37.7044 40.4382 36.0928L40.4403 36.1115Z" fill="#FCCE17"/>
<path opacity="0.25" d="M40.4403 36.1115C42.3553 34.2213 43.5312 31.7086 43.7555 29.0272C43.7845 28.7061 43.799 28.3828 43.799 28.0534C43.799 27.7239 43.7866 27.4546 43.7638 27.1604C43.7175 26.5504 43.6205 25.9453 43.4737 25.3515C42.9771 23.3363 41.9383 21.4955 40.47 20.0287C39.0017 18.5618 37.1599 17.5249 35.1442 17.0303C34.5503 16.8835 33.9453 16.7865 33.3353 16.7402C33.0411 16.7174 32.7427 16.707 32.4423 16.707C32.1874 16.707 31.9326 16.707 31.6818 16.7319C31.6114 16.7319 31.541 16.7319 31.4746 16.7485C29.8209 16.8867 28.2183 17.3891 26.7815 18.2196C26.2835 18.5113 25.8084 18.8403 25.3601 19.2038C24.2993 20.2554 23.4577 21.5072 22.8844 22.8865C22.311 24.2659 22.0172 25.7453 22.02 27.2391C22.02 27.4463 22.02 27.6431 22.0387 27.8441C22.1854 30.6136 23.3416 33.2334 25.2887 35.2084C27.2357 37.1833 29.8389 38.3766 32.606 38.5627H32.7593C32.9665 38.573 33.1633 38.5792 33.3664 38.5792C35.9384 38.5818 38.4338 37.7044 40.4382 36.0928L40.4403 36.1115Z" fill="#594700"/>
<path d="M24.6285 14.1587C31.489 10.6052 37.0606 12.4534 40.7903 14.6705C46.1775 18.2861 49.5756 24.3426 47.717 32.3468V32.3302C47.0075 34.9925 45.6114 37.4218 43.6683 39.3751C45.6746 37.4158 47.1332 34.9657 47.8994 32.2681V32.2826C49.6129 25.6521 47.458 20.3871 43.8631 16.672C40.0112 13.1206 33.4843 9.61266 24.6285 14.1587Z" fill="#FFF2BE"/>
<g filter="url(#filter1_f_914_37788)">
<path d="M33.0098 23.5065C32.6096 22.706 32.3428 22.5059 32.2594 22.5059C32.4364 22.6196 32.5095 23.2563 32.7597 23.7566C33.319 24.8753 34.2106 26.6083 37.0122 27.0085C39.8139 27.4088 39.8576 30.0103 39.7638 31.0109C41.0146 27.759 38.2424 26.5082 37.0122 26.5082C34.5107 26.5082 33.5101 24.507 33.0098 23.5065Z" fill="#AA8800"/>
<path d="M33.7605 30.0094C33.7605 28.1652 32.343 27.3412 31.7593 27.2578C32.96 28.0583 33.01 29.259 33.01 30.0094C34.0106 32.2107 35.9284 31.7605 36.7622 31.2602C34.2608 31.2602 33.7605 30.5097 33.7605 30.0094Z" fill="#AA8800"/>
<path d="M28.5069 26.0072C26.9059 25.4068 27.5897 24.1728 28.0066 23.7559C27.7564 23.8392 27.006 24.4062 27.006 25.0066C27.006 25.607 28.0066 25.9238 28.5069 26.0072Z" fill="#AA8800"/>
</g>
<path d="M33.0098 23.5065C32.6096 22.706 32.3428 22.5059 32.2594 22.5059C32.4364 22.6196 32.5095 23.2563 32.7597 23.7566C33.319 24.8753 34.2106 26.6083 37.0122 27.0085C39.8139 27.4088 39.8576 30.0103 39.7638 31.0109C41.0146 27.759 38.2424 26.5082 37.0122 26.5082C34.5107 26.5082 33.5101 24.507 33.0098 23.5065Z" fill="#FFF2BE"/>
<path d="M33.7605 30.0094C33.7605 28.1652 32.343 27.3412 31.7593 27.2578C32.96 28.0583 33.01 29.259 33.01 30.0094C34.0106 32.2107 35.9284 31.7605 36.7622 31.2602C34.2608 31.2602 33.7605 30.5097 33.7605 30.0094Z" fill="#FFF2BE"/>
<path d="M28.5069 26.0072C26.9059 25.4068 27.5897 24.1728 28.0066 23.7559C27.7564 23.8392 27.006 24.4062 27.006 25.0066C27.006 25.607 28.0066 25.9238 28.5069 26.0072Z" fill="#FFF2BE"/>
<path d="M32.9939 22.2253C33.115 22.1572 33.2418 22.0939 33.3744 22.0351C34.029 21.745 34.7729 21.5999 35.6061 21.5999C36.4541 21.5999 37.1943 21.745 37.8266 22.0351C38.4627 22.3252 38.9574 22.7288 39.3107 23.2458C39.6641 23.7628 39.8463 24.3617 39.8575 25.0423H37.5421C37.4975 24.5923 37.3059 24.2426 36.9674 23.9934C36.6289 23.7442 36.1696 23.6196 35.5893 23.6196C35.1951 23.6196 34.8622 23.6754 34.5907 23.787C34.3581 23.8794 34.1719 24.0031 34.0321 24.1583C33.6609 23.6174 33.3906 23.0514 33.1646 22.5783C33.105 22.4535 33.0484 22.3351 32.9939 22.2253Z" fill="#FFE16B"/>
<path d="M30.5558 30.9238C30.4367 31.008 30.2998 31.0802 30.1454 31.1404C29.8441 31.2595 29.4889 31.319 29.0797 31.319C28.6632 31.319 28.2894 31.2558 27.9583 31.1293C27.631 30.9991 27.3688 30.8076 27.1716 30.5546C26.9782 30.298 26.8685 29.9781 26.8425 29.595H24.5048C24.5234 30.417 24.7224 31.107 25.1017 31.6649C25.4848 32.2191 26.0167 32.6375 26.6974 32.9202C27.3818 33.2029 28.1852 33.3442 29.1076 33.3442C30.0375 33.3442 30.8316 33.2048 31.49 32.9258C31.4934 32.9243 31.4968 32.9229 31.5003 32.9214C31.0032 32.472 30.5734 31.9048 30.5734 31.2823C30.5734 31.1598 30.5677 31.0402 30.5558 30.9238Z" fill="#FFE16B"/>
<path fill-rule="evenodd" clip-rule="evenodd" d="M32.8785 23.5314C33.4182 24.7054 34.2269 26.4646 36.6683 26.668C39.7091 26.9215 40.1737 29.2021 39.9625 30.4691C39.6669 32.243 36.9216 35.0304 32.3604 32.4964C31.9896 32.2904 31.0933 31.4827 31.0933 30.4691C31.0933 29.4555 30.5865 28.6953 29.3195 28.4419C28.0525 28.1885 24.5048 27.4282 24.7582 24.6408C25.0116 21.8533 30.0798 20.3329 32.3604 22.6135C32.5384 22.7915 32.6924 23.1267 32.8785 23.5314ZM27.2922 24.6408C27.6301 23.6272 29.3195 22.867 30.5865 24.134C30.802 24.3495 31.0933 24.6408 31.3467 25.401C31.3642 25.4534 31.3812 25.5066 31.3985 25.5605C31.708 26.5277 32.0945 27.7352 36.4148 28.6953C37.0268 28.8313 38.0366 29.2528 37.4285 30.4691C36.8203 31.6855 34.8944 31.4828 34.1342 30.9759C33.9652 30.8915 33.374 30.5448 33.374 29.7089C33.3739 28.6953 33.1206 27.6817 30.5865 26.668C30.2847 26.5473 29.9167 26.4381 29.5367 26.3253C28.3215 25.9646 26.9834 25.5674 27.2922 24.6408Z" fill="#FFE16B"/>
<mask id="mask0_914_37788" style="mask-type:alpha" maskUnits="userSpaceOnUse" x="24" y="21" width="17" height="13">
<path d="M32.9939 22.2253C33.115 22.1572 33.2418 22.0939 33.3744 22.0351C34.029 21.745 34.7729 21.5999 35.6061 21.5999C36.4541 21.5999 37.1943 21.745 37.8266 22.0351C38.4627 22.3252 38.9574 22.7288 39.3107 23.2458C39.6641 23.7628 39.8463 24.3617 39.8575 25.0423H37.5421C37.4975 24.5923 37.3059 24.2426 36.9674 23.9934C36.6289 23.7442 36.1696 23.6196 35.5893 23.6196C35.1951 23.6196 34.8622 23.6754 34.5907 23.787C34.3581 23.8794 34.1719 24.0031 34.0321 24.1583C33.6609 23.6174 33.3906 23.0514 33.1646 22.5783C33.105 22.4535 33.0484 22.3351 32.9939 22.2253Z" fill="#2B892B"/>
<path d="M30.5558 30.9238C30.4367 31.008 30.2998 31.0802 30.1454 31.1404C29.8441 31.2595 29.4889 31.319 29.0797 31.319C28.6632 31.319 28.2894 31.2558 27.9583 31.1293C27.631 30.9991 27.3688 30.8076 27.1716 30.5546C26.9782 30.298 26.8685 29.9781 26.8425 29.595H24.5048C24.5234 30.417 24.7224 31.107 25.1017 31.6649C25.4848 32.2191 26.0167 32.6375 26.6974 32.9202C27.3818 33.2029 28.1852 33.3442 29.1076 33.3442C30.0375 33.3442 30.8316 33.2048 31.49 32.9258C31.4934 32.9243 31.4968 32.9229 31.5003 32.9214C31.0032 32.472 30.5734 31.9048 30.5734 31.2823C30.5734 31.1598 30.5677 31.0402 30.5558 30.9238Z" fill="#2B892B"/>
<path fill-rule="evenodd" clip-rule="evenodd" d="M32.8785 23.5314C33.4182 24.7054 34.2269 26.4646 36.6683 26.668C39.7091 26.9215 40.1737 29.2021 39.9625 30.4691C39.6669 32.243 36.9216 35.0304 32.3604 32.4964C31.9896 32.2904 31.0933 31.4827 31.0933 30.4691C31.0933 29.4555 30.5865 28.6953 29.3195 28.4419C28.0525 28.1885 24.5048 27.4282 24.7582 24.6408C25.0116 21.8533 30.0798 20.3329 32.3604 22.6135C32.5384 22.7915 32.6924 23.1267 32.8785 23.5314ZM27.2922 24.6408C27.6301 23.6272 29.3195 22.867 30.5865 24.134C30.802 24.3495 31.0933 24.6408 31.3467 25.401C31.3642 25.4534 31.3812 25.5066 31.3985 25.5605C31.708 26.5277 32.0945 27.7352 36.4148 28.6953C37.0268 28.8313 38.0366 29.2528 37.4285 30.4691C36.8203 31.6855 34.8944 31.4828 34.1342 30.9759C33.9652 30.8915 33.374 30.5448 33.374 29.7089C33.3739 28.6953 33.1206 27.6817 30.5865 26.668C30.2847 26.5473 29.9167 26.4381 29.5367 26.3253C28.3215 25.9646 26.9834 25.5674 27.2922 24.6408Z" fill="#2B892B"/>
</mask>
<g mask="url(#mask0_914_37788)">
<path opacity="0.15" d="M39.483 13.752C40.3191 14.1656 41.1177 14.6508 41.87 15.2024L21.3384 39.4905C20.6694 38.8399 20.0586 38.1321 19.5129 37.375L39.483 13.752Z" fill="#FFF2BE"/>
<path opacity="0.15" d="M37.154 12.8242C37.6472 12.9775 38.1306 13.153 38.6044 13.3505L18.9721 36.5737C18.6986 36.1406 18.4396 35.6972 18.2075 35.2372L37.154 12.8242Z" fill="#FFF2BE"/>
<path opacity="0.15" d="M45.581 19.0254C46.0943 19.7699 46.5421 20.5574 46.9195 21.3792L28.2714 43.4441L28.0186 43.3757C27.2377 43.147 26.4757 42.8581 25.7394 42.5117L45.581 19.0254Z" fill="#FFF2BE"/>
</g>
</g>
<defs>
<filter id="filter0_di_914_37788" x="0.5" y="0" width="63.9983" height="64" filterUnits="userSpaceOnUse" color-interpolation-filters="sRGB">
<feFlood flood-opacity="0" result="BackgroundImageFix"/>
<feColorMatrix in="SourceAlpha" type="matrix" values="0 0 0 0 0 0 0 0 0 0 0 0 0 0 0 0 0 0 127 0" result="hardAlpha"/>
<feOffset dy="4"/>
<feGaussianBlur stdDeviation="4"/>
<feColorMatrix type="matrix" values="0 0 0 0 0.08 0 0 0 0 0.08 0 0 0 0 0.08 0 0 0 0.12 0"/>
<feBlend mode="normal" in2="BackgroundImageFix" result="effect1_dropShadow_914_37788"/>
<feBlend mode="normal" in="SourceGraphic" in2="effect1_dropShadow_914_37788" result="shape"/>
<feColorMatrix in="SourceAlpha" type="matrix" values="0 0 0 0 0 0 0 0 0 0 0 0 0 0 0 0 0 0 127 0" result="hardAlpha"/>
<feOffset dy="2"/>
<feGaussianBlur stdDeviation="2"/>
<feComposite in2="hardAlpha" operator="arithmetic" k2="-1" k3="1"/>
<feColorMatrix type="matrix" values="0 0 0 0 0 0 0 0 0 0 0 0 0 0 0 0 0 0 0.16 0"/>
<feBlend mode="normal" in2="shape" result="effect2_innerShadow_914_37788"/>
</filter>
<filter id="filter1_f_914_37788" x="11.006" y="6.50586" width="45.0747" height="41.166" filterUnits="userSpaceOnUse" color-interpolation-filters="sRGB">
<feFlood flood-opacity="0" result="BackgroundImageFix"/>
<feBlend mode="normal" in="SourceGraphic" in2="BackgroundImageFix" result="shape"/>
<feGaussianBlur stdDeviation="8" result="effect1_foregroundBlur_914_37788"/>
</filter>
</defs>
</svg>
